<svg xmlns="http://www.w3.org/2000/svg" xmlns:xlink="http://www.w3.org/1999/xlink" fill="none" version="1.1" width="380" height="48" viewBox="0 0 380 48"><g><rect x="0" y="0" width="380" height="48" rx="4" fill="#E4041C" fill-opacity="1" style="mix-blend-mode:passthrough"/><g><path d="M179.1374375,19.523L184.8986875,19.523L184.8986875,20.555L179.1374375,20.555L179.1374375,19.523ZM174.9494375,28.3592L189.0536875,28.3592L189.0536875,29.4037L174.9494375,29.4037L174.9494375,28.3592ZM175.6141875,15.66925L180.6724375,15.66925L180.6724375,16.67625L175.6141875,16.67625L175.6141875,15.66925ZM180.3554375,15.66925L180.5664375,15.66925L180.7844375,15.61225L181.5814375,16.01925Q181.1396875,17.183,180.4414375,18.195Q179.7434375,19.207,178.8789375,20.048000000000002Q178.0146875,20.889,177.0611875,21.5425Q176.1079375,22.195700000000002,175.1494375,22.6555Q175.0736875,22.5168,174.9426875,22.353Q174.8119375,22.189,174.6716875,22.0235Q174.5314375,21.8577,174.4086875,21.7472Q175.3011875,21.372999999999998,176.1929375,20.773Q177.0849375,20.173000000000002,177.8941875,19.40475Q178.7034375,18.63625,179.3431875,17.75075Q179.9829375,16.865000000000002,180.3554375,15.90325L180.3554375,15.66925ZM183.0639375,15.098749999999999Q183.6796875,16.481749999999998,184.6656875,17.73725Q185.6516875,18.99275,186.9039875,19.9695Q188.1564875,20.94625,189.5574875,21.5027Q189.4184875,21.6192,189.2606875,21.7957Q189.1031875,21.972,188.9629875,22.1628Q188.8226875,22.3532,188.7249875,22.5107Q187.28368749999998,21.8527,186.0126875,20.784750000000003Q184.7416875,19.716749999999998,183.7256875,18.353Q182.7099375,16.98925,182.0184375,15.43975L183.0639375,15.098749999999999ZM175.6196875,17.9955L176.2724375,17.3305Q176.6996875,17.565,177.1394375,17.875Q177.5794375,18.185,177.9626875,18.508Q178.3461875,18.831,178.5674375,19.12325L177.8899375,19.858Q177.6651875,19.57525,177.2879375,19.24125Q176.9106875,18.90725,176.4739375,18.57975Q176.0371875,18.25225,175.6196875,17.9955ZM186.2669875,15.194749999999999L187.1911875,15.841249999999999Q186.5616875,16.42425,185.8009875,17.0175Q185.0401875,17.610500000000002,184.4091875,18.037L183.6771875,17.46275Q184.0844875,17.1615,184.5651875,16.7675Q185.0459875,16.37325,185.4976875,15.957Q185.9496875,15.5405,186.2669875,15.194749999999999ZM188.0651875,17.08L188.9609875,17.7175Q188.3314875,18.3095,187.5389875,18.914749999999998Q186.7466875,19.52,186.0836875,19.93325L185.3456875,19.359Q185.7811875,19.06125,186.2841875,18.670749999999998Q186.7871875,18.28,187.2611875,17.85925Q187.7354875,17.43825,188.0651875,17.08ZM178.5254375,22.862000000000002L178.5254375,24.881500000000003L185.1924875,24.881500000000003L185.1924875,22.862000000000002L178.5254375,22.862000000000002ZM177.3249375,21.8675L186.4649875,21.8675L186.4649875,25.875700000000002L177.3249375,25.875700000000002L177.3249375,21.8675ZM178.4626875,26.3512L179.5436875,25.997700000000002Q179.85818749999999,26.467,180.1294375,27.0308Q180.4009375,27.5945,180.5199375,28.0085L179.3821875,28.409Q179.2789375,27.995,179.0216875,27.4107Q178.7646875,26.8265,178.4626875,26.3512ZM184.4139875,25.9757L185.5769875,26.2872Q185.2399875,26.964199999999998,184.8729875,27.656Q184.5061875,28.3475,184.1811875,28.8398L183.1481875,28.5443Q183.3701875,28.1943,183.60693750000002,27.7425Q183.8436875,27.2907,184.0594875,26.823Q184.2754875,26.3552,184.4139875,25.9757ZM191.0569875,21.1145L205.0341875,21.1145L205.0341875,22.183799999999998L191.0569875,22.183799999999998L191.0569875,21.1145ZM197.3661875,21.6612L198.5886875,21.6612L198.5886875,28.4802Q198.5886875,28.991,198.4421875,29.249Q198.2958875,29.5072,197.9116875,29.6335Q197.5434875,29.7537,196.9174875,29.7852Q196.29138749999998,29.817,195.35648750000001,29.8073Q195.3091875,29.5775,195.1826875,29.276Q195.0564875,28.9748,194.9399875,28.7505Q195.4123875,28.7665,195.8421875,28.7775Q196.2719875,28.7885,196.5919875,28.7805Q196.9119875,28.7725,197.03368749999998,28.7725Q197.2256875,28.7628,197.2959875,28.6938Q197.3661875,28.625,197.3661875,28.465L197.3661875,21.6612ZM198.4478875,22.347Q199.03368749999998,23.713,200.0151875,24.8625Q200.9968875,26.012,202.3274875,26.8407Q203.6581875,27.6695,205.2456875,28.105Q205.1164875,28.2278,204.9618875,28.4072Q204.8074875,28.5868,204.6734875,28.7835Q204.5394875,28.9802,204.45148749999998,29.1443Q202.82648749999998,28.6268,201.4896875,27.6975Q200.1529875,26.768,199.1409875,25.485Q198.1288875,24.201700000000002,197.4799875,22.6372L198.4478875,22.347ZM202.9461875,22.5763L203.9701875,23.326Q203.4366875,23.7837,202.8126875,24.261Q202.18868750000001,24.7382,201.5691875,25.1613Q200.9496875,25.5842,200.4084875,25.9113L199.5919875,25.2365Q200.12698749999998,24.897,200.7419875,24.442500000000003Q201.3568875,23.9877,201.9416875,23.4932Q202.5266875,22.9985,202.9461875,22.5763ZM192.1371875,23.422L192.9473875,22.691000000000003Q193.4566875,22.9602,194.0196875,23.314500000000002Q194.5828875,23.6685,195.0851875,24.0273Q195.5873875,24.3857,195.9039875,24.6995L195.0561875,25.532Q194.7584875,25.2183,194.2671875,24.8405Q193.7761875,24.462699999999998,193.2191875,24.0882Q192.6623875,23.7135,192.1371875,23.422ZM191.0803875,27.6308Q191.9026875,27.319699999999997,193.00288749999999,26.883699999999997Q194.1033875,26.4478,195.3286875,25.9528Q196.5541875,25.4578,197.7701875,24.9548L198.00968749999998,25.9725Q196.9236875,26.4497,195.8053875,26.944699999999997Q194.6873875,27.439700000000002,193.64668749999998,27.8853Q192.6059875,28.3305,191.7258875,28.702L191.0803875,27.6308ZM192.6201875,18.5385L202.2034875,18.5385L202.2034875,19.63625L192.6201875,19.63625L192.6201875,18.5385ZM201.8554875,15.95L201.9846875,15.95L202.2053875,15.89925L203.14668749999998,15.95625Q203.1369875,16.817,203.0856875,17.82725Q203.0346875,18.8375,202.9611875,19.847Q202.8879875,20.85625,202.8054875,21.7382L201.5674875,21.6785Q201.6216875,21.011,201.6726875,20.24525Q201.7239875,19.47925,201.7606875,18.70675Q201.7976875,17.93425,201.8216875,17.261Q201.8456875,16.5875,201.8554875,16.108249999999998L201.8554875,15.95ZM192.13818750000002,15.95L202.1956875,15.95L202.1956875,17.066499999999998L192.13818750000002,17.066499999999998L192.13818750000002,15.95Z" fill="#FFFFFF" fill-opacity="1" style="mix-blend-mode:passthrough"/></g></g></svg>