<svg xmlns="http://www.w3.org/2000/svg" xmlns:xlink="http://www.w3.org/1999/xlink" fill="none" version="1.1" width="190" height="50" viewBox="0 0 190 50"><g><rect x="0" y="0" width="190" height="50" rx="0" fill="#000000" fill-opacity="0" style="mix-blend-mode:passthrough"/><g><path d="M60.5484375,23.534L61.6086875,23.534Q61.6086875,23.534,61.6054375,23.7257Q61.6024375,23.9175,61.5864375,24.035Q61.4576875,26.067700000000002,61.3244375,27.311Q61.1911875,28.554,61.0194375,29.2127Q60.8479375,29.8715,60.5981875,30.1303Q60.3946875,30.375,60.1556875,30.4718Q59.9169375,30.5688,59.5594375,30.6035Q59.2529375,30.6222,58.7296875,30.6155Q58.2066875,30.609,57.6306875,30.5735Q57.6146875,30.343,57.5326875,30.062Q57.4506875,29.781,57.3084375,29.563Q57.9081875,29.6208,58.4134375,29.6367Q58.9186875,29.6528,59.1329375,29.6528Q59.3346875,29.6528,59.4674375,29.6175Q59.6004375,29.5825,59.702687499999996,29.4643Q59.8856875,29.2687,60.0366875,28.6635Q60.1876875,28.0583,60.3114375,26.865000000000002Q60.4354375,25.671799999999998,60.5484375,23.7272L60.5484375,23.534ZM55.4929375,27.133699999999997Q56.3221875,26.9473,57.4461875,26.6595Q58.5701875,26.371499999999997,59.7486875,26.066000000000003L59.8564375,26.994500000000002Q58.7764375,27.2902,57.7099375,27.5925Q56.6434375,27.8945,55.7439375,28.1388L55.4929375,27.133699999999997ZM56.0206875,16.781L60.2419375,16.781L60.2419375,17.819L56.0206875,17.819L56.0206875,16.781ZM59.9001875,16.781L60.9416875,16.781Q60.890187499999996,17.6345,60.8096875,18.58925Q60.7294375,19.54375,60.6459375,20.4955Q60.5624375,21.447,60.4789375,22.29775Q60.3954375,23.1485,60.3154375,23.794L59.2604375,23.8532Q59.3501875,23.1722,59.449687499999996,22.302Q59.5491875,21.43175,59.6376875,20.4705Q59.7261875,19.509,59.7954375,18.55575Q59.8646875,17.6025,59.9001875,16.781ZM56.6969375,19.00625L57.7279375,19.073Q57.6701875,19.9425,57.5914375,20.95325Q57.5129375,21.963749999999997,57.4181875,22.8995Q57.3236875,23.835,57.2241875,24.5257L56.1959375,24.5257Q56.3016875,23.8127,56.396187499999996,22.8532Q56.4909375,21.8935,56.5711875,20.87975Q56.6516875,19.866,56.6969375,19.00625ZM56.5724375,23.5402L60.7209375,23.5402L60.7209375,24.5257L56.5724375,24.5257L56.5724375,23.5402ZM66.0564875,16.5615Q66.5391875,17.3675,67.2874875,18.2375Q68.0359875,19.10725,68.9011875,19.87475Q69.7666875,20.642,70.5819875,21.175Q70.4741875,21.30675,70.3521875,21.5095Q70.2304875,21.712249999999997,70.13368750000001,21.915Q70.0371875,22.1175,69.9706875,22.2875Q69.1116875,21.653750000000002,68.2074875,20.79075Q67.3034875,19.92775,66.5111875,18.97Q65.7189875,18.01225,65.1801875,17.1315L66.0564875,16.5615ZM65.65718749999999,15.94725L66.7071875,16.29025Q66.1514875,17.523,65.3574875,18.64Q64.56343749999999,19.75675,63.6349375,20.69425Q62.7064375,21.631500000000003,61.7116875,22.329250000000002Q61.6484375,22.2065,61.5156875,22.027Q61.3831875,21.8475,61.2441875,21.668Q61.1054375,21.488500000000002,60.9914375,21.372Q61.958687499999996,20.75975,62.8404375,19.92Q63.722187500000004,19.08,64.4464375,18.07175Q65.1709875,17.0635,65.65718749999999,15.94725ZM63.5216875,21.01575L68.2946875,21.01575L68.2946875,22.06375L63.5216875,22.06375L63.5216875,21.01575ZM62.4701875,23.706L63.4004375,23.4762Q63.6449375,24.078,63.8616875,24.7695Q64.0784375,25.461,64.2436875,26.1175Q64.40893750000001,26.7738,64.4791875,27.2955L63.4954375,27.560000000000002Q63.4279375,27.0382,63.2686875,26.372500000000002Q63.1096875,25.706699999999998,62.9039375,25.0122Q62.6984375,24.317500000000003,62.4701875,23.706ZM65.2904875,23.3005L66.2306875,23.1677Q66.3941875,23.7695,66.5349875,24.4613Q66.6759875,25.1528,66.7799875,25.807499999999997Q66.8839875,26.462,66.9221875,26.9837L65.9346875,27.1447Q65.9026875,26.622999999999998,65.7999875,25.9572Q65.6974875,25.2915,65.5676875,24.597Q65.4379875,23.9023,65.2904875,23.3005ZM68.9069875,23.3923L70.0011875,23.6585Q69.6421875,24.599,69.1991875,25.6477Q68.7561875,26.6965,68.30018749999999,27.6737Q67.8444875,28.651,67.4206875,29.3878L66.5409875,29.1055Q66.8394875,28.5518,67.17048750000001,27.8407Q67.5014875,27.1297,67.8261875,26.3482Q68.1509875,25.566499999999998,68.4306875,24.8042Q68.7106875,24.042,68.9069875,23.3923ZM61.9584375,28.939L70.1171875,28.939L70.1171875,29.9932L61.9584375,29.9932L61.9584375,28.939ZM81.3519875,17.607L82.57118750000001,17.607L82.57118750000001,29.6098L81.3519875,29.6098L81.3519875,17.607ZM78.0006875,21.302500000000002L79.1821875,21.302500000000002L79.1821875,29.698L78.0006875,29.698L78.0006875,21.302500000000002ZM81.7971875,22.6022L85.7401875,22.6022L85.7401875,23.7375L81.7971875,23.7375L81.7971875,22.6022ZM77.1731875,17.2855L86.0344875,17.2855L86.0344875,18.411L77.1731875,18.411L77.1731875,17.2855ZM76.6226875,29.0195L86.3774875,29.0195L86.3774875,30.145L76.6226875,30.145L76.6226875,29.0195ZM72.6196875,17.2025L73.4146875,16.47775Q73.8564875,16.82,74.3359875,17.2405Q74.8156875,17.661,75.2454875,18.07675Q75.6754875,18.49225,75.93418750000001,18.82475L75.1016875,19.663249999999998Q74.8456875,19.32475,74.42518749999999,18.895Q74.0046875,18.465,73.5329875,18.01925Q73.0614875,17.57325,72.6196875,17.2025ZM73.8936875,30.3302L73.6469875,29.1852L73.9501875,28.673L76.8236875,26.4867Q76.8869875,26.640700000000002,76.9686875,26.8357Q77.0506875,27.0308,77.1389875,27.2153Q77.2271875,27.3995,77.2929875,27.516199999999998Q76.2644875,28.325499999999998,75.6321875,28.8253Q74.9998875,29.325,74.6521875,29.6065Q74.3046875,29.8883,74.1453875,30.0487Q73.9861875,30.2092,73.8936875,30.3302ZM71.7899875,21.080750000000002L74.7506875,21.080750000000002L74.7506875,22.24075L71.7899875,22.24075L71.7899875,21.080750000000002ZM73.8936875,30.3302Q73.8244875,30.2038,73.6854875,30.0475Q73.5466875,29.8913,73.4031875,29.7442Q73.2598875,29.5975,73.1458875,29.5123Q73.3016875,29.3822,73.5154875,29.136Q73.7291875,28.8895,73.88748749999999,28.549Q74.0456875,28.2083,74.0456875,27.7812L74.0456875,21.080750000000002L75.2086875,21.080750000000002L75.2086875,28.6045Q75.2086875,28.6045,75.0751875,28.7345Q74.9416875,28.8645,74.7463875,29.0688Q74.5511875,29.273,74.3559875,29.5105Q74.1606875,29.7482,74.0271875,29.9648Q73.8936875,30.1815,73.8936875,30.3302ZM100.8679875,23.076999999999998L102.0281875,23.076999999999998Q102.0281875,23.076999999999998,102.02498750000001,23.1737Q102.0219875,23.2703,102.0156875,23.3953Q102.0094875,23.5203,101.9934875,23.6155Q101.8201875,25.7735,101.6246875,27.1175Q101.4291875,28.4615,101.2063875,29.183Q100.9839875,29.9042,100.6959875,30.195Q100.4699875,30.446,100.2151875,30.5522Q99.9604875,30.6585,99.5931875,30.6835Q99.2899875,30.7022,98.77618749999999,30.7035Q98.2623875,30.705,97.6766875,30.6695Q97.6606875,30.4202,97.5756875,30.1063Q97.4906875,29.7925,97.3516875,29.562Q97.9329875,29.6197,98.4224875,29.6325Q98.91198750000001,29.6455,99.1261875,29.6455Q99.3313875,29.6553,99.47218749999999,29.62Q99.61318750000001,29.585,99.7216875,29.4605Q99.9563875,29.2393,100.15368749999999,28.5745Q100.3508875,27.9095,100.5289875,26.625Q100.7071875,25.3403,100.8679875,23.2827L100.8679875,23.076999999999998ZM94.0851875,17.0015L100.0229875,17.0015L100.0229875,18.1055L94.0851875,18.1055L94.0851875,17.0015ZM94.85318749999999,19.100749999999998L95.9751875,19.18Q95.92088749999999,19.975,95.82668749999999,20.8855Q95.7323875,21.795749999999998,95.6381875,22.640700000000002Q95.5439875,23.485799999999998,95.4416875,24.1117L94.3199875,24.1117Q94.4283875,23.4635,94.5256875,22.5962Q94.6231875,21.729,94.71418750000001,20.807499999999997Q94.8051875,19.886,94.85318749999999,19.100749999999998ZM94.6449875,23.076999999999998L101.2186875,23.076999999999998L101.2186875,24.121499999999997L94.6449875,24.121499999999997L94.6449875,23.076999999999998ZM93.5516875,26.222L99.6643875,26.222L99.6643875,27.303800000000003L93.5516875,27.303800000000003L93.5516875,26.222ZM99.52618749999999,17.0015L99.6491875,17.0015L99.8449875,16.941L100.6829875,17.03625Q100.63488749999999,17.744,100.5516875,18.60025Q100.4686875,19.45625,100.3676875,20.369Q100.2668875,21.2815,100.15968749999999,22.175Q100.05268749999999,23.068199999999997,99.9406875,23.8507L98.8124875,23.7625Q98.92088749999999,22.974,99.0296875,22.06325Q99.1386875,21.152250000000002,99.2346875,20.238Q99.33068750000001,19.32375,99.4074875,18.518250000000002Q99.4843875,17.71275,99.52618749999999,17.14725L99.52618749999999,17.0015ZM87.8016875,16.9125L93.30188749999999,16.9125L93.30188749999999,18.012999999999998L87.8016875,18.012999999999998L87.8016875,16.9125ZM89.3638875,21.838749999999997L92.8381875,21.838749999999997L92.8381875,28.7585L89.3638875,28.7585L89.3638875,27.689L91.7813875,27.689L91.7813875,22.918L89.3638875,22.918L89.3638875,21.838749999999997ZM89.8578875,17.450499999999998L90.97788750000001,17.6865Q90.6933875,19.19675,90.2799875,20.64Q89.8666875,22.08325,89.3081875,23.3328Q88.7496875,24.5822,88.00018750000001,25.5415Q87.9681875,25.3872,87.8723875,25.144199999999998Q87.77698749999999,24.901,87.66568749999999,24.6515Q87.5546875,24.402,87.4531875,24.2515Q88.3764875,23.017,88.9566875,21.2345Q89.5371875,19.45175,89.8578875,17.450499999999998ZM88.8466875,21.838749999999997L89.8911875,21.838749999999997L89.8911875,30.047L88.8466875,30.047L88.8466875,21.838749999999997ZM108.1373875,20.523L113.8986875,20.523L113.8986875,21.555L108.1373875,21.555L108.1373875,20.523ZM103.9493875,29.3592L118.0536875,29.3592L118.0536875,30.4037L103.9493875,30.4037L103.9493875,29.3592ZM104.6141875,16.669249999999998L109.6724875,16.669249999999998L109.6724875,17.67625L104.6141875,17.67625L104.6141875,16.669249999999998ZM109.35548750000001,16.669249999999998L109.56638749999999,16.669249999999998L109.7844875,16.61225L110.5813875,17.01925Q110.13968750000001,18.183,109.44138749999999,19.195Q108.7434875,20.207,107.87888749999999,21.048000000000002Q107.01468750000001,21.889,106.0611875,22.5425Q105.1078875,23.195700000000002,104.1493875,23.6555Q104.0736875,23.5168,103.9426875,23.353Q103.8119875,23.189,103.67168749999999,23.0235Q103.5313875,22.8577,103.4086875,22.7472Q104.3011875,22.372999999999998,105.1928875,21.773Q106.0849875,21.173000000000002,106.8941875,20.40475Q107.7034875,19.63625,108.3431875,18.75075Q108.9828875,17.865000000000002,109.35548750000001,16.90325L109.35548750000001,16.669249999999998ZM112.0639875,16.09875Q112.6796875,17.481749999999998,113.66568749999999,18.73725Q114.65168750000001,19.99275,115.9039875,20.9695Q117.1563875,21.94625,118.55748750000001,22.5027Q118.4184875,22.6192,118.2606875,22.7957Q118.10318749999999,22.972,117.9628875,23.1628Q117.8226875,23.3532,117.7248875,23.5107Q116.2836875,22.8527,115.0126875,21.784750000000003Q113.7416875,20.716749999999998,112.72568749999999,19.353Q111.7099875,17.98925,111.01848749999999,16.43975L112.0639875,16.09875ZM104.6196875,18.9955L105.2724875,18.3305Q105.69968750000001,18.565,106.1394875,18.875Q106.5793875,19.185,106.9626875,19.508Q107.3461875,19.831,107.5673875,20.12325L106.88998749999999,20.858Q106.6651875,20.57525,106.2878875,20.24125Q105.9106875,19.90725,105.47398749999999,19.57975Q105.0371875,19.25225,104.6196875,18.9955ZM115.2668875,16.19475L116.1911875,16.84125Q115.5616875,17.42425,114.80098749999999,18.0175Q114.0401875,18.610500000000002,113.4091875,19.037L112.6771875,18.46275Q113.0844875,18.1615,113.56518750000001,17.7675Q114.04588749999999,17.37325,114.4976875,16.957Q114.94968750000001,16.5405,115.2668875,16.19475ZM117.06518750000001,18.08L117.9609875,18.7175Q117.3313875,19.3095,116.53898749999999,19.914749999999998Q115.74668750000001,20.52,115.0836875,20.93325L114.3456875,20.359Q114.7811875,20.06125,115.2841875,19.670749999999998Q115.7871875,19.28,116.2611875,18.85925Q116.7354875,18.43825,117.06518750000001,18.08ZM107.5253875,23.862000000000002L107.5253875,25.881500000000003L114.1923875,25.881500000000003L114.1923875,23.862000000000002L107.5253875,23.862000000000002ZM106.3248875,22.8675L115.4649875,22.8675L115.4649875,26.875700000000002L106.3248875,26.875700000000002L106.3248875,22.8675ZM107.4626875,27.3512L108.5436875,26.997700000000002Q108.8581875,27.467,109.1293875,28.0308Q109.4009875,28.5945,109.5199875,29.0085L108.3821875,29.409Q108.2789875,28.995,108.0216875,28.4107Q107.76468750000001,27.8265,107.4626875,27.3512ZM113.4138875,26.9757L114.5769875,27.2872Q114.23988750000001,27.964199999999998,113.8729875,28.656Q113.50618750000001,29.3475,113.1811875,29.8398L112.1481875,29.5443Q112.3701875,29.1943,112.6068875,28.7425Q112.8436875,28.2907,113.0593875,27.823Q113.2753875,27.3552,113.4138875,26.9757ZM120.0569875,22.1145L134.0341875,22.1145L134.0341875,23.183799999999998L120.0569875,23.183799999999998L120.0569875,22.1145ZM126.3661875,22.6612L127.5886875,22.6612L127.5886875,29.4802Q127.5886875,29.991,127.4421875,30.249Q127.2958875,30.5072,126.9116875,30.6335Q126.5434875,30.7537,125.9173875,30.7852Q125.2913875,30.817,124.3564875,30.8073Q124.3091875,30.5775,124.1826875,30.276Q124.0563875,29.9748,123.9399875,29.7505Q124.4123875,29.7665,124.8421875,29.7775Q125.2718875,29.7885,125.5918875,29.7805Q125.9119875,29.7725,126.0336875,29.7725Q126.2256875,29.7628,126.2958875,29.6938Q126.3661875,29.625,126.3661875,29.465L126.3661875,22.6612ZM127.4478875,23.347Q128.03368749999998,24.713,129.0151875,25.8625Q129.9969875,27.012,131.32748750000002,27.8407Q132.6581875,28.6695,134.2456875,29.105Q134.1164875,29.2278,133.9618875,29.4072Q133.8073875,29.5868,133.6734875,29.7835Q133.5393875,29.9802,133.45148749999998,30.1443Q131.82648749999998,29.6268,130.4896875,28.6975Q129.1529875,27.768,128.1409875,26.485Q127.1288875,25.201700000000002,126.4798875,23.6372L127.4478875,23.347ZM131.9461875,23.5763L132.9701875,24.326Q132.4366875,24.7837,131.81268749999998,25.261Q131.18868750000001,25.7382,130.5691875,26.1613Q129.94968749999998,26.5842,129.4084875,26.9113L128.59188749999998,26.2365Q129.12698749999998,25.897,129.74188750000002,25.442500000000003Q130.3569875,24.9877,130.9416875,24.4932Q131.52668749999998,23.9985,131.9461875,23.5763ZM121.1371875,24.422L121.9474875,23.691000000000003Q122.4566875,23.9602,123.0196875,24.314500000000002Q123.5829875,24.6685,124.0851875,25.0273Q124.5874875,25.3857,124.9039875,25.6995L124.0561875,26.532Q123.7584875,26.2183,123.2671875,25.8405Q122.7761875,25.462699999999998,122.2191875,25.0882Q121.6623875,24.7135,121.1371875,24.422ZM120.0803875,28.6308Q120.9026875,28.319699999999997,122.0028875,27.883699999999997Q123.1034875,27.4478,124.3286875,26.9528Q125.5541875,26.4578,126.7701875,25.9548L127.0096875,26.9725Q125.9236875,27.4497,124.8053875,27.944699999999997Q123.6874875,28.439700000000002,122.6466875,28.8853Q121.6058875,29.3305,120.7258875,29.702L120.0803875,28.6308ZM121.6201875,19.5385L131.2034875,19.5385L131.2034875,20.63625L121.6201875,20.63625L121.6201875,19.5385ZM130.85548749999998,16.95L130.9846875,16.95L131.2053875,16.899250000000002L132.14668749999998,16.95625Q132.1369875,17.817,132.0856875,18.82725Q132.03468750000002,19.8375,131.9611875,20.847Q131.8879875,21.85625,131.8053875,22.7382L130.5673875,22.6785Q130.6216875,22.011,130.6726875,21.24525Q130.72398750000002,20.47925,130.76068750000002,19.70675Q130.7976875,18.93425,130.8216875,18.261Q130.8456875,17.5875,130.85548749999998,17.108249999999998L130.85548749999998,16.95ZM121.1381875,16.95L131.19568750000002,16.95L131.19568750000002,18.066499999999998L121.1381875,18.066499999999998L121.1381875,16.95Z" fill="#6B7280" fill-opacity="1" style="mix-blend-mode:passthrough"/></g></g></svg>