<?xml version="1.0" encoding="utf-8"?>
<svg version="1.1" xmlns:xlink="http://www.w3.org/1999/xlink" width="87px" height="39px" xmlns="http://www.w3.org/2000/svg">
  <defs>
    <path d="M 0 0  L 103 0  L 103 46  L 0 46  Z " fill-rule="evenodd" fill="black" id="path40" />
    <clipPath id="clip41">
      <use xlink:href="#path40" />
    </clipPath>
    <filter x="-50.00%" y="-50.00%" width="200.00%" height="200.00%" filterUnits="objectBoundingBox" id="filter42">
      <feColorMatrix type="matrix" values="1 0 0 0 0  0 1 0 0 0  0 0 1 0 0  0 0 0 1 0  " in="SourceGraphic" />
    </filter>
  </defs>
  <g transform="matrix(1 0 0 1 -296 -224 )">
    <g transform="matrix(0.844660194174757 0 0 0.844660194174757 296 224.072815533981 )" clip-path="url(#clip41)" filter="url(#filter42)">
      <g>
        <rect x="0" y="0" width="103" height="46" rx="0" fill="#000000" fill-opacity="0" style="mix-blend-mode:passthrough" />
        <path d="M1,0L0,0L0,46L1,46L1,0Z" fill-rule="evenodd" fill="#E5E7EB" fill-opacity="1" style="mix-blend-mode:passthrough" />
        <g>
          <path d="M22.227249999999998,22.21844L30.1819,22.21844L30.1819,23.1978L22.227249999999998,23.1978L22.227249999999998,22.21844ZM26.92556,20.24881L27.64,19.73475Q28.0053,19.96728,28.383499999999998,20.26434Q28.7618,20.561410000000002,29.0851,20.86984Q29.4086,21.178060000000002,29.5943,21.447119999999998L28.8503,22.02812Q28.5658,21.621470000000002,28.0184,21.12425Q27.4713,20.62681,26.92556,20.24881ZM26.484560000000002,22.723750000000003Q26.91375,24.6466,27.8592,26.1054Q28.8048,27.5642,30.3494,28.2485Q30.2333,28.3452,30.0992,28.4911Q29.9653,28.6372,29.8507,28.7984Q29.7363,28.959899999999998,29.6562,29.0977Q28.5922,28.549300000000002,27.804299999999998,27.643700000000003Q27.0166,26.7378,26.485,25.5336Q25.95366,24.3292,25.63713,22.88409L26.484560000000002,22.723750000000003ZM17.87325,17.353L30.186700000000002,17.353L30.186700000000002,18.305L17.87325,18.305L17.87325,17.353ZM21.184910000000002,16.23497L22.227249999999998,16.23497L22.227249999999998,19.45562L21.184910000000002,19.45562L21.184910000000002,16.23497ZM25.85741,16.23497L26.89669,16.23497L26.89669,19.384529999999998L25.85741,19.384529999999998L25.85741,16.23497ZM25.50763,19.65906L26.492440000000002,19.65906L26.492440000000002,21.731279999999998Q26.492440000000002,22.593809999999998,26.36644,23.5567Q26.24044,24.5197,25.84953,25.500999999999998Q25.458840000000002,26.482100000000003,24.684910000000002,27.4144Q23.91119,28.3465,22.61575,29.153Q22.477719999999998,28.9848,22.25284,28.793Q22.028190000000002,28.601300000000002,21.83503,28.469Q23.06988,27.706899999999997,23.80772,26.8378Q24.54578,25.9687,24.91044,25.0773Q25.27509,24.1857,25.39125,23.3275Q25.50763,22.469340000000003,25.50763,21.72887L25.50763,19.65906ZM18.31316,20.07491L19.00572,19.51709Q19.944589999999998,20.13616,20.51597,20.80247Q21.08756,21.46856,21.37369,22.17381Q21.66003,22.87884,21.75497,23.6132Q21.84991,24.3473,21.84991,25.1027Q21.84991,26.2964,21.69919,27.1946Q21.54869,28.0925,21.12475,28.581899999999997Q20.857,28.9087,20.38778,28.977800000000002Q20.03931,29.0332,19.65366,29.0413Q19.26822,29.0496,18.83334,29.0356Q18.81934,28.8151,18.73316,28.558Q18.64719,28.301000000000002,18.50631,28.1024Q19.49878,28.1724,19.97872,28.1024Q20.12966,28.0884,20.22919,28.032400000000003Q20.32872,27.976399999999998,20.41272,27.8784Q20.66844,27.5664,20.76797,26.837600000000002Q20.8675,26.1087,20.8675,25.0482Q20.8675,24.124200000000002,20.67916,23.259700000000002Q20.49081,22.39519,19.94394,21.595869999999998Q19.39728,20.79634,18.31316,20.07491ZM20.74041,23.2682L21.46972,23.7153Q21.105719999999998,24.2419,20.55972,24.7892Q20.01372,25.3363,19.39072,25.8121Q18.76772,26.287599999999998,18.17666,26.611800000000002Q18.0745,26.4211,17.894906,26.1905Q17.715313,25.959899999999998,17.544031,25.8219Q18.12109,25.5668,18.73316,25.159100000000002Q19.34522,24.7511,19.87744,24.255000000000003Q20.40988,23.7589,20.74041,23.2682ZM21.54978,19.74175L22.41078,20.21075Q21.91597,20.77556,21.23413,21.316969999999998Q20.552500000000002,21.85837,19.77506,22.32322Q18.99784,22.78784,18.20466,23.154899999999998Q18.09397,22.99216,17.907813,22.79375Q17.721656,22.59534,17.569625,22.463Q18.35188,22.12634,19.10044,21.68337Q19.849,21.24041,20.48666,20.73619Q21.12431,20.231749999999998,21.54978,19.74175ZM38.0796,17.81434L43.3303,17.81434L43.3303,18.81316L38.0796,18.81316L38.0796,17.81434ZM43.0072,17.81434L43.175399999999996,17.81434L43.357600000000005,17.77541L44.0112,17.95216Q43.665400000000005,20.75566,42.8738,22.91341Q42.082300000000004,25.0709,40.9409,26.6072Q39.7997,28.1433,38.3946,29.1189Q38.272999999999996,28.9343,38.075500000000005,28.6998Q37.8782,28.4653,37.7097,28.327199999999998Q39.010400000000004,27.503700000000002,40.0941,26.0461Q41.177800000000005,24.5886,41.9362,22.56625Q42.6946,20.543689999999998,43.0072,18.05497L43.0072,17.81434ZM39.6732,18.52966Q39.9983,20.71322,40.602199999999996,22.603659999999998Q41.206199999999995,24.4939,42.1689,25.9291Q43.131699999999995,27.3643,44.5393,28.1934Q44.4232,28.284599999999998,44.2836,28.4279Q44.1443,28.5714,44.0172,28.7271Q43.890299999999996,28.8829,43.8048,29.0154Q42.347899999999996,28.0672,41.3548,26.5479Q40.361599999999996,25.0285,39.7441,23.0377Q39.126599999999996,21.046590000000002,38.751599999999996,18.67863L39.6732,18.52966ZM31.6672,16.90128L38.0304,16.90128L38.0304,17.853279999999998L31.6672,17.853279999999998L31.6672,16.90128ZM33.161,19.80387L36.660799999999995,19.80387L36.660799999999995,20.72634L33.161,20.72634L33.161,19.80387ZM33.1556,22.74934L36.7043,22.74934L36.7043,23.671799999999998L33.1556,23.671799999999998L33.1556,22.74934ZM32.6124,17.41556L33.6191,17.41556L33.6191,26.4095L32.6124,26.5256L32.6124,17.41556ZM31.5364,26.1754Q32.3617,26.060299999999998,33.451499999999996,25.8947Q34.5413,25.7292,35.7639,25.5327Q36.9867,25.3363,38.1986,25.142699999999998L38.254000000000005,26.034100000000002Q37.109,26.2526,35.9473,26.464199999999998Q34.7857,26.6757,33.7208,26.8577Q32.6562,27.0397,31.7748,27.1937L31.5364,26.1754ZM35.9774,17.40462L37.0088,17.40462L37.0088,29.097L35.9774,29.097L35.9774,17.40462ZM49.8617,22.77975L50.7894,22.77975Q50.7894,22.77975,50.7866,22.94753Q50.784,23.115299999999998,50.77,23.2181Q50.6573,24.9968,50.5407,26.084600000000002Q50.4241,27.1722,50.2738,27.7487Q50.1238,28.3251,49.9053,28.5515Q49.7272,28.7656,49.5181,28.8503Q49.3092,28.935200000000002,48.996300000000005,28.965600000000002Q48.7282,28.982,48.2703,28.976100000000002Q47.8127,28.970399999999998,47.3087,28.9393Q47.2947,28.7376,47.222899999999996,28.4917Q47.1512,28.2459,47.026700000000005,28.0551Q47.551500000000004,28.1057,47.9936,28.1197Q48.4357,28.133699999999997,48.6232,28.133699999999997Q48.7997,28.133699999999997,48.915800000000004,28.102800000000002Q49.0322,28.072200000000002,49.1217,27.9687Q49.2818,27.7977,49.4139,27.2681Q49.5461,26.738500000000002,49.6543,25.6944Q49.7628,24.6503,49.8617,22.94884L49.8617,22.77975ZM45.438199999999995,25.9295Q46.1637,25.7663,47.1473,25.5146Q48.1308,25.2626,49.1619,24.9952L49.2562,25.8077Q48.3112,26.066499999999998,47.378,26.3309Q46.4448,26.5952,45.6578,26.8089L45.438199999999995,25.9295ZM45.8999,16.87087L49.5935,16.87087L49.5935,17.77912L45.8999,17.77912L45.8999,16.87087ZM49.2945,16.87087L50.2058,16.87087Q50.1608,17.61769,50.0903,18.45309Q50.0201,19.28828,49.947,20.12106Q49.874,20.95362,49.8009,21.69803Q49.7278,22.442439999999998,49.6578,23.007199999999997L48.734700000000004,23.0591Q48.813199999999995,22.46322,48.9003,21.70175Q48.9874,20.94028,49.0648,20.09919Q49.1423,19.25787,49.2028,18.42378Q49.2634,17.58969,49.2945,16.87087ZM46.4917,18.81797L47.3938,18.87637Q47.3433,19.63719,47.2743,20.52159Q47.2057,21.40578,47.122699999999995,22.22456Q47.040099999999995,23.043100000000003,46.953,23.6475L46.0533,23.6475Q46.1458,23.023699999999998,46.2285,22.184089999999998Q46.3114,21.34431,46.3816,20.45728Q46.4521,19.57025,46.4917,18.81797ZM46.3827,22.785220000000002L50.0127,22.785220000000002L50.0127,23.6475L46.3827,23.6475L46.3827,22.785220000000002ZM54.6812,16.67881Q55.1036,17.384059999999998,55.7583,18.145310000000002Q56.4133,18.90634,57.1704,19.57791Q57.9277,20.24925,58.641,20.71562Q58.5467,20.83091,58.44,21.00831Q58.3335,21.18572,58.2488,21.363120000000002Q58.1644,21.540309999999998,58.1062,21.689059999999998Q57.3546,21.134529999999998,56.5633,20.37941Q55.7723,19.62428,55.0791,18.78625Q54.3859,17.94822,53.9145,17.17756L54.6812,16.67881ZM54.3319,16.14134L55.2506,16.44147Q54.7643,17.52012,54.0696,18.4975Q53.3748,19.47466,52.5624,20.29497Q51.75,21.11506,50.8796,21.72559Q50.8242,21.61819,50.7081,21.46112Q50.5921,21.30406,50.4705,21.147Q50.3491,20.98994,50.2493,20.887999999999998Q51.0957,20.35228,51.8672,19.6175Q52.6387,18.8825,53.2725,18.00028Q53.9064,17.11806,54.3319,16.14134ZM52.4633,20.57628L56.6397,20.57628L56.6397,21.49328L52.4633,21.49328L52.4633,20.57628ZM51.5433,22.93025L52.3572,22.729219999999998Q52.5712,23.255699999999997,52.7608,23.860799999999998Q52.9505,24.465899999999998,53.0951,25.040300000000002Q53.2397,25.6145,53.3011,26.0711L52.4403,26.302500000000002Q52.3813,25.846,52.2419,25.2634Q52.1028,24.6809,51.9228,24.0732Q51.743,23.4653,51.5433,22.93025ZM54.011,22.57544L54.8337,22.45928Q54.9767,22.98581,55.0999,23.5911Q55.2233,24.196199999999997,55.3143,24.7691Q55.4053,25.3418,55.4388,25.798299999999998L54.5747,25.9392Q54.5467,25.482599999999998,54.4568,24.900100000000002Q54.3671,24.3176,54.2536,23.709899999999998Q54.14,23.102,54.011,22.57544ZM57.1754,22.655720000000002L58.1329,22.88869Q57.8187,23.7116,57.4311,24.6293Q57.0435,25.5469,56.6445,26.402Q56.2457,27.2571,55.8749,27.9018L55.1052,27.6548Q55.3663,27.170299999999997,55.656,26.5482Q55.9456,25.926000000000002,56.2298,25.2422Q56.5139,24.5582,56.7587,23.891199999999998Q57.0037,23.2242,57.1754,22.655720000000002ZM51.0955,27.5091L58.2344,27.5091L58.2344,28.4316L51.0955,28.4316L51.0955,27.5091ZM68.06479999999999,17.59363L69.13159999999999,17.59363L69.13159999999999,28.096L68.06479999999999,28.096L68.06479999999999,17.59363ZM65.13239999999999,20.82719L66.1663,20.82719L66.1663,28.173299999999998L65.13239999999999,28.173299999999998L65.13239999999999,20.82719ZM68.45439999999999,21.96447L71.9045,21.96447L71.9045,22.957810000000002L68.45439999999999,22.957810000000002L68.45439999999999,21.96447ZM64.4084,17.31231L72.162,17.31231L72.162,18.29712L64.4084,18.29712L64.4084,17.31231ZM63.9267,27.5796L72.46209999999999,27.5796L72.46209999999999,28.5644L63.9267,28.5644L63.9267,27.5796ZM60.4241,17.23969L61.1197,16.60553Q61.5062,16.905,61.9258,17.27294Q62.3456,17.64087,62.7216,18.00466Q63.0978,18.36822,63.3242,18.65916L62.5958,19.39284Q62.3718,19.09666,62.0039,18.72062Q61.6359,18.344369999999998,61.2232,17.954340000000002Q60.8106,17.56409,60.4241,17.23969ZM61.5388,28.7265L61.3229,27.724600000000002L61.5882,27.276400000000002L64.1026,25.3634Q64.1579,25.4982,64.2294,25.668799999999997Q64.3012,25.839399999999998,64.3784,26.000799999999998Q64.4556,26.162100000000002,64.5132,26.264200000000002Q63.6132,26.9723,63.06,27.409599999999998Q62.5068,27.846899999999998,62.2025,28.0932Q61.8984,28.3397,61.7591,28.4802Q61.6198,28.6206,61.5388,28.7265ZM59.698,20.63316L62.2887,20.63316L62.2887,21.64816L59.698,21.64816L59.698,20.63316ZM61.5388,28.7265Q61.4782,28.6158,61.3566,28.479100000000003Q61.2352,28.3423,61.1096,28.2137Q60.9843,28.0853,60.8845,28.0107Q61.0208,27.897,61.2078,27.6815Q61.3949,27.4658,61.5333,27.1679Q61.6718,26.8697,61.6718,26.4961L61.6718,20.63316L62.6894,20.63316L62.6894,27.2164Q62.6894,27.2164,62.5726,27.330199999999998Q62.4558,27.4439,62.285,27.622700000000002Q62.1141,27.8014,61.9433,28.0092Q61.7724,28.2172,61.6556,28.4067Q61.5388,28.5963,61.5388,28.7265ZM85.1413,22.37988L86.1565,22.37988Q86.1565,22.37988,86.1537,22.46453Q86.151,22.54897,86.1456,22.658340000000003Q86.1401,22.76772,86.1261,22.85106Q85.9745,24.7393,85.8034,25.915300000000002Q85.6324,27.0913,85.4375,27.7226Q85.2428,28.3537,84.9908,28.6081Q84.793,28.8278,84.5701,28.9207Q84.3472,29.0137,84.0259,29.0356Q83.7605,29.052,83.311,29.0531Q82.8615,29.0544,82.3489,29.0233Q82.3349,28.8052,82.2606,28.5305Q82.1862,28.2559,82.0646,28.0542Q82.5732,28.104799999999997,83.0015,28.1159Q83.4298,28.127299999999998,83.6172,28.127299999999998Q83.7968,28.1358,83.92,28.105Q84.0434,28.0744,84.1383,27.965400000000002Q84.3437,27.7718,84.5163,27.1902Q84.6889,26.6083,84.8447,25.4844Q85.0006,24.3602,85.1413,22.559910000000002L85.1413,22.37988ZM79.2064,17.06381L84.4019,17.06381L84.4019,18.02981L79.2064,18.02981L79.2064,17.06381ZM79.8784,18.900660000000002L80.8601,18.97Q80.8127,19.66562,80.7302,20.462310000000002Q80.6477,21.25878,80.56530000000001,21.99816Q80.4828,22.73753,80.39330000000001,23.2853L79.4118,23.2853Q79.5067,22.71806,79.5918,21.959220000000002Q79.6771,21.20037,79.7568,20.39406Q79.8364,19.58775,79.8784,18.900660000000002ZM79.6962,22.37988L85.4482,22.37988L85.4482,23.293799999999997L79.6962,23.293799999999997L79.6962,22.37988ZM78.7396,25.1318L84.0882,25.1318L84.0882,26.0783L78.7396,26.0783L78.7396,25.1318ZM83.9672,17.06381L84.0749,17.06381L84.2462,17.01087L84.9794,17.09422Q84.9374,17.7135,84.8646,18.46272Q84.7919,19.21172,84.7036,20.01037Q84.6154,20.80881,84.5216,21.59062Q84.4279,22.37222,84.3299,23.0569L83.3427,22.979689999999998Q83.4377,22.289749999999998,83.5328,21.49284Q83.6282,20.69572,83.7122,19.89575Q83.7962,19.09578,83.8633,18.39097Q83.9307,17.68616,83.9672,17.19134L83.9672,17.06381ZM73.70830000000001,16.98594L78.521,16.98594L78.521,17.94887L73.70830000000001,17.94887L73.70830000000001,16.98594ZM75.0753,21.29641L78.1152,21.29641L78.1152,27.3512L75.0753,27.3512L75.0753,26.415399999999998L77.1906,26.415399999999998L77.1906,22.24075L75.0753,22.24075L75.0753,21.29641ZM75.5075,17.456690000000002L76.4875,17.66319Q76.23859999999999,18.984659999999998,75.8768,20.2475Q75.5152,21.51034,75.0265,22.603659999999998Q74.5378,23.697,73.882,24.5363Q73.854,24.4013,73.7702,24.1887Q73.6867,23.9759,73.58930000000001,23.7576Q73.4922,23.5392,73.4034,23.407600000000002Q74.21119999999999,22.327379999999998,74.71889999999999,20.76769Q75.2269,19.20778,75.5075,17.456690000000002ZM74.62270000000001,21.29641L75.53659999999999,21.29641L75.53659999999999,28.4786L74.62270000000001,28.4786L74.62270000000001,21.29641Z" fill="#E4041C" fill-opacity="1" style="mix-blend-mode:passthrough" />
        </g>
      </g>
    </g>
    <path d="M 296.5 262.5  L 296.5 224.5  L 382.5 224.5  L 382.5 262.5  L 296.5 262.5  Z " stroke-width="1" stroke="#c8c8c8" fill="none" />
  </g>
</svg>