<svg xmlns="http://www.w3.org/2000/svg" xmlns:xlink="http://www.w3.org/1999/xlink" fill="none" version="1.1" width="16" height="16" viewBox="0 0 16 16"><defs><clipPath id="master_svg0_21_1851"><rect x="0" y="0" width="16" height="16" rx="0"/></clipPath></defs><g clip-path="url(#master_svg0_21_1851)"><g transform="matrix(1,0,0,-1,0,32.500003814697266)"><g><path d="M7.5018561218261715,32.15620190734863Q7.734226121826172,32.15620190734863,7.933396121826172,32.06250190734863L14.207206121826172,29.562501907348633Q14.771606121826172,29.343801907348634,15.103506121826172,28.875001907348633Q15.468706121826171,28.40620190734863,15.468706121826171,27.78120190734863Q15.501906121826172,26.187501907348633,14.904306121826172,24.031251907348633Q14.306806121826172,21.875001907348633,12.746706121826172,19.843751907348633Q11.219706121826173,17.781251907348633,8.364926121826171,16.437501907348633Q7.5018561218261715,16.062501907348633,6.638786121826172,16.437501907348633Q3.7840161218261716,17.781251907348633,2.2570461218261717,19.843751907348633Q0.6968761218261719,21.875001907348633,0.09936912182617186,24.031251907348633Q-0.4981417781738281,26.187501907348633,-0.4649467781738281,27.78120190734863Q-0.4649467781738281,28.40620190734863,-0.09980187817382813,28.875001907348633Q0.23214912182617187,29.343801907348634,0.7964661218261719,29.562501907348633L7.070326121826172,32.06250190734863Q7.2694961218261716,32.15620190734863,7.5018561218261715,32.15620190734863ZM7.5018561218261715,30.062501907348633L7.5018561218261715,18.250001907348633L7.5018561218261715,30.062501907348633L7.5018561218261715,18.250001907348633Q9.759106121826171,19.343751907348633,11.053706121826172,21.031251907348633Q12.315106121826172,22.718751907348633,12.846306121826172,24.500001907348633Q13.344206121826172,26.312501907348633,13.344206121826172,27.750001907348633L7.5018561218261715,30.062501907348633Z" fill="#9CA3AF" fill-opacity="1" style="mix-blend-mode:passthrough"/></g></g></g></svg>