<svg xmlns="http://www.w3.org/2000/svg" xmlns:xlink="http://www.w3.org/1999/xlink" fill="none" version="1.1" width="396" height="48" viewBox="0 0 396 48"><g><rect x="0" y="0" width="396" height="48" rx="4" fill="#E60012" fill-opacity="1" style="mix-blend-mode:passthrough"/><g><path d="M174.0094375,24.694000000000003L180.1591875,24.694000000000003L180.1591875,25.9983L174.0094375,25.9983L174.0094375,24.694000000000003ZM174.0569375,21.8958L180.1361875,21.8958L180.1361875,23.076700000000002L174.0569375,23.076700000000002L174.0569375,21.8958ZM174.0656875,19.09975L180.1451875,19.09975L180.1451875,20.387999999999998L174.0656875,20.387999999999998L174.0656875,19.09975ZM176.2046875,19.74025L177.5376875,19.74025L177.5376875,29.206L176.2046875,29.206L176.2046875,19.74025ZM179.4621875,19.09975L180.90098749999999,19.09975L180.90098749999999,28.1812Q180.90098749999999,28.7003,180.7869875,29.0035Q180.6731875,29.307,180.3434875,29.4767Q180.0139875,29.6483,179.4994875,29.682Q178.9849875,29.716,178.2654875,29.716Q178.2404875,29.4338,178.1396875,29.0522Q178.0389875,28.671,177.9121875,28.3975Q178.3474875,28.4135,178.7256875,28.4172Q179.1039875,28.4207,179.2279875,28.4135Q179.4621875,28.4065,179.4621875,28.1705L179.4621875,19.09975ZM173.0399375,19.09975L174.4356875,19.09975L174.4356875,23.249499999999998Q174.4356875,24.018,174.3681875,24.889200000000002Q174.3006875,25.7603,174.1059375,26.6528Q173.9114375,27.545,173.5381875,28.3673Q173.1651875,29.1893,172.5631875,29.867Q172.4414375,29.7402,172.2251875,29.5823Q172.0089375,29.4242,171.7789375,29.2785Q171.5491875,29.133,171.3776875,29.0562Q172.1361875,28.2272,172.4824375,27.2253Q172.8286875,26.223,172.9341875,25.185200000000002Q173.0399375,24.147199999999998,173.0399375,23.2405L173.0399375,19.09975ZM174.6526875,14.95175L175.9659375,15.295Q175.3706875,16.948,174.4246875,18.43325Q173.4789375,19.91825,172.3511875,20.927500000000002Q172.2744375,20.781,172.1171875,20.56375Q171.9601875,20.3465,171.7904375,20.12125Q171.6209375,19.89575,171.4851875,19.76525Q172.5034375,18.9045,173.3311875,17.63425Q174.1591875,16.36375,174.6526875,14.95175ZM174.8274375,16.322L178.5074875,16.322L178.5074875,17.5655L174.2021875,17.5655L174.8274375,16.322ZM178.1194875,16.322L178.4466875,16.322L178.6769875,16.26325L179.6511875,16.90825Q179.3771875,17.4025,179.0061875,17.9495Q178.6354875,18.49625,178.2404875,18.99975Q177.8456875,19.503,177.4756875,19.89075Q177.2771875,19.72825,176.9841875,19.537750000000003Q176.6911875,19.34725,176.4676875,19.21875Q176.7769875,18.86475,177.0939875,18.39725Q177.4111875,17.92975,177.6871875,17.45175Q177.96348749999999,16.9735,178.1194875,16.59525L178.1194875,16.322ZM166.8221875,15.782L172.3166875,15.782L172.3166875,17.15975L166.8221875,17.15975L166.8221875,15.782ZM168.4484375,20.735500000000002L171.8666875,20.735500000000002L171.8666875,27.8535L168.4484375,27.8535L168.4484375,26.5205L170.5964375,26.5205L170.5964375,22.0758L168.4484375,22.0758L168.4484375,20.735500000000002ZM168.7491875,16.4775L170.1341875,16.7815Q169.8584375,18.2875,169.4356875,19.75675Q169.0129375,21.225749999999998,168.4379375,22.5075Q167.8629375,23.789,167.0866875,24.761699999999998Q167.0474375,24.561500000000002,166.9449375,24.2367Q166.8426875,23.9117,166.7144375,23.578Q166.5861875,23.2442,166.4684375,23.042Q167.3476875,21.8485,167.9019375,20.12225Q168.4561875,18.39575,168.7491875,16.4775ZM167.8386875,20.735500000000002L169.1141875,20.735500000000002L169.1141875,29.1042L167.8386875,29.1042L167.8386875,20.735500000000002ZM191.8071875,15.02875L193.3443875,15.02875Q193.3354875,16.73875,193.2784875,18.44525Q193.2216875,20.15175,193.0126875,21.7847Q192.8036875,23.4177,192.3411875,24.893700000000003Q191.8788875,26.369500000000002,191.06798750000002,27.6252Q190.2571875,28.8808,188.9891875,29.8382Q188.7999875,29.5503,188.4736875,29.2407Q188.1476875,28.9312,187.8366875,28.74Q189.0526875,27.8703,189.8106875,26.7192Q190.5689875,25.568199999999997,190.9784875,24.198Q191.3879875,22.8277,191.5583875,21.320999999999998Q191.7291875,19.814,191.7636875,18.22Q191.7981875,16.626,191.8071875,15.02875ZM193.2024875,19.75175Q193.25548750000002,20.2145,193.3911875,21.035Q193.5269875,21.8555,193.7976875,22.8848Q194.0684875,23.9137,194.5434875,24.983Q195.0186875,26.052,195.75968749999998,27.0255Q196.5009875,27.999,197.5658875,28.7125Q197.25288749999999,28.9287,196.9526875,29.2362Q196.6526875,29.5438,196.4651875,29.839Q195.3571875,29.0575,194.5891875,27.984Q193.8211875,26.9102,193.3271875,25.7195Q192.8331875,24.5287,192.5364875,23.389699999999998Q192.2398875,22.250500000000002,192.0906875,21.32275Q191.9416875,20.395,191.85648750000001,19.871499999999997L193.2024875,19.75175ZM184.0926875,16.19475L185.0986875,15.24375Q185.4986875,15.588750000000001,185.9799875,16.01025Q186.4611875,16.4315,186.8998875,16.8345Q187.3386875,17.23725,187.6146875,17.54325L186.56368750000001,18.637Q186.2969875,18.322,185.8724875,17.89075Q185.4481875,17.45925,184.9748875,17.012Q184.5016875,16.56475,184.0926875,16.19475ZM185.1383875,29.3628L184.8356875,27.9708L185.2151875,27.4185L188.4618875,25.1982Q188.5296875,25.4932,188.6671875,25.875Q188.8048875,26.2568,188.90868749999998,26.4802Q187.7673875,27.291,187.0658875,27.8Q186.3646875,28.3088,185.9766875,28.6095Q185.5889875,28.9102,185.4133875,29.075Q185.2381875,29.2397,185.1383875,29.3628ZM182.6859875,19.9745L186.3088875,19.9745L186.3088875,21.43125L182.6859875,21.43125L182.6859875,19.9745ZM185.1383875,29.3628Q185.0706875,29.2003,184.9303875,28.9983Q184.7901875,28.7962,184.6321875,28.5952Q184.4741875,28.3945,184.33848749999999,28.2838Q184.6021875,28.084,184.9284875,27.662Q185.2549875,27.2397,185.2549875,26.636200000000002L185.2549875,19.9745L186.7204875,19.9745L186.7204875,27.5802Q186.7204875,27.5802,186.5616875,27.706Q186.4031875,27.8318,186.1684875,28.0415Q185.9338875,28.251,185.6949875,28.4945Q185.4559875,28.738,185.2971875,28.9655Q185.1383875,29.193,185.1383875,29.3628ZM198.7839875,28.146L213.2343875,28.146L213.2343875,29.3628L198.7839875,29.3628L198.7839875,28.146ZM198.8728875,17.83L213.13468749999998,17.83L213.13468749999998,19.04475L198.8728875,19.04475L198.8728875,17.83ZM199.9748875,25.826700000000002L212.2066875,25.826700000000002L212.2066875,26.9985L199.9748875,26.9985L199.9748875,25.826700000000002ZM205.1666875,16.33425L206.6858875,16.33425L206.6858875,28.7432L205.1666875,28.7432L205.1666875,16.33425ZM210.8696875,15.0485L211.6191875,16.221Q210.5086875,16.413,209.1428875,16.5595Q207.7771875,16.706,206.2891875,16.80825Q204.8011875,16.910249999999998,203.2943875,16.9725Q201.7878875,17.0345,200.38898749999998,17.055500000000002Q200.3798875,16.78925,200.2771875,16.44625Q200.1746875,16.10325,200.0728875,15.871Q201.47368749999998,15.83175,202.9623875,15.76525Q204.4511875,15.69875,205.8926875,15.595749999999999Q207.33418749999998,15.492750000000001,208.6126875,15.35425Q209.8911875,15.2155,210.8696875,15.0485ZM201.9651875,22.8425L201.9651875,23.8447L210.0684875,23.8447L210.0684875,22.8425L201.9651875,22.8425ZM201.9651875,20.8975L201.9651875,21.8855L210.0684875,21.8855L210.0684875,20.8975L201.9651875,20.8975ZM200.4888875,19.86L211.60738750000002,19.86L211.60738750000002,24.889L200.4888875,24.889L200.4888875,19.86ZM224.50288749999999,16.630499999999998L224.50288749999999,17.847749999999998L226.8311875,17.847749999999998L226.8311875,16.630499999999998L224.50288749999999,16.630499999999998ZM220.8336875,16.630499999999998L220.8336875,17.847749999999998L223.11588749999999,17.847749999999998L223.11588749999999,16.630499999999998L220.8336875,16.630499999999998ZM217.2299875,16.630499999999998L217.2299875,17.847749999999998L219.4469875,17.847749999999998L219.4469875,16.630499999999998L217.2299875,16.630499999999998ZM215.78038750000002,15.58425L228.3524875,15.58425L228.3524875,18.90325L215.78038750000002,18.90325L215.78038750000002,15.58425ZM215.0564875,19.716L228.7531875,19.716L228.7531875,20.852L215.0564875,20.852L215.0564875,19.716ZM221.1384875,18.56975L222.6916875,18.6535Q222.57648749999998,19.505499999999998,222.3936875,20.448Q222.2111875,21.39025,222.0458875,22.082L220.6251875,22.082Q220.73318749999999,21.609,220.8279875,21.00725Q220.9226875,20.405250000000002,221.0048875,19.766Q221.0871875,19.1265,221.1384875,18.56975ZM214.8638875,28.2945L229.1703875,28.2945L229.1703875,29.3948L214.8638875,29.3948L214.8638875,28.2945ZM217.6426875,23.391L226.3244875,23.391L226.3244875,24.2202L217.6426875,24.2202L217.6426875,23.391ZM217.7066875,25.0042L226.2961875,25.0042L226.2961875,25.8247L217.7066875,25.8247L217.7066875,25.0042ZM217.7636875,26.640700000000002L226.3819875,26.640700000000002L226.3819875,27.4722L217.7636875,27.4722L217.7636875,26.640700000000002ZM216.88038749999998,21.666L227.0719875,21.666L227.0719875,28.9L225.5774875,28.9L225.5774875,22.6318L218.3121875,22.6318L218.3121875,28.9L216.88038749999998,28.9L216.88038749999998,21.666Z" fill="#FFFFFF" fill-opacity="1" style="mix-blend-mode:passthrough"/></g></g></svg>