<svg xmlns="http://www.w3.org/2000/svg" xmlns:xlink="http://www.w3.org/1999/xlink" fill="none" version="1.1" width="396" height="24" viewBox="0 0 396 24"><g><rect x="0" y="0" width="396" height="24" rx="0" fill="#000000" fill-opacity="0" style="mix-blend-mode:passthrough"/><g><rect x="170" y="4" width="56" height="16" rx="0" fill="#000000" fill-opacity="0" style="mix-blend-mode:passthrough"/><g><path d="M173.49169,10.46178L173.49169,15.8074L172.43819,15.8074L172.43819,11.45753L170.66325,11.45753L170.66325,10.46178L173.49169,10.46178ZM171.03513,6.26922L171.87359,5.73766Q172.20413,6.06819,172.57884,6.47003Q172.95378,6.87166,173.29919,7.25513Q173.64459,7.63859,173.857,7.92953L172.975,8.54663Q172.765,8.255690000000001,172.43469,7.85975Q172.10459,7.46381,171.73513,7.04425Q171.36566,6.62469,171.03513,6.26922ZM175.96663,8.839310000000001L181.6909,8.839310000000001L181.6909,9.79437L175.96663,9.79437L175.96663,8.839310000000001ZM175.38431,6.26528L176.42666,6.26528L176.42666,9.35228Q176.42666,10.05709,176.36366,10.87084Q176.30066,11.68437,176.12828,12.5277Q175.95613,13.3709,175.62713,14.1698Q175.29813,14.9687,174.75759,15.6352Q174.66966,15.5355,174.50559,15.4182Q174.34153,15.301,174.17353,15.192Q174.00575,15.0829,173.88172,15.0275Q174.55678,14.2009,174.87638,13.2067Q175.19619,12.2122,175.29025000000001,11.20116Q175.38431,10.18987,175.38431,9.33281L175.38431,6.26528ZM181.5181,8.839310000000001L181.7112,8.839310000000001L181.9077,8.800370000000001L182.5497,9.03859Q182.1896,10.36334,181.5828,11.44156Q180.976,12.5198,180.1804,13.3661Q179.38503,14.2122,178.45359,14.8361Q177.52238,15.46,176.51328,15.8653Q176.42228,15.6722,176.24684,15.4143Q176.07163,15.1564,175.91434,15.0019Q176.84075,14.6769,177.71159,14.1193Q178.58266,13.5617,179.33122,12.8024Q180.08,12.0429,180.6481,11.09287Q181.2164,10.14284,181.5181,9.027660000000001L181.5181,8.839310000000001ZM182.1293,5.4648699999999995L183.00639999999999,6.30312Q182.0463,6.56234,180.8047,6.74259Q179.56331,6.92262,178.23966000000001,7.02916Q176.91622,7.13569,175.68816,7.18075Q175.65775,6.98759,175.56653,6.71612Q175.47531,6.44444,175.38431,6.26528Q176.28272,6.22022,177.22225,6.14606Q178.16178,6.07169,179.06784,5.9736899999999995Q179.97391,5.8756900000000005,180.7649,5.74859Q181.5559,5.6212800000000005,182.1293,5.4648699999999995ZM176.73663,11.25716L177.47906,10.65341Q178.12219,11.16353,178.85259,11.75066Q179.58322,12.3378,180.3049,12.9417Q181.0268,13.5457,181.6473,14.0992Q182.2679,14.6524,182.705,15.098L181.8993,15.8459Q181.4872,15.3948,180.8776,14.8206Q180.2679,14.2462,179.56134,13.6201Q178.85478,12.9938,178.127,12.3888Q177.39922,11.78369,176.73663,11.25716ZM172.90172,15.3804Q173.25653,15.3804,173.58553,15.6164Q173.91475,15.8524,174.49837,16.1744Q175.19466,16.5384,176.12697,16.6434Q177.05928,16.7484,178.22369,16.7484Q179.05472,16.7484,179.99622,16.7152Q180.9377,16.6817,181.8433,16.6233Q182.7492,16.5649,183.4577,16.487000000000002Q183.3969,16.6218,183.3252,16.8246Q183.2536,17.0271,183.2068,17.2253Q183.16,17.4237,183.1405,17.581Q182.7472,17.609,182.1255,17.6326Q181.5038,17.6565,180.7942,17.6801Q180.0846,17.7039,179.40209,17.7179Q178.71981,17.7319,178.19088,17.7319Q176.93525,17.7319,175.98128,17.5922Q175.02731,17.4526,174.27569,17.0606Q173.81281,16.8062,173.46653,16.5601Q173.12025,16.3138,172.87984,16.3138Q172.65519,16.3138,172.37847,16.5411Q172.10175,16.7683,171.79069,17.125799999999998Q171.47984,17.4832,171.16659,17.8953L170.452813,16.924300000000002Q171.12963,16.2374,171.76356,15.8089Q172.39772,15.3804,172.90172,15.3804ZM189.2419,9.99497L189.2419,13.2128L192.6483,13.2128L192.6483,9.99497L189.2419,9.99497ZM188.2462,9.05084L193.693,9.05084L193.693,14.1429L188.2462,14.1429L188.2462,9.05084ZM185.1491,5.80875L196.8649,5.80875L196.8649,18.0994L195.7405,18.0994L195.7405,6.86991L186.2297,6.86991L186.2297,18.0994L185.1491,18.0994L185.1491,5.80875ZM185.7638,16.3586L196.3856,16.3586L196.3856,17.352L185.7638,17.352L185.7638,16.3586ZM202.50209999999998,9.14512L207.5432,9.14512L207.5432,10.04812L202.50209999999998,10.04812L202.50209999999998,9.14512ZM198.8376,16.8768L211.1788,16.8768L211.1788,17.7908L198.8376,17.7908L198.8376,16.8768ZM199.4193,5.77309L203.8452,5.77309L203.8452,6.65422L199.4193,6.65422L199.4193,5.77309ZM203.5678,5.77309L203.7525,5.77309L203.9432,5.7232199999999995L204.6406,6.07934Q204.2541,7.09762,203.6431,7.98312Q203.0323,8.86862,202.2759,9.6045Q201.5197,10.34037,200.68540000000002,10.91219Q199.8513,11.48378,199.0126,11.88606Q198.9463,11.76466,198.8317,11.62137Q198.7173,11.47787,198.5946,11.33306Q198.4718,11.18803,198.3644,11.09134Q199.1454,10.76388,199.9257,10.23887Q200.7062,9.71387,201.4142,9.04166Q202.1223,8.36922,202.6821,7.59441Q203.2419,6.81938,203.5678,5.9778400000000005L203.5678,5.77309ZM205.9378,5.27391Q206.4766,6.48403,207.3393,7.58259Q208.2021,8.68116,209.2978,9.53581Q210.3937,10.39047,211.6196,10.87741Q211.498,10.97934,211.3599,11.13378Q211.2221,11.288,211.0994,11.45491Q210.9767,11.62159,210.8912,11.75941Q209.6301,11.18366,208.5179,10.24916Q207.4058,9.31466,206.5168,8.12138Q205.628,6.92809,205.023,5.57228L205.9378,5.27391ZM199.4241,7.80856L199.9952,7.22669Q200.3691,7.43187,200.7538,7.70312Q201.1388,7.97437,201.4742,8.257Q201.8097,8.539629999999999,202.0033,8.79534L201.4105,9.43825Q201.2139,9.19084,200.8838,8.89859Q200.5537,8.60634,200.1715,8.31978Q199.7894,8.03322,199.4241,7.80856ZM208.7404,5.35791L209.5491,5.92359Q208.9983,6.43372,208.3327,6.95281Q207.667,7.47169,207.1149,7.84487L206.4744,7.34241Q206.8307,7.07881,207.2514,6.73406Q207.672,6.38909,208.0673,6.02487Q208.46280000000002,5.6604399999999995,208.7404,5.35791ZM210.3139,7.0075L211.0977,7.56531Q210.5468,8.08331,209.8534,8.61291Q209.1602,9.1425,208.58010000000002,9.50409L207.9343,9.001619999999999Q208.3154,8.74109,208.75549999999998,8.39941Q209.1956,8.057500000000001,209.6104,7.68934Q210.02530000000002,7.32097,210.3139,7.0075ZM201.9666,12.0667L201.9666,13.8338L207.8002,13.8338L207.8002,12.0667L201.9666,12.0667ZM200.9162,11.19656L208.9137,11.19656L208.9137,14.7038L200.9162,14.7038L200.9162,11.19656ZM201.9117,15.1198L202.8576,14.8105Q203.1328,15.2211,203.3701,15.7144Q203.6077,16.207700000000003,203.71179999999998,16.5699L202.7163,16.9204Q202.6259,16.5581,202.4008,16.0469Q202.1759,15.5357,201.9117,15.1198ZM207.119,14.7913L208.1367,15.0638Q207.8418,15.6562,207.5207,16.261499999999998Q207.1997,16.8666,206.9154,17.2973L206.0115,17.0387Q206.2057,16.7325,206.4129,16.3372Q206.6201,15.9419,206.8088,15.5326Q206.99779999999998,15.1233,207.119,14.7913ZM212.9317,10.53769L225.1618,10.53769L225.1618,11.47328L212.9317,11.47328L212.9317,10.53769ZM218.4523,11.01609L219.52190000000002,11.01609L219.52190000000002,16.9827Q219.52190000000002,17.4296,219.3937,17.6554Q219.2658,17.8813,218.9296,17.991799999999998Q218.6073,18.097,218.0596,18.1246Q217.5118,18.1524,216.6937,18.1438Q216.6524,17.9428,216.5417,17.679000000000002Q216.4312,17.415399999999998,216.3293,17.2192Q216.7427,17.2332,217.1188,17.242800000000003Q217.4948,17.2524,217.7748,17.2454Q218.0548,17.2384,218.16129999999998,17.2384Q218.3293,17.2299,218.3908,17.1695Q218.4523,17.1094,218.4523,16.9694L218.4523,11.01609ZM219.3988,11.61613Q219.91129999999998,12.8114,220.7701,13.8172Q221.6292,14.823,222.7933,15.5482Q223.9577,16.2733,225.3468,16.654400000000003Q225.2337,16.7618,225.0985,16.918799999999997Q224.9633,17.0759,224.8461,17.2481Q224.7288,17.4202,224.6518,17.5637Q223.23,17.1109,222.06029999999998,16.297800000000002Q220.8907,15.4845,220.0052,14.3619Q219.1197,13.239,218.55180000000001,11.87009L219.3988,11.61613ZM223.3348,11.81672L224.2308,12.4727Q223.7639,12.8733,223.2179,13.2909Q222.6719,13.7085,222.1299,14.0786Q221.58780000000002,14.4487,221.11419999999998,14.7348L220.3998,14.1444Q220.8679,13.8474,221.406,13.4497Q221.9442,13.0518,222.4558,12.6191Q222.9677,12.1862,223.3348,11.81672ZM213.8769,12.5567L214.5858,11.91712Q215.0314,12.1527,215.5241,12.4627Q216.0169,12.7724,216.4564,13.0863Q216.8958,13.4,217.1728,13.6746L216.43099999999998,14.403Q216.1705,14.1285,215.7406,13.7979Q215.311,13.4674,214.8236,13.1397Q214.3365,12.8118,213.8769,12.5567ZM212.9522,16.2394Q213.6717,15.9673,214.6344,15.5858Q215.5973,15.2043,216.6694,14.7712Q217.7417,14.338,218.8058,13.8979L219.0153,14.7884Q218.0651,15.206,217.0866,15.6392Q216.10829999999999,16.0723,215.1977,16.4621Q214.287,16.8517,213.517,17.1768L212.9522,16.2394ZM214.2995,8.28369L222.6848,8.28369L222.6848,9.24422L214.2995,9.24422L214.2995,8.28369ZM222.3803,6.01875L222.4934,6.01875L222.6866,5.97434L223.5102,6.02422Q223.5017,6.77737,223.4568,7.66134Q223.41219999999998,8.54531,223.3479,9.428619999999999Q223.28379999999999,10.31172,223.2116,11.08347L222.1283,11.03119Q222.1758,10.44712,222.22039999999998,9.777090000000001Q222.2653,9.10684,222.2974,8.43091Q222.3298,7.75497,222.3508,7.16587Q222.3718,6.57656,222.3803,6.15722L222.3803,6.01875ZM213.8778,6.01875L222.6781,6.01875L222.6781,6.99569L213.8778,6.99569L213.8778,6.01875Z" fill="#666666" fill-opacity="1" style="mix-blend-mode:passthrough"/></g></g></g></svg>