<svg xmlns="http://www.w3.org/2000/svg" xmlns:xlink="http://www.w3.org/1999/xlink" fill="none" version="1.1" width="396" height="32" viewBox="0 0 396 32"><g><rect x="0" y="0" width="396" height="32" rx="0" fill="#000000" fill-opacity="0" style="mix-blend-mode:passthrough"/><g><path d="M151.18763,23.469L172.8634,23.469L172.8634,25.2941L151.18763,25.2941L151.18763,23.469ZM151.32113,7.995L172.7138,7.995L172.7138,9.81713L151.32113,9.81713L151.32113,7.995ZM152.97412,19.9901L171.3218,19.9901L171.3218,21.7477L152.97412,21.7477L152.97412,19.9901ZM160.7618,5.75138L163.0406,5.75138L163.0406,24.3649L160.7618,24.3649L160.7618,5.75138ZM169.3162,3.82275L170.4405,5.5815Q168.7747,5.8695,166.7261,6.08925Q164.6775,6.309,162.4455,6.46238Q160.2135,6.61538,157.95337,6.70875Q155.69362,6.80175,153.59512,6.83325Q153.58162,6.43387,153.4275,5.91937Q153.27375,5.40487,153.12112,5.0565Q155.22225,4.99763,157.45538,4.89787Q159.6885,4.79812,161.8507,4.64363Q164.013,4.48912,165.9307,4.28137Q167.8485,4.07325,169.3162,3.82275ZM155.9595,15.5138L155.9595,17.0171L168.1144,17.0171L168.1144,15.5138L155.9595,15.5138ZM155.9595,12.5962L155.9595,14.0782L168.1144,14.0782L168.1144,12.5962L155.9595,12.5962ZM153.74513,11.04L170.4229,11.04L170.4229,18.5835L153.74513,18.5835L153.74513,11.04ZM189.7661,6.19575L189.7661,8.02162L193.2585,8.02162L193.2585,6.19575L189.7661,6.19575ZM184.2622,6.19575L184.2622,8.02162L187.6856,8.02162L187.6856,6.19575L184.2622,6.19575ZM178.85660000000001,6.19575L178.85660000000001,8.02162L182.1821,8.02162L182.1821,6.19575L178.85660000000001,6.19575ZM176.6824,4.62638L195.5404,4.62638L195.5404,9.60487L176.6824,9.60487L176.6824,4.62638ZM175.5964,10.824L196.1415,10.824L196.1415,12.528L175.5964,12.528L175.5964,10.824ZM184.7194,9.10462L187.04919999999998,9.23025Q186.8764,10.5083,186.6022,11.922Q186.3285,13.3354,186.0806,14.373L183.9495,14.373Q184.1115,13.6635,184.2536,12.7609Q184.3958,11.8579,184.5191,10.899Q184.64249999999998,9.93975,184.7194,9.10462ZM175.3076,23.6917L196.7674,23.6917L196.7674,25.3421L175.3076,25.3421L175.3076,23.6917ZM179.4757,16.3365L192.4984,16.3365L192.4984,17.5804L179.4757,17.5804L179.4757,16.3365ZM179.5718,18.7564L192.45600000000002,18.7564L192.45600000000002,19.9871L179.5718,19.9871L179.5718,18.7564ZM179.6572,21.2111L192.5846,21.2111L192.5846,22.4584L179.6572,22.4584L179.6572,21.2111ZM178.3324,13.749L193.6196,13.749L193.6196,24.6L191.3779,24.6L191.3779,15.1976L180.48,15.1976L180.48,24.6L178.3324,24.6L178.3324,13.749ZM202.2011,10.6511L204.051,11.4769Q203.4776,12.6075,202.6927,13.8285Q201.9082,15.0491,200.8875,15.9206L199.0511,14.811Q200.06889999999999,14.0381,200.8909,12.8767Q201.7132,11.715,202.2011,10.6511ZM205.1164,10.347L207.1564,10.347L207.1564,14.7139Q207.1564,15.2235,207.4586,15.3731Q207.7612,15.5224,208.7816,15.5224Q209.019,15.5224,209.6243,15.5224Q210.2295,15.5224,210.9555,15.5224Q211.68189999999998,15.5224,212.3336,15.5224Q212.9857,15.5224,213.2917,15.5224Q213.8591,15.5224,214.1374,15.3521Q214.416,15.1815,214.5413,14.6494Q214.66649999999998,14.1169,214.704,13.0417Q215.04680000000002,13.272,215.5946,13.4771Q216.1429,13.6819,216.5663,13.7704Q216.44060000000002,15.189,216.1328,15.9653Q215.8252,16.7415,215.2012,17.0363Q214.5772,17.331,213.4504,17.331Q213.2659,17.331,212.7773,17.331Q212.2886,17.331,211.65789999999998,17.331Q211.0271,17.331,210.3949,17.331Q209.763,17.331,209.2808,17.331Q208.7989,17.331,208.6253,17.331Q207.2276,17.331,206.46710000000002,17.1086Q205.707,16.8862,205.4115,16.3204Q205.1164,15.7545,205.1164,14.7409L205.1164,10.347ZM206.25900000000001,9.10837L207.36,7.779Q208.101,8.06888,208.8945,8.47725Q209.688,8.88562,210.3986,9.31425Q211.1096,9.74288,211.5686,10.1453L210.4031,11.6036Q209.9711,11.2013,209.2736,10.7419Q208.5765,10.2825,207.7897,9.84713Q207.003,9.41175,206.25900000000001,9.10837ZM215.397,11.8868L217.0245,10.7902Q217.7704,11.4221,218.5496,12.1927Q219.3293,12.963,220.005,13.7269Q220.68110000000001,14.4904,221.0651,15.1249L219.333,16.3605Q218.96550000000002,15.7391,218.3216,14.9501Q217.6781,14.1611,216.9105,13.3534Q216.1429,12.5452,215.397,11.8868ZM214.3256,8.59762L216.237,9.552Q214.3834,11.7896,211.7921,13.5503Q209.2012,15.3109,206.20499999999998,16.6181Q203.2091,17.925,200.1236,18.8265Q199.995,18.5693,199.7576,18.2209Q199.5206,17.8725,199.2649,17.5189Q199.0091,17.1649,198.8055,16.9451Q201.9225,16.1932,204.858,15.0098Q207.7939,13.8259,210.2415,12.2171Q212.6891,10.608,214.3256,8.59762ZM208.7989,18.0135L211.1051,18.0135L211.1051,23.9827L208.7989,23.9827L208.7989,18.0135ZM216.14780000000002,18.9619L218.41649999999998,18.9619L218.41649999999998,25.9298L216.14780000000002,25.9298L216.14780000000002,18.9619ZM199.7711,5.68237L220.2739,5.68237L220.2739,10.5371L217.965,10.5371L217.965,7.70888L201.9964,7.70888L201.9964,10.5371L199.7711,10.5371L199.7711,5.68237ZM208.36430000000001,3.81975L210.531,3.45487Q210.8325,4.14038,211.0871,4.94737Q211.34210000000002,5.75438,211.42759999999998,6.333L209.1322,6.76987Q209.0629,6.19087,208.84539999999998,5.355Q208.6283,4.51875,208.36430000000001,3.81975ZM201.7489,19.2442L203.9771,19.2442L203.9771,22.8652L217.38830000000002,22.8652L217.38830000000002,24.9994L201.7489,24.9994L201.7489,19.2442ZM242.4709,14.2148L244.656,14.2148Q244.656,14.2148,244.6492,14.3861Q244.64249999999998,14.5575,244.62900000000002,14.7799Q244.6155,15.0019,244.5915,15.165Q244.344,18.3698,244.0586,20.3857Q243.7736,22.4018,243.4459,23.49Q243.1181,24.5779,242.6861,25.0264Q242.3145,25.4516,241.9016,25.6335Q241.4891,25.8154,240.9176,25.869Q240.4425,25.9095,239.676,25.9174Q238.90949999999998,25.9256,238.035,25.8806Q238.011,25.4171,237.8486,24.8299Q237.68619999999999,24.243,237.429,23.8196Q238.2518,23.9021,238.9451,23.9194Q239.6389,23.9366,239.9644,23.9366Q240.2603,23.9471,240.46949999999998,23.8924Q240.6787,23.8376,240.84969999999998,23.643Q241.1771,23.3231,241.4606,22.3466Q241.74450000000002,21.3698,241.9973,19.4816Q242.2504,17.5931,242.4709,14.5845L242.4709,14.2148ZM232.5908,5.07262L241.4565,5.07262L241.4565,7.13663L232.5908,7.13663L232.5908,5.07262ZM233.7428,8.38087L235.8664,8.52Q235.7809,9.76125,235.6354,11.1679Q235.4899,12.5741,235.3444,13.8765Q235.19889999999998,15.1785,235.0417,16.1501L232.91809999999998,16.1501Q233.0891,15.141,233.24099999999999,13.8015Q233.39319999999998,12.4616,233.53199999999998,11.0366Q233.6707,9.61162,233.7428,8.38087ZM233.5238,14.2148L243.1114,14.2148L243.1114,16.1606L233.5238,16.1606L233.5238,14.2148ZM231.933,18.9484L240.84109999999998,18.9484L240.84109999999998,20.9749L231.933,20.9749L231.933,18.9484ZM240.5644,5.07262L240.7976,5.07262L241.1569,4.97363L242.7525,5.13713Q242.6805,6.264,242.5537,7.58512Q242.42700000000002,8.90588,242.27769999999998,10.3012Q242.1285,11.6966,241.9658,13.0612Q241.803,14.4259,241.635,15.6405L239.49790000000002,15.4714Q239.6689,14.2436,239.83010000000002,12.8468Q239.9914,11.4499,240.1354,10.056Q240.2794,8.66212,240.39260000000002,7.4295Q240.5059,6.19687,240.5644,5.32425L240.5644,5.07262ZM223.1366,4.923L231.5625,4.923L231.5625,6.98962L223.1366,6.98962L223.1366,4.923ZM225.62290000000002,12.3532L230.9404,12.3532L230.9404,23.0303L225.62290000000002,23.0303L225.62290000000002,21.0308L228.9675,21.0308L228.9675,14.3636L225.62290000000002,14.3636L225.62290000000002,12.3532ZM226.09050000000002,5.96625L228.17849999999999,6.42225Q227.74349999999998,8.69175,227.09890000000001,10.8956Q226.45420000000001,13.0991,225.576,15.0165Q224.6978,16.9335,223.512,18.3926Q223.464,18.0923,223.3102,17.6051Q223.1569,17.1176,222.9694,16.617Q222.7822,16.1164,222.60559999999998,15.813Q223.9459,14.0227,224.7878,11.4386Q225.62959999999998,8.85413,226.09050000000002,5.96625ZM224.6554,12.3532L226.6012,12.3532L226.6012,24.9064L224.6554,24.9064L224.6554,12.3532Z" fill="#000000" fill-opacity="1" style="mix-blend-mode:passthrough"/></g></g></svg>