<svg xmlns="http://www.w3.org/2000/svg" xmlns:xlink="http://www.w3.org/1999/xlink" fill="none" version="1.1" width="12" height="16" viewBox="0 0 12 16"><defs><clipPath id="master_svg0_21_1843"><rect x="0" y="0" width="11" height="16" rx="0"/></clipPath></defs><g><rect x="0" y="0" width="12" height="16" rx="0" fill="#000000" fill-opacity="0" style="mix-blend-mode:passthrough"/><g clip-path="url(#master_svg0_21_1843)"><g transform="matrix(1,0,0,-1,0,32.6875)"><g><path d="M-0.5,30.34375Q-0.46875,31.18755,0.09375,31.74995Q0.65625,32.31255,1.5,32.34375L8.5,32.34375Q9.34375,32.31255,9.9062,31.74995Q10.4688,31.18755,10.5,30.34375L10.5,18.34375Q10.4688,17.5,9.9062,16.9375Q9.34375,16.375,8.5,16.34375L1.5,16.34375Q0.65625,16.375,0.09375,16.9375Q-0.46875,17.5,-0.5,18.34375L-0.5,30.34375ZM6,18.34375Q6,18.78125,5.71875,19.0625Q5.4375,19.34375,5,19.34375Q4.5625,19.34375,4.28125,19.0625Q4,18.78125,4,18.34375Q4,17.90625,4.28125,17.625Q4.5625,17.34375,5,17.34375Q5.4375,17.34375,5.71875,17.625Q6,17.90625,6,18.34375ZM8.5,30.34375L1.5,30.34375L8.5,30.34375L1.5,30.34375L1.5,20.34375L8.5,20.34375L8.5,30.34375Z" fill="#9CA3AF" fill-opacity="1" style="mix-blend-mode:passthrough"/></g></g></g></g></svg>