<svg xmlns="http://www.w3.org/2000/svg" xmlns:xlink="http://www.w3.org/1999/xlink" fill="none" version="1.1" width="190" height="50" viewBox="0 0 190 50"><g><rect x="0" y="0" width="190" height="50" rx="0" fill="#000000" fill-opacity="0" style="mix-blend-mode:passthrough"/><g><path d="M65.9044375,20.655250000000002L66.8846875,21.09675Q66.4971875,21.84525,65.9604375,22.6768Q65.4236875,23.508200000000002,64.7214375,24.0975L63.7474375,23.5045Q64.4529375,22.9757,65.0119375,22.17425Q65.5709375,21.372500000000002,65.9044375,20.655250000000002ZM67.8261875,20.3925L68.9141875,20.3925L68.9141875,23.464199999999998Q68.9141875,23.7932,69.1226875,23.894199999999998Q69.3311875,23.994999999999997,70.0331875,23.994999999999997Q70.1966875,23.994999999999997,70.6354375,23.994999999999997Q71.0744375,23.994999999999997,71.6034375,23.994999999999997Q72.1324375,23.994999999999997,72.6049375,23.994999999999997Q73.0776875,23.994999999999997,73.2929875,23.994999999999997Q73.6874875,23.994999999999997,73.8796875,23.8748Q74.0721875,23.7542,74.1569875,23.3735Q74.2419875,22.992800000000003,74.2641875,22.2215Q74.4571875,22.348,74.7504875,22.460250000000002Q75.0439875,22.5723,75.2746875,22.622999999999998Q75.2016875,23.563499999999998,75.0224875,24.076999999999998Q74.8431875,24.5903,74.4611875,24.7855Q74.0791875,24.9805,73.3711875,24.9805Q73.2564875,24.9805,72.9129375,24.9805Q72.5696875,24.9805,72.1164375,24.9805Q71.6634375,24.9805,71.2119375,24.9805Q70.7606875,24.9805,70.4201875,24.9805Q70.0799375,24.9805,69.9751875,24.9805Q69.1221875,24.9805,68.6574375,24.8555Q68.1926875,24.7305,68.0094375,24.4023Q67.8261875,24.073700000000002,67.8261875,23.4767L67.8261875,20.3925ZM68.6286875,19.458L69.2321875,18.7485Q69.73168749999999,18.96075,70.2579375,19.255Q70.7841875,19.549,71.25268750000001,19.8525Q71.7211875,20.15575,72.0216875,20.43475L71.3834375,21.214Q71.0954375,20.935000000000002,70.6331875,20.6125Q70.1709375,20.289749999999998,69.6476875,19.983249999999998Q69.1246875,19.67675,68.6286875,19.458ZM74.6636875,21.32125L75.5309875,20.7345Q76.0471875,21.16375,76.5791875,21.68425Q77.1111875,22.2045,77.5656875,22.7218Q78.0204875,23.239,78.2764875,23.6647L77.3556875,24.3307Q77.1024875,23.9112,76.6651875,23.3797Q76.2279875,22.8482,75.7039875,22.30575Q75.1799875,21.762999999999998,74.6636875,21.32125ZM74.0011875,19.289L75.0196875,19.8Q73.7946875,21.281,72.0769375,22.438499999999998Q70.3591875,23.5957,68.3656875,24.4578Q66.3724375,25.319499999999998,64.3181875,25.9177Q64.2486875,25.779,64.1191875,25.593Q63.9896875,25.4067,63.8489375,25.2157Q63.7084375,25.0247,63.5944375,24.9082Q65.6779375,24.3988,67.6431875,23.6015Q69.6084375,22.8042,71.2524375,21.722250000000003Q72.8964375,20.64,74.0011875,19.289ZM70.3519375,25.5063L71.5684375,25.5063L71.5684375,29.521L70.3519375,29.521L70.3519375,25.5063ZM75.3326875,26.2282L76.5269875,26.2282L76.5269875,30.7455L75.3326875,30.7455L75.3326875,26.2282ZM64.2274375,17.435L77.7924875,17.435L77.7924875,20.56825L76.5796875,20.56825L76.5796875,18.516750000000002L65.4061875,18.516750000000002L65.4061875,20.56825L64.2274375,20.56825L64.2274375,17.435ZM70.0674375,16.08475L71.2046875,15.89575Q71.40293750000001,16.35,71.5674375,16.8825Q71.7319375,17.415,71.7861875,17.7955L70.5794375,18.03225Q70.52793750000001,17.65175,70.3856875,17.0985Q70.2434375,16.545,70.0674375,16.08475ZM65.5729375,26.359299999999998L66.7484375,26.359299999999998L66.7484375,28.9147L76.0154875,28.9147L76.0154875,30.0465L65.5729375,30.0465L65.5729375,26.359299999999998ZM92.8679875,23.076999999999998L94.0281875,23.076999999999998Q94.0281875,23.076999999999998,94.02498750000001,23.1737Q94.0219875,23.2703,94.0156875,23.3953Q94.0094875,23.5203,93.9934875,23.6155Q93.8201875,25.7735,93.6246875,27.1175Q93.4291875,28.4615,93.20648750000001,29.183Q92.9839875,29.9042,92.6959875,30.195Q92.4699875,30.446,92.2151875,30.5522Q91.9604875,30.6585,91.5931875,30.6835Q91.2899875,30.7022,90.77618749999999,30.7035Q90.26248749999999,30.705,89.6766875,30.6695Q89.6606875,30.4202,89.5756875,30.1063Q89.4906875,29.7925,89.3516875,29.562Q89.9329875,29.6197,90.4224875,29.6325Q90.9119875,29.6455,91.1261875,29.6455Q91.33148750000001,29.6553,91.4721875,29.62Q91.6131875,29.585,91.7216875,29.4605Q91.95648750000001,29.2393,92.1536875,28.5745Q92.3508875,27.9095,92.5289875,26.625Q92.7071875,25.3403,92.8679875,23.2827L92.8679875,23.076999999999998ZM86.0851875,17.0015L92.0229875,17.0015L92.0229875,18.1055L86.0851875,18.1055L86.0851875,17.0015ZM86.8531875,19.100749999999998L87.9751875,19.18Q87.92088749999999,19.975,87.82668749999999,20.8855Q87.7323875,21.795749999999998,87.6381875,22.640700000000002Q87.5439875,23.485799999999998,87.4416875,24.1117L86.3199875,24.1117Q86.4284875,23.4635,86.5256875,22.5962Q86.6231875,21.729,86.71418750000001,20.807499999999997Q86.8051875,19.886,86.8531875,19.100749999999998ZM86.6449875,23.076999999999998L93.2186875,23.076999999999998L93.2186875,24.121499999999997L86.6449875,24.121499999999997L86.6449875,23.076999999999998ZM85.5516875,26.222L91.6644875,26.222L91.6644875,27.303800000000003L85.5516875,27.303800000000003L85.5516875,26.222ZM91.52618749999999,17.0015L91.6491875,17.0015L91.8449875,16.941L92.6829875,17.03625Q92.6348875,17.744,92.5516875,18.60025Q92.4686875,19.45625,92.3676875,20.369Q92.2668875,21.2815,92.1596875,22.175Q92.0526875,23.068199999999997,91.9406875,23.8507L90.8124875,23.7625Q90.9209875,22.974,91.0296875,22.06325Q91.1386875,21.152250000000002,91.2346875,20.238Q91.3306875,19.32375,91.4074875,18.518250000000002Q91.4844875,17.71275,91.52618749999999,17.14725L91.52618749999999,17.0015ZM79.8016875,16.9125L85.30188749999999,16.9125L85.30188749999999,18.012999999999998L79.8016875,18.012999999999998L79.8016875,16.9125ZM81.3638875,21.838749999999997L84.8381875,21.838749999999997L84.8381875,28.7585L81.3638875,28.7585L81.3638875,27.689L83.7813875,27.689L83.7813875,22.918L81.3638875,22.918L81.3638875,21.838749999999997ZM81.8578875,17.450499999999998L82.9779875,17.6865Q82.6934875,19.19675,82.2799875,20.64Q81.8666875,22.08325,81.3081875,23.3328Q80.7496875,24.5822,80.0001875,25.5415Q79.9681875,25.3872,79.8724875,25.144199999999998Q79.7768875,24.901,79.6656875,24.6515Q79.5546875,24.402,79.4531875,24.2515Q80.3764875,23.017,80.9566875,21.2345Q81.5371875,19.45175,81.8578875,17.450499999999998ZM80.8466875,21.838749999999997L81.8911875,21.838749999999997L81.8911875,30.047L80.8466875,30.047L80.8466875,21.838749999999997ZM100.1373875,20.523L105.8986875,20.523L105.8986875,21.555L100.1373875,21.555L100.1373875,20.523ZM95.9493875,29.3592L110.0536875,29.3592L110.0536875,30.4037L95.9493875,30.4037L95.9493875,29.3592ZM96.6141875,16.669249999999998L101.6724875,16.669249999999998L101.6724875,17.67625L96.6141875,17.67625L96.6141875,16.669249999999998ZM101.35548750000001,16.669249999999998L101.56638749999999,16.669249999999998L101.7844875,16.61225L102.5813875,17.01925Q102.13968750000001,18.183,101.44138749999999,19.195Q100.7434875,20.207,99.87888749999999,21.048000000000002Q99.01468750000001,21.889,98.0611875,22.5425Q97.1078875,23.195700000000002,96.1493875,23.6555Q96.0736875,23.5168,95.9426875,23.353Q95.8119875,23.189,95.67168749999999,23.0235Q95.5313875,22.8577,95.4086875,22.7472Q96.3011875,22.372999999999998,97.1928875,21.773Q98.0849875,21.173000000000002,98.8941875,20.40475Q99.7034875,19.63625,100.3431875,18.75075Q100.9828875,17.865000000000002,101.35548750000001,16.90325L101.35548750000001,16.669249999999998ZM104.0639875,16.09875Q104.6796875,17.481749999999998,105.66568749999999,18.73725Q106.65168750000001,19.99275,107.9039875,20.9695Q109.1563875,21.94625,110.55748750000001,22.5027Q110.4184875,22.6192,110.2606875,22.7957Q110.10318749999999,22.972,109.9628875,23.1628Q109.8226875,23.3532,109.7248875,23.5107Q108.2836875,22.8527,107.0126875,21.784750000000003Q105.7416875,20.716749999999998,104.72568749999999,19.353Q103.7099875,17.98925,103.01848749999999,16.43975L104.0639875,16.09875ZM96.6196875,18.9955L97.2724875,18.3305Q97.69968750000001,18.565,98.1394875,18.875Q98.5793875,19.185,98.9626875,19.508Q99.3461875,19.831,99.5673875,20.12325L98.88998749999999,20.858Q98.6651875,20.57525,98.2878875,20.24125Q97.9106875,19.90725,97.47398749999999,19.57975Q97.0371875,19.25225,96.6196875,18.9955ZM107.2668875,16.19475L108.1911875,16.84125Q107.5616875,17.42425,106.80098749999999,18.0175Q106.0401875,18.610500000000002,105.4091875,19.037L104.6771875,18.46275Q105.0844875,18.1615,105.56518750000001,17.7675Q106.04588749999999,17.37325,106.4976875,16.957Q106.94968750000001,16.5405,107.2668875,16.19475ZM109.06518750000001,18.08L109.9609875,18.7175Q109.3313875,19.3095,108.53898749999999,19.914749999999998Q107.74668750000001,20.52,107.0836875,20.93325L106.3456875,20.359Q106.7811875,20.06125,107.2841875,19.670749999999998Q107.7871875,19.28,108.2611875,18.85925Q108.7354875,18.43825,109.06518750000001,18.08ZM99.5253875,23.862000000000002L99.5253875,25.881500000000003L106.1923875,25.881500000000003L106.1923875,23.862000000000002L99.5253875,23.862000000000002ZM98.3248875,22.8675L107.4649875,22.8675L107.4649875,26.875700000000002L98.3248875,26.875700000000002L98.3248875,22.8675ZM99.4626875,27.3512L100.5436875,26.997700000000002Q100.8581875,27.467,101.1293875,28.0308Q101.4009875,28.5945,101.5199875,29.0085L100.3821875,29.409Q100.2789875,28.995,100.0216875,28.4107Q99.76468750000001,27.8265,99.4626875,27.3512ZM105.4138875,26.9757L106.5769875,27.2872Q106.23988750000001,27.964199999999998,105.8729875,28.656Q105.50618750000001,29.3475,105.1811875,29.8398L104.1481875,29.5443Q104.3701875,29.1943,104.6068875,28.7425Q104.8436875,28.2907,105.0593875,27.823Q105.2753875,27.3552,105.4138875,26.9757ZM112.05698749999999,22.1145L126.0341875,22.1145L126.0341875,23.183799999999998L112.05698749999999,23.183799999999998L112.05698749999999,22.1145ZM118.3661875,22.6612L119.58868749999999,22.6612L119.58868749999999,29.4802Q119.58868749999999,29.991,119.4421875,30.249Q119.29588749999999,30.5072,118.9116875,30.6335Q118.5434875,30.7537,117.9174875,30.7852Q117.2914875,30.817,116.3564875,30.8073Q116.30918750000001,30.5775,116.1826875,30.276Q116.0564875,29.9748,115.9399875,29.7505Q116.4123875,29.7665,116.8421875,29.7775Q117.2719875,29.7885,117.5919875,29.7805Q117.91198750000001,29.7725,118.0336875,29.7725Q118.22568749999999,29.7628,118.29588749999999,29.6938Q118.3661875,29.625,118.3661875,29.465L118.3661875,22.6612ZM119.44788750000001,23.347Q120.0336875,24.713,121.0151875,25.8625Q121.9968875,27.012,123.32748749999999,27.8407Q124.6581875,28.6695,126.2456875,29.105Q126.1164875,29.2278,125.9618875,29.4072Q125.80748750000001,29.5868,125.6734875,29.7835Q125.5393875,29.9802,125.4514875,30.1443Q123.8264875,29.6268,122.4896875,28.6975Q121.1529875,27.768,120.1409875,26.485Q119.12888749999999,25.201700000000002,118.4799875,23.6372L119.44788750000001,23.347ZM123.94618750000001,23.5763L124.97018750000001,24.326Q124.4366875,24.7837,123.81268750000001,25.261Q123.1886875,25.7382,122.5691875,26.1613Q121.94968750000001,26.5842,121.4084875,26.9113L120.5919875,26.2365Q121.1269875,25.897,121.74188749999999,25.442500000000003Q122.3568875,24.9877,122.9416875,24.4932Q123.52668750000001,23.9985,123.94618750000001,23.5763ZM113.13718750000001,24.422L113.94738749999999,23.691000000000003Q114.4566875,23.9602,115.0196875,24.314500000000002Q115.5829875,24.6685,116.0851875,25.0273Q116.5873875,25.3857,116.9039875,25.6995L116.0561875,26.532Q115.7584875,26.2183,115.2671875,25.8405Q114.77618749999999,25.462699999999998,114.2191875,25.0882Q113.6623875,24.7135,113.13718750000001,24.422ZM112.0803875,28.6308Q112.9026875,28.319699999999997,114.0028875,27.883699999999997Q115.1034875,27.4478,116.3286875,26.9528Q117.5541875,26.4578,118.77018749999999,25.9548L119.0096875,26.9725Q117.9236875,27.4497,116.8054875,27.944699999999997Q115.6874875,28.439700000000002,114.6466875,28.8853Q113.6059875,29.3305,112.7258875,29.702L112.0803875,28.6308ZM113.6201875,19.5385L123.2034875,19.5385L123.2034875,20.63625L113.6201875,20.63625L113.6201875,19.5385ZM122.85548750000001,16.95L122.9846875,16.95L123.2053875,16.899250000000002L124.1466875,16.95625Q124.1369875,17.817,124.0856875,18.82725Q124.03468749999999,19.8375,123.9611875,20.847Q123.88798750000001,21.85625,123.8054875,22.7382L122.5673875,22.6785Q122.62168750000001,22.011,122.6726875,21.24525Q122.72398749999999,20.47925,122.7606875,19.70675Q122.7976875,18.93425,122.8216875,18.261Q122.8456875,17.5875,122.85548750000001,17.108249999999998L122.85548750000001,16.95ZM113.1381875,16.95L123.19568749999999,16.95L123.19568749999999,18.066499999999998L113.1381875,18.066499999999998L113.1381875,16.95Z" fill="#6B7280" fill-opacity="1" style="mix-blend-mode:passthrough"/></g></g></svg>