<svg xmlns="http://www.w3.org/2000/svg" xmlns:xlink="http://www.w3.org/1999/xlink" fill="none" version="1.1" width="1207" height="82" viewBox="0 0 1207 82"><g><rect x="0" y="0" width="1207" height="82" rx="12" fill="#FFFFFF" fill-opacity="1" style="mix-blend-mode:passthrough"/><rect x="0.5" y="0.5" width="1206" height="81" rx="11.5" fill-opacity="0" stroke-opacity="1" stroke="#E5E7EB" fill="none" stroke-width="1" style="mix-blend-mode:passthrough"/><g><rect x="17" y="17" width="278.484375" height="48" rx="0" fill="#000000" fill-opacity="0" style="mix-blend-mode:passthrough"/><g><rect x="17" y="37" width="8" height="8" rx="4" fill="#E6002D" fill-opacity="1" style="mix-blend-mode:passthrough"/></g><g><rect x="41" y="17" width="254.484375" height="48" rx="0" fill="#000000" fill-opacity="0" style="mix-blend-mode:passthrough"/><g><rect x="41" y="17" width="254.484375" height="24" rx="0" fill="#000000" fill-opacity="0" style="mix-blend-mode:passthrough"/><g><rect x="41" y="17" width="72" height="24" rx="4" fill="#FEE2E2" fill-opacity="1" style="mix-blend-mode:passthrough"/><g><path d="M55.86634,22.83041L61.544399999999996,22.83041L61.544399999999996,23.73341L55.86634,23.73341L55.86634,22.83041ZM57.88431,23.15788L58.88619,23.21869Q58.73831,25.01178,58.07353,26.16087Q57.40875,27.30975,56.18419,28.021340000000002Q56.10697,27.93034,55.958,27.804560000000002Q55.80925,27.67878,55.65766,27.560000000000002Q55.506280000000004,27.44122,55.39013,27.37187Q56.60069,26.78781,57.18913,25.76166Q57.77778,24.73528,57.88431,23.15788ZM61.018299999999996,22.83041L62.0196,22.83041Q62.0196,22.83041,62.0196,22.98856Q62.0196,23.146720000000002,62.0056,23.24931Q61.9465,24.50603,61.875,25.29353Q61.803399999999996,26.08081,61.6984,26.50475Q61.5934,26.92869,61.434,27.11309Q61.2782,27.285249999999998,61.0859,27.363120000000002Q60.8939,27.44078,60.6169,27.46266Q60.3851,27.48759,59.9677,27.48453Q59.5505,27.48147,59.0831,27.45894Q59.0691,27.25484,58.99731,26.99825Q58.92578,26.74144,58.81509,26.55069Q59.2568,26.59575,59.6295,26.60275Q60.0023,26.60975,60.1477,26.60975Q60.4649,26.62681,60.5793,26.48681Q60.688900000000004,26.35775,60.7635,25.99419Q60.8381,25.63062,60.9013,24.90219Q60.9648,24.17353,61.018299999999996,22.98856L61.018299999999996,22.83041ZM50.01566,23.92437L55.43475,23.92437L55.43475,24.8545L50.01566,24.8545L50.01566,23.92437ZM49.730844,26.59072L55.71869,26.59072L55.71869,27.540309999999998L49.730844,27.540309999999998L49.730844,26.59072ZM52.90053,29.5349L55.58241,29.5349L55.58241,30.465L52.90053,30.465L52.90053,29.5349ZM52.25194,22.24044L53.22581,22.24044L53.22581,27.087719999999997L52.25194,27.087719999999997L52.25194,22.24044ZM52.44028,27.19119L53.38681,27.19119L53.38681,33.5653L52.44028,33.5653L52.44028,27.19119ZM51.11772,30.2222Q51.40625,31.319699999999997,51.85578,32.0162Q52.30531,32.7124,52.97644,33.088499999999996Q53.64756,33.4645,54.57025,33.608000000000004Q55.49294,33.7513,56.72231,33.7513Q56.89906,33.7513,57.33088,33.7541Q57.76269,33.7568,58.34938,33.7541Q58.93628,33.7513,59.583600000000004,33.7513Q60.2311,33.7513,60.8346,33.7487Q61.4381,33.7458,61.902100000000004,33.737700000000004Q62.3663,33.7294,62.582,33.7239Q62.4962,33.837,62.4105,34.0232Q62.3249,34.2093,62.2571,34.4064Q62.1893,34.6038,62.1537,34.757999999999996L61.105199999999996,34.757999999999996L56.74244,34.757999999999996Q55.30525,34.757999999999996,54.25394,34.583Q53.20284,34.408,52.45713,33.946600000000004Q51.71163,33.4853,51.19866,32.6459Q50.68569,31.8064,50.34181,30.4832L51.11772,30.2222ZM50.35713,28.54766L51.30978,28.608249999999998Q51.27872,29.9468,51.188810000000004,31.146Q51.09913,32.3449,50.87316,33.3534Q50.64741,34.3618,50.22916,35.139700000000005Q50.14647,35.0649,49.9905,34.9695Q49.83475,34.8741,49.669156,34.7798Q49.503781000000004,34.6858,49.382156,34.6359Q49.786406,33.9274,49.990063,32.9839Q50.19394,32.0404,50.267,30.9119Q50.34006,29.7834,50.35713,28.54766ZM57.316,29.1247L57.316,31.708399999999997L60.6613,31.708399999999997L60.6613,29.1247L57.316,29.1247ZM56.32266,28.24928L61.709199999999996,28.24928L61.709199999999996,32.5871L56.32266,32.5871L56.32266,28.24928ZM64.6476,23.41316L68.5212,23.41316L68.5212,32.518L64.6476,32.518L64.6476,31.566000000000003L67.5367,31.566000000000003L67.5367,24.36516L64.6476,24.36516L64.6476,23.41316ZM64.6966,27.430059999999997L67.9015,27.430059999999997L67.9015,28.36566L64.6966,28.36566L64.6966,27.430059999999997ZM64.1397,23.41316L65.1383,23.41316L65.1383,33.6465L64.1397,33.6465L64.1397,23.41316ZM69.1541,25.04044L76.4676,25.04044L76.4676,26.083L69.1541,26.083L69.1541,25.04044ZM73.70230000000001,22.31591L74.7666,22.31591L74.7666,33.5373Q74.7666,34.1094,74.6003,34.382400000000004Q74.43430000000001,34.6554,74.0561,34.790800000000004Q73.6833,34.9179,72.9975,34.9494Q72.3118,34.9809,71.25319999999999,34.9756Q71.21430000000001,34.7551,71.10249999999999,34.441900000000004Q70.9907,34.1286,70.8691,33.9051Q71.4252,33.9191,71.9213,33.9289Q72.4174,33.9385,72.7814,33.9344Q73.1454,33.93,73.29939999999999,33.9215Q73.52029999999999,33.9129,73.6113,33.8333Q73.70230000000001,33.7535,73.70230000000001,33.5349L73.70230000000001,22.31591ZM69.6332,27.66609L70.5018,27.21416Q70.8835,27.73894,71.3011,28.35494Q71.7187,28.97072,72.0928,29.5484Q72.4668,30.1262,72.6996,30.552300000000002L71.7732,31.09Q71.5514,30.6584,71.19239999999999,30.0638Q70.8337,29.4692,70.4242,28.83838Q70.0149,28.20728,69.6332,27.66609ZM78.4573,23.81741L89.6048,23.81741L89.6048,24.9035L78.4573,24.9035L78.4573,23.81741ZM77.7278,32.994L90.3081,32.994L90.3081,34.044200000000004L77.7278,34.044200000000004L77.7278,32.994ZM83.3829,24.36691L84.55080000000001,24.36691L84.55080000000001,33.4302L83.3829,33.4302L83.3829,24.36691ZM97.42580000000001,25.14544L98.50970000000001,25.14544L98.50970000000001,35.1032L97.42580000000001,35.1032L97.42580000000001,25.14544ZM94.0993,27.88484L94.0993,29.3914L101.9854,29.3914L101.9854,27.88484L94.0993,27.88484ZM94.0993,25.55275L94.0993,27.04222L101.9854,27.04222L101.9854,25.55275L94.0993,25.55275ZM93.0762,24.65762L103.0608,24.65762L103.0608,30.2834L93.0762,30.2834L93.0762,24.65762ZM91.7527,31.6154L104.2838,31.6154L104.2838,32.5947L91.7527,32.5947L91.7527,31.6154ZM94.297,22.71622L95.1899,22.299500000000002Q95.6161,22.76762,96.0503,23.351689999999998Q96.4847,23.93575,96.6947,24.37522L95.75829999999999,24.85034Q95.55590000000001,24.42181,95.1368,23.81128Q94.71770000000001,23.20075,94.297,22.71622ZM100.9273,22.30125L102.06479999999999,22.67181Q101.6457,23.34316,101.1623,24.0355Q100.6788,24.72762,100.2722,25.20975L99.37440000000001,24.86391Q99.6382,24.52244,99.93,24.07137Q100.2221,23.62031,100.4876,23.152630000000002Q100.75319999999999,22.68472,100.9273,22.30125Z" fill="#DC2626" fill-opacity="1" style="mix-blend-mode:passthrough"/></g></g><g><rect x="121" y="17" width="174.484375" height="24" rx="0" fill="#000000" fill-opacity="0" style="mix-blend-mode:passthrough"/><g><path d="M122.6655,22.36275L135.4055,22.36275L135.4055,23.604L122.6655,23.604L122.6655,22.36275ZM121.83175,32.850300000000004L136.2093,32.850300000000004L136.2093,34.0505L121.83175,34.0505L121.83175,32.850300000000004ZM128.29475,22.99075L129.6295,22.99075L129.6295,33.3487L128.29475,33.3487L128.29475,22.99075ZM144.3438,23.880499999999998L145.5825,23.880499999999998L145.5825,35.2607L144.3438,35.2607L144.3438,23.880499999999998ZM140.542,27.011200000000002L140.542,28.733L149.5548,28.733L149.5548,27.011200000000002L140.542,27.011200000000002ZM140.542,24.346L140.542,26.04825L149.5548,26.04825L149.5548,24.346L140.542,24.346ZM139.3727,23.323L150.78379999999999,23.323L150.78379999999999,29.752499999999998L139.3727,29.752499999999998L139.3727,23.323ZM137.8603,31.2747L152.1815,31.2747L152.1815,32.394L137.8603,32.394L137.8603,31.2747ZM140.768,21.10425L141.7885,20.628Q142.2755,21.163,142.77179999999998,21.8305Q143.2682,22.498,143.5083,23.00025L142.438,23.54325Q142.2068,23.0535,141.7278,22.35575Q141.2488,21.658,140.768,21.10425ZM148.34550000000002,20.63L149.6455,21.0535Q149.16649999999998,21.82075,148.614,22.612000000000002Q148.0615,23.403,147.5968,23.954L146.5708,23.55875Q146.8722,23.1685,147.2057,22.653Q147.5395,22.1375,147.843,21.603Q148.1465,21.06825,148.34550000000002,20.63ZM157.1598,22.2855L157.1598,24.4595L164.778,24.4595L164.778,22.2855L157.1598,22.2855ZM155.962,21.21625L166.038,21.21625L166.038,25.5225L155.962,25.5225L155.962,21.21625ZM154.0057,26.9675L167.9338,26.9675L167.9338,28.067999999999998L154.0057,28.067999999999998L154.0057,26.9675ZM156.99020000000002,29.8495L165.1458,29.8495L165.1458,30.95L156.99020000000002,30.95L156.99020000000002,29.8495ZM164.7798,29.8495L166.0522,29.8495Q166.0522,29.8495,166.041,29.952199999999998Q166.03,30.055,166.0205,30.1832Q166.0112,30.3112,165.98930000000001,30.403Q165.8025,31.737000000000002,165.5923,32.6245Q165.3823,33.511700000000005,165.1485,34.0238Q164.9147,34.5357,164.617,34.798Q164.334,35.045500000000004,164.01330000000002,35.1308Q163.6927,35.2162,163.22480000000002,35.2385Q162.8167,35.251000000000005,162.0825,35.2442Q161.3483,35.2378,160.5127,35.1863Q160.4905,34.9182,160.38049999999998,34.5998Q160.2705,34.2815,160.0967,34.0322Q160.949,34.115700000000004,161.7262,34.139700000000005Q162.5037,34.1637,162.839,34.1637Q163.13400000000001,34.1637,163.3032,34.139700000000005Q163.4728,34.115700000000004,163.6035,34.0135Q163.8442,33.8305,164.04500000000002,33.3703Q164.246,32.91,164.4228,32.0868Q164.5995,31.2633,164.7735,30.0203L164.7798,29.8495ZM157.50130000000001,27.4357L158.7702,27.6155Q158.60750000000002,28.174,158.4077,28.7817Q158.2083,29.389499999999998,158.0068,29.951Q157.8055,30.5125,157.6333,30.9403L156.253,30.9403Q156.46370000000002,30.468,156.6855,29.867Q156.9072,29.265700000000002,157.118,28.6313Q157.3288,27.9967,157.50130000000001,27.4357ZM173,26.23Q172.5143,26.23,172.153,25.90325Q171.792,25.57625,171.792,25.0345Q171.792,24.4805,172.153,24.1535Q172.5143,23.8265,173,23.8265Q173.4857,23.8265,173.8467,24.1535Q174.208,24.4805,174.208,25.0345Q174.208,25.57625,173.8467,25.90325Q173.4857,26.23,173,26.23ZM173,34.0625Q172.5143,34.0625,172.153,33.7355Q171.792,33.408500000000004,171.792,32.8667Q171.792,32.3127,172.153,31.985799999999998Q172.5143,31.6587,173,31.6587Q173.4857,31.6587,173.8467,31.985799999999998Q174.208,32.3127,174.208,32.8667Q174.208,33.408500000000004,173.8467,33.7355Q173.4857,34.0625,173,34.0625ZM189.3125,30.5625L191.5703,22.625L192.66410000000002,22.625L192.0312,25.71094L189.60160000000002,34L188.5156,34L189.3125,30.5625ZM186.97660000000002,22.625L188.77339999999998,30.4062L189.3125,34L188.2344,34L185.47660000000002,22.625L186.97660000000002,22.625ZM195.58589999999998,30.398400000000002L197.3438,22.625L198.85160000000002,22.625L196.10160000000002,34L195.02339999999998,34L195.58589999999998,30.398400000000002ZM192.8281,22.625L195.02339999999998,30.5625L195.8203,34L194.7344,34L192.3906,25.71094L191.75,22.625L192.8281,22.625ZM209.27339999999998,27.9531L209.27339999999998,28.6719Q209.27339999999998,29.9531,208.9531,30.9688Q208.6328,31.9844,208.0312,32.6953Q207.4297,33.4062,206.5898,33.7812Q205.75,34.1562,204.71089999999998,34.1562Q203.7031,34.1562,202.86329999999998,33.7812Q202.02339999999998,33.4062,201.4102,32.6953Q200.7969,31.9844,200.46089999999998,30.9688Q200.125,29.9531,200.125,28.6719L200.125,27.9531Q200.125,26.67188,200.457,25.660159999999998Q200.78910000000002,24.64844,201.39839999999998,23.93359Q202.0078,23.21875,202.8477,22.84375Q203.6875,22.46875,204.6953,22.46875Q205.7344,22.46875,206.57420000000002,22.84375Q207.41410000000002,23.21875,208.0195,23.93359Q208.625,24.64844,208.94920000000002,25.660159999999998Q209.27339999999998,26.67188,209.27339999999998,27.9531ZM207.7812,28.6719L207.7812,27.9375Q207.7812,26.92188,207.57420000000002,26.14062Q207.3672,25.35938,206.9688,24.82812Q206.5703,24.29688,205.9961,24.02344Q205.4219,23.75,204.6953,23.75Q203.9922,23.75,203.42579999999998,24.02344Q202.8594,24.29688,202.457,24.82812Q202.0547,25.35938,201.83589999999998,26.14062Q201.6172,26.92188,201.6172,27.9375L201.6172,28.6719Q201.6172,29.6953,201.83589999999998,30.4805Q202.0547,31.2656,202.4648,31.800800000000002Q202.875,32.3359,203.4414,32.6094Q204.0078,32.8828,204.71089999999998,32.8828Q205.4453,32.8828,206.0156,32.6094Q206.58589999999998,32.3359,206.9805,31.800800000000002Q207.375,31.2656,207.5781,30.4805Q207.7812,29.6953,207.7812,28.6719ZM214.3125,28.5703L214.3125,29.7578L210.5,29.7578L210.5,28.5703L214.3125,28.5703ZM223.023,32.8125L223.023,34L215.5781,34L215.5781,32.9609L219.3047,28.8125Q219.9922,28.0469,220.3711,27.511699999999998Q220.75,26.97656,220.9023,26.55078Q221.055,26.125,221.055,25.67969Q221.055,25.11719,220.82420000000002,24.66016Q220.5938,24.20312,220.14839999999998,23.92969Q219.7031,23.65625,219.0703,23.65625Q218.3125,23.65625,217.8086,23.94922Q217.3047,24.24219,217.0547,24.76562Q216.8047,25.28906,216.8047,25.96875L215.3594,25.96875Q215.3594,25.00781,215.7812,24.21094Q216.2031,23.41406,217.0312,22.94141Q217.8594,22.46875,219.0703,22.46875Q220.14839999999998,22.46875,220.91410000000002,22.84766Q221.68,23.22656,222.09,23.91016Q222.5,24.59375,222.5,25.50781Q222.5,26.00781,222.332,26.51953Q222.164,27.0312,221.87099999999998,27.539099999999998Q221.578,28.0469,221.191,28.539099999999998Q220.8047,29.0312,220.3672,29.5078L217.3203,32.8125L223.023,32.8125ZM231.703,27.4062L231.703,29.1406Q231.703,30.539099999999998,231.453,31.5Q231.203,32.4609,230.73399999999998,33.0469Q230.26600000000002,33.6328,229.60500000000002,33.8945Q228.945,34.1562,228.11700000000002,34.1562Q227.461,34.1562,226.906,33.9922Q226.352,33.8281,225.91,33.4648Q225.469,33.101600000000005,225.156,32.5156Q224.844,31.9297,224.68,31.0938Q224.51600000000002,30.2578,224.51600000000002,29.1406L224.51600000000002,27.4062Q224.51600000000002,26.00781,224.76999999999998,25.0625Q225.023,24.11719,225.49200000000002,23.54297Q225.961,22.96875,226.62099999999998,22.71875Q227.281,22.46875,228.102,22.46875Q228.76600000000002,22.46875,229.324,22.62891Q229.88299999999998,22.78906,230.32,23.13672Q230.75799999999998,23.48438,231.066,24.05859Q231.375,24.63281,231.539,25.46094Q231.703,26.28906,231.703,27.4062ZM230.25,29.375L230.25,27.164099999999998Q230.25,26.39844,230.16,25.816409999999998Q230.07,25.23438,229.898,24.82031Q229.727,24.40625,229.465,24.14844Q229.203,23.89062,228.863,23.76953Q228.523,23.64844,228.102,23.64844Q227.586,23.64844,227.188,23.83984Q226.789,24.03125,226.51999999999998,24.44531Q226.25,24.85938,226.10899999999998,25.53125Q225.969,26.20312,225.969,27.164099999999998L225.969,29.375Q225.969,30.1406,226.059,30.726599999999998Q226.148,31.3125,226.328,31.738300000000002Q226.50799999999998,32.1641,226.76600000000002,32.4375Q227.023,32.7109,227.363,32.8398Q227.703,32.9688,228.11700000000002,32.9688Q228.648,32.9688,229.047,32.7656Q229.445,32.5625,229.715,32.1289Q229.98399999999998,31.6953,230.11700000000002,31.011699999999998Q230.25,30.3281,230.25,29.375ZM241.00799999999998,32.8125L241.00799999999998,34L233.562,34L233.562,32.9609L237.289,28.8125Q237.977,28.0469,238.35500000000002,27.511699999999998Q238.73399999999998,26.97656,238.887,26.55078Q239.039,26.125,239.039,25.67969Q239.039,25.11719,238.809,24.66016Q238.578,24.20312,238.13299999999998,23.92969Q237.688,23.65625,237.055,23.65625Q236.297,23.65625,235.793,23.94922Q235.289,24.24219,235.039,24.76562Q234.789,25.28906,234.789,25.96875L233.344,25.96875Q233.344,25.00781,233.76600000000002,24.21094Q234.188,23.41406,235.01600000000002,22.94141Q235.844,22.46875,237.055,22.46875Q238.13299999999998,22.46875,238.898,22.84766Q239.664,23.22656,240.074,23.91016Q240.48399999999998,24.59375,240.48399999999998,25.50781Q240.48399999999998,26.00781,240.316,26.51953Q240.148,27.0312,239.85500000000002,27.539099999999998Q239.562,28.0469,239.176,28.539099999999998Q238.789,29.0312,238.352,29.5078L235.305,32.8125L241.00799999999998,32.8125ZM244.656,27.601599999999998L245.688,27.601599999999998Q246.445,27.601599999999998,246.941,27.3477Q247.438,27.0938,247.684,26.652340000000002Q247.93,26.21094,247.93,25.65625Q247.93,25,247.711,24.55469Q247.49200000000002,24.10938,247.055,23.88281Q246.61700000000002,23.65625,245.945,23.65625Q245.336,23.65625,244.87099999999998,23.89453Q244.406,24.13281,244.14499999999998,24.57031Q243.88299999999998,25.00781,243.88299999999998,25.60156L242.438,25.60156Q242.438,24.73438,242.875,24.02344Q243.312,23.3125,244.10500000000002,22.89062Q244.898,22.46875,245.945,22.46875Q246.977,22.46875,247.75,22.83203Q248.523,23.19531,248.953,23.91016Q249.383,24.625,249.383,25.6875Q249.383,26.11719,249.184,26.60547Q248.98399999999998,27.0938,248.566,27.5156Q248.148,27.9375,247.48399999999998,28.207Q246.82,28.476599999999998,245.89100000000002,28.476599999999998L244.656,28.476599999999998L244.656,27.601599999999998ZM244.656,28.789099999999998L244.656,27.9219L245.89100000000002,27.9219Q246.977,27.9219,247.688,28.1797Q248.398,28.4375,248.809,28.8672Q249.219,29.2969,249.387,29.8086Q249.555,30.3203,249.555,30.8281Q249.555,31.625,249.285,32.2422Q249.016,32.8594,248.527,33.289100000000005Q248.039,33.7188,247.38299999999998,33.9375Q246.727,34.1562,245.953,34.1562Q245.211,34.1562,244.559,33.9453Q243.906,33.7344,243.406,33.332Q242.906,32.9297,242.625,32.3398Q242.344,31.75,242.344,30.9922L243.789,30.9922Q243.789,31.585900000000002,244.051,32.0312Q244.312,32.4766,244.801,32.7227Q245.289,32.9688,245.953,32.9688Q246.61700000000002,32.9688,247.098,32.7383Q247.578,32.5078,247.84,32.0391Q248.102,31.5703,248.102,30.8594Q248.102,30.148400000000002,247.805,29.6914Q247.50799999999998,29.2344,246.965,29.011699999999998Q246.422,28.789099999999998,245.688,28.789099999999998L244.656,28.789099999999998ZM258.68,27.4062L258.68,29.1406Q258.68,30.539099999999998,258.43,31.5Q258.18,32.4609,257.711,33.0469Q257.24199999999996,33.6328,256.582,33.8945Q255.922,34.1562,255.094,34.1562Q254.438,34.1562,253.883,33.9922Q253.328,33.8281,252.887,33.4648Q252.445,33.101600000000005,252.133,32.5156Q251.82,31.9297,251.656,31.0938Q251.492,30.2578,251.492,29.1406L251.492,27.4062Q251.492,26.00781,251.746,25.0625Q252,24.11719,252.469,23.54297Q252.938,22.96875,253.598,22.71875Q254.258,22.46875,255.078,22.46875Q255.742,22.46875,256.301,22.62891Q256.85900000000004,22.78906,257.297,23.13672Q257.73400000000004,23.48438,258.043,24.05859Q258.352,24.63281,258.51599999999996,25.46094Q258.68,26.28906,258.68,27.4062ZM257.227,29.375L257.227,27.164099999999998Q257.227,26.39844,257.137,25.816409999999998Q257.047,25.23438,256.875,24.82031Q256.703,24.40625,256.44100000000003,24.14844Q256.18,23.89062,255.84,23.76953Q255.5,23.64844,255.078,23.64844Q254.562,23.64844,254.164,23.83984Q253.766,24.03125,253.496,24.44531Q253.227,24.85938,253.086,25.53125Q252.945,26.20312,252.945,27.164099999999998L252.945,29.375Q252.945,30.1406,253.035,30.726599999999998Q253.125,31.3125,253.305,31.738300000000002Q253.484,32.1641,253.742,32.4375Q254,32.7109,254.34,32.8398Q254.68,32.9688,255.094,32.9688Q255.625,32.9688,256.023,32.7656Q256.422,32.5625,256.69100000000003,32.1289Q256.961,31.6953,257.094,31.011699999999998Q257.227,30.3281,257.227,29.375ZM261.969,32.7891L262.11699999999996,32.7891Q263.36699999999996,32.7891,264.148,32.4375Q264.93,32.0859,265.352,31.4922Q265.773,30.898400000000002,265.93,30.1523Q266.086,29.4062,266.086,28.6172L266.086,26.875Q266.086,26.10156,265.90999999999997,25.5Q265.73400000000004,24.89844,265.426,24.49219Q265.11699999999996,24.08594,264.727,23.875Q264.336,23.66406,263.898,23.66406Q263.398,23.66406,263.004,23.86328Q262.60900000000004,24.0625,262.34000000000003,24.42188Q262.07,24.78125,261.93,25.26562Q261.789,25.75,261.789,26.32031Q261.789,26.82812,261.914,27.3047Q262.039,27.7812,262.297,28.164099999999998Q262.555,28.5469,262.94100000000003,28.7695Q263.328,28.9922,263.852,28.9922Q264.336,28.9922,264.762,28.800800000000002Q265.188,28.6094,265.52,28.2773Q265.852,27.9453,266.051,27.523400000000002Q266.25,27.101599999999998,266.281,26.64062L266.969,26.64062Q266.969,27.289099999999998,266.71500000000003,27.918Q266.461,28.5469,266.00800000000004,29.0625Q265.555,29.5781,264.945,29.886699999999998Q264.336,30.1953,263.61699999999996,30.1953Q262.773,30.1953,262.156,29.8672Q261.539,29.539099999999998,261.145,28.9922Q260.75,28.4453,260.55899999999997,27.7695Q260.36699999999996,27.0938,260.36699999999996,26.39844Q260.36699999999996,25.58594,260.594,24.875Q260.82,24.16406,261.26599999999996,23.62109Q261.711,23.07812,262.371,22.77344Q263.031,22.46875,263.898,22.46875Q264.875,22.46875,265.562,22.85938Q266.25,23.25,266.68399999999997,23.90625Q267.11699999999996,24.5625,267.32,25.38281Q267.523,26.20312,267.523,27.0703L267.523,27.5938Q267.523,28.476599999999998,267.40999999999997,29.386699999999998Q267.297,30.2969,266.98,31.125Q266.664,31.9531,266.062,32.6055Q265.461,33.2578,264.496,33.636700000000005Q263.531,34.0156,262.11699999999996,34.0156L261.969,34.0156L261.969,32.7891ZM276.664,27.4062L276.664,29.1406Q276.664,30.539099999999998,276.414,31.5Q276.164,32.4609,275.695,33.0469Q275.227,33.6328,274.56600000000003,33.8945Q273.906,34.1562,273.078,34.1562Q272.422,34.1562,271.86699999999996,33.9922Q271.312,33.8281,270.871,33.4648Q270.43,33.101600000000005,270.11699999999996,32.5156Q269.805,31.9297,269.64099999999996,31.0938Q269.477,30.2578,269.477,29.1406L269.477,27.4062Q269.477,26.00781,269.73,25.0625Q269.98400000000004,24.11719,270.453,23.54297Q270.922,22.96875,271.582,22.71875Q272.24199999999996,22.46875,273.062,22.46875Q273.727,22.46875,274.28499999999997,22.62891Q274.844,22.78906,275.281,23.13672Q275.719,23.48438,276.027,24.05859Q276.336,24.63281,276.5,25.46094Q276.664,26.28906,276.664,27.4062ZM275.211,29.375L275.211,27.164099999999998Q275.211,26.39844,275.121,25.816409999999998Q275.031,25.23438,274.85900000000004,24.82031Q274.688,24.40625,274.426,24.14844Q274.164,23.89062,273.824,23.76953Q273.48400000000004,23.64844,273.062,23.64844Q272.547,23.64844,272.148,23.83984Q271.75,24.03125,271.48,24.44531Q271.211,24.85938,271.07,25.53125Q270.93,26.20312,270.93,27.164099999999998L270.93,29.375Q270.93,30.1406,271.02,30.726599999999998Q271.10900000000004,31.3125,271.289,31.738300000000002Q271.469,32.1641,271.727,32.4375Q271.98400000000004,32.7109,272.324,32.8398Q272.664,32.9688,273.078,32.9688Q273.60900000000004,32.9688,274.00800000000004,32.7656Q274.406,32.5625,274.676,32.1289Q274.945,31.6953,275.078,31.011699999999998Q275.211,30.3281,275.211,29.375ZM285.656,27.4062L285.656,29.1406Q285.656,30.539099999999998,285.406,31.5Q285.156,32.4609,284.688,33.0469Q284.219,33.6328,283.55899999999997,33.8945Q282.898,34.1562,282.07,34.1562Q281.414,34.1562,280.85900000000004,33.9922Q280.305,33.8281,279.863,33.4648Q279.422,33.101600000000005,279.10900000000004,32.5156Q278.797,31.9297,278.63300000000004,31.0938Q278.469,30.2578,278.469,29.1406L278.469,27.4062Q278.469,26.00781,278.723,25.0625Q278.977,24.11719,279.445,23.54297Q279.914,22.96875,280.574,22.71875Q281.23400000000004,22.46875,282.055,22.46875Q282.719,22.46875,283.277,22.62891Q283.836,22.78906,284.273,23.13672Q284.711,23.48438,285.02,24.05859Q285.328,24.63281,285.49199999999996,25.46094Q285.656,26.28906,285.656,27.4062ZM284.203,29.375L284.203,27.164099999999998Q284.203,26.39844,284.113,25.816409999999998Q284.023,25.23438,283.852,24.82031Q283.68,24.40625,283.418,24.14844Q283.156,23.89062,282.81600000000003,23.76953Q282.477,23.64844,282.055,23.64844Q281.539,23.64844,281.14099999999996,23.83984Q280.74199999999996,24.03125,280.473,24.44531Q280.203,24.85938,280.062,25.53125Q279.922,26.20312,279.922,27.164099999999998L279.922,29.375Q279.922,30.1406,280.012,30.726599999999998Q280.102,31.3125,280.281,31.738300000000002Q280.461,32.1641,280.719,32.4375Q280.977,32.7109,281.31600000000003,32.8398Q281.656,32.9688,282.07,32.9688Q282.602,32.9688,283,32.7656Q283.398,32.5625,283.668,32.1289Q283.938,31.6953,284.07,31.011699999999998Q284.203,30.3281,284.203,29.375ZM292.25800000000004,22.5625L292.25800000000004,34L290.812,34L290.812,24.36719L287.898,25.42969L287.898,24.125L292.031,22.5625L292.25800000000004,22.5625Z" fill="#4B5563" fill-opacity="1" style="mix-blend-mode:passthrough"/></g></g></g><g><rect x="41" y="45" width="254.484375" height="20" rx="0" fill="#000000" fill-opacity="0" style="mix-blend-mode:passthrough"/><g><path d="M46.63938,51.03628L47.60319,51.14981Q47.17247,53.77503,46.36812,55.8667Q45.56378,57.9582,44.22066,59.3582Q44.14366,59.2781,43.99316,59.169Q43.84288,59.059799999999996,43.67991,58.9465Q43.51716,58.8332,43.40122,58.7724Q44.29547,57.9232,44.92722,56.7384Q45.55897,55.5535,45.97788,54.10841Q46.397,52.66334,46.63938,51.03628ZM50.62194,51.06734L51.5742,51.18087Q51.1636,53.85356,50.34828,55.960300000000004Q49.533,58.067099999999996,48.15116,59.4641Q48.06541,59.3838,47.91228,59.272Q47.75916,59.1602,47.60341,59.0513Q47.44766,58.942099999999996,47.32603,58.881299999999996Q48.25681,58.0321,48.90213,56.8461Q49.54766,55.66,49.96788,54.19831Q50.38809,52.73641,50.62194,51.06734ZM43.71819,52.50212L44.36284,51.91369Q44.88413,52.52881,45.42028,53.22247Q45.95666,53.91591,46.45913,54.61525Q46.96159,55.3146,47.38116,55.9549Q47.80072,56.5952,48.08313,57.1092L47.39713,57.7965Q47.12019,57.2687,46.70172,56.6089Q46.28325,55.9492,45.78341,55.2334Q45.28378,54.51769,44.75441,53.81594Q44.22525,53.11419,43.71819,52.50212ZM47.76375,52.50519L48.4445,51.96356Q48.99597,52.61828,49.5505,53.35853Q50.10503,54.09856,50.606629999999996,54.85544Q51.1082,55.6123,51.5188,56.317099999999996Q51.9296,57.0219,52.190200000000004,57.6029L51.4547,58.2187Q51.196600000000004,57.6377,50.791470000000004,56.9178Q50.386340000000004,56.1977,49.887370000000004,55.4299Q49.38841,54.66206,48.84634,53.90956Q48.30428,53.15684,47.76375,52.50519ZM42.23616,49.07934L53.4093,49.07934L53.4093,50.083619999999996L43.28966,50.083619999999996L43.28966,61.088499999999996L42.23616,61.088499999999996L42.23616,49.07934ZM52.7587,49.07934L53.812,49.07934L53.812,59.7187Q53.812,60.2231,53.6643,60.4928Q53.5169,60.7628,53.1697,60.8984Q52.8311,61.0222,52.237,61.0553Q51.6428,61.088499999999996,50.683840000000004,61.08Q50.65891,60.9397,50.58825,60.7494Q50.51781,60.5593,50.44059,60.3677Q50.36359,60.1761,50.27784,60.0383Q50.74597,60.0577,51.1824,60.0632Q51.6188,60.0687,51.9427,60.0643Q52.2669,60.0599,52.3953,60.0599Q52.5938,60.0459,52.6762,59.9748Q52.7587,59.903800000000004,52.7587,59.716300000000004L52.7587,49.07934ZM55.930099999999996,57.4502Q55.9052,57.339600000000004,55.8444,57.1558Q55.7838,56.9718,55.7147,56.7745Q55.6458,56.577,55.5852,56.4444Q55.8162,56.4002,56.0723,56.1561Q56.3287,55.9118,56.6562,55.530699999999996Q56.8296,55.3457,57.1643,54.92106Q57.4992,54.49647,57.9212,53.90672Q58.343199999999996,53.31675,58.7719,52.627250000000004Q59.200900000000004,51.93775,59.5625,51.24016L60.4932,51.805189999999996Q59.657399999999996,53.204750000000004,58.664500000000004,54.54087Q57.671800000000005,55.8768,56.6662,56.874700000000004L56.6662,56.9051Q56.6662,56.9051,56.5582,56.960499999999996Q56.4503,57.0156,56.2981,57.0987Q56.1458,57.1816,56.038,57.2744Q55.930099999999996,57.3669,55.930099999999996,57.4502ZM55.930099999999996,57.4502L55.8647,56.5527L56.3746,56.1813L60.1321,55.354Q60.115700000000004,55.5635,60.1284,55.8324Q60.1413,56.1012,60.160799999999995,56.2694Q58.8666,56.589,58.0756,56.7824Q57.2846,56.9756,56.8611,57.1Q56.4376,57.2245,56.2394,57.3013Q56.0415,57.3778,55.930099999999996,57.4502ZM55.8352,54.08303Q55.8103,53.97234,55.7468,53.78466Q55.6834,53.59697,55.6143,53.39681Q55.5453,53.19644,55.4793,53.05862Q55.6713,53.01422,55.8684,52.78562Q56.065799999999996,52.55703,56.2898,52.20944Q56.415800000000004,52.02984,56.6498,51.63587Q56.8839,51.24191,57.161500000000004,50.69809Q57.4393,50.15406,57.721000000000004,49.53325Q58.003,48.91222,58.2191,48.28988L59.2258,48.76675Q58.8587,49.61681,58.411,50.46906Q57.9634,51.32131,57.4725,52.09372Q56.981700000000004,52.86591,56.4807,53.49656L56.4807,53.52697Q56.4807,53.52697,56.3838,53.58231Q56.2869,53.63766,56.1581,53.72603Q56.0292,53.81441,55.9321,53.90716Q55.8352,53.99969,55.8352,54.08303ZM55.8352,54.08303L55.8133,53.281530000000004L56.3125,52.9545L58.8467,52.68631Q58.813900000000004,52.89916,58.7892,53.15575Q58.764700000000005,53.41234,58.767700000000005,53.57225Q57.9002,53.67944,57.3601,53.76388Q56.82,53.84809,56.5175,53.90147Q56.2149,53.95462,56.0682,53.99509Q55.9216,54.035560000000004,55.8352,54.08303ZM55.580600000000004,59.2978Q56.174,59.1499,56.941,58.941Q57.707899999999995,58.731899999999996,58.5728,58.4841Q59.437799999999996,58.2362,60.3143,57.9912L60.4788,58.9019Q59.2547,59.2832,58.0242,59.6561Q56.7937,60.0289,55.820499999999996,60.3487L55.580600000000004,59.2978ZM61.5231,55.859700000000004L67.4928,55.859700000000004L67.4928,60.968L66.4807,60.968L66.4807,56.7953L62.5055,56.7953L62.5055,60.9898L61.5231,60.9898L61.5231,55.859700000000004ZM62.1107,59.3525L67.15180000000001,59.3525L67.15180000000001,60.2966L62.1107,60.2966L62.1107,59.3525ZM63.076,49.58028L67.2353,49.58028L67.2353,50.53775L62.5985,50.53775L63.076,49.58028ZM66.8965,49.58028L67.1177,49.58028L67.3084,49.54134L67.924,49.93094Q67.2714,51.45716,66.142,52.63731Q65.01259999999999,53.81725,63.6054,54.65112Q62.1984,55.485,60.6947,55.9781Q60.6558,55.8348,60.5794,55.6517Q60.5031,55.4684,60.4143,55.290800000000004Q60.3257,55.1131,60.2423,55.0142Q61.6773,54.58725,62.9968,53.85531Q64.3163,53.12316,65.3397,52.10006Q66.3632,51.07697,66.8965,49.77431L66.8965,49.58028ZM62.9857,48.05603L63.946200000000005,48.33187Q63.5908,49.21869,63.1084,50.07597Q62.6261,50.93303,62.062799999999996,51.67022Q61.499700000000004,52.40719,60.8905,52.97266Q60.8297,52.86503,60.7078,52.70972Q60.586,52.55419,60.455799999999996,52.396029999999996Q60.325900000000004,52.23766,60.2207,52.14425Q61.077799999999996,51.40072,61.8073,50.31987Q62.5368,49.23881,62.9857,48.05603ZM62.674800000000005,50.58084Q63.1843,51.61969,64.053,52.475Q64.9218,53.33031,66.0607,53.95725Q67.1997,54.58419,68.4962,54.94184Q68.4162,55.0657,68.33,55.2365Q68.244,55.4071,68.18430000000001,55.580600000000004Q68.1248,55.7538,68.0858,55.8971Q66.7239,55.453900000000004,65.526,54.748689999999996Q64.3282,54.04322,63.3989,53.106970000000004Q62.469899999999996,52.17072,61.8943,51.04372L62.674800000000005,50.58084ZM76.8437,50.83022L82.4536,50.83022L82.4536,51.82575L76.8437,51.82575L76.8437,50.83022ZM69.5891,50.96606L75.73660000000001,50.96606L75.73660000000001,51.95087L69.5891,51.95087L69.5891,50.96606ZM77.2812,48.23803L78.33709999999999,48.40625Q78.0821,49.70934,77.6986,50.92013Q77.3151,52.13091,76.8229,53.16866Q76.331,54.20619,75.7303,54.99259Q75.63929999999999,54.90466,75.47630000000001,54.77538Q75.31360000000001,54.64587,75.1383,54.522059999999996Q74.9631,54.39803,74.836,54.32081Q75.4459,53.60309,75.9105,52.63687Q76.3754,51.67044,76.71860000000001,50.54781Q77.062,49.42497,77.2812,48.23803ZM80.4128,51.38978L81.4554,51.51447Q81.06819999999999,53.994659999999996,80.3212,55.8337Q79.57419999999999,57.6725,78.31700000000001,58.9664Q77.0601,60.2601,75.12039999999999,61.1312Q75.07050000000001,61.0043,74.9598,60.827799999999996Q74.8494,60.6512,74.7321,60.4775Q74.6149,60.3038,74.51820000000001,60.1962Q76.3673,59.4584,77.5472,58.2734Q78.7274,57.0882,79.4068,55.3868Q80.0865,53.68534,80.4128,51.38978ZM77.33420000000001,51.72009Q77.6936,53.68906,78.3454,55.3778Q78.9975,57.0663,80.03309999999999,58.3145Q81.0687,59.5625,82.5472,60.2321Q82.4256,60.3343,82.2875,60.4885Q82.1497,60.6427,82.0226,60.812200000000004Q81.89580000000001,60.9818,81.81020000000001,61.125Q80.277,60.3502,79.21260000000001,59.0071Q78.1483,57.664,77.4713,55.8602Q76.79429999999999,54.05612,76.3883,51.89159L77.33420000000001,51.72009ZM72.1631,48.23497L73.2166,48.23497L73.2166,55.0173L72.1631,55.0173L72.1631,48.23497ZM70.1832,54.52337L71.1711,54.52337L71.1711,60.509L70.1832,60.509L70.1832,54.52337ZM70.7701,54.52337L75.1856,54.52337L75.1856,59.536500000000004L70.7701,59.536500000000004L70.7701,58.5517L74.1844,58.5517L74.1844,55.5082L70.7701,55.5082L70.7701,54.52337ZM87.9573,58.1743L96.3989,58.1743L96.3989,59.0692L87.9573,59.0692L87.9573,58.1743ZM88.5427,49.37072L95.78970000000001,49.37072L95.78970000000001,50.2245L88.5427,50.2245L88.5427,49.37072ZM87.9354,51.55341L96.3221,51.55341L96.3221,52.41266L87.9354,52.41266L87.9354,51.55341ZM91.6719,56.8052L92.7088,56.8052L92.7088,61.0994L91.6719,61.0994L91.6719,56.8052ZM89.9368,55.519800000000004L89.9368,56.4523L94.265,56.4523L94.265,55.519800000000004L89.9368,55.519800000000004ZM89.9368,53.93341L89.9368,54.84319L94.265,54.84319L94.265,53.93341L89.9368,53.93341ZM88.9491,53.20519L95.27709999999999,53.20519L95.27709999999999,57.1803L88.9491,57.1803L88.9491,53.20519ZM89.8044,50.44916L90.684,50.21466Q90.8271,50.49225,90.9688,50.82759Q91.1108,51.16272,91.1841,51.39525L90.2577,51.68575Q90.1953,51.43922,90.0687,51.090090000000004Q89.94200000000001,50.74075,89.8044,50.44916ZM93.4751,50.26934L94.4927,50.50581Q94.2936,50.90722,94.0937,51.29287Q93.894,51.678309999999996,93.72229999999999,51.965090000000004L92.8512,51.745689999999996Q93.012,51.41975,93.1927,50.99931Q93.3733,50.57866,93.4751,50.26934ZM91.24289999999999,48.44366L92.1717,48.188810000000004Q92.3288,48.52241,92.4804,48.91616Q92.632,49.30969,92.7136,49.58969L91.7404,49.88566Q91.6813,49.60019,91.5352,49.19003Q91.3891,48.77966,91.24289999999999,48.44366ZM83.9842,48.80656L87.3238,48.80656L87.3238,49.75856L84.92519999999999,49.75856L84.92519999999999,61.083L83.9842,61.083L83.9842,48.80656ZM87.12129999999999,48.80656L87.29820000000001,48.80656L87.45859999999999,48.76216L88.1395,49.17122Q87.8107,50.03288,87.42269999999999,51.00412Q87.03479999999999,51.97516,86.6522,52.80728Q87.47409999999999,53.67922,87.73310000000001,54.44287Q87.9923,55.2065,88.0008,55.8682Q88.0008,56.4309,87.8683,56.8557Q87.73570000000001,57.2805,87.4229,57.509299999999996Q87.26650000000001,57.6237,87.0777,57.6793Q86.8892,57.7348,86.6682,57.768299999999996Q86.4436,57.787800000000004,86.17840000000001,57.7906Q85.91329999999999,57.7933,85.66980000000001,57.7847Q85.6613,57.5916,85.592,57.3225Q85.5226,57.053200000000004,85.4036,56.8515Q85.66,56.8826,85.8814,56.885400000000004Q86.10300000000001,56.8881,86.27770000000001,56.8741Q86.4099,56.8655,86.535,56.836Q86.6603,56.8065,86.7474,56.7419Q86.9191,56.6238,86.9893,56.3596Q87.0598,56.0951,87.0598,55.766999999999996Q87.0513,55.1853,86.7804,54.47437Q86.5096,53.763220000000004,85.68430000000001,52.92344Q85.8956,52.44437,86.1012,51.92287Q86.30680000000001,51.40116,86.4941,50.88556Q86.6813,50.369749999999996,86.8391,49.90534Q86.997,49.44094,87.12129999999999,49.08175L87.12129999999999,48.80656ZM98.4573,49.81741L109.6048,49.81741L109.6048,50.9035L98.4573,50.9035L98.4573,49.81741ZM97.7278,58.994L110.3081,58.994L110.3081,60.044200000000004L97.7278,60.044200000000004L97.7278,58.994ZM103.3829,50.36691L104.55080000000001,50.36691L104.55080000000001,59.4302L103.3829,59.4302L103.3829,50.36691ZM117.4258,51.14544L118.5097,51.14544L118.5097,61.1032L117.4258,61.1032L117.4258,51.14544ZM114.0993,53.88484L114.0993,55.391400000000004L121.9854,55.391400000000004L121.9854,53.88484L114.0993,53.88484ZM114.0993,51.55275L114.0993,53.04222L121.9854,53.04222L121.9854,51.55275L114.0993,51.55275ZM113.0762,50.65762L123.0608,50.65762L123.0608,56.2834L113.0762,56.2834L113.0762,50.65762ZM111.7527,57.6154L124.2838,57.6154L124.2838,58.5947L111.7527,58.5947L111.7527,57.6154ZM114.297,48.71622L115.1899,48.2995Q115.6161,48.76762,116.0503,49.35169Q116.4847,49.93575,116.6947,50.37522L115.7582,50.85034Q115.5559,50.42181,115.1368,49.81128Q114.7177,49.20075,114.297,48.71622ZM120.9273,48.30125L122.0648,48.67181Q121.6457,49.34316,121.1622,50.0355Q120.6788,50.72762,120.2722,51.20975L119.3744,50.86391Q119.6382,50.52244,119.93,50.07137Q120.2221,49.62031,120.4876,49.15263Q120.7532,48.68472,120.9273,48.30125ZM127.0412,51.53569L128.11329999999998,51.53569L128.11329999999998,58.588Q128.11329999999998,59.0305,128.255,59.272Q128.397,59.5133,128.8006,59.599199999999996Q129.20420000000001,59.6852,129.9656,59.6852Q130.1842,59.6852,130.7024,59.6852Q131.2206,59.6852,131.8836,59.6852Q132.5469,59.6852,133.22570000000002,59.6852Q133.9044,59.6852,134.45940000000002,59.6852Q135.0146,59.6852,135.29829999999998,59.6852Q135.8817,59.6852,136.2335,59.5741Q136.5854,59.4627,136.78449999999998,59.1635Q136.9836,58.8643,137.0857,58.3294Q137.18810000000002,57.7943,137.2636,56.9467Q137.4099,57.041,137.59890000000001,57.1293Q137.78789999999998,57.2177,137.98059999999998,57.284Q138.1736,57.350300000000004,138.3308,57.3807Q138.2307,58.3458,138.0635,58.9922Q137.8966,59.6386,137.5775,60.0177Q137.2585,60.397,136.70600000000002,60.5607Q136.15359999999998,60.7245,135.2909,60.7245Q135.1515,60.7245,134.7486,60.7245Q134.3459,60.7245,133.7966,60.7245Q133.2473,60.7245,132.6471,60.7245Q132.047,60.7245,131.5004,60.7245Q130.9539,60.7245,130.558,60.7245Q130.16230000000002,60.7245,130.02859999999998,60.7245Q128.8946,60.7245,128.2382,60.5451Q127.5819,60.3658,127.3115,59.9011Q127.0412,59.4363,127.0412,58.5678L127.0412,51.53569ZM127.6208,53.83912L135.8802,53.83912L135.8802,54.87622L127.6208,54.87622L127.6208,53.83912ZM126.3057,49.11369L136.5489,49.11369L136.5489,55.5745L135.46280000000002,55.5745L135.46280000000002,50.15603L126.3057,50.15603L126.3057,49.11369ZM145.86599999999999,48.83041L151.54399999999998,48.83041L151.54399999999998,49.73341L145.86599999999999,49.73341L145.86599999999999,48.83041ZM147.88400000000001,49.15788L148.886,49.21869Q148.738,51.01178,148.074,52.16087Q147.409,53.30975,146.184,54.02134Q146.107,53.93034,145.958,53.80456Q145.809,53.67878,145.65800000000002,53.56Q145.506,53.44122,145.39,53.37187Q146.601,52.78781,147.189,51.76166Q147.77800000000002,50.73528,147.88400000000001,49.15788ZM151.018,48.83041L152.01999999999998,48.83041Q152.01999999999998,48.83041,152.01999999999998,48.98856Q152.01999999999998,49.14672,152.006,49.24931Q151.947,50.50603,151.875,51.29353Q151.803,52.08081,151.69799999999998,52.50475Q151.59300000000002,52.92869,151.434,53.11309Q151.27800000000002,53.28525,151.086,53.36312Q150.894,53.440780000000004,150.61700000000002,53.46266Q150.385,53.48759,149.96800000000002,53.48453Q149.551,53.48147,149.083,53.45894Q149.06900000000002,53.25484,148.997,52.99825Q148.926,52.74144,148.815,52.55069Q149.257,52.59575,149.63,52.60275Q150.002,52.60975,150.148,52.60975Q150.465,52.62681,150.579,52.48681Q150.689,52.35775,150.764,51.99419Q150.838,51.63062,150.901,50.90219Q150.965,50.17353,151.018,48.98856L151.018,48.83041ZM140.01569999999998,49.924369999999996L145.435,49.924369999999996L145.435,50.8545L140.01569999999998,50.8545L140.01569999999998,49.924369999999996ZM139.7308,52.59072L145.719,52.59072L145.719,53.54031L139.7308,53.54031L139.7308,52.59072ZM142.901,55.5349L145.582,55.5349L145.582,56.465L142.901,56.465L142.901,55.5349ZM142.252,48.24044L143.226,48.24044L143.226,53.08772L142.252,53.08772L142.252,48.24044ZM142.44,53.19119L143.387,53.19119L143.387,59.5653L142.44,59.5653L142.44,53.19119ZM141.118,56.2222Q141.406,57.3197,141.856,58.0162Q142.305,58.7124,142.976,59.088499999999996Q143.648,59.4645,144.57,59.608000000000004Q145.493,59.7513,146.72199999999998,59.7513Q146.899,59.7513,147.33100000000002,59.7541Q147.763,59.7568,148.349,59.7541Q148.936,59.7513,149.584,59.7513Q150.231,59.7513,150.83499999999998,59.7487Q151.438,59.7458,151.902,59.737700000000004Q152.36599999999999,59.7294,152.582,59.7239Q152.49599999999998,59.837,152.41,60.0232Q152.325,60.2093,152.257,60.4064Q152.189,60.6038,152.154,60.757999999999996L151.10500000000002,60.757999999999996L146.74200000000002,60.757999999999996Q145.305,60.757999999999996,144.25400000000002,60.583Q143.203,60.408,142.457,59.946600000000004Q141.712,59.4853,141.199,58.6459Q140.6857,57.8064,140.3418,56.4832L141.118,56.2222ZM140.3571,54.54766L141.31,54.60825Q141.279,55.946799999999996,141.189,57.146Q141.099,58.3449,140.8732,59.3534Q140.6474,60.3618,140.2292,61.139700000000005Q140.1465,61.0649,139.9905,60.9695Q139.8347,60.8741,139.6692,60.7798Q139.5038,60.6858,139.3822,60.6359Q139.78640000000001,59.9274,139.99009999999998,58.9839Q140.19389999999999,58.0404,140.267,56.9119Q140.3401,55.7834,140.3571,54.54766ZM147.316,55.124700000000004L147.316,57.7084L150.661,57.7084L150.661,55.124700000000004L147.316,55.124700000000004ZM146.32299999999998,54.24928L151.709,54.24928L151.709,58.5871L146.32299999999998,58.5871L146.32299999999998,54.24928ZM154.648,49.41316L158.52100000000002,49.41316L158.52100000000002,58.518L154.648,58.518L154.648,57.566L157.537,57.566L157.537,50.36516L154.648,50.36516L154.648,49.41316ZM154.697,53.43006L157.902,53.43006L157.902,54.36566L154.697,54.36566L154.697,53.43006ZM154.14,49.41316L155.138,49.41316L155.138,59.6465L154.14,59.6465L154.14,49.41316ZM159.154,51.040440000000004L166.46800000000002,51.040440000000004L166.46800000000002,52.083L159.154,52.083L159.154,51.040440000000004ZM163.702,48.31591L164.767,48.31591L164.767,59.5373Q164.767,60.1094,164.6,60.382400000000004Q164.434,60.6554,164.05599999999998,60.790800000000004Q163.683,60.9179,162.998,60.9494Q162.312,60.9809,161.253,60.9756Q161.214,60.7551,161.103,60.441900000000004Q160.99099999999999,60.1286,160.869,59.9051Q161.425,59.9191,161.921,59.9289Q162.417,59.9385,162.781,59.9344Q163.14499999999998,59.93,163.299,59.9215Q163.51999999999998,59.9129,163.611,59.8333Q163.702,59.7535,163.702,59.5349L163.702,48.31591ZM159.63299999999998,53.66609L160.502,53.21416Q160.88400000000001,53.73894,161.301,54.35494Q161.719,54.97072,162.09300000000002,55.5484Q162.46699999999998,56.1262,162.7,56.5523L161.773,57.09Q161.551,56.6584,161.192,56.0638Q160.834,55.4692,160.424,54.83838Q160.015,54.20728,159.63299999999998,53.66609ZM177.821,58.9609L177.821,60L171.307,60L171.307,59.0908L174.567,55.4609Q175.169,54.79102,175.5,54.32275Q175.832,53.85449,175.965,53.48193Q176.099,53.10938,176.099,52.71973Q176.099,52.22754,175.897,51.82764Q175.695,51.42773,175.306,51.18848Q174.916,50.94922,174.362,50.94922Q173.699,50.94922,173.258,51.20557Q172.817,51.46191,172.599,51.91992Q172.38,52.37793,172.38,52.97266L171.115,52.97266Q171.115,52.13184,171.484,51.43457Q171.854,50.7373,172.578,50.32373Q173.303,49.91016,174.362,49.91016Q175.306,49.91016,175.976,50.2417Q176.646,50.57324,177.004,51.17139Q177.363,51.76953,177.363,52.56934Q177.363,53.00684,177.216,53.454589999999996Q177.069,53.90234,176.813,54.34668Q176.557,54.79102,176.218,55.2217Q175.88,55.6523,175.497,56.0693L172.831,58.9609L177.821,58.9609ZM188.308,48.4395L189.438,48.4395L189.438,59.6603Q189.438,60.2432,189.272,60.5173Q189.106,60.7917,188.728,60.924Q188.344,61.0509,187.678,61.0894Q187.012,61.1281,186.027,61.1226Q185.997,60.9739,185.924,60.7768Q185.85,60.5797,185.766,60.3782Q185.682,60.1768,185.591,60.0249Q186.11,60.044399999999996,186.585,60.0499Q187.06,60.0553,187.415,60.0483Q187.771,60.0413,187.916,60.0413Q188.129,60.0328,188.218,59.9532Q188.308,59.8733,188.308,59.6633L188.308,48.4395ZM191.685,52.00666L192.696,51.62341Q193.316,52.608869999999996,193.879,53.731719999999996Q194.443,54.85434,194.87,55.9293Q195.297,57.0042,195.474,57.8488L194.344,58.3038Q194.184,57.4702,193.784,56.3856Q193.385,55.3008,192.835,54.15478Q192.285,53.00853,191.685,52.00666ZM184.64,51.72316L185.811,51.91872Q185.581,52.939840000000004,185.231,54.07166Q184.881,55.2035,184.388,56.2447Q183.896,57.2857,183.259,58.0697Q183.135,57.9731,182.955,57.8683Q182.775,57.7635,182.591,57.667Q182.408,57.5703,182.265,57.5095Q182.891,56.7669,183.357,55.7757Q183.822,54.78434,184.147,53.72319Q184.471,52.66181,184.64,51.72316ZM197.461,49.41316L201.335,49.41316L201.335,58.518L197.461,58.518L197.461,57.566L200.35,57.566L200.35,50.36516L197.461,50.36516L197.461,49.41316ZM197.51,53.43006L200.715,53.43006L200.715,54.36566L197.51,54.36566L197.51,53.43006ZM196.953,49.41316L197.952,49.41316L197.952,59.6465L196.953,59.6465L196.953,49.41316ZM201.968,51.040440000000004L209.281,51.040440000000004L209.281,52.083L201.968,52.083L201.968,51.040440000000004ZM206.516,48.31591L207.58,48.31591L207.58,59.5373Q207.58,60.1094,207.414,60.382400000000004Q207.248,60.6554,206.87,60.790800000000004Q206.497,60.9179,205.811,60.9494Q205.125,60.9809,204.067,60.9756Q204.028,60.7551,203.916,60.441900000000004Q203.804,60.1286,203.683,59.9051Q204.239,59.9191,204.735,59.9289Q205.231,59.9385,205.595,59.9344Q205.959,59.93,206.113,59.9215Q206.334,59.9129,206.425,59.8333Q206.516,59.7535,206.516,59.5349L206.516,48.31591ZM202.447,53.66609L203.315,53.21416Q203.697,53.73894,204.115,54.35494Q204.532,54.97072,204.906,55.5484Q205.28,56.1262,205.513,56.5523L204.587,57.09Q204.365,56.6584,204.006,56.0638Q203.647,55.4692,203.238,54.83838Q202.828,54.20728,202.447,53.66609ZM212.015,61.495400000000004L211.702,60.7577Q212.564,60.4001,213.019,59.8554Q213.473,59.3107,213.473,58.516400000000004L213.212,57.3398L213.97,58.399Q213.814,58.5816,213.62,58.6486Q213.425,58.7155,213.225,58.7155Q212.796,58.7155,212.487,58.4642Q212.179,58.2126,212.179,57.7169Q212.179,57.218199999999996,212.498,56.964Q212.816,56.7098,213.238,56.7098Q213.825,56.7098,214.131,57.1488Q214.437,57.5876,214.437,58.3228Q214.437,59.4555,213.779,60.283699999999996Q213.122,61.1119,212.015,61.495400000000004ZM225.31,49.19703L225.988,48.554339999999996Q226.358,48.86234,226.764,49.23466Q227.171,49.60675,227.535,49.97031Q227.898,50.33387,228.116,50.61628L227.404,51.36725Q227.189,51.07084,226.834,50.69066Q226.479,50.310249999999996,226.079,49.91584Q225.679,49.52144,225.31,49.19703ZM226.382,60.8671L226.188,59.8762L226.472,59.4304L228.964,57.5684Q229.019,57.7779,229.125,58.0398Q229.231,58.3016,229.317,58.455799999999996Q228.434,59.146,227.885,59.568799999999996Q227.336,59.9917,227.039,60.2371Q226.742,60.4828,226.603,60.6219Q226.463,60.7612,226.382,60.8671ZM224.396,52.633160000000004L227.105,52.633160000000004L227.105,53.648160000000004L224.396,53.648160000000004L224.396,52.633160000000004ZM226.382,60.8671Q226.338,60.7402,226.24,60.5692Q226.142,60.3981,226.034,60.2325Q225.926,60.0672,225.826,59.9705Q226.019,59.8482,226.261,59.5398Q226.503,59.2313,226.503,58.769999999999996L226.503,52.633160000000004L227.51,52.633160000000004L227.51,59.6566Q227.51,59.6566,227.34,59.7874Q227.171,59.9182,226.946,60.1111Q226.721,60.3043,226.552,60.5082Q226.382,60.712199999999996,226.382,60.8671ZM230.496,56.2858L235.403,56.2858L235.403,57.033500000000004L230.496,57.033500000000004L230.496,56.2858ZM229.164,49.339L236.825,49.339L236.825,50.13809L229.164,50.13809L229.164,49.339ZM229.51,51.03716L236.397,51.03716L236.397,51.80344L229.51,51.80344L229.51,51.03716ZM228.747,52.77928L237.248,52.77928L237.248,53.58384L228.747,53.58384L228.747,52.77928ZM230.479,58.1767L235.429,58.1767L235.429,58.9461L230.479,58.9461L230.479,58.1767ZM229.748,54.40284L235.44,54.40284L235.44,55.2183L230.735,55.2183L230.735,61.1018L229.748,61.1018L229.748,54.40284ZM235.122,54.40284L236.126,54.40284L236.126,59.9431Q236.126,60.334,236.022,60.5583Q235.918,60.7827,235.621,60.9017Q235.329,61.0178,234.84,61.0428Q234.351,61.0677,233.606,61.059200000000004Q233.575,60.8689,233.485,60.6068Q233.395,60.3448,233.296,60.1483Q233.83,60.1678,234.28,60.1719Q234.73,60.1763,234.87,60.1678Q235.122,60.1593,235.122,59.9267L235.122,54.40284ZM232.408,48.23497L233.45,48.23497L233.45,53.03325L232.408,53.03325L232.408,48.23497ZM247.497,52.45312Q247.839,53.57137,248.408,54.59709Q248.978,55.6228,249.737,56.4298Q250.496,57.2367,251.398,57.715199999999996Q251.279,57.817099999999996,251.134,57.9687Q250.99,58.1203,250.861,58.2828Q250.733,58.4451,250.648,58.5832Q249.697,58.019,248.908,57.1254Q248.12,56.2316,247.521,55.1013Q246.921,53.97103,246.532,52.70687L247.497,52.45312ZM240.914,48.81444L249.842,48.81444L249.842,53.07394L240.914,53.07394L240.914,52.07819L248.776,52.07819L248.776,49.81019L240.914,49.81019L240.914,48.81444ZM240.329,48.81444L241.426,48.81444L241.426,51.36134Q241.426,52.181219999999996,241.338,53.14044Q241.25,54.09944,241.009,55.0978Q240.767,56.096199999999996,240.309,57.0421Q239.851,57.987899999999996,239.113,58.7641Q239.036,58.6427,238.884,58.4856Q238.733,58.3285,238.576,58.1824Q238.419,58.0363,238.303,57.9648Q238.988,57.2383,239.391,56.3946Q239.794,55.5508,239.997,54.67081Q240.2,53.79078,240.265,52.9405Q240.329,52.09,240.329,51.35041L240.329,48.81444ZM242.365,55.4828L242.87,54.66884Q243.583,54.84297,244.374,55.1011Q245.164,55.3592,245.886,55.6438Q246.609,55.928399999999996,247.094,56.1892L246.562,57.094300000000004Q246.101,56.8283,245.387,56.5287Q244.674,56.2288,243.881,55.948499999999996Q243.089,55.6681,242.365,55.4828ZM241.069,58.9552L241.601,58.1279Q242.452,58.2935,243.401,58.5405Q244.349,58.7872,245.282,59.0736Q246.215,59.359700000000004,247.042,59.659800000000004Q247.87,59.96,248.465,60.2461L247.886,61.186499999999995Q247.316,60.9004,246.509,60.5919Q245.702,60.283699999999996,244.771,59.9797Q243.839,59.6756,242.888,59.4107Q241.936,59.1458,241.069,58.9552ZM254.194,48.23497L255.237,48.23497L255.237,61.0994L254.194,61.0994L254.194,48.23497ZM252.936,50.93784L253.738,51.05706Q253.701,51.62187,253.608,52.30569Q253.516,52.98928,253.373,53.650999999999996Q253.23,54.3125,253.036,54.829840000000004L252.21,54.54547Q252.403,54.078,252.546,53.45106Q252.689,52.82412,252.792,52.16219Q252.894,51.50025,252.936,50.93784ZM255.267,50.81075L256.015,50.49312Q256.23400000000004,50.90131,256.451,51.36856Q256.668,51.835589999999996,256.83799999999997,52.27331Q257.009,52.71081,257.09299999999996,53.04069L256.307,53.43925Q256.228,53.09559,256.06100000000004,52.64409Q255.894,52.19237,255.69,51.7085Q255.485,51.22462,255.267,50.81075ZM257.183,50.47234L264.115,50.47234L264.115,55.2345L263.08299999999997,55.2345L263.08299999999997,51.46022L257.183,51.46022L257.183,50.47234ZM256.438,54.67125L265.31899999999996,54.67125L265.31899999999996,55.681L256.438,55.681L256.438,54.67125ZM261.14099999999996,54.88081Q261.478,56.0949,262.06600000000003,57.1495Q262.654,58.2038,263.498,58.9905Q264.342,59.7769,265.446,60.1883Q265.31899999999996,60.296,265.174,60.4653Q265.029,60.6348,264.901,60.8194Q264.773,61.0043,264.687,61.158500000000004Q263.529,60.6473,262.661,59.756299999999996Q261.794,58.8653,261.18899999999996,57.6775Q260.58500000000004,56.4897,260.212,55.0803L261.14099999999996,54.88081ZM259.932,48.23497L260.98199999999997,48.23497L260.98199999999997,52.90331Q260.98199999999997,53.72866,260.90700000000004,54.61022Q260.832,55.4918,260.603,56.3836Q260.374,57.2752,259.909,58.1282Q259.44399999999996,58.9808,258.66499999999996,59.7557Q257.88599999999997,60.5302,256.71299999999997,61.1749Q256.642,61.0533,256.51300000000003,60.9045Q256.385,60.7558,256.23900000000003,60.6068Q256.09299999999996,60.4581,255.975,60.3614Q257.122,59.783,257.85900000000004,59.087199999999996Q258.595,58.3911,259.01800000000003,57.6154Q259.442,56.8397,259.635,56.0349Q259.828,55.230199999999996,259.88,54.43259Q259.932,53.63503,259.932,52.90637L259.932,48.23497ZM269.11699999999996,50.46403L272.18100000000004,50.46403L272.18100000000004,51.43791L269.11699999999996,51.43791L269.11699999999996,50.46403ZM271.86,50.46403L272.06399999999996,50.46403L272.26599999999996,50.42509L272.96000000000004,50.61584Q272.632,53.48388,271.844,55.546Q271.055,57.608000000000004,269.869,58.9793Q268.683,60.3507,267.156,61.137699999999995Q267.065,61.0192,266.914,60.8579Q266.762,60.6967,266.592,60.5462Q266.423,60.3959,266.291,60.3187Q267.807,59.587,268.951,58.3452Q270.096,57.1031,270.84000000000003,55.2214Q271.584,53.33972,271.86,50.71253L271.86,50.46403ZM268.88,52.22387Q269.274,54.13991,269.887,55.4581Q270.499,56.7761,271.283,57.592Q272.067,58.4077,272.976,58.849199999999996Q273.884,59.2904,274.875,59.4472Q275.86699999999996,59.6038,276.889,59.6038Q277.05,59.6038,277.368,59.6038Q277.68600000000004,59.6038,278.063,59.6038Q278.43899999999996,59.6038,278.778,59.6012Q279.11699999999996,59.5984,279.32,59.5929Q279.235,59.725300000000004,279.14599999999996,59.925200000000004Q279.058,60.1251,278.994,60.3288Q278.93100000000004,60.5327,278.895,60.6899L278.49,60.6899L276.837,60.6899Q275.673,60.6899,274.57,60.5055Q273.46799999999996,60.3211,272.476,59.827600000000004Q271.485,59.3341,270.639,58.4233Q269.793,57.5124,269.135,56.0649Q268.477,54.61744,268.05,52.51131L268.88,52.22387ZM268.899,48.29469L270.005,48.55784Q269.756,49.976,269.374,51.3235Q268.99199999999996,52.67078,268.495,53.80303Q267.998,54.93528,267.399,55.7333Q267.255,55.6038,267.004,55.4275Q266.754,55.2509,266.544,55.1488Q267.102,54.411590000000004,267.56100000000004,53.33272Q268.019,52.25384,268.36400000000003,50.95994Q268.709,49.66603,268.899,48.29469ZM275.062,52.17225L275.906,51.68991Q276.44100000000003,52.26937,277.02,52.94531Q277.599,53.62125,278.108,54.27203Q278.616,54.92259,278.93100000000004,55.4345L278.01,56.0078Q277.721,55.4962,277.23,54.83028Q276.74,54.164410000000004,276.169,53.46638Q275.598,52.768119999999996,275.062,52.17225ZM274.427,48.26669L275.544,48.26669L275.544,58.5689L274.427,58.5689L274.427,48.26669ZM286.475,52.446780000000004L286.475,54.24862L291.674,54.24862L291.674,52.446780000000004L286.475,52.446780000000004ZM286.475,49.80275L286.475,51.58206L291.674,51.58206L291.674,49.80275L286.475,49.80275ZM285.512,48.88881L292.68399999999997,48.88881L292.68399999999997,55.1623L285.512,55.1623L285.512,48.88881ZM285.342,56.806200000000004L292.878,56.806200000000004L292.878,57.7637L285.342,57.7637L285.342,56.806200000000004ZM284.264,59.694L293.349,59.694L293.349,60.6569L284.264,60.6569L284.264,59.694ZM280.456,49.185L284.822,49.185L284.822,50.17287L280.456,50.17287L280.456,49.185ZM280.599,53.23713L284.621,53.23713L284.621,54.21953L280.599,54.21953L280.599,53.23713ZM280.305,58.5974Q280.875,58.434799999999996,281.597,58.215199999999996Q282.32,57.995400000000004,283.127,57.7267Q283.93399999999997,57.4579,284.745,57.191900000000004L284.924,58.2017Q283.78499999999997,58.5821,282.64,58.971000000000004Q281.495,59.359899999999996,280.565,59.6703L280.305,58.5974ZM282.196,49.57678L283.206,49.57678L283.206,58.2504L282.196,58.4504L282.196,49.57678ZM288.618,49.32412L289.53499999999997,49.32412L289.53499999999997,54.7115L289.61199999999997,54.7115L289.61199999999997,60.126400000000004L288.54200000000003,60.126400000000004L288.54200000000003,54.7115L288.618,54.7115L288.618,49.32412Z" fill="#6B7280" fill-opacity="1" style="mix-blend-mode:passthrough"/></g></g></g></g><g><rect x="950" y="21" width="228.9375" height="40" rx="0" fill="#000000" fill-opacity="0" style="mix-blend-mode:passthrough"/><g><rect x="950" y="31" width="108.921875" height="20" rx="0" fill="#000000" fill-opacity="0" style="mix-blend-mode:passthrough"/><g><path d="M957.34863,44.9609L957.34863,46L950.833984,46L950.833984,45.0908L954.09473,41.4609Q954.69629,40.79102,955.02783,40.32275Q955.35938,39.85449,955.49268,39.48193Q955.62598,39.10938,955.62598,38.71973Q955.62598,38.22754,955.42432,37.82764Q955.22266,37.42773,954.83301,37.18848Q954.44336,36.94922,953.88965,36.94922Q953.22656,36.94922,952.78564,37.20557Q952.34473,37.46191,952.12598,37.91992Q951.90723,38.37793,951.90723,38.97266L950.642578,38.97266Q950.642578,38.13184,951.01172,37.43457Q951.38086,36.7373,952.10547,36.32373Q952.83008,35.91016,953.88965,35.91016Q954.83301,35.91016,955.50293,36.2417Q956.17285,36.57324,956.53174,37.17139Q956.89062,37.76953,956.89062,38.56934Q956.89062,39.00684,956.74365,39.454589999999996Q956.59668,39.90234,956.34033,40.34668Q956.08398,40.79102,955.74561,41.2217Q955.40723,41.6523,955.02441,42.0693L952.3584,44.9609L957.34863,44.9609ZM964.9434,40.23047L964.9434,41.748Q964.9434,42.9717,964.7246,43.8125Q964.5059,44.6533,964.0957,45.166Q963.6855,45.6787,963.1079,45.9077Q962.5303,46.1367,961.8057,46.1367Q961.2314,46.1367,960.7461,45.9932Q960.2607,45.8496,959.87451,45.5317Q959.48828,45.2139,959.21484,44.7012Q958.94141,44.1885,958.79785,43.457Q958.6543,42.7256,958.6543,41.748L958.6543,40.23047Q958.6543,39.00684,958.87646,38.17969Q959.09863,37.35254,959.50879,36.8501Q959.91895,36.34766,960.4966,36.12891Q961.0742,35.91016,961.792,35.91016Q962.373,35.91016,962.8618,36.050290000000004Q963.3506,36.19043,963.7334,36.49463Q964.1162,36.79883,964.3862,37.30127Q964.6562,37.80371,964.7998,38.52832Q964.9434,39.25293,964.9434,40.23047ZM963.6719,41.9531L963.6719,40.01855Q963.6719,39.34863,963.5933,38.83936Q963.5146,38.33008,963.3643,37.96777Q963.2139,37.60547,962.9849,37.37988Q962.7559,37.1543,962.4585,37.048339999999996Q962.1611,36.94238,961.792,36.94238Q961.3408,36.94238,960.9922,37.10986Q960.6436,37.27734,960.4077,37.63965Q960.1719,38.00195,960.0488,38.58984Q959.92578,39.17773,959.92578,40.01855L959.92578,41.9531Q959.92578,42.623,960.0044,43.1357Q960.083,43.6484,960.2402,44.021Q960.3975,44.3936,960.623,44.6328Q960.8486,44.8721,961.146,44.984899999999996Q961.4434,45.0977,961.8057,45.0977Q962.2705,45.0977,962.6191,44.9199Q962.9678,44.7422,963.2036,44.3628Q963.4395,43.9834,963.5557,43.3853Q963.6719,42.7871,963.6719,41.9531ZM973.085,44.9609L973.085,46L966.5703,46L966.5703,45.0908L969.8311,41.4609Q970.4326,40.79102,970.7642,40.32275Q971.0957,39.85449,971.229,39.48193Q971.3623,39.10938,971.3623,38.71973Q971.3623,38.22754,971.1606,37.82764Q970.959,37.42773,970.5693,37.18848Q970.1797,36.94922,969.626,36.94922Q968.9629,36.94922,968.522,37.20557Q968.0811,37.46191,967.8623,37.91992Q967.6436,38.37793,967.6436,38.97266L966.3789,38.97266Q966.3789,38.13184,966.748,37.43457Q967.1172,36.7373,967.8418,36.32373Q968.5664,35.91016,969.626,35.91016Q970.5693,35.91016,971.2393,36.2417Q971.9092,36.57324,972.2681,37.17139Q972.627,37.76953,972.627,38.56934Q972.627,39.00684,972.48,39.454589999999996Q972.333,39.90234,972.0767,40.34668Q971.8203,40.79102,971.4819,41.2217Q971.1436,41.6523,970.7607,42.0693L968.0947,44.9609L973.085,44.9609ZM976.2773,40.40137L977.1797,40.40137Q977.8428,40.40137,978.2769,40.1792Q978.7109,39.95703,978.9263,39.5708Q979.1416,39.18457,979.1416,38.69922Q979.1416,38.125,978.9502,37.73535Q978.7588,37.3457,978.376,37.14746Q977.9932,36.94922,977.4053,36.94922Q976.8721,36.94922,976.4653,37.15771Q976.0586,37.36621,975.8296,37.74902Q975.6006,38.13184,975.6006,38.65137L974.3359,38.65137Q974.3359,37.89258,974.7188,37.27051Q975.1016,36.64844,975.7954,36.2793Q976.4893,35.91016,977.4053,35.91016Q978.3076,35.91016,978.9844,36.228030000000004Q979.6611,36.5459,980.0371,37.17139Q980.4131,37.79688,980.4131,38.72656Q980.4131,39.10254,980.2388,39.52979Q980.0645,39.95703,979.6987,40.32617Q979.333,40.69531,978.752,40.93115Q978.1709,41.167,977.3574,41.167L976.2773,41.167L976.2773,40.40137ZM976.2773,41.4404L976.2773,40.68164L977.3574,40.68164Q978.3076,40.68164,978.9297,40.90723Q979.5518,41.1328,979.9106,41.5088Q980.2695,41.8848,980.4165,42.332499999999996Q980.5635,42.7803,980.5635,43.2246Q980.5635,43.9219,980.3276,44.4619Q980.0918,45.002,979.6646,45.3779Q979.2373,45.7539,978.6631,45.9453Q978.0889,46.1367,977.4121,46.1367Q976.7627,46.1367,976.1919,45.9521Q975.6211,45.7676,975.1836,45.4155Q974.7461,45.0635,974.5,44.547399999999996Q974.2539,44.0312,974.2539,43.3682L975.5186,43.3682Q975.5186,43.8877,975.7476,44.2773Q975.9766,44.667,976.4038,44.8823Q976.8311,45.0977,977.4121,45.0977Q977.9932,45.0977,978.4136,44.896Q978.834,44.6943,979.063,44.2842Q979.292,43.874,979.292,43.252Q979.292,42.6299,979.0322,42.230000000000004Q978.7725,41.8301,978.2974,41.6353Q977.8223,41.4404,977.1797,41.4404L976.2773,41.4404ZM985.0684,41.249L985.0684,42.2881L981.7324,42.2881L981.7324,41.249L985.0684,41.249ZM992.417,40.23047L992.417,41.748Q992.417,42.9717,992.1982,43.8125Q991.9795,44.6533,991.5693,45.166Q991.1592,45.6787,990.5815,45.9077Q990.0039,46.1367,989.2793,46.1367Q988.7051,46.1367,988.2197,45.9932Q987.7344,45.8496,987.3481,45.5317Q986.9619,45.2139,986.6885,44.7012Q986.415,44.1885,986.2715000000001,43.457Q986.1279,42.7256,986.1279,41.748L986.1279,40.23047Q986.1279,39.00684,986.3501,38.17969Q986.5723,37.35254,986.9824,36.8501Q987.3926,36.34766,987.9702,36.12891Q988.5479,35.91016,989.2656,35.91016Q989.8467,35.91016,990.3354,36.050290000000004Q990.8242,36.19043,991.207,36.49463Q991.5898,36.79883,991.8599,37.30127Q992.1299,37.80371,992.2734,38.52832Q992.417,39.25293,992.417,40.23047ZM991.1455,41.9531L991.1455,40.01855Q991.1455,39.34863,991.0669,38.83936Q990.9883,38.33008,990.8379,37.96777Q990.6875,37.60547,990.4585,37.37988Q990.2295,37.1543,989.9321,37.048339999999996Q989.6348,36.94238,989.2656,36.94238Q988.8145,36.94238,988.4658,37.10986Q988.1172,37.27734,987.8813,37.63965Q987.6455,38.00195,987.5225,38.58984Q987.3994,39.17773,987.3994,40.01855L987.3994,41.9531Q987.3994,42.623,987.478,43.1357Q987.5566,43.6484,987.7139,44.021Q987.8711,44.3936,988.0967,44.6328Q988.3223,44.8721,988.6196,44.984899999999996Q988.917,45.0977,989.2793,45.0977Q989.7441,45.0977,990.0928,44.9199Q990.4414,44.7422,990.6772,44.3628Q990.9131,43.9834,991.0293,43.3853Q991.1455,42.7871,991.1455,41.9531ZM995.2949,44.9404L995.4248,44.9404Q996.5186,44.9404,997.2021,44.6328Q997.8857,44.3252,998.2549,43.8057Q998.624,43.2861,998.7607,42.6333Q998.8975,41.9805,998.8975,41.29L998.8975,39.76562Q998.8975,39.08887,998.7437,38.5625Q998.5898,38.03613,998.3198,37.68066Q998.0498,37.3252,997.708,37.14062Q997.3662,36.95605,996.9834,36.95605Q996.5459,36.95605,996.2007,37.13037Q995.8555,37.30469,995.6196,37.61914Q995.3838,37.93359,995.2607,38.35742Q995.1377,38.78125,995.1377,39.28027Q995.1377,39.72461,995.2471,40.1416Q995.3564,40.55859,995.582,40.89355Q995.8076,41.2285,996.146,41.4233Q996.4844,41.6182,996.9424,41.6182Q997.3662,41.6182,997.7388,41.4507Q998.1113,41.2832,998.4019,40.99268Q998.6924,40.70215,998.8667,40.33301Q999.0409999999999,39.96387,999.0684,39.56055L999.6699,39.56055Q999.6699,40.12793,999.4478,40.678219999999996Q999.2256,41.2285,998.8291,41.6797Q998.4326,42.1309,997.8994,42.4009Q997.3662,42.6709,996.7373,42.6709Q995.999,42.6709,995.4590000000001,42.3838Q994.9189,42.0967,994.5737,41.6182Q994.2284999999999,41.1396,994.061,40.548339999999996Q993.8936,39.95703,993.8936,39.34863Q993.8936,38.6377,994.0918,38.01562Q994.29,37.39355,994.6797,36.918459999999996Q995.0693,36.44336,995.647,36.17676Q996.2246,35.91016,996.9834,35.91016Q997.8379,35.91016,998.4395,36.25195Q999.0409999999999,36.59375,999.4204,37.16797Q999.7998,37.74219,999.9775,38.45996Q1000.1553,39.17773,1000.1553,39.93652L1000.1553,40.39453Q1000.1553,41.167,1000.0562,41.9634Q999.957,42.7598,999.6802,43.4844Q999.4033,44.209,998.877,44.7798Q998.3506,45.3506,997.5063,45.6821Q996.6621,46.0137,995.4248,46.0137L995.2949,46.0137L995.2949,44.9404ZM1004.6738,41.249L1004.6738,42.2881L1001.3379,42.2881L1001.3379,41.249L1004.6738,41.249ZM1012.0225,40.23047L1012.0225,41.748Q1012.0225,42.9717,1011.8037,43.8125Q1011.585,44.6533,1011.1748,45.166Q1010.7646,45.6787,1010.187,45.9077Q1009.6094,46.1367,1008.8848,46.1367Q1008.3105,46.1367,1007.8252,45.9932Q1007.3398,45.8496,1006.9536,45.5317Q1006.5674,45.2139,1006.2939,44.7012Q1006.0205,44.1885,1005.877,43.457Q1005.7334,42.7256,1005.7334,41.748L1005.7334,40.23047Q1005.7334,39.00684,1005.9556,38.17969Q1006.1777,37.35254,1006.5879,36.8501Q1006.998,36.34766,1007.5757,36.12891Q1008.1533,35.91016,1008.8711,35.91016Q1009.4521,35.91016,1009.9409,36.050290000000004Q1010.4297,36.19043,1010.8125,36.49463Q1011.1953,36.79883,1011.4653,37.30127Q1011.7354,37.80371,1011.8789,38.52832Q1012.0225,39.25293,1012.0225,40.23047ZM1010.751,41.9531L1010.751,40.01855Q1010.751,39.34863,1010.6724,38.83936Q1010.5938,38.33008,1010.4434,37.96777Q1010.293,37.60547,1010.064,37.37988Q1009.835,37.1543,1009.5376,37.048339999999996Q1009.2402,36.94238,1008.8711,36.94238Q1008.4199,36.94238,1008.0713,37.10986Q1007.7227,37.27734,1007.4868,37.63965Q1007.251,38.00195,1007.1279,38.58984Q1007.0049,39.17773,1007.0049,40.01855L1007.0049,41.9531Q1007.0049,42.623,1007.0835,43.1357Q1007.1621,43.6484,1007.3193,44.021Q1007.4766,44.3936,1007.7021,44.6328Q1007.9277,44.8721,1008.2251,44.984899999999996Q1008.5225,45.0977,1008.8848,45.0977Q1009.3496,45.0977,1009.6982,44.9199Q1010.0469,44.7422,1010.2827,44.3628Q1010.5186,43.9834,1010.6348,43.3853Q1010.751,42.7871,1010.751,41.9531ZM1020.1641,44.9609L1020.1641,46L1013.6494,46L1013.6494,45.0908L1016.9102,41.4609Q1017.5117,40.79102,1017.8433,40.32275Q1018.1748,39.85449,1018.3081,39.48193Q1018.4414,39.10938,1018.4414,38.71973Q1018.4414,38.22754,1018.2397,37.82764Q1018.0381,37.42773,1017.6484,37.18848Q1017.2588,36.94922,1016.7051,36.94922Q1016.042,36.94922,1015.6011,37.20557Q1015.1602,37.46191,1014.9414,37.91992Q1014.7227,38.37793,1014.7227,38.97266L1013.458,38.97266Q1013.458,38.13184,1013.8271,37.43457Q1014.1963,36.7373,1014.9209,36.32373Q1015.6455,35.91016,1016.7051,35.91016Q1017.6484,35.91016,1018.3184,36.2417Q1018.9883,36.57324,1019.3472,37.17139Q1019.7061,37.76953,1019.7061,38.56934Q1019.7061,39.00684,1019.5591,39.454589999999996Q1019.4121,39.90234,1019.1558,40.34668Q1018.8994,40.79102,1018.561,41.2217Q1018.2227,41.6523,1017.8398,42.0693L1015.1738,44.9609L1020.1641,44.9609ZM1031.2314,40.23047L1031.2314,41.748Q1031.2314,42.9717,1031.0127,43.8125Q1030.7939,44.6533,1030.3838,45.166Q1029.9736,45.6787,1029.396,45.9077Q1028.8184,46.1367,1028.0938,46.1367Q1027.5194999999999,46.1367,1027.0342,45.9932Q1026.5488,45.8496,1026.1626,45.5317Q1025.7764,45.2139,1025.5029,44.7012Q1025.2295,44.1885,1025.0859,43.457Q1024.9424,42.7256,1024.9424,41.748L1024.9424,40.23047Q1024.9424,39.00684,1025.1646,38.17969Q1025.3867,37.35254,1025.7969,36.8501Q1026.2069999999999,36.34766,1026.7847,36.12891Q1027.3623,35.91016,1028.0801,35.91016Q1028.6611,35.91016,1029.1499,36.050290000000004Q1029.6387,36.19043,1030.0215,36.49463Q1030.4043,36.79883,1030.6743,37.30127Q1030.9443,37.80371,1031.0879,38.52832Q1031.2314,39.25293,1031.2314,40.23047ZM1029.96,41.9531L1029.96,40.01855Q1029.96,39.34863,1029.8813,38.83936Q1029.8027,38.33008,1029.6523,37.96777Q1029.502,37.60547,1029.2729,37.37988Q1029.0439,37.1543,1028.7466,37.048339999999996Q1028.4492,36.94238,1028.0801,36.94238Q1027.6289,36.94238,1027.2803,37.10986Q1026.9316,37.27734,1026.6958,37.63965Q1026.46,38.00195,1026.3369,38.58984Q1026.2139,39.17773,1026.2139,40.01855L1026.2139,41.9531Q1026.2139,42.623,1026.2925,43.1357Q1026.3711,43.6484,1026.5283,44.021Q1026.6855,44.3936,1026.9111,44.6328Q1027.1367,44.8721,1027.4341,44.984899999999996Q1027.7314,45.0977,1028.0938,45.0977Q1028.5586,45.0977,1028.9072,44.9199Q1029.2559,44.7422,1029.4917,44.3628Q1029.7275,43.9834,1029.8438,43.3853Q1029.96,42.7871,1029.96,41.9531ZM1034.1094,44.9404L1034.2393,44.9404Q1035.333,44.9404,1036.0166,44.6328Q1036.7002,44.3252,1037.0693,43.8057Q1037.4385,43.2861,1037.5752,42.6333Q1037.7119,41.9805,1037.7119,41.29L1037.7119,39.76562Q1037.7119,39.08887,1037.5581,38.5625Q1037.4043,38.03613,1037.1343,37.68066Q1036.8643,37.3252,1036.5225,37.14062Q1036.1807,36.95605,1035.7979,36.95605Q1035.3604,36.95605,1035.0151,37.13037Q1034.6699,37.30469,1034.4341,37.61914Q1034.1982,37.93359,1034.0752,38.35742Q1033.9521,38.78125,1033.9521,39.28027Q1033.9521,39.72461,1034.0615,40.1416Q1034.1709,40.55859,1034.3965,40.89355Q1034.6221,41.2285,1034.9604,41.4233Q1035.2988,41.6182,1035.7568,41.6182Q1036.1807,41.6182,1036.5532,41.4507Q1036.9258,41.2832,1037.2163,40.99268Q1037.5068,40.70215,1037.6812,40.33301Q1037.8555000000001,39.96387,1037.8828,39.56055L1038.4844,39.56055Q1038.4844,40.12793,1038.2622000000001,40.678219999999996Q1038.04,41.2285,1037.6436,41.6797Q1037.2471,42.1309,1036.7139,42.4009Q1036.1807,42.6709,1035.5518,42.6709Q1034.8135,42.6709,1034.2734,42.3838Q1033.7334,42.0967,1033.3882,41.6182Q1033.0430000000001,41.1396,1032.8755,40.548339999999996Q1032.708,39.95703,1032.708,39.34863Q1032.708,38.6377,1032.9062,38.01562Q1033.1045,37.39355,1033.4941,36.918459999999996Q1033.8838,36.44336,1034.4614,36.17676Q1035.0391,35.91016,1035.7979,35.91016Q1036.6523,35.91016,1037.2539,36.25195Q1037.8555000000001,36.59375,1038.2349,37.16797Q1038.6143,37.74219,1038.792,38.45996Q1038.9697,39.17773,1038.9697,39.93652L1038.9697,40.39453Q1038.9697,41.167,1038.8706,41.9634Q1038.7715,42.7598,1038.4946,43.4844Q1038.2178,44.209,1037.6914,44.7798Q1037.165,45.3506,1036.3208,45.6821Q1035.4766,46.0137,1034.2393,46.0137L1034.1094,46.0137L1034.1094,44.9404ZM1040.8018,45.3301Q1040.8018,45.0088,1041.0034,44.7866Q1041.2051,44.5645,1041.5879,44.5645Q1041.9707,44.5645,1042.1724,44.7866Q1042.374,45.0088,1042.374,45.3301Q1042.374,45.6445,1042.1724,45.8633Q1041.9707,46.082,1041.5879,46.082Q1041.2051,46.082,1041.0034,45.8633Q1040.8018,45.6445,1040.8018,45.3301ZM1040.8086,39.29395Q1040.8086,38.97266,1041.0103,38.75049Q1041.2119,38.52832,1041.5947,38.52832Q1041.9775,38.52832,1042.1792,38.75049Q1042.3809,38.97266,1042.3809,39.29395Q1042.3809,39.6084,1042.1792,39.82715Q1041.9775,40.0459,1041.5947,40.0459Q1041.2119,40.0459,1041.0103,39.82715Q1040.8086,39.6084,1040.8086,39.29395ZM1045.9561,40.40137L1046.8584,40.40137Q1047.5215,40.40137,1047.9556,40.1792Q1048.3896,39.95703,1048.605,39.5708Q1048.8203,39.18457,1048.8203,38.69922Q1048.8203,38.125,1048.6289,37.73535Q1048.4375,37.3457,1048.0547,37.14746Q1047.6719,36.94922,1047.084,36.94922Q1046.5508,36.94922,1046.144,37.15771Q1045.7373,37.36621,1045.5083,37.74902Q1045.2793,38.13184,1045.2793,38.65137L1044.0146,38.65137Q1044.0146,37.89258,1044.3975,37.27051Q1044.7803,36.64844,1045.4741,36.2793Q1046.1680000000001,35.91016,1047.084,35.91016Q1047.9863,35.91016,1048.6631,36.228030000000004Q1049.3398,36.5459,1049.7158,37.17139Q1050.092,37.79688,1050.092,38.72656Q1050.092,39.10254,1049.9175,39.52979Q1049.7432,39.95703,1049.3774,40.32617Q1049.0117,40.69531,1048.4307,40.93115Q1047.8496,41.167,1047.0361,41.167L1045.9561,41.167L1045.9561,40.40137ZM1045.9561,41.4404L1045.9561,40.68164L1047.0361,40.68164Q1047.9863,40.68164,1048.6084,40.90723Q1049.2305000000001,41.1328,1049.5894,41.5088Q1049.9482,41.8848,1050.095,42.332499999999996Q1050.242,42.7803,1050.242,43.2246Q1050.242,43.9219,1050.006,44.4619Q1049.7705,45.002,1049.3433,45.3779Q1048.916,45.7539,1048.3418,45.9453Q1047.7676,46.1367,1047.0908,46.1367Q1046.4414,46.1367,1045.8706,45.9521Q1045.2998,45.7676,1044.8623,45.4155Q1044.4248,45.0635,1044.1787,44.547399999999996Q1043.9326,44.0312,1043.9326,43.3682L1045.1973,43.3682Q1045.1973,43.8877,1045.4263,44.2773Q1045.6553,44.667,1046.0825,44.8823Q1046.5098,45.0977,1047.0908,45.0977Q1047.6719,45.0977,1048.0923,44.896Q1048.5127,44.6943,1048.7417,44.2842Q1048.9707,43.874,1048.9707,43.252Q1048.9707,42.6299,1048.7109,42.230000000000004Q1048.4512,41.8301,1047.9761,41.6353Q1047.501,41.4404,1046.8584,41.4404L1045.9561,41.4404ZM1058.227,40.23047L1058.227,41.748Q1058.227,42.9717,1058.008,43.8125Q1057.789,44.6533,1057.379,45.166Q1056.969,45.6787,1056.391,45.9077Q1055.813,46.1367,1055.089,46.1367Q1054.515,46.1367,1054.029,45.9932Q1053.544,45.8496,1053.158,45.5317Q1052.771,45.2139,1052.498,44.7012Q1052.225,44.1885,1052.081,43.457Q1051.938,42.7256,1051.938,41.748L1051.938,40.23047Q1051.938,39.00684,1052.16,38.17969Q1052.382,37.35254,1052.792,36.8501Q1053.202,36.34766,1053.78,36.12891Q1054.357,35.91016,1055.075,35.91016Q1055.656,35.91016,1056.145,36.050290000000004Q1056.634,36.19043,1057.017,36.49463Q1057.399,36.79883,1057.669,37.30127Q1057.939,37.80371,1058.083,38.52832Q1058.227,39.25293,1058.227,40.23047ZM1056.955,41.9531L1056.955,40.01855Q1056.955,39.34863,1056.876,38.83936Q1056.798,38.33008,1056.647,37.96777Q1056.497,37.60547,1056.268,37.37988Q1056.039,37.1543,1055.742,37.048339999999996Q1055.444,36.94238,1055.075,36.94238Q1054.624,36.94238,1054.275,37.10986Q1053.927,37.27734,1053.691,37.63965Q1053.455,38.00195,1053.3319999999999,38.58984Q1053.209,39.17773,1053.209,40.01855L1053.209,41.9531Q1053.209,42.623,1053.288,43.1357Q1053.366,43.6484,1053.523,44.021Q1053.681,44.3936,1053.906,44.6328Q1054.132,44.8721,1054.429,44.984899999999996Q1054.727,45.0977,1055.089,45.0977Q1055.554,45.0977,1055.902,44.9199Q1056.251,44.7422,1056.487,44.3628Q1056.723,43.9834,1056.839,43.3853Q1056.955,42.7871,1056.955,41.9531Z" fill="#9CA3AF" fill-opacity="1" style="mix-blend-mode:passthrough"/></g></g></g></g></svg>