<svg xmlns="http://www.w3.org/2000/svg" xmlns:xlink="http://www.w3.org/1999/xlink" fill="none" version="1.1" width="96.015625" height="40" viewBox="0 0 96.015625 40"><g><rect x="0" y="0" width="96.015625" height="40" rx="4" fill="#E6002D" fill-opacity="1" style="mix-blend-mode:passthrough"/><g><path d="M17.5533125,14.07875L30.510312499999998,14.07875L30.510312499999998,15.279L17.5533125,15.279L17.5533125,14.07875ZM16.866062499999998,23.8923L31.1558125,23.8923L31.1558125,25.099L16.866062499999998,25.099L16.866062499999998,23.8923ZM19.7765625,16.420749999999998L20.9673125,16.14725Q21.2943125,17.220750000000002,21.607062499999998,18.432499999999997Q21.9198125,19.644199999999998,22.1778125,20.8032Q22.4360625,21.962,22.5640625,22.8918L21.3013125,23.196199999999997Q21.182312500000002,22.2765,20.938312500000002,21.1082Q20.6945625,19.939999999999998,20.3878125,18.714Q20.0813125,17.488,19.7765625,16.420749999999998ZM27.064612500000003,16.152749999999997L28.4196125,16.38775Q28.1441125,17.37625,27.8218125,18.464199999999998Q27.4998125,19.552,27.1438125,20.6327Q26.7881125,21.7133,26.432112500000002,22.682000000000002Q26.0761125,23.6505,25.7393125,24.4167L24.5578125,24.1495Q24.9008125,23.3868,25.255312500000002,22.389699999999998Q25.6098125,21.392699999999998,25.9483125,20.296Q26.2871125,19.199199999999998,26.574312499999998,18.133699999999997Q26.8618125,17.06825,27.064612500000003,16.152749999999997ZM22.8583125,11.283L24.0233125,10.9705Q24.269312499999998,11.5785,24.5093125,12.29375Q24.749312500000002,13.00875,24.8640625,13.52675L23.6360625,13.89275Q23.5303125,13.36825,23.3110625,12.63275Q23.0920625,11.897,22.8583125,11.283ZM34.1623125,15.06725L39.1645125,15.06725L39.1645125,16.158749999999998L34.1623125,16.158749999999998L34.1623125,15.06725ZM34.1470125,11.906500000000001L39.8933125,11.906500000000001L39.8933125,19.4677L34.1470125,19.4677L34.1470125,18.3797L38.6893125,18.3797L38.6893125,12.98475L34.1470125,12.98475L34.1470125,11.906500000000001ZM33.552612499999995,25.2955L33.4525125,24.211L33.9910125,23.7155L38.6628125,22.1935Q38.7223125,22.4392,38.816312499999995,22.7273Q38.9103125,23.0153,38.9826125,23.2078Q37.2928125,23.8013,36.2758125,24.1682Q35.258812500000005,24.5352,34.7143125,24.7432Q34.1698125,24.9513,33.9308125,25.0707Q33.692012500000004,25.1905,33.552612499999995,25.2955ZM37.0408125,20.7758L38.0613125,20.2815Q38.481112499999995,20.9277,38.9148125,21.683Q39.3485125,22.438000000000002,39.721312499999996,23.1447Q40.0943125,23.8515,40.3121125,24.3948L39.2291125,24.9807Q39.0238125,24.4375,38.6633125,23.7118Q38.3030125,22.985799999999998,37.8786125,22.2102Q37.4543125,21.4345,37.0408125,20.7758ZM33.552612499999995,25.2955Q33.517812500000005,25.1255,33.435312499999995,24.894Q33.3530125,24.6625,33.2503125,24.4452Q33.147512500000005,24.2278,33.0433125,24.0765Q33.2596125,23.9715,33.4945125,23.7385Q33.7298125,23.5055,33.7298125,23.051299999999998L33.7298125,11.906500000000001L34.9425125,11.906500000000001L34.9425125,24.218Q34.9425125,24.218,34.803312500000004,24.2815Q34.6640125,24.345,34.4598125,24.4595Q34.255512499999995,24.5737,34.0433125,24.7115Q33.8310125,24.8495,33.6918125,25Q33.552612499999995,25.1505,33.552612499999995,25.2955ZM45.4466125,12.00875L46.6316125,12.00875L46.6316125,21.2337Q46.6316125,21.716,46.5120125,22.000700000000002Q46.3926125,22.2855,46.0518125,22.4405Q45.7270125,22.5855,45.1621125,22.6202Q44.5973125,22.655,43.7248125,22.6453Q43.696312500000005,22.4058,43.5966125,22.0732Q43.496812500000004,21.7407,43.3608125,21.497500000000002Q43.9833125,21.5135,44.4851125,21.5215Q44.987112499999995,21.5295,45.148112499999996,21.5135Q45.3248125,21.503700000000002,45.3856125,21.441200000000002Q45.4466125,21.378500000000003,45.4466125,21.2247L45.4466125,12.00875ZM41.3441125,12.00875L46.0988125,12.00875L46.0988125,13.121749999999999L42.5383125,13.121749999999999L42.5383125,25.7857L41.3441125,25.7857L41.3441125,12.00875ZM51.7833125,13.60175L55.2845125,13.60175L55.2845125,14.71475L51.7833125,14.71475L51.7833125,13.60175ZM54.9186125,13.60175L55.1518125,13.60175L55.3823125,13.55725L56.1758125,13.77525Q55.8001125,17.053,54.8993125,19.4097Q53.9985125,21.766199999999998,52.6431125,23.3335Q51.2876125,24.9007,49.5423125,25.8003Q49.4383125,25.6647,49.2651125,25.4805Q49.0918125,25.2962,48.8981125,25.1243Q48.7046125,24.9525,48.5530125,24.8643Q50.2858125,24.028,51.5941125,22.6087Q52.9023125,21.1892,53.7526125,19.0387Q54.6030125,16.88825,54.9186125,13.88575L54.9186125,13.60175ZM51.5125125,15.613Q51.9630125,17.8027,52.6631125,19.3092Q53.3631125,20.8155,54.2588125,21.747999999999998Q55.1548125,22.680300000000003,56.1930125,23.1847Q57.2316125,23.689,58.3643125,23.8682Q59.4971125,24.0473,60.6658125,24.0473Q60.8501125,24.0473,61.2133125,24.0473Q61.5765125,24.0473,62.0068125,24.0473Q62.4373125,24.0473,62.8245125,24.0443Q63.2121125,24.041,63.4440125,24.0347Q63.3463125,24.186,63.2451125,24.4145Q63.1440125,24.643,63.0716125,24.8757Q62.9990125,25.1087,62.9580125,25.2885L62.4948125,25.2885L60.6063125,25.2885Q59.2763125,25.2885,58.0158125,25.0777Q56.7553125,24.867,55.6223125,24.303Q54.4896125,23.739,53.5228125,22.698Q52.5563125,21.657,51.8043125,20.0028Q51.0523125,18.3485,50.5633125,15.9415L51.5125125,15.613ZM51.5345125,11.1225L52.7983125,11.42325Q52.5138125,13.044,52.0773125,14.584Q51.6408125,16.12375,51.0728125,17.417749999999998Q50.5048125,18.7118,49.8195125,19.6237Q49.6556125,19.4757,49.3688125,19.2743Q49.0823125,19.072499999999998,48.8426125,18.9557Q49.4808125,18.1132,50.0045125,16.88025Q50.5286125,15.64725,50.9225125,14.1685Q51.3168125,12.68975,51.5345125,11.1225ZM58.5781125,15.554L59.5416125,15.002749999999999Q60.1538125,15.665,60.8156125,16.4375Q61.4773125,17.21,62.0586125,17.953699999999998Q62.6398125,18.6973,62.9988125,19.2822L61.9471125,19.9375Q61.6165125,19.3527,61.0558125,18.5917Q60.4951125,17.8307,59.8426125,17.033Q59.1903125,16.235,58.5781125,15.554ZM57.8520125,11.0905L59.1281125,11.0905L59.1281125,22.8645L57.8520125,22.8645L57.8520125,11.0905ZM71.62111250000001,15.86775L71.62111250000001,17.927L77.5628125,17.927L77.5628125,15.86775L71.62111250000001,15.86775ZM71.62111250000001,12.846L71.62111250000001,14.8795L77.5628125,14.8795L77.5628125,12.846L71.62111250000001,12.846ZM70.5205125,11.8015L78.7168125,11.8015L78.7168125,18.9712L70.5205125,18.9712L70.5205125,11.8015ZM70.3263125,20.85L78.9388125,20.85L78.9388125,21.9443L70.3263125,21.9443L70.3263125,20.85ZM69.0946125,24.1502L79.4766125,24.1502L79.4766125,25.2507L69.0946125,25.2507L69.0946125,24.1502ZM64.7415125,12.14L69.73181249999999,12.14L69.73181249999999,13.269L64.7415125,13.269L64.7415125,12.14ZM64.9051125,16.771L69.5023125,16.771L69.5023125,17.893700000000003L64.9051125,17.893700000000003L64.9051125,16.771ZM64.5690125,22.897Q65.2208125,22.7113,66.0465125,22.4602Q66.8725125,22.209,67.7946125,21.902Q68.7166125,21.5947,69.6435125,21.2907L69.8486125,22.444699999999997Q68.5470125,22.8795,67.2383125,23.323999999999998Q65.9298125,23.7685,64.86631249999999,24.1232L64.5690125,22.897ZM66.7311125,12.58775L67.88511249999999,12.58775L67.88511249999999,22.500500000000002L66.7311125,22.729L66.7311125,12.58775ZM74.0703125,12.299L75.1183125,12.299L75.1183125,18.456L75.2056125,18.456L75.2056125,24.6445L73.9831125,24.6445L73.9831125,18.456L74.0703125,18.456L74.0703125,12.299Z" fill="#FFFFFF" fill-opacity="1" style="mix-blend-mode:passthrough"/></g></g></svg>