<svg xmlns="http://www.w3.org/2000/svg" xmlns:xlink="http://www.w3.org/1999/xlink" fill="none" version="1.1" width="96.015625" height="40" viewBox="0 0 96.015625 40"><g><rect x="0" y="0" width="96.015625" height="40" rx="4" fill="#E6002D" fill-opacity="1" style="mix-blend-mode:passthrough"/><g><path d="M16.4555625,19.563200000000002Q17.3408125,19.328699999999998,18.5778125,18.9455Q19.8150625,18.561999999999998,21.1040625,18.1477L21.2748125,19.261499999999998Q20.1005625,19.6528,18.9143125,20.0375Q17.7280625,20.4222,16.7598125,20.7332L16.4555625,19.563200000000002ZM16.6688125,14.284749999999999L21.2905625,14.284749999999999L21.2905625,15.407499999999999L16.6688125,15.407499999999999L16.6688125,14.284749999999999ZM18.5668125,11.07025L19.6798125,11.07025L19.6798125,24.3472Q19.6798125,24.826,19.5600625,25.0947Q19.4405625,25.3638,19.1515625,25.5088Q18.8783125,25.6478,18.4193125,25.6947Q17.9605625,25.742,17.2548125,25.726Q17.2325625,25.5088,17.1328125,25.1793Q17.0330625,24.85,16.9128125,24.6105Q17.3945625,24.6265,17.7805625,24.6295Q18.1668125,24.6325,18.3010625,24.6227Q18.5668125,24.6227,18.5668125,24.3507L18.5668125,11.07025ZM22.1393125,12.7405L30.828812499999998,12.7405L30.828812499999998,13.788499999999999L22.1393125,13.788499999999999L22.1393125,12.7405ZM21.5805625,16.4765L31.2338125,16.4765L31.2338125,17.5305L21.5805625,17.5305L21.5805625,16.4765ZM23.3098125,14.342749999999999L24.2198125,13.96Q24.583312499999998,14.42825,24.9208125,15.002500000000001Q25.258312500000002,15.5765,25.419062500000003,15.9835L24.4555625,16.436500000000002Q24.3038125,16.009999999999998,23.9803125,15.41675Q23.657062500000002,14.8235,23.3098125,14.342749999999999ZM28.3108125,13.975249999999999L29.4406125,14.30025Q29.0656125,14.97025,28.6591125,15.669Q28.252612499999998,16.36775,27.8796125,16.853L26.9073125,16.5405Q27.1551125,16.194000000000003,27.4158125,15.74125Q27.676612499999997,15.288499999999999,27.9163125,14.818Q28.1563125,14.3475,28.3108125,13.975249999999999ZM21.369812500000002,19.2797L31.4126125,19.2797L31.4126125,20.3215L21.369812500000002,20.3215L21.369812500000002,19.2797ZM28.3373125,19.9925L29.4878125,20.189999999999998Q29.1623125,21.443199999999997,28.5578125,22.381500000000003Q27.9533125,23.319699999999997,27.0093125,23.969Q26.065312499999997,24.618,24.7373125,25.0495Q23.4093125,25.481,21.6370625,25.7405Q21.5640625,25.4948,21.4233125,25.2013Q21.2828125,24.908,21.1340625,24.7185Q23.3293125,24.483,24.7858125,23.931Q26.2426125,23.378999999999998,27.0978125,22.4137Q27.9533125,21.4482,28.3373125,19.9925ZM22.407062500000002,22.326999999999998Q22.889812499999998,21.71,23.4190625,20.9043Q23.9485625,20.0985,24.4268125,19.2352Q24.9050625,18.372,25.2313125,17.5985L26.3408125,17.8158Q25.9985625,18.615000000000002,25.5185625,19.477Q25.038562499999998,20.3387,24.5345625,21.1145Q24.030562500000002,21.89,23.5985625,22.459L22.407062500000002,22.326999999999998ZM22.407062500000002,22.326999999999998L23.1280625,21.5195Q24.130812499999998,21.801299999999998,25.2218125,22.1903Q26.3128125,22.579,27.3826125,23.0367Q28.4526125,23.494500000000002,29.3783125,23.9653Q30.3043125,24.4357,30.9728125,24.897L30.182312500000002,25.8178Q29.5583125,25.3662,28.6546125,24.8862Q27.751112499999998,24.4062,26.6938125,23.9312Q25.6365625,23.456,24.532562499999997,23.0417Q23.428562499999998,22.627499999999998,22.407062500000002,22.326999999999998ZM25.088562500000002,11.3655L26.1971125,11.185Q26.517812499999998,11.633,26.817812500000002,12.190000000000001Q27.1178125,12.746749999999999,27.2653125,13.152999999999999L26.0961125,13.40025Q25.9610625,12.98425,25.669062500000003,12.41Q25.377312500000002,11.83575,25.088562500000002,11.3655ZM40.7948125,14.17475L47.3018125,14.17475L47.3018125,15.312750000000001L40.7948125,15.312750000000001L40.7948125,14.17475ZM41.2405125,11.05775L42.4696125,11.25625Q42.1938125,12.81025,41.7685125,14.247Q41.343312499999996,15.6835,40.760112500000005,16.91575Q40.1768125,18.1477,39.4166125,19.0945Q39.3348125,18.9655,39.1815125,18.7735Q39.0286125,18.5815,38.862812500000004,18.389699999999998Q38.697312499999995,18.1978,38.5583125,18.0907Q39.249812500000004,17.2705,39.764112499999996,16.161Q40.2783125,15.05125,40.6471125,13.752749999999999Q41.015812499999996,12.454,41.2405125,11.05775ZM44.9858125,14.743L46.174612499999995,14.904250000000001Q45.7356125,17.5805,44.9333125,19.6477Q44.1313125,21.7148,42.8361125,23.2312Q41.5411125,24.7477,39.6071125,25.7975Q39.5376125,25.6745,39.4003125,25.4902Q39.2633125,25.306,39.1136125,25.1168Q38.964012499999995,24.9275,38.8315125,24.8107Q40.6995125,23.8972,41.9268125,22.4987Q43.1543125,21.1003,43.882112500000005,19.17Q44.6101125,17.2395,44.9858125,14.743ZM41.2473125,15.18075Q41.7441125,17.2975,42.580312500000005,19.1833Q43.4168125,21.069000000000003,44.625812499999995,22.505200000000002Q45.8351125,23.9415,47.439612499999996,24.7388Q47.3006125,24.849,47.1381125,25.019Q46.9756125,25.1893,46.8353125,25.3717Q46.6951125,25.5545,46.5973125,25.712Q44.9556125,24.8043,43.7321125,23.269Q42.5086125,21.7335,41.6580125,19.7253Q40.807612500000005,17.717,40.2636125,15.4015L41.2473125,15.18075ZM37.1885125,11.29425L38.3798125,11.29425L38.3798125,25.792L37.1885125,25.792L37.1885125,11.29425ZM33.4826125,22.8993L33.3606125,21.758L33.905812499999996,21.266L37.7396125,20.008499999999998Q37.7833125,20.2577,37.8695125,20.557499999999997Q37.9560125,20.857,38.0283125,21.0492Q36.646812499999996,21.5425,35.8013125,21.8577Q34.9560125,22.172800000000002,34.4993125,22.3675Q34.0428125,22.5623,33.8263125,22.6785Q33.609812500000004,22.7945,33.4826125,22.8993ZM33.4826125,22.8993Q33.4381125,22.7417,33.3555125,22.537Q33.2733125,22.3322,33.1785125,22.130499999999998Q33.0838125,21.928800000000003,32.9858125,21.7962Q33.157512499999996,21.691200000000002,33.3530125,21.4387Q33.548612500000004,21.1862,33.548612500000004,20.7098L33.548612500000004,12.838000000000001L34.7240125,12.838000000000001L34.7240125,21.7828Q34.7240125,21.7828,34.5371125,21.891Q34.3503125,21.999000000000002,34.1033125,22.177Q33.8563125,22.3547,33.669312500000004,22.5465Q33.4826125,22.7382,33.4826125,22.8993ZM49.6733125,12.86275L62.4133125,12.86275L62.4133125,14.104L49.6733125,14.104L49.6733125,12.86275ZM48.8395125,23.3503L63.2171125,23.3503L63.2171125,24.5505L48.8395125,24.5505L48.8395125,23.3503ZM55.3026125,13.49075L56.6373125,13.49075L56.6373125,23.8487L55.3026125,23.8487L55.3026125,13.49075ZM71.3516125,14.3805L72.59031250000001,14.3805L72.59031250000001,25.7607L71.3516125,25.7607L71.3516125,14.3805ZM67.5498125,17.511200000000002L67.5498125,19.233L76.5625125,19.233L76.5625125,17.511200000000002L67.5498125,17.511200000000002ZM67.5498125,14.846L67.5498125,16.54825L76.5625125,16.54825L76.5625125,14.846L67.5498125,14.846ZM66.38051250000001,13.823L77.7916125,13.823L77.7916125,20.252499999999998L66.38051250000001,20.252499999999998L66.38051250000001,13.823ZM64.86801249999999,21.7747L79.1893125,21.7747L79.1893125,22.894L64.86801249999999,22.894L64.86801249999999,21.7747ZM67.7758125,11.60425L68.7963125,11.128Q69.2833125,11.663,69.7796125,12.3305Q70.27601250000001,12.998000000000001,70.51611249999999,13.500250000000001L69.4458125,14.04325Q69.2145125,13.5535,68.7355125,12.85575Q68.2565125,12.158000000000001,67.7758125,11.60425ZM75.3533125,11.129999999999999L76.6533125,11.5535Q76.1743125,12.32075,75.6218125,13.112Q75.0693125,13.902999999999999,74.6045125,14.454L73.57861249999999,14.05875Q73.88001249999999,13.6685,74.21351250000001,13.152999999999999Q74.5473125,12.6375,74.8508125,12.103Q75.1543125,11.568249999999999,75.3533125,11.129999999999999Z" fill="#FFFFFF" fill-opacity="1" style="mix-blend-mode:passthrough"/></g></g></svg>