<svg xmlns="http://www.w3.org/2000/svg" xmlns:xlink="http://www.w3.org/1999/xlink" fill="none" version="1.1" width="88" height="36" viewBox="0 0 88 36"><g><rect x="0" y="0" width="88" height="36" rx="4" fill="#F3F4F6" fill-opacity="1" style="mix-blend-mode:passthrough"/><g><path d="M18.84288,19.5319L27.3288,19.5319L27.3288,20.470599999999997L18.84288,20.470599999999997L18.84288,19.5319ZM18.75319,16.400750000000002L27.3315,16.400750000000002L27.3315,17.35034L18.75319,17.35034L18.75319,16.400750000000002ZM17.064,22.7797L29.0053,22.7797L29.0053,23.7317L17.064,23.7317L17.064,22.7797ZM22.45138,16.79428L23.54863,16.79428L23.54863,23.3093L22.45138,23.3093L22.45138,16.79428ZM22.90134,11.08337L23.82469,11.51891Q23.04769,12.71066,21.97428,13.810310000000001Q20.90088,14.909970000000001,19.65641,15.818439999999999Q18.41194,16.726689999999998,17.099,17.37922Q16.977594,17.17819,16.77175,16.93712Q16.566125,16.69584,16.362031,16.525219999999997Q17.64763,15.94116,18.87984,15.094809999999999Q20.11228,14.248470000000001,21.15681,13.220559999999999Q22.201340000000002,12.192440000000001,22.90134,11.08337ZM23.29838,11.53772Q24.63691,13.18337,26.2546,14.38891Q27.8722,15.594439999999999,29.674500000000002,16.55322Q29.4844,16.715310000000002,29.2744,16.96359Q29.0644,17.211660000000002,28.9485,17.437620000000003Q27.7287,16.716630000000002,26.6004,15.91337Q25.47231,15.11012,24.43784,14.145Q23.40338,13.17966,22.42425,11.97631L23.29838,11.53772ZM38.7789,11.98769L42.3979,11.98769L42.3979,12.94516L39.719899999999996,12.94516L39.719899999999996,24.0953L38.7789,24.0953L38.7789,11.98769ZM42.1947,11.98769L42.393299999999996,11.98769L42.5536,11.94328L43.2759,12.401340000000001Q42.9058,13.37762,42.4427,14.50309Q41.979600000000005,15.62834,41.538799999999995,16.59894Q42.4852,17.591189999999997,42.7934,18.4301Q43.101600000000005,19.2688,43.101600000000005,19.9922Q43.101600000000005,20.6047,42.955200000000005,21.0881Q42.8089,21.5716,42.462599999999995,21.805799999999998Q42.2953,21.9202,42.0717,21.990000000000002Q41.8482,22.0596,41.5938,22.0928Q41.332300000000004,22.1208,41.0152,22.1222Q40.698,22.1233,40.392399999999995,22.109299999999998Q40.3784,21.9052,40.309,21.6155Q40.2397,21.325699999999998,40.1098,21.1128Q40.4167,21.143900000000002,40.696,21.1509Q40.975300000000004,21.157899999999998,41.1923,21.1494Q41.3525,21.1323,41.499700000000004,21.0973Q41.647099999999995,21.0623,41.7622,20.997799999999998Q41.9674,20.8657,42.0503,20.563299999999998Q42.1332,20.2608,42.124700000000004,19.8938Q42.124700000000004,19.2423,41.79,18.4587Q41.4553,17.67519,40.5138,16.72581Q40.75,16.17916,40.9902,15.57912Q41.2304,14.97888,41.4551,14.381910000000001Q41.6799,13.784939999999999,41.8696,13.24638Q42.059200000000004,12.70759,42.1947,12.30641L42.1947,11.98769ZM31.1217,12.88981L37.7311,12.88981L37.7311,13.85034L31.1217,13.85034L31.1217,12.88981ZM30.714399999999998,16.67594L38.0476,16.67594L38.0476,17.63888L30.714399999999998,17.63888L30.714399999999998,16.67594ZM31.9762,14.20472L32.8838,13.964089999999999Q33.2043,14.531749999999999,33.4584,15.19609Q33.712599999999995,15.86044,33.8106,16.35175L32.8501,16.62825Q32.763000000000005,16.128410000000002,32.5115,15.45312Q32.2599,14.777840000000001,31.9762,14.20472ZM36.0659,13.92209L37.114599999999996,14.17125Q36.9186,14.66212,36.7012,15.19544Q36.484,15.72875,36.2678,16.21897Q36.0517,16.70919,35.849599999999995,17.08566L34.9527,16.85881Q35.1548,16.46309,35.367000000000004,15.94641Q35.5794,15.42972,35.7636,14.894870000000001Q35.9478,14.35981,36.0659,13.92209ZM32.0768,22.419L36.8749,22.419L36.8749,23.3577L32.0768,23.3577L32.0768,22.419ZM31.525100000000002,18.9199L37.4007,18.9199L37.4007,23.9207L36.3584,23.9207L36.3584,19.8719L32.5154,19.8719L32.5154,24.0281L31.525100000000002,24.0281L31.525100000000002,18.9199ZM33.4547,11.44212L34.3945,11.18028Q34.6301,11.61975,34.8528,12.150220000000001Q35.0757,12.68069,35.1822,13.04709L34.1849,13.37041Q34.0948,12.995470000000001,33.885400000000004,12.44837Q33.6763,11.901060000000001,33.4547,11.44212ZM46.0412,14.535689999999999L47.113299999999995,14.535689999999999L47.113299999999995,21.588Q47.113299999999995,22.0305,47.254999999999995,22.272Q47.397,22.5133,47.8006,22.5992Q48.2042,22.685200000000002,48.9656,22.685200000000002Q49.1842,22.685200000000002,49.7024,22.685200000000002Q50.2206,22.685200000000002,50.8836,22.685200000000002Q51.5469,22.685200000000002,52.2257,22.685200000000002Q52.9044,22.685200000000002,53.4594,22.685200000000002Q54.0146,22.685200000000002,54.2983,22.685200000000002Q54.8817,22.685200000000002,55.2335,22.5741Q55.5854,22.462699999999998,55.7845,22.1635Q55.9836,21.8643,56.0857,21.3294Q56.1881,20.7943,56.2636,19.9467Q56.4099,20.041,56.5989,20.1293Q56.7879,20.2177,56.9806,20.284Q57.1736,20.3503,57.3308,20.380699999999997Q57.2307,21.3458,57.0635,21.9922Q56.8966,22.6386,56.5775,23.017699999999998Q56.2585,23.397,55.706,23.5607Q55.1536,23.7245,54.2909,23.7245Q54.1515,23.7245,53.7486,23.7245Q53.3459,23.7245,52.7966,23.7245Q52.2473,23.7245,51.6471,23.7245Q51.047,23.7245,50.5004,23.7245Q49.9539,23.7245,49.558,23.7245Q49.1623,23.7245,49.0286,23.7245Q47.8946,23.7245,47.2382,23.545099999999998Q46.581900000000005,23.3658,46.311499999999995,22.9011Q46.0412,22.4363,46.0412,21.5678L46.0412,14.535689999999999ZM46.6208,16.83912L54.8802,16.83912L54.8802,17.87622L46.6208,17.87622L46.6208,16.83912ZM45.3057,12.11369L55.5489,12.11369L55.5489,18.5745L54.4628,18.5745L54.4628,13.156030000000001L45.3057,13.156030000000001L45.3057,12.11369ZM63.6571,12.53937L70.5094,12.53937L70.5094,13.436910000000001L63.6571,13.436910000000001L63.6571,12.53937ZM66.5531,11.243500000000001L67.5933,11.243500000000001L67.5933,15.11319L66.5531,15.11319L66.5531,11.243500000000001ZM64.2077,16.67025L64.6927,16.14219Q65.05969999999999,16.31325,65.4473,16.55169Q65.8352,16.78991,66.1777,17.02834Q66.5205,17.26656,66.73599999999999,17.48816L66.2313,18.0856Q65.91239999999999,17.7605,65.33449999999999,17.36128Q64.7568,16.961840000000002,64.2077,16.67025ZM63.1863,17.940089999999998L63.6871,17.39803Q64.0596,17.58003,64.4571,17.820880000000002Q64.8545,18.061500000000002,65.2041,18.313499999999998Q65.5539,18.5655,65.7608,18.798000000000002L65.2577,19.409399999999998Q65.04220000000001,19.1854,64.6979,18.921Q64.3538,18.6565,63.959,18.399Q63.5643,18.1416,63.1863,17.940089999999998ZM63.1354,14.69275L70.4622,14.69275L70.4622,15.600999999999999L63.1354,15.600999999999999L63.1354,14.69275ZM70.1262,14.69275L70.2843,14.69275L70.4502,14.65381L71.1147,14.82028Q70.8986,15.52072,70.642,16.24937Q70.3854,16.977809999999998,70.1358,17.48291L69.3022,17.25475Q69.5073,16.79975,69.7379,16.129939999999998Q69.9685,15.45991,70.1262,14.845220000000001L70.1262,14.69275ZM62.8499,19.4906L71.2482,19.4906L71.2482,20.4152L62.8499,20.4152L62.8499,19.4906ZM66.9434,16.15728L67.95859999999999,16.15728L67.95859999999999,17.83312Q67.95859999999999,18.457700000000003,67.8691,19.130499999999998Q67.77969999999999,19.8032,67.5167,20.485500000000002Q67.2538,21.1678,66.7388,21.822Q66.22409999999999,22.476100000000002,65.3743,23.0774Q64.5247,23.678800000000003,63.2561,24.1858Q63.1953,24.0588,63.0877,23.9056Q62.9803,23.7527,62.8576,23.6092Q62.7348,23.465899999999998,62.6187,23.369300000000003Q64.0963,22.802500000000002,64.9637,22.1147Q65.8312,21.4268,66.2585,20.6887Q66.6859,19.950400000000002,66.81450000000001,19.2148Q66.9434,18.479100000000003,66.9434,17.81125L66.9434,16.15728ZM67.56110000000001,21.5276L68.1959,20.9315Q68.7621,21.2962,69.3811,21.747700000000002Q70.0002,22.199199999999998,70.5433,22.6587Q71.08670000000001,23.118299999999998,71.42269999999999,23.482300000000002L70.7551,24.167Q70.42150000000001,23.7945,69.8891,23.3251Q69.35679999999999,22.855800000000002,68.7448,22.3796Q68.1327,21.9032,67.56110000000001,21.5276ZM59.4652,12.242090000000001L60.1383,11.56659Q60.5218,11.86912,60.9437,12.2375Q61.3657,12.60566,61.7387,12.965499999999999Q62.1118,13.32512,62.3352,13.616060000000001L61.6293,14.39437Q61.3998,14.094909999999999,61.0349,13.71997Q60.6701,13.345030000000001,60.2577,12.95456Q59.8454,12.56409,59.4652,12.242090000000001ZM60.5288,23.831699999999998L60.3181,22.8298L60.5749,22.369799999999998L62.8687,20.5378Q62.949,20.7473,63.0634,21.0048Q63.178,21.2622,63.2747,21.4112Q62.4463,22.0902,61.9371,22.519Q61.428,22.947699999999998,61.1472,23.1973Q60.8663,23.4471,60.7352,23.5865Q60.6042,23.7258,60.5288,23.831699999999998ZM60.5288,23.8402Q60.4789,23.7295,60.3763,23.59Q60.2739,23.4506,60.1661,23.316499999999998Q60.0582,23.1827,59.9727,23.1024Q60.0978,23.005200000000002,60.2518,22.8169Q60.4058,22.6286,60.5209,22.3632Q60.6359,22.0979,60.6359,21.7573L60.6359,15.630749999999999L61.6098,15.630749999999999L61.6098,22.5214Q61.6098,22.5214,61.4444,22.667299999999997Q61.2791,22.813200000000002,61.0693,23.031100000000002Q60.8595,23.249200000000002,60.6941,23.469900000000003Q60.5288,23.6906,60.5288,23.8402ZM58.5659,15.630749999999999L61.3071,15.630749999999999L61.3071,16.64575L58.5659,16.64575L58.5659,15.630749999999999Z" fill="#4B5563" fill-opacity="1" style="mix-blend-mode:passthrough"/></g></g></svg>