<svg xmlns="http://www.w3.org/2000/svg" xmlns:xlink="http://www.w3.org/1999/xlink" fill="none" version="1.1" width="112.015625" height="42" viewBox="0 0 112.015625 42"><g><rect x="0" y="0" width="112.015625" height="42" rx="4" fill="#2563EB" fill-opacity="1" style="mix-blend-mode:passthrough"/><g><path d="M27.6358125,16.75625L36.3406125,16.75625L36.3406125,17.86925L27.6358125,17.86925L27.6358125,16.75625ZM24.9053125,19.733L39.0968125,19.733L39.0968125,20.8647L24.9053125,20.8647L24.9053125,19.733ZM29.2440625,20.454L30.466562500000002,20.454Q30.3893125,21.8127,30.1583125,22.8492Q29.9273125,23.8855,29.394312499999998,24.6507Q28.8613125,25.416,27.8878125,25.9408Q26.9145625,26.4657,25.3498125,26.7955Q25.3088125,26.638,25.1965625,26.4552Q25.0845625,26.2728,24.9535625,26.0933Q24.8228125,25.914,24.7060625,25.8008Q26.1328125,25.5245,27.0055625,25.0923Q27.8783125,24.66,28.3403125,24.025199999999998Q28.8025625,23.3905,28.9925625,22.506999999999998Q29.1825625,21.6233,29.2440625,20.454ZM33.2478125,20.408L34.4543125,20.408L34.4543125,24.8692Q34.4543125,25.2108,34.5943125,25.3118Q34.7343125,25.4125,35.2291125,25.4125Q35.3481125,25.4125,35.6463125,25.4125Q35.9448125,25.4125,36.309312500000004,25.4125Q36.6741125,25.4125,36.9933125,25.4125Q37.3126125,25.4125,37.4671125,25.4125Q37.7693125,25.4125,37.9233125,25.27Q38.0776125,25.1273,38.1383125,24.6688Q38.1993125,24.21,38.2216125,23.2895Q38.3641125,23.3872,38.556312500000004,23.4805Q38.7486125,23.5735,38.9583125,23.646Q39.1681125,23.7185,39.3256125,23.769199999999998Q39.2623125,24.862,39.0878125,25.4657Q38.9136125,26.0693,38.5591125,26.299Q38.204612499999996,26.529,37.5643125,26.529Q37.4433125,26.529,37.099112500000004,26.529Q36.7548125,26.529,36.3346125,26.529Q35.914612500000004,26.529,35.5671125,26.529Q35.2198125,26.529,35.105112500000004,26.529Q34.3676125,26.529,33.9668125,26.3853Q33.5663125,26.2415,33.4070625,25.8787Q33.2478125,25.5163,33.2478125,24.8755L33.2478125,20.408ZM25.3148125,13.89275L38.6626125,13.89275L38.6626125,17.445999999999998L37.4213125,17.445999999999998L37.4213125,15.053L26.5125625,15.053L26.5125625,17.445999999999998L25.3148125,17.445999999999998L25.3148125,13.89275ZM30.7413125,12.26725L31.9505625,11.911Q32.283812499999996,12.435500000000001,32.6015625,13.07375Q32.919312500000004,13.712,33.0703125,14.169L31.7985625,14.5695Q31.6663125,14.125,31.3690625,13.4665Q31.0718125,12.80775,30.7413125,12.26725ZM42.7426125,18.057000000000002L46.7178125,18.057000000000002L46.7178125,19.1735L42.7426125,19.1735L42.7426125,18.057000000000002ZM46.2475125,18.057000000000002L47.4106125,18.057000000000002Q47.4106125,18.057000000000002,47.4106125,18.1505Q47.4106125,18.24375,47.4073125,18.3675Q47.4043125,18.49125,47.4043125,18.5705Q47.368812500000004,20.3682,47.3158125,21.4795Q47.2631125,22.5905,47.1688125,23.1692Q47.0745125,23.747799999999998,46.9021125,23.9648Q46.7143125,24.189999999999998,46.4945125,24.2852Q46.2751125,24.380200000000002,45.9363125,24.421300000000002Q45.6260125,24.456,45.1118125,24.4525Q44.5978125,24.448999999999998,44.008512499999995,24.419800000000002Q43.9926125,24.1615,43.9043125,23.8433Q43.8161125,23.5247,43.6773125,23.297800000000002Q44.2208125,23.3492,44.6971125,23.360500000000002Q45.1733125,23.371499999999997,45.3751125,23.371499999999997Q45.5448125,23.371499999999997,45.6666125,23.3383Q45.7883125,23.3048,45.8746125,23.2025Q45.999812500000004,23.055,46.0673125,22.5518Q46.134812499999995,22.048299999999998,46.178312500000004,21.017Q46.2218125,19.985500000000002,46.2475125,18.25625L46.2475125,18.057000000000002ZM50.7453125,12.862L51.4703125,12.12375Q51.974112500000004,12.370750000000001,52.5241125,12.69625Q53.074312500000005,13.0215,53.5598125,13.34675Q54.045612500000004,13.672,54.3566125,13.95375L53.6041125,14.77375Q53.305612499999995,14.492,52.824312500000005,14.1495Q52.343112500000004,13.806750000000001,51.8011125,13.46725Q51.2591125,13.127749999999999,50.7453125,12.862ZM53.0438125,17.2035L54.2441125,17.5Q53.2228125,20.6297,51.4461125,22.938000000000002Q49.669312500000004,25.2463,47.2161125,26.6987Q47.1343125,26.5695,46.9718125,26.3853Q46.809312500000004,26.201,46.6423125,26.0165Q46.4753125,25.8323,46.3366125,25.7157Q48.7716125,24.4215,50.457012500000005,22.257199999999997Q52.1426125,20.093,53.0438125,17.2035ZM42.835012500000005,14.776L55.2233125,14.776L55.2233125,15.95125L42.835012500000005,15.95125L42.835012500000005,14.776ZM42.0575125,14.776L43.3051125,14.776L43.3051125,19.2895Q43.3051125,20.139200000000002,43.2410125,21.1292Q43.1771125,22.1192,43.002812500000005,23.1493Q42.8286125,24.1792,42.4893125,25.141Q42.1503125,26.1025,41.5966125,26.8892Q41.5023125,26.7663,41.3115125,26.6073Q41.121112499999995,26.4482,40.9273125,26.3035Q40.7338125,26.1588,40.5885125,26.0895Q41.258512499999995,25.1065,41.566612500000005,23.9195Q41.8746125,22.732300000000002,41.9661125,21.523Q42.0575125,20.313499999999998,42.0575125,19.2735L42.0575125,14.776ZM48.7078125,12.08L49.955312500000005,12.08Q49.946312500000005,14.2945,50.1183125,16.296Q50.2903125,18.29725,50.6146125,19.9683Q50.9388125,21.639200000000002,51.3901125,22.8643Q51.8416125,24.089199999999998,52.395812500000005,24.7638Q52.950312499999995,25.438,53.5651125,25.438Q53.9126125,25.438,54.0808125,24.7558Q54.2493125,24.0735,54.313312499999995,22.481Q54.5181125,22.676000000000002,54.816312499999995,22.8617Q55.1146125,23.0472,55.3541125,23.1355Q55.2463125,24.502,55.0403125,25.2725Q54.834312499999996,26.0427,54.4611125,26.3533Q54.088012500000005,26.664,53.4705125,26.664Q52.6626125,26.664,51.9943125,26.1213Q51.3263125,25.5785,50.8018125,24.5898Q50.2773125,23.601,49.8916125,22.247500000000002Q49.505812500000005,20.894,49.2463125,19.264699999999998Q48.9868125,17.63525,48.8553125,15.814Q48.7238125,13.992750000000001,48.7078125,12.08ZM57.6733125,13.86275L70.4133125,13.86275L70.4133125,15.104L57.6733125,15.104L57.6733125,13.86275ZM56.8395125,24.3503L71.2171125,24.3503L71.2171125,25.5505L56.8395125,25.5505L56.8395125,24.3503ZM63.3026125,14.49075L64.63731250000001,14.49075L64.63731250000001,24.8487L63.3026125,24.8487L63.3026125,14.49075ZM79.3516125,15.3805L80.59031250000001,15.3805L80.59031250000001,26.7607L79.3516125,26.7607L79.3516125,15.3805ZM75.5498125,18.511200000000002L75.5498125,20.233L84.5625125,20.233L84.5625125,18.511200000000002L75.5498125,18.511200000000002ZM75.5498125,15.846L75.5498125,17.54825L84.5625125,17.54825L84.5625125,15.846L75.5498125,15.846ZM74.38051250000001,14.823L85.7916125,14.823L85.7916125,21.252499999999998L74.38051250000001,21.252499999999998L74.38051250000001,14.823ZM72.86801249999999,22.7747L87.1893125,22.7747L87.1893125,23.894L72.86801249999999,23.894L72.86801249999999,22.7747ZM75.7758125,12.60425L76.7963125,12.128Q77.2833125,12.663,77.7796125,13.3305Q78.27601250000001,13.998000000000001,78.51611249999999,14.500250000000001L77.4458125,15.04325Q77.2145125,14.5535,76.7355125,13.85575Q76.2565125,13.158000000000001,75.7758125,12.60425ZM83.3533125,12.129999999999999L84.6533125,12.5535Q84.1743125,13.32075,83.6218125,14.112Q83.0693125,14.902999999999999,82.6045125,15.454L81.57861249999999,15.05875Q81.88001249999999,14.6685,82.21351250000001,14.152999999999999Q82.5473125,13.6375,82.8508125,13.103Q83.1543125,12.568249999999999,83.3533125,12.129999999999999Z" fill="#FFFFFF" fill-opacity="1" style="mix-blend-mode:passthrough"/></g></g></svg>