<svg xmlns="http://www.w3.org/2000/svg" xmlns:xlink="http://www.w3.org/1999/xlink" fill="none" version="1.1" width="534" height="406" viewBox="0 0 534 406"><defs><filter id="master_svg0_14_4893" filterUnits="objectBoundingBox" color-interpolation-filters="sRGB" x="-0.07291666666666667" y="-0.05965909090909091" width="1.1125" height="1.1534090909090908"><feFlood flood-opacity="0" result="BackgroundImageFix"/><feColorMatrix in="SourceAlpha" type="matrix" values="0 0 0 0 0 0 0 0 0 0 0 0 0 0 0 0 0 0 127 0"/><feMorphology radius="-4" operator="dilate" in="SourceAlpha" result="effect1_dropShadow"/><feOffset dy="4" dx="0"/><feGaussianBlur stdDeviation="3"/><feColorMatrix type="matrix" values="0 0 0 0 0 0 0 0 0 0 0 0 0 0 0 0 0 0 0.10000000149011612 0"/><feBlend mode="normal" in2="BackgroundImageFix" result="effect1_dropShadow"/><feColorMatrix in="SourceAlpha" type="matrix" values="0 0 0 0 0 0 0 0 0 0 0 0 0 0 0 0 0 0 127 0"/><feMorphology radius="-3" operator="dilate" in="SourceAlpha" result="effect2_dropShadow"/><feOffset dy="10" dx="0"/><feGaussianBlur stdDeviation="7.5"/><feColorMatrix type="matrix" values="0 0 0 0 0 0 0 0 0 0 0 0 0 0 0 0 0 0 0.10000000149011612 0"/><feBlend mode="normal" in2="effect1_dropShadow" result="effect2_dropShadow"/><feBlend mode="normal" in="SourceGraphic" in2="effect2_dropShadow" result="shape"/></filter><clipPath id="master_svg1_14_4893"><rect x="27" y="17" width="480" height="352" rx="12"/></clipPath><clipPath id="master_svg2_14_239"><rect x="451" y="238" width="14" height="16" rx="0"/></clipPath><clipPath id="master_svg3_14_5032"><rect x="83" y="270" width="400" height="0.009999999776482582" rx="0"/></clipPath></defs><g filter="url(#master_svg0_14_4893)"><g clip-path="url(#master_svg1_14_4893)"><rect x="27" y="17" width="480" height="352" rx="12" fill="#FFFFFF" fill-opacity="1" style="mix-blend-mode:passthrough"/><rect x="27" y="17" width="480" height="352" rx="12" fill="#000000" fill-opacity="0.0010000000474974513" style="mix-blend-mode:passthrough"/><g><rect x="27" y="17" width="480" height="61" rx="0" fill="#000000" fill-opacity="0" style="mix-blend-mode:passthrough"/><path d="M507,78L507,77L27,77L27,78L507,78Z" fill-rule="evenodd" fill="#E5E7EB" fill-opacity="1" style="mix-blend-mode:passthrough"/><g><rect x="51" y="33" width="432" height="28" rx="0" fill="#000000" fill-opacity="0" style="mix-blend-mode:passthrough"/><g><path d="M227.771562,39.23625L235.42781,39.23625L235.42781,41.20312L227.771562,41.20312L227.771562,39.23625ZM231.59687,42.56563L233.65094,42.56563L233.65094,55.6887L231.59687,55.6887L231.59687,42.56563ZM227.624687,50.403400000000005Q228.67156,50.2572,230.03187,50.067499999999995Q231.3925,49.8778,232.91281,49.644999999999996Q234.43313,49.4119,235.94687,49.1787L236.04031,51.0319Q233.94687,51.4184,231.83,51.798100000000005Q229.71312,52.177499999999995,228.04594,52.4709L227.624687,50.403400000000005ZM228.49875,47.6769Q228.45187,47.4766,228.34812,47.1422Q228.24437,46.8075,228.11063,46.4566Q227.976875,46.1053,227.85625,45.850899999999996Q228.15031,45.7709,228.39344,45.3447Q228.63687,44.9181,228.89687,44.2712Q229.02344,43.9581,229.27344,43.225Q229.52344,42.49156,229.80312,41.49156Q230.08312,40.49156,230.34594,39.345Q230.60906,38.19812,230.75563,37.05812L232.84281,37.44594Q232.48281,39.07969,231.96594,40.73344Q231.44906,42.38688,230.84875,43.890299999999996Q230.24844,45.3938,229.64156,46.587199999999996L229.64156,46.620599999999996Q229.64156,46.620599999999996,229.46781,46.7344Q229.29406,46.8481,229.07,47.0188Q228.84625,47.189099999999996,228.6725,47.3663Q228.49875,47.5434,228.49875,47.6769ZM228.49875,47.6769L228.49875,45.9513L229.47375,45.4434L235.29906,45.4434L235.29906,47.3769L230.02594,47.3769Q229.54625,47.3769,229.08906,47.4569Q228.63187,47.5369,228.49875,47.6769ZM238.2466,46.763400000000004L244.1456,46.763400000000004L244.1456,48.7638L238.2466,48.7638L238.2466,46.763400000000004ZM243.6303,46.763400000000004L243.9647,46.763400000000004L244.2925,46.649699999999996L245.8047,47.399100000000004Q245.1906,48.2934,244.4534,49.3072Q243.71620000000001,50.3209,242.9291,51.3416Q242.1419,52.3619,241.3947,53.2956L239.5547,52.432500000000005Q240.2884,51.5453,241.0556,50.5319Q241.8228,49.518100000000004,242.5066,48.577799999999996Q243.1903,47.6375,243.6303,46.9841L243.6303,46.763400000000004ZM237.1812,51.568799999999996L238.5531,50.1906Q239.6469,50.7703,240.76409999999998,51.4703Q241.8816,52.17,242.8622,52.8666Q243.8428,53.5631,244.4834,54.143100000000004L243.0853,55.822500000000005Q242.4647,55.2225,241.4875,54.465599999999995Q240.5103,53.7091,239.3828,52.939099999999996Q238.2553,52.168800000000005,237.1812,51.568799999999996ZM240.1625,37.08531L242.2903,37.34594Q241.9569,38.75375,241.5534,40.30781Q241.1503,41.86156,240.7334,43.4053Q240.3169,44.9491,239.9269,46.3297Q239.5372,47.71,239.1972,48.7638L236.90906,48.7638Q237.2959,47.643100000000004,237.73590000000002,46.2094Q238.1759,44.7753,238.6159,43.1947Q239.0559,41.61406,239.45589999999999,40.043440000000004Q239.8559,38.47281,240.1625,37.08531ZM236.25281,39.24969L245.5881,39.24969L245.5881,41.21656L236.25281,41.21656L236.25281,39.24969ZM235.53344,42.989689999999996L246.2881,42.989689999999996L246.2881,44.9831L235.53344,44.9831L235.53344,42.989689999999996ZM248.6047,38.8975L249.6544,37.325Q250.2209,37.605000000000004,250.8841,37.98531Q251.5475,38.36531,252.1678,38.75875Q252.7881,39.15188,253.1812,39.48531L252.0781,41.23844Q251.6981,40.89844,251.1012,40.475Q250.5044,40.05156,249.8444,39.63469Q249.1844,39.2175,248.6047,38.8975ZM247.6116,44.3172L248.6078,42.71813Q249.1809,42.96469,249.83780000000002,43.315Q250.4947,43.665,251.105,44.0319Q251.7153,44.3988,252.1153,44.7119L251.0588,46.5053Q250.6853,46.1719,250.095,45.775Q249.505,45.3781,248.8447,44.9978Q248.1847,44.6175,247.6116,44.3172ZM248.0309,53.9572Q248.4975,53.2041,249.0606,52.1678Q249.6241,51.131299999999996,250.2006,49.9581Q250.7775,48.7847,251.2775,47.6447L252.6822,49.096599999999995Q252.2288,50.1366,251.7188,51.2397Q251.2091,52.3425,250.6825,53.409099999999995Q250.1562,54.475300000000004,249.6428,55.435900000000004L248.0309,53.9572ZM262.3075,43.2306Q262.5938,45.4412,263.1062,47.452799999999996Q263.6188,49.4641,264.47090000000003,51.0363Q265.3234,52.6081,266.6025,53.5475Q266.3616,53.7416,266.0638,54.0594Q265.7663,54.3772,265.5053,54.721599999999995Q265.2444,55.066199999999995,265.0772,55.3675Q263.6912,54.193799999999996,262.7953,52.397800000000004Q261.8997,50.601600000000005,261.3803,48.325900000000004Q260.8613,46.0503,260.5416,43.4647L262.3075,43.2306ZM264.9381,45.2141L266.43,46.7934Q265.5163,47.4594,264.6303,48.1453Q263.7447,48.8309,262.9919,49.31L261.9353,48.0856Q262.4012,47.7325,262.9538,47.2328Q263.5066,46.7331,264.03589999999997,46.1969Q264.5653,45.6603,264.9381,45.2141ZM263.7781,37.09813L265.4841,38.84469Q263.9959,39.324690000000004,262.1919,39.71156Q260.38779999999997,40.09813,258.4875,40.394999999999996Q256.5872,40.69156,254.8137,40.89813Q254.7534,40.51656,254.5594,39.98125Q254.3653,39.44594,254.1712,39.10469Q255.4581,38.93813,256.7812,38.72156Q258.1047,38.505,259.3809,38.24844Q260.6575,37.99156,261.7809,37.70156Q262.9044,37.41156,263.7781,37.09813ZM254.1712,39.10469L256.1381,39.10469L256.1381,44.1719Q256.1381,45.4322,256.0481,46.9459Q255.9581,48.4597,255.6947,50.0403Q255.4316,51.6209,254.9484,53.1112Q254.4653,54.601600000000005,253.65879999999999,55.835Q253.4847,55.6678,253.1703,55.460300000000004Q252.8559,55.2531,252.5312,55.072500000000005Q252.2069,54.8919,251.9528,54.8047Q252.7125,53.644999999999996,253.15879999999999,52.2819Q253.6053,50.9184,253.8216,49.4953Q254.0381,48.0719,254.1047,46.7087Q254.1712,45.3453,254.1712,44.1719L254.1712,39.10469ZM263.5397,40.95969L265.2188,42.645939999999996Q264.2175,42.9925,263.03340000000003,43.2825Q261.8494,43.5725,260.6291,43.7856Q259.4087,43.9988,258.275,44.144999999999996Q258.2147,43.7769,258.0175,43.2753Q257.8203,42.77344,257.6331,42.42562Q258.6931,42.2525,259.7828,42.02938Q260.8725,41.80594,261.8556,41.52969Q262.83910000000003,41.25313,263.5397,40.95969ZM257.6681,55.5416L257.4069,53.7491L258.075,53.081199999999995L261.9797,51.5559Q262.0397,51.9641,262.1669,52.4591Q262.2941,52.9541,262.3944,53.254999999999995Q261.0084,53.8547,260.13530000000003,54.2378Q259.2622,54.6209,258.7753,54.8609Q258.2887,55.1012,258.0484,55.2578Q257.8084,55.414699999999996,257.6681,55.5416ZM257.6681,55.5416Q257.6081,55.3009,257.4744,54.9697Q257.3406,54.6388,257.1834,54.310900000000004Q257.0262,53.9831,256.8725,53.7825Q257.1397,53.6356,257.3862,53.3119Q257.6331,52.9881,257.6331,52.3878L257.6331,42.43906L259.5194,42.43906L259.5194,53.9109Q259.5194,53.9109,259.23879999999997,54.0644Q258.9581,54.2181,258.5938,54.4688Q258.2297,54.7194,257.9487,55Q257.6681,55.2809,257.6681,55.5416ZM269.0259,39.19031L285.0403,39.19031L285.0403,41.425L269.0259,41.425L269.0259,39.19031ZM267.9388,52.148399999999995L286.1347,52.148399999999995L286.1347,54.3097L267.9388,54.3097L267.9388,52.148399999999995ZM275.7153,40.39531L278.1509,40.39531L278.1509,53.018100000000004L275.7153,53.018100000000004L275.7153,40.39531ZM295.8494,41.50187L298.0641,41.50187L298.0641,55.6881L295.8494,55.6881L295.8494,41.50187ZM291.8922,45.4825L291.8922,47.0691L302.2006,47.0691L302.2006,45.4825L291.8922,45.4825ZM291.8922,42.25719L291.8922,43.830600000000004L302.2006,43.830600000000004L302.2006,42.25719L291.8922,42.25719ZM289.7981,40.49125L304.4088,40.49125L304.4088,48.8419L289.7981,48.8419L289.7981,40.49125ZM287.9856,50.3303L306.0609,50.3303L306.0609,52.3172L287.9856,52.3172L287.9856,50.3303ZM291.43,37.98125L293.2769,37.144999999999996Q293.86310000000003,37.79125,294.4697,38.61469Q295.0762,39.43781,295.3763,40.07125L293.4222,41.0075Q293.1559,40.40094,292.5794,39.53438Q292.0031,38.66781,291.43,37.98125ZM300.7953,37.19219L303.1709,37.90094Q302.5441,38.888130000000004,301.8675,39.85469Q301.1909,40.82094,300.6381,41.48719L298.7509,40.82531Q299.1106,40.33187,299.4969,39.698750000000004Q299.8831,39.06531,300.2259,38.40563Q300.5691,37.74562,300.7953,37.19219Z" fill="#1F2937" fill-opacity="1" style="mix-blend-mode:passthrough"/></g></g></g><g><rect x="27" y="78" width="480" height="216" rx="0" fill="#000000" fill-opacity="0" style="mix-blend-mode:passthrough"/><g><rect x="51" y="110" width="432" height="160" rx="0" fill="#000000" fill-opacity="0" style="mix-blend-mode:passthrough"/><g><rect x="51" y="110" width="432" height="48" rx="0" fill="#000000" fill-opacity="0" style="mix-blend-mode:passthrough"/><g><rect x="99" y="122" width="48.015625" height="24" rx="0" fill="#000000" fill-opacity="0" style="mix-blend-mode:passthrough"/><g><path d="M106.325,128.622L107.5665,128.622L107.5665,140.2518L106.325,140.2518L106.325,128.622ZM99.813,127.9075L114.2218,127.9075L114.2218,129.07675L99.813,129.07675L99.813,127.9075ZM101.37325,131.2595L111.8845,131.2595L111.8845,132.4287L102.5735,132.4287L102.5735,138.4215L101.37325,138.4215L101.37325,131.2595ZM111.55799999999999,131.2595L112.7895,131.2595L112.7895,136.9032Q112.7895,137.4202,112.648,137.7115Q112.5065,138.0025,112.1028,138.1572Q111.689,138.2962,110.9998,138.331Q110.3105,138.3655,109.2778,138.3655Q109.243,138.0877,109.1135,137.7587Q108.984,137.4298,108.861,137.1805Q109.4055,137.19650000000001,109.884,137.2078Q110.3625,137.2188,110.7085,137.214Q111.0548,137.209,111.19630000000001,137.209Q111.4078,137.1895,111.4828,137.12369999999999Q111.55799999999999,137.058,111.55799999999999,136.8945L111.55799999999999,131.2595ZM105.609,125.7965L106.77725,125.434Q107.12025,125.9905,107.49175,126.67025Q107.8635,127.34975,108.03575000000001,127.82625L106.8015,128.25175Q106.69575,127.9255,106.50025,127.502Q106.30475,127.0785,106.07225,126.62775Q105.84,126.17699999999999,105.609,125.7965ZM115.804,129.46675L120.658,129.46675L120.658,130.60475L115.804,130.60475L115.804,129.46675ZM117.7615,125.74549999999999L118.8967,125.74549999999999L118.8967,136.4718L117.7615,136.4718L117.7615,125.74549999999999ZM115.5702,136.9288Q116.213,136.727,117.0343,136.4342Q117.8558,136.1412,118.77629999999999,135.7972Q119.697,135.4532,120.618,135.1172L120.8477,136.2142Q119.5837,136.72899999999998,118.3013,137.2358Q117.019,137.7425,115.971,138.1513L115.5702,136.9288ZM121.0035,126.31675L127.6998,126.31675L127.6998,127.45475L121.0035,127.45475L121.0035,126.31675ZM128.8415,130.72625L130.0452,130.72625Q130.0452,130.72625,130.0373,130.837Q130.0293,130.94774999999998,130.026,131.084Q130.023,131.22025,130.007,131.31525Q129.8853,133.422,129.7555,134.8877Q129.6258,136.3535,129.4818,137.3053Q129.3377,138.2568,129.1648,138.7905Q128.992,139.3242,128.7778,139.5767Q128.55180000000001,139.86599999999999,128.2955,139.9832Q128.0395,140.1007,127.6917,140.132Q127.402,140.1667,126.9435,140.1663Q126.4853,140.166,125.9713,140.1402Q125.965,139.88479999999998,125.8768,139.5583Q125.7887,139.232,125.6437,138.9988Q126.1405,139.0467,126.5602,139.0578Q126.9803,139.069,127.18469999999999,139.069Q127.3768,139.0788,127.503,139.0292Q127.6292,138.98,127.7475,138.8395Q127.9785,138.596,128.166,137.773Q128.3535,136.95,128.522,135.3022Q128.6905,133.6542,128.8415,130.97275L128.8415,130.72625ZM121.5685,132.05180000000001Q121.5275,131.91925,121.4375,131.7095Q121.3477,131.49975,121.2515,131.284Q121.1553,131.068,121.0638,130.92275Q121.3695,130.87225,121.793,130.655Q122.2168,130.4375,122.6745,130.1335Q122.918,129.97975,123.41929999999999,129.6305Q123.9207,129.281,124.5535,128.794Q125.1863,128.307,125.8528,127.72725Q126.5193,127.14725,127.1033,126.53575000000001L127.1033,126.44675L127.681,126.209L128.5845,126.88675Q126.9723,128.32475,125.41,129.48475Q123.8478,130.64475,122.4132,131.4455L122.4132,131.474Q122.4132,131.474,122.285,131.52925Q122.1567,131.5845,121.9907,131.6745Q121.8248,131.76425,121.6965,131.8655Q121.5685,131.9665,121.5685,132.05180000000001ZM121.5685,132.05180000000001L121.5685,131.05125L122.251,130.72625L129.2643,130.72625L129.258,131.858L122.9625,131.858Q122.407,131.858,122.0438,131.90575Q121.6805,131.95325,121.5685,132.05180000000001ZM126.73179999999999,131.36325L127.7913,131.575Q126.973,134.5063,125.5228,136.688Q124.0725,138.8695,121.986,140.2563Q121.898,140.1583,121.726,140.02870000000001Q121.5543,139.8993,121.3792,139.7745Q121.2043,139.65,121.0655,139.5707Q123.19630000000001,138.2917,124.5975,136.1997Q125.9988,134.1075,126.73179999999999,131.36325ZM124.2663,131.3765L125.3358,131.5945Q124.8095,133.2432,123.8425,134.5522Q122.8758,135.8612,121.67699999999999,136.7385Q121.58879999999999,136.6405,121.423,136.511Q121.2575,136.3815,121.084,136.252Q120.9105,136.1225,120.7778,136.053Q121.99,135.277,122.8968,134.0707Q123.8035,132.86430000000001,124.2663,131.3765ZM141.03300000000002,126.4145L145.16899999999998,126.4145L145.16899999999998,127.50875L142.1085,127.50875L142.1085,140.2518L141.03300000000002,140.2518L141.03300000000002,126.4145ZM144.9368,126.4145L145.1637,126.4145L145.347,126.36375L146.1725,126.88725Q145.7495,128.003,145.2203,129.28925Q144.691,130.57525,144.1873,131.6845Q145.2688,132.8185,145.621,133.7773Q145.9733,134.7358,145.9733,135.5625Q145.9733,136.2625,145.80599999999998,136.815Q145.6388,137.3675,145.243,137.6353Q145.05180000000001,137.766,144.7962,137.8457Q144.54070000000002,137.9253,144.25,137.9633Q143.9513,137.9952,143.5888,137.9967Q143.2262,137.998,142.877,137.982Q142.861,137.74869999999999,142.7817,137.4177Q142.7025,137.0865,142.554,136.8433Q142.9048,136.8787,143.224,136.8868Q143.5433,136.8947,143.7913,136.885Q143.9743,136.8655,144.14249999999998,136.8255Q144.311,136.7855,144.4425,136.7118Q144.677,136.5608,144.77179999999998,136.2153Q144.8665,135.8695,144.8568,135.45Q144.8568,134.7055,144.4743,133.81Q144.0918,132.9145,143.0158,131.8295Q143.2858,131.20475,143.5602,130.519Q143.8348,129.833,144.0915,129.15075Q144.3485,128.4685,144.5653,127.853Q144.78199999999998,127.23725,144.9368,126.77875L144.9368,126.4145ZM132.28199999999998,127.4455L139.8355,127.4455L139.8355,128.54325L132.28199999999998,128.54325L132.28199999999998,127.4455ZM131.8165,131.7725L140.19729999999998,131.7725L140.19729999999998,132.873L131.8165,132.873L131.8165,131.7725ZM133.2585,128.94825L134.2957,128.67325Q134.662,129.322,134.9525,130.08125Q135.243,130.8405,135.355,131.402L134.2573,131.718Q134.1577,131.14675,133.8703,130.375Q133.5827,129.60325,133.2585,128.94825ZM137.9325,128.62525L139.131,128.91Q138.90699999999998,129.471,138.6585,130.0805Q138.4103,130.69,138.16320000000002,131.25025Q137.9163,131.8105,137.6852,132.2407L136.6603,131.9815Q136.8913,131.52925,137.1338,130.93875Q137.3765,130.34825,137.587,129.737Q137.7975,129.1255,137.9325,128.62525ZM133.3735,138.336L138.857,138.336L138.857,139.40879999999999L133.3735,139.40879999999999L133.3735,138.336ZM132.743,134.337L139.458,134.337L139.458,140.0522L138.2668,140.0522L138.2668,135.425L133.8747,135.425L133.8747,140.175L132.743,140.175L132.743,134.337ZM134.94819999999999,125.791L136.0223,125.49175Q136.29149999999998,125.994,136.546,126.60025Q136.8008,127.2065,136.9225,127.62525L135.7827,127.99475Q135.6797,127.56625,135.4405,126.941Q135.2015,126.3155,134.94819999999999,125.791Z" fill="#374151" fill-opacity="1" style="mix-blend-mode:passthrough"/></g></g><g><rect x="67" y="124" width="20" height="20" rx="10" fill="#000000" fill-opacity="0" style="mix-blend-mode:passthrough"/><rect x="68" y="125" width="18" height="18" rx="9" fill-opacity="0" stroke-opacity="1" stroke="#D1D5DB" fill="none" stroke-width="2" style="mix-blend-mode:passthrough"/></g></g><g><rect x="51" y="166" width="432" height="48" rx="0" fill="#000000" fill-opacity="0" style="mix-blend-mode:passthrough"/><g><rect x="99" y="178" width="48.015625" height="24" rx="0" fill="#000000" fill-opacity="0" style="mix-blend-mode:passthrough"/><g><path d="M99.81575,182.68875L107.17575,182.68875L107.17575,183.8455L99.81575,183.8455L99.81575,182.68875ZM103.752,187.358L106.57,187.358L106.57,188.5057L103.752,188.5057L103.752,187.358ZM103.209,183.313L104.3815,183.313L104.3815,193.4167L103.209,193.4167L103.209,183.313ZM100.48975,186.27775L101.584,186.27775L101.584,193.875L100.48975,193.875L100.48975,186.27775ZM99.53,193.5977Q100.47325,193.4148,101.719,193.1517Q102.965,192.8885,104.36449999999999,192.5728Q105.76425,192.2568,107.15,191.9457L107.26025,193.0525Q105.92875,193.3698,104.58475,193.6853Q103.24075,194.0007,102.001,194.2875Q100.7615,194.574,99.76425,194.8078L99.53,193.5977ZM108.262,184.538L114.3463,184.538L114.3463,185.65725L108.262,185.65725L108.262,184.538ZM108.8065,181.55775L110.0078,181.75975Q109.7128,183.24975,109.279,184.6565Q108.84525,186.06325,108.29525,187.2675Q107.74549999999999,188.4715,107.06525,189.3932Q106.9675,189.2767,106.79375,189.1257Q106.62025,188.9747,106.42925,188.827Q106.23825,188.679,106.09925,188.5907Q106.76775,187.751,107.28025,186.63475Q107.79275,185.5185,108.1775,184.21675Q108.56225,182.915,108.8065,181.55775ZM112.1258,185.127L113.3233,185.25075Q112.9155,188.0133,112.153,190.1065Q111.3905,192.1997,110.099,193.727Q108.8075,195.254,106.80125,196.3143Q106.74425,196.169,106.6195,195.9722Q106.495,195.7755,106.353,195.5818Q106.211,195.38830000000002,106.09075,195.2652Q107.98375,194.3472,109.1938,192.946Q110.4038,191.5445,111.0955,189.6035Q111.7873,187.6625,112.1258,185.127ZM108.76925,185.572Q109.1638,187.79375,109.8865,189.7175Q110.6095,191.641,111.7418,193.0723Q112.8743,194.5035,114.5035,195.2687Q114.3745,195.3855,114.212,195.5618Q114.0495,195.738,113.9075,195.92849999999999Q113.7655,196.1192,113.6675,196.28300000000002Q111.97579999999999,195.3878,110.8105,193.8527Q109.6453,192.3177,108.89875,190.2625Q108.15225,188.207,107.7105,185.7615L108.76925,185.572ZM123.1135,189.6152L128.4142,189.6152L128.4142,190.713L123.1135,190.713L123.1135,189.6152ZM116.269,194.7108L129.9163,194.7108L129.9163,195.8113L116.269,195.8113L116.269,194.7108ZM122.5117,185.93525L123.762,185.93525L123.762,195.3368L122.5117,195.3368L122.5117,185.93525ZM118.30199999999999,188.7625L119.47749999999999,188.7625L119.47749999999999,195.2425L118.30199999999999,195.2425L118.30199999999999,188.7625ZM122.9745,181.41025L124.042,181.92675Q123.17699999999999,183.24425,121.9603,184.43525Q120.7437,185.62625,119.31530000000001,186.59875Q117.887,187.571,116.3633,188.25900000000001Q116.2245,188.029,115.9942,187.7425Q115.7642,187.45575,115.5308,187.2545Q117.0135,186.64825,118.4233,185.75175Q119.833,184.855,121.0135,183.74425Q122.194,182.63325,122.9745,181.41025ZM123.50880000000001,182.23225Q124.531,183.47575,125.6637,184.39375Q126.7968,185.3115,128.0353,185.99825Q129.2738,186.685,130.5633,187.25525Q130.3425,187.444,130.1215,187.726Q129.9008,188.0077,129.7745,188.2625Q128.46,187.62275,127.2235,186.86525Q125.9873,186.10775,124.8165,185.0955Q123.646,184.083,122.5317,182.7015L123.50880000000001,182.23225ZM141.03300000000002,182.4145L145.16899999999998,182.4145L145.16899999999998,183.50875L142.1085,183.50875L142.1085,196.2518L141.03300000000002,196.2518L141.03300000000002,182.4145ZM144.9368,182.4145L145.1637,182.4145L145.347,182.36375L146.1725,182.88725Q145.7495,184.003,145.2203,185.28925Q144.691,186.57525,144.1873,187.6845Q145.2688,188.8185,145.621,189.7773Q145.9733,190.7358,145.9733,191.5625Q145.9733,192.2625,145.80599999999998,192.815Q145.6388,193.3675,145.243,193.6353Q145.05180000000001,193.766,144.7962,193.8457Q144.54070000000002,193.9253,144.25,193.9633Q143.9513,193.9952,143.5888,193.9967Q143.2262,193.998,142.877,193.982Q142.861,193.74869999999999,142.7817,193.4177Q142.7025,193.0865,142.554,192.8433Q142.9048,192.8787,143.224,192.8868Q143.5433,192.8947,143.7913,192.885Q143.9743,192.8655,144.14249999999998,192.8255Q144.311,192.7855,144.4425,192.7118Q144.677,192.5608,144.77179999999998,192.2153Q144.8665,191.8695,144.8568,191.45Q144.8568,190.7055,144.4743,189.81Q144.0918,188.9145,143.0158,187.8295Q143.2858,187.20475,143.5602,186.519Q143.8348,185.833,144.0915,185.15075Q144.3485,184.4685,144.5653,183.853Q144.78199999999998,183.23725,144.9368,182.77875L144.9368,182.4145ZM132.28199999999998,183.4455L139.8355,183.4455L139.8355,184.54325L132.28199999999998,184.54325L132.28199999999998,183.4455ZM131.8165,187.7725L140.19729999999998,187.7725L140.19729999999998,188.873L131.8165,188.873L131.8165,187.7725ZM133.2585,184.94825L134.2957,184.67325Q134.662,185.322,134.9525,186.08125Q135.243,186.8405,135.355,187.402L134.2573,187.718Q134.1577,187.14675,133.8703,186.375Q133.5827,185.60325,133.2585,184.94825ZM137.9325,184.62525L139.131,184.91Q138.90699999999998,185.471,138.6585,186.0805Q138.4103,186.69,138.16320000000002,187.25025Q137.9163,187.8105,137.6852,188.2407L136.6603,187.9815Q136.8913,187.52925,137.1338,186.93875Q137.3765,186.34825,137.587,185.737Q137.7975,185.1255,137.9325,184.62525ZM133.3735,194.336L138.857,194.336L138.857,195.40879999999999L133.3735,195.40879999999999L133.3735,194.336ZM132.743,190.337L139.458,190.337L139.458,196.0522L138.2668,196.0522L138.2668,191.425L133.8747,191.425L133.8747,196.175L132.743,196.175L132.743,190.337ZM134.94819999999999,181.791L136.0223,181.49175Q136.29149999999998,181.994,136.546,182.60025Q136.8008,183.2065,136.9225,183.62525L135.7827,183.99475Q135.6797,183.56625,135.4405,182.941Q135.2015,182.3155,134.94819999999999,181.791Z" fill="#374151" fill-opacity="1" style="mix-blend-mode:passthrough"/></g></g><g><rect x="67" y="180" width="20" height="20" rx="10" fill="#000000" fill-opacity="0" style="mix-blend-mode:passthrough"/><rect x="68" y="181" width="18" height="18" rx="9" fill-opacity="0" stroke-opacity="1" stroke="#D1D5DB" fill="none" stroke-width="2" style="mix-blend-mode:passthrough"/></g></g><g><rect x="51" y="222" width="432" height="48" rx="0" fill="#000000" fill-opacity="0" style="mix-blend-mode:passthrough"/><g><rect x="51" y="222" width="432" height="48" rx="0" fill="#000000" fill-opacity="0" style="mix-blend-mode:passthrough"/><g><rect x="99" y="234" width="368" height="24" rx="0" fill="#000000" fill-opacity="0" style="mix-blend-mode:passthrough"/><g><path d="M102.961,241.20075L111.102,241.20075L111.102,242.2485L102.961,242.2485L102.961,241.20075ZM103.7785,243.93075L104.8915,243.93075L104.8915,250.1882L103.7785,250.1882L103.7785,243.93075ZM104.3805,243.93075L110.234,243.93075L110.234,249.024L104.3805,249.024L104.3805,247.9887L109.1148,247.9887L109.1148,244.95L104.3805,244.95L104.3805,243.93075ZM100.40025,238.39125L113.1773,238.39125L113.1773,239.52925L101.573,239.52925L101.573,252.3053L100.40025,252.3053L100.40025,238.39125ZM112.4465,238.39125L113.6318,238.39125L113.6318,250.754Q113.6318,251.3092,113.4738,251.6162Q113.316,251.9233,112.9505,252.0685Q112.5945,252.2197,111.9525,252.26069999999999Q111.3108,252.30180000000001,110.2798,252.292Q110.2575,252.1283,110.1863,251.9188Q110.115,251.7095,110.0283,251.4935Q109.9415,251.2778,109.8435,251.1203Q110.5988,251.14249999999998,111.2248,251.1455Q111.851,251.1485,112.059,251.1388Q112.276,251.1232,112.3613,251.0375Q112.4465,250.9517,112.4465,250.7488L112.4465,238.39125ZM123.2127,239.01275L124.4175,239.06Q124.2895,241.9665,123.999,244.4205Q123.7088,246.8743,123.0825,248.8433Q122.4562,250.8123,121.314,252.3107Q121.21600000000001,252.2127,121.0205,252.0725Q120.825,251.9323,120.617,251.792Q120.4093,251.6518,120.258,251.5763Q121.394,250.2332,122.00450000000001,248.3422Q122.6152,246.4513,122.874,244.0965Q123.1328,241.7415,123.2127,239.01275ZM121.3993,238.59225L127.706,238.59225L127.706,239.7275L121.3993,239.7275L121.3993,238.59225ZM126.6603,242.9605L128.949,242.9605L128.949,244.027L126.3088,244.027L126.6603,242.9605ZM128.61430000000001,242.9605L128.8447,242.9605L129.069,242.9195L129.81,243.2195Q129.3195,245.5512,128.3703,247.3188Q127.4212,249.086,126.1455,250.3188Q124.8698,251.5513,123.364,252.3053Q123.282,252.16649999999998,123.1275,251.9883Q122.9733,251.8102,122.8125,251.6445Q122.65180000000001,251.47899999999998,122.5128,251.3908Q123.99,250.71,125.2135,249.5872Q126.4373,248.4645,127.31700000000001,246.8752Q128.1968,245.286,128.61430000000001,243.21325L128.61430000000001,242.9605ZM124.09,242.775Q124.6413,244.6302,125.54599999999999,246.3062Q126.4508,247.982,127.6933,249.2773Q128.9358,250.57229999999998,130.4603,251.2805Q130.3275,251.3908,130.168,251.5658Q130.0088,251.7407,129.8698,251.922Q129.731,252.1033,129.6393,252.2545Q128.0713,251.4385,126.81,250.05349999999999Q125.5488,248.6685,124.6173,246.8778Q123.6857,245.087,123.07849999999999,243.07150000000001L124.09,242.775ZM127.20349999999999,238.59225L128.4368,238.59225Q128.203,239.48325,127.926,240.4835Q127.6493,241.4835,127.3773,242.41025Q127.1053,243.337,126.875,244.027L125.6765,244.027Q125.9325,243.315,126.2093,242.377Q126.4863,241.439,126.752,240.44525Q127.0177,239.45125,127.20349999999999,238.59225ZM115.9823,248.1607Q115.9538,248.0407,115.8873,247.8418Q115.821,247.6427,115.7453,247.4265Q115.6698,247.21,115.6003,247.065Q115.8743,247.0142,116.1702,246.7307Q116.4662,246.4473,116.8468,245.9993Q117.0548,245.7752,117.4533,245.2712Q117.852,244.7673,118.3452,244.0632Q118.8385,243.35925,119.3445,242.54825Q119.8507,241.737,120.274,240.905L121.2843,241.513Q120.2935,243.1815,119.1348,244.7645Q117.9762,246.3475,116.7985,247.5315L116.7985,247.56Q116.7985,247.56,116.6782,247.6185Q116.55799999999999,247.67680000000001,116.3902,247.7685Q116.2225,247.86,116.1022,247.9627Q115.9823,248.0655,115.9823,248.1607ZM115.9823,248.1607L115.895,247.1477L116.4562,246.694L121.066,245.4115Q121.0695,245.635,121.0885,245.9347Q121.1077,246.2342,121.1362,246.4265Q119.54429999999999,246.9072,118.5775,247.202Q117.611,247.4967,117.0963,247.676Q116.5815,247.855,116.3455,247.95850000000002Q116.1095,248.062,115.9823,248.1607ZM115.8862,244.2377Q115.8577,244.1112,115.7882,243.90625Q115.719,243.701,115.64320000000001,243.4785Q115.5675,243.25575,115.498,243.1045Q115.7213,243.05375,115.9482,242.78775Q116.1755,242.5215,116.4412,242.118Q116.57900000000001,241.9065,116.8512,241.44825Q117.1238,240.99,117.45570000000001,240.356Q117.7878,239.72175,118.1213,238.99475Q118.455,238.26775,118.7118,237.54075L119.8185,238.06075Q119.3857,239.0605,118.8608,240.055Q118.336,241.0495,117.76650000000001,241.9545Q117.1973,242.85925,116.615,243.58625L116.615,243.61475000000002Q116.615,243.61475000000002,116.5072,243.678Q116.3997,243.74099999999999,116.2505,243.839Q116.1015,243.937,115.9937,244.0397Q115.8862,244.1425,115.8862,244.2377ZM115.8862,244.2377L115.8612,243.3405L116.4352,242.973L119.4352,242.65675Q119.3943,242.88375,119.366,243.171Q119.338,243.458,119.3415,243.64425Q118.3145,243.7765,117.6777,243.873Q117.041,243.96925,116.6855,244.0302Q116.33,244.091,116.1575,244.1372Q115.985,244.1835,115.8862,244.2377ZM115.67,250.0987Q116.358,249.8748,117.246,249.5615Q118.134,249.248,119.134,248.8853Q120.134,248.5225,121.1357,248.1517L121.3655,249.1927Q119.947,249.7545,118.5195,250.3055Q117.092,250.8563,115.9665,251.2803L115.67,250.0987ZM137.445,240.75575L138.5465,240.8855Q138.0542,243.88575,137.135,246.2762Q136.2158,248.66649999999998,134.6808,250.2665Q134.5928,250.175,134.4207,250.0502Q134.249,249.9255,134.0628,249.796Q133.8768,249.66649999999998,133.7443,249.597Q134.7663,248.6265,135.4883,247.2725Q136.2103,245.9182,136.689,244.2668Q137.168,242.61525,137.445,240.75575ZM141.9965,240.79125L143.0848,240.921Q142.6155,243.9755,141.6838,246.3832Q140.752,248.791,139.1728,250.3875Q139.0747,250.2957,138.8997,250.168Q138.72480000000002,250.0403,138.5467,249.9157Q138.3688,249.791,138.2298,249.7215Q139.2935,248.751,140.031,247.3955Q140.7687,246.04,141.249,244.3695Q141.7293,242.69875,141.9965,240.79125ZM134.10649999999998,242.431L134.8433,241.7585Q135.439,242.4615,136.05180000000001,243.25425Q136.6647,244.0467,137.239,244.846Q137.8133,245.6453,138.2928,246.377Q138.7723,247.1087,139.095,247.6962L138.311,248.4817Q137.99450000000002,247.8785,137.5163,247.1245Q137.038,246.3705,136.4668,245.5525Q135.8958,244.7345,135.29070000000002,243.9325Q134.686,243.1305,134.10649999999998,242.431ZM138.73,242.4345L139.508,241.8155Q140.13830000000002,242.56375,140.772,243.40975Q141.4058,244.2555,141.97899999999998,245.1205Q142.5522,245.9855,143.0215,246.791Q143.49099999999999,247.5965,143.7887,248.2605L142.94819999999999,248.9642Q142.6533,248.3003,142.1903,247.4775Q141.7272,246.6545,141.15699999999998,245.777Q140.58679999999998,244.8995,139.9673,244.0395Q139.3478,243.17925,138.73,242.4345ZM132.4128,238.51925L145.18200000000002,238.51925L145.18200000000002,239.667L133.6167,239.667L133.6167,252.244L132.4128,252.244L132.4128,238.51925ZM144.4385,238.51925L145.6423,238.51925L145.6423,250.67849999999999Q145.6423,251.255,145.4735,251.5632Q145.305,251.8717,144.9082,252.0268Q144.5213,252.1683,143.8423,252.206Q143.16320000000002,252.244,142.0672,252.2342Q142.0387,252.074,141.958,251.8565Q141.8775,251.6392,141.7892,251.4202Q141.7012,251.2013,141.60320000000002,251.0438Q142.13830000000002,251.066,142.637,251.07229999999998Q143.13569999999999,251.0785,143.506,251.0735Q143.8765,251.0685,144.0233,251.0685Q144.25,251.0525,144.3442,250.97129999999999Q144.4385,250.89,144.4385,250.6758L144.4385,238.51925ZM155.851,239.283L160.3675,239.283L160.3675,240.3335L155.851,240.3335L155.851,239.283ZM154.397,246.4107L161.1365,246.4107L161.1365,252.2378L159.9798,252.2378L159.9798,247.4487L155.5163,247.4487L155.5163,252.2955L154.397,252.2955L154.397,246.4107ZM154.8743,250.5308L160.597,250.5308L160.597,251.5875L154.8743,251.5875L154.8743,250.5308ZM156.316,237.53825L157.47,237.85Q157.04149999999998,238.915,156.4515,239.91075Q155.86180000000002,240.90625,155.171,241.758Q154.4803,242.6095,153.7477,243.25225Q153.6535,243.142,153.4798,242.98925Q153.3063,242.8365,153.1232,242.68525Q152.9403,242.53375,152.8015,242.4455Q153.909,241.5745,154.8338,240.28Q155.7588,238.98525,156.316,237.53825ZM160.039,239.283L160.2535,239.283L160.4717,239.23225L161.2215,239.592Q160.70600000000002,241.07575,159.8603,242.29725Q159.0145,243.5185,157.9403,244.481Q156.8662,245.4432,155.6395,246.1528Q154.4128,246.862,153.1415,247.3217Q153.031,247.101,152.8307,246.8095Q152.63049999999998,246.5177,152.4505,246.3477Q153.656,245.9735,154.8213,245.3287Q155.9865,244.6838,157.0103,243.8065Q158.0342,242.929,158.8167,241.84175Q159.5993,240.75425,160.039,239.485L160.039,239.283ZM155.7573,240.1175Q156.2595,241.23925,157.199,242.38675Q158.1385,243.534,159.5042,244.4815Q160.87,245.4287,162.6253,245.9645Q162.5088,246.081,162.36520000000002,246.2592Q162.222,246.4373,162.099,246.6248Q161.9762,246.8123,161.8845,246.9635Q160.1105,246.336,158.72899999999998,245.3153Q157.3478,244.2942,156.3862,243.077Q155.425,241.8595,154.882,240.67625L155.7573,240.1175ZM147.8317,240.99125L153.4515,240.99125L153.4515,242.12025L147.8317,242.12025L147.8317,240.99125ZM150.2327,237.55425L151.3705,237.55425L151.3705,252.2565L150.2327,252.2565L150.2327,237.55425ZM150.1908,241.70125L150.95,241.954Q150.7545,242.914,150.448,243.94774999999998Q150.1415,244.9815,149.7645,245.9705Q149.3877,246.9592,148.9567,247.8073Q148.5257,248.6552,148.0778,249.2598Q147.98250000000002,249.0238,147.7943,248.7183Q147.606,248.4128,147.4478,248.2052Q147.877,247.664,148.2875,246.909Q148.698,246.154,149.0655,245.2752Q149.433,244.3962,149.7202,243.482Q150.0078,242.5675,150.1908,241.70125ZM151.2967,242.7655Q151.4408,242.913,151.742,243.261Q152.0433,243.60875,152.38150000000002,244.0225Q152.7197,244.43619999999999,153.005,244.789Q153.2902,245.1418,153.4058,245.299L152.6875,246.2232Q152.5435,245.9618,152.2835,245.557Q152.0238,245.152,151.7202,244.7135Q151.4168,244.2747,151.1458,243.89075Q150.8747,243.50675,150.6987,243.2995L151.2967,242.7655Z" fill="#374151" fill-opacity="1" style="mix-blend-mode:passthrough"/></g><g><rect x="451" y="238" width="16" height="16" rx="0" fill="#000000" fill-opacity="0" style="mix-blend-mode:passthrough"/><g clip-path="url(#master_svg2_14_239)"><g transform="matrix(1,0,0,-1,0,502.6875)"><g><path d="M456.28125,251.625Q456.59375,251.34375,457,251.34375Q457.40625,251.34375,457.71875,251.625L463.7188,257.625Q464,257.9375,464,258.34375Q464,258.75,463.7188,259.0625Q463.4062,259.34375,463,259.34375Q462.5938,259.34375,462.2812,259.0625L457,253.75L451.71875,259.0625Q451.40625,259.34375,451,259.34375Q450.59375,259.34375,450.28125,259.0625Q450,258.75,450,258.34375Q450,257.9375,450.28125,257.625L456.28125,251.625Z" fill="#9CA3AF" fill-opacity="1" style="mix-blend-mode:passthrough"/></g></g></g></g></g><g><rect x="67" y="236" width="20" height="20" rx="10" fill="#000000" fill-opacity="0" style="mix-blend-mode:passthrough"/><rect x="68" y="237" width="18" height="18" rx="9" fill-opacity="0" stroke-opacity="1" stroke="#D1D5DB" fill="none" stroke-width="2" style="mix-blend-mode:passthrough"/></g></g><g clip-path="url(#master_svg3_14_5032)"><rect x="83" y="270" width="400" height="0.009999999776482582" rx="0" fill="#000000" fill-opacity="0" style="mix-blend-mode:passthrough"/><g><rect x="83" y="270" width="400" height="184" rx="0" fill="#000000" fill-opacity="0" style="mix-blend-mode:passthrough"/><g><rect x="83" y="286" width="400" height="48" rx="0" fill="#000000" fill-opacity="0" style="mix-blend-mode:passthrough"/><g><rect x="131" y="298" width="80.015625" height="24" rx="0" fill="#000000" fill-opacity="0" style="mix-blend-mode:passthrough"/><g><path d="M131.85475,305.46675L136.198,305.46675L136.198,306.57975L131.85475,306.57975L131.85475,305.46675ZM133.542,301.7455L134.66475,301.7455L134.66475,312.4718L133.542,312.4718L133.542,301.7455ZM131.658,312.9288Q132.52475,312.6532,133.743,312.2035Q134.9615,311.7537,136.2185,311.2863L136.43575,312.368Q135.2865,312.8348,134.141,313.2872Q132.99575,313.73969999999997,132.04625,314.1203L131.658,312.9288ZM137.3175,304.01125L146.242,304.01125L146.242,305.1215L137.3175,305.1215L137.3175,304.01125ZM137.5205,307.283L140.4725,307.283L140.4725,308.2997L137.5205,308.2997L137.5205,307.283ZM136.85875,304.01125L137.9815,304.01125L137.9815,309.0007Q137.9815,309.848,137.9065,310.8165Q137.8315,311.785,137.62525,312.7665Q137.419,313.748,137.0225,314.6597Q136.626,315.5713,135.98325,316.3205Q135.90125,316.20029999999997,135.7355,316.0567Q135.57,315.9135,135.4,315.7812Q135.23,315.649,135.09725,315.5798Q135.90425,314.6437,136.27575,313.5098Q136.64724999999999,312.3757,136.753,311.2037Q136.85875,310.0317,136.85875,308.9945L136.85875,304.01125ZM140.014,307.283L141.053,307.283Q141.053,307.283,141.053,307.46225Q141.053,307.6415,141.037,307.759Q141.02100000000002,309.597,140.981,310.7087Q140.941,311.8202,140.86275,312.3857Q140.7845,312.9513,140.628,313.1523Q140.46875,313.362,140.282,313.459Q140.09525,313.556,139.80725,313.5907Q139.56725,313.6158,139.1745,313.6173Q138.78175,313.6185,138.3525,313.599Q138.33025,313.3558,138.26075,313.0638Q138.19125,312.7717,138.06775,312.5795Q138.48325,312.6115,138.83,312.6195Q139.177,312.6275,139.31825,312.6275Q139.61675,312.6275,139.7315,312.4683Q139.82125,312.33050000000003,139.87575,311.8325Q139.9305,311.3342,139.96425,310.2865Q139.998,309.2385,140.014,307.47625L140.014,307.283ZM141.6748,301.548L142.826,301.548Q142.8135,303.43,142.8798,305.15Q142.946,306.87,143.0858,308.3717Q143.2258,309.8735,143.4253,311.0825Q143.6248,312.2913,143.8805,313.1652Q144.1363,314.0392,144.4453,314.507Q144.7545,314.9745,145.093,314.9745Q145.338,314.9745,145.4583,314.3512Q145.5788,313.7277,145.6243,312.3415Q145.7978,312.524,146.0553,312.6973Q146.313,312.8705,146.5215,312.9585Q146.4423,314.1542,146.27100000000002,314.8455Q146.0998,315.5365,145.7865,315.8248Q145.4735,316.1133,144.9513,316.1133Q144.3353,316.1133,143.8493,315.5788Q143.3635,315.04449999999997,143.0083,314.0642Q142.6533,313.084,142.4018,311.7372Q142.1503,310.3902,141.9978,308.7607Q141.8455,307.13125,141.768,305.30475Q141.6908,303.47825,141.6748,301.548ZM143.1408,302.183L143.9503,301.648Q144.4773,302.041,145.0303,302.55275Q145.5833,303.06425,145.87630000000001,303.45075L145.0135,304.056Q144.7425,303.64975,144.1988,303.12075Q143.6553,302.59175,143.1408,302.183ZM144.8633,306.9025L145.9673,307.1045Q145.18880000000001,310.1917,143.7643,312.474Q142.3398,314.7563,140.19575,316.2192Q140.114,316.109,139.95775,315.9495Q139.8015,315.7903,139.63575,315.634Q139.47025,315.4778,139.3375,315.3895Q141.4728,314.0788,142.8245,311.9202Q144.1763,309.7617,144.8633,306.9025ZM158.698,304.3575L159.8263,304.80475Q158.7925,306.57325,157.4618,308.1785Q156.131,309.7835,154.6305,311.1407Q153.13,312.4977,151.571,313.5305Q151.46699999999998,313.4075,151.2983,313.2343Q151.1295,313.061,150.94650000000001,312.8892Q150.7635,312.7175,150.615,312.6167Q152.2122,311.6632,153.7038,310.3722Q155.1953,309.081,156.4772,307.545Q157.7595,306.00875,158.698,304.3575ZM151.14249999999998,305.644L152.0007,304.93875Q153.0778,305.805,154.251,306.81425Q155.4243,307.82325,156.5648,308.8687Q157.7052,309.9142,158.679,310.8842Q159.653,311.8542,160.32150000000001,312.6523L159.3528,313.5278Q158.7288,312.7295,157.7785,311.7422Q156.8283,310.755,155.7033,309.6842Q154.5785,308.6132,153.4083,307.57425Q152.2383,306.53525,151.14249999999998,305.644ZM161.827,302.42575L161.827,303.586L149.7337,303.586L149.7337,314.6483L162.2358,314.6483L162.2358,315.7987L148.5548,315.7987L148.5548,302.42575L161.827,302.42575ZM169.445,304.75575L170.5465,304.8855Q170.0542,307.88575,169.135,310.2762Q168.2158,312.6665,166.6808,314.2665Q166.5928,314.175,166.4207,314.0502Q166.249,313.9255,166.0628,313.796Q165.8768,313.6665,165.7443,313.597Q166.7663,312.6265,167.4883,311.2725Q168.2103,309.9182,168.689,308.2668Q169.168,306.61525,169.445,304.75575ZM173.9965,304.79125L175.0848,304.921Q174.6155,307.9755,173.6838,310.3832Q172.752,312.791,171.1728,314.3875Q171.0747,314.2957,170.8997,314.168Q170.72480000000002,314.0403,170.5467,313.9157Q170.3688,313.791,170.2298,313.7215Q171.2935,312.751,172.031,311.3955Q172.7687,310.04,173.249,308.3695Q173.7293,306.69875,173.9965,304.79125ZM166.10649999999998,306.431L166.8433,305.7585Q167.439,306.4615,168.05180000000001,307.25425Q168.6647,308.0467,169.239,308.846Q169.8133,309.6453,170.2928,310.377Q170.7723,311.1087,171.095,311.6962L170.311,312.4817Q169.99450000000002,311.8785,169.5163,311.1245Q169.038,310.3705,168.4668,309.5525Q167.8958,308.7345,167.29070000000002,307.9325Q166.686,307.1305,166.10649999999998,306.431ZM170.73,306.4345L171.508,305.8155Q172.13830000000002,306.56375,172.772,307.40975Q173.4058,308.2555,173.97899999999998,309.1205Q174.5522,309.9855,175.0215,310.791Q175.49099999999999,311.5965,175.7887,312.2605L174.94819999999999,312.9642Q174.6533,312.3003,174.1903,311.4775Q173.7272,310.6545,173.15699999999998,309.777Q172.58679999999998,308.8995,171.9673,308.0395Q171.3478,307.17925,170.73,306.4345ZM164.4128,302.51925L177.18200000000002,302.51925L177.18200000000002,303.667L165.6167,303.667L165.6167,316.244L164.4128,316.244L164.4128,302.51925ZM176.4385,302.51925L177.6423,302.51925L177.6423,314.6785Q177.6423,315.255,177.4735,315.5632Q177.305,315.8717,176.9082,316.0268Q176.5213,316.1683,175.8423,316.206Q175.16320000000002,316.244,174.0672,316.2342Q174.0387,316.074,173.958,315.8565Q173.8775,315.6392,173.7892,315.4202Q173.7012,315.2013,173.60320000000002,315.0438Q174.13830000000002,315.066,174.637,315.0723Q175.13569999999999,315.0785,175.506,315.0735Q175.8765,315.0685,176.0233,315.0685Q176.25,315.0525,176.3442,314.9713Q176.4385,314.89,176.4385,314.6758L176.4385,302.51925ZM187.851,303.283L192.3675,303.283L192.3675,304.3335L187.851,304.3335L187.851,303.283ZM186.397,310.4107L193.1365,310.4107L193.1365,316.2378L191.9798,316.2378L191.9798,311.4487L187.5163,311.4487L187.5163,316.2955L186.397,316.2955L186.397,310.4107ZM186.8743,314.5308L192.597,314.5308L192.597,315.5875L186.8743,315.5875L186.8743,314.5308ZM188.316,301.53825L189.47,301.85Q189.04149999999998,302.915,188.4515,303.91075Q187.86180000000002,304.90625,187.171,305.758Q186.4803,306.6095,185.7477,307.25225Q185.6535,307.142,185.4798,306.98925Q185.3063,306.8365,185.1232,306.68525Q184.9403,306.53375,184.8015,306.4455Q185.909,305.5745,186.8338,304.28Q187.7588,302.98525,188.316,301.53825ZM192.039,303.283L192.2535,303.283L192.4717,303.23225L193.2215,303.592Q192.70600000000002,305.07575,191.8603,306.29725Q191.0145,307.5185,189.9403,308.481Q188.8662,309.4432,187.6395,310.1528Q186.4128,310.862,185.1415,311.3217Q185.031,311.101,184.8307,310.8095Q184.63049999999998,310.5177,184.4505,310.3477Q185.656,309.9735,186.8213,309.3287Q187.9865,308.6838,189.0103,307.8065Q190.0342,306.929,190.8167,305.84175Q191.5993,304.75425,192.039,303.485L192.039,303.283ZM187.7573,304.1175Q188.2595,305.23925,189.199,306.38675Q190.1385,307.534,191.5042,308.4815Q192.87,309.4287,194.6253,309.9645Q194.5088,310.081,194.36520000000002,310.2592Q194.222,310.4373,194.099,310.6248Q193.9762,310.8123,193.8845,310.9635Q192.1105,310.336,190.72899999999998,309.3153Q189.3478,308.2942,188.3862,307.077Q187.425,305.8595,186.882,304.67625L187.7573,304.1175ZM179.8317,304.99125L185.4515,304.99125L185.4515,306.12025L179.8317,306.12025L179.8317,304.99125ZM182.2327,301.55425L183.3705,301.55425L183.3705,316.2565L182.2327,316.2565L182.2327,301.55425ZM182.1908,305.70125L182.95,305.954Q182.7545,306.914,182.448,307.94775Q182.1415,308.9815,181.7645,309.9705Q181.3877,310.9592,180.9567,311.8073Q180.5257,312.6552,180.0778,313.2598Q179.98250000000002,313.0238,179.7943,312.7183Q179.606,312.4128,179.4478,312.2052Q179.877,311.664,180.2875,310.909Q180.698,310.154,181.0655,309.2752Q181.433,308.3962,181.7202,307.48199999999997Q182.0078,306.5675,182.1908,305.70125ZM183.2967,306.7655Q183.4408,306.913,183.742,307.261Q184.0433,307.60875,184.38150000000002,308.0225Q184.7197,308.4362,185.005,308.789Q185.2902,309.1418,185.4058,309.299L184.6875,310.2232Q184.5435,309.9618,184.2835,309.557Q184.0238,309.152,183.7202,308.7135Q183.4168,308.2747,183.1458,307.89075Q182.8747,307.50675,182.6987,307.2995L183.2967,306.7655ZM195.7065,308.101L210.35500000000002,308.101L210.35500000000002,309.4152L195.7065,309.4152L195.7065,308.101Z" fill="#374151" fill-opacity="1" style="mix-blend-mode:passthrough"/></g></g><g><rect x="99" y="300" width="20" height="20" rx="10" fill="#000000" fill-opacity="0" style="mix-blend-mode:passthrough"/><rect x="100" y="301" width="18" height="18" rx="9" fill-opacity="0" stroke-opacity="1" stroke="#D1D5DB" fill="none" stroke-width="2" style="mix-blend-mode:passthrough"/></g></g><g><rect x="83" y="342" width="400" height="48" rx="0" fill="#000000" fill-opacity="0" style="mix-blend-mode:passthrough"/><g><rect x="131" y="354" width="80.015625" height="24" rx="0" fill="#000000" fill-opacity="0" style="mix-blend-mode:passthrough"/><g><path d="M131.85475,361.46675L136.198,361.46675L136.198,362.57975L131.85475,362.57975L131.85475,361.46675ZM133.542,357.7455L134.66475,357.7455L134.66475,368.4718L133.542,368.4718L133.542,357.7455ZM131.658,368.9288Q132.52475,368.6532,133.743,368.2035Q134.9615,367.7537,136.2185,367.2863L136.43575,368.368Q135.2865,368.8348,134.141,369.2872Q132.99575,369.73969999999997,132.04625,370.1203L131.658,368.9288ZM137.3175,360.01125L146.242,360.01125L146.242,361.1215L137.3175,361.1215L137.3175,360.01125ZM137.5205,363.283L140.4725,363.283L140.4725,364.2997L137.5205,364.2997L137.5205,363.283ZM136.85875,360.01125L137.9815,360.01125L137.9815,365.0007Q137.9815,365.848,137.9065,366.8165Q137.8315,367.785,137.62525,368.7665Q137.419,369.748,137.0225,370.6597Q136.626,371.5713,135.98325,372.3205Q135.90125,372.20029999999997,135.7355,372.0567Q135.57,371.9135,135.4,371.7812Q135.23,371.649,135.09725,371.5798Q135.90425,370.6437,136.27575,369.5098Q136.64724999999999,368.3757,136.753,367.2037Q136.85875,366.0317,136.85875,364.9945L136.85875,360.01125ZM140.014,363.283L141.053,363.283Q141.053,363.283,141.053,363.46225Q141.053,363.6415,141.037,363.759Q141.02100000000002,365.597,140.981,366.7087Q140.941,367.8202,140.86275,368.3857Q140.7845,368.9513,140.628,369.1523Q140.46875,369.362,140.282,369.459Q140.09525,369.556,139.80725,369.5907Q139.56725,369.6158,139.1745,369.6173Q138.78175,369.6185,138.3525,369.599Q138.33025,369.3558,138.26075,369.0638Q138.19125,368.7717,138.06775,368.5795Q138.48325,368.6115,138.83,368.6195Q139.177,368.6275,139.31825,368.6275Q139.61675,368.6275,139.7315,368.4683Q139.82125,368.33050000000003,139.87575,367.8325Q139.9305,367.3342,139.96425,366.2865Q139.998,365.2385,140.014,363.47625L140.014,363.283ZM141.6748,357.548L142.826,357.548Q142.8135,359.43,142.8798,361.15Q142.946,362.87,143.0858,364.3717Q143.2258,365.8735,143.4253,367.0825Q143.6248,368.2913,143.8805,369.1652Q144.1363,370.0392,144.4453,370.507Q144.7545,370.9745,145.093,370.9745Q145.338,370.9745,145.4583,370.3512Q145.5788,369.7277,145.6243,368.3415Q145.7978,368.524,146.0553,368.6973Q146.313,368.8705,146.5215,368.9585Q146.4423,370.1542,146.27100000000002,370.8455Q146.0998,371.5365,145.7865,371.8248Q145.4735,372.1133,144.9513,372.1133Q144.3353,372.1133,143.8493,371.5788Q143.3635,371.04449999999997,143.0083,370.0642Q142.6533,369.084,142.4018,367.7372Q142.1503,366.3902,141.9978,364.7607Q141.8455,363.13125,141.768,361.30475Q141.6908,359.47825,141.6748,357.548ZM143.1408,358.183L143.9503,357.648Q144.4773,358.041,145.0303,358.55275Q145.5833,359.06425,145.87630000000001,359.45075L145.0135,360.056Q144.7425,359.64975,144.1988,359.12075Q143.6553,358.59175,143.1408,358.183ZM144.8633,362.9025L145.9673,363.1045Q145.18880000000001,366.1917,143.7643,368.474Q142.3398,370.7563,140.19575,372.2192Q140.114,372.109,139.95775,371.9495Q139.8015,371.7903,139.63575,371.634Q139.47025,371.4778,139.3375,371.3895Q141.4728,370.0788,142.8245,367.9202Q144.1763,365.7617,144.8633,362.9025ZM158.698,360.3575L159.8263,360.80475Q158.7925,362.57325,157.4618,364.1785Q156.131,365.7835,154.6305,367.1407Q153.13,368.4977,151.571,369.5305Q151.46699999999998,369.4075,151.2983,369.2343Q151.1295,369.061,150.94650000000001,368.8892Q150.7635,368.7175,150.615,368.6167Q152.2122,367.6632,153.7038,366.3722Q155.1953,365.081,156.4772,363.545Q157.7595,362.00875,158.698,360.3575ZM151.14249999999998,361.644L152.0007,360.93875Q153.0778,361.805,154.251,362.81425Q155.4243,363.82325,156.5648,364.8687Q157.7052,365.9142,158.679,366.8842Q159.653,367.8542,160.32150000000001,368.6523L159.3528,369.5278Q158.7288,368.7295,157.7785,367.7422Q156.8283,366.755,155.7033,365.6842Q154.5785,364.6132,153.4083,363.57425Q152.2383,362.53525,151.14249999999998,361.644ZM161.827,358.42575L161.827,359.586L149.7337,359.586L149.7337,370.6483L162.2358,370.6483L162.2358,371.7987L148.5548,371.7987L148.5548,358.42575L161.827,358.42575ZM169.445,360.75575L170.5465,360.8855Q170.0542,363.88575,169.135,366.2762Q168.2158,368.6665,166.6808,370.2665Q166.5928,370.175,166.4207,370.0502Q166.249,369.9255,166.0628,369.796Q165.8768,369.6665,165.7443,369.597Q166.7663,368.6265,167.4883,367.2725Q168.2103,365.9182,168.689,364.2668Q169.168,362.61525,169.445,360.75575ZM173.9965,360.79125L175.0848,360.921Q174.6155,363.9755,173.6838,366.3832Q172.752,368.791,171.1728,370.3875Q171.0747,370.2957,170.8997,370.168Q170.72480000000002,370.0403,170.5467,369.9157Q170.3688,369.791,170.2298,369.7215Q171.2935,368.751,172.031,367.3955Q172.7687,366.04,173.249,364.3695Q173.7293,362.69875,173.9965,360.79125ZM166.10649999999998,362.431L166.8433,361.7585Q167.439,362.4615,168.05180000000001,363.25425Q168.6647,364.0467,169.239,364.846Q169.8133,365.6453,170.2928,366.377Q170.7723,367.1087,171.095,367.6962L170.311,368.4817Q169.99450000000002,367.8785,169.5163,367.1245Q169.038,366.3705,168.4668,365.5525Q167.8958,364.7345,167.29070000000002,363.9325Q166.686,363.1305,166.10649999999998,362.431ZM170.73,362.4345L171.508,361.8155Q172.13830000000002,362.56375,172.772,363.40975Q173.4058,364.2555,173.97899999999998,365.1205Q174.5522,365.9855,175.0215,366.791Q175.49099999999999,367.5965,175.7887,368.2605L174.94819999999999,368.9642Q174.6533,368.3003,174.1903,367.4775Q173.7272,366.6545,173.15699999999998,365.777Q172.58679999999998,364.8995,171.9673,364.0395Q171.3478,363.17925,170.73,362.4345ZM164.4128,358.51925L177.18200000000002,358.51925L177.18200000000002,359.667L165.6167,359.667L165.6167,372.244L164.4128,372.244L164.4128,358.51925ZM176.4385,358.51925L177.6423,358.51925L177.6423,370.6785Q177.6423,371.255,177.4735,371.5632Q177.305,371.8717,176.9082,372.0268Q176.5213,372.1683,175.8423,372.206Q175.16320000000002,372.244,174.0672,372.2342Q174.0387,372.074,173.958,371.8565Q173.8775,371.6392,173.7892,371.4202Q173.7012,371.2013,173.60320000000002,371.0438Q174.13830000000002,371.066,174.637,371.0723Q175.13569999999999,371.0785,175.506,371.0735Q175.8765,371.0685,176.0233,371.0685Q176.25,371.0525,176.3442,370.9713Q176.4385,370.89,176.4385,370.6758L176.4385,358.51925ZM187.851,359.283L192.3675,359.283L192.3675,360.3335L187.851,360.3335L187.851,359.283ZM186.397,366.4107L193.1365,366.4107L193.1365,372.2378L191.9798,372.2378L191.9798,367.4487L187.5163,367.4487L187.5163,372.2955L186.397,372.2955L186.397,366.4107ZM186.8743,370.5308L192.597,370.5308L192.597,371.5875L186.8743,371.5875L186.8743,370.5308ZM188.316,357.53825L189.47,357.85Q189.04149999999998,358.915,188.4515,359.91075Q187.86180000000002,360.90625,187.171,361.758Q186.4803,362.6095,185.7477,363.25225Q185.6535,363.142,185.4798,362.98925Q185.3063,362.8365,185.1232,362.68525Q184.9403,362.53375,184.8015,362.4455Q185.909,361.5745,186.8338,360.28Q187.7588,358.98525,188.316,357.53825ZM192.039,359.283L192.2535,359.283L192.4717,359.23225L193.2215,359.592Q192.70600000000002,361.07575,191.8603,362.29725Q191.0145,363.5185,189.9403,364.481Q188.8662,365.4432,187.6395,366.1528Q186.4128,366.862,185.1415,367.3217Q185.031,367.101,184.8307,366.8095Q184.63049999999998,366.5177,184.4505,366.3477Q185.656,365.9735,186.8213,365.3287Q187.9865,364.6838,189.0103,363.8065Q190.0342,362.929,190.8167,361.84175Q191.5993,360.75425,192.039,359.485L192.039,359.283ZM187.7573,360.1175Q188.2595,361.23925,189.199,362.38675Q190.1385,363.534,191.5042,364.4815Q192.87,365.4287,194.6253,365.9645Q194.5088,366.081,194.36520000000002,366.2592Q194.222,366.4373,194.099,366.6248Q193.9762,366.8123,193.8845,366.9635Q192.1105,366.336,190.72899999999998,365.3153Q189.3478,364.2942,188.3862,363.077Q187.425,361.8595,186.882,360.67625L187.7573,360.1175ZM179.8317,360.99125L185.4515,360.99125L185.4515,362.12025L179.8317,362.12025L179.8317,360.99125ZM182.2327,357.55425L183.3705,357.55425L183.3705,372.2565L182.2327,372.2565L182.2327,357.55425ZM182.1908,361.70125L182.95,361.954Q182.7545,362.914,182.448,363.94775Q182.1415,364.9815,181.7645,365.9705Q181.3877,366.9592,180.9567,367.8073Q180.5257,368.6552,180.0778,369.2598Q179.98250000000002,369.0238,179.7943,368.7183Q179.606,368.4128,179.4478,368.2052Q179.877,367.664,180.2875,366.909Q180.698,366.154,181.0655,365.2752Q181.433,364.3962,181.7202,363.48199999999997Q182.0078,362.5675,182.1908,361.70125ZM183.2967,362.7655Q183.4408,362.913,183.742,363.261Q184.0433,363.60875,184.38150000000002,364.0225Q184.7197,364.4362,185.005,364.789Q185.2902,365.1418,185.4058,365.299L184.6875,366.2232Q184.5435,365.9618,184.2835,365.557Q184.0238,365.152,183.7202,364.7135Q183.4168,364.2747,183.1458,363.89075Q182.8747,363.50675,182.6987,363.2995L183.2967,362.7655ZM197.2637,359.85075L208.7585,359.85075L208.7585,361.1385L197.2637,361.1385L197.2637,359.85075ZM195.9065,369.341L210.11579999999998,369.341L210.11579999999998,370.682L195.9065,370.682L195.9065,369.341Z" fill="#374151" fill-opacity="1" style="mix-blend-mode:passthrough"/></g></g><g><rect x="99" y="356" width="20" height="20" rx="10" fill="#000000" fill-opacity="0" style="mix-blend-mode:passthrough"/><rect x="100" y="357" width="18" height="18" rx="9" fill-opacity="0" stroke-opacity="1" stroke="#D1D5DB" fill="none" stroke-width="2" style="mix-blend-mode:passthrough"/></g></g><g><rect x="83" y="398" width="400" height="48" rx="0" fill="#000000" fill-opacity="0" style="mix-blend-mode:passthrough"/><g><rect x="131" y="410" width="80.015625" height="24" rx="0" fill="#000000" fill-opacity="0" style="mix-blend-mode:passthrough"/><g><path d="M140.72625,414.40475L145.2278,414.40475L145.2278,415.474L141.849,415.474L141.849,428.2795L140.72625,428.2795L140.72625,414.40475ZM144.8785,414.40475L145.1118,414.40475L145.3015,414.354L146.1518,414.89625Q145.6745,416.01175,145.073,417.28875Q144.4715,418.5655,143.9,419.665Q144.7248,420.4177,145.168,421.0965Q145.6113,421.775,145.7818,422.3818Q145.9525,422.9882,145.9525,423.5553Q145.9525,424.265,145.766,424.8127Q145.5798,425.3605,145.1363,425.638Q144.929,425.775,144.6508,425.8595Q144.3725,425.9438,144.0658,425.9722Q143.722,426.0042,143.3093,426.0058Q142.8965,426.007,142.5153,425.9812Q142.4993,425.7515,142.412,425.4172Q142.3248,425.0828,142.1603,424.8335Q142.566,424.869,142.9418,424.877Q143.3175,424.885,143.5945,424.8655Q143.7998,424.8558,143.9908,424.814Q144.182,424.7723,144.3393,424.6922Q144.6058,424.5413,144.7053,424.2037Q144.8048,423.866,144.8048,423.443Q144.8048,422.686,144.3485,421.7937Q143.8923,420.9012,142.6688,419.826Q142.9808,419.20125,143.292,418.5155Q143.6035,417.8295,143.897,417.14725Q144.1908,416.465,144.4413,415.8495Q144.692,415.23375,144.8785,414.7655L144.8785,414.40475ZM136.89724999999999,417.8505L137.718,417.2585Q138.13675,417.73225,138.57725,418.28575Q139.018,418.839,139.3945,419.3715Q139.77100000000002,419.90375,139.99775,420.3127L139.1235,421.0225Q138.919,420.5975,138.54675,420.0427Q138.17475,419.488,137.74525,418.9125Q137.316,418.33675,136.89724999999999,417.8505ZM134.0445,417.3075L135.04075,417.64775Q134.70825,418.29325,134.27875,418.961Q133.8495,419.6285,133.38175,420.2358Q132.914,420.843,132.46075,421.3095Q132.3975,421.2027,132.27425,421.0312Q132.151,420.8597,132.01325,420.6932Q131.87575,420.5267,131.762,420.426Q132.4055,419.82,133.01025,418.98199999999997Q133.61525,418.14375,134.0445,417.3075ZM132.08025,415.88275L139.98275,415.88275L139.98275,416.9585L132.08025,416.9585L132.08025,415.88275ZM137.08575,420.15L138.196,420.427Q137.47325,422.854,136.0485,424.7847Q134.62375,426.7153,132.4975,428.0088Q132.422,427.8857,132.27675,427.7315Q132.13175,427.5775,131.9755,427.4217Q131.81925,427.266,131.6865,427.1777Q133.72175,425.9975,135.098,424.1823Q136.47425,422.3667,137.08575,420.15ZM134.88875,413.98925L135.918,413.57525Q136.24875,414.033,136.55825,414.587Q136.868,415.14075,137.02175,415.54075L135.93175,416.03375Q135.7905,415.61775,135.48575,415.0435Q135.181,414.46925,134.88875,413.98925ZM133.425,421.511L134.1445,420.755Q134.77825,421.3407,135.4565,422.0225Q136.13475,422.7043,136.77925,423.3923Q137.42375,424.0802,137.961,424.72Q138.4985,425.3595,138.84425,425.8708L138.06875,426.7752Q137.71925,426.2385,137.19125,425.5798Q136.66325,424.921,136.028,424.2125Q135.393,423.504,134.72575,422.8067Q134.05875,422.1092,133.425,421.511ZM158.698,416.3575L159.8263,416.80475Q158.7925,418.57325,157.4618,420.1785Q156.131,421.7835,154.6305,423.1407Q153.13,424.4977,151.571,425.5305Q151.46699999999998,425.4075,151.2983,425.2343Q151.1295,425.061,150.94650000000001,424.8892Q150.7635,424.7175,150.615,424.6167Q152.2122,423.6632,153.7038,422.3722Q155.1953,421.081,156.4772,419.545Q157.7595,418.00875,158.698,416.3575ZM151.14249999999998,417.644L152.0007,416.93875Q153.0778,417.805,154.251,418.81425Q155.4243,419.82325,156.5648,420.8687Q157.7052,421.9142,158.679,422.8842Q159.653,423.8542,160.32150000000001,424.6523L159.3528,425.5278Q158.7288,424.7295,157.7785,423.7422Q156.8283,422.755,155.7033,421.6842Q154.5785,420.6132,153.4083,419.57425Q152.2383,418.53525,151.14249999999998,417.644ZM161.827,414.42575L161.827,415.586L149.7337,415.586L149.7337,426.6483L162.2358,426.6483L162.2358,427.7987L148.5548,427.7987L148.5548,414.42575L161.827,414.42575ZM169.445,416.75575L170.5465,416.8855Q170.0542,419.88575,169.135,422.2762Q168.2158,424.6665,166.6808,426.2665Q166.5928,426.175,166.4207,426.0502Q166.249,425.9255,166.0628,425.796Q165.8768,425.6665,165.7443,425.597Q166.7663,424.6265,167.4883,423.2725Q168.2103,421.9182,168.689,420.2668Q169.168,418.61525,169.445,416.75575ZM173.9965,416.79125L175.0848,416.921Q174.6155,419.9755,173.6838,422.3832Q172.752,424.791,171.1728,426.3875Q171.0747,426.2957,170.8997,426.168Q170.72480000000002,426.0403,170.5467,425.9157Q170.3688,425.791,170.2298,425.7215Q171.2935,424.751,172.031,423.3955Q172.7687,422.04,173.249,420.3695Q173.7293,418.69875,173.9965,416.79125ZM166.10649999999998,418.431L166.8433,417.7585Q167.439,418.4615,168.05180000000001,419.25425Q168.6647,420.0467,169.239,420.846Q169.8133,421.6453,170.2928,422.377Q170.7723,423.1087,171.095,423.6962L170.311,424.4817Q169.99450000000002,423.8785,169.5163,423.1245Q169.038,422.3705,168.4668,421.5525Q167.8958,420.7345,167.29070000000002,419.9325Q166.686,419.1305,166.10649999999998,418.431ZM170.73,418.4345L171.508,417.8155Q172.13830000000002,418.56375,172.772,419.40975Q173.4058,420.2555,173.97899999999998,421.1205Q174.5522,421.9855,175.0215,422.791Q175.49099999999999,423.5965,175.7887,424.2605L174.94819999999999,424.9642Q174.6533,424.3003,174.1903,423.4775Q173.7272,422.6545,173.15699999999998,421.777Q172.58679999999998,420.8995,171.9673,420.0395Q171.3478,419.17925,170.73,418.4345ZM164.4128,414.51925L177.18200000000002,414.51925L177.18200000000002,415.667L165.6167,415.667L165.6167,428.244L164.4128,428.244L164.4128,414.51925ZM176.4385,414.51925L177.6423,414.51925L177.6423,426.6785Q177.6423,427.255,177.4735,427.5632Q177.305,427.8717,176.9082,428.0268Q176.5213,428.1683,175.8423,428.206Q175.16320000000002,428.244,174.0672,428.2342Q174.0387,428.074,173.958,427.8565Q173.8775,427.6392,173.7892,427.4202Q173.7012,427.2013,173.60320000000002,427.0438Q174.13830000000002,427.066,174.637,427.0723Q175.13569999999999,427.0785,175.506,427.0735Q175.8765,427.0685,176.0233,427.0685Q176.25,427.0525,176.3442,426.9713Q176.4385,426.89,176.4385,426.6758L176.4385,414.51925ZM187.851,415.283L192.3675,415.283L192.3675,416.3335L187.851,416.3335L187.851,415.283ZM186.397,422.4107L193.1365,422.4107L193.1365,428.2378L191.9798,428.2378L191.9798,423.4487L187.5163,423.4487L187.5163,428.2955L186.397,428.2955L186.397,422.4107ZM186.8743,426.5308L192.597,426.5308L192.597,427.5875L186.8743,427.5875L186.8743,426.5308ZM188.316,413.53825L189.47,413.85Q189.04149999999998,414.915,188.4515,415.91075Q187.86180000000002,416.90625,187.171,417.758Q186.4803,418.6095,185.7477,419.25225Q185.6535,419.142,185.4798,418.98925Q185.3063,418.8365,185.1232,418.68525Q184.9403,418.53375,184.8015,418.4455Q185.909,417.5745,186.8338,416.28Q187.7588,414.98525,188.316,413.53825ZM192.039,415.283L192.2535,415.283L192.4717,415.23225L193.2215,415.592Q192.70600000000002,417.07575,191.8603,418.29725Q191.0145,419.5185,189.9403,420.481Q188.8662,421.4432,187.6395,422.1528Q186.4128,422.862,185.1415,423.3217Q185.031,423.101,184.8307,422.8095Q184.63049999999998,422.5177,184.4505,422.3477Q185.656,421.9735,186.8213,421.3287Q187.9865,420.6838,189.0103,419.8065Q190.0342,418.929,190.8167,417.84175Q191.5993,416.75425,192.039,415.485L192.039,415.283ZM187.7573,416.1175Q188.2595,417.23925,189.199,418.38675Q190.1385,419.534,191.5042,420.4815Q192.87,421.4287,194.6253,421.9645Q194.5088,422.081,194.36520000000002,422.2592Q194.222,422.4373,194.099,422.6248Q193.9762,422.8123,193.8845,422.9635Q192.1105,422.336,190.72899999999998,421.3153Q189.3478,420.2942,188.3862,419.077Q187.425,417.8595,186.882,416.67625L187.7573,416.1175ZM179.8317,416.99125L185.4515,416.99125L185.4515,418.12025L179.8317,418.12025L179.8317,416.99125ZM182.2327,413.55425L183.3705,413.55425L183.3705,428.2565L182.2327,428.2565L182.2327,413.55425ZM182.1908,417.70125L182.95,417.954Q182.7545,418.914,182.448,419.94775Q182.1415,420.9815,181.7645,421.9705Q181.3877,422.9592,180.9567,423.8073Q180.5257,424.6552,180.0778,425.2598Q179.98250000000002,425.0238,179.7943,424.7183Q179.606,424.4128,179.4478,424.2052Q179.877,423.664,180.2875,422.909Q180.698,422.154,181.0655,421.2752Q181.433,420.3962,181.7202,419.48199999999997Q182.0078,418.5675,182.1908,417.70125ZM183.2967,418.7655Q183.4408,418.913,183.742,419.261Q184.0433,419.60875,184.38150000000002,420.0225Q184.7197,420.4362,185.005,420.789Q185.2902,421.1418,185.4058,421.299L184.6875,422.2232Q184.5435,421.9618,184.2835,421.557Q184.0238,421.152,183.7202,420.7135Q183.4168,420.2747,183.1458,419.89075Q182.8747,419.50675,182.6987,419.2995L183.2967,418.7655ZM195.7065,420.101L210.35500000000002,420.101L210.35500000000002,421.4152L195.7065,421.4152L195.7065,420.101Z" fill="#374151" fill-opacity="1" style="mix-blend-mode:passthrough"/></g></g><g><rect x="99" y="412" width="20" height="20" rx="10" fill="#000000" fill-opacity="0" style="mix-blend-mode:passthrough"/><rect x="100" y="413" width="18" height="18" rx="9" fill-opacity="0" stroke-opacity="1" stroke="#D1D5DB" fill="none" stroke-width="2" style="mix-blend-mode:passthrough"/></g></g></g></g></g></g></g><g><rect x="27" y="294" width="480" height="75" rx="0" fill="#000000" fill-opacity="0" style="mix-blend-mode:passthrough"/><path d="M507,294L27,294L27,295L507,295L507,294Z" fill-rule="evenodd" fill="#E5E7EB" fill-opacity="1" style="mix-blend-mode:passthrough"/><g><rect x="51" y="311" width="82.015625" height="42" rx="4" fill="#000000" fill-opacity="0" style="mix-blend-mode:passthrough"/><rect x="51.5" y="311.5" width="81.015625" height="41" rx="3.5" fill-opacity="0" stroke-opacity="1" stroke="#D1D5DB" fill="none" stroke-width="1" style="mix-blend-mode:passthrough"/><g><path d="M84.0988125,324.85925L90.0996125,324.85925L90.0996125,326.00075L84.0988125,326.00075L84.0988125,324.85925ZM89.7303125,324.85925L89.9226125,324.85925L90.1308125,324.81475L90.8778125,325.01675Q90.4826125,328.22075,89.5778125,330.6868Q88.6733125,333.1525,87.3688125,334.9082Q86.0646125,336.6637,84.4588125,337.7787Q84.3198125,337.5678,84.0940625,337.29970000000003Q83.8685625,337.0317,83.6760625,336.874Q85.1625625,335.9328,86.4011125,334.267Q87.6396125,332.6012,88.5063125,330.29Q89.3731125,327.9785,89.7303125,325.13425L89.7303125,324.85925ZM85.9200625,325.67675Q86.2916125,328.17225,86.9818125,330.3328Q87.6721125,332.493,88.7723125,334.1333Q89.8726125,335.7735,91.4813125,336.721Q91.3486125,336.82529999999997,91.1891125,336.989Q91.0298125,337.153,90.8846125,337.331Q90.73961249999999,337.509,90.6418125,337.6605Q88.9768125,336.5767,87.8418125,334.8405Q86.7068125,333.104,86.0010625,330.8287Q85.2953125,328.55325,84.8668125,325.847L85.9200625,325.67675ZM76.7703125,323.81575L84.0425625,323.81575L84.0425625,324.90375L76.7703125,324.90375L76.7703125,323.81575ZM78.4775625,327.133L82.4773125,327.133L82.4773125,328.18725L78.4775625,328.18725L78.4775625,327.133ZM78.4713125,330.4993L82.5270625,330.4993L82.5270625,331.5535L78.4713125,331.5535L78.4713125,330.4993ZM77.8505625,324.4035L79.0010625,324.4035L79.0010625,334.6823L77.8505625,334.815L77.8505625,324.4035ZM76.6208125,334.4148Q77.5640625,334.2832,78.8095625,334.094Q80.0550625,333.9047,81.4523125,333.6803Q82.8498125,333.4557,84.2348125,333.2345L84.2980625,334.2533Q82.9895625,334.503,81.6618125,334.7448Q80.3343125,334.9865,79.1173125,335.1945Q77.9005625,335.4025,76.8933125,335.5785L76.6208125,334.4148ZM81.6963125,324.391L82.8750625,324.391L82.8750625,337.7537L81.6963125,337.7537L81.6963125,324.391ZM98.8481125,330.4615L105.7028125,330.4615L105.7028125,331.5092L98.8481125,331.5092L98.8481125,330.4615ZM98.8091125,333.2448L105.7028125,333.2448L105.7028125,334.2828L98.8091125,334.2828L98.8091125,333.2448ZM105.8121125,323.501L106.97161249999999,323.963Q106.5548125,324.75875,106.0651125,325.57825Q105.5756125,326.39775,105.1418125,326.987L104.1248125,326.5535Q104.4075125,326.1375,104.7223125,325.61275Q105.0373125,325.08775,105.3313125,324.52775Q105.6256125,323.96775,105.8121125,323.501ZM97.6271125,324.04425L98.6386125,323.59Q98.9816125,324.0415,99.3196125,324.57Q99.6578125,325.0985,99.9223125,325.60925Q100.1868125,326.11975,100.3183125,326.53575L99.2408125,327.06275Q99.1218125,326.653,98.8665125,326.1265Q98.6116125,325.59975,98.2908125,325.054Q97.9700125,324.50825,97.6271125,324.04425ZM98.0768125,327.6265L105.7578125,327.6265L105.7578125,328.75175L99.2558125,328.75175L99.2558125,337.7733L98.0768125,337.7733L98.0768125,327.6265ZM105.1640125,327.6265L106.3331125,327.6265L106.3331125,336.274Q106.3331125,336.765,106.20581250000001,337.0515Q106.0788125,337.33820000000003,105.7130125,337.493Q105.3538125,337.632,104.7388125,337.66179999999997Q104.1241125,337.6917,103.2086125,337.6917Q103.1738125,337.4522,103.05981249999999,337.1178Q102.9461125,336.7835,102.8196125,336.5405Q103.5081125,336.5627,104.0783125,336.5707Q104.6486125,336.5788,104.8343125,336.569Q105.1640125,336.553,105.1640125,336.2615L105.1640125,327.6265ZM101.6658125,323.048L102.8660125,323.048L102.8660125,328.32725L101.6658125,328.32725L101.6658125,323.048ZM93.3753125,324.0565L94.0850125,323.2345Q94.5810125,323.46825,95.1116125,323.79Q95.6423125,324.11175,96.1090125,324.44775Q96.5758125,324.78375,96.8665125,325.078L96.1328125,326.01125Q95.8511125,325.70725,95.3905125,325.357Q94.9301125,325.00675,94.4005125,324.65975Q93.8713125,324.3125,93.3753125,324.0565ZM92.6198125,328.3355L93.3070125,327.48775Q93.8093125,327.7215,94.3528125,328.0415Q94.8966125,328.3615,95.3841125,328.69275Q95.8718125,329.02375,96.1723125,329.30825L95.4573125,330.254Q95.15961250000001,329.96320000000003,94.6813125,329.61469999999997Q94.2030125,329.26625,93.6626125,328.929Q93.1221125,328.5915,92.6198125,328.3355ZM93.1138125,336.8415Q93.5138125,336.214,93.98581250000001,335.351Q94.4578125,334.488,94.9441125,333.5245Q95.4303125,332.561,95.8393125,331.6462L96.7350125,332.371Q96.3636125,333.2253,95.92931250000001,334.151Q95.4953125,335.0767,95.0371125,335.9653Q94.5788125,336.8535,94.1566125,337.6173L93.1138125,336.8415Z" fill="#374151" fill-opacity="1" style="mix-blend-mode:passthrough"/></g></g><g><rect x="370.984375" y="311" width="112.015625" height="42" rx="4" fill="#3B82F6" fill-opacity="1" style="mix-blend-mode:passthrough"/><g><rect x="394.984375" y="322" width="64.015625" height="19" rx="0" fill="#000000" fill-opacity="0" style="mix-blend-mode:passthrough"/><g><path d="M402.8244375,333.3245L409.2299875,333.3245L409.2299875,334.3785L402.8244375,334.3785L402.8244375,333.3245ZM402.8964375,330.453L409.2041875,330.453L409.2041875,331.4163L402.8964375,331.4163L402.8964375,330.453ZM402.9026875,327.646L409.2104875,327.646L409.2104875,328.684L402.9026875,328.684L402.9026875,327.646ZM405.3051875,328.194L406.3746875,328.194L406.3746875,337.7005L405.3051875,337.7005L405.3051875,328.194ZM408.6716875,327.646L409.8194875,327.646L409.8194875,336.8363Q409.8194875,337.29,409.7109875,337.54970000000003Q409.6024875,337.8097,409.2999875,337.9522Q408.9976875,338.091,408.4789875,338.1195Q407.9604875,338.148,407.21648749999997,338.148Q407.1941875,337.9175,407.1069875,337.608Q407.0199875,337.2987,406.9121875,337.0745Q407.4289875,337.0905,407.8574875,337.0952Q408.2861875,337.1003,408.4211875,337.0905Q408.6716875,337.08050000000003,408.6716875,336.8335L408.6716875,327.646ZM402.0861875,327.646L403.1991875,327.646L403.1991875,331.9152Q403.1991875,332.6595,403.1301875,333.4993Q403.0614375,334.339,402.8626875,335.1962Q402.6639375,336.0532,402.2826875,336.84680000000003Q401.9014375,337.6402,401.2829375,338.3018Q401.1884375,338.194,401.0184375,338.0645Q400.8484375,337.935,400.6689375,337.8165Q400.4894375,337.6982,400.3506875,337.635Q401.1361875,336.8197,401.4986875,335.8352Q401.8611875,334.8507,401.9736875,333.8293Q402.0861875,332.8077,402.0861875,331.909L402.0861875,327.646ZM403.8211875,323.509L404.8816875,323.78675Q404.2729375,325.448,403.3324375,326.94125Q402.3919375,328.4345,401.2859375,329.463Q401.2226875,329.34625,401.0914375,329.178Q400.9601875,329.0095,400.8176875,328.83325Q400.6754375,328.657,400.5614375,328.55625Q401.5959375,327.641,402.4469375,326.3095Q403.2979375,324.978,403.8211875,323.509ZM403.8409375,324.8955L407.5209875,324.8955L407.5209875,325.9025L403.3326875,325.9025L403.8409375,324.8955ZM407.2119875,324.8955L407.4736875,324.8955L407.6634875,324.84475L408.4389875,325.362Q408.1704875,325.8615,407.8076875,326.40025Q407.4449875,326.939,407.0581875,327.433Q406.6716875,327.92675,406.3071875,328.30375Q406.1494875,328.171,405.9161875,328.0215Q405.6829875,327.87175,405.5031875,327.76775Q405.8204875,327.41925,406.1456875,326.9505Q406.4709875,326.4815,406.7579875,325.998Q407.0449875,325.5145,407.2119875,325.11975L407.2119875,324.8955ZM395.8956875,324.4125L401.2811875,324.4125L401.2811875,325.513L395.8956875,325.513L395.8956875,324.4125ZM397.4021875,329.33875L400.7689375,329.33875L400.7689375,336.2585L397.4021875,336.2585L397.4021875,335.189L399.7431875,335.189L399.7431875,330.418L397.4021875,330.418L397.4021875,329.33875ZM397.8934375,324.9505L399.0036875,325.1865Q398.7386875,326.687,398.3349375,328.13025Q397.9314375,329.5735,397.3876875,330.828Q396.8439375,332.0822,396.1136875,333.0415Q396.0719375,332.8872,395.9764375,332.6442Q395.8809375,332.401,395.7646875,332.1515Q395.6486875,331.902,395.5471875,331.7515Q396.4509375,330.517,397.0214375,328.7295Q397.5921875,326.942,397.8934375,324.9505ZM396.9336875,329.33875L397.9726875,329.33875L397.9726875,337.547L396.9336875,337.547L396.9336875,329.33875ZM420.9459875,323.57225L422.1621875,323.57225Q422.1558875,325.28775,422.1016875,326.9985Q422.0476875,328.709,421.84148749999997,330.3392Q421.63518750000003,331.9695,421.1794875,333.4345Q420.7239875,334.8993,419.9211875,336.1332Q419.1184875,337.3673,417.8614875,338.2865Q417.7101875,338.0665,417.4466875,337.829Q417.1831875,337.5917,416.9371875,337.444Q418.1531875,336.5905,418.9166875,335.4368Q419.6804875,334.283,420.09668750000003,332.8965Q420.5131875,331.51,420.6876875,329.97725Q420.8624875,328.4445,420.9009875,326.822Q420.9396875,325.1995,420.9459875,323.57225ZM422.0146875,328.445Q422.0759875,328.8885,422.2239875,329.70775Q422.3718875,330.5267,422.6574875,331.5642Q422.9431875,332.6015,423.4319875,333.6788Q423.9209875,334.756,424.6701875,335.7255Q425.41938749999997,336.6947,426.4816875,337.381Q426.2393875,337.5513,425.9961875,337.79200000000003Q425.7531875,338.033,425.5984875,338.26279999999997Q424.5014875,337.5193,423.7334875,336.473Q422.9654875,335.4265,422.4659875,334.255Q421.96648749999997,333.0833,421.6601875,331.9645Q421.3541875,330.8455,421.1966875,329.93975Q421.0394875,329.03375,420.9461875,328.54275L422.0146875,328.445ZM413.2611875,324.60775L414.0688875,323.858Q414.4688875,324.20025,414.9351875,324.6175Q415.40148750000003,325.03475,415.8211875,325.4295Q416.2409875,325.82425,416.5056875,326.12475L415.6669875,326.99825Q415.4084875,326.6915,414.9961875,326.26975Q414.5841875,325.84775,414.1256875,325.41Q413.6674875,324.97225,413.2611875,324.60775ZM414.2226875,337.6397L414.0068875,336.5198L414.3538875,336.0135L417.5816875,333.8505Q417.6386875,334.0802,417.7489875,334.3778Q417.8594875,334.6753,417.9411875,334.855Q416.7919875,335.6578,416.0943875,336.153Q415.3971875,336.6483,415.0201875,336.9355Q414.6434875,337.2225,414.4774875,337.3738Q414.3116875,337.525,414.2226875,337.6397ZM411.7376875,328.58075L415.2274875,328.58075L415.2274875,329.74075L411.7376875,329.74075L411.7376875,328.58075ZM414.2226875,337.6397Q414.1656875,337.507,414.0486875,337.3445Q413.9316875,337.182,413.8021875,337.0177Q413.6726875,336.8535,413.5586875,336.762Q413.8006875,336.584,414.1201875,336.1905Q414.43998750000003,335.797,414.43998750000003,335.226L414.43998750000003,328.58075L415.6061875,328.58075L415.6061875,336.102Q415.6061875,336.102,415.46648749999997,336.2115Q415.3269875,336.321,415.1221875,336.5035Q414.9176875,336.6857,414.7099875,336.8967Q414.5021875,337.1075,414.3624875,337.30219999999997Q414.2226875,337.4972,414.2226875,337.6397ZM427.7258875,325.431L433.6581875,325.431L433.6581875,326.5475L427.7258875,326.5475L427.7258875,325.431ZM430.8846875,327.92425L432.0351875,327.92425L432.0351875,338.221L430.8846875,338.221L430.8846875,327.92425ZM427.6306875,334.329Q428.4459875,334.194,429.5074875,334.022Q430.5689875,333.85,431.7581875,333.6412Q432.94768750000003,333.4325,434.1406875,333.2238L434.19768750000003,334.2673Q432.5274875,334.5942,430.8561875,334.9247Q429.1848875,335.2552,427.8871875,335.499L427.6306875,334.329ZM428.2851875,331.6952Q428.2566875,331.575,428.1981875,331.3792Q428.1399875,331.1833,428.0641875,330.983Q427.98868749999997,330.7827,427.9191875,330.6375Q428.1228875,330.5868,428.3131875,330.2277Q428.50338750000003,329.86875,428.7113875,329.347Q428.8171875,329.0875,429.0236875,328.49875Q429.2304875,327.90975,429.4676875,327.10975Q429.7048875,326.30975,429.9309875,325.39475Q430.1571875,324.4795,430.2924875,323.5675L431.4781875,323.8015Q431.1901875,325.0905,430.7924875,326.3955Q430.39468750000003,327.7005,429.9343875,328.89225Q429.4744875,330.0837,428.9978875,331.034L428.9978875,331.0562Q428.9978875,331.0562,428.8901875,331.1225Q428.7826875,331.1887,428.6414875,331.2917Q428.5004875,331.3945,428.3926875,331.5005Q428.2851875,331.6062,428.2851875,331.6952ZM428.2851875,331.6952L428.2851875,330.691L428.93998750000003,330.3742L433.6851875,330.3742L433.6851875,331.4685L429.4576875,331.4685Q429.0471875,331.4685,428.7171875,331.5325Q428.3873875,331.5965,428.2851875,331.6952ZM435.9939875,331.4303L440.7803875,331.4303L440.7803875,332.5557L435.9939875,332.5557L435.9939875,331.4303ZM440.4936875,331.4303L440.6894875,331.4303L440.8754875,331.3573L441.7266875,331.773Q441.2803875,332.4303,440.7264875,333.21Q440.1724875,333.9895,439.5784875,334.779Q438.9846875,335.5685,438.4226875,336.28430000000003L437.3853875,335.8088Q437.9411875,335.1215,438.5256875,334.3285Q439.1101875,333.5355,439.6324875,332.8035Q440.1549875,332.0712,440.4936875,331.5665L440.4936875,331.4303ZM435.4911875,334.9117L436.2569875,334.1362Q437.0873875,334.6135,437.9386875,335.1868Q438.7899875,335.76,439.5339875,336.3285Q440.2781875,336.8967,440.7504875,337.3608L439.9589875,338.2967Q439.4893875,337.8167,438.7501875,337.2135Q438.0108875,336.6105,437.1581875,336.0012Q436.3056875,335.3918,435.4911875,334.9117ZM437.7953875,323.56675L438.9869875,323.7215Q438.7246875,324.785,438.3996875,325.9835Q438.0748875,327.18175,437.7371875,328.3855Q437.3993875,329.58925,437.0806875,330.6667Q436.7621875,331.744,436.4901875,332.5557L435.1971875,332.5557Q435.4976875,331.6995,435.8496875,330.5905Q436.2016875,329.4815,436.5536875,328.25725Q436.9056875,327.033,437.2256875,325.8235Q437.5456875,324.614,437.7953875,323.56675ZM434.4301875,325.43725L441.7596875,325.43725L441.7596875,326.55375L434.4301875,326.55375L434.4301875,325.43725ZM433.8144875,328.4425L442.3329875,328.4425L442.3329875,329.5715L433.8144875,329.5715L433.8144875,328.4425ZM444.4146875,324.64475L445.0439875,323.772Q445.5151875,323.996,446.0411875,324.2935Q446.5673875,324.59075,447.0501875,324.901Q447.5328875,325.21125,447.8431875,325.4735L447.1889875,326.45025Q446.8848875,326.17825,446.4164875,325.85075Q445.9478875,325.523,445.4198875,325.20525Q444.8918875,324.88725,444.4146875,324.64475ZM443.5979875,328.994L444.2021875,328.10875Q444.6696875,328.29725,445.1861875,328.57075Q445.7026875,328.844,446.1706875,329.1285Q446.6389875,329.413,446.9456875,329.65925L446.3199875,330.6547Q446.0256875,330.3925,445.5668875,330.0907Q445.1081875,329.78875,444.5866875,329.50475Q444.0653875,329.22075,443.5979875,328.994ZM443.9869875,337.154Q444.3648875,336.5425,444.8176875,335.6955Q445.2706875,334.8482,445.7296875,333.9008Q446.1889875,332.9532,446.5754875,332.0545L447.3901875,332.8577Q447.0318875,333.6897,446.6106875,334.5945Q446.1894875,335.4993,445.7569875,336.3705Q445.3243875,337.2415,444.9181875,337.983L443.9869875,337.154ZM454.7276875,328.12025Q454.98798750000003,330.059,455.4539875,331.8048Q455.9198875,333.5505,456.6711875,334.8977Q457.4224875,336.2447,458.5129875,337.0233Q458.3739875,337.1338,458.2051875,337.3118Q458.0364875,337.49,457.8881875,337.6805Q457.7398875,337.871,457.6421875,338.0448Q456.4884875,337.1238,455.7134875,335.6488Q454.9386875,334.1737,454.4693875,332.2882Q454.0004875,330.4028,453.7178875,328.2625L454.7276875,328.12025ZM457.4768875,329.9265L458.3121875,330.7822Q457.6124875,331.3732,456.8453875,331.9802Q456.0786875,332.587,455.4273875,333.024L454.8016875,332.3403Q455.2191875,332.0352,455.7104875,331.6155Q456.2019875,331.1955,456.6724875,330.7485Q457.14288750000003,330.3015,457.4768875,329.9265ZM456.5356875,323.5995L457.4973875,324.5665Q456.4096875,324.93725,455.01788750000003,325.2445Q453.6261875,325.5515,452.1261875,325.79325Q450.6261875,326.035,449.2251875,326.20475Q449.1903875,325.99375,449.0798875,325.69775Q448.9696875,325.4015,448.8591875,325.20925Q449.8796875,325.0715,450.9471875,324.89375Q452.0146875,324.716,453.0468875,324.513Q454.0793875,324.30975,454.9736875,324.07775Q455.8679875,323.84575,456.5356875,323.5995ZM448.8591875,325.20925L449.9756875,325.20925L449.9756875,329.22725Q449.9756875,330.222,449.9036875,331.4017Q449.8316875,332.5812,449.6186875,333.8123Q449.4058875,335.043,449.0103875,336.2085Q448.6148875,337.3738,447.9519875,338.356Q447.8573875,338.258,447.6773875,338.1413Q447.4976875,338.0247,447.3163875,337.9205Q447.1353875,337.8165,446.9901875,337.7693Q447.6249875,336.828,447.9999875,335.7353Q448.3749875,334.6423,448.5591875,333.5015Q448.7436875,332.3605,448.8013875,331.2677Q448.8591875,330.1747,448.8591875,329.22725L448.8591875,325.20925ZM456.2506875,326.58125L457.2131875,327.5135Q456.4929875,327.7955,455.5904875,328.03425Q454.6879875,328.27275,453.7384875,328.459Q452.7891875,328.645,451.9001875,328.78Q451.8653875,328.57525,451.7501875,328.29475Q451.6348875,328.01425,451.5209875,327.81225Q452.3689875,327.66475,453.2541875,327.47725Q454.1394875,327.2895,454.9281875,327.05725Q455.7171875,326.82475,456.2506875,326.58125ZM451.4236875,338.1257L451.2953875,337.077L451.7401875,336.6322L455.0026875,335.3135Q455.0373875,335.5505,455.1099875,335.8345Q455.1826875,336.1185,455.2359875,336.29200000000003Q454.0824875,336.7985,453.3681875,337.114Q452.6541875,337.4295,452.2668875,337.61469999999997Q451.8798875,337.8003,451.7011875,337.9167Q451.5224875,338.0333,451.4236875,338.1257ZM451.4236875,338.1257Q451.3889875,337.987,451.3066875,337.796Q451.2244875,337.605,451.1276875,337.4123Q451.0311875,337.2195,450.9394875,337.09929999999997Q451.1306875,337.0042,451.3256875,336.7765Q451.5209875,336.5487,451.5209875,336.082L451.5209875,327.8185L452.5998875,327.8185L452.5998875,337.0987Q452.5998875,337.0987,452.4224875,337.197Q452.2449875,337.2955,452.0116875,337.45550000000003Q451.7786875,337.6157,451.6011875,337.7932Q451.4236875,337.971,451.4236875,338.1257Z" fill="#FFFFFF" fill-opacity="1" style="mix-blend-mode:passthrough"/></g></g></g></g></g></g></svg>