<?xml version="1.0" encoding="utf-8"?>
<svg version="1.1" xmlns:xlink="http://www.w3.org/1999/xlink" width="10px" height="10px" viewBox="321 266  10 10" xmlns="http://www.w3.org/2000/svg">
  <path d="M 326 266  C 328.8 266  331 268.2  331 271  C 331 273.8  328.8 276  326 276  C 323.2 276  321 273.8  321 271  C 321 268.2  323.2 266  326 266  Z " fill-rule="nonzero" fill="#ffffff" stroke="none" fill-opacity="0" />
  <path d="M 326 266.5  C 328.52 266.5  330.5 268.48  330.5 271  C 330.5 273.52  328.52 275.5  326 275.5  C 323.48 275.5  321.5 273.52  321.5 271  C 321.5 268.48  323.48 266.5  326 266.5  Z " stroke-width="1" stroke="#3b82f6" fill="none" />
  <path d="M 326 273.5  C 324.6 273.5  323.5 272.4  323.5 271  C 323.5 269.6  324.6 268.5  326 268.5  C 327.4 268.5  328.5 269.6  328.5 271  C 328.5 272.4  327.4 273.5  326 273.5  " fill-rule="nonzero" fill="#3b82f6" stroke="none" />
</svg>