<svg xmlns="http://www.w3.org/2000/svg" xmlns:xlink="http://www.w3.org/1999/xlink" fill="none" version="1.1" width="480" height="299" viewBox="0 0 480 299"><defs><clipPath id="master_svg0_14_234"><rect x="445" y="29" width="10" height="16" rx="0"/></clipPath><clipPath id="master_svg1_14_4713"><rect x="24" y="76" width="432" height="128" rx="8"/></clipPath></defs><g><rect x="0" y="0" width="480" height="299" rx="8" fill="#FFFFFF" fill-opacity="1" style="mix-blend-mode:passthrough"/><g><rect x="24" y="24" width="432" height="28" rx="0" fill="#000000" fill-opacity="0" style="mix-blend-mode:passthrough"/><g><rect x="24" y="24" width="80" height="28" rx="0" fill="#000000" fill-opacity="0" style="mix-blend-mode:passthrough"/><g><path d="M28.62,33.96156L39.2831,33.96156L39.2831,35.7063L28.62,35.7063L28.62,33.96156ZM25.08812,37.6656L42.9056,37.6656L42.9056,39.4441L25.08812,39.4441L25.08812,37.6656ZM30.32094,38.8897L32.25375,38.8897Q32.16719,40.5441,31.89187,41.8156Q31.61687,43.087199999999996,30.9525,44.0338Q30.28813,44.980000000000004,29.05094,45.6344Q27.81375,46.2887,25.78969,46.697500000000005Q25.72469,46.4497,25.55375,46.1569Q25.383119999999998,45.8641,25.17875,45.576899999999995Q24.974375,45.289699999999996,24.79125,45.1041Q26.584690000000002,44.7825,27.65875,44.2812Q28.73281,43.78,29.28312,43.0459Q29.833750000000002,42.3119,30.04406,41.284099999999995Q30.25437,40.2559,30.32094,38.8897ZM35.38,38.72L37.2928,38.72L37.2928,43.9463Q37.2928,44.393699999999995,37.4522,44.518100000000004Q37.6119,44.6425,38.1862,44.6425Q38.321600000000004,44.6425,38.6434,44.6425Q38.9656,44.6425,39.3584,44.6425Q39.7512,44.6425,40.0975,44.6425Q40.4441,44.6425,40.6169,44.6425Q40.9672,44.6425,41.147800000000004,44.4694Q41.3287,44.2959,41.403099999999995,43.7431Q41.4775,43.1903,41.508700000000005,42.087199999999996Q41.7209,42.2369,42.0225,42.3822Q42.3241,42.5272,42.6525,42.64Q42.9809,42.7528,43.2288,42.8263Q43.1328,44.2297,42.8806,45.0078Q42.628699999999995,45.7862,42.1362,46.085300000000004Q41.6441,46.384699999999995,40.7825,46.384699999999995Q40.6175,46.384699999999995,40.2262,46.384699999999995Q39.835300000000004,46.384699999999995,39.3644,46.384699999999995Q38.8937,46.384699999999995,38.4969,46.384699999999995Q38.1,46.384699999999995,37.9462,46.384699999999995Q36.9191,46.384699999999995,36.3653,46.1659Q35.8119,45.947199999999995,35.5959,45.414100000000005Q35.38,44.8809,35.38,43.957499999999996L35.38,38.72ZM25.53531,30.30406L42.4137,30.30406L42.4137,34.9903L40.447199999999995,34.9903L40.447199999999995,32.12469L27.42313,32.12469L27.42313,34.9903L25.53531,34.9903L25.53531,30.30406ZM32.26719,28.47594L34.1937,27.915309999999998Q34.6,28.5775,34.9784,29.37875Q35.356899999999996,30.18,35.5319,30.76469L33.49375,31.38813Q33.35187,30.82563,33.00594,29.99219Q32.66,29.15844,32.26719,28.47594ZM47.5138,35.624700000000004L52.3297,35.624700000000004L52.3297,37.3672L47.5138,37.3672L47.5138,35.624700000000004ZM51.5991,35.624700000000004L53.433800000000005,35.624700000000004Q53.433800000000005,35.624700000000004,53.433800000000005,35.7619Q53.433800000000005,35.899100000000004,53.4281,36.0775Q53.4225,36.2559,53.4225,36.3719Q53.384699999999995,38.5616,53.3203,39.9369Q53.2559,41.3119,53.134699999999995,42.0456Q53.0138,42.7791,52.7913,43.064099999999996Q52.5328,43.389700000000005,52.2344,43.5256Q51.935900000000004,43.6616,51.5025,43.7262Q51.1112,43.78,50.4803,43.7825Q49.8497,43.7847,49.1231,43.7584Q49.1031,43.3472,48.962199999999996,42.845600000000005Q48.821600000000004,42.3441,48.6072,41.9888Q49.2256,42.0462,49.7663,42.0619Q50.3072,42.0775,50.5559,42.0775Q50.764700000000005,42.0775,50.913399999999996,42.0309Q51.0625,41.9841,51.1737,41.8528Q51.32,41.6753,51.3975,41.0681Q51.475300000000004,40.460899999999995,51.522800000000004,39.2247Q51.5703,37.9881,51.5991,35.9216L51.5991,35.624700000000004ZM57.3881,29.229689999999998L58.5319,28.07906Q59.1312,28.374380000000002,59.7916,28.77094Q60.4519,29.167189999999998,61.0403,29.56375Q61.6287,29.96,62.0041,30.30875L60.8016,31.58875Q60.4487,31.240000000000002,59.8728,30.81688Q59.2969,30.39375,58.6462,29.97625Q57.9959,29.55844,57.3881,29.229689999999998ZM60.04,34.5375L61.9416,35Q60.6753,38.9088,58.4712,41.84Q56.2672,44.7712,53.2416,46.5938Q53.1119,46.3881,52.8594,46.0963Q52.6072,45.8047,52.3422,45.5131Q52.0775,45.221599999999995,51.8631,45.038399999999996Q54.8391,43.4481,56.8966,40.7666Q58.9544,38.0847,60.04,34.5375ZM47.6359,31.34L63.0975,31.34L63.0975,33.19688L47.6359,33.19688L47.6359,31.34ZM46.3888,31.34L48.3662,31.34L48.3662,37.087199999999996Q48.3662,38.1769,48.2863,39.4569Q48.206199999999995,40.7369,47.985,42.066900000000004Q47.7641,43.3969,47.3384,44.6344Q46.912800000000004,45.8719,46.2241,46.8656Q46.0719,46.6712,45.7691,46.4163Q45.4662,46.1616,45.1578,45.927800000000005Q44.8497,45.6944,44.6241,45.587199999999996Q45.4344,44.3719,45.8041,42.8866Q46.1737,41.4009,46.2812,39.884100000000004Q46.3888,38.3672,46.3888,37.0672L46.3888,31.34ZM54.620000000000005,28.14L56.5975,28.14Q56.5728,30.77188,56.7722,33.20906Q56.9719,35.6462,57.3534,37.7216Q57.7353,39.7969,58.2619,41.3416Q58.7887,42.8862,59.4306,43.7481Q60.0728,44.609700000000004,60.7663,44.609700000000004Q61.1631,44.609700000000004,61.365,43.7691Q61.5672,42.9281,61.6472,40.984700000000004Q61.9713,41.3,62.4325,41.5984Q62.8937,41.8969,63.2712,42.0375Q63.1128,43.8103,62.8128,44.7922Q62.5128,45.7738,61.9869,46.1569Q61.4609,46.54,60.6144,46.54Q59.5737,46.54,58.7231,45.835899999999995Q57.8728,45.1319,57.2103,43.8587Q56.5481,42.5856,56.0691,40.8581Q55.5903,39.1303,55.272800000000004,37.0731Q54.9553,35.0159,54.7975,32.74969Q54.64,30.48313,54.620000000000005,28.14ZM66.0481,30.29375L82.0272,30.29375L82.0272,32.26L66.0481,32.26L66.0481,30.29375ZM64.9784,43.3113L83.0863,43.3113L83.0863,45.2128L64.9784,45.2128L64.9784,43.3113ZM72.8737,31.333750000000002L75.0081,31.333750000000002L75.0081,44.0841L72.8737,44.0841L72.8737,31.333750000000002ZM92.9791,32.4425L94.9319,32.4425L94.9319,46.6441L92.9791,46.6441L92.9791,32.4425ZM88.7097,36.3969L88.7097,38.205600000000004L99.3944,38.205600000000004L99.3944,36.3969L88.7097,36.3969ZM88.7097,33.12969L88.7097,34.9209L99.3944,34.9209L99.3944,33.12969L88.7097,33.12969ZM86.86410000000001,31.55531L101.3384,31.55531L101.3384,39.7825L86.86410000000001,39.7825L86.86410000000001,31.55531ZM85.0209,41.433800000000005L103.0281,41.433800000000005L103.0281,43.1897L85.0209,43.1897L85.0209,41.433800000000005ZM88.54,28.94156L90.1625,28.2Q90.7575,28.85531,91.3694,29.68281Q91.9816,30.51031,92.2816,31.14156L90.5697,31.97688Q90.2944,31.36812,89.7091,30.499380000000002Q89.1241,29.63031,88.54,28.94156ZM97.9472,28.229689999999998L100.0281,28.86813Q99.4119,29.84406,98.73,30.81938Q98.0481,31.79438,97.4841,32.46969L95.8344,31.87375Q96.2009,31.3825,96.5991,30.745Q96.9975,30.10719,97.3547,29.44406Q97.7119,28.78094,97.9472,28.229689999999998Z" fill="#000000" fill-opacity="1" style="mix-blend-mode:passthrough"/></g></g><g><rect x="444" y="26" width="12" height="24" rx="0" fill="#000000" fill-opacity="0" style="mix-blend-mode:passthrough"/><g><rect x="444" y="29" width="12" height="16" rx="0" fill="#000000" fill-opacity="0" style="mix-blend-mode:passthrough"/><g clip-path="url(#master_svg0_14_234)"><g transform="matrix(1,0,0,-1,0,84.6875)"><g><path d="M453.71875,50.625Q454,50.9375,454,51.34375Q454,51.75,453.71875,52.0625Q453.40625,52.34375,453,52.34375Q452.59375,52.34375,452.28125,52.0625L449,48.75L445.71875,52.0625Q445.40625,52.34375,445,52.34375Q444.59375,52.34375,444.28125,52.0625Q444,51.75,444,51.34375Q444,50.9375,444.28125,50.625L447.59375,47.34375L444.28125,44.0625Q444,43.75,444,43.34375Q444,42.9375,444.28125,42.625Q444.59375,42.34375,445,42.34375Q445.40625,42.34375,445.71875,42.625L449,45.9375L452.28125,42.625Q452.59375,42.34375,453,42.34375Q453.40625,42.34375,453.71875,42.625Q454,42.9375,454,43.34375Q454,43.75,453.71875,44.0625L450.40625,47.34375L453.71875,50.625Z" fill="#6B7280" fill-opacity="1" style="mix-blend-mode:passthrough"/></g></g></g></g></g></g><g><rect x="24" y="76" width="432" height="135" rx="0" fill="#000000" fill-opacity="0" style="mix-blend-mode:passthrough"/><g clip-path="url(#master_svg1_14_4713)"><rect x="24" y="76" width="432" height="128" rx="8" fill="#FFFFFF" fill-opacity="1" style="mix-blend-mode:passthrough"/><g><path d="M37.71,92.65375L38.4855,91.91925Q38.90775,92.27125,39.3725,92.69675Q39.8375,93.122,40.25275,93.5375Q40.668,93.953,40.917,94.27575L40.104,95.134Q39.85775,94.79525,39.45175,94.36075Q39.046,93.926,38.589,93.47525Q38.13225,93.0245,37.71,92.65375ZM38.936,105.991L38.714,104.85849999999999L39.03875,104.349L41.88575,102.221Q41.949,102.4605,42.0705,102.7598Q42.192,103.059,42.29,103.2352Q41.28075,104.024,40.6535,104.5072Q40.02625,104.9905,39.6865,105.271Q39.34675,105.5518,39.1875,105.7108Q39.0285,105.87,38.936,105.991ZM36.6655,96.58075L39.7615,96.58075L39.7615,97.74075L36.6655,97.74075L36.6655,96.58075ZM38.936,105.991Q38.88525,105.846,38.773,105.6505Q38.661,105.455,38.53775,105.2658Q38.4145,105.0767,38.3005,104.9662Q38.52025,104.8265,38.797,104.474Q39.074,104.1215,39.074,103.5942L39.074,96.58075L40.22425,96.58075L40.22425,104.6075Q40.22425,104.6075,40.03075,104.757Q39.83725,104.9065,39.58,105.127Q39.323,105.3477,39.1295,105.58070000000001Q38.936,105.814,38.936,105.991ZM43.63675,100.7552L49.2448,100.7552L49.2448,101.6097L43.63675,101.6097L43.63675,100.7552ZM42.1145,92.816L50.8705,92.816L50.8705,93.72925000000001L42.1145,93.72925000000001L42.1145,92.816ZM42.51,94.75675L50.3808,94.75675L50.3808,95.6325L42.51,95.6325L42.51,94.75675ZM41.638,96.74775L51.353300000000004,96.74775L51.353300000000004,97.66725L41.638,97.66725L41.638,96.74775ZM43.618,102.9163L49.2748,102.9163L49.2748,103.7955L43.618,103.7955L43.618,102.9163ZM42.78175,98.6032L49.288,98.6032L49.288,99.5352L43.91075,99.5352L43.91075,106.2593L42.78175,106.2593L42.78175,98.6032ZM48.9243,98.6032L50.072,98.6032L50.072,104.935Q50.072,105.3818,49.952799999999996,105.638Q49.8335,105.8945,49.4938,106.0305Q49.1603,106.1632,48.6013,106.1917Q48.042500000000004,106.2202,47.191,106.2105Q47.1563,105.993,47.0535,105.6935Q46.9508,105.394,46.8368,105.1695Q47.448,105.1917,47.962,105.1965Q48.4763,105.2015,48.6363,105.1917Q48.9243,105.182,48.9243,104.9163L48.9243,98.6032ZM45.82225,91.55425L47.0135,91.55425L47.0135,97.038L45.82225,97.038L45.82225,91.55425ZM52.747,93.47475L57.8643,93.47475L57.8643,94.5725L52.747,94.5725L52.747,93.47475ZM55.5077,95.96775L56.555499999999995,95.96775L56.555499999999995,106.2572L55.5077,106.2572L55.5077,95.96775ZM52.669799999999995,102.32900000000001Q53.6575,102.1362,55.0185,101.8167Q56.3797,101.49719999999999,57.7957,101.173L57.8875,102.1852Q56.5923,102.5282,55.2943,102.8635Q53.9965,103.1985,52.942,103.458L52.669799999999995,102.32900000000001ZM53.132999999999996,99.7202Q53.1045,99.6062,53.0413,99.4198Q52.978,99.2332,52.908500000000004,99.0392Q52.8393,98.845,52.775999999999996,98.7125Q52.9735,98.6617,53.1318,98.2997Q53.29,97.9375,53.456199999999995,97.3935Q53.546,97.12775,53.7095,96.53275Q53.873000000000005,95.9375,54.0623,95.12825Q54.2515,94.31875,54.4167,93.4005Q54.582,92.48225,54.6593,91.58L55.7793,91.76425Q55.5935,93.03975,55.29,94.35725Q54.9865,95.67475,54.615700000000004,96.887Q54.245000000000005,98.099,53.8388,99.0712L53.8388,99.0935Q53.8388,99.0935,53.731,99.1567Q53.6233,99.22,53.4858,99.3197Q53.3482,99.4192,53.2405,99.5252Q53.132999999999996,99.6313,53.132999999999996,99.7202ZM53.132999999999996,99.7202L53.132999999999996,98.7097L53.7655,98.3993L57.8365,98.3993L57.8365,99.4935L54.238,99.4935Q53.8568,99.4935,53.541,99.5575Q53.2255,99.6215,53.132999999999996,99.7202ZM59.625,95.5005L65.55799999999999,95.5005L65.55799999999999,96.48875L59.625,96.48875L59.625,95.5005ZM58.644800000000004,97.543L62.1505,97.543L62.1505,98.5095L59.632999999999996,98.5095L59.632999999999996,106.2218L58.644800000000004,106.2218L58.644800000000004,97.543ZM61.832,97.543L62.8335,97.543L62.8335,105.0115Q62.8335,105.3985,62.748999999999995,105.6343Q62.664500000000004,105.8703,62.4135,106.0065Q62.169,106.1265,61.794,106.158Q61.4193,106.1898,60.8958,106.1898Q60.8797,105.9815,60.792500000000004,105.689Q60.705200000000005,105.3967,60.5877,105.18469999999999Q60.957499999999996,105.2008,61.2508,105.2008Q61.544,105.2008,61.656,105.2008Q61.832,105.191,61.832,105.00880000000001L61.832,97.543ZM59.3465,99.7722L62.531,99.7722L62.531,100.6952L59.3465,100.6952L59.3465,99.7722ZM59.334,102.014L62.5185,102.014L62.5185,102.9272L59.334,102.9272L59.334,102.014ZM63.7453,97.84025L64.6835,97.84025L64.6835,103.6368L63.7453,103.6368L63.7453,97.84025ZM65.7738,97.25525L66.7467,97.25525L66.7467,104.9135Q66.7467,105.345,66.6448,105.584Q66.543,105.82300000000001,66.238,105.9592Q65.9487,106.0793,65.469,106.1108Q64.9893,106.1425,64.277,106.1425Q64.2488,105.9342,64.16,105.6515Q64.0715,105.369,63.954,105.1507Q64.505,105.16669999999999,64.9428,105.16669999999999Q65.3808,105.16669999999999,65.531,105.157Q65.7738,105.1472,65.7738,104.917L65.7738,97.25525ZM62.5385,91.50775L63.5225,91.946Q62.935500000000005,92.87675,62.1065,93.74425Q61.2775,94.61175,60.3167,95.334Q59.356300000000005,96.056,58.3455,96.568Q58.213,96.357,57.9983,96.10025Q57.7838,95.84325,57.563,95.66675000000001Q58.5327,95.2145,59.4778,94.565Q60.422799999999995,93.91525,61.22,93.12975Q62.0175,92.34425,62.5385,91.50775ZM62.928200000000004,92.1985Q63.8722,93.346,65.0605,94.11375Q66.2488,94.8815,67.5775,95.45925Q67.3693,95.64175,67.148,95.9005Q66.92699999999999,96.159,66.813,96.402Q65.4183,95.6855,64.221,94.787Q63.0238,93.88825,61.9845,92.5805L62.928200000000004,92.1985ZM72.7233,92.92699999999999L73.4608,91.8965Q74.56479999999999,92.68325,75.3563,93.591Q76.14779999999999,94.4985,76.7438,95.4865Q77.34,96.47425,77.848,97.49275Q78.3563,98.5112,78.874,99.5187Q79.3918,100.5262,80.009,101.4662Q80.6265,102.406,81.45230000000001,103.2448Q82.27799999999999,104.08330000000001,83.4248,104.7677Q83.32679999999999,104.9317,83.199,105.17869999999999Q83.07130000000001,105.426,82.9688,105.6763Q82.8665,105.9265,82.8317,106.1187Q81.6505,105.4592,80.782,104.5952Q79.9135,103.7312,79.25829999999999,102.733Q78.60300000000001,101.7347,78.05680000000001,100.6725Q77.51050000000001,99.6102,76.9897,98.5352Q76.4692,97.46000000000001,75.87299999999999,96.44725Q75.277,95.43425,74.5158,94.533Q73.75450000000001,93.63175,72.7233,92.92699999999999ZM75.33850000000001,95.29225L76.6927,95.538Q76.1168,98.0607,75.1905,100.06700000000001Q74.26429999999999,102.07300000000001,72.9248,103.5895Q71.58529999999999,105.106,69.7598,106.169Q69.6493,106.03999999999999,69.4507,105.8605Q69.25229999999999,105.681,69.038,105.4967Q68.8237,105.3125,68.6565,105.202Q71.4082,103.7882,72.9995,101.29599999999999Q74.59100000000001,98.80369999999999,75.33850000000001,95.29225ZM86.21629999999999,95.62025L90.845,95.62025L90.845,96.5585L86.21629999999999,96.5585L86.21629999999999,95.62025ZM86.201,98.499L90.8298,98.499L90.8298,99.4122L86.201,99.4122L86.201,98.499ZM86.18780000000001,101.5273L90.81649999999999,101.5273L90.81649999999999,102.4655L86.18780000000001,102.4655L86.18780000000001,101.5273ZM93.3218,99.1313L98.949,99.1313L98.949,100.179L93.3218,100.179L93.3218,99.1313ZM87.05250000000001,92.9865L89.9168,92.9865L89.9168,93.94325L87.05250000000001,93.94325L87.05250000000001,92.9865ZM92.1562,92.37025L98.2055,92.37025L98.2055,93.3895L92.1562,93.3895L92.1562,92.37025ZM92.1683,102.12780000000001L99.3603,102.12780000000001L99.3603,103.1945L92.1683,103.1945L92.1683,102.12780000000001ZM95.4183,97.60475L96.566,97.60475L96.566,106.2565L95.4183,106.2565L95.4183,97.60475ZM88.1968,96.077L89.06649999999999,96.077L89.06649999999999,105.432L88.1968,105.432L88.1968,96.077ZM97.838,92.37025L98.91980000000001,92.37025Q98.91980000000001,92.37025,98.9165,92.53675Q98.9135,92.703,98.89750000000001,92.8205Q98.846,94.1465,98.7705,94.9785Q98.695,95.8105,98.583,96.2595Q98.471,96.7085,98.295,96.90325Q98.1357,97.097,97.9333,97.186Q97.731,97.275,97.4207,97.3Q97.178,97.3285,96.7197,97.325Q96.26169999999999,97.3215,95.7525,97.29575Q95.7365,97.059,95.6688,96.775Q95.601,96.49075,95.4748,96.28875Q95.951,96.3305,96.35499999999999,96.34175Q96.7593,96.35275,96.91929999999999,96.35275Q97.0863,96.3625,97.2,96.3355Q97.3138,96.30825,97.384,96.21575Q97.4933,96.08425,97.5735,95.6995Q97.654,95.31475,97.7183,94.55Q97.78280000000001,93.78525,97.838,92.535L97.838,92.37025ZM93.36330000000001,97.63575L94.38,97.83775Q94.149,98.9452,93.74000000000001,99.9755Q93.3312,101.0057,92.8247,101.7292Q92.7207,101.6535,92.5532,101.5588Q92.386,101.464,92.2122,101.3755Q92.0387,101.287,91.9025,101.2397Q92.4225,100.557,92.7868,99.6042Q93.15100000000001,98.6515,93.36330000000001,97.63575ZM87.023,91.548L88.1048,91.78125Q87.8167,92.856,87.4007,93.87925Q86.9847,94.9025,86.4825,95.7915Q85.9803,96.68025,85.4043,97.35849999999999Q85.31620000000001,97.26075,85.152,97.1285Q84.9878,96.99625,84.81219999999999,96.86225Q84.637,96.72825,84.5042,96.6525Q85.3628,95.73,86.0115,94.37725Q86.6605,93.02425,87.023,91.548ZM85.7453,95.62025L86.76480000000001,95.62025L86.76480000000001,99.886Q86.76480000000001,100.6112,86.7168,101.46000000000001Q86.6688,102.3085,86.5312,103.173Q86.394,104.0375,86.1318,104.8447Q85.8695,105.652,85.43469999999999,106.3205Q85.34649999999999,106.2288,85.179,106.1232Q85.01169999999999,106.0177,84.843,105.9135Q84.6745,105.8095,84.548,105.7623Q85.092,104.91069999999999,85.3447,103.8883Q85.5978,102.8655,85.67150000000001,101.8207Q85.7453,100.7757,85.7453,99.8797L85.7453,95.62025ZM90.5137,95.62025L91.5233,95.62025L91.5233,104.9153Q91.5233,105.29599999999999,91.434,105.54429999999999Q91.3447,105.7927,91.0868,105.9315Q90.83850000000001,106.0705,90.4495,106.105Q90.0607,106.1397,89.4512,106.1397Q89.429,105.919,89.3372,105.6192Q89.24549999999999,105.3197,89.1318,105.1115Q89.55449999999999,105.1275,89.8703,105.1275Q90.186,105.1275,90.2952,105.1178Q90.5137,105.1178,90.5137,104.8965L90.5137,95.62025ZM94.4405,92.69800000000001L95.548,92.69800000000001Q95.41929999999999,93.7905,95.1125,94.75325Q94.806,95.716,94.18379999999999,96.47749999999999Q93.5615,97.23875,92.48570000000001,97.74375Q92.3843,97.55125,92.18350000000001,97.30725Q91.983,97.06325,91.803,96.9245Q92.7568,96.5015,93.29249999999999,95.85325Q93.82849999999999,95.205,94.086,94.39675Q94.3438,93.5885,94.4405,92.69800000000001ZM89.7192,92.9865L89.9525,92.9865L90.12950000000001,92.93575L90.86500000000001,93.39675Q90.6828,93.89275,90.44120000000001,94.428Q90.2,94.96325,89.93950000000001,95.4585Q89.679,95.9535,89.4265,96.3305Q89.2815,96.2105,89.03970000000001,96.0685Q88.798,95.9265,88.6147,95.85425000000001Q88.8298,95.48975,89.03970000000001,95.0245Q89.25,94.559,89.43,94.071Q89.61,93.583,89.7192,93.19200000000001L89.7192,92.9865ZM100.8118,92.77475L101.7505,92.19775Q102.218,92.66725,102.7073,93.242Q103.1967,93.81675,103.6233,94.3725Q104.05,94.92825,104.3025,95.3655L103.282,96.05025Q103.0482,95.603,102.6387,95.03325Q102.2295,94.46325,101.7542,93.868Q101.2793,93.27275,100.8118,92.77475ZM100.6038,104.818Q101.0038,104.178,101.4873,103.2945Q101.9707,102.4107,102.4685,101.4317Q102.9665,100.4527,103.3887,99.5192L104.28,100.2537Q103.9023,101.12049999999999,103.4553,102.0538Q103.0082,102.987,102.545,103.8818Q102.082,104.77629999999999,101.6438,105.5462L100.6038,104.818ZM105.7315,94.08625L113.7815,94.08625L113.7815,99.4745L112.6312,99.4745L112.6312,95.234L105.7315,95.234L105.7315,94.08625ZM104.8997,98.9322L115.3887,98.9322L115.3887,100.0925L104.8997,100.0925L104.8997,98.9322ZM110.607,99.2975Q111.1357,101.4303,112.3333,102.9815Q113.5307,104.5327,115.4877,105.20830000000001Q115.3587,105.325,115.2043,105.5123Q115.0498,105.6998,114.9125,105.8935Q114.7755,106.0872,114.6775,106.251Q113.305,105.6917,112.2962,104.739Q111.2875,103.786,110.6068,102.4712Q109.926,101.1565,109.5233,99.528L110.607,99.2975ZM108.936,91.587L110.1898,91.587L110.1898,96.905Q110.1898,97.84825000000001,110.0928,98.8622Q109.9958,99.876,109.7067,100.88550000000001Q109.418,101.8947,108.834,102.866Q108.25,103.837,107.2775,104.7108Q106.3053,105.58449999999999,104.8495,106.3178Q104.7678,106.179,104.615,105.9995Q104.4622,105.82,104.297,105.6467Q104.1318,105.4735,103.9902,105.357Q105.4175,104.7153,106.3408,103.9268Q107.2643,103.138,107.796,102.2582Q108.328,101.3783,108.5697,100.4683Q108.8115,99.55799999999999,108.8737,98.6547Q108.936,97.75125,108.936,96.90875L108.936,91.587ZM117.0882,94.3305L130.97050000000002,94.3305L130.97050000000002,95.4935L117.0882,95.4935L117.0882,94.3305ZM122.0953,98.05969999999999L128.489,98.05969999999999L128.489,99.226L122.0953,99.226L122.0953,98.05969999999999ZM128.1608,98.05969999999999L129.4118,98.05969999999999Q129.4118,98.05969999999999,129.40370000000001,98.1675Q129.3958,98.275,129.39249999999998,98.4095Q129.3895,98.5437,129.3672,98.639Q129.20999999999998,100.91,129.034,102.31530000000001Q128.858,103.7205,128.63569999999999,104.4753Q128.4135,105.23,128.0908,105.549Q127.8175,105.8507,127.495,105.9615Q127.1728,106.0723,126.711,106.107Q126.2832,106.1418,125.5508,106.12219999999999Q124.8185,106.1028,124.0088,106.0575Q123.9928,105.7895,123.8795,105.4555Q123.7665,105.1215,123.5803,104.882Q124.445,104.95570000000001,125.205,104.9767Q125.965,104.9975,126.2905,104.9975Q126.5563,104.9975,126.7305,104.9625Q126.9048,104.9272,127.0515,104.809Q127.3013,104.5815,127.4997,103.863Q127.6985,103.1442,127.862,101.7793Q128.0255,100.414,128.1608,98.2652L128.1608,98.05969999999999ZM121.4765,95.02175L122.7962,95.02175Q122.7323,96.276,122.6025,97.5725Q122.4727,98.8687,122.178,100.1202Q121.8835,101.3717,121.3327,102.5175Q120.7822,103.6632,119.8795,104.634Q118.977,105.60470000000001,117.6233,106.31700000000001Q117.4843,106.0872,117.2288,105.8132Q116.9733,105.5395,116.7373,105.3633Q118.025,104.7205,118.868,103.83Q119.711,102.9392,120.2162,101.888Q120.7215,100.8368,120.972,99.681Q121.2225,98.525,121.3205,97.34225Q121.4187,96.15925,121.4765,95.02175ZM123.0468,91.912L124.1992,91.458Q124.529,92.025,124.8617,92.6895Q125.1947,93.35375,125.3672,93.83725L124.1483,94.3635Q123.9945,93.87375,123.6745,93.18275Q123.3545,92.4915,123.0468,91.912ZM139.36,99.988L140.564,99.988L140.564,106.2698L139.36,106.2698L139.36,99.988ZM133.28050000000002,92.7575L146.79399999999998,92.7575L146.79399999999998,95.06725L145.637,95.06725L145.637,93.77674999999999L134.40949999999998,93.77674999999999L134.40949999999998,95.06725L133.28050000000002,95.06725L133.28050000000002,92.7575ZM133.01819999999998,95.45975L147.034,95.45975L147.034,96.44175L133.01819999999998,96.44175L133.01819999999998,95.45975ZM132.838,101.31530000000001L147.19,101.31530000000001L147.19,102.3445L132.838,102.3445L132.838,101.31530000000001ZM138.926,101.8497L139.814,102.2603Q139.098,103.1027,138.03300000000002,103.8485Q136.96800000000002,104.594,135.7438,105.1635Q134.519,105.7332,133.29680000000002,106.0602Q133.221,105.91499999999999,133.08530000000002,105.7337Q132.9495,105.5527,132.8092,105.37780000000001Q132.66899999999998,105.2027,132.5362,105.086Q133.7558,104.8223,134.976,104.3315Q136.197,103.8407,137.23399999999998,103.199Q138.273,102.557,138.926,101.8497ZM141.047,101.831Q141.732,102.5515,142.791,103.1952Q143.85,103.8387,145.09,104.3232Q146.33100000000002,104.8078,147.55700000000002,105.0753Q147.434,105.19800000000001,147.28300000000002,105.3792Q147.131,105.5605,147,105.7448Q146.869,105.929,146.77800000000002,106.0868Q145.562,105.75,144.316,105.1772Q143.071,104.6045,141.987,103.851Q140.90300000000002,103.0972,140.164,102.2388L141.047,101.831ZM142.999,95.82775L144.098,96.16325Q143.527,97.25225,142.574,98.023Q141.62099999999998,98.7937,140.289,99.2965Q138.957,99.799,137.24099999999999,100.0955Q135.525,100.3918,133.4228,100.5483Q133.3595,100.3053,133.233,100.0352Q133.10680000000002,99.765,132.97050000000002,99.5752Q135.6618,99.434,137.65800000000002,99.0392Q139.654,98.6442,140.989,97.8635Q142.32299999999998,97.08275,142.999,95.82775ZM135.0383,98.1647L135.88479999999998,97.4045Q137.414,97.62225,138.925,97.9005Q140.435,98.17869999999999,141.846,98.4905Q143.257,98.80199999999999,144.488,99.12950000000001Q145.72,99.457,146.67000000000002,99.7735L145.663,100.6095Q144.476,100.1687,142.812,99.7295Q141.147,99.2902,139.163,98.8875Q137.179,98.4847,135.0383,98.1647ZM138.897,91.82575L139.904,91.4625Q140.167,91.81375,140.439,92.261Q140.712,92.70824999999999,140.86599999999999,93.01125L139.814,93.44475Q139.673,93.11225,139.405,92.65575Q139.137,92.19925,138.897,91.82575ZM135.0383,98.1647Q135.649,97.61175,136.328,96.9055Q137.00799999999998,96.19925,137.642,95.43075Q138.275,94.662,138.713,93.9785L139.799,94.3255Q139.326,95.0065,138.69299999999998,95.72175Q138.06,96.43675,137.41899999999998,97.07375Q136.777,97.7105,136.237,98.1647L135.0383,98.1647Z" fill="#9CA3AF" fill-opacity="1" style="mix-blend-mode:passthrough"/></g><rect x="24.5" y="76.5" width="431" height="127" rx="7.5" fill-opacity="0" stroke-opacity="1" stroke="#D1D5DB" fill="none" stroke-width="1" style="mix-blend-mode:passthrough"/></g></g><g><rect x="24" y="235" width="432" height="40" rx="0" fill="#000000" fill-opacity="0" style="mix-blend-mode:passthrough"/><g><rect x="311.96875" y="235" width="64.015625" height="40" rx="4" fill="#F3F4F6" fill-opacity="1" style="mix-blend-mode:passthrough"/><g><path d="M336.0675625,247.85925L342.0683625,247.85925L342.0683625,249.00075L336.0675625,249.00075L336.0675625,247.85925ZM341.6990625,247.85925L341.8913625,247.85925L342.0995625,247.81475L342.8465625,248.01675Q342.4513625,251.22075,341.5465625,253.6868Q340.6420625,256.1525,339.3375625,257.9082Q338.0333625,259.6637,336.4275625,260.7787Q336.2885625,260.5678,336.0628125,260.29970000000003Q335.8373125,260.0317,335.6448125,259.874Q337.1313125,258.9328,338.3698625,257.267Q339.6083625,255.6012,340.4750625,253.29Q341.3418625,250.9785,341.6990625,248.13425L341.6990625,247.85925ZM337.8888125,248.67675Q338.2603625,251.17225,338.9505625,253.3328Q339.6408625,255.493,340.7410625,257.1333Q341.8413625,258.7735,343.4500625,259.721Q343.3173625,259.82529999999997,343.1578625,259.989Q342.9985625,260.153,342.8533625,260.331Q342.7083625,260.509,342.6105625,260.6605Q340.9455625,259.5767,339.8105625,257.8405Q338.6755625,256.104,337.9698125,253.8287Q337.2640625,251.55325,336.8355625,248.847L337.8888125,248.67675ZM328.7390625,246.81575L336.0113125,246.81575L336.0113125,247.90375L328.7390625,247.90375L328.7390625,246.81575ZM330.4463125,250.133L334.4460625,250.133L334.4460625,251.18725L330.4463125,251.18725L330.4463125,250.133ZM330.4400625,253.4993L334.4958125,253.4993L334.4958125,254.55349999999999L330.4400625,254.55349999999999L330.4400625,253.4993ZM329.8193125,247.4035L330.9698125,247.4035L330.9698125,257.6823L329.8193125,257.815L329.8193125,247.4035ZM328.5895625,257.4148Q329.5328125,257.2832,330.7783125,257.094Q332.0238125,256.9047,333.4210625,256.6803Q334.8185625,256.4557,336.2035625,256.2345L336.2668125,257.2533Q334.9583125,257.503,333.6305625,257.7448Q332.3030625,257.9865,331.0860625,258.1945Q329.8693125,258.4025,328.8620625,258.5785L328.5895625,257.4148ZM333.6650625,247.391L334.8438125,247.391L334.8438125,260.7537L333.6650625,260.7537L333.6650625,247.391ZM350.8168625,253.4615L357.6715625,253.4615L357.6715625,254.5092L350.8168625,254.5092L350.8168625,253.4615ZM350.7778625,256.2448L357.6715625,256.2448L357.6715625,257.2828L350.7778625,257.2828L350.7778625,256.2448ZM357.7808625,246.501L358.9403625,246.963Q358.5235625,247.75875,358.0338625,248.57825Q357.5443625,249.39775,357.1105625,249.987L356.0935625,249.55349999999999Q356.3762625,249.1375,356.6910625,248.61275Q357.0060625,248.08775,357.3000625,247.52775Q357.5943625,246.96775,357.7808625,246.501ZM349.5958625,247.04425L350.6073625,246.59Q350.9503625,247.0415,351.2883625,247.57Q351.6265625,248.0985,351.8910625,248.60925Q352.1555625,249.11975,352.2870625,249.53575L351.2095625,250.06275Q351.0905625,249.653,350.8352625,249.1265Q350.5803625,248.59975,350.2595625,248.054Q349.9387625,247.50825,349.5958625,247.04425ZM350.0455625,250.6265L357.7265625,250.6265L357.7265625,251.75175L351.2245625,251.75175L351.2245625,260.7733L350.0455625,260.7733L350.0455625,250.6265ZM357.1327625,250.6265L358.30186249999997,250.6265L358.30186249999997,259.274Q358.30186249999997,259.765,358.1745625,260.0515Q358.0475625,260.33820000000003,357.6817625,260.493Q357.3225625,260.632,356.7075625,260.66179999999997Q356.0928625,260.6917,355.1773625,260.6917Q355.1425625,260.4522,355.0285625,260.1178Q354.9148625,259.7835,354.7883625,259.5405Q355.4768625,259.5627,356.0470625,259.5707Q356.6173625,259.5788,356.8030625,259.569Q357.1327625,259.553,357.1327625,259.2615L357.1327625,250.6265ZM353.6345625,246.048L354.8347625,246.048L354.8347625,251.32725L353.6345625,251.32725L353.6345625,246.048ZM345.3440625,247.0565L346.0537625,246.2345Q346.5497625,246.46825,347.0803625,246.79Q347.6110625,247.11175,348.0777625,247.44775Q348.5445625,247.78375,348.8352625,248.078L348.1015625,249.01125Q347.8198625,248.70725,347.3592625,248.357Q346.8988625,248.00675,346.3692625,247.65975Q345.8400625,247.3125,345.3440625,247.0565ZM344.5885625,251.3355L345.2757625,250.48775Q345.7780625,250.7215,346.3215625,251.04149999999998Q346.8653625,251.3615,347.3528625,251.69275Q347.8405625,252.02375,348.1410625,252.30825L347.4260625,253.254Q347.1283625,252.9632,346.6500625,252.6147Q346.1717625,252.26625,345.6313625,251.929Q345.0908625,251.5915,344.5885625,251.3355ZM345.0825625,259.8415Q345.4825625,259.214,345.9545625,258.351Q346.4265625,257.488,346.9128625,256.5245Q347.3990625,255.561,347.8080625,254.6462L348.7037625,255.371Q348.3323625,256.2253,347.8980625,257.151Q347.4640625,258.0767,347.0058625,258.9653Q346.5475625,259.8535,346.1253625,260.6173L345.0825625,259.8415Z" fill="#374151" fill-opacity="1" style="mix-blend-mode:passthrough"/></g></g><g><rect x="391.984375" y="235" width="64.015625" height="40" rx="4" fill="#3B82F6" fill-opacity="1" style="mix-blend-mode:passthrough"/><g><path d="M415.6401875,249.6205L415.6401875,250.9L420.9874875,250.9L420.9874875,249.6205L415.6401875,249.6205ZM415.6401875,247.49625L415.6401875,248.766L420.9874875,248.766L420.9874875,247.49625L415.6401875,247.49625ZM414.5431875,246.583L422.1379875,246.583L422.1379875,251.823L414.5431875,251.823L414.5431875,246.583ZM413.8151875,252.9792L423.0194875,252.9792L423.0194875,253.986L413.8151875,253.986L413.8151875,252.9792ZM417.7416875,253.4727L418.8699875,253.4727L418.8699875,260.0175L417.7416875,259.5553L417.7416875,253.4727ZM415.5996875,256.4163Q416.0191875,257.7413,416.7164375,258.39300000000003Q417.4136875,259.0448,418.3501875,259.2585Q419.2869875,259.4722,420.40398749999997,259.4722Q420.5559875,259.4722,420.9701875,259.4722Q421.3844875,259.4722,421.8981875,259.4722Q422.4119875,259.4722,422.8611875,259.4692Q423.3106875,259.466,423.5206875,259.4597Q423.4511875,259.586,423.3719875,259.77819999999997Q423.2929875,259.9708,423.2406875,260.174Q423.1886875,260.3775,423.1601875,260.5352L422.5006875,260.5352L420.3566875,260.5352Q419.3479875,260.5352,418.4994875,260.388Q417.6511875,260.241,416.9631875,259.8395Q416.2751875,259.4382,415.7506875,258.67719999999997Q415.2261875,257.9163,414.8616875,256.6985L415.5996875,256.4163ZM418.5184875,255.8637L422.2246875,255.8637L422.2246875,256.8555L418.5184875,256.8555L418.5184875,255.8637ZM414.8574375,254.7452L415.9579375,254.8745Q415.7214375,256.8495,415.0826875,258.327Q414.4441875,259.8043,413.3554375,260.7768Q413.2671875,260.6728,413.0966875,260.5355Q412.9261875,260.3985,412.7544375,260.2645Q412.5826875,260.1305,412.4596875,260.0548Q413.5271875,259.2087,414.0976875,257.8605Q414.6681875,256.512,414.8574375,254.7452ZM408.4524375,254.5632Q409.3821875,254.3127,410.6911875,253.9085Q412.0004375,253.5042,413.3496875,253.0837L413.5171875,254.178Q412.2824375,254.5887,411.0306875,254.9975Q409.7791875,255.4062,408.7566875,255.7332L408.4524375,254.5632ZM408.6319375,249.28475L413.5096875,249.28475L413.5096875,250.4075L408.6319375,250.4075L408.6319375,249.28475ZM410.6159375,246.07025L411.7324375,246.07025L411.7324375,259.2815Q411.7324375,259.77,411.6109375,260.0355Q411.4896875,260.3013,411.1909375,260.4465Q410.9079375,260.5915,410.4246875,260.6355Q409.9414375,260.6798,409.1769375,260.67Q409.1546875,260.4527,409.0549375,260.128Q408.9554375,259.8035,408.8351875,259.5605Q409.3559375,259.5765,409.7761875,259.5765Q410.1964375,259.5765,410.3404375,259.5667Q410.4941875,259.5667,410.5549375,259.5058Q410.6159375,259.445,410.6159375,259.2752L410.6159375,246.07025ZM434.4161875,252.6602L435.6261875,253.01Q434.7603875,255.21,433.3064875,256.7242Q431.8526875,258.2382,429.8829875,259.2178Q427.9131875,260.1973,425.4769875,260.8123Q425.4171875,260.6672,425.2861875,260.4638Q425.1553875,260.26030000000003,425.01018750000003,260.0585Q424.8651875,259.85699999999997,424.7386875,259.72429999999997Q427.1536875,259.2205,429.0586875,258.3322Q430.96398750000003,257.444,432.3216875,256.0542Q433.6794875,254.6642,434.4161875,252.6602ZM429.0826875,249.948L430.2484875,250.3985Q429.6981875,251.083,428.9864875,251.76925Q428.2748875,252.4555,427.5151875,253.0588Q426.7556875,253.6617,426.0551875,254.123Q425.9546875,254.0002,425.7796875,253.8315Q425.6046875,253.6628,425.4281875,253.4922Q425.2519875,253.3217,425.10688749999997,253.2272Q425.8233875,252.823,426.5561875,252.2925Q427.2891875,251.762,427.9504875,251.1595Q428.6116875,250.55675,429.0826875,249.948ZM429.6286875,252.75Q430.7466875,255.5165,433.1926875,257.2512Q435.6386875,258.986,439.3131875,259.5823Q439.1901875,259.705,439.0448875,259.9005Q438.8999875,260.096,438.7721875,260.3025Q438.6444875,260.509,438.5588875,260.6765Q436.0416875,260.1965,434.1061875,259.2043Q432.1706875,258.2118,430.7921875,256.6835Q429.4136875,255.155,428.5539875,253.091L429.6286875,252.75ZM425.0611875,248.27675L438.8939875,248.27675L438.8939875,249.446L425.0611875,249.446L425.0611875,248.27675ZM433.8764875,250.61475000000002L434.8186875,249.931Q435.5491875,250.42425,436.3411875,251.0375Q437.1331875,251.65075,437.8304875,252.2655Q438.5279875,252.88,438.9661875,253.392L437.9616875,254.18Q437.5581875,253.6645,436.8811875,253.0325Q436.2043875,252.4005,435.4166875,251.76375Q434.6291875,251.12675,433.8764875,250.61475000000002ZM430.6776875,246.3055L431.8083875,245.90825Q432.1479875,246.3875,432.4886875,246.98375Q432.8296875,247.57975,432.9896875,247.995L431.8088875,248.45875Q431.6614875,248.024,431.3409875,247.4155Q431.0206875,246.807,430.6776875,246.3055Z" fill="#FFFFFF" fill-opacity="1" style="mix-blend-mode:passthrough"/></g></g></g></g></svg>