<svg xmlns="http://www.w3.org/2000/svg" xmlns:xlink="http://www.w3.org/1999/xlink" fill="none" version="1.1" width="64.015625" height="40" viewBox="0 0 64.015625 40"><g><rect x="0" y="0" width="64.015625" height="40" rx="4" fill="#F3F4F6" fill-opacity="1" style="mix-blend-mode:passthrough"/><g><path d="M24.0988125,12.85925L30.0996125,12.85925L30.0996125,14.00075L24.0988125,14.00075L24.0988125,12.85925ZM29.7303125,12.85925L29.9226125,12.85925L30.130812499999998,12.81475L30.877812499999997,13.01675Q30.482612500000002,16.220750000000002,29.5778125,18.686799999999998Q28.6733125,21.1525,27.3688125,22.9082Q26.064612500000003,24.6637,24.4588125,25.7787Q24.319812499999998,25.5678,24.0940625,25.2997Q23.8685625,25.0317,23.6760625,24.874Q25.1625625,23.9328,26.4011125,22.267Q27.6396125,20.6012,28.5063125,18.29Q29.373112499999998,15.9785,29.7303125,13.13425L29.7303125,12.85925ZM25.9200625,13.67675Q26.2916125,16.17225,26.9818125,18.3328Q27.6721125,20.493000000000002,28.772312499999998,22.1333Q29.872612500000002,23.7735,31.4813125,24.721Q31.3486125,24.8253,31.1891125,24.989Q31.0298125,25.153,30.8846125,25.331Q30.7396125,25.509,30.6418125,25.6605Q28.9768125,24.5767,27.8418125,22.8405Q26.706812499999998,21.104,26.0010625,18.828699999999998Q25.2953125,16.55325,24.8668125,13.847000000000001L25.9200625,13.67675ZM16.7703125,11.815750000000001L24.042562500000003,11.815750000000001L24.042562500000003,12.903749999999999L16.7703125,12.903749999999999L16.7703125,11.815750000000001ZM18.4775625,15.133L22.4773125,15.133L22.4773125,16.18725L18.4775625,16.18725L18.4775625,15.133ZM18.4713125,18.499299999999998L22.5270625,18.499299999999998L22.5270625,19.5535L18.4713125,19.5535L18.4713125,18.499299999999998ZM17.8505625,12.403500000000001L19.0010625,12.403500000000001L19.0010625,22.682299999999998L17.8505625,22.814999999999998L17.8505625,12.403500000000001ZM16.6208125,22.4148Q17.5640625,22.2832,18.8095625,22.094Q20.0550625,21.9047,21.452312499999998,21.680300000000003Q22.8498125,21.4557,24.2348125,21.2345L24.2980625,22.2533Q22.989562499999998,22.503,21.6618125,22.744799999999998Q20.3343125,22.9865,19.1173125,23.194499999999998Q17.9005625,23.4025,16.8933125,23.5785L16.6208125,22.4148ZM21.6963125,12.391L22.8750625,12.391L22.8750625,25.7537L21.6963125,25.7537L21.6963125,12.391ZM38.8481125,18.4615L45.7028125,18.4615L45.7028125,19.5092L38.8481125,19.5092L38.8481125,18.4615ZM38.8091125,21.244799999999998L45.7028125,21.244799999999998L45.7028125,22.2828L38.8091125,22.2828L38.8091125,21.244799999999998ZM45.8121125,11.501000000000001L46.9716125,11.963000000000001Q46.5548125,12.75875,46.0651125,13.57825Q45.5756125,14.39775,45.1418125,14.987L44.124812500000004,14.5535Q44.407512499999996,14.1375,44.7223125,13.61275Q45.0373125,13.08775,45.331312499999996,12.527750000000001Q45.6256125,11.967749999999999,45.8121125,11.501000000000001ZM37.627112499999996,12.04425L38.6386125,11.59Q38.9816125,12.0415,39.319612500000005,12.57Q39.6578125,13.0985,39.922312500000004,13.60925Q40.1868125,14.11975,40.318312500000005,14.53575L39.240812500000004,15.062750000000001Q39.121812500000004,14.652999999999999,38.8665125,14.1265Q38.6116125,13.59975,38.2908125,13.054Q37.970012499999996,12.50825,37.627112499999996,12.04425ZM38.0768125,15.6265L45.7578125,15.6265L45.7578125,16.75175L39.255812500000005,16.75175L39.255812500000005,25.7733L38.0768125,25.7733L38.0768125,15.6265ZM45.1640125,15.6265L46.3331125,15.6265L46.3331125,24.274Q46.3331125,24.765,46.2058125,25.0515Q46.0788125,25.3382,45.713012500000005,25.493Q45.353812500000004,25.632,44.7388125,25.6618Q44.124112499999995,25.6917,43.2086125,25.6917Q43.1738125,25.4522,43.0598125,25.1178Q42.9461125,24.7835,42.819612500000005,24.5405Q43.508112499999996,24.5627,44.078312499999996,24.5707Q44.6486125,24.5788,44.834312499999996,24.569Q45.1640125,24.553,45.1640125,24.2615L45.1640125,15.6265ZM41.6658125,11.048L42.8660125,11.048L42.8660125,16.32725L41.6658125,16.32725L41.6658125,11.048ZM33.3753125,12.0565L34.085012500000005,11.2345Q34.5810125,11.46825,35.1116125,11.79Q35.6423125,12.11175,36.1090125,12.44775Q36.5758125,12.783750000000001,36.8665125,13.078L36.1328125,14.01125Q35.8511125,13.70725,35.3905125,13.357Q34.9301125,13.00675,34.400512500000005,12.659749999999999Q33.8713125,12.3125,33.3753125,12.0565ZM32.619812499999995,16.3355L33.3070125,15.48775Q33.809312500000004,15.7215,34.3528125,16.0415Q34.8966125,16.3615,35.3841125,16.69275Q35.871812500000004,17.02375,36.172312500000004,17.30825L35.4573125,18.253999999999998Q35.1596125,17.9632,34.681312500000004,17.6147Q34.2030125,17.26625,33.6626125,16.929000000000002Q33.1221125,16.5915,32.619812499999995,16.3355ZM33.1138125,24.8415Q33.5138125,24.214,33.9858125,23.351Q34.4578125,22.488,34.9441125,21.5245Q35.4303125,20.561,35.8393125,19.6462L36.735012499999996,20.371000000000002Q36.3636125,21.2253,35.9293125,22.151Q35.4953125,23.076700000000002,35.0371125,23.9653Q34.5788125,24.8535,34.1566125,25.6173L33.1138125,24.8415Z" fill="#374151" fill-opacity="1" style="mix-blend-mode:passthrough"/></g></g></svg>