<svg xmlns="http://www.w3.org/2000/svg" xmlns:xlink="http://www.w3.org/1999/xlink" fill="none" version="1.1" width="502" height="371" viewBox="0 0 502 371"><defs><filter id="master_svg0_14_5478" filterUnits="objectBoundingBox" color-interpolation-filters="sRGB" x="-0.0375" y="-0.034383954154727794" width="1.0458333333333334" height="1.0630372492836677"><feFlood flood-opacity="0" result="BackgroundImageFix"/><feColorMatrix in="SourceAlpha" type="matrix" values="0 0 0 0 0 0 0 0 0 0 0 0 0 0 0 0 0 0 127 0"/><feMorphology radius="-1" operator="dilate" in="SourceAlpha" result="effect1_dropShadow"/><feOffset dy="2" dx="0"/><feGaussianBlur stdDeviation="2"/><feColorMatrix type="matrix" values="0 0 0 0 0 0 0 0 0 0 0 0 0 0 0 0 0 0 0.05999999865889549 0"/><feBlend mode="normal" in2="BackgroundImageFix" result="effect1_dropShadow"/><feColorMatrix in="SourceAlpha" type="matrix" values="0 0 0 0 0 0 0 0 0 0 0 0 0 0 0 0 0 0 127 0"/><feMorphology radius="-1" operator="dilate" in="SourceAlpha" result="effect2_dropShadow"/><feOffset dy="4" dx="0"/><feGaussianBlur stdDeviation="3"/><feColorMatrix type="matrix" values="0 0 0 0 0 0 0 0 0 0 0 0 0 0 0 0 0 0 0.10000000149011612 0"/><feBlend mode="normal" in2="effect1_dropShadow" result="effect2_dropShadow"/><feBlend mode="normal" in="SourceGraphic" in2="effect2_dropShadow" result="shape"/></filter><clipPath id="master_svg1_14_5478"><rect x="11" y="7" width="480" height="349" rx="12"/></clipPath><clipPath id="master_svg2_14_5502"><rect x="35" y="92" width="432" height="160" rx="8"/></clipPath></defs><g filter="url(#master_svg0_14_5478)"><g clip-path="url(#master_svg1_14_5478)"><rect x="11" y="7" width="480" height="349" rx="12" fill="#FFFFFF" fill-opacity="1" style="mix-blend-mode:passthrough"/><rect x="11" y="7" width="480" height="349" rx="12" fill="#000000" fill-opacity="0.0010000000474974513" style="mix-blend-mode:passthrough"/><g><rect x="11" y="7" width="480" height="61" rx="0" fill="#000000" fill-opacity="0" style="mix-blend-mode:passthrough"/><path d="M491,68L491,67L11,67L11,68L491,68Z" fill-rule="evenodd" fill="#E5E7EB" fill-opacity="1" style="mix-blend-mode:passthrough"/><g><rect x="35" y="23" width="432" height="28" rx="0" fill="#000000" fill-opacity="0" style="mix-blend-mode:passthrough"/><g><path d="M197.890719,34.2211L214.1877,34.2211L214.1877,35.8923L197.890719,35.8923L197.890719,34.2211ZM198.99237,28.975189999999998L213.1783,28.975189999999998L213.1783,30.64413L198.99237,30.64413L198.99237,28.975189999999998ZM206.14034,35.5812L207.9223,35.5812L207.9223,41.6306Q207.9223,42.128699999999995,208.1088,42.2718Q208.2953,42.414699999999996,208.934,42.414699999999996Q209.0817,42.414699999999996,209.4492,42.414699999999996Q209.8168,42.414699999999996,210.2598,42.414699999999996Q210.7031,42.414699999999996,211.0915,42.414699999999996Q211.4799,42.414699999999996,211.6692,42.414699999999996Q212.0803,42.414699999999996,212.291,42.215Q212.5017,42.015100000000004,212.5855,41.4146Q212.6693,40.814099999999996,212.7154,39.6188Q212.9162,39.7637,213.2028,39.908500000000004Q213.4894,40.0531,213.805,40.164699999999996Q214.1208,40.276399999999995,214.3542,40.334599999999995Q214.2496,41.8078,214.0049,42.6265Q213.7603,43.444900000000004,213.2399,43.7642Q212.7196,44.0837,211.8002,44.0837Q211.6722,44.0837,211.3589,44.0837Q211.0456,44.0837,210.653,44.0837Q210.2604,44.0837,209.8635,44.0837Q209.4667,44.0837,209.1573,44.0837Q208.8482,44.0837,208.7281,44.0837Q207.7058,44.0837,207.1405,43.8595Q206.57516,43.6356,206.35775,43.1057Q206.14034,42.575900000000004,206.14034,41.642700000000005L206.14034,35.5812ZM204.84884,29.64119L206.59259,29.64119Q206.54647,30.994,206.45647,32.40644Q206.36647,33.8186,206.12347,35.2265Q205.88047,36.6345,205.38041,37.9814Q204.88034,39.328,204.03828,40.5309Q203.19622,41.7335,201.90809,42.7494Q200.62025,43.765299999999996,198.782,44.5078Q198.59919,44.1756,198.27941,43.766400000000004Q197.959625,43.3572,197.62775,43.0937Q199.39541,42.4296,200.61012,41.515299999999996Q201.82484,40.600899999999996,202.60728,39.5069Q203.39,38.412800000000004,203.83156,37.1928Q204.27341,35.9727,204.47703,34.6927Q204.68094,33.4125,204.74675,32.13081Q204.81284,30.84916,204.84884,29.64119ZM216.7058,29.24294L217.64679999999998,27.99813Q218.2285,28.22988,218.8753,28.54797Q219.5222,28.86578,220.1134,29.20666Q220.7046,29.547530000000002,221.0826,29.85353L220.09120000000001,31.26681Q219.7332,30.94281,219.16219999999998,30.57381Q218.5913,30.204810000000002,217.9483,29.85381Q217.3054,29.50281,216.7058,29.24294ZM215.7006,34.1145L216.6093,32.84153Q217.1752,33.0632,217.8212,33.3711Q218.4675,33.6788,219.0466,34.010999999999996Q219.626,34.3428,219.9984,34.6488L219.0472,36.0663Q218.69729999999998,35.7603,218.1281,35.4043Q217.5588,35.0482,216.9215,34.707300000000004Q216.2845,34.3665,215.7006,34.1145ZM216.3168,43.1361Q216.8028,42.4544,217.3996,41.505700000000004Q217.9967,40.5571,218.6087,39.4855Q219.2207,38.4137,219.7447,37.385400000000004L220.9898,38.5138Q220.52179999999998,39.4577,219.9719,40.4721Q219.4224,41.486599999999996,218.8596,42.4583Q218.2968,43.4298,217.7548,44.290400000000005L216.3168,43.1361ZM225.6121,27.80013L227.3337,27.80013L227.3337,36.3257L225.6121,36.3257L225.6121,27.80013ZM221.1144,35.275800000000004L231.9071,35.275800000000004L231.9071,36.8865L221.1144,36.8865L221.1144,35.275800000000004ZM221.8774,30.72316L231.2079,30.72316L231.2079,32.33388L221.8774,32.33388L221.8774,30.72316ZM227.6267,39.2616L229.0003,38.597899999999996Q229.63400000000001,39.3797,230.2454,40.300799999999995Q230.8572,41.2217,231.3569,42.1166Q231.8567,43.0115,232.1042,43.7358L230.5936,44.5041Q230.3664,43.7999,229.9006,42.8858Q229.4352,41.9718,228.83859999999999,41.022800000000004Q228.2424,40.073899999999995,227.6267,39.2616ZM222.0487,43.9743L221.9882,42.6248L222.8997,42.0626L229.9667,41.2799Q229.9566,41.6196,229.9926,42.0573Q230.02859999999998,42.4946,230.0668,42.766Q228.08089999999999,43.0138,226.7329,43.1837Q225.3852,43.3535,224.5316,43.4745Q223.6782,43.5954,223.2001,43.677499999999995Q222.722,43.759699999999995,222.4647,43.8297Q222.2073,43.9,222.0487,43.9743ZM222.0487,43.9743Q222.0085,43.7912,221.9069,43.4815Q221.8054,43.1721,221.6836,42.8414Q221.5621,42.5103,221.4555,42.2772Q221.7523,42.2007,222.0251,41.902Q222.2979,41.603300000000004,222.6278,41.0993Q222.8055,40.865300000000005,223.1321,40.3113Q223.4586,39.7572,223.8537,39.0012Q224.2492,38.2452,224.6432,37.3711Q225.0375,36.4969,225.3508,35.6149L227.1852,36.2016Q226.6381,37.4459,225.9775,38.6834Q225.3168,39.9206,224.6061,41.0231Q223.8957,42.125299999999996,223.19,43.009299999999996L223.19,43.0475Q223.19,43.0475,223.017,43.140100000000004Q222.8443,43.232600000000005,222.6193,43.3822Q222.3943,43.5321,222.2214,43.690799999999996Q222.0487,43.8497,222.0487,43.9743ZM237.15800000000002,33.0654L246.7548,33.0654L246.7548,34.6356L237.15800000000002,34.6356L237.15800000000002,33.0654ZM233.9793,36.399100000000004L250.0151,36.399100000000004L250.0151,37.999700000000004L233.9793,37.999700000000004L233.9793,36.399100000000004ZM238.68880000000001,37.5007L240.4284,37.5007Q240.3505,38.9897,240.1027,40.134100000000004Q239.8552,41.2785,239.2572,42.1304Q238.6593,42.982,237.54579999999999,43.5709Q236.4324,44.1599,234.6107,44.5278Q234.5522,44.3047,234.3984,44.0412Q234.2448,43.777699999999996,234.0609,43.5192Q233.8769,43.2607,233.7121,43.0937Q235.3262,42.8043,236.2929,42.3531Q237.2595,41.902,237.7548,41.241299999999995Q238.2504,40.5807,238.43970000000002,39.655699999999996Q238.6289,38.7303,238.68880000000001,37.5007ZM243.242,37.348L244.9635,37.348L244.9635,42.0516Q244.9635,42.4544,245.107,42.5663Q245.2507,42.678200000000004,245.76760000000002,42.678200000000004Q245.8894,42.678200000000004,246.1791,42.678200000000004Q246.4691,42.678200000000004,246.8226,42.678200000000004Q247.1761,42.678200000000004,247.4877,42.678200000000004Q247.7997,42.678200000000004,247.9552,42.678200000000004Q248.2705,42.678200000000004,248.433,42.522400000000005Q248.5959,42.366299999999995,248.6628,41.8688Q248.7298,41.371300000000005,248.7579,40.3785Q248.9488,40.5132,249.2202,40.644Q249.4917,40.7745,249.78719999999998,40.876000000000005Q250.0828,40.9775,250.3059,41.0436Q250.21949999999998,42.3067,249.9926,43.007000000000005Q249.7659,43.7076,249.3226,43.9768Q248.8797,44.2462,248.1042,44.2462Q247.9557,44.2462,247.6036,44.2462Q247.2518,44.2462,246.8279,44.2462Q246.4044,44.2462,246.0472,44.2462Q245.69,44.2462,245.5516,44.2462Q244.62720000000002,44.2462,244.1288,44.0493Q243.6307,43.8525,243.43630000000002,43.372699999999995Q243.242,42.8928,243.242,42.061800000000005L243.242,37.348ZM234.3818,29.77366L249.57240000000002,29.77366L249.57240000000002,33.9913L247.8025,33.9913L247.8025,31.412219999999998L236.0808,31.412219999999998L236.0808,33.9913L234.3818,33.9913L234.3818,29.77366ZM240.4405,28.12834L242.1744,27.62378Q242.54,28.21975,242.88060000000002,28.94088Q243.2212,29.662,243.3787,30.18822L241.5444,30.74931Q241.4167,30.24306,241.1053,29.49297Q240.79399999999998,28.74259,240.4405,28.12834ZM254.1624,34.562200000000004L258.4967,34.562200000000004L258.4967,36.1305L254.1624,36.1305L254.1624,34.562200000000004ZM257.8392,34.562200000000004L259.4904,34.562200000000004Q259.4904,34.562200000000004,259.4904,34.6857Q259.4904,34.809200000000004,259.4853,34.9698Q259.4802,35.1303,259.4802,35.234700000000004Q259.4462,37.2054,259.3883,38.4432Q259.3303,39.6807,259.2212,40.3411Q259.1124,41.0012,258.9121,41.2577Q258.6795,41.5507,258.41089999999997,41.673100000000005Q258.1423,41.7954,257.7523,41.8536Q257.4001,41.902,256.8323,41.9042Q256.2647,41.9062,255.61079999999998,41.8826Q255.5928,41.5125,255.466,41.061099999999996Q255.3394,40.609700000000004,255.1465,40.2899Q255.7031,40.3416,256.1896,40.3557Q256.6765,40.3698,256.9003,40.3698Q257.08820000000003,40.3698,257.2221,40.327799999999996Q257.3563,40.2857,257.45640000000003,40.167500000000004Q257.588,40.0078,257.6577,39.4613Q257.7278,38.9148,257.77049999999997,37.8022Q257.8133,36.6893,257.8392,34.8294L257.8392,34.562200000000004ZM263.0493,28.80672L264.0787,27.771160000000002Q264.6181,28.03694,265.2124,28.39384Q265.8067,28.75047,266.3363,29.10738Q266.8659,29.464,267.2037,29.77788L266.1214,30.92988Q265.8039,30.616,265.2855,30.23519Q264.7672,29.85438,264.1816,29.47863Q263.5963,29.10259,263.0493,28.80672ZM265.43600000000004,33.5838L267.1474,34Q266.0078,37.5179,264.0241,40.156Q262.0405,42.7941,259.3174,44.4344Q259.2007,44.249300000000005,258.97339999999997,43.986599999999996Q258.74649999999997,43.724199999999996,258.508,43.4618Q258.2697,43.1994,258.0768,43.0346Q260.7552,41.603300000000004,262.6069,39.1899Q264.45889999999997,36.7762,265.43600000000004,33.5838ZM254.2723,30.706L268.1878,30.706L268.1878,32.37719L254.2723,32.37719L254.2723,30.706ZM253.1499,30.706L254.9296,30.706L254.9296,35.8785Q254.9296,36.8592,254.8576,38.0112Q254.7856,39.1632,254.5865,40.3602Q254.3877,41.5572,254.0046,42.6709Q253.6215,43.7847,253.0017,44.6791Q252.8647,44.5041,252.5922,44.2746Q252.3196,44.0454,252.042,43.835Q251.7647,43.6249,251.5617,43.5285Q252.2909,42.4347,252.62369999999999,41.097899999999996Q252.9564,39.7608,253.0531,38.3957Q253.1499,37.0305,253.1499,35.8605L253.1499,30.706ZM260.558,27.826L262.3378,27.826Q262.3155,30.19469,262.495,32.38816Q262.67470000000003,34.5816,263.0181,36.4494Q263.3618,38.3172,263.8357,39.7074Q264.30989999999997,41.0976,264.8876,41.8733Q265.4655,42.648700000000005,266.0896,42.648700000000005Q266.4468,42.648700000000005,266.62850000000003,41.8922Q266.8105,41.1353,266.8825,39.3862Q267.1741,39.67,267.5892,39.9386Q268.00440000000003,40.2072,268.3441,40.3337Q268.2015,41.9293,267.9315,42.813Q267.6615,43.6964,267.1882,44.0412Q266.71479999999997,44.385999999999996,265.9529,44.385999999999996Q265.0164,44.385999999999996,264.2508,43.752300000000005Q263.4855,43.118700000000004,262.8893,41.972899999999996Q262.2933,40.8271,261.86220000000003,39.2723Q261.43129999999996,37.7173,261.14549999999997,35.8658Q260.8598,34.0143,260.7178,31.974719999999998Q260.576,29.93481,260.558,27.826ZM270.7885,29.160249999999998L271.9326,28.13284Q272.41859999999997,28.55669,272.96680000000003,29.071939999999998Q273.5152,29.58719,274.00149999999996,30.08556Q274.4877,30.583660000000002,274.778,30.98388L273.5633,32.17188Q273.28319999999997,31.76378,272.8168,31.237560000000002Q272.3508,30.71106,271.8125,30.15784Q271.2745,29.60434,270.7885,29.160249999999998ZM269.7445,33.4088L273.1732,33.4088L273.1732,35.077799999999996L269.7445,35.077799999999996L269.7445,33.4088ZM272.0327,44.0108L271.6418,42.3137L272.0586,41.672200000000004L275.8358,38.9283Q275.9019,39.1716,276.0045,39.4655Q276.10720000000003,39.7592,276.2186,40.0328Q276.3302,40.3065,276.41880000000003,40.4814Q275.0955,41.4672,274.2805,42.0955Q273.4654,42.7235,273.0146,43.0903Q272.56399999999996,43.457300000000004,272.35450000000003,43.658699999999996Q272.1449,43.860299999999995,272.0327,44.0108ZM272.0327,44.0108Q271.95619999999997,43.787800000000004,271.7875,43.4899Q271.6187,43.1924,271.4297,42.9007Q271.2407,42.6091,271.0677,42.4341Q271.2745,42.3036,271.5369,42.0494Q271.7993,41.794799999999995,271.9953,41.4413Q272.1916,41.0878,272.1916,40.6794L272.1916,33.4088L273.9132,33.4088L273.9132,42.102199999999996Q273.9132,42.102199999999996,273.7244,42.233599999999996Q273.536,42.3649,273.257,42.5818Q272.978,42.7983,272.6939,43.053200000000004Q272.4099,43.3083,272.2212,43.5591Q272.0327,43.81,272.0327,44.0108ZM276.52819999999997,28.45516L277.9764,27.85188Q278.4984,28.55163,278.9892,29.40072Q279.48019999999997,30.24953,279.6864,30.89163L278.1218,31.56916Q278.0157,31.145310000000002,277.7609,30.60138Q277.5061,30.05716,277.188,29.49522Q276.8702,28.93328,276.52819999999997,28.45516ZM282.7492,27.83022L284.5433,28.36881Q284.0868,29.38553,283.5806,30.42138Q283.07460000000003,31.45694,282.6268,32.198589999999996L281.1205,31.67238Q281.4062,31.15038,281.71389999999997,30.48156Q282.0219,29.81247,282.2924,29.11553Q282.5633,28.418590000000002,282.7492,27.83022ZM277.4909,32.92141L277.4909,35.805099999999996L283.1553,35.805099999999996L283.1553,32.92141L277.4909,32.92141ZM275.8422,31.411659999999998L284.8746,31.411659999999998L284.8746,37.3227L275.8422,37.3227L275.8422,31.411659999999998ZM278.0087,36.9658L279.7258,36.9658Q279.63800000000003,38.2891,279.415,39.432900000000004Q279.1922,40.576499999999996,278.7343,41.527699999999996Q278.2765,42.4788,277.4502,43.225Q276.6241,43.971199999999996,275.3115,44.5176Q275.1667,44.2161,274.8643,43.826899999999995Q274.562,43.4376,274.2906,43.214600000000004Q275.4463,42.774699999999996,276.1485,42.1562Q276.8508,41.537800000000004,277.2291,40.7525Q277.6077,39.9673,277.773,39.0178Q277.9387,38.068,278.0087,36.9658ZM281.13710000000003,36.812200000000004L282.8161,36.812200000000004L282.8161,42.1172Q282.8161,42.495999999999995,282.8907,42.595Q282.9652,42.694,283.2417,42.694Q283.2993,42.694,283.4489,42.694Q283.5988,42.694,283.7853,42.694Q283.97180000000003,42.694,284.1293,42.694Q284.2871,42.694,284.3605,42.694Q284.5478,42.694,284.6412,42.551100000000005Q284.7348,42.4083,284.7826,41.9397Q284.8307,41.4708,284.8408,40.5253Q285.02139999999997,40.66,285.2827,40.7958Q285.5443,40.9314,285.8306,41.0329Q286.1172,41.1345,286.3483,41.2008Q286.2721,42.406,286.0772,43.0827Q285.8826,43.759699999999995,285.51869999999997,44.0209Q285.1547,44.2822,284.5377,44.2822Q284.4353,44.2822,284.2182,44.2822Q284.0013,44.2822,283.75239999999997,44.2822Q283.5038,44.2822,283.2867,44.2822Q283.0695,44.2822,282.9593,44.2822Q282.2213,44.2822,281.82640000000004,44.085300000000004Q281.4315,43.8885,281.2842,43.420500000000004Q281.13710000000003,42.9525,281.13710000000003,42.1374L281.13710000000003,36.812200000000004ZM289.2702,28.85284L294.4382,28.85284L294.4382,39.7364L289.2702,39.7364L289.2702,38.1681L292.8579,38.1681L292.8579,30.41069L289.2702,30.41069L289.2702,28.85284ZM289.2902,33.4527L293.5067,33.4527L293.5067,34.9827L289.2902,34.9827L289.2902,33.4527ZM296.9352,28.55753L302.755,28.55753L302.755,30.13788L296.9352,30.13788L296.9352,28.55753ZM296.9352,32.89272L302.755,32.89272L302.755,34.4328L296.9352,34.4328L296.9352,32.89272ZM296.8483,37.2428L302.731,37.2428L302.731,38.7829L296.8483,38.7829L296.8483,37.2428ZM288.3537,28.85284L289.94190000000003,28.85284L289.94190000000003,41.3648L288.3537,41.3648L288.3537,28.85284ZM302.124,28.55753L303.813,28.55753L303.813,42.4341Q303.813,43.1583,303.623,43.5619Q303.43399999999997,43.9655,302.961,44.176500000000004Q302.478,44.3795,301.702,44.433800000000005Q300.927,44.4884,299.779,44.4884Q299.741,44.2549,299.645,43.949200000000005Q299.548,43.6438,299.428,43.3482Q299.307,43.0526,299.172,42.8315Q299.71500000000003,42.8495,300.23,42.854600000000005Q300.744,42.859700000000004,301.137,42.8557Q301.53,42.8518,301.68399999999997,42.8518Q301.93600000000004,42.843599999999995,302.03,42.748000000000005Q302.124,42.652100000000004,302.124,42.4257L302.124,28.55753ZM295.9215,28.55753L297.593,28.55753L297.593,35.0268Q297.593,36.175200000000004,297.461,37.4709Q297.328,38.7663,296.9481,40.0621Q296.5681,41.3578,295.8217,42.537099999999995Q295.07550000000003,43.716300000000004,293.8473,44.6402Q293.7205,44.4673,293.491,44.244Q293.2617,44.0209,293.0137,43.8078Q292.7659,43.5948,292.58,43.488299999999995Q293.7219,42.630700000000004,294.3918,41.596000000000004Q295.0618,40.5613,295.3936,39.4357Q295.7258,38.3099,295.82370000000003,37.1888Q295.9215,36.0678,295.9215,35.0167L295.9215,28.55753Z" fill="#111827" fill-opacity="1" style="mix-blend-mode:passthrough"/></g></g></g><g><rect x="11" y="68" width="480" height="215" rx="0" fill="#000000" fill-opacity="0" style="mix-blend-mode:passthrough"/><g clip-path="url(#master_svg2_14_5502)"><rect x="35" y="92" width="432" height="160" rx="8" fill="#FFFFFF" fill-opacity="1" style="mix-blend-mode:passthrough"/><g><path d="M52.49625,112.19703L53.17481,111.55434Q53.54428,111.86234,53.95094,112.23466Q54.35781,112.60675,54.72116,112.97031Q55.0845,113.33387,55.30238,113.61628L54.591,114.36725Q54.37553,114.07084,54.02028,113.69066Q53.66525,113.31025,53.26538,112.91584Q52.86572,112.52144,52.49625,112.19703ZM53.569,123.8671L53.37475,122.8762L53.65891,122.4304L56.15003,120.5684Q56.20538,120.7779,56.31169,121.0398Q56.418,121.30160000000001,56.50375,121.4558Q55.62066,122.146,55.07181,122.5688Q54.52297,122.9917,54.22569,123.2371Q53.92841,123.4828,53.78906,123.6219Q53.64994,123.7612,53.569,123.8671ZM51.582313,115.63316L54.29131,115.63316L54.29131,116.64816L51.582313,116.64816L51.582313,115.63316ZM53.569,123.8671Q53.52459,123.7402,53.42638,123.5692Q53.32838,123.3981,53.22053,123.2325Q53.11269,123.0672,53.01294,122.9705Q53.20522,122.8482,53.44738,122.5398Q53.689750000000004,122.2313,53.689750000000004,121.77L53.689750000000004,115.63316L54.69622,115.63316L54.69622,122.6566Q54.69622,122.6566,54.52691,122.7874Q54.35759,122.9182,54.1325,123.1111Q53.90763,123.3043,53.73831,123.5082Q53.569,123.7122,53.569,123.8671ZM57.682159999999996,119.2858L62.5892,119.2858L62.5892,120.0335L57.682159999999996,120.0335L57.682159999999996,119.2858ZM56.35019,112.339L64.0117,112.339L64.0117,113.13809L56.35019,113.13809L56.35019,112.339ZM56.69625,114.03716L63.5832,114.03716L63.5832,114.80344L56.69625,114.80344L56.69625,114.03716ZM55.93325,115.77928L64.4341,115.77928L64.4341,116.58384L55.93325,116.58384L55.93325,115.77928ZM57.66575,121.1767L62.6154,121.1767L62.6154,121.9461L57.66575,121.9461L57.66575,121.1767ZM56.93403,117.40284L62.627,117.40284L62.627,118.2183L57.92191,118.2183L57.92191,124.1018L56.93403,124.1018L56.93403,117.40284ZM62.3087,117.40284L63.313,117.40284L63.313,122.9431Q63.313,123.334,63.2087,123.5583Q63.1043,123.7827,62.807,123.9017Q62.5152,124.0178,62.0261,124.0428Q61.5372,124.0677,60.79213,124.0592Q60.76172,123.8689,60.67181,123.60679999999999Q60.58191,123.34479999999999,60.48216,123.1483Q61.016999999999996,123.1678,61.4668,123.1719Q61.9167,123.1763,62.0567,123.1678Q62.3087,123.1593,62.3087,122.9267L62.3087,117.40284ZM59.59447,111.23497L60.63681,111.23497L60.63681,116.03325L59.59447,116.03325L59.59447,111.23497ZM65.6536,112.91541L70.1312,112.91541L70.1312,113.87594L65.6536,113.87594L65.6536,112.91541ZM68.0693,115.09678L68.9861,115.09678L68.9861,124.1001L68.0693,124.1001L68.0693,115.09678ZM65.586,120.66290000000001Q66.4503,120.4942,67.6412,120.2147Q68.8323,119.9351,70.07130000000001,119.6514L70.1516,120.5371Q69.01820000000001,120.8372,67.8825,121.1306Q66.7469,121.4237,65.8243,121.6508L65.586,120.66290000000001ZM65.9914,118.3802Q65.9664,118.2805,65.9111,118.1173Q65.8558,117.95409000000001,65.7949,117.78434Q65.7343,117.61437,65.679,117.49844Q65.8518,117.45403,65.9903,117.13728Q66.1287,116.82031,66.27420000000001,116.34431000000001Q66.3527,116.11178,66.4958,115.59116Q66.6389,115.07031,66.8045,114.36222Q66.9701,113.65391,67.1147,112.85044Q67.2593,112.04697,67.32679999999999,111.2575L68.3068,111.41872Q68.1443,112.53478,67.8787,113.68759Q67.6132,114.84041,67.2888,115.90112Q66.9644,116.96162,66.6089,117.81234L66.6089,117.83181Q66.6089,117.83181,66.5146,117.88716Q66.4203,117.9425,66.3,118.0298Q66.1797,118.1168,66.08539999999999,118.2096Q65.9914,118.3023,65.9914,118.3802ZM65.9914,118.3802L65.9914,117.49603L66.5448,117.22434L70.1069,117.22434L70.1069,118.1818L66.9583,118.1818Q66.6247,118.1818,66.3484,118.2378Q66.0723,118.2938,65.9914,118.3802ZM71.6719,114.68794L76.8633,114.68794L76.8633,115.55266L71.6719,115.55266L71.6719,114.68794ZM70.8142,116.47512L73.8817,116.47512L73.8817,117.32081L71.6789,117.32081L71.6789,124.069L70.8142,124.069L70.8142,116.47512ZM73.60300000000001,116.47512L74.4793,116.47512L74.4793,123.0101Q74.4793,123.3487,74.4054,123.555Q74.3314,123.7615,74.1118,123.8807Q73.89789999999999,123.9857,73.5697,124.0133Q73.2418,124.041,72.7838,124.041Q72.7698,123.8588,72.6934,123.6029Q72.6171,123.3472,72.51429999999999,123.1617Q72.8378,123.1757,73.09440000000001,123.1757Q73.351,123.1757,73.449,123.1757Q73.60300000000001,123.1671,73.60300000000001,123.0077L73.60300000000001,116.47512ZM71.4282,118.4257L74.2146,118.4257L74.2146,119.2333L71.4282,119.2333L71.4282,118.4257ZM71.41720000000001,120.3872L74.2037,120.3872L74.2037,121.1863L71.41720000000001,121.1863L71.41720000000001,120.3872ZM75.2771,116.73522L76.0981,116.73522L76.0981,121.8072L75.2771,121.8072L75.2771,116.73522ZM77.05199999999999,116.22334000000001L77.9034,116.22334000000001L77.9034,122.9243Q77.9034,123.3019,77.8142,123.511Q77.7251,123.7201,77.45830000000001,123.8393Q77.2052,123.9443,76.7854,123.9719Q76.3656,123.9997,75.7424,123.9997Q75.71770000000001,123.8175,75.64,123.5701Q75.5626,123.3229,75.4598,123.1319Q75.9419,123.1459,76.3249,123.1459Q76.7082,123.1459,76.8396,123.1374Q77.05199999999999,123.1288,77.05199999999999,122.9274L77.05199999999999,116.22334000000001ZM74.2212,111.19428L75.0822,111.57775Q74.5686,112.39216,73.8432,113.15122Q73.1178,113.91028,72.2772,114.54225Q71.4367,115.174,70.5523,115.622Q70.43639999999999,115.43737,70.2485,115.21272Q70.0608,114.98784,69.8676,114.83341Q70.7162,114.43769,71.543,113.86937Q72.3699,113.30084,73.0675,112.61353Q73.7653,111.92622,74.2212,111.19428ZM74.5622,111.79869Q75.3882,112.80275,76.4279,113.47453Q77.46770000000001,114.14631,78.6303,114.65183999999999Q78.4481,114.81153,78.25450000000001,115.03794Q78.0611,115.26412,77.9614,115.47675Q76.741,114.84981,75.6934,114.06362Q74.64580000000001,113.27722,73.7364,112.13294L74.5622,111.79869ZM83.1328,112.43612L83.7782,111.53444Q84.7442,112.22284,85.4367,113.01713Q86.1293,113.81119,86.6508,114.67569Q87.1725,115.53997,87.61699999999999,116.43116Q88.0617,117.32234,88.51480000000001,118.2039Q88.9678,119.0855,89.5079,119.908Q90.04820000000001,120.7302,90.7707,121.4642Q91.4933,122.1978,92.4967,122.7968Q92.4109,122.94030000000001,92.29910000000001,123.1564Q92.1873,123.3728,92.0977,123.5917Q92.0082,123.8107,91.9778,123.9789Q90.9442,123.4018,90.1842,122.6458Q89.4243,121.8898,88.851,121.0164Q88.2776,120.1429,87.7997,119.21340000000001Q87.32169999999999,118.284,86.866,117.34334Q86.4106,116.4025,85.8889,115.51634Q85.3674,114.62997,84.7013,113.84137Q84.0352,113.05278,83.1328,112.43612ZM85.4212,114.50572L86.6062,114.72075Q86.10220000000001,116.92816,85.29169999999999,118.6836Q84.4812,120.4389,83.3092,121.7658Q82.1371,123.09270000000001,80.5398,124.02289999999999Q80.4431,123.91,80.2694,123.7529Q80.0957,123.5959,79.9083,123.43469999999999Q79.7208,123.2734,79.5744,123.1768Q81.9822,121.9397,83.3746,119.759Q84.7671,117.57828,85.4212,114.50572ZM93.7332,116.31936999999999L106.31360000000001,116.31936999999999L106.31360000000001,117.34794L93.7332,117.34794L93.7332,116.31936999999999ZM94.6019,112.17734L105.5118,112.17734L105.5118,113.20897L94.6019,113.20897L94.6019,112.17734ZM100.1568,117.13684L101.2453,117.13684L101.2453,122.1563Q101.2453,122.5367,101.4057,122.6502Q101.56620000000001,122.7638,102.1035,122.7638Q102.2302,122.7638,102.5589,122.7638Q102.8877,122.7638,103.2869,122.7638Q103.68639999999999,122.7638,104.03479999999999,122.7638Q104.3835,122.7638,104.5498,122.7638Q104.89580000000001,122.7638,105.0715,122.6023Q105.24719999999999,122.4409,105.3158,121.9585Q105.3848,121.476,105.4182,120.5224Q105.5484,120.6137,105.7247,120.7049Q105.9012,120.7959,106.0957,120.865Q106.2902,120.9339,106.4334,120.96979999999999Q106.36410000000001,122.0821,106.1974,122.6999Q106.0309,123.3176,105.6619,123.5563Q105.29310000000001,123.7952,104.6209,123.7952Q104.52590000000001,123.7952,104.2584,123.7952Q103.9911,123.7952,103.6488,123.7952Q103.3064,123.7952,102.9597,123.7952Q102.6132,123.7952,102.35,123.7952Q102.0869,123.7952,102.0005,123.7952Q101.2766,123.7952,100.8726,123.6484Q100.4688,123.5016,100.31280000000001,123.1466Q100.1568,122.7915,100.1568,122.1587L100.1568,117.13684ZM99.26169999999999,112.57634L100.3253,112.57634Q100.2918,113.6025,100.2218,114.69275Q100.15180000000001,115.78278,99.9628,116.87916Q99.7738,117.97531000000001,99.386,119.0299Q98.9983,120.0845,98.3445,121.0271Q97.6909,121.9697,96.6914,122.7622Q95.6919,123.5548,94.267,124.1226Q94.1508,123.9216,93.9522,123.6722Q93.7536,123.4228,93.5526,123.2632Q94.9392,122.7421,95.8947,122.013Q96.8502,121.2839,97.4695,120.4045Q98.089,119.5252,98.4408,118.5478Q98.7927,117.57019,98.95830000000001,116.5495Q99.12389999999999,115.52881,99.1788,114.52016Q99.2337,113.51128,99.26169999999999,112.57634ZM108.3361,112.15263L108.9182,111.38897Q109.37780000000001,111.57403,109.88329999999999,111.82494Q110.3889,112.07562,110.845,112.34316Q111.3013,112.61069,111.59530000000001,112.84869L110.9858,113.72916000000001Q110.7028,113.47716,110.25739999999999,113.19016Q109.81219999999999,112.90316,109.3109,112.63016Q108.80969999999999,112.35716,108.3361,112.15263ZM107.5878,115.95581L108.1563,115.17269Q108.5988,115.35228000000001,109.0954,115.59772Q109.59219999999999,115.84316,110.0356,116.10369Q110.479,116.36422,110.76140000000001,116.60222L110.1738,117.47634Q109.8993,117.23834,109.4614,116.96272Q109.02369999999999,116.68687,108.5339,116.41934Q108.04429999999999,116.15181,107.5878,115.95581ZM108.0577,123.2225Q108.4357,122.6874,108.9033,121.9377Q109.37129999999999,121.1879,109.84729999999999,120.3461Q110.3232,119.5042,110.7262,118.7092L111.4896,119.4011Q111.12559999999999,120.1377,110.6897,120.9422Q110.2539,121.74680000000001,109.80680000000001,122.5133Q109.3597,123.2796,108.9427,123.9369L108.0577,123.2225ZM115.3705,111.23497L116.4262,111.23497L116.4262,117.82066L115.3705,117.82066L115.3705,111.23497ZM111.7484,117.17556L120.1189,117.17556L120.1189,118.1713L111.7484,118.1713L111.7484,117.17556ZM112.3657,113.65128L119.549,113.65128L119.549,114.64703L112.3657,114.64703L112.3657,113.65128ZM116.8613,120.0401L117.6988,119.638Q118.2035,120.2486,118.6898,120.9685Q119.1763,121.6882,119.5744,122.38550000000001Q119.9727,123.0827,120.1749,123.6366L119.2546,124.108Q119.0634,123.565,118.6858,122.8554Q118.3083,122.1456,117.8301,121.4064Q117.3519,120.667,116.8613,120.0401ZM112.39920000000001,123.6339L112.3664,122.8012L112.97059999999999,122.4328L118.6813,121.7835Q118.6758,121.9931,118.7038,122.2619Q118.7318,122.5308,118.7567,122.699Q117.1456,122.9011,116.0626,123.0357Q114.9798,123.1702,114.3027,123.2653Q113.6259,123.3607,113.2565,123.4222Q112.887,123.4837,112.6987,123.5322Q112.5103,123.581,112.39920000000001,123.6339ZM112.39920000000001,123.6339Q112.37729999999999,123.5178,112.3137,123.3246Q112.2502,123.1315,112.17580000000001,122.9289Q112.1015,122.7263,112.0352,122.5828Q112.2469,122.5332,112.46260000000001,122.2948Q112.6785,122.0563,112.94210000000001,121.6643Q113.0852,121.4823,113.3534,121.0527Q113.62180000000001,120.6228,113.95060000000001,120.0348Q114.2793,119.4468,114.6097,118.7694Q114.9402,118.0919,115.2077,117.40591L116.3203,117.77909Q115.871,118.742,115.3453,119.6949Q114.8197,120.6478,114.2562,121.4957Q113.6927,122.3433,113.132,123.0262L113.132,123.0512Q113.132,123.0512,113.0213,123.1076Q112.9108,123.1643,112.7656,123.2581Q112.6203,123.352,112.50970000000001,123.4528Q112.39920000000001,123.55369999999999,112.39920000000001,123.6339ZM124.1745,115.34922L131.7912,115.34922L131.7912,116.32309000000001L124.1745,116.32309000000001L124.1745,115.34922ZM121.7853,117.95387L134.2029,117.95387L134.2029,118.9442L121.7853,118.9442L121.7853,117.95387ZM125.5817,118.5847L126.6514,118.5847Q126.5838,119.7737,126.3817,120.6806Q126.1796,121.5873,125.7132,122.2569Q125.2468,122.9265,124.395,123.3857Q123.5434,123.845,122.1742,124.1336Q122.1384,123.9958,122.0402,123.8358Q121.9422,123.6762,121.8275,123.5191Q121.7131,123.3623,121.611,123.2632Q122.8594,123.0214,123.623,122.64320000000001Q124.3867,122.265,124.7909,121.7096Q125.1954,121.1542,125.3617,120.3811Q125.5279,119.6078,125.5817,118.5847ZM129.08499999999998,118.5445L130.14069999999998,118.5445L130.14069999999998,122.4481Q130.14069999999998,122.7469,130.26319999999998,122.8353Q130.38569999999999,122.9234,130.8186,122.9234Q130.92270000000002,122.9234,131.1837,122.9234Q131.44490000000002,122.9234,131.7638,122.9234Q132.083,122.9234,132.3623,122.9234Q132.64170000000001,122.9234,132.77679999999998,122.9234Q133.0413,122.9234,133.17610000000002,122.7987Q133.311,122.6738,133.36419999999998,122.2727Q133.4176,121.8713,133.437,121.0658Q133.5617,121.1513,133.7299,121.2329Q133.8982,121.3143,134.0817,121.37780000000001Q134.2652,121.4412,134.40300000000002,121.4856Q134.3477,122.4417,134.195,122.97Q134.04250000000002,123.4981,133.7323,123.6991Q133.4222,123.9004,132.8619,123.9004Q132.7561,123.9004,132.4548,123.9004Q132.15359999999998,123.9004,131.7859,123.9004Q131.41840000000002,123.9004,131.11430000000001,123.9004Q130.8105,123.9004,130.7101,123.9004Q130.0648,123.9004,129.7141,123.77459999999999Q129.3637,123.6488,129.2243,123.3314Q129.08499999999998,123.0142,129.08499999999998,122.4536L129.08499999999998,118.5445ZM122.1436,112.84366L133.8229,112.84366L133.8229,115.95275L132.73680000000002,115.95275L132.73680000000002,113.85887L123.1917,113.85887L123.1917,115.95275L122.1436,115.95275L122.1436,112.84366ZM126.8918,111.42134L127.9499,111.10962Q128.2415,111.56856,128.5195,112.12703Q128.7976,112.6855,128.9297,113.08537L127.8169,113.43581Q127.7012,113.04688,127.4411,112.47069Q127.181,111.89428,126.8918,111.42134ZM137.3929,116.48738L140.8712,116.48738L140.8712,117.46431L137.3929,117.46431L137.3929,116.48738ZM140.4598,116.48738L141.4774,116.48738Q141.4774,116.48738,141.4774,116.56919Q141.4774,116.65078,141.4746,116.75906Q141.4719,116.86734,141.4719,116.93669Q141.4409,118.5097,141.3945,119.4821Q141.3483,120.4542,141.2659,120.9606Q141.1834,121.4668,141.0325,121.6567Q140.8682,121.8538,140.6759,121.9371Q140.4838,122.0202,140.1874,122.0561Q139.916,122.0865,139.466,122.0834Q139.0163,122.0804,138.5007,122.0548Q138.48669999999998,121.8288,138.4094,121.5503Q138.3322,121.2717,138.2108,121.07300000000001Q138.6864,121.1181,139.10309999999998,121.1279Q139.5198,121.1376,139.6963,121.1376Q139.8449,121.1376,139.9514,121.10849999999999Q140.05790000000002,121.0792,140.1334,120.9897Q140.243,120.8606,140.3021,120.4203Q140.3611,119.9797,140.3992,119.0774Q140.43720000000002,118.1748,140.4598,116.66172L140.4598,116.48738ZM144.39530000000002,111.94175L145.0297,111.29578Q145.47050000000002,111.51191,145.95170000000002,111.79672Q146.4332,112.08131,146.858,112.36591Q147.28300000000002,112.6505,147.5552,112.89703L146.8967,113.61453Q146.63549999999998,113.368,146.2144,113.06831Q145.7933,112.76841,145.3191,112.47134Q144.84480000000002,112.17428,144.39530000000002,111.94175ZM146.4065,115.74056L147.4567,116Q146.56310000000002,118.7385,145.0085,120.7583Q143.4538,122.778,141.3072,124.0489Q141.2357,123.9358,141.0935,123.77459999999999Q140.9513,123.6134,140.8052,123.4519Q140.6591,123.2907,140.5377,123.1888Q142.6683,122.0563,144.1431,120.1626Q145.61790000000002,118.2689,146.4065,115.74056ZM137.47379999999998,113.6165L148.3136,113.6165L148.3136,114.64484L137.47379999999998,114.64484L137.47379999999998,113.6165ZM136.7935,113.6165L137.8851,113.6165L137.8851,117.56581Q137.8851,118.30930000000001,137.82909999999998,119.1756Q137.7731,120.0418,137.6206,120.9431Q137.4682,121.8443,137.1713,122.6859Q136.87470000000002,123.5272,136.3902,124.2156Q136.3077,124.108,136.1408,123.9688Q135.97410000000002,123.8297,135.8046,123.7031Q135.6352,123.5764,135.5082,123.5158Q136.0944,122.6557,136.3639,121.6171Q136.6334,120.5782,136.7135,119.5201Q136.7935,118.4618,136.7935,117.55181L136.7935,113.6165ZM142.6125,111.2575L143.70409999999998,111.2575Q143.6962,113.19519,143.8467,114.9465Q143.99720000000002,116.69759,144.2809,118.1597Q144.56459999999998,119.62180000000001,144.9595,120.6937Q145.3545,121.7656,145.8395,122.3558Q146.3247,122.9458,146.8626,122.9458Q147.1667,122.9458,147.3139,122.3488Q147.4613,121.7518,147.5173,120.3584Q147.69650000000001,120.529,147.9574,120.6915Q148.2184,120.8538,148.428,120.9311Q148.3337,122.1267,148.1534,122.8009Q147.97320000000002,123.4749,147.6466,123.7466Q147.3202,124.0185,146.7799,124.0185Q146.0729,124.0185,145.4882,123.5436Q144.90370000000001,123.0687,144.4447,122.2035Q143.98579999999998,121.33840000000001,143.6483,120.1541Q143.3108,118.9697,143.0837,117.54416Q142.85660000000001,116.11834,142.7416,114.52475Q142.6265,112.93116,142.6125,111.2575ZM150.83530000000002,113.49137L155.09300000000002,113.49137L155.09300000000002,122.6458L150.83530000000002,122.6458L150.83530000000002,121.6962L154.12099999999998,121.6962L154.12099999999998,114.42697L150.83530000000002,114.42697L150.83530000000002,113.49137ZM150.21429999999998,113.49137L151.186,113.49137L151.186,123.7593L150.21429999999998,123.7593L150.21429999999998,113.49137ZM150.7708,117.38447L154.631,117.38447L154.631,118.3146L150.7708,118.3146L150.7708,117.38447ZM152.357,111.20937L153.49,111.41478Q153.281,112.06294,153.035,112.73866Q152.789,113.41416,152.579,113.88381L151.732,113.67053Q151.85,113.32666,151.97,112.89462Q152.089,112.46236999999999,152.195,112.01481Q152.301,111.56725,152.357,111.20937ZM157.088,113.44522L161.388,113.44522L161.388,114.42216L157.088,114.42216L157.088,113.44522ZM161.013,113.44522L162,113.44522Q162,113.44522,162,113.54934Q162,113.65325,162,113.78209Q162,113.91094,161.995,113.98575Q161.913,116.392,161.82999999999998,118.0556Q161.748,119.7192,161.637,120.7817Q161.526,121.8441,161.382,122.4275Q161.238,123.01089999999999,161.022,123.2708Q160.786,123.57900000000001,160.529,123.6943Q160.273,123.8096,159.897,123.8507Q159.54500000000002,123.8866,158.974,123.8737Q158.404,123.861,157.808,123.8299Q157.79399999999998,123.6033,157.703,123.3111Q157.612,123.0188,157.461,122.8123Q158.15,122.8683,158.72199999999998,122.8823Q159.29500000000002,122.8963,159.54000000000002,122.8963Q159.75,122.8963,159.888,122.8532Q160.025,122.8099,160.139,122.6699Q160.316,122.4794,160.44799999999998,121.9124Q160.57999999999998,121.3454,160.678,120.2952Q160.776,119.2447,160.86,117.61241Q160.945,115.97987,161.013,113.66966L161.013,113.44522ZM157.374,111.18312L158.386,111.41434Q158.132,112.45362,157.775,113.45703Q157.41899999999998,114.46021999999999,156.99099999999999,115.34047Q156.563,116.2205,156.079,116.8925Q155.99099999999999,116.80981,155.828,116.69409Q155.66500000000002,116.57837,155.499,116.46812Q155.334,116.35787,155.207,116.29181Q155.686,115.66641,156.094,114.84828Q156.503,114.03016,156.826,113.08887Q157.15,112.14738,157.374,111.18312ZM156.728,117.08324999999999L157.547,116.61425Q157.946,117.10731,158.372,117.69159Q158.799,118.2757,159.168,118.8232Q159.536,119.3707,159.763,119.7907L158.87,120.3538Q158.662,119.9198,158.304,119.3556Q157.947,118.7913,157.53300000000002,118.1921Q157.118,117.59272,156.728,117.08324999999999ZM171.476,121.8194L172.14600000000002,121.08Q172.936,121.4307,173.73000000000002,121.8332Q174.525,122.2357,175.237,122.6257Q175.949,123.0155,176.46699999999998,123.3467L175.624,124.136Q175.136,123.7908,174.463,123.3942Q173.789,122.9976,173.019,122.5881Q172.249,122.1786,171.476,121.8194ZM163.728,120.0714L176.308,120.0714L176.308,121.0288L163.728,121.0288L163.728,120.0714ZM166.352,113.99056L173.642,113.99056L173.642,114.78966L166.352,114.78966L166.352,113.99056ZM166.352,115.97987L173.642,115.97987L173.642,116.77919L166.352,116.77919L166.352,115.97987ZM166.352,118.0005L173.642,118.0005L173.642,118.7996L166.352,118.7996L166.352,118.0005ZM167.591,121.1323L168.584,121.7713Q168.029,122.2059,167.305,122.645Q166.582,123.0838,165.813,123.4624Q165.04500000000002,123.8413,164.336,124.1305Q164.19799999999998,123.9623,163.973,123.7359Q163.749,123.5097,163.564,123.3607Q164.27800000000002,123.091,165.043,122.7178Q165.80700000000002,122.34440000000001,166.485,121.9292Q167.163,121.514,167.591,121.1323ZM165.963,111.91616L174.224,111.91616L174.224,120.5273L173.173,120.5273L173.173,112.78634L166.975,112.78634L166.975,120.5273L165.963,120.5273L165.963,111.91616ZM180.51,111.29097L181.498,111.58016Q181.1,112.76162,180.553,113.91553Q180.007,115.06944,179.37,116.09581Q178.73399999999998,117.12219,178.04000000000002,117.91712Q177.99,117.79331,177.88,117.59666Q177.769,117.39977999999999,177.649,117.20027999999999Q177.52800000000002,117.00078,177.423,116.87675Q178.048,116.1925,178.625,115.29234Q179.201,114.39219,179.68,113.36887Q180.16,112.34534,180.51,111.29097ZM179.242,114.89903L180.226,113.90634L180.243,113.92034L180.243,124.094L179.242,124.094L179.242,114.89903ZM185.128,111.28484L186.151,111.28484L186.151,124.0386L185.128,124.0386L185.128,111.28484ZM181.173,114.06581L190.351,114.06581L190.351,115.07556L181.173,115.07556L181.173,114.06581ZM182.82,120.5542L188.415,120.5542L188.415,121.5147L182.82,121.5147L182.82,120.5542ZM186.658,114.58272Q187.06,115.83309,187.678,117.0605Q188.297,118.2877,189.056,119.3167Q189.815,120.3457,190.628,121.0022Q190.44,121.1402,190.206,121.3775Q189.971,121.6147,189.825,121.8242Q189.011,121.0732,188.261,119.9563Q187.51,118.8392,186.896,117.51572Q186.283,116.19228,185.862,114.81787L186.658,114.58272ZM184.688,114.52562L185.469,114.75531Q185.04,116.16253,184.401,117.50522Q183.762,118.8477,182.994,119.9729Q182.225,121.0982,181.382,121.86619999999999Q181.299,121.73910000000001,181.168,121.586Q181.037,121.4329,180.892,121.2924Q180.748,121.1518,180.626,121.0691Q181.458,120.4039,182.228,119.3572Q182.998,118.3102,183.641,117.05678Q184.283,115.80334,184.688,114.52562ZM193.442,112.01459L204.205,112.01459L204.205,112.98606L193.442,112.98606L193.442,112.01459ZM192.836,112.01459L193.873,112.01459L193.873,115.98228Q193.873,116.83562,193.824,117.848Q193.775,118.8604,193.619,119.9204Q193.464,120.9803,193.171,121.9861Q192.878,122.9917,192.39,123.8372Q192.297,123.7516,192.13,123.6451Q191.963,123.5388,191.791,123.4379Q191.619,123.33709999999999,191.486,123.2957Q191.949,122.4862,192.22,121.5552Q192.49,120.6242,192.624,119.6457Q192.757,118.6672,192.796,117.73075Q192.836,116.79428,192.836,115.98228L192.836,112.01459ZM196.167,117.36631L196.167,118.6928L202.025,118.6928L202.025,117.36631L196.167,117.36631ZM196.167,115.27419L196.167,116.57816L202.025,116.57816L202.025,115.27419L196.167,115.27419ZM195.135,114.44228L203.092,114.44228L203.092,119.5247L195.135,119.5247L195.135,114.44228ZM198.573,118.8518L199.59,118.8518L199.59,122.9584Q199.59,123.3719,199.482,123.6016Q199.373,123.8315,199.062,123.9507Q198.747,124.0666,198.212,124.083Q197.676,124.0994,196.865,124.0994Q196.835,123.8984,196.738,123.6377Q196.641,123.3771,196.541,123.17Q197.161,123.184,197.65,123.1881Q198.138,123.1925,198.295,123.184Q198.466,123.1754,198.519,123.1249Q198.573,123.0744,198.573,122.9453L198.573,118.8518ZM198.421,113.13809L199.638,113.32425Q199.39,113.79084,199.13,114.24934Q198.87,114.70784,198.641,115.0445L197.685,114.84281Q197.892,114.47028,198.097,113.99209Q198.303,113.51369,198.421,113.13809ZM200.78,120.6913L201.609,120.24719999999999Q202.036,120.6758,202.517,121.1896Q202.998,121.7032,203.437,122.1961Q203.875,122.6887,204.158,123.0497L203.271,123.5908Q203.004,123.2161,202.579,122.7137Q202.154,122.2112,201.679,121.6781Q201.203,121.1448,200.78,120.6913ZM196.19,120.2208L197.186,120.55199999999999Q196.83,121.0584,196.398,121.6026Q195.967,122.1467,195.53,122.64320000000001Q195.093,123.1398,194.703,123.5178Q194.601,123.4353,194.438,123.3262Q194.275,123.2172,194.107,123.1107Q193.939,123.0044,193.806,122.9383Q194.431,122.3971,195.079,121.6606Q195.727,120.9238,196.19,120.2208ZM207.964,115.65568999999999L216.036,115.65568999999999L216.036,116.61622L207.964,116.61622L207.964,115.65568999999999ZM211.626,113.36778L212.649,113.36778Q212.595,114.84259,212.446,116.16362Q212.297,117.48466,211.9,118.5979Q211.503,119.7109,210.728,120.5905Q209.953,121.46979999999999,208.642,122.0727Q208.581,121.9402,208.464,121.7833Q208.346,121.6263,208.222,121.4801Q208.098,121.334,207.976,121.2458Q209.197,120.7125,209.913,119.9211Q210.629,119.1297,210.982,118.1182Q211.335,117.10666,211.46,115.90966Q211.586,114.71266,211.626,113.36778ZM211.436,117.75459000000001L212.145,117.22784Q212.878,117.84121999999999,213.627,118.5756Q214.377,119.30969999999999,215.01,120.0267Q215.643,120.7438,216.036,121.306L215.279,121.9371Q214.984,121.5072,214.552,120.98179999999999Q214.12,120.4562,213.598,119.8924Q213.075,119.3287,212.523,118.7764Q211.97,118.224,211.436,117.75459000000001ZM206.155,111.80875L217.881,111.80875L217.881,124.0994L216.855,124.0994L216.855,112.76622L207.142,112.76622L207.142,124.0994L206.155,124.0994L206.155,111.80875ZM206.769,122.517L217.391,122.517L217.391,123.4176L206.769,123.4176L206.769,122.517Z" fill="#9CA3AF" fill-opacity="1" style="mix-blend-mode:passthrough"/></g><rect x="35.5" y="92.5" width="431" height="159" rx="7.5" fill-opacity="0" stroke-opacity="1" stroke="#E5E7EB" fill="none" stroke-width="1" style="mix-blend-mode:passthrough"/></g></g><g><rect x="11" y="283" width="480" height="73" rx="0" fill="#000000" fill-opacity="0" style="mix-blend-mode:passthrough"/><path d="M491,283L11,283L11,284L491,284L491,283Z" fill-rule="evenodd" fill="#E5E7EB" fill-opacity="1" style="mix-blend-mode:passthrough"/><g><rect x="35" y="300" width="80.015625" height="40" rx="4" fill="#F3F4F6" fill-opacity="1" style="mix-blend-mode:passthrough"/><g><path d="M67.0988125,312.85925L73.0996125,312.85925L73.0996125,314.00075L67.0988125,314.00075L67.0988125,312.85925ZM72.7303125,312.85925L72.9226125,312.85925L73.1308125,312.81475L73.8778125,313.01675Q73.4826125,316.22075,72.5778125,318.6868Q71.6733125,321.1525,70.3688125,322.9082Q69.0646125,324.6637,67.4588125,325.7787Q67.3198125,325.5678,67.0940625,325.29970000000003Q66.8685625,325.0317,66.6760625,324.874Q68.1625625,323.9328,69.4011125,322.267Q70.6396125,320.6012,71.5063125,318.29Q72.3731125,315.9785,72.7303125,313.13425L72.7303125,312.85925ZM68.9200625,313.67675Q69.2916125,316.17225,69.9818125,318.3328Q70.6721125,320.493,71.7723125,322.1333Q72.8726125,323.7735,74.4813125,324.721Q74.3486125,324.82529999999997,74.1891125,324.989Q74.0298125,325.153,73.8846125,325.331Q73.73961249999999,325.509,73.6418125,325.6605Q71.9768125,324.5767,70.8418125,322.8405Q69.7068125,321.104,69.0010625,318.8287Q68.2953125,316.55325,67.8668125,313.847L68.9200625,313.67675ZM59.7703125,311.81575L67.0425625,311.81575L67.0425625,312.90375L59.7703125,312.90375L59.7703125,311.81575ZM61.4775625,315.133L65.4773125,315.133L65.4773125,316.18725L61.4775625,316.18725L61.4775625,315.133ZM61.471312499999996,318.4993L65.5270625,318.4993L65.5270625,319.5535L61.471312499999996,319.5535L61.471312499999996,318.4993ZM60.8505625,312.4035L62.0010625,312.4035L62.0010625,322.6823L60.8505625,322.815L60.8505625,312.4035ZM59.6208125,322.4148Q60.5640625,322.2832,61.8095625,322.094Q63.0550625,321.9047,64.4523125,321.6803Q65.8498125,321.4557,67.2348125,321.2345L67.2980625,322.2533Q65.9895625,322.503,64.6618125,322.7448Q63.3343125,322.9865,62.1173125,323.1945Q60.9005625,323.4025,59.8933125,323.5785L59.6208125,322.4148ZM64.6963125,312.391L65.8750625,312.391L65.8750625,325.7537L64.6963125,325.7537L64.6963125,312.391ZM81.8481125,318.4615L88.7028125,318.4615L88.7028125,319.5092L81.8481125,319.5092L81.8481125,318.4615ZM81.8091125,321.2448L88.7028125,321.2448L88.7028125,322.2828L81.8091125,322.2828L81.8091125,321.2448ZM88.8121125,311.501L89.97161249999999,311.963Q89.5548125,312.75875,89.0651125,313.57825Q88.5756125,314.39775,88.1418125,314.987L87.1248125,314.5535Q87.4075125,314.1375,87.7223125,313.61275Q88.0373125,313.08775,88.3313125,312.52775Q88.6256125,311.96775,88.8121125,311.501ZM80.6271125,312.04425L81.6386125,311.59Q81.9816125,312.0415,82.3196125,312.57Q82.6578125,313.0985,82.9223125,313.60925Q83.1868125,314.11975,83.3183125,314.53575L82.2408125,315.06275Q82.1218125,314.653,81.8665125,314.1265Q81.6116125,313.59975,81.2908125,313.054Q80.9700125,312.50825,80.6271125,312.04425ZM81.0768125,315.6265L88.7578125,315.6265L88.7578125,316.75175L82.2558125,316.75175L82.2558125,325.7733L81.0768125,325.7733L81.0768125,315.6265ZM88.1640125,315.6265L89.3331125,315.6265L89.3331125,324.274Q89.3331125,324.765,89.20581250000001,325.0515Q89.0788125,325.33820000000003,88.7130125,325.493Q88.3538125,325.632,87.7388125,325.66179999999997Q87.1241125,325.6917,86.2086125,325.6917Q86.1738125,325.4522,86.05981249999999,325.1178Q85.9461125,324.7835,85.8196125,324.5405Q86.5081125,324.5627,87.0783125,324.5707Q87.6486125,324.5788,87.8343125,324.569Q88.1640125,324.553,88.1640125,324.2615L88.1640125,315.6265ZM84.6658125,311.048L85.8660125,311.048L85.8660125,316.32725L84.6658125,316.32725L84.6658125,311.048ZM76.3753125,312.0565L77.0850125,311.2345Q77.5810125,311.46825,78.1116125,311.79Q78.6423125,312.11175,79.1090125,312.44775Q79.5758125,312.78375,79.8665125,313.078L79.1328125,314.01125Q78.8511125,313.70725,78.3905125,313.357Q77.9301125,313.00675,77.4005125,312.65975Q76.8713125,312.3125,76.3753125,312.0565ZM75.6198125,316.3355L76.3070125,315.48775Q76.8093125,315.7215,77.3528125,316.0415Q77.8966125,316.3615,78.3841125,316.69275Q78.8718125,317.02375,79.1723125,317.30825L78.4573125,318.254Q78.15961250000001,317.96320000000003,77.6813125,317.61469999999997Q77.2030125,317.26625,76.6626125,316.929Q76.1221125,316.5915,75.6198125,316.3355ZM76.1138125,324.8415Q76.5138125,324.214,76.98581250000001,323.351Q77.4578125,322.488,77.9441125,321.5245Q78.4303125,320.561,78.8393125,319.6462L79.7350125,320.371Q79.3636125,321.2253,78.92931250000001,322.151Q78.4953125,323.0767,78.0371125,323.9653Q77.5788125,324.8535,77.1566125,325.6173L76.1138125,324.8415Z" fill="#374151" fill-opacity="1" style="mix-blend-mode:passthrough"/></g></g><g><rect x="386.984375" y="300" width="80.015625" height="40" rx="4" fill="#3B82F6" fill-opacity="1" style="mix-blend-mode:passthrough"/><g><path d="M418.8244375,320.8245L425.2299875,320.8245L425.2299875,321.8785L418.8244375,321.8785L418.8244375,320.8245ZM418.8964375,317.953L425.2041875,317.953L425.2041875,318.9163L418.8964375,318.9163L418.8964375,317.953ZM418.9026875,315.146L425.2104875,315.146L425.2104875,316.184L418.9026875,316.184L418.9026875,315.146ZM421.3051875,315.694L422.3746875,315.694L422.3746875,325.2005L421.3051875,325.2005L421.3051875,315.694ZM424.6716875,315.146L425.8194875,315.146L425.8194875,324.3363Q425.8194875,324.79,425.7109875,325.04970000000003Q425.6024875,325.3097,425.2999875,325.4522Q424.9976875,325.591,424.4789875,325.6195Q423.9604875,325.648,423.21648749999997,325.648Q423.1941875,325.4175,423.1069875,325.108Q423.0199875,324.7987,422.9121875,324.5745Q423.4289875,324.5905,423.8574875,324.5952Q424.2861875,324.6003,424.4211875,324.5905Q424.6716875,324.58050000000003,424.6716875,324.3335L424.6716875,315.146ZM418.0861875,315.146L419.1991875,315.146L419.1991875,319.4152Q419.1991875,320.1595,419.1301875,320.9993Q419.0614375,321.839,418.8626875,322.6962Q418.6639375,323.5532,418.2826875,324.34680000000003Q417.9014375,325.1402,417.2829375,325.8018Q417.1884375,325.694,417.0184375,325.5645Q416.8484375,325.435,416.6689375,325.3165Q416.4894375,325.1982,416.3506875,325.135Q417.1361875,324.3197,417.4986875,323.3352Q417.8611875,322.3507,417.9736875,321.3293Q418.0861875,320.3077,418.0861875,319.409L418.0861875,315.146ZM419.8211875,311.009L420.8816875,311.28675Q420.2729375,312.948,419.3324375,314.44125Q418.3919375,315.9345,417.2859375,316.963Q417.2226875,316.84625,417.0914375,316.678Q416.9601875,316.5095,416.8176875,316.33325Q416.6754375,316.157,416.5614375,316.05625Q417.5959375,315.141,418.4469375,313.8095Q419.2979375,312.478,419.8211875,311.009ZM419.8409375,312.3955L423.5209875,312.3955L423.5209875,313.4025L419.3326875,313.4025L419.8409375,312.3955ZM423.2119875,312.3955L423.4736875,312.3955L423.6634875,312.34475L424.4389875,312.862Q424.1704875,313.3615,423.8076875,313.90025Q423.4449875,314.439,423.0581875,314.933Q422.6716875,315.42675,422.3071875,315.80375Q422.1494875,315.671,421.9161875,315.5215Q421.6829875,315.37175,421.5031875,315.26775Q421.8204875,314.91925,422.1456875,314.4505Q422.4709875,313.9815,422.7579875,313.498Q423.0449875,313.0145,423.2119875,312.61975L423.2119875,312.3955ZM411.8956875,311.9125L417.2811875,311.9125L417.2811875,313.013L411.8956875,313.013L411.8956875,311.9125ZM413.4021875,316.83875L416.7689375,316.83875L416.7689375,323.7585L413.4021875,323.7585L413.4021875,322.689L415.7431875,322.689L415.7431875,317.918L413.4021875,317.918L413.4021875,316.83875ZM413.8934375,312.4505L415.0036875,312.6865Q414.7386875,314.187,414.3349375,315.63025Q413.9314375,317.0735,413.3876875,318.328Q412.8439375,319.5822,412.1136875,320.5415Q412.0719375,320.3872,411.9764375,320.1442Q411.8809375,319.901,411.7646875,319.6515Q411.6486875,319.402,411.5471875,319.2515Q412.4509375,318.017,413.0214375,316.2295Q413.5921875,314.442,413.8934375,312.4505ZM412.9336875,316.83875L413.9726875,316.83875L413.9726875,325.047L412.9336875,325.047L412.9336875,316.83875ZM436.9459875,311.07225L438.1621875,311.07225Q438.1558875,312.78775,438.1016875,314.4985Q438.0476875,316.209,437.84148749999997,317.8392Q437.63518750000003,319.4695,437.1794875,320.9345Q436.7239875,322.3993,435.9211875,323.6332Q435.1184875,324.8673,433.8614875,325.7865Q433.7101875,325.5665,433.4466875,325.329Q433.1831875,325.0917,432.9371875,324.944Q434.1531875,324.0905,434.9166875,322.9368Q435.6804875,321.783,436.09668750000003,320.3965Q436.5131875,319.01,436.6876875,317.47725Q436.8624875,315.9445,436.9009875,314.322Q436.9396875,312.6995,436.9459875,311.07225ZM438.0146875,315.945Q438.0759875,316.3885,438.2239875,317.20775Q438.3718875,318.0267,438.6574875,319.0642Q438.9431875,320.1015,439.4319875,321.1788Q439.9209875,322.256,440.6701875,323.2255Q441.41938749999997,324.1947,442.4816875,324.881Q442.2393875,325.0513,441.9961875,325.29200000000003Q441.7531875,325.533,441.5984875,325.76279999999997Q440.5014875,325.0193,439.7334875,323.973Q438.9654875,322.9265,438.4659875,321.755Q437.96648749999997,320.5833,437.6601875,319.4645Q437.3541875,318.3455,437.1966875,317.43975Q437.0394875,316.53375,436.9461875,316.04275L438.0146875,315.945ZM429.2611875,312.10775L430.0688875,311.358Q430.4688875,311.70025,430.9351875,312.1175Q431.40148750000003,312.53475,431.8211875,312.9295Q432.2409875,313.32425,432.5056875,313.62475L431.6669875,314.49825Q431.4084875,314.1915,430.9961875,313.76975Q430.5841875,313.34775,430.1256875,312.91Q429.6674875,312.47225,429.2611875,312.10775ZM430.2226875,325.1397L430.0068875,324.0198L430.3538875,323.5135L433.5816875,321.3505Q433.6386875,321.5802,433.7489875,321.8778Q433.8594875,322.1753,433.9411875,322.355Q432.7919875,323.1578,432.0943875,323.653Q431.3971875,324.1483,431.0201875,324.4355Q430.6434875,324.7225,430.4774875,324.8738Q430.3116875,325.025,430.2226875,325.1397ZM427.7376875,316.08075L431.2274875,316.08075L431.2274875,317.24075L427.7376875,317.24075L427.7376875,316.08075ZM430.2226875,325.1397Q430.1656875,325.007,430.0486875,324.8445Q429.9316875,324.682,429.8021875,324.5177Q429.6726875,324.3535,429.5586875,324.262Q429.8006875,324.084,430.1201875,323.6905Q430.43998750000003,323.297,430.43998750000003,322.726L430.43998750000003,316.08075L431.6061875,316.08075L431.6061875,323.602Q431.6061875,323.602,431.46648749999997,323.7115Q431.3269875,323.821,431.1221875,324.0035Q430.9176875,324.1857,430.7099875,324.3967Q430.5021875,324.6075,430.3624875,324.80219999999997Q430.2226875,324.9972,430.2226875,325.1397Z" fill="#FFFFFF" fill-opacity="1" style="mix-blend-mode:passthrough"/></g></g></g></g></g></svg>