<svg xmlns="http://www.w3.org/2000/svg" xmlns:xlink="http://www.w3.org/1999/xlink" fill="none" version="1.1" width="112.015625" height="40" viewBox="0 0 112.015625 40"><g><rect x="0" y="0" width="112.015625" height="40" rx="4" fill="#FFFFFF" fill-opacity="1" style="mix-blend-mode:passthrough"/><g><path d="M18.3405625,14.8265L19.5658125,14.8265L19.5658125,22.886200000000002Q19.5658125,23.392,19.7278125,23.668Q19.8900625,23.9438,20.3513125,24.042Q20.8125625,24.1402,21.6828125,24.1402Q21.9325625,24.1402,22.5248125,24.1402Q23.1170625,24.1402,23.8748125,24.1402Q24.6328125,24.1402,25.408562500000002,24.1402Q26.1843125,24.1402,26.8186125,24.1402Q27.4531125,24.1402,27.7773125,24.1402Q28.4441125,24.1402,28.8461125,24.0133Q29.2483125,23.886,29.4758125,23.544Q29.7033125,23.201999999999998,29.8201125,22.5907Q29.937112499999998,21.9792,30.0233125,21.0105Q30.1906125,21.1182,30.4066125,21.2192Q30.622612500000002,21.3202,30.8428125,21.396Q31.063312500000002,21.4718,31.243112500000002,21.506500000000003Q31.1286125,22.6095,30.9376125,23.3482Q30.7468125,24.087,30.382112499999998,24.5203Q30.0176125,24.9538,29.3861125,25.1408Q28.7548125,25.328,27.7688125,25.328Q27.6096125,25.328,27.1491125,25.328Q26.688812499999997,25.328,26.0611125,25.328Q25.4333125,25.328,24.7473125,25.328Q24.0615625,25.328,23.436812500000002,25.328Q22.8123125,25.328,22.3598125,25.328Q21.9075625,25.328,21.7548125,25.328Q20.4588125,25.328,19.7085625,25.123Q18.9585625,24.918,18.649562500000002,24.387Q18.3405625,23.8557,18.3405625,22.8632L18.3405625,14.8265ZM19.0030625,17.459L28.4423125,17.459L28.4423125,18.644199999999998L19.0030625,18.644199999999998L19.0030625,17.459ZM17.5000625,12.0585L29.2066125,12.0585L29.2066125,19.4422L27.9653125,19.4422L27.9653125,13.249749999999999L17.5000625,13.249749999999999L17.5000625,12.0585ZM35.6358125,15.75625L44.3406125,15.75625L44.3406125,16.86925L35.6358125,16.86925L35.6358125,15.75625ZM32.9053125,18.733L47.0968125,18.733L47.0968125,19.8647L32.9053125,19.8647L32.9053125,18.733ZM37.2440125,19.454L38.4665125,19.454Q38.3893125,20.8127,38.1583125,21.8492Q37.9273125,22.8855,37.3943125,23.6507Q36.8613125,24.416,35.887812499999995,24.9408Q34.9145125,25.4657,33.3498125,25.7955Q33.3088125,25.638,33.1965125,25.4552Q33.0845125,25.2728,32.9535125,25.0933Q32.8228125,24.914,32.7060125,24.8008Q34.1328125,24.5245,35.005512499999995,24.0923Q35.8783125,23.66,36.340312499999996,23.025199999999998Q36.802612499999995,22.3905,36.9926125,21.506999999999998Q37.182612500000005,20.6233,37.2440125,19.454ZM41.247812499999995,19.408L42.4543125,19.408L42.4543125,23.8692Q42.4543125,24.2108,42.5943125,24.3118Q42.7343125,24.4125,43.2291125,24.4125Q43.3481125,24.4125,43.6463125,24.4125Q43.9448125,24.4125,44.309312500000004,24.4125Q44.6741125,24.4125,44.9933125,24.4125Q45.3126125,24.4125,45.4671125,24.4125Q45.7693125,24.4125,45.9233125,24.27Q46.0776125,24.1273,46.1383125,23.6688Q46.199312500000005,23.21,46.2216125,22.2895Q46.364112500000005,22.3872,46.556312500000004,22.4805Q46.748512500000004,22.5735,46.958312500000005,22.646Q47.1681125,22.7185,47.3256125,22.769199999999998Q47.2623125,23.862,47.0878125,24.4657Q46.9136125,25.0693,46.5591125,25.299Q46.204612499999996,25.529,45.5643125,25.529Q45.443312500000005,25.529,45.099112500000004,25.529Q44.7548125,25.529,44.3346125,25.529Q43.9145125,25.529,43.567012500000004,25.529Q43.2198125,25.529,43.105112500000004,25.529Q42.3676125,25.529,41.9668125,25.3853Q41.566312499999995,25.2415,41.4071125,24.8787Q41.247812499999995,24.5163,41.247812499999995,23.8755L41.247812499999995,19.408ZM33.3148125,12.89275L46.6626125,12.89275L46.6626125,16.445999999999998L45.4213125,16.445999999999998L45.4213125,14.053L34.5125125,14.053L34.5125125,16.445999999999998L33.3148125,16.445999999999998L33.3148125,12.89275ZM38.7413125,11.26725L39.9506125,10.911Q40.283812499999996,11.435500000000001,40.6016125,12.07375Q40.919312500000004,12.712,41.0703125,13.169L39.798612500000004,13.5695Q39.666312500000004,13.125,39.3690125,12.4665Q39.0718125,11.80775,38.7413125,11.26725ZM50.7425125,17.057000000000002L54.7178125,17.057000000000002L54.7178125,18.1735L50.7425125,18.1735L50.7425125,17.057000000000002ZM54.2475125,17.057000000000002L55.4106125,17.057000000000002Q55.4106125,17.057000000000002,55.4106125,17.1505Q55.4106125,17.24375,55.4073125,17.3675Q55.4043125,17.49125,55.4043125,17.5705Q55.3688125,19.3682,55.3158125,20.4795Q55.2630125,21.5905,55.1688125,22.1692Q55.0745125,22.747799999999998,54.9020125,22.9648Q54.7143125,23.189999999999998,54.4946125,23.2852Q54.2751125,23.380200000000002,53.9363125,23.421300000000002Q53.6261125,23.456,53.1118125,23.4525Q52.5978125,23.448999999999998,52.0086125,23.419800000000002Q51.9925125,23.1615,51.9043125,22.8433Q51.8161125,22.5247,51.6773125,22.297800000000002Q52.2208125,22.3492,52.6971125,22.360500000000002Q53.1733125,22.371499999999997,53.3750125,22.371499999999997Q53.5448125,22.371499999999997,53.6665125,22.3383Q53.7883125,22.3048,53.8745125,22.2025Q53.9998125,22.055,54.0673125,21.5518Q54.1348125,21.048299999999998,54.1783125,20.017Q54.2218125,18.985500000000002,54.2475125,17.25625L54.2475125,17.057000000000002ZM58.7453125,11.862L59.4703125,11.12375Q59.9741125,11.370750000000001,60.5241125,11.69625Q61.0743125,12.0215,61.5598125,12.34675Q62.0456125,12.672,62.3566125,12.95375L61.6041125,13.77375Q61.3056125,13.492,60.8243125,13.1495Q60.3431125,12.806750000000001,59.8011125,12.46725Q59.2591125,12.127749999999999,58.7453125,11.862ZM61.0438125,16.2035L62.2441125,16.5Q61.2228125,19.6297,59.4461125,21.938000000000002Q57.6693125,24.2463,55.2161125,25.6987Q55.1343125,25.5695,54.9718125,25.3853Q54.8093125,25.201,54.6423125,25.0165Q54.4753125,24.8323,54.3366125,24.7157Q56.7715125,23.4215,58.4570125,21.257199999999997Q60.1426125,19.093,61.0438125,16.2035ZM50.8351125,13.776L63.2233125,13.776L63.2233125,14.95125L50.8351125,14.95125L50.8351125,13.776ZM50.0576125,13.776L51.3050125,13.776L51.3050125,18.2895Q51.3050125,19.139200000000002,51.2410125,20.1292Q51.1771125,21.1192,51.0028125,22.1493Q50.8286125,23.1792,50.4893125,24.141Q50.1503125,25.1025,49.5965125,25.8892Q49.5023125,25.7663,49.3115125,25.6073Q49.1211125,25.4482,48.9273125,25.3035Q48.7338125,25.1588,48.5885125,25.0895Q49.2586125,24.1065,49.5666125,22.9195Q49.8745125,21.732300000000002,49.9661125,20.523Q50.0576125,19.313499999999998,50.0576125,18.2735L50.0576125,13.776ZM56.7078125,11.08L57.9553125,11.08Q57.9463125,13.2945,58.1183125,15.296Q58.2903125,17.29725,58.6146125,18.9683Q58.9388125,20.639200000000002,59.3901125,21.8643Q59.8416125,23.089199999999998,60.3958125,23.7638Q60.9503125,24.438,61.5651125,24.438Q61.9126125,24.438,62.0808125,23.7558Q62.2493125,23.0735,62.3133125,21.481Q62.5181125,21.676000000000002,62.8163125,21.8617Q63.1146125,22.0472,63.3541125,22.1355Q63.2463125,23.502,63.0403125,24.2725Q62.8343125,25.0427,62.4611125,25.3533Q62.0880125,25.664,61.4705125,25.664Q60.6626125,25.664,59.9943125,25.1213Q59.3263125,24.5785,58.8018125,23.5898Q58.2773125,22.601,57.8916125,21.247500000000002Q57.5058125,19.894,57.2463125,18.264699999999998Q56.9868125,16.63525,56.8553125,14.814Q56.7238125,12.992750000000001,56.7078125,11.08ZM65.67331250000001,12.86275L78.4133125,12.86275L78.4133125,14.104L65.67331250000001,14.104L65.67331250000001,12.86275ZM64.8395125,23.3503L79.2171125,23.3503L79.2171125,24.5505L64.8395125,24.5505L64.8395125,23.3503ZM71.30261250000001,13.49075L72.63731250000001,13.49075L72.63731250000001,23.8487L71.30261250000001,23.8487L71.30261250000001,13.49075ZM87.3516125,14.3805L88.5903125,14.3805L88.5903125,25.7607L87.3516125,25.7607L87.3516125,14.3805ZM83.5498125,17.511200000000002L83.5498125,19.233L92.5625125,19.233L92.5625125,17.511200000000002L83.5498125,17.511200000000002ZM83.5498125,14.846L83.5498125,16.54825L92.5625125,16.54825L92.5625125,14.846L83.5498125,14.846ZM82.3805125,13.823L93.7916125,13.823L93.7916125,20.252499999999998L82.3805125,20.252499999999998L82.3805125,13.823ZM80.8681125,21.7747L95.1893125,21.7747L95.1893125,22.894L80.8681125,22.894L80.8681125,21.7747ZM83.7758125,11.60425L84.7963125,11.128Q85.2833125,11.663,85.7796125,12.3305Q86.2760125,12.998000000000001,86.5160125,13.500250000000001L85.4458125,14.04325Q85.2145125,13.5535,84.7356125,12.85575Q84.2565125,12.158000000000001,83.7758125,11.60425ZM91.3533125,11.129999999999999L92.6533125,11.5535Q92.1743125,12.32075,91.6218125,13.112Q91.0693125,13.902999999999999,90.6045125,14.454L89.5785125,14.05875Q89.8801125,13.6685,90.2135125,13.152999999999999Q90.5473125,12.6375,90.8508125,12.103Q91.1543125,11.568249999999999,91.3533125,11.129999999999999Z" fill="#4B5563" fill-opacity="1" style="mix-blend-mode:passthrough"/></g></g></svg>