<svg xmlns="http://www.w3.org/2000/svg" xmlns:xlink="http://www.w3.org/1999/xlink" fill="none" version="1.1" width="84" height="36" viewBox="0 0 84 36"><g><rect x="0" y="0" width="84" height="36" rx="4" fill="#F3F4F6" fill-opacity="1" style="mix-blend-mode:passthrough"/><g><path d="M40.948063,12.96594L45.631280000000004,12.96594L45.631280000000004,14.22637L40.948063,14.22637L40.948063,12.96594ZM45.19509,12.96594L45.42806,12.96594L45.65491,12.91431L46.51678,13.16303Q46.23394,15.86787,45.56631,17.97466Q44.89891,20.081200000000003,43.87231,21.6116Q42.84594,23.1418,41.48225,24.148Q41.38381,23.9807,41.225,23.7763Q41.06619,23.5723,40.8855,23.383Q40.705031,23.1938,40.547094,23.0733Q41.77472,22.2563,42.73219,20.8396Q43.68988,19.422800000000002,44.32294,17.50369Q44.956,15.58437,45.19509,13.27219L45.19509,12.96594ZM41.11103,16.72363L42.02891,15.888Q42.73678,16.49438,43.47594,17.199840000000002Q44.215090000000004,17.90509,44.903059999999996,18.6456Q45.59103,19.3858,46.146,20.0937Q46.70097,20.801299999999998,47.04025,21.413L46.00031,22.398699999999998Q45.67678,21.787,45.13822,21.0652Q44.59987,20.3433,43.9375,19.5796Q43.27534,18.8158,42.55106,18.084699999999998Q41.82678,17.35362,41.11103,16.72363ZM46.77819,14.443159999999999L53.4708,14.443159999999999L53.4708,15.71781L46.77819,15.71781L46.77819,14.443159999999999ZM50.5599,11.17787L51.8738,11.17787L51.8738,22.4636Q51.8738,23.0661,51.7281,23.3903Q51.5824,23.7147,51.2269,23.894199999999998Q50.8773,24.0679,50.2823,24.118Q49.68734,24.1681,48.80097,24.1681Q48.77909,23.971,48.70888,23.720599999999997Q48.63866,23.4703,48.55181,23.2131Q48.46497,22.9558,48.37419,22.758699999999997Q49.00638,22.7804,49.52809,22.7843Q50.0498,22.7882,50.2257,22.7821Q50.4077,22.776,50.4838,22.709899999999998Q50.5599,22.643900000000002,50.5599,22.4557L50.5599,11.17787ZM46.88734,17.536720000000003L47.95703,17.02812Q48.29128,17.50084,48.60934,18.0497Q48.92763,18.598300000000002,49.16869,19.124000000000002Q49.40975,19.6496,49.52175,20.0758L48.36916,20.6513Q48.265029999999996,20.233,48.03884,19.692700000000002Q47.81266,19.1522,47.51319,18.584699999999998Q47.21394,18.0171,46.88734,17.536720000000003ZM65.9241,11.25509L66.8229,12.32194Q66.0752,12.53806,65.1812,12.72466Q64.2872,12.91103,63.3163,13.05869Q62.3457,13.20612,61.365700000000004,13.31484Q60.3857,13.42334,59.4618,13.49619Q59.424099999999996,13.26169,59.3123,12.940999999999999Q59.2008,12.62031,59.096000000000004,12.409220000000001Q60.006,12.32084,60.9506,12.20534Q61.8953,12.08962,62.805099999999996,11.94197Q63.7149,11.79431,64.51599999999999,11.62194Q65.31700000000001,11.44934,65.9241,11.25509ZM59.036699999999996,15.44678L67.4724,15.44678L67.4724,16.70569L59.036699999999996,16.70569L59.036699999999996,15.44678ZM59.8078,18.877200000000002L66.745,18.877200000000002L66.745,24.12L65.35900000000001,24.12L65.35900000000001,20.083L61.131,20.083L61.131,24.176L59.8078,24.176L59.8078,18.877200000000002ZM60.5128,22.4343L65.9768,22.4343L65.9768,23.6401L60.5128,23.6401L60.5128,22.4343ZM62.565200000000004,12.51969L63.8947,12.51969L63.8947,19.5287L62.565200000000004,19.5287L62.565200000000004,12.51969ZM55.2567,12.29109L56.109,11.48412Q56.4747,11.779869999999999,56.878699999999995,12.1465Q57.2828,12.51291,57.6518,12.87341Q58.0208,13.23369,58.2481,13.51697L57.3364,14.44884Q57.1248,14.151340000000001,56.7738,13.77619Q56.4227,13.40103,56.0223,13.00881Q55.6222,12.61637,55.2567,12.29109ZM56.347,23.855800000000002L56.0587,22.6299L56.3279,22.1543L58.9376,20.052799999999998Q59.0282,20.3127,59.186099999999996,20.6497Q59.3441,20.986800000000002,59.4583,21.174300000000002Q58.5321,21.928800000000003,57.9574,22.4043Q57.382999999999996,22.8797,57.0621,23.154Q56.7412,23.4283,56.5869,23.5843Q56.4327,23.7402,56.347,23.855800000000002ZM54.5556,15.540189999999999L57.0621,15.540189999999999L57.0621,16.81484L54.5556,16.81484L54.5556,15.540189999999999ZM56.347,23.855800000000002Q56.2877,23.7057,56.1523,23.5053Q56.0171,23.3052,55.867000000000004,23.1166Q55.717,22.9283,55.5982,22.8158Q55.7493,22.6988,55.9261,22.486800000000002Q56.1028,22.2748,56.2358,21.9859Q56.3688,21.6969,56.3688,21.357599999999998L56.3688,15.540189999999999L57.6138,15.540189999999999L57.6138,22.323Q57.6138,22.323,57.421,22.4908Q57.228300000000004,22.6583,56.980199999999996,22.9033Q56.7322,23.1483,56.539500000000004,23.409100000000002Q56.347,23.669800000000002,56.347,23.855800000000002Z" fill="#374151" fill-opacity="1" style="mix-blend-mode:passthrough"/></g><g><path d="M30.4604,15.13618L30.2698,15.583459999999999C30.1304,15.910910000000001,29.6878,15.910910000000001,29.548299999999998,15.583459999999999L29.357799999999997,15.13618C29.0182,14.338650000000001,28.4065,13.703669999999999,27.6432,13.356300000000001L27.0562,13.08915C26.738799999999998,12.944700000000001,26.738799999999998,12.47208,27.0562,12.32763L27.6104,12.07541C28.3933,11.719100000000001,29.016,11.06062,29.3497,10.236006L29.5454,9.752652C29.681800000000003,9.4157826,30.136400000000002,9.4157826,30.2727,9.752652L30.468400000000003,10.236006C30.8022,11.06062,31.4249,11.719100000000001,32.2078,12.07541L32.7619,12.32763C33.0794,12.47208,33.0794,12.944700000000001,32.7619,13.08915L32.175,13.356300000000001C31.4117,13.703669999999999,30.8,14.338650000000001,30.4604,15.13618ZM29.909100000000002,17.40698C30.448900000000002,17.40698,30.9673,17.31257,31.4491,17.13901C31.4527,17.227890000000002,31.4545,17.317230000000002,31.4545,17.40698C31.4545,20.9005,28.6869,23.732599999999998,25.27273,23.732599999999998L25.27273,26.5C21.40909,24.918599999999998,16,22.5465,16,17.40698C16,13.913450000000001,18.76769,11.0814,22.181820000000002,11.0814L25.27273,11.0814C25.36043,11.0814,25.44775,11.08327,25.534599999999998,11.08697C25.36499,11.580020000000001,25.27273,12.11038,25.27273,12.662790000000001C25.27273,15.28293,27.3485,17.40698,29.909100000000002,17.40698Z" fill="#374151" fill-opacity="1" style="mix-blend-mode:passthrough"/></g></g></svg>