<svg xmlns="http://www.w3.org/2000/svg" xmlns:xlink="http://www.w3.org/1999/xlink" fill="none" version="1.1" width="128.015625" height="42" viewBox="0 0 128.015625 42"><g><rect x="0" y="0" width="128.015625" height="42" rx="4" fill="#2B5CE7" fill-opacity="1" style="mix-blend-mode:passthrough"/><g><path d="M34.2023125,13.10775L34.9813125,12.33575Q35.4293125,12.69125,35.9213125,13.122Q36.4135625,13.5525,36.8478125,13.9735Q37.2823125,14.39425,37.5410625,14.7365L36.7343125,15.626000000000001Q36.4720625,15.283750000000001,36.0500625,14.84075Q35.6283125,14.3975,35.1423125,13.93675Q34.6565625,13.47575,34.2023125,13.10775ZM35.1373125,26.4692L34.9090625,25.2868L35.2623125,24.7745L38.4668125,22.5833Q38.5110625,22.7437,38.5805625,22.9467Q38.6500625,23.1497,38.7305625,23.3385Q38.8110625,23.5273,38.8645625,23.650199999999998Q37.7275625,24.4513,37.0380625,24.9508Q36.3485625,25.45,35.9705625,25.7367Q35.5925625,26.0235,35.4143125,26.1857Q35.2360625,26.3482,35.1373125,26.4692ZM32.7470625,17.080750000000002L36.0260625,17.080750000000002L36.0260625,18.272L32.7470625,18.272L32.7470625,17.080750000000002ZM37.9588125,17.369999999999997L47.3548125,17.369999999999997L47.3548125,18.6015L37.9588125,18.6015L37.9588125,17.369999999999997ZM42.0186125,12.105L43.2813125,12.105L43.2813125,26.776L42.0186125,26.776L42.0186125,12.105ZM35.1373125,26.4692Q35.0865625,26.3115,34.974312499999996,26.1005Q34.8623125,25.8895,34.7358125,25.6895Q34.6093125,25.4895,34.4955625,25.3668Q34.7275625,25.2173,35.0070625,24.8745Q35.286812499999996,24.5317,35.286812499999996,24.017L35.286812499999996,17.080750000000002L36.499562499999996,17.080750000000002L36.499562499999996,25.099Q36.499562499999996,25.099,36.3585625,25.196Q36.2175625,25.2927,36.0195625,25.4468Q35.8215625,25.6007,35.6203125,25.788Q35.419312500000004,25.9753,35.2783125,26.1478Q35.1373125,26.3205,35.1373125,26.4692ZM58.3516125,13.812249999999999L59.511512499999995,13.812249999999999L59.511512499999995,22.608L58.3516125,22.608L58.3516125,13.812249999999999ZM61.440312500000005,12.224L62.6191125,12.224L62.6191125,25.2122Q62.6191125,25.796,62.4613125,26.09Q62.3035125,26.3843,61.9378125,26.5392Q61.572312499999995,26.6842,60.9293125,26.7235Q60.286612500000004,26.7628,59.243112499999995,26.7628Q59.208312500000005,26.5268,59.0851125,26.1815Q58.9618125,25.8365,58.8353125,25.581Q59.5996125,25.597,60.2238125,25.6Q60.8483125,25.6033,61.0465125,25.5935Q61.2706125,25.5837,61.3553125,25.5068Q61.440312500000005,25.43,61.440312500000005,25.222L61.440312500000005,12.224ZM48.5815125,16.80725L57.4108125,15.8045L57.5311125,16.93275L48.7018125,17.941499999999998L48.5815125,16.80725ZM50.8783125,12.08L52.1011125,12.08Q52.1018125,14.258,52.3143125,16.256Q52.5271125,18.253999999999998,52.9018125,19.941499999999998Q53.2768125,21.628700000000002,53.7475125,22.8818Q54.2186125,24.1345,54.7388125,24.8302Q55.2591125,25.5257,55.7596125,25.5257Q56.0545125,25.5257,56.213012500000005,24.9293Q56.371812500000004,24.3328,56.4358125,22.9247Q56.6281125,23.119799999999998,56.9183125,23.2962Q57.2086125,23.4725,57.4418125,23.5608Q57.334312499999996,24.7815,57.1363125,25.4662Q56.938312499999995,26.151,56.5908125,26.4323Q56.2433125,26.7135,55.6811125,26.7135Q54.974112500000004,26.7135,54.3498125,26.1593Q53.7258125,25.605,53.2025125,24.5933Q52.6795125,23.5815,52.2596125,22.2148Q51.8396125,20.848,51.5393125,19.212Q51.239112500000005,17.57575,51.0763125,15.76775Q50.9138125,13.95975,50.8783125,12.08ZM55.4063125,17.871499999999997L56.544312500000004,18.211750000000002Q55.7923125,20.0212,54.715312499999996,21.555999999999997Q53.6386125,23.0905,52.314612499999996,24.316000000000003Q50.990812500000004,25.5413,49.4656125,26.447Q49.383512499999995,26.3145,49.2291125,26.1362Q49.0748125,25.9583,48.9091125,25.78Q48.7436125,25.602,48.6108125,25.4918Q50.123512500000004,24.6873,51.4131125,23.5533Q52.7025125,22.4192,53.718112500000004,20.982300000000002Q54.7335125,19.545,55.4063125,17.871499999999997ZM52.947612500000005,13.058250000000001L53.751512500000004,12.4055Q54.1811125,12.719249999999999,54.6276125,13.11Q55.074312500000005,13.500499999999999,55.468112500000004,13.8895Q55.8618125,14.278500000000001,56.0955125,14.5985L55.247812499999995,15.336500000000001Q55.0168125,15.0165,54.6373125,14.6135Q54.2578125,14.21025,53.814012500000004,13.80225Q53.3706125,13.39425,52.947612500000005,13.058250000000001ZM67.0063125,18.11325L76.1648125,18.11325L76.1648125,19.295L67.0063125,19.295L67.0063125,18.11325ZM75.7545125,18.11325L77.00211250000001,18.11325Q77.00211250000001,18.11325,76.9988125,18.224Q76.9958125,18.33475,76.9958125,18.469250000000002Q76.9958125,18.6038,76.97981250000001,18.689Q76.89281249999999,20.5273,76.8013125,21.823700000000002Q76.7098125,23.119999999999997,76.59911249999999,23.9712Q76.4886125,24.8223,76.3378125,25.313Q76.1871125,25.8037,75.9693125,26.0403Q75.72131250000001,26.3417,75.4300125,26.4543Q75.1388125,26.567,74.7270125,26.598Q74.32431249999999,26.6327,73.63681249999999,26.6243Q72.94931249999999,26.616,72.19301250000001,26.5707Q72.1708125,26.3027,72.07001249999999,25.9625Q71.9696125,25.6225,71.7960125,25.3668Q72.5796125,25.4345,73.2508125,25.4522Q73.9223125,25.47,74.2065125,25.47Q74.68481249999999,25.47,74.8893125,25.2752Q75.10431249999999,25.054,75.26011249999999,24.319000000000003Q75.4160125,23.5837,75.5368125,22.1355Q75.6578125,20.6873,75.7545125,18.3375L75.7545125,18.11325ZM69.19561250000001,12.38375L70.46811249999999,12.73625Q69.92761250000001,14.076,69.1826125,15.3015Q68.4375125,16.527,67.5628125,17.557499999999997Q66.6881125,18.587699999999998,65.73781249999999,19.355Q65.63731250000001,19.226,65.4448125,19.0545Q65.2526125,18.883,65.0571125,18.71Q64.8618125,18.5367,64.7103125,18.436Q65.66761249999999,17.744500000000002,66.5140125,16.795749999999998Q67.36081250000001,15.84675,68.04751250000001,14.722000000000001Q68.7343125,13.597000000000001,69.19561250000001,12.38375ZM74.7791125,12.35175Q75.1571125,13.155999999999999,75.68361250000001,13.996749999999999Q76.2103125,14.8375,76.8281125,15.622Q77.4458125,16.4065,78.1035125,17.067Q78.7613125,17.727249999999998,79.3853125,18.203Q79.2338125,18.31975,79.0496125,18.493000000000002Q78.8653125,18.666,78.6983125,18.8567Q78.5313125,19.0472,78.4145125,19.211Q77.7845125,18.666,77.1253125,17.93425Q76.4663125,17.2025,75.8390125,16.3475Q75.2121125,15.49225,74.6538125,14.5855Q74.0955125,13.67875,73.6706125,12.78975L74.7791125,12.35175ZM70.1828125,18.44375L71.4463125,18.44375Q71.3050125,19.755000000000003,71.0211125,20.996000000000002Q70.7373125,22.2367,70.1435125,23.3418Q69.5498125,24.4467,68.5043125,25.3353Q67.4588125,26.2237,65.7910125,26.824Q65.7215125,26.67,65.5955125,26.481Q65.4696125,26.2922,65.32311250000001,26.1115Q65.1766125,25.9307,65.0413125,25.8078Q66.6085125,25.2895,67.5738125,24.503Q68.5390125,23.7165,69.0651125,22.739Q69.59111250000001,21.761200000000002,69.8273125,20.6682Q70.0638125,19.575,70.1828125,18.44375ZM80.9773125,14.51325L95.0668125,14.51325L95.0668125,15.6735L80.9773125,15.6735L80.9773125,14.51325ZM88.15911249999999,16.44625L89.3691125,16.44625L89.3691125,26.7892L88.15911249999999,26.7892L88.15911249999999,16.44625ZM83.56031250000001,18.5982L93.5103125,18.5982L93.5103125,19.746000000000002L84.7543125,19.746000000000002L84.7543125,25.2865L83.56031250000001,25.2865L83.56031250000001,18.5982ZM92.9806125,18.5982L94.1871125,18.5982L94.1871125,23.7773Q94.1871125,24.252499999999998,94.0535125,24.523Q93.9203125,24.7935,93.5388125,24.9422Q93.1731125,25.075,92.5138125,25.1065Q91.85481250000001,25.138,90.8276125,25.1283Q90.7928125,24.8825,90.6743125,24.5802Q90.55601250000001,24.278,90.4201125,24.041Q90.9326125,24.057000000000002,91.3906125,24.060299999999998Q91.8486125,24.063200000000002,92.1773125,24.058500000000002Q92.5061125,24.0535,92.6313125,24.0535Q92.8366125,24.0437,92.9085125,23.983Q92.9806125,23.922,92.9806125,23.758499999999998L92.9806125,18.5982ZM86.3926125,12.04525L87.6276125,12.3355Q87.0550125,14.19525,86.1785125,16.01025Q85.30211249999999,17.82525,84.0755125,19.3975Q82.8493125,20.9697,81.2163125,22.1175Q81.1406125,21.9695,81.0111125,21.784Q80.8815125,21.5982,80.7505125,21.4077Q80.6198125,21.217,80.49951250000001,21.0977Q81.63561250000001,20.329,82.5688125,19.297Q83.5023125,18.265,84.2340125,17.0655Q84.96611250000001,15.86575,85.50581249999999,14.58925Q86.0458125,13.312750000000001,86.3926125,12.04525Z" fill="#FFFFFF" fill-opacity="1" style="mix-blend-mode:passthrough"/></g></g></svg>