<svg xmlns="http://www.w3.org/2000/svg" xmlns:xlink="http://www.w3.org/1999/xlink" fill="none" version="1.1" width="130.015625" height="42" viewBox="0 0 130.015625 42"><g><rect x="0" y="0" width="130.015625" height="42" rx="4" fill="#FFFFFF" fill-opacity="1" style="mix-blend-mode:passthrough"/><rect x="0.5" y="0.5" width="129.015625" height="41" rx="3.5" fill-opacity="0" stroke-opacity="1" stroke="#D1D5DB" fill="none" stroke-width="1" style="mix-blend-mode:passthrough"/><g><path d="M19.5908125,12.845749999999999L32.1548125,12.845749999999999L32.1548125,13.9775L19.5908125,13.9775L19.5908125,12.845749999999999ZM18.8425625,12.845749999999999L20.0650625,12.845749999999999L20.0650625,17.950499999999998Q20.0650625,18.9167,20.0170625,20.051000000000002Q19.9690625,21.185200000000002,19.8170625,22.3692Q19.6650625,23.5533,19.3833125,24.6755Q19.1015625,25.7975,18.6278125,26.7335Q18.5210625,26.6292,18.3223125,26.4983Q18.1238125,26.3675,17.9208125,26.2428Q17.7178125,26.1182,17.5600625,26.0648Q18.0088125,25.17,18.2653125,24.137700000000002Q18.5218125,23.1055,18.6453125,22.0287Q18.7688125,20.951999999999998,18.8055625,19.9077Q18.8425625,18.8632,18.8425625,17.950499999999998L18.8425625,12.845749999999999ZM21.0800625,17.4775L30.641312499999998,17.4775L30.641312499999998,18.6155L21.0800625,18.6155L21.0800625,17.4775ZM30.1436125,17.4775L31.3378125,17.4775Q31.3378125,17.4775,31.3346125,17.585250000000002Q31.3316125,17.69275,31.3283125,17.82725Q31.325312500000003,17.9615,31.3191125,18.047Q31.2196125,20.0343,31.112112500000002,21.4298Q31.0046125,22.825,30.877812499999997,23.736Q30.751312499999997,24.647,30.5863125,25.1702Q30.4213125,25.6933,30.197312500000002,25.936Q29.943112499999998,26.2375,29.6566125,26.355Q29.3703125,26.4725,28.946112499999998,26.5135Q28.5628125,26.5483,27.8983125,26.5365Q27.234112500000002,26.525,26.500812500000002,26.4797Q26.478562500000002,26.2118,26.3748125,25.8748Q26.2710625,25.5378,26.107062499999998,25.2822Q26.880312500000002,25.3498,27.5406125,25.3657Q28.200812499999998,25.3818,28.4756125,25.3818Q28.7288125,25.3915,28.877612499999998,25.3485Q29.0266125,25.3053,29.1573125,25.171Q29.3406125,24.9977,29.4848125,24.5187Q29.629312499999997,24.0398,29.741612500000002,23.1613Q29.8541125,22.2828,29.9521125,20.9373Q30.0503125,19.5917,30.1436125,17.6955L30.1436125,17.4775ZM24.9060625,14.83125L26.1438125,14.83125Q26.105562499999998,16.39275,26.0050625,17.844250000000002Q25.9045625,19.2955,25.6390625,20.6017Q25.3738125,21.9078,24.844562500000002,23.0355Q24.3153125,24.163,23.4275625,25.0868Q22.5400625,26.0105,21.1933125,26.6933Q21.0828125,26.492,20.8428125,26.2367Q20.6030625,25.9818,20.3920625,25.8242Q21.6728125,25.201,22.4975625,24.3512Q23.3223125,23.5015,23.7983125,22.454Q24.2743125,21.4065,24.5003125,20.194699999999997Q24.7265625,18.983,24.8003125,17.636Q24.8740625,16.28875,24.9060625,14.83125ZM40.4093125,12.121L41.644512500000005,12.121L41.644512500000005,18.8368Q41.644512500000005,19.8307,41.511112499999996,20.7887Q41.3776125,21.746499999999997,40.9756125,22.6217Q40.5738125,23.4967,39.7793125,24.27Q38.985012499999996,25.0432,37.677612499999995,25.6777Q36.3700125,26.3123,34.4093125,26.778Q34.340112500000004,26.6425,34.217012499999996,26.444Q34.0943125,26.2455,33.9558125,26.0438Q33.8173125,25.842,33.6881125,25.713Q35.5793125,25.3105,36.822312499999995,24.7642Q38.065312500000005,24.2177,38.7918125,23.55Q39.5185125,22.882199999999997,39.8653125,22.122Q40.2121125,21.3617,40.3105125,20.5317Q40.4093125,19.7015,40.4093125,18.8403L40.4093125,12.121ZM36.150512500000005,15.748000000000001L36.150512500000005,18.7397L45.9280125,18.7397L45.9280125,15.748000000000001L36.150512500000005,15.748000000000001ZM34.9716125,14.58775L47.1533125,14.58775L47.1533125,19.89L34.9716125,19.89L34.9716125,14.58775ZM36.7965125,20.4242Q37.5343125,21.9235,38.5801125,22.877499999999998Q39.6260125,23.8315,41.0423125,24.3763Q42.4588125,24.9207,44.2921125,25.1677Q46.1253125,25.4145,48.4378125,25.522Q48.258112499999996,25.733,48.0973125,26.0807Q47.936612499999995,26.4285,47.8733125,26.7437Q45.5136125,26.599,43.6095125,26.2763Q41.7056125,25.9538,40.2138125,25.3148Q38.7223125,24.6758,37.6055125,23.5895Q36.4888125,22.5033,35.7198125,20.8275L36.7965125,20.4242ZM50.6733125,13.86275L63.4133125,13.86275L63.4133125,15.104L50.6733125,15.104L50.6733125,13.86275ZM49.8395125,24.3503L64.2171125,24.3503L64.2171125,25.5505L49.8395125,25.5505L49.8395125,24.3503ZM56.3026125,14.49075L57.6373125,14.49075L57.6373125,24.8487L56.3026125,24.8487L56.3026125,14.49075ZM72.3516125,15.3805L73.59031250000001,15.3805L73.59031250000001,26.7607L72.3516125,26.7607L72.3516125,15.3805ZM68.5498125,18.511200000000002L68.5498125,20.233L77.5625125,20.233L77.5625125,18.511200000000002L68.5498125,18.511200000000002ZM68.5498125,15.846L68.5498125,17.54825L77.5625125,17.54825L77.5625125,15.846L68.5498125,15.846ZM67.38051250000001,14.823L78.7916125,14.823L78.7916125,21.252499999999998L67.38051250000001,21.252499999999998L67.38051250000001,14.823ZM65.86801249999999,22.7747L80.1893125,22.7747L80.1893125,23.894L65.86801249999999,23.894L65.86801249999999,22.7747ZM68.7758125,12.60425L69.7963125,12.128Q70.2833125,12.663,70.7796125,13.3305Q71.27601250000001,13.998000000000001,71.51611249999999,14.500250000000001L70.4458125,15.04325Q70.2145125,14.5535,69.7355125,13.85575Q69.2565125,13.158000000000001,68.7758125,12.60425ZM76.3533125,12.129999999999999L77.6533125,12.5535Q77.1743125,13.32075,76.6218125,14.112Q76.0693125,14.902999999999999,75.6045125,15.454L74.57861249999999,15.05875Q74.88001249999999,14.6685,75.21351250000001,14.152999999999999Q75.5473125,13.6375,75.8508125,13.103Q76.1543125,12.568249999999999,76.3533125,12.129999999999999ZM84.0063125,18.11325L93.1648125,18.11325L93.1648125,19.295L84.0063125,19.295L84.0063125,18.11325ZM92.7545125,18.11325L94.0020125,18.11325Q94.0020125,18.11325,93.9988125,18.224Q93.9958125,18.33475,93.9958125,18.469250000000002Q93.9958125,18.6038,93.9798125,18.689Q93.8928125,20.5273,93.8013125,21.823700000000002Q93.7098125,23.119999999999997,93.5990125,23.9712Q93.4886125,24.8223,93.3378125,25.313Q93.1871125,25.8037,92.9693125,26.0403Q92.7213125,26.3417,92.4300125,26.4543Q92.1388125,26.567,91.7271125,26.598Q91.3243125,26.6327,90.6368125,26.6243Q89.9493125,26.616,89.1930125,26.5707Q89.1708125,26.3027,89.0700125,25.9625Q88.9696125,25.6225,88.7961125,25.3668Q89.5795125,25.4345,90.2508125,25.4522Q90.9223125,25.47,91.2066125,25.47Q91.6848125,25.47,91.8893125,25.2752Q92.1043125,25.054,92.2601125,24.319000000000003Q92.4160125,23.5837,92.5368125,22.1355Q92.6578125,20.6873,92.7545125,18.3375L92.7545125,18.11325ZM86.1956125,12.38375L87.4681125,12.73625Q86.9276125,14.076,86.1826125,15.3015Q85.4375125,16.527,84.5628125,17.557499999999997Q83.6881125,18.587699999999998,82.7378125,19.355Q82.6373125,19.226,82.4448125,19.0545Q82.2526125,18.883,82.0570125,18.71Q81.8618125,18.5367,81.7103125,18.436Q82.6676125,17.744500000000002,83.5140125,16.795749999999998Q84.3608125,15.84675,85.0475125,14.722000000000001Q85.7343125,13.597000000000001,86.1956125,12.38375ZM91.7790125,12.35175Q92.1571125,13.155999999999999,92.6836125,13.996749999999999Q93.2103125,14.8375,93.8281125,15.622Q94.4458125,16.4065,95.1035125,17.067Q95.7613125,17.727249999999998,96.3853125,18.203Q96.2338125,18.31975,96.0495125,18.493000000000002Q95.8653125,18.666,95.6983125,18.8567Q95.5313125,19.0472,95.4146125,19.211Q94.7845125,18.666,94.1253125,17.93425Q93.4663125,17.2025,92.8391125,16.3475Q92.2121125,15.49225,91.6538125,14.5855Q91.0956125,13.67875,90.6706125,12.78975L91.7790125,12.35175ZM87.1828125,18.44375L88.4463125,18.44375Q88.3050125,19.755000000000003,88.0211125,20.996000000000002Q87.7373125,22.2367,87.1435125,23.3418Q86.5498125,24.4467,85.5043125,25.3353Q84.4588125,26.2237,82.7910125,26.824Q82.7216125,26.67,82.5956125,26.481Q82.4695125,26.2922,82.3230125,26.1115Q82.1765125,25.9307,82.0413125,25.8078Q83.6086125,25.2895,84.5738125,24.503Q85.5390125,23.7165,86.0651125,22.739Q86.5911125,21.761200000000002,86.8273125,20.6682Q87.0638125,19.575,87.1828125,18.44375ZM97.9773125,14.51325L112.0668125,14.51325L112.0668125,15.6735L97.9773125,15.6735L97.9773125,14.51325ZM105.1591125,16.44625L106.3691125,16.44625L106.3691125,26.7892L105.1591125,26.7892L105.1591125,16.44625ZM100.5603125,18.5982L110.5103125,18.5982L110.5103125,19.746000000000002L101.7543125,19.746000000000002L101.7543125,25.2865L100.5603125,25.2865L100.5603125,18.5982ZM109.9805125,18.5982L111.1871125,18.5982L111.1871125,23.7773Q111.1871125,24.252499999999998,111.0536125,24.523Q110.9203125,24.7935,110.5388125,24.9422Q110.1731125,25.075,109.5138125,25.1065Q108.8548125,25.138,107.8275125,25.1283Q107.7928125,24.8825,107.6743125,24.5802Q107.5560125,24.278,107.4200125,24.041Q107.9326125,24.057000000000002,108.3906125,24.060299999999998Q108.8486125,24.063200000000002,109.1773125,24.058500000000002Q109.5061125,24.0535,109.6313125,24.0535Q109.8366125,24.0437,109.9085125,23.983Q109.9805125,23.922,109.9805125,23.758499999999998L109.9805125,18.5982ZM103.3926125,12.04525L104.6276125,12.3355Q104.0550125,14.19525,103.1786125,16.01025Q102.3021125,17.82525,101.0755125,19.3975Q99.8493125,20.9697,98.2163125,22.1175Q98.1406125,21.9695,98.0111125,21.784Q97.8815125,21.5982,97.7506125,21.4077Q97.6198125,21.217,97.4996125,21.0977Q98.6355125,20.329,99.5688125,19.297Q100.5023125,18.265,101.2340125,17.0655Q101.9661125,15.86575,102.5058125,14.58925Q103.0458125,13.312750000000001,103.3926125,12.04525Z" fill="#4B5563" fill-opacity="1" style="mix-blend-mode:passthrough"/></g></g></svg>