<svg xmlns="http://www.w3.org/2000/svg" xmlns:xlink="http://www.w3.org/1999/xlink" fill="none" version="1.1" width="130.015625" height="42" viewBox="0 0 130.015625 42"><g><rect x="0" y="0" width="130.015625" height="42" rx="4" fill="#FFFFFF" fill-opacity="1" style="mix-blend-mode:passthrough"/><rect x="0.5" y="0.5" width="129.015625" height="41" rx="3.5" fill-opacity="0" stroke-opacity="1" stroke="#D1D5DB" fill="none" stroke-width="1" style="mix-blend-mode:passthrough"/><g><path d="M18.4858125,13.60525L31.5868125,13.60525L31.5868125,14.622L18.4858125,14.622L18.4858125,13.60525ZM18.9925625,25.3283L31.1173125,25.3283L31.1173125,26.3475L18.9925625,26.3475L18.9925625,25.3283ZM21.6328125,15.6875L28.371112500000002,15.6875L28.371112500000002,16.588250000000002L21.6328125,16.588250000000002L21.6328125,15.6875ZM21.6328125,17.70275L28.371112500000002,17.70275L28.371112500000002,18.6132L21.6328125,18.6132L21.6328125,17.70275ZM17.7395625,19.7605L32.2858125,19.7605L32.2858125,20.7797L17.7395625,20.7797L17.7395625,19.7605ZM21.0925625,22.630000000000003L28.9453125,22.630000000000003L28.9453125,23.6278L21.0925625,23.6278L21.0925625,22.630000000000003ZM20.9268125,12.064L22.1210625,12.064L22.1210625,20.3258L20.9268125,20.3258L20.9268125,12.064ZM27.9526125,12.07025L29.1653125,12.07025L29.1653125,20.332L27.9526125,20.332L27.9526125,12.07025ZM24.3675625,21.287L25.5840625,21.287L25.5840625,25.8918L24.3675625,25.8918L24.3675625,21.287ZM21.7680625,20.041L22.7733125,20.4192Q22.2943125,21.2442,21.5808125,21.999499999999998Q20.8675625,22.7545,20.0375625,23.3657Q19.2078125,23.9767,18.3650625,24.3733Q18.2830625,24.2282,18.1440625,24.0612Q18.0053125,23.894199999999998,17.8570625,23.7305Q17.7088125,23.566499999999998,17.5760625,23.4563Q18.3913125,23.1325,19.1863125,22.6035Q19.9815625,22.074199999999998,20.6570625,21.4055Q21.3325625,20.7367,21.7680625,20.041ZM28.317812500000002,20.041Q28.740112500000002,20.7145,29.3978125,21.3368Q30.055612500000002,21.9587,30.8573125,22.4525Q31.6591125,22.945999999999998,32.484812500000004,23.25Q32.3618125,23.360500000000002,32.2073125,23.5245Q32.0528125,23.688200000000002,31.9188125,23.8632Q31.7848125,24.038,31.687112499999998,24.1833Q30.8426125,23.8223,30.0233125,23.230800000000002Q29.2043125,22.639,28.5198125,21.9115Q27.8353125,21.183799999999998,27.3658125,20.4032L28.317812500000002,20.041ZM33.943312500000005,15.074L40.161812499999996,15.074L40.161812499999996,16.187L33.943312500000005,16.187L33.943312500000005,15.074ZM33.7596125,23.9867Q34.5400125,23.819699999999997,35.5543125,23.5887Q36.5686125,23.3577,37.706312499999996,23.082Q38.8441125,22.805999999999997,39.9773125,22.533L40.0938125,23.6425Q38.505512499999995,24.0533,36.9033125,24.459Q35.3013125,24.8645,34.044312500000004,25.1817L33.7596125,23.9867ZM34.579612499999996,17.100749999999998L35.5356125,16.920749999999998Q35.734812500000004,17.8345,35.9018125,18.860500000000002Q36.0688125,19.886499999999998,36.189012500000004,20.8708Q36.3096125,21.8547,36.3576125,22.6467L35.3481125,22.8355Q35.3126125,22.0437,35.1983125,21.0565Q35.0841125,20.069000000000003,34.9250125,19.0337Q34.7660125,17.99825,34.579612499999996,17.100749999999998ZM38.2823125,16.723750000000003L39.4110125,16.93275Q39.286812499999996,17.73,39.1298125,18.613Q38.9731125,19.496000000000002,38.8018125,20.3842Q38.630812500000005,21.2725,38.4578125,22.0728Q38.2851125,22.872999999999998,38.1090125,23.5013L37.2196125,23.286Q37.3733125,22.6547,37.5288125,21.8372Q37.684312500000004,21.0197,37.827312500000005,20.1205Q37.9703125,19.221,38.0876125,18.345750000000002Q38.2048125,17.47025,38.2823125,16.723750000000003ZM35.8105125,12.4635L36.8446125,12.1475Q37.1938125,12.70475,37.5146125,13.369250000000001Q37.8353125,14.0335,37.9828125,14.52675L36.892112499999996,14.905999999999999Q36.750812499999995,14.406500000000001,36.446012499999995,13.716750000000001Q36.1413125,13.027000000000001,35.8105125,12.4635ZM43.780612500000004,15.37575L48.3708125,15.37575L48.3708125,16.52L43.780612500000004,16.52L43.780612500000004,15.37575ZM41.0296125,24.8727L47.0793125,24.8727L47.0793125,25.9983L41.0296125,25.9983L41.0296125,24.8727ZM43.0791125,12.048L44.2981125,12.048L44.2981125,20.206699999999998L43.0791125,20.206699999999998L43.0791125,12.048ZM40.474112500000004,19.7118L47.695612499999996,19.7118L47.695612499999996,26.696L46.4731125,26.696L46.4731125,20.8372L41.646812499999996,20.8372L41.646812499999996,26.76L40.474112500000004,26.76L40.474112500000004,19.7118ZM50.0858125,12.64475L63.9893125,12.64475L63.9893125,13.52075L50.0858125,13.52075L50.0858125,12.64475ZM54.5093125,13.01L55.5973125,13.01L55.5973125,16.61725L54.5093125,16.61725L54.5093125,13.01ZM58.2760125,13.01L59.4013125,13.01L59.4013125,16.61725L58.2760125,16.61725L58.2760125,13.01ZM51.9418125,15.11L51.9418125,16.1055L62.1113125,16.1055L62.1113125,15.11L51.9418125,15.11ZM50.8475125,14.309000000000001L63.2555125,14.309000000000001L63.2555125,16.91L50.8475125,16.91L50.8475125,14.309000000000001ZM56.0451125,17.76625L63.6911125,17.76625L63.6911125,18.6207L56.0451125,18.6207L56.0451125,17.76625ZM56.5228125,21.130000000000003L56.5228125,21.795L61.7413125,21.795L61.7413125,21.130000000000003L56.5228125,21.130000000000003ZM56.5228125,19.842L56.5228125,20.4877L61.7413125,20.4877L61.7413125,19.842L56.5228125,19.842ZM55.4935125,19.1847L62.7981125,19.1847L62.7981125,22.4525L55.4935125,22.4525L55.4935125,19.1847ZM52.7083125,17.04725L53.7748125,17.39725Q53.3658125,17.966250000000002,52.8110125,18.5357Q52.2565125,19.105,51.6408125,19.601Q51.0253125,20.097,50.4181125,20.4685Q50.2791125,20.3048,50.0675125,20.079Q49.8563125,19.8532,49.6888125,19.7145Q50.2648125,19.377499999999998,50.8395125,18.936700000000002Q51.4143125,18.496000000000002,51.9106125,18.00425Q52.4071125,17.51225,52.7083125,17.04725ZM53.1056125,19.0927L54.1435125,19.446199999999997Q53.6868125,20.153,53.0583125,20.8762Q52.4298125,21.5992,51.7133125,22.246000000000002Q50.9968125,22.8925,50.2643125,23.3857Q50.1538125,23.2122,49.9486125,22.982Q49.7435125,22.7517,49.5885125,22.613Q50.2738125,22.1768,50.9481125,21.5933Q51.6223125,21.0098,52.1893125,20.3575Q52.7563125,19.705199999999998,53.1056125,19.0927ZM56.1463125,16.904249999999998L57.1906125,17.18825Q56.7133125,18.22475,55.9768125,19.183Q55.2405125,20.141,54.4531125,20.807000000000002Q54.3711125,20.7125,54.2098125,20.5785Q54.0488125,20.444499999999998,53.8846125,20.3057Q53.7203125,20.1667,53.5938125,20.091Q54.3823125,19.4912,55.0571125,18.6545Q55.7321125,17.81775,56.1463125,16.904249999999998ZM57.2506125,23.0945L62.0773125,23.0945L62.0773125,23.858L56.6418125,23.858L57.2506125,23.0945ZM61.7318125,23.0945L61.9498125,23.0945L62.1556125,23.05L62.8053125,23.4265Q62.2143125,24.225,61.3043125,24.799Q60.3945125,25.3727,59.2673125,25.7665Q58.1401125,26.1602,56.8825125,26.4085Q55.6250125,26.657,54.3421125,26.7885Q54.2788125,26.599,54.1523125,26.3603Q54.0260125,26.1217,53.8898125,25.9608Q55.1008125,25.8638,56.2825125,25.663Q57.4645125,25.4622,58.5223125,25.1397Q59.5801125,24.817,60.4093125,24.3442Q61.2386125,23.871499999999997,61.7318125,23.2502L61.7318125,23.0945ZM56.7033125,23.6525Q57.4178125,24.295,58.6291125,24.7582Q59.8405125,25.2215,61.3380125,25.5002Q62.8356125,25.7792,64.4133125,25.8892Q64.2586125,26.0443,64.0943125,26.2952Q63.9300125,26.5462,63.8383125,26.726Q62.6390125,26.6168,61.4688125,26.395Q60.2988125,26.1735,59.2466125,25.8335Q58.1943125,25.4935,57.3293125,25.0322Q56.4645125,24.571,55.8600125,23.9852L56.7033125,23.6525ZM57.7383125,22.0322L58.6933125,22.335Q57.9803125,23.188499999999998,56.8598125,23.8565Q55.7393125,24.5243,54.4628125,24.9802Q54.3551125,24.835,54.1476125,24.6365Q53.9403125,24.438000000000002,53.7818125,24.317700000000002Q55.0148125,23.9065,56.0806125,23.3095Q57.1463125,22.7122,57.7383125,22.0322ZM51.7183125,21.2458L52.5103125,20.453699999999998L52.7973125,20.5385L52.7973125,26.7698L51.7183125,26.7698L51.7183125,21.2458ZM65.7355125,25.2677L80.3030125,25.2677L80.3030125,26.3245L65.7355125,26.3245L65.7355125,25.2677ZM66.7456125,14.144L79.2291125,14.144L79.2291125,15.117L66.7456125,15.117L66.7456125,14.144ZM66.1071125,18.933L79.9406125,18.933L79.9406125,19.9087L66.1071125,19.9087L66.1071125,18.933ZM67.5441125,16.50025L78.5436125,16.50025L78.5436125,17.457250000000002L67.5441125,17.457250000000002L67.5441125,16.50025ZM67.4583125,21.1388L78.6435125,21.1388L78.6435125,25.7655L77.4746125,25.7655L77.4746125,22.1677L75.2263125,22.1677L75.2263125,25.7655L74.1196125,25.7655L74.1196125,22.1677L71.89711249999999,22.1677L71.89711249999999,25.7655L70.7903125,25.7655L70.7903125,22.1677L68.5835125,22.1677L68.5835125,25.7655L67.4583125,25.7655L67.4583125,21.1388ZM69.0333125,12.419L70.08511250000001,12.05575Q70.4418125,12.46825,70.75981250000001,12.988Q71.0778125,13.5075,71.2316125,13.89425L70.1196125,14.343Q69.9783125,13.95,69.6706125,13.402000000000001Q69.3631125,12.85375,69.0333125,12.419ZM75.94501249999999,12.03275L77.1321125,12.3655Q76.7773125,13.02,76.3898125,13.6465Q76.0023125,14.27275,75.6628125,14.743L74.6611125,14.406500000000001Q74.99781250000001,13.915,75.3621125,13.24075Q75.7266125,12.56625,75.94501249999999,12.03275ZM72.38081249999999,14.590250000000001L73.6098125,14.590250000000001L73.6098125,19.508200000000002L72.38081249999999,19.508200000000002L72.38081249999999,14.590250000000001ZM84.0063125,18.11325L93.1648125,18.11325L93.1648125,19.295L84.0063125,19.295L84.0063125,18.11325ZM92.7545125,18.11325L94.0020125,18.11325Q94.0020125,18.11325,93.9988125,18.224Q93.9958125,18.33475,93.9958125,18.469250000000002Q93.9958125,18.6038,93.9798125,18.689Q93.8928125,20.5273,93.8013125,21.823700000000002Q93.7098125,23.119999999999997,93.5990125,23.9712Q93.4886125,24.8223,93.3378125,25.313Q93.1871125,25.8037,92.9693125,26.0403Q92.7213125,26.3417,92.4300125,26.4543Q92.1388125,26.567,91.7271125,26.598Q91.3243125,26.6327,90.6368125,26.6243Q89.9493125,26.616,89.1930125,26.5707Q89.1708125,26.3027,89.0700125,25.9625Q88.9696125,25.6225,88.7961125,25.3668Q89.5795125,25.4345,90.2508125,25.4522Q90.9223125,25.47,91.2066125,25.47Q91.6848125,25.47,91.8893125,25.2752Q92.1043125,25.054,92.2601125,24.319000000000003Q92.4160125,23.5837,92.5368125,22.1355Q92.6578125,20.6873,92.7545125,18.3375L92.7545125,18.11325ZM86.1956125,12.38375L87.4681125,12.73625Q86.9276125,14.076,86.1826125,15.3015Q85.4375125,16.527,84.5628125,17.557499999999997Q83.6881125,18.587699999999998,82.7378125,19.355Q82.6373125,19.226,82.4448125,19.0545Q82.2526125,18.883,82.0570125,18.71Q81.8618125,18.5367,81.7103125,18.436Q82.6676125,17.744500000000002,83.5140125,16.795749999999998Q84.3608125,15.84675,85.0475125,14.722000000000001Q85.7343125,13.597000000000001,86.1956125,12.38375ZM91.7790125,12.35175Q92.1571125,13.155999999999999,92.6836125,13.996749999999999Q93.2103125,14.8375,93.8281125,15.622Q94.4458125,16.4065,95.1035125,17.067Q95.7613125,17.727249999999998,96.3853125,18.203Q96.2338125,18.31975,96.0495125,18.493000000000002Q95.8653125,18.666,95.6983125,18.8567Q95.5313125,19.0472,95.4146125,19.211Q94.7845125,18.666,94.1253125,17.93425Q93.4663125,17.2025,92.8391125,16.3475Q92.2121125,15.49225,91.6538125,14.5855Q91.0956125,13.67875,90.6706125,12.78975L91.7790125,12.35175ZM87.1828125,18.44375L88.4463125,18.44375Q88.3050125,19.755000000000003,88.0211125,20.996000000000002Q87.7373125,22.2367,87.1435125,23.3418Q86.5498125,24.4467,85.5043125,25.3353Q84.4588125,26.2237,82.7910125,26.824Q82.7216125,26.67,82.5956125,26.481Q82.4695125,26.2922,82.3230125,26.1115Q82.1765125,25.9307,82.0413125,25.8078Q83.6086125,25.2895,84.5738125,24.503Q85.5390125,23.7165,86.0651125,22.739Q86.5911125,21.761200000000002,86.8273125,20.6682Q87.0638125,19.575,87.1828125,18.44375ZM97.9773125,14.51325L112.0668125,14.51325L112.0668125,15.6735L97.9773125,15.6735L97.9773125,14.51325ZM105.1591125,16.44625L106.3691125,16.44625L106.3691125,26.7892L105.1591125,26.7892L105.1591125,16.44625ZM100.5603125,18.5982L110.5103125,18.5982L110.5103125,19.746000000000002L101.7543125,19.746000000000002L101.7543125,25.2865L100.5603125,25.2865L100.5603125,18.5982ZM109.9805125,18.5982L111.1871125,18.5982L111.1871125,23.7773Q111.1871125,24.252499999999998,111.0536125,24.523Q110.9203125,24.7935,110.5388125,24.9422Q110.1731125,25.075,109.5138125,25.1065Q108.8548125,25.138,107.8275125,25.1283Q107.7928125,24.8825,107.6743125,24.5802Q107.5560125,24.278,107.4200125,24.041Q107.9326125,24.057000000000002,108.3906125,24.060299999999998Q108.8486125,24.063200000000002,109.1773125,24.058500000000002Q109.5061125,24.0535,109.6313125,24.0535Q109.8366125,24.0437,109.9085125,23.983Q109.9805125,23.922,109.9805125,23.758499999999998L109.9805125,18.5982ZM103.3926125,12.04525L104.6276125,12.3355Q104.0550125,14.19525,103.1786125,16.01025Q102.3021125,17.82525,101.0755125,19.3975Q99.8493125,20.9697,98.2163125,22.1175Q98.1406125,21.9695,98.0111125,21.784Q97.8815125,21.5982,97.7506125,21.4077Q97.6198125,21.217,97.4996125,21.0977Q98.6355125,20.329,99.5688125,19.297Q100.5023125,18.265,101.2340125,17.0655Q101.9661125,15.86575,102.5058125,14.58925Q103.0458125,13.312750000000001,103.3926125,12.04525Z" fill="#4B5563" fill-opacity="1" style="mix-blend-mode:passthrough"/></g></g></svg>