<svg xmlns="http://www.w3.org/2000/svg" xmlns:xlink="http://www.w3.org/1999/xlink" fill="none" version="1.1" width="32" height="32" viewBox="0 0 32 32"><g><rect x="0" y="0" width="32" height="32" rx="0" fill="#000000" fill-opacity="0" style="mix-blend-mode:passthrough"/><g><rect x="0" y="0" width="32" height="32" rx="16" fill="#EF4444" fill-opacity="1" style="mix-blend-mode:passthrough"/><g><rect x="6.453125" y="4" width="19.078125" height="24" rx="0" fill="#000000" fill-opacity="0" style="mix-blend-mode:passthrough"/><g><path d="M11.968745,16.539099999999998L8.929685,16.539099999999998L8.929685,15.3125L11.968745,15.3125Q12.851565,15.3125,13.398435,15.0312Q13.945315,14.75,14.199214999999999,14.25Q14.453125,13.75,14.453125,13.10938Q14.453125,12.52344,14.199214999999999,12.00781Q13.945315,11.49219,13.398435,11.17578Q12.851565,10.85938,11.968745,10.85938L9.281245,10.85938L9.281245,21L7.773435,21L7.773435,9.625L11.968745,9.625Q13.257815,9.625,14.148435,10.07031Q15.039065,10.51562,15.500005,11.30078Q15.960935,12.08594,15.960935,13.09375Q15.960935,14.1875,15.500005,14.9609Q15.039065,15.7344,14.148435,16.136699999999998Q13.257815,16.539099999999998,11.968745,16.539099999999998ZM24.632825,14.4062L24.632825,16.1406Q24.632825,17.539099999999998,24.382825,18.5Q24.132825,19.460900000000002,23.664025,20.0469Q23.195325,20.6328,22.535125,20.8945Q21.875025,21.1562,21.046925,21.1562Q20.390625,21.1562,19.835925,20.9922Q19.281225,20.8281,18.839824999999998,20.4648Q18.398425,20.1016,18.085925,19.5156Q17.773425,18.9297,17.609325,18.0938Q17.445325,17.2578,17.445325,16.1406L17.445325,14.4062Q17.445325,13.00781,17.699225,12.0625Q17.953125,11.11719,18.421925,10.54297Q18.890625,9.96875,19.550825,9.71875Q20.210925,9.46875,21.031225,9.46875Q21.695325,9.46875,22.253925000000002,9.628910000000001Q22.812525,9.78906,23.250025,10.13672Q23.687525,10.48438,23.996125,11.058589999999999Q24.304725,11.63281,24.468725,12.46094Q24.632825,13.28906,24.632825,14.4062ZM23.179725,16.375L23.179725,14.1641Q23.179725,13.39844,23.089825,12.81641Q23.000025,12.23438,22.828125,11.82031Q22.656225,11.40625,22.394525,11.14844Q22.132825,10.89062,21.792925,10.76953Q21.453125,10.64844,21.031225,10.64844Q20.515625,10.64844,20.117224999999998,10.839839999999999Q19.718725,11.03125,19.449225,11.44531Q19.179724999999998,11.85938,19.039025000000002,12.53125Q18.898425,13.20312,18.898425,14.1641L18.898425,16.375Q18.898425,17.1406,18.988325,17.726599999999998Q19.078125,18.3125,19.257825,18.738300000000002Q19.437525,19.164099999999998,19.695325,19.4375Q19.953125,19.710900000000002,20.292925,19.8398Q20.632825,19.9688,21.046925,19.9688Q21.578125,19.9688,21.976525000000002,19.7656Q22.375025,19.5625,22.644525,19.1289Q22.914025,18.6953,23.046925,18.011699999999998Q23.179725,17.3281,23.179725,16.375Z" fill="#FFFFFF" fill-opacity="1" style="mix-blend-mode:passthrough"/></g></g></g></g></svg>