<svg xmlns="http://www.w3.org/2000/svg" xmlns:xlink="http://www.w3.org/1999/xlink" fill="none" version="1.1" width="32" height="32" viewBox="0 0 32 32"><g><rect x="0" y="0" width="32" height="32" rx="16" fill="#E9CE1D" fill-opacity="1" style="mix-blend-mode:passthrough"/><g><rect x="6.453125" y="4" width="19.078125" height="24" rx="0" fill="#000000" fill-opacity="0" style="mix-blend-mode:passthrough"/><g><path d="M11.968745,16.539099999999998L8.929685,16.539099999999998L8.929685,15.3125L11.968745,15.3125Q12.851565,15.3125,13.398435,15.0312Q13.945315,14.75,14.199214999999999,14.25Q14.453125,13.75,14.453125,13.10938Q14.453125,12.52344,14.199214999999999,12.00781Q13.945315,11.49219,13.398435,11.17578Q12.851565,10.85938,11.968745,10.85938L9.281245,10.85938L9.281245,21L7.773435,21L7.773435,9.625L11.968745,9.625Q13.257815,9.625,14.148435,10.07031Q15.039065,10.51562,15.500005,11.30078Q15.960935,12.08594,15.960935,13.09375Q15.960935,14.1875,15.500005,14.9609Q15.039065,15.7344,14.148435,16.136699999999998Q13.257815,16.539099999999998,11.968745,16.539099999999998ZM24.945325,19.8125L24.945325,21L17.500025,21L17.500025,19.960900000000002L21.226525000000002,15.8125Q21.914025000000002,15.0469,22.292925,14.5117Q22.671925,13.97656,22.824225,13.55078Q22.976525,13.125,22.976525,12.67969Q22.976525,12.11719,22.746125,11.660160000000001Q22.515625,11.20312,22.070325,10.92969Q21.625025,10.65625,20.992224999999998,10.65625Q20.234325,10.65625,19.730425,10.94922Q19.226525000000002,11.24219,18.976525000000002,11.76562Q18.726525000000002,12.28906,18.726525000000002,12.96875L17.281225,12.96875Q17.281225,12.00781,17.703125,11.21094Q18.125025,10.41406,18.953125,9.941410000000001Q19.781225,9.46875,20.992224999999998,9.46875Q22.070325,9.46875,22.835925,9.847660000000001Q23.601525,10.22656,24.011725,10.910160000000001Q24.421925,11.59375,24.421925,12.50781Q24.421925,13.00781,24.253925,13.51953Q24.085925,14.0312,23.792925,14.5391Q23.500025,15.0469,23.113325,15.5391Q22.726525,16.0312,22.289025000000002,16.5078L19.242224999999998,19.8125L24.945325,19.8125Z" fill="#FFFFFF" fill-opacity="1" style="mix-blend-mode:passthrough"/></g></g></g></svg>