<svg xmlns="http://www.w3.org/2000/svg" xmlns:xlink="http://www.w3.org/1999/xlink" fill="none" version="1.1" width="240" height="42" viewBox="0 0 240 42"><defs><clipPath id="master_svg0_16_32717"><rect x="0" y="0" width="240" height="42" rx="4"/></clipPath><clipPath id="master_svg1_16_32491"><rect x="12" y="13" width="16" height="16" rx="0"/></clipPath></defs><g><rect x="0" y="0" width="240" height="42" rx="0" fill="#000000" fill-opacity="0" style="mix-blend-mode:passthrough"/><g clip-path="url(#master_svg0_16_32717)"><rect x="0" y="0" width="240" height="42" rx="4" fill="#FFFFFF" fill-opacity="1" style="mix-blend-mode:passthrough"/><g><path d="M40.61625,21.0548Q41.53025,20.7563,42.8055,20.2865Q44.08075,19.8167,45.38225,19.316499999999998L45.5905,20.3947Q44.39125,20.8657,43.1685,21.3417Q41.94575,21.817500000000003,40.949,22.1952L40.61625,21.0548ZM40.7365,15.784749999999999L45.4215,15.784749999999999L45.4215,16.9075L40.7365,16.9075L40.7365,15.784749999999999ZM42.64875,12.564L43.7965,12.564L43.7965,25.788Q43.7965,26.273,43.68175,26.543Q43.567,26.8132,43.278,26.9683Q42.98875,27.1195,42.52975,27.1667Q42.071,27.214,41.365,27.2078Q41.33675,26.9683,41.24175,26.6355Q41.147,26.303,41.02075,26.0475Q41.496,26.0635,41.877250000000004,26.0635Q42.2585,26.0635,42.39275,26.0537Q42.527,26.0537,42.58775,26.0025Q42.64875,25.9515,42.64875,25.7915L42.64875,12.564ZM48.84825,13.137L49.717,13.9285Q49.05,14.29225,48.225,14.583Q47.40025,14.8735,46.63575,15.08775Q46.601,14.91425,46.487,14.67925Q46.373,14.44425,46.27525,14.2865Q46.97025,14.05625,47.6865,13.743500000000001Q48.40275,13.4305,48.84825,13.137ZM46.269,14.2865L47.3195,14.617750000000001L47.3195,19.804000000000002L46.269,19.804000000000002L46.269,14.2865ZM46.630250000000004,18.81575L53.549,18.81575L53.549,14.86825L51.564,14.86825L51.564,13.879999999999999L54.6408,13.879999999999999L54.6408,19.804000000000002L46.630250000000004,19.804000000000002L46.630250000000004,18.81575ZM46.73275,16.37525L49.05675,16.37525L49.05675,17.2885L46.73275,17.2885L46.73275,16.37525ZM51.635,16.3655L54.0745,16.3655L54.0745,17.278750000000002L51.635,17.278750000000002L51.635,16.3655ZM49.83125,12.5445L50.9228,12.5445L50.9228,21.811799999999998L49.83125,21.811799999999998L49.83125,12.5445ZM46.06675,21.3557L53.762,21.3557L53.762,22.384999999999998L46.06675,22.384999999999998L46.06675,21.3557ZM53.423,21.3557L53.6535,21.3557L53.8558,21.314700000000002L54.5813,21.6593Q54.0178,22.953699999999998,53.068,23.9113Q52.1185,24.8687,50.9003,25.5403Q49.682,26.2118,48.28075,26.6402Q46.8795,27.0688,45.4,27.3115Q45.3305,27.097,45.17725,26.8035Q45.02425,26.5103,44.8695,26.3205Q46.26075,26.1348,47.5815,25.7647Q48.90225,25.3945,50.0495,24.817700000000002Q51.197,24.241,52.071,23.4207Q52.945,22.6003,53.423,21.5302L53.423,21.3557ZM47.6395,22.0415Q48.3275,23.144199999999998,49.4895,23.999000000000002Q50.6518,24.8535,52.1618,25.4205Q53.672,25.9872,55.3953,26.2603Q55.269,26.3705,55.13,26.5503Q54.9913,26.7302,54.8778,26.9132Q54.7643,27.0963,54.6788,27.2412Q52.934,26.9018,51.3953,26.2575Q49.85675,25.6133,48.65175,24.658Q47.447,23.7025,46.658500000000004,22.436L47.6395,22.0415ZM63.3758,12.5445L64.62950000000001,12.5445L64.62950000000001,17.03725L63.3758,17.03725L63.3758,12.5445ZM66.635,20.749299999999998L67.4897,20.2095Q68.063,20.6735,68.6838,21.2335Q69.3048,21.7935,69.85679999999999,22.3488Q70.4088,22.9037,70.751,23.3482L69.82679999999999,23.983Q69.513,23.535,68.98,22.9657Q68.4473,22.3962,67.8325,21.811Q67.218,21.2255,66.635,20.749299999999998ZM66.1335,24.3412L67.041,23.742Q67.7013,24.0815,68.4487,24.522Q69.19630000000001,24.9625,69.8763,25.4093Q70.5563,25.8557,71.0008,26.2272L70.0373,26.9277Q69.624,26.5562,68.9645,26.0985Q68.305,25.6408,67.5605,25.175Q66.8162,24.7092,66.1335,24.3412ZM60.637,23.817700000000002L61.734,24.252200000000002Q61.2255,24.758,60.573,25.262Q59.9207,25.766,59.231300000000005,26.206Q58.542,26.646,57.9083,26.9757Q57.807500000000005,26.8592,57.637,26.7095Q57.466499999999996,26.56,57.292699999999996,26.4085Q57.1192,26.2572,56.9805,26.169Q57.963499999999996,25.723,58.959,25.096Q59.954499999999996,24.469,60.637,23.817700000000002ZM57.2238,13.969750000000001L70.769,13.969750000000001L70.769,15.0265L57.2238,15.0265L57.2238,13.969750000000001ZM57.058800000000005,16.5185L70.9793,16.5185L70.9793,19.5247L69.7978,19.5247L69.7978,17.55025L58.196799999999996,17.55025L58.196799999999996,19.5247L57.058800000000005,19.5247L57.058800000000005,16.5185ZM57.9478,23.557499999999997Q57.935199999999995,23.4438,57.878299999999996,23.249299999999998Q57.8213,23.0548,57.757999999999996,22.851Q57.695,22.647,57.638000000000005,22.4985Q58.0327,22.4478,58.5597,22.286Q59.087,22.124200000000002,59.7873,21.8425Q60.1712,21.6985,60.9482,21.3625Q61.725300000000004,21.0265,62.7218,20.5497Q63.7183,20.0728,64.7728,19.5012Q65.8275,18.9295,66.773,18.317999999999998L67.6253,19.0542Q65.467,20.3643,63.1935,21.363500000000002Q60.92,22.3625,58.7038,23.070700000000002L58.7038,23.118000000000002Q58.7038,23.118000000000002,58.5895,23.1558Q58.475300000000004,23.1935,58.3258,23.2618Q58.1763,23.3298,58.062,23.4043Q57.9478,23.4785,57.9478,23.557499999999997ZM57.9478,23.557499999999997L57.935199999999995,22.8062L58.6807,22.4165L68.6893,21.8717Q68.7213,22.077199999999998,68.7773,22.328200000000002Q68.83330000000001,22.5793,68.8973,22.7245Q66.51,22.868499999999997,64.804,22.9805Q63.098,23.0925,61.9403,23.1677Q60.7827,23.242800000000003,60.053,23.297Q59.3232,23.3512,58.9125,23.392699999999998Q58.5018,23.433999999999997,58.2913,23.4705Q58.081,23.506999999999998,57.9478,23.557499999999997ZM59.0963,20.8935Q59.0837,20.7795,59.0235,20.5882Q58.963499999999996,20.3967,58.9053,20.191200000000002Q58.847,19.985500000000002,58.79,19.8468Q59.0193,19.818199999999997,59.310199999999995,19.708Q59.6015,19.5977,59.9403,19.4252Q60.1322,19.3293,60.5065,19.124499999999998Q60.8808,18.9195,61.367000000000004,18.625Q61.853300000000004,18.33025,62.359,17.97975Q62.8647,17.628999999999998,63.303799999999995,17.2575L64.1637,17.9135Q63.1292,18.670749999999998,61.9885,19.298299999999998Q60.8477,19.9257,59.704499999999996,20.3737L59.704499999999996,20.4085Q59.704499999999996,20.4085,59.556200000000004,20.483Q59.4083,20.5572,59.252300000000005,20.669800000000002Q59.0963,20.7822,59.0963,20.8935ZM59.0963,20.8935L59.09,20.200200000000002L59.684200000000004,19.9055L65.191,19.6062Q65.1305,19.793,65.07130000000001,20.024Q65.0123,20.255000000000003,64.9865,20.3975Q63.4825,20.4872,62.4762,20.553Q61.47,20.6187,60.848,20.6667Q60.2262,20.7148,59.8795,20.7547Q59.5327,20.794800000000002,59.3638,20.825Q59.195,20.8552,59.0963,20.8935ZM63.658,22.5335L64.8242,22.5335L64.8242,25.8787Q64.8242,26.3477,64.6925,26.6103Q64.561,26.873,64.1642,27.0152Q63.7833,27.148,63.1737,27.1765Q62.5643,27.205,61.6807,27.205Q61.6335,26.946,61.5058,26.6355Q61.378,26.3253,61.2358,26.0885Q61.7367,26.1045,62.1637,26.1125Q62.591,26.1205,62.903999999999996,26.1155Q63.217,26.1108,63.335300000000004,26.101Q63.533500000000004,26.0912,63.5958,26.0382Q63.658,25.9855,63.658,25.8477L63.658,22.5335ZM73.66550000000001,14.36275L86.4055,14.36275L86.4055,15.604L73.66550000000001,15.604L73.66550000000001,14.36275ZM72.8317,24.8503L87.2093,24.8503L87.2093,26.0505L72.8317,26.0505L72.8317,24.8503ZM79.29480000000001,14.99075L80.62950000000001,14.99075L80.62950000000001,25.3487L79.29480000000001,25.3487L79.29480000000001,14.99075ZM95.3438,15.8805L96.58250000000001,15.8805L96.58250000000001,27.2607L95.3438,27.2607L95.3438,15.8805ZM91.542,19.011200000000002L91.542,20.733L100.5547,20.733L100.5547,19.011200000000002L91.542,19.011200000000002ZM91.542,16.346L91.542,18.04825L100.5547,18.04825L100.5547,16.346L91.542,16.346ZM90.37270000000001,15.323L101.7838,15.323L101.7838,21.752499999999998L90.37270000000001,21.752499999999998L90.37270000000001,15.323ZM88.86019999999999,23.2747L103.1815,23.2747L103.1815,24.394L88.86019999999999,24.394L88.86019999999999,23.2747ZM91.768,13.10425L92.7885,12.628Q93.2755,13.163,93.7718,13.8305Q94.26820000000001,14.498000000000001,94.50829999999999,15.000250000000001L93.438,15.54325Q93.2067,15.0535,92.7277,14.35575Q92.2487,13.658000000000001,91.768,13.10425ZM99.3455,12.629999999999999L100.6455,13.0535Q100.1665,13.82075,99.614,14.612Q99.0615,15.402999999999999,98.5967,15.954L97.57079999999999,15.55875Q97.87219999999999,15.1685,98.20570000000001,14.652999999999999Q98.5395,14.1375,98.843,13.603Q99.1465,13.068249999999999,99.3455,12.629999999999999ZM105.125,25.2344Q105.125,24.8672,105.3555,24.613300000000002Q105.5859,24.3594,106.0234,24.3594Q106.4609,24.3594,106.6914,24.613300000000002Q106.9219,24.8672,106.9219,25.2344Q106.9219,25.5938,106.6914,25.8438Q106.4609,26.0938,106.0234,26.0938Q105.5859,26.0938,105.3555,25.8438Q105.125,25.5938,105.125,25.2344ZM109.3438,25.2344Q109.3438,24.8672,109.5742,24.613300000000002Q109.8047,24.3594,110.2422,24.3594Q110.6797,24.3594,110.9102,24.613300000000002Q111.1406,24.8672,111.1406,25.2344Q111.1406,25.5938,110.9102,25.8438Q110.6797,26.0938,110.2422,26.0938Q109.8047,26.0938,109.5742,25.8438Q109.3438,25.5938,109.3438,25.2344ZM113.5625,25.2344Q113.5625,24.8672,113.793,24.613300000000002Q114.0234,24.3594,114.4609,24.3594Q114.8984,24.3594,115.1289,24.613300000000002Q115.3594,24.8672,115.3594,25.2344Q115.3594,25.5938,115.1289,25.8438Q114.8984,26.0938,114.4609,26.0938Q114.0234,26.0938,113.793,25.8438Q113.5625,25.5938,113.5625,25.2344Z" fill="#9CA3AF" fill-opacity="1" style="mix-blend-mode:passthrough"/></g><rect x="0.5" y="0.5" width="239" height="41" rx="3.5" fill-opacity="0" stroke-opacity="1" stroke="#D1D5DB" fill="none" stroke-width="1" style="mix-blend-mode:passthrough"/></g><g clip-path="url(#master_svg1_16_32491)"><g transform="matrix(1,0,0,-1,0,58.6875)"><g><path d="M25,38.84375Q24.9688,36.65625,23.75,35L27.7188,31.0625Q28,30.75,28,30.34375Q28,29.9375,27.7188,29.625Q27.4062,29.34375,27,29.34375Q26.5938,29.34375,26.2812,29.625L22.3438,33.59375Q20.6875,32.375,18.5,32.34375Q15.75,32.40625,13.90625,34.25Q12.0625,36.09375,12,38.84375Q12.0625,41.59375,13.90625,43.43755Q15.75,45.28125,18.5,45.34375Q21.25,45.28125,23.0938,43.43755Q24.9375,41.59375,25,38.84375ZM18.5,34.34375Q19.71875,34.34375,20.75,34.9375Q21.78125,35.53125,22.4062,36.59375Q23,37.65625,23,38.84375Q23,40.03125,22.4062,41.09375Q21.78125,42.15625,20.75,42.74995Q19.71875,43.34375,18.5,43.34375Q17.28125,43.34375,16.25,42.74995Q15.21875,42.15625,14.59375,41.09375Q14,40.03125,14,38.84375Q14,37.65625,14.59375,36.59375Q15.21875,35.53125,16.25,34.9375Q17.28125,34.34375,18.5,34.34375Z" fill="#9CA3AF" fill-opacity="1" style="mix-blend-mode:passthrough"/></g></g></g></g></svg>