<svg xmlns="http://www.w3.org/2000/svg" xmlns:xlink="http://www.w3.org/1999/xlink" fill="none" version="1.1" width="193.5" height="198" viewBox="0 0 193.5 198"><defs><filter id="master_svg0_16_29295" filterUnits="objectBoundingBox" color-interpolation-filters="sRGB" x="-0.25089605734767023" y="-0.14583333333333334" width="1.3870967741935485" height="1.375"><feFlood flood-opacity="0" result="BackgroundImageFix"/><feColorMatrix in="SourceAlpha" type="matrix" values="0 0 0 0 0 0 0 0 0 0 0 0 0 0 0 0 0 0 127 0"/><feMorphology radius="-4" operator="dilate" in="SourceAlpha" result="effect1_dropShadow"/><feOffset dy="4" dx="0"/><feGaussianBlur stdDeviation="3"/><feColorMatrix type="matrix" values="0 0 0 0 0 0 0 0 0 0 0 0 0 0 0 0 0 0 0.10000000149011612 0"/><feBlend mode="normal" in2="BackgroundImageFix" result="effect1_dropShadow"/><feColorMatrix in="SourceAlpha" type="matrix" values="0 0 0 0 0 0 0 0 0 0 0 0 0 0 0 0 0 0 127 0"/><feMorphology radius="-3" operator="dilate" in="SourceAlpha" result="effect2_dropShadow"/><feOffset dy="10" dx="0"/><feGaussianBlur stdDeviation="7.5"/><feColorMatrix type="matrix" values="0 0 0 0 0 0 0 0 0 0 0 0 0 0 0 0 0 0 0.10000000149011612 0"/><feBlend mode="normal" in2="effect1_dropShadow" result="effect2_dropShadow"/><feBlend mode="normal" in="SourceGraphic" in2="effect2_dropShadow" result="shape"/></filter><clipPath id="master_svg1_16_29295"><rect x="27" y="17" width="139.5" height="144" rx="12"/></clipPath></defs><g filter="url(#master_svg0_16_29295)"><g clip-path="url(#master_svg1_16_29295)"><rect x="27" y="17" width="139.5" height="144" rx="12" fill="#FFFFFF" fill-opacity="1" style="mix-blend-mode:passthrough"/><rect x="27" y="17" width="139.5" height="144" rx="12" fill="#000000" fill-opacity="0.0010000000474974513" style="mix-blend-mode:passthrough"/><g><rect x="43" y="33" width="107.5" height="24" rx="0" fill="#000000" fill-opacity="0" style="mix-blend-mode:passthrough"/><g><path d="M44.149,37.01725L57.8758,37.01725L57.8758,51.444500000000005L55.948,51.444500000000005L55.948,38.741749999999996L45.9895,38.741749999999996L45.9895,51.444500000000005L44.149,51.444500000000005L44.149,37.01725ZM45.28425,49.176500000000004L56.9865,49.176500000000004L56.9865,50.8638L45.28425,50.8638L45.28425,49.176500000000004ZM48.72275,45.722L49.4995,44.638999999999996Q50.17,44.766999999999996,50.91225,44.967Q51.65475,45.167,52.333,45.3927Q53.0115,45.6185,53.499,45.839L52.71325,47.0287Q52.24725,46.7957,51.5625,46.5495Q50.878,46.303200000000004,50.13725,46.083Q49.39675,45.8625,48.72275,45.722ZM49.5025,38.6845L51.06125,39.22775Q50.60075,39.93,49.97575,40.6135Q49.35075,41.297,48.66625,41.888999999999996Q47.98175,42.481,47.31875,42.92Q47.187,42.75975,46.95725,42.54775Q46.7275,42.335750000000004,46.48525,42.12375Q46.243,41.91175,46.054,41.77975Q47.04775,41.22375,47.98175,40.3965Q48.91575,39.56925,49.5025,38.6845ZM53.735,39.961L54.0468,39.961L54.3175,39.8915L55.3918,40.52025Q54.762299999999996,41.50325,53.7943,42.3255Q52.82625,43.1477,51.6565,43.798500000000004Q50.48675,44.4492,49.2155,44.9285Q47.94425,45.4077,46.6765,45.7172Q46.5945,45.491,46.4485,45.1925Q46.3025,44.894,46.1295,44.6162Q45.95675,44.3382,45.7965,44.1565Q46.9985,43.929,48.20825,43.5487Q49.418,43.1682,50.4995,42.65575Q51.581,42.143,52.42175,41.520250000000004Q53.2625,40.8975,53.735,40.19775L53.735,39.961ZM49.19725,41.07525Q49.89225,41.789249999999996,50.99675,42.37875Q52.1015,42.96825,53.4388,43.407Q54.7763,43.8457,56.159,44.0837Q55.8953,44.335,55.582499999999996,44.759Q55.269999999999996,45.183,55.097300000000004,45.5072Q53.6805,45.1997,52.320750000000004,44.6542Q50.96125,44.1085,49.795,43.356Q48.629,42.60325,47.80225,41.704L49.19725,41.07525ZM49.5635,39.961L54.272999999999996,39.961L54.272999999999996,41.3735L48.57675,41.3735L49.5635,39.961ZM47.257,47.7752L48.1245,46.5267Q48.937,46.6102,49.82675,46.7577Q50.716499999999996,46.9052,51.59025,47.091Q52.464,47.2767,53.2508,47.483000000000004Q54.0375,47.6892,54.6563,47.8938L53.8173,49.249300000000005Q53.0312,48.9557,51.91825,48.6652Q50.8055,48.3745,49.5895,48.138999999999996Q48.3735,47.9032,47.257,47.7752ZM63.734,37.144999999999996L69.2073,37.144999999999996L69.2073,38.9355L63.734,38.9355L63.734,37.144999999999996ZM65.0557,37.939750000000004L66.8372,38.2195Q66.583,39.761,66.1965,41.21725Q65.81,42.673249999999996,65.2838,43.925Q64.7575,45.1768,64.089,46.1172Q63.9535,45.9602,63.6987,45.725300000000004Q63.4443,45.49,63.1707,45.260999999999996Q62.8973,45.032,62.696,44.8877Q63.318,44.0755,63.7755,42.97725Q64.2332,41.87875,64.55199999999999,40.58575Q64.871,39.292500000000004,65.0557,37.939750000000004ZM65.5085,40.697L67.9958,40.697L67.9958,42.4465L64.965,42.4465L65.5085,40.697ZM67.4115,40.697L67.7197,40.697L68.0278,40.6525L69.1305,40.91075Q68.7915,44.7292,67.7005,47.334199999999996Q66.6098,49.9393,64.6838,51.4088Q64.4985,51.063,64.1572,50.6265Q63.816199999999995,50.19,63.5083,49.9387Q64.6103,49.204499999999996,65.4115,47.887Q66.2127,46.5695,66.7197,44.8197Q67.2267,43.0697,67.4115,41.0405L67.4115,40.697ZM64.62780000000001,45.7195L65.6273,44.41Q65.95570000000001,44.6535,66.3377,44.9627Q66.72,45.272,67.071,45.567Q67.422,45.862,67.6335,46.093L66.5683,47.582499999999996Q66.3693,47.3195,66.0308,46.9977Q65.6922,46.6757,65.3242,46.3337Q64.9565,45.9915,64.62780000000001,45.7195ZM69.6593,38.1085L71.3338,38.1085L71.3338,47.3207L69.6593,47.3207L69.6593,38.1085ZM72.2188,36.56675L73.9967,36.56675L73.9967,49.1152Q73.9967,49.8915,73.8205,50.3073Q73.6445,50.7232,73.1888,50.9495Q72.7368,51.175799999999995,72.008,51.247699999999995Q71.2793,51.32,70.2815,51.307500000000005Q70.2245,50.924499999999995,70.05,50.3748Q69.8755,49.8253,69.6868,49.4387Q70.3943,49.4673,71.0023,49.4735Q71.6105,49.4797,71.8365,49.4797Q72.05,49.4638,72.1343,49.3855Q72.2188,49.3072,72.2188,49.106300000000005L72.2188,36.56675ZM61.8592,36.433L63.5713,36.93175Q63.199799999999996,38.25275,62.677,39.6115Q62.1543,40.97,61.5168,42.189Q60.8792,43.408,60.153999999999996,44.3345Q60.097,44.099199999999996,59.945499999999996,43.7027Q59.7943,43.306200000000004,59.623999999999995,42.9035Q59.454,42.50075,59.3027,42.253Q60.1145,41.1655,60.7808,39.6185Q61.447,38.07125,61.8592,36.433ZM60.809,41.07775L62.571,39.31575L62.5958,39.34425L62.5958,51.409L60.809,51.409L60.809,41.07775ZM76.3467,37.793L77.6312,36.64025Q78.0633,37.02075,78.563,37.48575Q79.06280000000001,37.95075,79.5107,38.40425Q79.959,38.8575,80.22399999999999,39.2275L78.85220000000001,40.5475Q78.5998,40.174,78.1765,39.69225Q77.7533,39.21025,77.26599999999999,38.7045Q76.77879999999999,38.1985,76.3467,37.793ZM75.5947,41.33725L78.6707,41.33725L78.6707,43.215L75.5947,43.215L75.5947,41.33725ZM77.54769999999999,51.2013L77.07,49.295L77.4793,48.658L81.062,45.9583Q81.1315,46.2345,81.249,46.5732Q81.36670000000001,46.911699999999996,81.4922,47.225300000000004Q81.618,47.5387,81.7213,47.7367Q80.4853,48.6868,79.715,49.298Q78.9448,49.9093,78.5122,50.2722Q78.08,50.6353,77.8708,50.8407Q77.6618,51.0465,77.54769999999999,51.2013ZM77.54769999999999,51.2013Q77.46600000000001,50.95,77.27879999999999,50.6098Q77.0918,50.2695,76.8797,49.94Q76.6678,49.610299999999995,76.479,49.4125Q76.6908,49.2825,76.94319999999999,49.033500000000004Q77.196,48.7843,77.3792,48.4473Q77.5625,48.11,77.5625,47.7365L77.5625,41.33725L79.51169999999999,41.33725L79.51169999999999,49.209Q79.51169999999999,49.209,79.3158,49.3435Q79.12,49.4778,78.828,49.702200000000005Q78.536,49.926500000000004,78.2378,50.1917Q77.93950000000001,50.457,77.7435,50.7205Q77.54769999999999,50.984,77.54769999999999,51.2013ZM81.53,37.12775L83.16550000000001,36.4435Q83.62950000000001,37.0585,84.0677,37.80775Q84.506,38.557,84.68549999999999,39.1385L82.918,39.89575Q82.831,39.51525,82.6097,39.033500000000004Q82.3885,38.55175,82.1113,38.054Q81.834,37.55625,81.53,37.12775ZM87.0068,36.442L89.0522,37.03325Q88.62530000000001,37.96525,88.1683,38.8735Q87.7115,39.78175,87.3203,40.42325L85.6188,39.8535Q85.866,39.3895,86.1308,38.80025Q86.3955,38.21075,86.6237,37.593Q86.85220000000001,36.97525,87.0068,36.442ZM82.8538,41.28075L82.8538,43.3862L87.37129999999999,43.3862L87.37129999999999,41.28075L82.8538,41.28075ZM81.001,39.5935L89.3115,39.5935L89.3115,45.0767L81.001,45.0767L81.001,39.5935ZM82.7718,44.71L84.703,44.71Q84.632,45.8582,84.441,46.8628Q84.25,47.867000000000004,83.84649999999999,48.7177Q83.443,49.5683,82.6997,50.244Q81.9565,50.919799999999995,80.7653,51.426500000000004Q80.6048,51.0845,80.2743,50.6435Q79.944,50.2025,79.63929999999999,49.9513Q80.649,49.5637,81.245,49.037Q81.84129999999999,48.51,82.1493,47.849199999999996Q82.45750000000001,47.1882,82.587,46.4023Q82.7168,45.616,82.7718,44.71ZM85.74629999999999,44.513999999999996L87.6365,44.513999999999996L87.6365,48.9198Q87.6365,49.288,87.6815,49.376000000000005Q87.7267,49.464,87.9058,49.464Q87.9393,49.464,88.01769999999999,49.464Q88.0963,49.464,88.195,49.464Q88.294,49.464,88.376,49.464Q88.45830000000001,49.464,88.4987,49.464Q88.63,49.464,88.69550000000001,49.3405Q88.7612,49.217,88.79849999999999,48.8127Q88.8358,48.4082,88.8483,47.596199999999996Q89.04050000000001,47.744,89.3327,47.8962Q89.625,48.048500000000004,89.9482,48.161699999999996Q90.2718,48.274699999999996,90.5265,48.3442Q90.4445,49.472,90.2378,50.1087Q90.0312,50.7455,89.66550000000001,50.993700000000004Q89.2998,51.242000000000004,88.7055,51.242000000000004Q88.6043,51.242000000000004,88.45179999999999,51.242000000000004Q88.2993,51.242000000000004,88.1325,51.242000000000004Q87.96600000000001,51.242000000000004,87.8135,51.242000000000004Q87.6613,51.242000000000004,87.5563,51.242000000000004Q86.81219999999999,51.242000000000004,86.4205,51.0265Q86.029,50.811,85.8875,50.3067Q85.74629999999999,49.8027,85.74629999999999,48.9445L85.74629999999999,44.513999999999996ZM93.113,37.28025L97.714,37.28025L97.714,47.1095L93.113,47.1095L93.113,45.3565L95.93950000000001,45.3565L95.93950000000001,39.02075L93.113,39.02075L93.113,37.28025ZM93.138,41.28475L96.6357,41.28475L96.6357,42.99675L93.138,42.99675L93.138,41.28475ZM99.9757,37.053L104.8743,37.053L104.8743,38.8275L99.9757,38.8275L99.9757,37.053ZM99.9757,40.86775L104.8743,40.86775L104.8743,42.59225L99.9757,42.59225L99.9757,40.86775ZM99.937,44.6572L104.8638,44.6572L104.8638,46.3818L99.937,46.3818L99.937,44.6572ZM92.0975,37.28025L93.8755,37.28025L93.8755,48.4972L92.0975,48.4972L92.0975,37.28025ZM104.16149999999999,37.053L106.0643,37.053L106.0643,49.2365Q106.0643,49.9825,105.88,50.4097Q105.696,50.837,105.2298,51.067Q104.751,51.2933,104.0423,51.357299999999995Q103.3338,51.4215,102.3278,51.4215Q102.2868,51.1577,102.1797,50.8137Q102.07300000000001,50.47,101.9393,50.1385Q101.8058,49.8072,101.658,49.565Q102.09129999999999,49.581,102.5238,49.587199999999996Q102.9565,49.5935,103.29820000000001,49.5917Q103.6403,49.59,103.774,49.59Q103.99799999999999,49.5865,104.0798,49.5025Q104.16149999999999,49.4185,104.16149999999999,49.2197L104.16149999999999,37.053ZM98.821,37.053L100.708,37.053L100.708,42.85625Q100.708,43.8947,100.58529999999999,45.0747Q100.4625,46.2545,100.1175,47.434200000000004Q99.77250000000001,48.614000000000004,99.0967,49.678200000000004Q98.4212,50.7425,97.31530000000001,51.553Q97.17099999999999,51.3643,96.90899999999999,51.113Q96.64699999999999,50.8617,96.36500000000001,50.623000000000005Q96.08330000000001,50.384299999999996,95.872,50.265Q96.8835,49.5238,97.47720000000001,48.62Q98.071,47.7162,98.3625,46.728Q98.654,45.7395,98.7375,44.7537Q98.821,43.768,98.821,42.84375L98.821,37.053Z" fill="#000000" fill-opacity="1" style="mix-blend-mode:passthrough"/></g></g><g><rect x="43" y="69" width="107.5" height="76" rx="0" fill="#000000" fill-opacity="0" style="mix-blend-mode:passthrough"/><g><rect x="43" y="69" width="107.5" height="20" rx="0" fill="#000000" fill-opacity="0" style="mix-blend-mode:passthrough"/><g><rect x="43" y="71" width="16" height="16" rx="8" fill="#EF4444" fill-opacity="1" style="mix-blend-mode:passthrough"/></g><g><rect x="67" y="69" width="83.5" height="20" rx="0" fill="#000000" fill-opacity="0" style="mix-blend-mode:passthrough"/><g><path d="M71.82617,80.0967L69.16699,80.0967L69.16699,79.0234L71.82617,79.0234Q72.59863,79.0234,73.07715,78.77734Q73.55566,78.53125,73.77783,78.09375Q74,77.65625,74,77.0957Q74,76.58301,73.77783,76.13184Q73.55566,75.68066,73.07715,75.40381Q72.59863,75.12695,71.82617,75.12695L69.47461,75.12695L69.47461,84L68.15527,84L68.15527,74.04688L71.82617,74.04688Q72.9541,74.04688,73.7334,74.43652Q74.5127,74.82617,74.91602,75.51318Q75.31934,76.2002,75.31934,77.08203Q75.31934,78.03906,74.91602,78.71582000000001Q74.5127,79.3926,73.7334,79.7446Q72.9541,80.0967,71.82617,80.0967ZM82.9072,78.23047L82.9072,79.748Q82.9072,80.9717,82.6885,81.8125Q82.4697,82.6533,82.0596,83.166Q81.6494,83.67869999999999,81.0718,83.9077Q80.4941,84.1367,79.7695,84.1367Q79.1953,84.1367,78.71000000000001,83.9932Q78.2246,83.8496,77.83840000000001,83.5317Q77.4521,83.2139,77.17869999999999,82.7012Q76.90527,82.1885,76.76172,81.457Q76.61816,80.7256,76.61816,79.748L76.61816,78.23047Q76.61816,77.00684,76.84033,76.17969Q77.0625,75.35254,77.4727,74.8501Q77.8828,74.34766,78.46039999999999,74.12891Q79.0381,73.91016,79.7559,73.91016Q80.3369,73.91016,80.8257,74.05029Q81.3145,74.19043,81.6973,74.49463Q82.0801,74.79883,82.3501,75.30127Q82.62010000000001,75.80371,82.7637,76.52832Q82.9072,77.25292999999999,82.9072,78.23047ZM81.6357,79.9531L81.6357,78.01855Q81.6357,77.34863,81.5571,76.83936Q81.4785,76.33008,81.3281,75.96777Q81.1777,75.60547,80.9487,75.37988Q80.7197,75.1543,80.4224,75.04834Q80.125,74.94238,79.7559,74.94238Q79.3047,74.94238,78.95609999999999,75.10986Q78.6074,75.27734,78.3716,75.63965Q78.1357,76.00195,78.0127,76.58984Q77.8896,77.17773,77.8896,78.01855L77.8896,79.9531Q77.8896,80.623,77.9683,81.1357Q78.0469,81.6484,78.2041,82.021Q78.3613,82.39359999999999,78.5869,82.6328Q78.8125,82.8721,79.1099,82.9849Q79.4072,83.0977,79.7695,83.0977Q80.2344,83.0977,80.583,82.9199Q80.9316,82.7422,81.1675,82.3628Q81.4033,81.9834,81.5195,81.3853Q81.6357,80.7871,81.6357,79.9531ZM90.8864,73.51116L91.9405,73.5525Q91.82849999999999,76.09569,91.5743,78.24294Q91.3204,80.39,90.7724,82.1128Q90.2244,83.8357,89.2249,85.1469Q89.1392,85.0612,88.96809999999999,84.9384Q88.7971,84.81569999999999,88.6151,84.693Q88.4333,84.5703,88.3009,84.5042Q89.2949,83.3291,89.8291,81.6745Q90.3635,80.0198,90.5899,77.95944Q90.8164,75.89881,90.8864,73.51116ZM89.2995,73.14322L94.81790000000001,73.14322L94.81790000000001,74.13656L89.2995,74.13656L89.2995,73.14322ZM93.9029,76.96544L95.90559999999999,76.96544L95.90559999999999,77.89862L93.5954,77.89862L93.9029,76.96544ZM95.6127,76.96544L95.8144,76.96544L96.0106,76.92956L96.6589,77.19206Q96.2298,79.2323,95.39920000000001,80.7789Q94.5688,82.3252,93.4525,83.4039Q92.3362,84.4823,91.0187,85.1421Q90.9469,85.0207,90.8118,84.8647Q90.6768,84.709,90.5361,84.5639Q90.3955,84.4191,90.2739,84.3419Q91.5664,83.7463,92.637,82.7638Q93.70779999999999,81.7814,94.4776,80.3908Q95.2474,79.0002,95.6127,77.18659L95.6127,76.96544ZM91.6539,76.80312Q92.1363,78.42647,92.9279,79.893Q93.7196,81.3593,94.8068,82.4926Q95.894,83.6257,97.2279,84.2454Q97.1118,84.3419,96.9722,84.495Q96.8329,84.6482,96.7112,84.8068Q96.5898,84.9653,96.5095,85.0977Q95.1375,84.3837,94.0339,83.1718Q92.93039999999999,81.9599,92.1153,80.393Q91.3002,78.82612,90.7689,77.06256L91.6539,76.80312ZM94.3783,73.14322L95.4574,73.14322Q95.25280000000001,73.92284,95.0104,74.79806Q94.7683,75.67306,94.5303,76.48397Q94.2923,77.29487,94.0908,77.89862L93.0421,77.89862Q93.2661,77.27563,93.50829999999999,76.45487Q93.7507,75.63412,93.9832,74.76459Q94.2157,73.89484,94.3783,73.14322ZM84.55969999999999,81.5157Q84.5347,81.4107,84.4765,81.2365Q84.4186,81.0624,84.3523,80.8732Q84.28620000000001,80.6838,84.22540000000001,80.5569Q84.4652,80.5125,84.7242,80.2644Q84.9832,80.0163,85.3161,79.6243Q85.4981,79.42830000000001,85.8468,78.98734Q86.1957,78.54634,86.6273,77.93034Q87.0589,77.31434,87.5016,76.60472Q87.94460000000001,75.89487,88.3149,75.16687L89.1989,75.69887Q88.332,77.15881,87.3181,78.54393999999999Q86.3044,79.9291,85.2739,80.9651L85.2739,80.99Q85.2739,80.99,85.1687,81.0412Q85.0634,81.0922,84.91669999999999,81.1724Q84.7699,81.2525,84.6647,81.3424Q84.55969999999999,81.4323,84.55969999999999,81.5157ZM84.55969999999999,81.5157L84.4833,80.6293L84.9744,80.2323L89.0079,79.1101Q89.011,79.3056,89.0276,79.5679Q89.0445,79.83,89.0694,79.9982Q87.6764,80.4188,86.8305,80.6768Q85.9848,80.93469999999999,85.5344,81.0915Q85.084,81.2481,84.8775,81.3387Q84.67099999999999,81.4292,84.55969999999999,81.5157ZM84.4757,78.08303000000001Q84.4507,77.97234,84.3899,77.79297Q84.3293,77.61337,84.263,77.41869Q84.1968,77.22378,84.13589999999999,77.09144Q84.3313,77.04703,84.5299,76.81428Q84.7288,76.58131,84.9613,76.22825Q85.0818,76.04319,85.32,75.64222Q85.5585,75.24125,85.849,74.6865Q86.1395,74.13153,86.4313,73.49540999999999Q86.7233,72.85928,86.94800000000001,72.22316000000001L87.9164,72.67816Q87.5377,73.55294,87.0784,74.42312Q86.6192,75.29331,86.1209,76.08519Q85.6228,76.87684,85.1133,77.51297L85.1133,77.53791Q85.1133,77.53791,85.019,77.59325Q84.925,77.64837,84.7944,77.73413Q84.664,77.81987,84.5697,77.90978Q84.4757,77.99969,84.4757,78.08303000000001ZM84.4757,78.08303000000001L84.4538,77.29794L84.956,76.97637L87.581,76.69966Q87.5452,76.89828,87.5204,77.14962Q87.4959,77.40075,87.499,77.56372Q86.60040000000001,77.67944,86.0432,77.76388Q85.4861,77.84809,85.175,77.90147Q84.8639,77.95462,84.713,77.99509Q84.5621,78.03556,84.4757,78.08303000000001ZM84.2864,83.2114Q84.8884,83.0154,85.6654,82.7413Q86.44239999999999,82.467,87.31739999999999,82.14959999999999Q88.19239999999999,81.8322,89.069,81.5078L89.27,82.4187Q88.0288,82.9102,86.7798,83.3923Q85.5307,83.8742,84.5459,84.2452L84.2864,83.2114ZM106.46549999999999,73.92284L107.4829,73.92284L107.4829,81.6832L106.46549999999999,81.6832L106.46549999999999,73.92284ZM109.43719999999999,72.50337999999999L110.4798,72.50337999999999L110.4798,83.7379Q110.4798,84.2627,110.3374,84.5298Q110.195,84.7971,109.8749,84.9295Q109.5411,85.0618,108.9614,85.1003Q108.382,85.139,107.4433,85.1305Q107.40440000000001,84.9131,107.3007,84.6044Q107.197,84.29599999999999,107.07249999999999,84.0669Q107.7809,84.0864,108.3415,84.089Q108.9022,84.0919,109.08420000000001,84.0833Q109.28020000000001,84.0748,109.3587,84.0033Q109.43719999999999,83.9318,109.43719999999999,83.74119999999999L109.43719999999999,72.50337999999999ZM99.96690000000001,73.80363L99.96690000000001,76.50037L103.5741,76.50037L103.5741,73.80363L99.96690000000001,73.80363ZM99.0039,72.86256L104.586,72.86256L104.586,77.45544L99.0039,77.45544L99.0039,72.86256ZM98.4824,79.0254L104.2028,79.0254L104.2028,79.9883L98.4824,79.9883L98.4824,79.0254ZM103.7952,79.0254L104.82990000000001,79.0254Q104.82990000000001,79.0254,104.8271,79.1072Q104.8244,79.1888,104.8201,79.29560000000001Q104.8159,79.4023,104.8104,79.4857Q104.74289999999999,81.1755,104.6599,82.2115Q104.577,83.2475,104.4607,83.7902Q104.3445,84.3327,104.157,84.5504Q103.979,84.7645,103.78229999999999,84.8549Q103.58590000000001,84.9452,103.298,84.9723Q103.0578,85.00280000000001,102.6361,84.9997Q102.2145,84.9966,101.7471,84.9796Q101.73310000000001,84.7365,101.65870000000001,84.4578Q101.5843,84.1794,101.4574,83.9668Q101.9074,84.0118,102.28280000000001,84.0214Q102.6584,84.0313,102.81790000000001,84.0313Q102.9834,84.0313,103.083,84.002Q103.1825,83.9729,103.27199999999999,83.8749Q103.3956,83.7263,103.487,83.2427Q103.5784,82.759,103.6557,81.7817Q103.73310000000001,80.8041,103.7952,79.2052L103.7952,79.0254ZM100.9898,77.80981L101.98859999999999,77.80981Q101.92949999999999,79.0497,101.7849,80.15Q101.6403,81.2501,101.3166,82.1881Q100.993,83.1261,100.3969,83.8779Q99.80080000000001,84.6296,98.8246,85.1694Q98.7248,84.9848,98.5312,84.75450000000001Q98.3379,84.5243,98.1609,84.3948Q99.0575,83.9213,99.5976,83.2565Q100.1377,82.5917,100.4243,81.7473Q100.71090000000001,80.9027,100.8277,79.9113Q100.9447,78.91975,100.9898,77.80981ZM118.76859999999999,79.249L118.76859999999999,80.2881L115.43260000000001,80.2881L115.43260000000001,79.249L118.76859999999999,79.249ZM124.2843,82.2631Q124.2679,82.14959999999999,124.2154,81.9685Q124.16290000000001,81.7873,124.10470000000001,81.59270000000001Q124.04679999999999,81.3977,123.9914,81.2569Q124.33160000000001,81.2179,124.7789,81.0963Q125.2265,80.9745,125.809,80.759Q126.131,80.647,126.7586,80.3924Q127.38640000000001,80.1375,128.1908,79.7735Q128.9953,79.4095,129.8675,78.95891Q130.7396,78.50806,131.5475,78.01259L132.2705,78.76662Q130.5248,79.77289999999999,128.69650000000001,80.5252Q126.8682,81.2772,125.0607,81.8177L125.0607,81.8482Q125.0607,81.8482,124.9443,81.884Q124.8279,81.9197,124.6726,81.982Q124.5173,82.0444,124.4007,82.1192Q124.2843,82.1938,124.2843,82.2631ZM124.2843,82.2631L124.27340000000001,81.548L124.9944,81.1851L134.1171,80.7327Q134.1397,80.929,134.1913,81.16499999999999Q134.2431,81.401,134.2991,81.5476Q132.1302,81.6681,130.57229999999998,81.7565Q129.0146,81.8447,127.9545,81.9077Q126.8945,81.9707,126.22970000000001,82.0197Q125.5651,82.0687,125.18780000000001,82.1047Q124.8104,82.1408,124.6155,82.1798Q124.42060000000001,82.2187,124.2843,82.2631ZM125.3096,80.1207Q125.2932,80.0155,125.235,79.8398Q125.1771,79.6642,125.11619999999999,79.476Q125.0556,79.28790000000001,125.00030000000001,79.161Q125.18469999999999,79.1361,125.4017,79.0497Q125.61869999999999,78.96328,125.8598,78.83181Q126.0363,78.74234,126.4375,78.49866Q126.8389,78.25475,127.3173,77.91569Q127.7959,77.57662,128.2089,77.18462L129.0463,77.79472Q128.3131,78.34509,127.524,78.813Q126.735,79.2807,125.9534,79.6082L125.9534,79.6386Q125.9534,79.6386,125.85759999999999,79.6814Q125.762,79.7243,125.6314,79.7991Q125.501,79.8737,125.40520000000001,79.9555Q125.3096,80.0373,125.3096,80.1207ZM125.3096,80.1207L125.3096,79.4211L125.8703,79.1306L130.0143,79.0289Q129.9419,79.2026,129.8791,79.4445Q129.8165,79.6862,129.7885,79.8383Q128.3995,79.8888,127.55969999999999,79.9253Q126.7201,79.9619,126.2684,79.9927Q125.8169,80.0233,125.6189,80.0527Q125.42099999999999,80.0817,125.3096,80.1207ZM129.1935,81.2833L130.2523,81.2833L130.2523,83.9858Q130.2523,84.3907,130.1344,84.6024Q130.0165,84.8144,129.6802,84.9336Q129.3578,85.0386,128.8354,85.0592Q128.3131,85.08,127.5509,85.08Q127.5041,84.8619,127.39500000000001,84.6121Q127.286,84.3625,127.1668,84.1663Q127.5835,84.1803,127.94069999999999,84.1873Q128.2982,84.1943,128.5583,84.1899Q128.8186,84.1857,128.91660000000002,84.1857Q129.0846,84.1717,129.13909999999998,84.128Q129.1935,84.0844,129.1935,83.9584L129.1935,81.2833ZM131.8809,80.01L132.5984,79.499Q133.11090000000002,79.8179,133.6538,80.2349Q134.1968,80.6518,134.668,81.0716Q135.1394,81.49119999999999,135.4303,81.8573L134.666,82.4292Q134.4,82.0682,133.9395,81.6406Q133.47910000000002,81.2127,132.939,80.7807Q132.3989,80.3484,131.8809,80.01ZM131.381,82.9102L132.1447,82.37180000000001Q132.6975,82.6442,133.3126,82.9933Q133.9279,83.3424,134.49099999999999,83.7029Q135.0541,84.0632,135.4266,84.3688L134.6249,84.9765Q134.27710000000002,84.6764,133.72910000000002,84.3062Q133.1813,83.9361,132.5673,83.5647Q131.95350000000002,83.1932,131.381,82.9102ZM126.6729,82.3231L127.6382,82.7172Q127.1817,83.1348,126.60640000000001,83.5538Q126.0313,83.9727,125.4238,84.3369Q124.8163,84.7013,124.2533,84.9789Q124.1653,84.8767,124.0161,84.7389Q123.86699999999999,84.6011,123.7123,84.4659Q123.55760000000001,84.3308,123.436,84.2535Q124.3189,83.9022,125.1956,83.3895Q126.0726,82.8767,126.6729,82.3231ZM128.6453,72.807L134.2337,72.807L134.2337,73.73166L128.6453,73.73166L128.6453,72.807ZM130.21949999999998,73.36088Q130.8457,74.87856,132.2468,75.84084Q133.6479,76.80291,135.69150000000002,77.13956Q135.5841,77.24719,135.45850000000002,77.41278Q135.3332,77.57816,135.2256,77.74506Q135.1181,77.91175,135.0464,78.06356Q132.93959999999998,77.59916,131.5131,76.48594Q130.0869,75.3725,129.3666,73.59318999999999L130.21949999999998,73.36088ZM133.9894,72.807L134.1911,72.807L134.3764,72.76806L134.9943,73.02575Q134.4927,74.40584,133.5342,75.36309Q132.5756,76.32034,131.3187,76.92147Q130.0617,77.52238,128.65359999999998,77.84372Q128.6123,77.71663,128.5266,77.55125Q128.441,77.38566,128.3402,77.22991Q128.23930000000001,77.07394,128.1396,76.98031Q129.1213,76.79525,130.0359,76.46056Q130.9505,76.12566,131.7273,75.62844Q132.5043,75.131,133.0908,74.46841Q133.6775,73.80581,133.9894,72.95969L133.9894,72.807ZM124.0872,73.12616L125.0447,73.12616L125.0447,77.28219L124.0872,77.28219L124.0872,73.12616ZM126.4666,72.50469L127.42410000000001,72.50469L127.42410000000001,77.76431L126.4666,77.76431L126.4666,72.50469ZM138.97230000000002,75.52803L147.985,75.52803L147.985,80.4827L138.68529999999998,80.4827L138.68529999999998,79.6073L146.9425,79.6073L146.9425,76.40369L138.97230000000002,76.40369L138.97230000000002,75.52803ZM140.5333,73.29481L145.5125,73.29481L145.5125,74.16806L140.5333,74.16806L140.5333,73.29481ZM139.15519999999998,77.56962L147.5215,77.56962L147.5215,78.39606L139.15519999999998,78.39606L139.15519999999998,77.56962ZM141.01940000000002,72.19362L142.14440000000002,72.40559Q141.70929999999998,73.17734,141.10559999999998,73.95347Q140.502,74.72959,139.72719999999998,75.45606Q138.9524,76.18231,137.9709,76.8075Q137.8991,76.68041,137.76940000000002,76.53603Q137.6397,76.39144,137.4947,76.25931Q137.34980000000002,76.12719,137.2284,76.04997Q138.15789999999998,75.51053,138.8859,74.8545Q139.6139,74.19825,140.1501,73.51006Q140.6864,72.82187,141.01940000000002,72.19362ZM145.2524,73.29481L145.4838,73.29481L145.6553,73.24516L146.372,73.70869Q146.1458,74.13087,145.836,74.59353Q145.5263,75.05597,145.2014,75.47925000000001Q144.8766,75.90231,144.5808,76.22912Q144.4321,76.10225,144.1932,75.95612Q143.9546,75.81,143.7754,75.72184Q144.0491,75.42566,144.3315,75.03125Q144.6139,74.63684,144.8615,74.23084Q145.10930000000002,73.82484,145.2524,73.49672L145.2524,73.29481ZM140.1861,81.4667L141.2364,81.4667L141.2364,83.5174Q141.2364,83.7998,141.4343,83.8784Q141.6323,83.9569,142.2947,83.9569Q142.4183,83.9569,142.7182,83.9569Q143.0183,83.9569,143.4057,83.9569Q143.7933,83.9569,144.1877,83.9569Q144.5821,83.9569,144.9074,83.9569Q145.2327,83.9569,145.4068,83.9569Q145.7833,83.9569,145.9644,83.8558Q146.1456,83.7548,146.2197,83.4275Q146.29410000000001,83.1001,146.32760000000002,82.42830000000001Q146.4435,82.5086,146.6146,82.5888Q146.7856,82.6691,146.96890000000002,82.7229Q147.1525,82.7765,147.299,82.8155Q147.22969999999998,83.6627,147.05599999999998,84.1127Q146.8825,84.5626,146.5135,84.7346Q146.1447,84.9065,145.481,84.9065Q145.3751,84.9065,145.04739999999998,84.9065Q144.7197,84.9065,144.289,84.9065Q143.8585,84.9065,143.4263,84.9065Q142.9942,84.9065,142.6707,84.9065Q142.3474,84.9065,142.2415,84.9065Q141.4313,84.9065,140.98149999999998,84.7888Q140.5318,84.6713,140.35899999999998,84.3719Q140.1861,84.0724,140.1861,83.5198L140.1861,81.4667ZM142.2794,81.0793L143.07389999999998,80.5698Q143.4613,80.8986,143.8625,81.3017Q144.2636,81.7049,144.6029,82.10210000000001Q144.94240000000002,82.4994,145.1362,82.8277L144.2807,83.4041Q144.0981,83.0815,143.77100000000002,82.6702Q143.44400000000002,82.2587,143.0524,81.839Q142.6611,81.4192,142.2794,81.0793ZM147.2575,81.4778L148.1784,81.1195Q148.5067,81.5699,148.832,82.1017Q149.1575,82.6333,149.4226,83.1467Q149.68779999999998,83.6598,149.81990000000002,84.0567L148.839,84.4648Q148.70929999999998,84.0652,148.4577,83.5492Q148.2062,83.0329,147.89319999999998,82.486Q147.5803,81.9392,147.2575,81.4778ZM138.5486,81.4896L139.4494,81.8947Q139.2729,82.3086,139.04410000000001,82.801Q138.8155,83.2934,138.5713,83.7664Q138.3272,84.2393,138.066,84.6197L137.10129999999998,84.1514Q137.382,83.7904,137.6456,83.3269Q137.9094,82.8634,138.14350000000002,82.37780000000001Q138.3775,81.89189999999999,138.5486,81.4896Z" fill="#000000" fill-opacity="1" style="mix-blend-mode:passthrough"/></g></g></g><g><rect x="43" y="97" width="107.5" height="20" rx="0" fill="#000000" fill-opacity="0" style="mix-blend-mode:passthrough"/><g><rect x="43" y="99" width="16" height="16" rx="8" fill="#F97316" fill-opacity="1" style="mix-blend-mode:passthrough"/></g><g><rect x="67" y="97" width="83.5" height="20" rx="0" fill="#000000" fill-opacity="0" style="mix-blend-mode:passthrough"/><g><path d="M71.82617,108.0967L69.16699,108.0967L69.16699,107.0234L71.82617,107.0234Q72.59863,107.0234,73.07715,106.77734Q73.55566,106.53125,73.77783,106.09375Q74,105.65625,74,105.0957Q74,104.58301,73.77783,104.13184Q73.55566,103.68066,73.07715,103.40381Q72.59863,103.12695,71.82617,103.12695L69.47461,103.12695L69.47461,112L68.15527,112L68.15527,102.04688L71.82617,102.04688Q72.9541,102.04688,73.7334,102.43652Q74.5127,102.82617,74.91602,103.51318Q75.31934,104.2002,75.31934,105.08203Q75.31934,106.03906,74.91602,106.71582000000001Q74.5127,107.3926,73.7334,107.7446Q72.9541,108.0967,71.82617,108.0967ZM80.8154,101.99219L80.8154,112L79.5508,112L79.5508,103.57129L77.001,104.50098L77.001,103.35938L80.6172,101.99219L80.8154,101.99219ZM90.8864,101.51116L91.9405,101.5525Q91.82849999999999,104.09569,91.5743,106.24294Q91.3204,108.39,90.7724,110.1128Q90.2244,111.8357,89.2249,113.1469Q89.1392,113.0612,88.96809999999999,112.9384Q88.7971,112.81569999999999,88.6151,112.693Q88.4333,112.5703,88.3009,112.5042Q89.2949,111.3291,89.8291,109.6745Q90.3635,108.0198,90.5899,105.95944Q90.8164,103.89881,90.8864,101.51116ZM89.2995,101.14322L94.81790000000001,101.14322L94.81790000000001,102.13656L89.2995,102.13656L89.2995,101.14322ZM93.9029,104.96544L95.90559999999999,104.96544L95.90559999999999,105.89862L93.5954,105.89862L93.9029,104.96544ZM95.6127,104.96544L95.8144,104.96544L96.0106,104.92956L96.6589,105.19206Q96.2298,107.2323,95.39920000000001,108.7789Q94.5688,110.3252,93.4525,111.4039Q92.3362,112.4823,91.0187,113.1421Q90.9469,113.0207,90.8118,112.8647Q90.6768,112.709,90.5361,112.5639Q90.3955,112.4191,90.2739,112.3419Q91.5664,111.7463,92.637,110.7638Q93.70779999999999,109.7814,94.4776,108.3908Q95.2474,107.0002,95.6127,105.18659L95.6127,104.96544ZM91.6539,104.80312Q92.1363,106.42647,92.9279,107.893Q93.7196,109.3593,94.8068,110.4926Q95.894,111.6257,97.2279,112.2454Q97.1118,112.3419,96.9722,112.495Q96.8329,112.6482,96.7112,112.8068Q96.5898,112.9653,96.5095,113.0977Q95.1375,112.3837,94.0339,111.1718Q92.93039999999999,109.9599,92.1153,108.393Q91.3002,106.82612,90.7689,105.06256L91.6539,104.80312ZM94.3783,101.14322L95.4574,101.14322Q95.25280000000001,101.92284,95.0104,102.79806Q94.7683,103.67306,94.5303,104.48397Q94.2923,105.29487,94.0908,105.89862L93.0421,105.89862Q93.2661,105.27563,93.50829999999999,104.45487Q93.7507,103.63412,93.9832,102.76459Q94.2157,101.89484,94.3783,101.14322ZM84.55969999999999,109.5157Q84.5347,109.4107,84.4765,109.2365Q84.4186,109.0624,84.3523,108.8732Q84.28620000000001,108.6838,84.22540000000001,108.5569Q84.4652,108.5125,84.7242,108.2644Q84.9832,108.0163,85.3161,107.6243Q85.4981,107.42830000000001,85.8468,106.98734Q86.1957,106.54634,86.6273,105.93034Q87.0589,105.31434,87.5016,104.60472Q87.94460000000001,103.89487,88.3149,103.16687L89.1989,103.69887Q88.332,105.15881,87.3181,106.54393999999999Q86.3044,107.9291,85.2739,108.9651L85.2739,108.99Q85.2739,108.99,85.1687,109.0412Q85.0634,109.0922,84.91669999999999,109.1724Q84.7699,109.2525,84.6647,109.3424Q84.55969999999999,109.4323,84.55969999999999,109.5157ZM84.55969999999999,109.5157L84.4833,108.6293L84.9744,108.2323L89.0079,107.1101Q89.011,107.3056,89.0276,107.5679Q89.0445,107.83,89.0694,107.9982Q87.6764,108.4188,86.8305,108.6768Q85.9848,108.93469999999999,85.5344,109.0915Q85.084,109.2481,84.8775,109.3387Q84.67099999999999,109.4292,84.55969999999999,109.5157ZM84.4757,106.08303000000001Q84.4507,105.97234,84.3899,105.79297Q84.3293,105.61337,84.263,105.41869Q84.1968,105.22378,84.13589999999999,105.09144Q84.3313,105.04703,84.5299,104.81428Q84.7288,104.58131,84.9613,104.22825Q85.0818,104.04319,85.32,103.64222Q85.5585,103.24125,85.849,102.6865Q86.1395,102.13153,86.4313,101.49540999999999Q86.7233,100.85928,86.94800000000001,100.22316000000001L87.9164,100.67816Q87.5377,101.55294,87.0784,102.42312Q86.6192,103.29331,86.1209,104.08519Q85.6228,104.87684,85.1133,105.51297L85.1133,105.53791Q85.1133,105.53791,85.019,105.59325Q84.925,105.64837,84.7944,105.73413Q84.664,105.81987,84.5697,105.90978Q84.4757,105.99969,84.4757,106.08303000000001ZM84.4757,106.08303000000001L84.4538,105.29794L84.956,104.97637L87.581,104.69966Q87.5452,104.89828,87.5204,105.14962Q87.4959,105.40075,87.499,105.56372Q86.60040000000001,105.67944,86.0432,105.76388Q85.4861,105.84809,85.175,105.90147Q84.8639,105.95462,84.713,105.99509Q84.5621,106.03556,84.4757,106.08303000000001ZM84.2864,111.2114Q84.8884,111.0154,85.6654,110.7413Q86.44239999999999,110.467,87.31739999999999,110.14959999999999Q88.19239999999999,109.8322,89.069,109.5078L89.27,110.4187Q88.0288,110.9102,86.7798,111.3923Q85.5307,111.8742,84.5459,112.2452L84.2864,111.2114ZM106.46549999999999,101.92284L107.4829,101.92284L107.4829,109.6832L106.46549999999999,109.6832L106.46549999999999,101.92284ZM109.43719999999999,100.50337999999999L110.4798,100.50337999999999L110.4798,111.7379Q110.4798,112.2627,110.3374,112.5298Q110.195,112.7971,109.8749,112.9295Q109.5411,113.0618,108.9614,113.1003Q108.382,113.139,107.4433,113.1305Q107.40440000000001,112.9131,107.3007,112.6044Q107.197,112.29599999999999,107.07249999999999,112.0669Q107.7809,112.0864,108.3415,112.089Q108.9022,112.0919,109.08420000000001,112.0833Q109.28020000000001,112.0748,109.3587,112.0033Q109.43719999999999,111.9318,109.43719999999999,111.74119999999999L109.43719999999999,100.50337999999999ZM99.96690000000001,101.80363L99.96690000000001,104.50037L103.5741,104.50037L103.5741,101.80363L99.96690000000001,101.80363ZM99.0039,100.86256L104.586,100.86256L104.586,105.45544L99.0039,105.45544L99.0039,100.86256ZM98.4824,107.0254L104.2028,107.0254L104.2028,107.9883L98.4824,107.9883L98.4824,107.0254ZM103.7952,107.0254L104.82990000000001,107.0254Q104.82990000000001,107.0254,104.8271,107.1072Q104.8244,107.1888,104.8201,107.29560000000001Q104.8159,107.4023,104.8104,107.4857Q104.74289999999999,109.1755,104.6599,110.2115Q104.577,111.2475,104.4607,111.7902Q104.3445,112.3327,104.157,112.5504Q103.979,112.7645,103.78229999999999,112.8549Q103.58590000000001,112.9452,103.298,112.9723Q103.0578,113.00280000000001,102.6361,112.9997Q102.2145,112.9966,101.7471,112.9796Q101.73310000000001,112.7365,101.65870000000001,112.4578Q101.5843,112.1794,101.4574,111.9668Q101.9074,112.0118,102.28280000000001,112.0214Q102.6584,112.0313,102.81790000000001,112.0313Q102.9834,112.0313,103.083,112.002Q103.1825,111.9729,103.27199999999999,111.8749Q103.3956,111.7263,103.487,111.2427Q103.5784,110.759,103.6557,109.7817Q103.73310000000001,108.8041,103.7952,107.2052L103.7952,107.0254ZM100.9898,105.80981L101.98859999999999,105.80981Q101.92949999999999,107.0497,101.7849,108.15Q101.6403,109.2501,101.3166,110.1881Q100.993,111.1261,100.3969,111.8779Q99.80080000000001,112.6296,98.8246,113.1694Q98.7248,112.9848,98.5312,112.75450000000001Q98.3379,112.5243,98.1609,112.3948Q99.0575,111.9213,99.5976,111.2565Q100.1377,110.5917,100.4243,109.7473Q100.71090000000001,108.9027,100.8277,107.9113Q100.9447,106.91975,100.9898,105.80981ZM118.76859999999999,107.249L118.76859999999999,108.2881L115.43260000000001,108.2881L115.43260000000001,107.249L118.76859999999999,107.249ZM123.2479,111.8141L135.8063,111.8141L135.8063,112.6788L123.2479,112.6788L123.2479,111.8141ZM123.32339999999999,102.71844L135.7285,102.71844L135.7285,103.58622L123.32339999999999,103.58622L123.32339999999999,102.71844ZM124.2924,109.7633L134.91649999999998,109.7633L134.91649999999998,110.6007L124.2924,110.6007L124.2924,109.7633ZM128.935,101.30969L129.9885,101.30969L129.9885,112.2247L128.935,112.2247L128.935,101.30969ZM133.80849999999998,100.31787L134.3716,101.13447Q133.4355,101.30247,132.2547,101.43437Q131.0741,101.56606,129.7721,101.66012Q128.4701,101.75419,127.1482,101.81325Q125.82650000000001,101.87231,124.6,101.89812Q124.5945,101.71021999999999,124.5212,101.46719Q124.44800000000001,101.22416,124.3734,101.06141Q125.5968,101.02486999999999,126.9076,100.96319Q128.2186,100.90128,129.48579999999998,100.80875Q130.7532,100.71621999999999,131.86579999999998,100.59131Q132.9786,100.46641,133.80849999999998,100.31787ZM125.7602,106.95430999999999L125.7602,108.02420000000001L133.3288,108.02420000000001L133.3288,106.95430999999999L125.7602,106.95430999999999ZM125.7602,105.19534L125.7602,106.24819L133.3288,106.24819L133.3288,105.19534L125.7602,105.19534ZM124.73740000000001,104.44L134.3899,104.44L134.3899,108.7881L124.73740000000001,108.7881L124.73740000000001,104.44ZM137.2656,107.8343L149.76909999999998,107.8343L149.76909999999998,108.759L137.2656,108.759L137.2656,107.8343ZM137.4811,100.84834L149.5355,100.84834L149.5355,101.77847L137.4811,101.77847L137.4811,100.84834ZM146.207,108.206L147.1988,108.4941Q146.7158,109.6283,145.9069,110.4342Q145.098,111.2401,143.93290000000002,111.774Q142.7678,112.3078,141.23000000000002,112.6263Q139.69240000000002,112.9448,137.769,113.0988Q137.7138,112.8728,137.5977,112.616Q137.48149999999998,112.3594,137.3461,112.1824Q139.799,112.0387,141.5649,111.6124Q143.3311,111.186,144.47629999999998,110.3611Q145.6214,109.536,146.207,108.206ZM139.1235,110.5836L139.8698,109.8412Q141.2176,110.0816,142.5563,110.3738Q143.89530000000002,110.6658,145.1498,110.9892Q146.4043,111.3123,147.499,111.6498Q148.5938,111.9873,149.4478,112.3014L148.5606,113.1202Q147.499,112.6832,146.0104,112.2327Q144.52179999999998,111.78229999999999,142.76409999999998,111.3577Q141.00650000000002,110.9329,139.1235,110.5836ZM141.3066,101.19266L142.3023,101.19266L142.3023,106.08697000000001L141.3066,106.08697000000001L141.3066,101.19266ZM144.5738,101.19266L145.5694,101.19266L145.5694,106.08697000000001L144.5738,106.08697000000001L144.5738,101.19266ZM139.17270000000002,103.83516L139.17270000000002,105.73741L147.9102,105.73741L147.9102,103.83516L139.17270000000002,103.83516ZM138.1824,102.97044L148.9495,102.97044L148.9495,106.59666L138.1824,106.59666L138.1824,102.97044ZM139.1235,110.5836Q139.60250000000002,110.0485,140.1337,109.3538Q140.66500000000002,108.6588,141.1497,107.9122Q141.6347,107.1656,141.97379999999998,106.49361999999999L143.0319,106.75284Q142.69830000000002,107.4172,142.22969999999998,108.1294Q141.76139999999998,108.8417,141.27030000000002,109.4842Q140.7792,110.1264,140.378,110.5891L139.1235,110.5836Z" fill="#000000" fill-opacity="1" style="mix-blend-mode:passthrough"/></g></g></g><g><rect x="43" y="125" width="107.5" height="20" rx="0" fill="#000000" fill-opacity="0" style="mix-blend-mode:passthrough"/><g><rect x="43" y="127" width="16" height="16" rx="8" fill="#EAB308" fill-opacity="1" style="mix-blend-mode:passthrough"/></g><g><rect x="67" y="125" width="83.5" height="20" rx="0" fill="#000000" fill-opacity="0" style="mix-blend-mode:passthrough"/><g><path d="M71.82617,136.0967L69.16699,136.0967L69.16699,135.0234L71.82617,135.0234Q72.59863,135.0234,73.07715,134.77734Q73.55566,134.53125,73.77783,134.09375Q74,133.65625,74,133.0957Q74,132.58301,73.77783,132.13184Q73.55566,131.68066,73.07715,131.40381Q72.59863,131.12695,71.82617,131.12695L69.47461,131.12695L69.47461,140L68.15527,140L68.15527,130.04688L71.82617,130.04688Q72.9541,130.04688,73.7334,130.43652Q74.5127,130.82617,74.91602,131.51318Q75.31934,132.2002,75.31934,133.08203Q75.31934,134.03906,74.91602,134.71582Q74.5127,135.3926,73.7334,135.7446Q72.9541,136.0967,71.82617,136.0967ZM83.1807,138.9609L83.1807,140L76.66602,140L76.66602,139.0908L79.9268,135.4609Q80.5283,134.79102,80.8599,134.32274999999998Q81.1914,133.85449,81.3247,133.48193Q81.458,133.10938,81.458,132.71973Q81.458,132.22754,81.2563,131.82764Q81.0547,131.42773,80.66499999999999,131.18848Q80.2754,130.94922,79.7217,130.94922Q79.0586,130.94922,78.6177,131.20557Q78.1768,131.46191,77.958,131.91992Q77.7393,132.37793,77.7393,132.97266L76.47461,132.97266Q76.47461,132.13184,76.84375,131.43457Q77.2129,130.7373,77.9375,130.32373Q78.6621,129.91016,79.7217,129.91016Q80.66499999999999,129.91016,81.33500000000001,130.2417Q82.00489999999999,130.57324,82.3638,131.17139Q82.7227,131.76953,82.7227,132.56934Q82.7227,133.00684,82.5757,133.45459Q82.42869999999999,133.90234,82.1724,134.34668Q81.916,134.79102,81.5776,135.2217Q81.2393,135.6523,80.85640000000001,136.0693L78.1904,138.9609L83.1807,138.9609ZM90.8864,129.51116L91.9405,129.5525Q91.82849999999999,132.09569,91.5743,134.24294Q91.3204,136.39,90.7724,138.1128Q90.2244,139.8357,89.2249,141.1469Q89.1392,141.06119999999999,88.96809999999999,140.9384Q88.7971,140.8157,88.6151,140.693Q88.4333,140.5703,88.3009,140.5042Q89.2949,139.3291,89.8291,137.6745Q90.3635,136.0198,90.5899,133.95944Q90.8164,131.89881,90.8864,129.51116ZM89.2995,129.14322L94.81790000000001,129.14322L94.81790000000001,130.13656L89.2995,130.13656L89.2995,129.14322ZM93.9029,132.96544L95.90559999999999,132.96544L95.90559999999999,133.89862L93.5954,133.89862L93.9029,132.96544ZM95.6127,132.96544L95.8144,132.96544L96.0106,132.92956L96.6589,133.19206Q96.2298,135.2323,95.39920000000001,136.7789Q94.5688,138.3252,93.4525,139.4039Q92.3362,140.4823,91.0187,141.1421Q90.9469,141.0207,90.8118,140.8647Q90.6768,140.709,90.5361,140.5639Q90.3955,140.41910000000001,90.2739,140.3419Q91.5664,139.7463,92.637,138.7638Q93.70779999999999,137.7814,94.4776,136.3908Q95.2474,135.0002,95.6127,133.18659L95.6127,132.96544ZM91.6539,132.80312Q92.1363,134.42647,92.9279,135.893Q93.7196,137.3593,94.8068,138.4926Q95.894,139.6257,97.2279,140.2454Q97.1118,140.3419,96.9722,140.495Q96.8329,140.6482,96.7112,140.8068Q96.5898,140.9653,96.5095,141.0977Q95.1375,140.3837,94.0339,139.1718Q92.93039999999999,137.9599,92.1153,136.393Q91.3002,134.82612,90.7689,133.06256L91.6539,132.80312ZM94.3783,129.14322L95.4574,129.14322Q95.25280000000001,129.92284,95.0104,130.79806Q94.7683,131.67306,94.5303,132.48397Q94.2923,133.29487,94.0908,133.89862L93.0421,133.89862Q93.2661,133.27563,93.50829999999999,132.45487Q93.7507,131.63412,93.9832,130.76459Q94.2157,129.89484,94.3783,129.14322ZM84.55969999999999,137.5157Q84.5347,137.4107,84.4765,137.2365Q84.4186,137.0624,84.3523,136.8732Q84.28620000000001,136.6838,84.22540000000001,136.5569Q84.4652,136.5125,84.7242,136.2644Q84.9832,136.0163,85.3161,135.6243Q85.4981,135.4283,85.8468,134.98734Q86.1957,134.54634,86.6273,133.93034Q87.0589,133.31434,87.5016,132.60472Q87.94460000000001,131.89487,88.3149,131.16687L89.1989,131.69887Q88.332,133.15881,87.3181,134.54394Q86.3044,135.9291,85.2739,136.9651L85.2739,136.99Q85.2739,136.99,85.1687,137.0412Q85.0634,137.0922,84.91669999999999,137.1724Q84.7699,137.2525,84.6647,137.3424Q84.55969999999999,137.4323,84.55969999999999,137.5157ZM84.55969999999999,137.5157L84.4833,136.6293L84.9744,136.2323L89.0079,135.1101Q89.011,135.3056,89.0276,135.5679Q89.0445,135.83,89.0694,135.9982Q87.6764,136.4188,86.8305,136.67680000000001Q85.9848,136.9347,85.5344,137.0915Q85.084,137.2481,84.8775,137.3387Q84.67099999999999,137.4292,84.55969999999999,137.5157ZM84.4757,134.08303Q84.4507,133.97234,84.3899,133.79297Q84.3293,133.61337,84.263,133.41869Q84.1968,133.22378,84.13589999999999,133.09144Q84.3313,133.04703,84.5299,132.81428Q84.7288,132.58131,84.9613,132.22825Q85.0818,132.04319,85.32,131.64222Q85.5585,131.24125,85.849,130.6865Q86.1395,130.13153,86.4313,129.49541Q86.7233,128.85928,86.94800000000001,128.22316L87.9164,128.67816Q87.5377,129.55294,87.0784,130.42312Q86.6192,131.29331,86.1209,132.08519Q85.6228,132.87684,85.1133,133.51297L85.1133,133.53791Q85.1133,133.53791,85.019,133.59325Q84.925,133.64837,84.7944,133.73413Q84.664,133.81987,84.5697,133.90978Q84.4757,133.99969,84.4757,134.08303ZM84.4757,134.08303L84.4538,133.29794L84.956,132.97637L87.581,132.69966Q87.5452,132.89828,87.5204,133.14962Q87.4959,133.40075,87.499,133.56372Q86.60040000000001,133.67944,86.0432,133.76388Q85.4861,133.84809,85.175,133.90147Q84.8639,133.95462,84.713,133.99509Q84.5621,134.03556,84.4757,134.08303ZM84.2864,139.2114Q84.8884,139.0154,85.6654,138.7413Q86.44239999999999,138.467,87.31739999999999,138.1496Q88.19239999999999,137.8322,89.069,137.5078L89.27,138.4187Q88.0288,138.9102,86.7798,139.3923Q85.5307,139.8742,84.5459,140.2452L84.2864,139.2114ZM106.46549999999999,129.92284L107.4829,129.92284L107.4829,137.6832L106.46549999999999,137.6832L106.46549999999999,129.92284ZM109.43719999999999,128.50338L110.4798,128.50338L110.4798,139.7379Q110.4798,140.2627,110.3374,140.5298Q110.195,140.7971,109.8749,140.9295Q109.5411,141.0618,108.9614,141.1003Q108.382,141.139,107.4433,141.1305Q107.40440000000001,140.9131,107.3007,140.6044Q107.197,140.296,107.07249999999999,140.0669Q107.7809,140.0864,108.3415,140.089Q108.9022,140.0919,109.08420000000001,140.0833Q109.28020000000001,140.0748,109.3587,140.0033Q109.43719999999999,139.9318,109.43719999999999,139.7412L109.43719999999999,128.50338ZM99.96690000000001,129.80363L99.96690000000001,132.50037L103.5741,132.50037L103.5741,129.80363L99.96690000000001,129.80363ZM99.0039,128.86256L104.586,128.86256L104.586,133.45544L99.0039,133.45544L99.0039,128.86256ZM98.4824,135.0254L104.2028,135.0254L104.2028,135.9883L98.4824,135.9883L98.4824,135.0254ZM103.7952,135.0254L104.82990000000001,135.0254Q104.82990000000001,135.0254,104.8271,135.1072Q104.8244,135.18880000000001,104.8201,135.2956Q104.8159,135.4023,104.8104,135.4857Q104.74289999999999,137.1755,104.6599,138.2115Q104.577,139.2475,104.4607,139.7902Q104.3445,140.3327,104.157,140.5504Q103.979,140.7645,103.78229999999999,140.8549Q103.58590000000001,140.9452,103.298,140.9723Q103.0578,141.0028,102.6361,140.9997Q102.2145,140.9966,101.7471,140.9796Q101.73310000000001,140.7365,101.65870000000001,140.4578Q101.5843,140.1794,101.4574,139.9668Q101.9074,140.0118,102.28280000000001,140.0214Q102.6584,140.0313,102.81790000000001,140.0313Q102.9834,140.0313,103.083,140.002Q103.1825,139.9729,103.27199999999999,139.8749Q103.3956,139.7263,103.487,139.2427Q103.5784,138.75900000000001,103.6557,137.7817Q103.73310000000001,136.8041,103.7952,135.2052L103.7952,135.0254ZM100.9898,133.80981L101.98859999999999,133.80981Q101.92949999999999,135.0497,101.7849,136.15Q101.6403,137.2501,101.3166,138.1881Q100.993,139.1261,100.3969,139.8779Q99.80080000000001,140.6296,98.8246,141.1694Q98.7248,140.9848,98.5312,140.7545Q98.3379,140.5243,98.1609,140.3948Q99.0575,139.9213,99.5976,139.2565Q100.1377,138.5917,100.4243,137.7473Q100.71090000000001,136.9027,100.8277,135.9113Q100.9447,134.91975,100.9898,133.80981ZM118.76859999999999,135.249L118.76859999999999,136.2881L115.43260000000001,136.2881L115.43260000000001,135.249L118.76859999999999,135.249ZM124.0308,129.94034L135.1227,129.94034L135.1227,130.82978L124.0308,130.82978L124.0308,129.94034ZM123.24000000000001,133.57728L135.8203,133.57728L135.8203,134.45819L123.24000000000001,134.45819L123.24000000000001,133.57728ZM127.59819999999999,130.30172L128.5915,130.30172L128.5915,134.06641L127.59819999999999,134.06641L127.59819999999999,130.30172ZM130.3746,130.30172L131.3788,130.30172L131.3788,134.06641L130.3746,134.06641L130.3746,130.30172ZM124.6643,131.33356L125.5222,130.99625Q125.9046,131.45912,126.21940000000001,132.03684Q126.5344,132.61456,126.658,133.05775L125.7419,133.43334Q125.6235,132.98469,125.3212,132.39603Q125.0189,131.80716,124.6643,131.33356ZM125.78450000000001,128.57294L126.6939,128.21616Q127.0167,128.54122,127.29429999999999,128.94481Q127.5719,129.34841,127.7065,129.68222L126.7527,130.09653Q126.6291,129.77147,126.35849999999999,129.34031Q126.08789999999999,128.90894,125.78450000000001,128.57294ZM133.3986,130.94747L134.3468,131.26969Q134.0436,131.84675,133.69299999999998,132.43891Q133.3426,133.03106,133.04399999999998,133.44625L132.22820000000002,133.16056Q132.4225,132.85497,132.6397,132.46931Q132.8569,132.08366,133.0586,131.67962Q133.2603,131.27559,133.3986,130.94747ZM132.1876,128.21309L133.2183,128.54559Q132.93040000000002,129.04347,132.6069,129.53544Q132.2834,130.02719,132.0034,130.38331L131.0918,130.07028Q131.3718,129.69228,131.68439999999998,129.15853Q131.997,128.62456,132.1876,128.21309ZM125.1567,135.3216L133.96030000000002,135.3216L133.96030000000002,141.052L132.8851,141.052L132.8851,136.159L126.1798,136.159L126.1798,141.0994L125.1567,141.0994L125.1567,135.3216ZM125.88300000000001,137.5358L133.19209999999998,137.5358L133.19209999999998,138.3598L125.88300000000001,138.3598L125.88300000000001,137.5358ZM125.9002,139.7738L133.2091,139.7738L133.2091,140.6221L125.9002,140.6221L125.9002,139.7738ZM140.0978,133.49066L140.0978,138.7772L139.0913,138.7772L139.0913,134.47853L137.1147,134.47853L137.1147,133.49066L140.0978,133.49066ZM137.4231,129.40484L138.1461,128.79628Q138.5691,129.13534,139.0292,129.55162Q139.4894,129.96769,139.9016,130.37522Q140.3139,130.78275,140.5768,131.10475L139.804,131.80431Q139.5605,131.47684,139.1565,131.05684Q138.7525,130.63684,138.29770000000002,130.20284Q137.8431,129.76884,137.4231,129.40484ZM142.8311,130.56159L143.50130000000001,129.96725Q144.163,130.20284,144.9151,130.51391Q145.6671,130.82497,146.3573,131.1485Q147.04770000000002,131.47203,147.5152,131.75509L146.8068,132.42425Q146.3752,132.14972,145.69729999999998,131.81503Q145.0196,131.48012,144.2661,131.14697Q143.5125,130.81359,142.8311,130.56159ZM141.60039999999998,131.7575L148.84120000000001,131.7575L148.84120000000001,132.56753L142.5907,132.56753L142.5907,139.0095L141.60039999999998,139.0095L141.60039999999998,131.7575ZM148.3418,131.7575L149.35160000000002,131.7575L149.35160000000002,137.9615Q149.35160000000002,138.353,149.25119999999998,138.5567Q149.1507,138.7603,148.87529999999998,138.8793Q148.6021,138.99,148.14319999999998,139.015Q147.6842,139.0399,146.9768,139.0399Q146.94639999999998,138.8382,146.86169999999998,138.5952Q146.7773,138.3519,146.683,138.1752Q147.1774,138.1892,147.5784,138.1892Q147.9796,138.1892,148.11169999999998,138.1892Q148.2493,138.1807,148.2954,138.1275Q148.3418,138.0741,148.3418,137.9505L148.3418,131.7575ZM141.6085,128.75187L148.5914,128.75187L148.5914,129.58925L141.6085,129.58925L141.6085,128.75187ZM142.14350000000002,133.80041L148.7412,133.80041L148.7412,134.58877999999999L142.14350000000002,134.58877999999999L142.14350000000002,133.80041ZM142.14350000000002,135.8582L148.7412,135.8582L148.7412,136.67680000000001L142.14350000000002,136.67680000000001L142.14350000000002,135.8582ZM144.9505,132.09022L145.90269999999998,132.09022L145.90269999999998,138.9535L144.9505,138.9535L144.9505,132.09022ZM148.2421,128.75187L148.482,128.75187L148.69490000000002,128.69675L149.3467,129.20162Q148.6505,129.87822,147.6746,130.51237Q146.699,131.14631,145.75029999999998,131.565Q145.6505,131.42412,145.48340000000002,131.23753Q145.3163,131.05094,145.1918,130.94025Q145.76409999999998,130.69984,146.3433,130.36319Q146.9226,130.02631,147.4248,129.65422Q147.9273,129.28191,148.2421,128.94831L148.2421,128.75187ZM139.6165,138.3513Q139.9556,138.3513,140.2747,138.5967Q140.5941,138.8419,141.1773,139.2182Q141.8834,139.6443,142.7899,139.7664Q143.6966,139.8884,144.8648,139.8884Q145.4878,139.8884,146.172,139.8692Q146.85649999999998,139.8497,147.54989999999998,139.8162Q148.24360000000001,139.7828,148.8922,139.7384Q149.541,139.694,150.07850000000002,139.6356Q150.0233,139.7679,149.9597,139.9543Q149.8962,140.1404,149.84789999999998,140.3308Q149.7998,140.5213,149.7858,140.6624Q149.42000000000002,140.6818,148.8222,140.7098Q148.2246,140.7378,147.5171,140.7545Q146.8099,140.7713,146.1121,140.7853Q145.4145,140.7993,144.846,140.7993Q143.547,140.7993,142.6226,140.6394Q141.6984,140.4797,140.96179999999998,140.0363Q140.53640000000001,139.7812,140.18880000000001,139.5021Q139.84120000000001,139.223,139.6001,139.223Q139.36450000000002,139.223,139.0589,139.4665Q138.7533,139.7099,138.41649999999998,140.105Q138.0798,140.5001,137.723,140.9743L137.06,140.1094Q137.7539,139.3582,138.4167,138.8548Q139.0797,138.3513,139.6165,138.3513Z" fill="#000000" fill-opacity="1" style="mix-blend-mode:passthrough"/></g></g></g></g></g></g></svg>