<svg xmlns="http://www.w3.org/2000/svg" xmlns:xlink="http://www.w3.org/1999/xlink" fill="none" version="1.1" width="32" height="32" viewBox="0 0 32 32"><g><rect x="0" y="0" width="32" height="32" rx="0" fill="#000000" fill-opacity="0" style="mix-blend-mode:passthrough"/><g><rect x="0" y="0" width="32" height="32" rx="16" fill="#1693F9" fill-opacity="1" style="mix-blend-mode:passthrough"/><g><rect x="6.453125" y="4" width="19.078125" height="24" rx="0" fill="#000000" fill-opacity="0" style="mix-blend-mode:passthrough"/><g><path d="M11.968745,16.539099999999998L8.929685,16.539099999999998L8.929685,15.3125L11.968745,15.3125Q12.851565,15.3125,13.398435,15.0312Q13.945315,14.75,14.199214999999999,14.25Q14.453125,13.75,14.453125,13.10938Q14.453125,12.52344,14.199214999999999,12.00781Q13.945315,11.49219,13.398435,11.17578Q12.851565,10.85938,11.968745,10.85938L9.281245,10.85938L9.281245,21L7.773435,21L7.773435,9.625L11.968745,9.625Q13.257815,9.625,14.148435,10.07031Q15.039065,10.51562,15.500005,11.30078Q15.960935,12.08594,15.960935,13.09375Q15.960935,14.1875,15.500005,14.9609Q15.039065,15.7344,14.148435,16.136699999999998Q13.257815,16.539099999999998,11.968745,16.539099999999998ZM25.179725,17.1719L25.179725,18.3594L16.960925,18.3594L16.960925,17.5078L22.054724999999998,9.625L23.234325,9.625L21.968725,11.90625L18.601525000000002,17.1719L25.179725,17.1719ZM23.593725,9.625L23.593725,21L22.148425,21L22.148425,9.625L23.593725,9.625Z" fill="#FFFFFF" fill-opacity="1" style="mix-blend-mode:passthrough"/></g><g><path d="M11.968745,16.539099999999998L8.929685,16.539099999999998L8.929685,15.3125L11.968745,15.3125Q12.851565,15.3125,13.398435,15.0312Q13.945315,14.75,14.199214999999999,14.25Q14.453125,13.75,14.453125,13.10938Q14.453125,12.52344,14.199214999999999,12.00781Q13.945315,11.49219,13.398435,11.17578Q12.851565,10.85938,11.968745,10.85938L9.281245,10.85938L9.281245,21L7.773435,21L7.773435,9.625L11.968745,9.625Q13.257815,9.625,14.148435,10.07031Q15.039065,10.51562,15.500005,11.30078Q15.960935,12.08594,15.960935,13.09375Q15.960935,14.1875,15.500005,14.9609Q15.039065,15.7344,14.148435,16.136699999999998Q13.257815,16.539099999999998,11.968745,16.539099999999998ZM25.179725,17.1719L25.179725,18.3594L16.960925,18.3594L16.960925,17.5078L22.054724999999998,9.625L23.234325,9.625L21.968725,11.90625L18.601525000000002,17.1719L25.179725,17.1719ZM23.593725,9.625L23.593725,21L22.148425,21L22.148425,9.625L23.593725,9.625Z" fill="#FFFFFF" fill-opacity="1" style="mix-blend-mode:passthrough"/></g></g></g></g></svg>