<svg xmlns="http://www.w3.org/2000/svg" xmlns:xlink="http://www.w3.org/1999/xlink" fill="none" version="1.1" width="32" height="32" viewBox="0 0 32 32"><g><rect x="0" y="0" width="32" height="32" rx="0" fill="#000000" fill-opacity="0" style="mix-blend-mode:passthrough"/><g><rect x="0" y="0" width="32" height="32" rx="16" fill="#1693F9" fill-opacity="1" style="mix-blend-mode:passthrough"/><g><rect x="6.453125" y="4" width="19.078125" height="24" rx="0" fill="#000000" fill-opacity="0" style="mix-blend-mode:passthrough"/><g><path d="M11.968745,16.539099999999998L8.929685,16.539099999999998L8.929685,15.3125L11.968745,15.3125Q12.851565,15.3125,13.398435,15.0312Q13.945315,14.75,14.199214999999999,14.25Q14.453125,13.75,14.453125,13.10938Q14.453125,12.52344,14.199214999999999,12.00781Q13.945315,11.49219,13.398435,11.17578Q12.851565,10.85938,11.968745,10.85938L9.281245,10.85938L9.281245,21L7.773435,21L7.773435,9.625L11.968745,9.625Q13.257815,9.625,14.148435,10.07031Q15.039065,10.51562,15.500005,11.30078Q15.960935,12.08594,15.960935,13.09375Q15.960935,14.1875,15.500005,14.9609Q15.039065,15.7344,14.148435,16.136699999999998Q13.257815,16.539099999999998,11.968745,16.539099999999998ZM19.320325,15.5859L18.164025000000002,15.2891L18.734325,9.625L24.570325,9.625L24.570325,10.96094L19.960925,10.96094L19.617224999999998,14.0547Q19.929724999999998,13.875,20.410125,13.71875Q20.890625,13.5625,21.515625,13.5625Q22.304724999999998,13.5625,22.929725,13.83203Q23.554725,14.1016,23.996125,14.6016Q24.437525,15.1016,24.671925,15.8047Q24.906225,16.5078,24.906225,17.375Q24.906225,18.1953,24.683625,18.8828Q24.460925,19.5703,24.015625,20.082Q23.570325,20.5938,22.894525,20.875Q22.218725,21.1562,21.304724999999998,21.1562Q20.617224999999998,21.1562,20.003925000000002,20.9648Q19.390625,20.7734,18.910125,20.3789Q18.429724999999998,19.9844,18.128925000000002,19.3945Q17.828125,18.8047,17.750025,18.0078L19.125025,18.0078Q19.218725,18.648400000000002,19.500025,19.085900000000002Q19.781225,19.523400000000002,20.238325,19.7461Q20.695325,19.9688,21.304724999999998,19.9688Q21.820325,19.9688,22.218725,19.789099999999998Q22.617225,19.6094,22.890625,19.273400000000002Q23.164025,18.9375,23.308625,18.460900000000002Q23.453125,17.9844,23.453125,17.3906Q23.453125,16.851599999999998,23.304725,16.3906Q23.156225,15.9297,22.863325,15.5859Q22.570325,15.2422,22.148425,15.0508Q21.726525000000002,14.8594,21.179724999999998,14.8594Q20.453125,14.8594,20.082025,15.0547Q19.710925,15.25,19.320325,15.5859Z" fill="#FFFFFF" fill-opacity="1" style="mix-blend-mode:passthrough"/></g><g><path d="M11.968745,16.539099999999998L8.929685,16.539099999999998L8.929685,15.3125L11.968745,15.3125Q12.851565,15.3125,13.398435,15.0312Q13.945315,14.75,14.199214999999999,14.25Q14.453125,13.75,14.453125,13.10938Q14.453125,12.52344,14.199214999999999,12.00781Q13.945315,11.49219,13.398435,11.17578Q12.851565,10.85938,11.968745,10.85938L9.281245,10.85938L9.281245,21L7.773435,21L7.773435,9.625L11.968745,9.625Q13.257815,9.625,14.148435,10.07031Q15.039065,10.51562,15.500005,11.30078Q15.960935,12.08594,15.960935,13.09375Q15.960935,14.1875,15.500005,14.9609Q15.039065,15.7344,14.148435,16.136699999999998Q13.257815,16.539099999999998,11.968745,16.539099999999998Z" fill="#FFFFFF" fill-opacity="1" style="mix-blend-mode:passthrough"/></g></g></g></g></svg>