<svg xmlns="http://www.w3.org/2000/svg" xmlns:xlink="http://www.w3.org/1999/xlink" fill="none" version="1.1" width="32" height="32" viewBox="0 0 32 32"><g><rect x="0" y="0" width="32" height="32" rx="0" fill="#000000" fill-opacity="0" style="mix-blend-mode:passthrough"/><g><rect x="0" y="0" width="32" height="32" rx="16" fill="#1693F9" fill-opacity="1" style="mix-blend-mode:passthrough"/><g><rect x="6.453125" y="4" width="19.078125" height="24" rx="0" fill="#000000" fill-opacity="0" style="mix-blend-mode:passthrough"/><g><path d="M11.968745,16.539099999999998L8.929685,16.539099999999998L8.929685,15.3125L11.968745,15.3125Q12.851565,15.3125,13.398435,15.0312Q13.945315,14.75,14.199214999999999,14.25Q14.453125,13.75,14.453125,13.10938Q14.453125,12.52344,14.199214999999999,12.00781Q13.945315,11.49219,13.398435,11.17578Q12.851565,10.85938,11.968745,10.85938L9.281245,10.85938L9.281245,21L7.773435,21L7.773435,9.625L11.968745,9.625Q13.257815,9.625,14.148435,10.07031Q15.039065,10.51562,15.500005,11.30078Q15.960935,12.08594,15.960935,13.09375Q15.960935,14.1875,15.500005,14.9609Q15.039065,15.7344,14.148435,16.136699999999998Q13.257815,16.539099999999998,11.968745,16.539099999999998ZM23.039025,9.60938L23.164025,9.60938L23.164025,10.83594L23.039025,10.83594Q21.890625,10.83594,21.117224999999998,11.20703Q20.343725,11.57812,19.890625,12.19922Q19.437525,12.82031,19.238325,13.59375Q19.039025000000002,14.3672,19.039025000000002,15.1641L19.039025000000002,16.835900000000002Q19.039025000000002,17.5938,19.218725,18.175800000000002Q19.398425,18.7578,19.710925,19.1562Q20.023425,19.5547,20.417925,19.7578Q20.812525,19.960900000000002,21.242224999999998,19.960900000000002Q21.742224999999998,19.960900000000002,22.132825,19.7695Q22.523425,19.5781,22.792925,19.2305Q23.062525,18.8828,23.203125,18.4062Q23.343725,17.9297,23.343725,17.3594Q23.343725,16.851599999999998,23.218725,16.3789Q23.093725,15.9062,22.835925,15.5352Q22.578125,15.1641,22.191425000000002,14.9492Q21.804724999999998,14.7344,21.273425,14.7344Q20.671925,14.7344,20.152324999999998,15.0273Q19.632825,15.3203,19.300825,15.793Q18.968725,16.2656,18.921925,16.8203L18.156225,16.8125Q18.265625,15.9375,18.566425000000002,15.3164Q18.867224999999998,14.6953,19.316425000000002,14.3008Q19.765625,13.90625,20.324225,13.72266Q20.882825,13.53906,21.507825,13.53906Q22.359325,13.53906,22.976525,13.85938Q23.593725,14.1797,23.992225,14.7148Q24.390625,15.25,24.582025,15.918Q24.773425,16.585900000000002,24.773425,17.289099999999998Q24.773425,18.0938,24.546925,18.7969Q24.320325,19.5,23.871125,20.0312Q23.421925,20.5625,22.765625,20.8594Q22.109325,21.1562,21.242224999999998,21.1562Q20.320325,21.1562,19.632825,20.7773Q18.945325,20.3984,18.492224999999998,19.7656Q18.039025000000002,19.1328,17.812525,18.3594Q17.585925,17.585900000000002,17.585925,16.789099999999998L17.585925,16.1094Q17.585925,14.9062,17.828125,13.75Q18.070325,12.59375,18.667925,11.65625Q19.265625,10.71875,20.328125,10.16406Q21.390625,9.60938,23.039025,9.60938Z" fill="#FFFFFF" fill-opacity="1" style="mix-blend-mode:passthrough"/></g><g><path d="M11.968745,16.539099999999998L8.929685,16.539099999999998L8.929685,15.3125L11.968745,15.3125Q12.851565,15.3125,13.398435,15.0312Q13.945315,14.75,14.199214999999999,14.25Q14.453125,13.75,14.453125,13.10938Q14.453125,12.52344,14.199214999999999,12.00781Q13.945315,11.49219,13.398435,11.17578Q12.851565,10.85938,11.968745,10.85938L9.281245,10.85938L9.281245,21L7.773435,21L7.773435,9.625L11.968745,9.625Q13.257815,9.625,14.148435,10.07031Q15.039065,10.51562,15.500005,11.30078Q15.960935,12.08594,15.960935,13.09375Q15.960935,14.1875,15.500005,14.9609Q15.039065,15.7344,14.148435,16.136699999999998Q13.257815,16.539099999999998,11.968745,16.539099999999998Z" fill="#FFFFFF" fill-opacity="1" style="mix-blend-mode:passthrough"/></g></g></g></g></svg>