<svg xmlns="http://www.w3.org/2000/svg" xmlns:xlink="http://www.w3.org/1999/xlink" fill="none" version="1.1" width="130.015625" height="42" viewBox="0 0 130.015625 42"><g><rect x="0" y="0" width="130.015625" height="42" rx="4" fill="#FFFFFF" fill-opacity="1" style="mix-blend-mode:passthrough"/><rect x="0.5" y="0.5" width="129.015625" height="41" rx="3.5" fill-opacity="0" stroke-opacity="1" stroke="#D1D5DB" fill="none" stroke-width="1" style="mix-blend-mode:passthrough"/><g><path d="M20.1410625,13.182L30.490612499999997,13.182L30.490612499999997,14.336L20.1410625,14.336L20.1410625,13.182ZM20.1410625,16.9145L30.4666125,16.9145L30.4666125,18.049500000000002L20.1410625,18.049500000000002L20.1410625,16.9145ZM20.0530625,20.7365L30.497812500000002,20.7365L30.497812500000002,21.874499999999998L20.0530625,21.874499999999998L20.0530625,20.7365ZM19.4605625,13.182L20.6423125,13.182L20.6423125,18.9882Q20.6423125,19.8958,20.5640625,20.9405Q20.4858125,21.985,20.2653125,23.0457Q20.0448125,24.1065,19.6100625,25.0845Q19.1753125,26.0623,18.4525625,26.8622Q18.364562499999998,26.7358,18.1913125,26.5812Q18.0180625,26.427,17.8385625,26.2868Q17.6590625,26.1465,17.5203125,26.0707Q18.1860625,25.3215,18.5765625,24.442999999999998Q18.9673125,23.5642,19.1560625,22.6283Q19.3450625,21.6922,19.4028125,20.761200000000002Q19.4605625,19.83,19.4605625,18.982L19.4605625,13.182ZM30.0091125,13.182L31.1971125,13.182L31.1971125,25.144Q31.1971125,25.725,31.0328125,26.0322Q30.8688125,26.3398,30.4676125,26.4948Q30.0701125,26.6397,29.3458125,26.6728Q28.6218125,26.7057,27.4816125,26.6898Q27.4468125,26.46,27.3203125,26.1162Q27.1941125,25.7725,27.0676125,25.5295Q27.633612499999998,25.5518,28.1533125,25.5548Q28.6733125,25.558,29.054612499999998,25.553Q29.4358125,25.5483,29.5896125,25.5483Q29.8233125,25.5385,29.9161125,25.4538Q30.0091125,25.3687,30.0091125,25.1413L30.0091125,13.182ZM24.4870625,13.619250000000001L25.6970625,13.619250000000001L25.6970625,26.63L24.4870625,26.63L24.4870625,13.619250000000001ZM39.4528125,15.255749999999999L40.5543125,15.3855Q40.0621125,18.38575,39.142812500000005,20.7762Q38.2235125,23.1665,36.6885125,24.7665Q36.6006125,24.675,36.4285125,24.5502Q36.256812499999995,24.4255,36.0705125,24.296Q35.8846125,24.1665,35.7520125,24.097Q36.7741125,23.1265,37.496112499999995,21.7725Q38.218112500000004,20.4182,38.6968125,18.7668Q39.1758125,17.11525,39.4528125,15.255749999999999ZM44.0043125,15.29125L45.0926125,15.421Q44.6233125,18.4755,43.691612500000005,20.883200000000002Q42.759812499999995,23.291,41.180612499999995,24.8875Q41.0825125,24.7957,40.907512499999996,24.668Q40.7326125,24.5403,40.554612500000005,24.4157Q40.3766125,24.291,40.2375125,24.2215Q41.3013125,23.250999999999998,42.0388125,21.8955Q42.776512499999995,20.54,43.256812499999995,18.869500000000002Q43.737112499999995,17.19875,44.0043125,15.29125ZM36.1143125,16.930999999999997L36.8511125,16.258499999999998Q37.4468125,16.9615,38.0596125,17.75425Q38.672512499999996,18.5467,39.246812500000004,19.346Q39.8211125,20.1453,40.3006125,20.877000000000002Q40.7801125,21.6087,41.1028125,22.196199999999997L40.3188125,22.9817Q40.0023125,22.378500000000003,39.5241125,21.624499999999998Q39.0458125,20.8705,38.4746125,20.052500000000002Q37.9036125,19.2345,37.298612500000004,18.432499999999997Q36.6938125,17.630499999999998,36.1143125,16.930999999999997ZM40.737812500000004,16.9345L41.515812499999996,16.3155Q42.1461125,17.06375,42.7798125,17.909750000000003Q43.4136125,18.755499999999998,43.9868125,19.6205Q44.5600125,20.485500000000002,45.0293125,21.291Q45.4988125,22.0965,45.7965125,22.7605L44.9560125,23.464199999999998Q44.6611125,22.8003,44.1981125,21.9775Q43.735012499999996,21.1545,43.1648125,20.277Q42.5946125,19.3995,41.9751125,18.5395Q41.3556125,17.67925,40.737812500000004,16.9345ZM34.420612500000004,13.01925L47.1898125,13.01925L47.1898125,14.167L35.6246125,14.167L35.6246125,26.744L34.420612500000004,26.744L34.420612500000004,13.01925ZM46.446312500000005,13.01925L47.6501125,13.01925L47.6501125,25.1785Q47.6501125,25.755,47.4813125,26.0632Q47.3128125,26.3717,46.9161125,26.5268Q46.5291125,26.6683,45.8501125,26.706Q45.1710125,26.744,44.0750125,26.7342Q44.0465125,26.574,43.9658125,26.3565Q43.8853125,26.1392,43.7970125,25.9202Q43.7091125,25.7013,43.611112500000004,25.5438Q44.1461125,25.566,44.6448125,25.5723Q45.1435125,25.5785,45.5138125,25.5735Q45.8843125,25.5685,46.0311125,25.5685Q46.2578125,25.5525,46.3520125,25.4713Q46.446312500000005,25.39,46.446312500000005,25.1758L46.446312500000005,13.01925ZM51.9201125,16.655250000000002L52.9003125,17.09675Q52.5128125,17.84525,51.9761125,18.6768Q51.4393125,19.508200000000002,50.7371125,20.0975L49.7630125,19.5045Q50.4686125,18.9757,51.0275125,18.17425Q51.5866125,17.372500000000002,51.9201125,16.655250000000002ZM53.8418125,16.3925L54.9298125,16.3925L54.9298125,19.464199999999998Q54.9298125,19.7932,55.1383125,19.894199999999998Q55.3468125,19.994999999999997,56.0488125,19.994999999999997Q56.2123125,19.994999999999997,56.6510125,19.994999999999997Q57.0901125,19.994999999999997,57.6191125,19.994999999999997Q58.1481125,19.994999999999997,58.6206125,19.994999999999997Q59.0933125,19.994999999999997,59.3086125,19.994999999999997Q59.7031125,19.994999999999997,59.8953125,19.8748Q60.0878125,19.7542,60.1725125,19.3735Q60.2575125,18.992800000000003,60.2798125,18.2215Q60.4728125,18.348,60.7661125,18.460250000000002Q61.0596125,18.5723,61.2903125,18.622999999999998Q61.2173125,19.563499999999998,61.0381125,20.076999999999998Q60.8588125,20.5903,60.4768125,20.7855Q60.0948125,20.9805,59.3868125,20.9805Q59.2721125,20.9805,58.9285125,20.9805Q58.5853125,20.9805,58.1321125,20.9805Q57.6790125,20.9805,57.2275125,20.9805Q56.7763125,20.9805,56.4358125,20.9805Q56.0955125,20.9805,55.9908125,20.9805Q55.1378125,20.9805,54.6730125,20.8555Q54.2083125,20.7305,54.0251125,20.4023Q53.8418125,20.073700000000002,53.8418125,19.4767L53.8418125,16.3925ZM54.6443125,15.458L55.2478125,14.7485Q55.7473125,14.96075,56.2736125,15.254999999999999Q56.7998125,15.549,57.2683125,15.8525Q57.7368125,16.15575,58.0373125,16.43475L57.3991125,17.214Q57.1110125,16.935000000000002,56.6488125,16.6125Q56.1865125,16.289749999999998,55.6633125,15.98325Q55.1403125,15.67675,54.6443125,15.458ZM60.6793125,17.32125L61.5465125,16.7345Q62.0628125,17.16375,62.5948125,17.68425Q63.1268125,18.2045,63.5813125,18.7218Q64.0361125,19.239,64.2920125,19.6647L63.3713125,20.3307Q63.1181125,19.9112,62.6808125,19.3797Q62.2435125,18.8482,61.7196125,18.30575Q61.1956125,17.762999999999998,60.6793125,17.32125ZM60.0168125,15.289L61.0353125,15.8Q59.8103125,17.281,58.0926125,18.438499999999998Q56.3748125,19.5957,54.3813125,20.4578Q52.3880125,21.319499999999998,50.3338125,21.9177Q50.2643125,21.779,50.1348125,21.593Q50.0053125,21.4067,49.8646125,21.2157Q49.7241125,21.0247,49.6100125,20.9082Q51.6935125,20.3988,53.6588125,19.6015Q55.6240125,18.8042,57.2681125,17.722250000000003Q58.9121125,16.64,60.0168125,15.289ZM56.3675125,21.5063L57.5840125,21.5063L57.5840125,25.521L56.3675125,25.521L56.3675125,21.5063ZM61.3483125,22.2282L62.5426125,22.2282L62.5426125,26.7455L61.3483125,26.7455L61.3483125,22.2282ZM50.2430125,13.434999999999999L63.8081125,13.434999999999999L63.8081125,16.56825L62.5953125,16.56825L62.5953125,14.51675L51.4218125,14.51675L51.4218125,16.56825L50.2430125,16.56825L50.2430125,13.434999999999999ZM56.0830125,12.08475L57.2203125,11.89575Q57.4186125,12.35,57.5830125,12.8825Q57.7475125,13.415,57.8018125,13.7955L56.5950125,14.032250000000001Q56.5436125,13.65175,56.4013125,13.0985Q56.2591125,12.545,56.0830125,12.08475ZM51.5885125,22.359299999999998L52.7640125,22.359299999999998L52.7640125,24.9147L62.0311125,24.9147L62.0311125,26.0465L51.5885125,26.0465L51.5885125,22.359299999999998ZM68.6133125,16.5905L79.9931125,16.5905L79.9931125,17.5785L68.6133125,17.5785L68.6133125,16.5905ZM68.8335125,21.2563L77.9951125,21.2563L77.9951125,22.247700000000002L68.8335125,22.247700000000002L68.8335125,21.2563ZM71.1838125,15.19925L72.3315125,15.19925L72.3315125,19.278L76.2283125,19.278L76.2283125,15.19925L77.40361250000001,15.19925L77.40361250000001,20.235L71.1838125,20.235L71.1838125,15.19925ZM77.6766125,21.2563L77.9196125,21.2563L78.1341125,21.2055L78.88731250000001,21.613Q78.22161249999999,22.8442,77.1390125,23.7207Q76.0566125,24.5972,74.6858125,25.1875Q73.3153125,25.7778,71.76151250000001,26.1345Q70.2078125,26.4915,68.56751249999999,26.6835Q68.50811250000001,26.4725,68.36281249999999,26.1698Q68.21781250000001,25.867,68.07261249999999,25.665Q69.59881250000001,25.53,71.07861249999999,25.2283Q72.55861250000001,24.9265,73.8470125,24.4215Q75.1358125,23.9163,76.1253125,23.177Q77.1148125,22.4375,77.6766125,21.430500000000002L77.6766125,21.2563ZM71.39931250000001,22.0642Q72.1966125,23.121499999999997,73.5453125,23.877200000000002Q74.8940125,24.6327,76.64761250000001,25.096Q78.4013125,25.5592,80.3958125,25.7395Q80.2728125,25.8625,80.1388125,26.0515Q80.0048125,26.2407,79.8880125,26.4312Q79.7716125,26.622,79.6961125,26.7795Q77.66131250000001,26.5387,75.87911249999999,26.0015Q74.0970125,25.4643,72.68961250000001,24.5895Q71.2823125,23.7145,70.3655125,22.4745L71.39931250000001,22.0642ZM67.5876125,13.65L80.1761125,13.65L80.1761125,14.779L67.5876125,14.779L67.5876125,13.65ZM67.0265125,13.65L68.21811249999999,13.65L68.21811249999999,18.000999999999998Q68.21811249999999,18.953,68.1621125,20.0822Q68.1061125,21.2113,67.9461125,22.3947Q67.7861125,23.578,67.4821125,24.7027Q67.1780125,25.8272,66.6723125,26.7768Q66.5593125,26.679,66.3576125,26.5748Q66.1558125,26.4705,65.9528125,26.3725Q65.74981249999999,26.2747,65.5921125,26.2337Q66.0916125,25.3253,66.3763125,24.267Q66.66131250000001,23.2087,66.80381249999999,22.106Q66.9466125,21.003,66.9865125,19.9545Q67.0265125,18.906,67.0265125,18.00725L67.0265125,13.65ZM72.5833125,12.266L73.7801125,11.9785Q74.0593125,12.464,74.3276125,13.0425Q74.5958125,13.620750000000001,74.7086125,14.026L73.4556125,14.367750000000001Q73.3455125,13.95275,73.1025125,13.35225Q72.8595125,12.7515,72.5833125,12.266ZM84.0063125,18.11325L93.1648125,18.11325L93.1648125,19.295L84.0063125,19.295L84.0063125,18.11325ZM92.7545125,18.11325L94.0020125,18.11325Q94.0020125,18.11325,93.9988125,18.224Q93.9958125,18.33475,93.9958125,18.469250000000002Q93.9958125,18.6038,93.9798125,18.689Q93.8928125,20.5273,93.8013125,21.823700000000002Q93.7098125,23.119999999999997,93.5990125,23.9712Q93.4886125,24.8223,93.3378125,25.313Q93.1871125,25.8037,92.9693125,26.0403Q92.7213125,26.3417,92.4300125,26.4543Q92.1388125,26.567,91.7271125,26.598Q91.3243125,26.6327,90.6368125,26.6243Q89.9493125,26.616,89.1930125,26.5707Q89.1708125,26.3027,89.0700125,25.9625Q88.9696125,25.6225,88.7961125,25.3668Q89.5795125,25.4345,90.2508125,25.4522Q90.9223125,25.47,91.2066125,25.47Q91.6848125,25.47,91.8893125,25.2752Q92.1043125,25.054,92.2601125,24.319000000000003Q92.4160125,23.5837,92.5368125,22.1355Q92.6578125,20.6873,92.7545125,18.3375L92.7545125,18.11325ZM86.1956125,12.38375L87.4681125,12.73625Q86.9276125,14.076,86.1826125,15.3015Q85.4375125,16.527,84.5628125,17.557499999999997Q83.6881125,18.587699999999998,82.7378125,19.355Q82.6373125,19.226,82.4448125,19.0545Q82.2526125,18.883,82.0570125,18.71Q81.8618125,18.5367,81.7103125,18.436Q82.6676125,17.744500000000002,83.5140125,16.795749999999998Q84.3608125,15.84675,85.0475125,14.722000000000001Q85.7343125,13.597000000000001,86.1956125,12.38375ZM91.7790125,12.35175Q92.1571125,13.155999999999999,92.6836125,13.996749999999999Q93.2103125,14.8375,93.8281125,15.622Q94.4458125,16.4065,95.1035125,17.067Q95.7613125,17.727249999999998,96.3853125,18.203Q96.2338125,18.31975,96.0495125,18.493000000000002Q95.8653125,18.666,95.6983125,18.8567Q95.5313125,19.0472,95.4146125,19.211Q94.7845125,18.666,94.1253125,17.93425Q93.4663125,17.2025,92.8391125,16.3475Q92.2121125,15.49225,91.6538125,14.5855Q91.0956125,13.67875,90.6706125,12.78975L91.7790125,12.35175ZM87.1828125,18.44375L88.4463125,18.44375Q88.3050125,19.755000000000003,88.0211125,20.996000000000002Q87.7373125,22.2367,87.1435125,23.3418Q86.5498125,24.4467,85.5043125,25.3353Q84.4588125,26.2237,82.7910125,26.824Q82.7216125,26.67,82.5956125,26.481Q82.4695125,26.2922,82.3230125,26.1115Q82.1765125,25.9307,82.0413125,25.8078Q83.6086125,25.2895,84.5738125,24.503Q85.5390125,23.7165,86.0651125,22.739Q86.5911125,21.761200000000002,86.8273125,20.6682Q87.0638125,19.575,87.1828125,18.44375ZM97.9773125,14.51325L112.0668125,14.51325L112.0668125,15.6735L97.9773125,15.6735L97.9773125,14.51325ZM105.1591125,16.44625L106.3691125,16.44625L106.3691125,26.7892L105.1591125,26.7892L105.1591125,16.44625ZM100.5603125,18.5982L110.5103125,18.5982L110.5103125,19.746000000000002L101.7543125,19.746000000000002L101.7543125,25.2865L100.5603125,25.2865L100.5603125,18.5982ZM109.9805125,18.5982L111.1871125,18.5982L111.1871125,23.7773Q111.1871125,24.252499999999998,111.0536125,24.523Q110.9203125,24.7935,110.5388125,24.9422Q110.1731125,25.075,109.5138125,25.1065Q108.8548125,25.138,107.8275125,25.1283Q107.7928125,24.8825,107.6743125,24.5802Q107.5560125,24.278,107.4200125,24.041Q107.9326125,24.057000000000002,108.3906125,24.060299999999998Q108.8486125,24.063200000000002,109.1773125,24.058500000000002Q109.5061125,24.0535,109.6313125,24.0535Q109.8366125,24.0437,109.9085125,23.983Q109.9805125,23.922,109.9805125,23.758499999999998L109.9805125,18.5982ZM103.3926125,12.04525L104.6276125,12.3355Q104.0550125,14.19525,103.1786125,16.01025Q102.3021125,17.82525,101.0755125,19.3975Q99.8493125,20.9697,98.2163125,22.1175Q98.1406125,21.9695,98.0111125,21.784Q97.8815125,21.5982,97.7506125,21.4077Q97.6198125,21.217,97.4996125,21.0977Q98.6355125,20.329,99.5688125,19.297Q100.5023125,18.265,101.2340125,17.0655Q101.9661125,15.86575,102.5058125,14.58925Q103.0458125,13.312750000000001,103.3926125,12.04525Z" fill="#4B5563" fill-opacity="1" style="mix-blend-mode:passthrough"/></g></g></svg>