<svg xmlns="http://www.w3.org/2000/svg" xmlns:xlink="http://www.w3.org/1999/xlink" fill="none" version="1.1" width="132.015625" height="40" viewBox="0 0 132.015625 40"><defs><clipPath id="master_svg0_16_07861"><rect x="24" y="12" width="12" height="16" rx="0"/></clipPath></defs><g><rect x="0" y="0" width="132.015625" height="40" rx="4" fill="#1677FF" fill-opacity="1" style="mix-blend-mode:passthrough"/><g clip-path="url(#master_svg0_16_07861)"><g transform="matrix(1,0,0,-1,0,54.70367431640625)"><g><path d="M26.28125,41.141237158203126Q25.53125,41.578737158203126,24.78125,41.172437158203124Q24.03125,40.734937158203124,24,39.859937158203124L24,28.859937158203124Q24.03125,27.984939158203126,24.78125,27.547439158203126Q25.53125,27.141189158203126,26.28125,27.578689158203126L35.2812,33.078687158203124Q35.9688,33.516187158203124,36,34.359937158203124Q35.9688,35.172437158203124,35.2812,35.641187158203124L26.28125,41.141237158203126Z" fill="#FFFFFF" fill-opacity="1" style="mix-blend-mode:passthrough"/></g></g></g><g><rect x="44" y="8" width="64.015625" height="24" rx="0" fill="#000000" fill-opacity="0" style="mix-blend-mode:passthrough"/><g><path d="M45.4393125,12.60375L58.6918125,12.60375L58.6918125,13.751249999999999L45.4393125,13.751249999999999L45.4393125,12.60375ZM44.8458125,18.3185L59.1983125,18.3185L59.1983125,19.4688L44.8458125,19.4688L44.8458125,18.3185ZM54.3853125,13.20325L55.6233125,13.20325L55.6233125,26.292L54.3853125,26.292L54.3853125,13.20325ZM48.6913125,13.19975L49.9103125,13.19975L49.9103125,17.631Q49.9103125,18.7927,49.7823125,19.973Q49.6543125,21.153,49.2463125,22.2815Q48.8383125,23.41,48.019062500000004,24.4412Q47.2000625,25.4725,45.8240625,26.3365Q45.7235625,26.1912,45.5583125,26.0292Q45.3930625,25.8673,45.2135625,25.7065Q45.0343125,25.5457,44.8765625,25.4513Q46.1705625,24.6532,46.9345625,23.7245Q47.6985625,22.7957,48.0780625,21.7852Q48.4575625,20.7745,48.5743125,19.7175Q48.6913125,18.6602,48.6913125,17.62475L48.6913125,13.19975ZM68.1418125,24.4985L73.9041125,24.4985L73.9041125,25.574L68.1418125,25.574L68.1418125,24.4985ZM67.40531250000001,19.7695L74.4831125,19.7695L74.4831125,26.2405L73.3388125,26.2405L73.3388125,20.855L68.5058125,20.855L68.5058125,26.2795L67.40531250000001,26.2795L67.40531250000001,19.7695ZM71.8551125,14.344999999999999L72.8033125,13.8855Q73.3536125,14.57975,73.88001249999999,15.383Q74.4068125,16.186,74.8391125,16.9715Q75.2716125,17.75675,75.5151125,18.3737L74.4813125,18.909Q74.2601125,18.2822,73.8371125,17.4845Q73.4140125,16.686500000000002,72.8986125,15.863Q72.3831125,15.03925,71.8551125,14.344999999999999ZM66.8738125,18.4827Q66.84881250000001,18.3562,66.7793125,18.145Q66.7098125,17.933500000000002,66.6260125,17.70475Q66.5425125,17.475749999999998,66.4731125,17.3245Q66.7025125,17.27375,66.95411250000001,17.0015Q67.2056125,16.729,67.4971125,16.2935Q67.6606125,16.082,67.9591125,15.6015Q68.2578125,15.121,68.6286125,14.467749999999999Q68.9996125,13.814499999999999,69.37231249999999,13.060500000000001Q69.7451125,12.30625,70.0470125,11.541L71.2886125,11.9015Q70.78461250000001,12.993,70.1948125,14.05875Q69.6053125,15.124500000000001,68.98531249999999,16.07825Q68.3653125,17.032,67.7433125,17.8035L67.7433125,17.832Q67.7433125,17.832,67.61201249999999,17.8935Q67.4808125,17.955,67.3086125,18.055999999999997Q67.1363125,18.157,67.00501249999999,18.269199999999998Q66.8738125,18.3813,66.8738125,18.4827ZM66.8738125,18.4827L66.84881250000001,17.5175L67.5838125,17.094L74.3703125,16.662Q74.41131250000001,16.9175,74.4821125,17.2215Q74.5528125,17.5255,74.6160125,17.718Q72.65911249999999,17.874499999999998,71.3380125,17.975Q70.0173125,18.075200000000002,69.1951125,18.1488Q68.3730125,18.222,67.9208125,18.2745Q67.4688125,18.326999999999998,67.2440125,18.3795Q67.0195125,18.432000000000002,66.8738125,18.4827ZM61.0523125,20.3328Q61.3118125,19.5203,61.5828125,18.451Q61.853812500000004,17.38175,62.0996125,16.200499999999998Q62.3453125,15.01925,62.5411125,13.83975Q62.7370125,12.66025,62.8498125,11.62725L63.9780125,11.69675Q63.8466125,12.780249999999999,63.6253125,13.98975Q63.4040125,15.199,63.150512500000005,16.415Q62.8973125,17.631,62.6200125,18.7267Q62.3428125,19.8223,62.0771125,20.688200000000002L61.0523125,20.3328ZM60.692012500000004,14.840250000000001L65.4403125,14.840250000000001L65.4403125,15.963000000000001L60.692012500000004,15.963000000000001L60.692012500000004,14.840250000000001ZM65.1235125,14.840250000000001L65.3318125,14.840250000000001L65.53031250000001,14.808250000000001L66.2241125,14.91925Q66.0276125,18.026,65.4273125,20.2342Q64.8271125,22.442500000000003,63.8151125,23.9045Q62.803312500000004,25.3665,61.3783125,26.2502Q61.261512499999995,26.0392,61.0500125,25.7507Q60.8388125,25.4622,60.6491125,25.2985Q61.9388125,24.5945,62.873512500000004,23.2367Q63.808612499999995,21.878700000000002,64.3838125,19.8455Q64.9591125,17.81225,65.1235125,15.084L65.1235125,14.840250000000001ZM61.0523125,20.3328L61.7086125,19.4815Q62.384812499999995,19.9252,63.089012499999995,20.457Q63.7935125,20.988500000000002,64.4543125,21.554000000000002Q65.1153125,22.119500000000002,65.66731250000001,22.666Q66.2193125,23.2122,66.5651125,23.694699999999997L65.8333125,24.6717Q65.4778125,24.1828,64.9430125,23.619Q64.4085125,23.055300000000003,63.756812499999995,22.4695Q63.1053125,21.883499999999998,62.4121125,21.3363Q61.7188125,20.789,61.0523125,20.3328ZM79.7833125,14.10175L83.2845125,14.10175L83.2845125,15.21475L79.7833125,15.21475L79.7833125,14.10175ZM82.9186125,14.10175L83.1518125,14.10175L83.3823125,14.05725L84.1758125,14.27525Q83.8001125,17.553,82.89931250000001,19.9097Q81.9985125,22.266199999999998,80.6431125,23.8335Q79.2876125,25.4007,77.54231250000001,26.3003Q77.4383125,26.1647,77.2651125,25.9805Q77.0918125,25.7962,76.8981125,25.6243Q76.7046125,25.4525,76.5530125,25.3643Q78.28581249999999,24.528,79.5941125,23.1087Q80.9023125,21.6892,81.7526125,19.5387Q82.6030125,17.38825,82.9186125,14.38575L82.9186125,14.10175ZM79.5125125,16.113Q79.96301249999999,18.3027,80.6631125,19.8092Q81.3631125,21.3155,82.2588125,22.247999999999998Q83.15481249999999,23.180300000000003,84.19301250000001,23.6847Q85.2316125,24.189,86.3643125,24.3682Q87.4971125,24.5473,88.6658125,24.5473Q88.8501125,24.5473,89.2133125,24.5473Q89.5765125,24.5473,90.0068125,24.5473Q90.43731249999999,24.5473,90.8245125,24.5443Q91.2121125,24.541,91.4440125,24.5347Q91.34631250000001,24.686,91.2451125,24.9145Q91.1440125,25.143,91.0716125,25.3757Q90.99901249999999,25.6087,90.9580125,25.7885L90.4948125,25.7885L88.6063125,25.7885Q87.2763125,25.7885,86.01581250000001,25.5777Q84.7553125,25.367,83.62231249999999,24.803Q82.48961249999999,24.239,81.5228125,23.198Q80.55631249999999,22.157,79.80431250000001,20.5028Q79.0523125,18.8485,78.5633125,16.441499999999998L79.5125125,16.113ZM79.5345125,11.6225L80.79831250000001,11.92325Q80.5138125,13.544,80.0773125,15.084Q79.64081250000001,16.62375,79.0728125,17.917749999999998Q78.5048125,19.2118,77.8195125,20.1237Q77.65561249999999,19.9757,77.36881249999999,19.7743Q77.0823125,19.572499999999998,76.8426125,19.4557Q77.4808125,18.6132,78.0045125,17.38025Q78.52861250000001,16.14725,78.92251250000001,14.6685Q79.3168125,13.18975,79.5345125,11.6225ZM86.5781125,16.054000000000002L87.5416125,15.502749999999999Q88.1538125,16.165,88.8156125,16.9375Q89.4773125,17.71,90.05861250000001,18.453699999999998Q90.6398125,19.1973,90.9988125,19.7822L89.9471125,20.4375Q89.6165125,19.8527,89.0558125,19.0917Q88.4951125,18.3307,87.8426125,17.533Q87.1903125,16.735,86.5781125,16.054000000000002ZM85.8520125,11.5905L87.1281125,11.5905L87.1281125,23.3645L85.8520125,23.3645L85.8520125,11.5905ZM99.62111250000001,16.36775L99.62111250000001,18.427L105.5628125,18.427L105.5628125,16.36775L99.62111250000001,16.36775ZM99.62111250000001,13.346L99.62111250000001,15.3795L105.5628125,15.3795L105.5628125,13.346L99.62111250000001,13.346ZM98.5205125,12.3015L106.7168125,12.3015L106.7168125,19.4712L98.5205125,19.4712L98.5205125,12.3015ZM98.3263125,21.35L106.9388125,21.35L106.9388125,22.4443L98.3263125,22.4443L98.3263125,21.35ZM97.0946125,24.6502L107.4766125,24.6502L107.4766125,25.7507L97.0946125,25.7507L97.0946125,24.6502ZM92.7415125,12.64L97.73181249999999,12.64L97.73181249999999,13.769L92.7415125,13.769L92.7415125,12.64ZM92.9051125,17.271L97.5023125,17.271L97.5023125,18.393700000000003L92.9051125,18.393700000000003L92.9051125,17.271ZM92.5690125,23.397Q93.2208125,23.2113,94.0465125,22.9602Q94.8725125,22.709,95.7946125,22.402Q96.7166125,22.0947,97.6435125,21.7907L97.8486125,22.944699999999997Q96.5470125,23.3795,95.2383125,23.823999999999998Q93.9298125,24.2685,92.86631249999999,24.6232L92.5690125,23.397ZM94.7311125,13.08775L95.88511249999999,13.08775L95.88511249999999,23.000500000000002L94.7311125,23.229L94.7311125,13.08775ZM102.0703125,12.799L103.1183125,12.799L103.1183125,18.956L103.2056125,18.956L103.2056125,25.1445L101.9831125,25.1445L101.9831125,18.956L102.0703125,18.956L102.0703125,12.799Z" fill="#FFFFFF" fill-opacity="1" style="mix-blend-mode:passthrough"/></g></g></g></svg>