<svg xmlns="http://www.w3.org/2000/svg" xmlns:xlink="http://www.w3.org/1999/xlink" fill="none" version="1.1" width="122.015625" height="42" viewBox="0 0 122.015625 42"><defs><clipPath id="master_svg0_16_07826"><rect x="17" y="13" width="16" height="16" rx="0"/></clipPath></defs><g><rect x="0" y="0" width="122.015625" height="42" rx="4" fill="#000000" fill-opacity="0" style="mix-blend-mode:passthrough"/><rect x="0.5" y="0.5" width="121.015625" height="41" rx="3.5" fill-opacity="0" stroke-opacity="1" stroke="#D1D5DB" fill="none" stroke-width="1" style="mix-blend-mode:passthrough"/><g clip-path="url(#master_svg0_16_07826)"><g transform="matrix(1,0,0,-1,0,58.6875)"><g><path d="M26,44.34375Q26,44.78125,25.71875,45.06255Q25.4375,45.34375,25,45.34375Q24.5625,45.34375,24.28125,45.06255Q24,44.78125,24,44.34375L24,36.75L21.71875,39.0625Q21.40625,39.34375,21,39.34375Q20.59375,39.34375,20.28125,39.0625Q20,38.75,20,38.34375Q20,37.9375,20.28125,37.625L24.28125,33.625Q24.59375,33.34375,25,33.34375Q25.40625,33.34375,25.71875,33.625L29.7188,37.625Q30,37.9375,30,38.34375Q30,38.75,29.7188,39.0625Q29.4062,39.34375,29,39.34375Q28.5938,39.34375,28.2812,39.0625L26,36.75L26,44.34375ZM19,34.34375Q18.15625,34.3125,17.59375,33.75Q17.03125,33.1875,17,32.34375L17,31.34375Q17.03125,30.5,17.59375,29.9375Q18.15625,29.375,19,29.34375L31,29.34375Q31.8438,29.375,32.4062,29.9375Q32.9688,30.5,33,31.34375L33,32.34375Q32.9688,33.1875,32.4062,33.75Q31.8438,34.3125,31,34.34375L27.8438,34.34375L26.40625,32.9375Q25.78125,32.34375,25,32.34375Q24.1875,32.34375,23.59375,32.9375L22.1875,34.34375L19,34.34375ZM30.5,32.59375Q31.1875,32.53125,31.25,31.84375Q31.1875,31.15625,30.5,31.09375Q29.8125,31.15625,29.75,31.84375Q29.8125,32.53125,30.5,32.59375Z" fill="#4B5563" fill-opacity="1" style="mix-blend-mode:passthrough"/></g></g></g><g><rect x="41" y="9" width="64.015625" height="24" rx="0" fill="#000000" fill-opacity="0" style="mix-blend-mode:passthrough"/><g><path d="M41.9925625,21.3422L56.1138125,21.3422L56.1138125,22.4712L41.9925625,22.4712L41.9925625,21.3422ZM51.3691125,20.0987L52.6041125,20.0987L52.6041125,25.8495Q52.6041125,26.3755,52.4391125,26.6478Q52.2741125,26.9202,51.8328125,27.0465Q51.4076125,27.1667,50.6575625,27.1952Q49.9075625,27.2238,48.7510625,27.2238Q48.7103125,26.9842,48.5805625,26.68Q48.4510625,26.376,48.3248125,26.1392Q48.9190625,26.1553,49.4615625,26.1615Q50.0043125,26.1677,50.4100625,26.1628Q50.8160625,26.158,50.9600625,26.158Q51.1966125,26.1483,51.2828125,26.0763Q51.3691125,26.0042,51.3691125,25.8283L51.3691125,20.0987ZM44.3863125,23.083L45.2160625,22.3687Q45.7245625,22.7705,46.2438125,23.276Q46.763062500000004,23.7815,47.2003125,24.2758Q47.6378125,24.7697,47.8930625,25.183L46.9938125,25.9792Q46.7670625,25.5562,46.3390625,25.0448Q45.9110625,24.5332,45.402812499999996,24.0153Q44.8948125,23.4972,44.3863125,23.083ZM43.1733125,13.680250000000001L44.4210625,13.680250000000001L44.4210625,17.86375Q44.4210625,18.19975,44.5778125,18.37925Q44.7348125,18.55875,45.1813125,18.6295Q45.6280625,18.7,46.5150625,18.7Q46.7265625,18.7,47.2000625,18.7Q47.6738125,18.7,48.2970625,18.7Q48.9203125,18.7,49.6078125,18.7Q50.2955625,18.7,50.9478125,18.7Q51.6001125,18.7,52.1153125,18.7Q52.6306125,18.7,52.9098125,18.7Q53.5666125,18.7,53.8993125,18.59825Q54.2323125,18.496499999999997,54.3746125,18.186999999999998Q54.5168125,17.877499999999998,54.5773125,17.294Q54.817612499999996,17.4205,55.1471125,17.52025Q55.4766125,17.61975,55.7383125,17.6705Q55.6431125,18.480249999999998,55.3811125,18.92375Q55.1191125,19.3672,54.5618125,19.534Q54.0046125,19.7008,52.9936125,19.7008Q52.834312499999996,19.7008,52.343312499999996,19.7008Q51.8526125,19.7008,51.184312500000004,19.7008Q50.516062500000004,19.7008,49.7803125,19.7008Q49.0448125,19.7008,48.3765625,19.7008Q47.7085625,19.7008,47.2303125,19.7008Q46.7523125,19.7008,46.6028125,19.7008Q45.2875625,19.7008,44.5360625,19.553Q43.7845625,19.4052,43.478812500000004,19.014200000000002Q43.1733125,18.62325,43.1733125,17.872500000000002L43.1733125,13.680250000000001ZM43.5970625,15.934000000000001L53.041312500000004,15.934000000000001L53.041312500000004,14.250499999999999L43.1733125,14.250499999999999L43.1733125,13.19975L54.2168125,13.19975L54.2168125,17.000500000000002L43.5970625,17.000500000000002L43.5970625,15.934000000000001ZM64.32481250000001,12.57025L65.6348125,12.57025L65.6348125,25.701L64.32481250000001,25.701L64.32481250000001,12.57025ZM70.0283125,20.55L71.3348125,20.55L71.3348125,27.2467L70.0283125,27.2467L70.0283125,20.55ZM59.4001125,14.01275L60.6503125,14.01275L60.6503125,18.368000000000002L69.3945125,18.368000000000002L69.3945125,14.006499999999999L70.6948125,14.006499999999999L70.6948125,19.531L59.4001125,19.531L59.4001125,14.01275ZM58.6798125,20.5465L59.996112499999995,20.5465L59.996112499999995,25.1425L70.6561125,25.1425L70.6561125,26.3403L58.6798125,26.3403L58.6798125,20.5465ZM75.2023125,13.60775L75.9813125,12.83575Q76.42931250000001,13.19125,76.9213125,13.622Q77.4136125,14.0525,77.8478125,14.4735Q78.2823125,14.89425,78.5410125,15.2365L77.7343125,16.126Q77.4720125,15.783750000000001,77.0501125,15.34075Q76.62831249999999,14.8975,76.1423125,14.43675Q75.6566125,13.97575,75.2023125,13.60775ZM76.13731250000001,26.9692L75.9090125,25.7868L76.26231250000001,25.2745L79.4668125,23.0833Q79.5111125,23.2437,79.5806125,23.4467Q79.6501125,23.6497,79.7306125,23.8385Q79.8110125,24.0273,79.86461249999999,24.150199999999998Q78.7275125,24.9513,78.0381125,25.4508Q77.3486125,25.95,76.9705125,26.2367Q76.5926125,26.5235,76.4143125,26.6857Q76.2360125,26.8482,76.13731250000001,26.9692ZM73.7471125,17.580750000000002L77.02601250000001,17.580750000000002L77.02601250000001,18.772L73.7471125,18.772L73.7471125,17.580750000000002ZM78.9588125,17.869999999999997L88.35481250000001,17.869999999999997L88.35481250000001,19.1015L78.9588125,19.1015L78.9588125,17.869999999999997ZM83.0185125,12.605L84.2813125,12.605L84.2813125,27.276L83.0185125,27.276L83.0185125,12.605ZM76.13731250000001,26.9692Q76.0866125,26.8115,75.9743125,26.6005Q75.8623125,26.3895,75.73581250000001,26.1895Q75.6093125,25.9895,75.4956125,25.8668Q75.7275125,25.7173,76.0070125,25.3745Q76.2868125,25.0317,76.2868125,24.517L76.2868125,17.580750000000002L77.49951250000001,17.580750000000002L77.49951250000001,25.599Q77.49951250000001,25.599,77.3585125,25.696Q77.2176125,25.7927,77.01951249999999,25.9468Q76.8216125,26.1007,76.6203125,26.288Q76.41931249999999,26.4753,76.2783125,26.6478Q76.13731250000001,26.8205,76.13731250000001,26.9692ZM99.3516125,14.312249999999999L100.51151250000001,14.312249999999999L100.51151250000001,23.108L99.3516125,23.108L99.3516125,14.312249999999999ZM102.4403125,12.724L103.6191125,12.724L103.6191125,25.7122Q103.6191125,26.296,103.46131249999999,26.59Q103.3035125,26.8843,102.9378125,27.0392Q102.57231250000001,27.1842,101.92931250000001,27.2235Q101.28661249999999,27.2628,100.2431125,27.2628Q100.2083125,27.0268,100.08511250000001,26.6815Q99.96181250000001,26.3365,99.8353125,26.081Q100.5996125,26.097,101.22381250000001,26.1Q101.84831249999999,26.1033,102.0465125,26.0935Q102.2705125,26.0837,102.3553125,26.0068Q102.4403125,25.93,102.4403125,25.722L102.4403125,12.724ZM89.5815125,17.30725L98.41081249999999,16.3045L98.5311125,17.43275L89.7018125,18.441499999999998L89.5815125,17.30725ZM91.87831249999999,12.58L93.1011125,12.58Q93.1018125,14.758,93.3143125,16.756Q93.5270125,18.753999999999998,93.9018125,20.441499999999998Q94.2768125,22.128700000000002,94.7475125,23.3818Q95.2186125,24.6345,95.7388125,25.3302Q96.2591125,26.0257,96.7596125,26.0257Q97.0545125,26.0257,97.21301249999999,25.4293Q97.3718125,24.8328,97.4358125,23.4247Q97.6281125,23.619799999999998,97.9183125,23.7962Q98.2086125,23.9725,98.4418125,24.0608Q98.33431250000001,25.2815,98.1363125,25.9662Q97.9383125,26.651,97.5908125,26.9323Q97.2433125,27.2135,96.68101250000001,27.2135Q95.97411249999999,27.2135,95.3498125,26.6593Q94.7258125,26.105,94.2026125,25.0933Q93.6795125,24.0815,93.2596125,22.7148Q92.8395125,21.348,92.5393125,19.712Q92.2391125,18.07575,92.0763125,16.26775Q91.9138125,14.45975,91.87831249999999,12.58ZM96.4063125,18.371499999999997L97.54431249999999,18.711750000000002Q96.79231250000001,20.5212,95.71531250000001,22.055999999999997Q94.63851249999999,23.5905,93.31461250000001,24.816000000000003Q91.9908125,26.0413,90.4655125,26.947Q90.3836125,26.8145,90.22901250000001,26.6362Q90.07481250000001,26.4583,89.9090125,26.28Q89.74351250000001,26.102,89.61081250000001,25.9918Q91.1235125,25.1873,92.4131125,24.0533Q93.7026125,22.9192,94.71811249999999,21.482300000000002Q95.7335125,20.045,96.4063125,18.371499999999997ZM93.94761249999999,13.558250000000001L94.7516125,12.9055Q95.18101250000001,13.219249999999999,95.6276125,13.61Q96.07431249999999,14.000499999999999,96.46811249999999,14.3895Q96.8618125,14.778500000000001,97.0955125,15.0985L96.24781250000001,15.836500000000001Q96.0168125,15.5165,95.63731250000001,15.1135Q95.2578125,14.71025,94.8141125,14.30225Q94.3706125,13.89425,93.94761249999999,13.558250000000001Z" fill="#000000" fill-opacity="1" style="mix-blend-mode:passthrough"/></g></g></g></svg>