<svg xmlns="http://www.w3.org/2000/svg" xmlns:xlink="http://www.w3.org/1999/xlink" fill="none" version="1.1" width="194" height="276" viewBox="0 0 194 276"><defs><filter id="master_svg0_19_4921" filterUnits="objectBoundingBox" color-interpolation-filters="sRGB" x="-0.09411764705882353" y="-0.05555555555555555" width="1.188235294117647" height="1.126984126984127"><feFlood flood-opacity="0" result="BackgroundImageFix"/><feColorMatrix in="SourceAlpha" type="matrix" values="0 0 0 0 0 0 0 0 0 0 0 0 0 0 0 0 0 0 127 0"/><feOffset dy="2" dx="0"/><feGaussianBlur stdDeviation="4"/><feColorMatrix type="matrix" values="0 0 0 0 0 0 0 0 0 0 0 0 0 0 0 0 0 0 0.10000000149011612 0"/><feBlend mode="normal" in2="BackgroundImageFix" result="effect1_dropShadow"/><feBlend mode="normal" in="SourceGraphic" in2="effect1_dropShadow" result="shape"/></filter><linearGradient x1="0.5" y1="1" x2="0.5" y2="0" id="master_svg1_19_5145"><stop offset="0%" stop-color="#3B82F6" stop-opacity="1"/><stop offset="50%" stop-color="#FACC15" stop-opacity="1"/><stop offset="100%" stop-color="#EF4444" stop-opacity="1"/></linearGradient></defs><g filter="url(#master_svg0_19_4921)"><rect x="12" y="10" width="170" height="252" rx="12" fill="#FFFFFF" fill-opacity="0.949999988079071" style="mix-blend-mode:passthrough"/><rect x="12" y="10" width="170" height="252" rx="12" fill="#000000" fill-opacity="0.0010000000474974513" style="mix-blend-mode:passthrough"/><g><rect x="28" y="26" width="128" height="20" rx="0" fill="#000000" fill-opacity="0" style="mix-blend-mode:passthrough"/><g><path d="M30.45066,33.21316L31.52975,33.69484Q31.19528,34.35437,30.73744,35.06662Q30.27981,35.77866,29.68438,36.287L28.613156,35.63975Q29.20684,35.18891,29.68634,34.51144Q30.16606,33.83375,30.45066,33.21316ZM32.15122,33.03575L33.34122,33.03575L33.34122,35.58309Q33.34122,35.88037,33.51753,35.96766Q33.69406,36.0547,34.28928,36.0547Q34.42775,36.0547,34.78081,36.0547Q35.13388,36.0547,35.55738,36.0547Q35.98109,36.0547,36.36128,36.0547Q36.74169,36.0547,36.92019,36.0547Q37.25116,36.0547,37.413470000000004,35.95541Q37.576,35.85588,37.64906,35.54547Q37.72213,35.23484,37.744,34.60769Q37.94394,34.742000000000004,38.2635,34.86166Q38.5833,34.98109,38.8303,35.03272Q38.757,35.86025,38.5774,36.3131Q38.3981,36.7659,38.0341,36.937799999999996Q37.67006,37.109700000000004,37.01272,37.109700000000004Q36.90509,37.109700000000004,36.62006,37.109700000000004Q36.33503,37.109700000000004,35.96709,37.109700000000004Q35.59916,37.109700000000004,35.23034,37.109700000000004Q34.86175,37.109700000000004,34.58044,37.109700000000004Q34.29934,37.109700000000004,34.19806,37.109700000000004Q33.38278,37.109700000000004,32.93916,36.980000000000004Q32.49575,36.850300000000004,32.32338,36.5202Q32.15122,36.1901,32.15122,35.598839999999996L32.15122,33.03575ZM32.817750000000004,32.31322L33.46,31.53775Q33.89225,31.70684,34.35513,31.945059999999998Q34.818,32.183279999999996,35.23253,32.43331Q35.64728,32.68334,35.91503,32.91806L35.23516,33.76878Q34.98316,33.53406,34.57628,33.26609Q34.16963,32.99813,33.71069,32.74416Q33.25175,32.49019,32.817750000000004,32.31322ZM38.1483,33.93394L39.0976,33.29431Q39.5327,33.66291,39.9873,34.11244Q40.442099999999996,34.56175,40.8363,35.00734Q41.2307,35.45272,41.4547,35.82284L40.4443,36.5436Q40.2299,36.181200000000004,39.8543,35.72091Q39.478899999999996,35.26066,39.0311,34.78947Q38.5833,34.31806,38.1483,33.93394ZM37.52328,32.01528L38.6383,32.572Q37.55697,33.87728,36.045410000000004,34.90431Q34.53406,35.93134,32.78625,36.6939Q31.03866,37.4563,29.23878,37.9821Q29.16375,37.8321,29.02528,37.6288Q28.887031,37.4256,28.737844,37.219300000000004Q28.588656,37.0128,28.469875,36.8847Q30.28813,36.4461,32.0005,35.75569Q33.71309,35.06509,35.14088,34.12666Q36.56866,33.188,37.52328,32.01528ZM34.29934,37.5079L35.64466,37.5079L35.64466,40.9899L34.29934,40.9899L34.29934,37.5079ZM38.5862,38.061099999999996L39.9096,38.061099999999996L39.9096,42.125699999999995L38.5862,42.125699999999995L38.5862,38.061099999999996ZM29.03316,30.31472L40.9931,30.31472L40.9931,33.14666L39.6463,33.14666L39.6463,31.49684L30.331220000000002,31.49684L30.331220000000002,33.14666L29.03316,33.14666L29.03316,30.31472ZM34.04581,29.22819L35.30975,29.015340000000002Q35.48563,29.41522,35.63416,29.88597Q35.78291,30.35672,35.83278,30.69425L34.493809999999996,30.949089999999998Q34.45334,30.61134,34.32647,30.12375Q34.19981,29.63594,34.04581,29.22819ZM30.18684,38.2258L31.48666,38.2258L31.48666,40.3381L39.309799999999996,40.3381L39.309799999999996,41.583L30.18684,41.583L30.18684,38.2258ZM45.3097,33.16831L55.1644,33.16831L55.1644,34.23297L45.3097,34.23297L45.3097,33.16831ZM45.4641,37.2487L53.3378,37.2487L53.3378,38.3113L45.4641,38.3113L45.4641,37.2487ZM47.403999999999996,32.07981L48.6629,32.07981L48.6629,35.47722L51.7038,35.47722L51.7038,32.07981L53.003299999999996,32.07981L53.003299999999996,36.502700000000004L47.403999999999996,36.502700000000004L47.403999999999996,32.07981ZM52.9922,37.2487L53.2549,37.2487L53.487899999999996,37.197L54.3183,37.6299Q53.7381,38.7191,52.8052,39.4908Q51.8722,40.2624,50.687200000000004,40.7812Q49.502300000000005,41.3001,48.1451,41.6112Q46.788,41.922200000000004,45.3313,42.0903Q45.262699999999995,41.8558,45.1047,41.524100000000004Q44.946799999999996,41.1927,44.788799999999995,40.975300000000004Q46.1267,40.8668,47.400099999999995,40.615899999999996Q48.6736,40.365,49.7678,39.940799999999996Q50.861999999999995,39.5167,51.6933,38.8958Q52.524699999999996,38.275,52.9922,37.425L52.9922,37.2487ZM47.7663,38.0747Q48.4568,38.933,49.6143,39.5407Q50.7719,40.1482,52.2823,40.5168Q53.793,40.8852,55.524,41.0262Q55.3879,41.1623,55.240899999999996,41.3695Q55.093900000000005,41.5768,54.9655,41.7888Q54.8373,42.0008,54.7547,42.1742Q52.967,41.9756,51.4266,41.5232Q49.886399999999995,41.0711,48.6703,40.3258Q47.4543,39.5803,46.6261,38.516999999999996L47.7663,38.0747ZM44.2953,30.49322L55.3151,30.49322L55.3151,31.72872L44.2953,31.72872L44.2953,30.49322ZM43.6761,30.49322L44.9899,30.49322L44.9899,34.26928Q44.9899,35.12394,44.9409,36.1429Q44.8919,37.1618,44.7519,38.2306Q44.6119,39.2992,44.3459,40.3096Q44.079899999999995,41.3198,43.6397,42.1648Q43.5098,42.0601,43.2869,41.9474Q43.064,41.835,42.8363,41.730199999999996Q42.6088,41.6256,42.4351,41.5801Q42.8673,40.7804,43.1154,39.841300000000004Q43.3637,38.9022,43.484899999999996,37.9196Q43.6061,36.9367,43.6411,36.0037Q43.6761,35.07078,43.6761,34.27716L43.6761,30.49322ZM48.5643,29.40122L49.897099999999995,29.09497Q50.1318,29.534,50.349900000000005,30.05309Q50.568,30.57219,50.6548,30.94122L49.2513,31.29734Q49.174099999999996,30.92219,48.9816,30.38122Q48.7893,29.84025,48.5643,29.40122ZM57.101,29.76019L68.9148,29.76019L68.9148,42.1839L67.5852,42.1839L67.5852,30.95806L58.3756,30.95806L58.3756,42.1839L57.101,42.1839L57.101,29.76019ZM57.8692,40.4551L68.3244,40.4551L68.3244,41.6293L57.8692,41.6293L57.8692,40.4551ZM61.143,37.1673L61.6901,36.3923Q62.2613,36.5042,62.8954,36.6792Q63.5298,36.8542,64.108,37.0533Q64.68610000000001,37.2524,65.09100000000001,37.4422L64.54220000000001,38.2923Q64.1469,38.0948,63.5648,37.8808Q62.9827,37.6669,62.3514,37.477000000000004Q61.7203,37.2872,61.143,37.1673ZM61.7512,31.095869999999998L62.841,31.47278Q62.4411,32.09928,61.9003,32.70062Q61.3598,33.30175,60.7639,33.81975Q60.1681,34.33775,59.5818,34.728Q59.491,34.61534,59.327,34.46834Q59.1629,34.32134,58.991,34.17434Q58.819,34.02734,58.6847,33.93678Q59.5693,33.42534,60.3991,32.67087Q61.2288,31.91619,61.7512,31.095869999999998ZM65.4762,32.20975L65.69980000000001,32.20975L65.89359999999999,32.15812L66.63929999999999,32.60066Q66.09790000000001,33.46691,65.2509,34.18484Q64.4039,34.90278,63.3789,35.46759Q62.3538,36.0322,61.2491,36.4439Q60.1447,36.8553,59.0599,37.117000000000004Q59.0004,36.959,58.898700000000005,36.7519Q58.797200000000004,36.5447,58.6766,36.3524Q58.5563,36.1599,58.4439,36.0379Q59.4832,35.835750000000004,60.5432,35.49231Q61.6033,35.14866,62.5651,34.67856Q63.527,34.20825,64.2841,33.62966Q65.0412,33.05084,65.4762,32.38606L65.4762,32.20975ZM61.287,33.06769Q61.9012,33.75697,62.8893,34.32681Q63.8776,34.89666,65.077,35.31447Q66.2767,35.732060000000004,67.5202,35.952780000000004Q67.3389,36.1262,67.1208,36.4202Q66.90270000000001,36.7143,66.7822,36.9457Q65.52109999999999,36.6733,64.3035,36.1807Q63.0862,35.687870000000004,62.0535,35.00778Q61.021,34.327690000000004,60.3159,33.51L61.287,33.06769ZM61.5921,32.20975L65.8577,32.20975L65.8577,33.211619999999996L60.9011,33.211619999999996L61.5921,32.20975ZM59.7957,38.9549L60.4039,38.071799999999996Q61.1118,38.1479,61.8918,38.2801Q62.6719,38.4122,63.4379,38.5763Q64.20400000000001,38.7403,64.8878,38.9193Q65.57159999999999,39.0982,66.0947,39.274100000000004L65.5082,40.2322Q64.8329,39.9848,63.8652,39.735Q62.8976,39.4852,61.8336,39.275999999999996Q60.7696,39.066900000000004,59.7957,38.9549ZM74.15469999999999,29.89975L78.98689999999999,29.89975L78.98689999999999,31.14291L74.15469999999999,31.14291L74.15469999999999,29.89975ZM75.5573,30.42278L76.799,30.61812Q76.5643,31.95775,76.2167,33.21797Q75.86930000000001,34.47819,75.4103,35.56275Q74.9516,36.6471,74.3698,37.467Q74.27279999999999,37.3607,74.093,37.201Q73.9132,37.0413,73.7216,36.8857Q73.53020000000001,36.730000000000004,73.388,36.631299999999996Q73.9447,35.896119999999996,74.3603,34.91197Q74.7762,33.92781,75.0752,32.77784Q75.3742,31.62787,75.5573,30.42278ZM75.6919,33.00775L78.0008,33.00775L78.0008,34.22116L75.315,34.22116L75.6919,33.00775ZM77.5941,33.00775L77.8113,33.00775L78.02879999999999,32.97188L78.7964,33.15781Q78.46889999999999,36.5082,77.4559,38.7429Q76.4428,40.9777,74.79480000000001,42.177099999999996Q74.66640000000001,41.9362,74.4264,41.6344Q74.1867,41.3327,73.9692,41.159Q74.9459,40.5319,75.6901,39.3885Q76.43430000000001,38.2448,76.9226,36.6876Q77.411,35.13006,77.5941,33.25909L77.5941,33.00775ZM74.9768,37.078900000000004L75.6757,36.1733Q75.9848,36.3896,76.3313,36.6648Q76.678,36.94,76.99119999999999,37.204499999999996Q77.3047,37.4687,77.4928,37.677L76.7487,38.715199999999996Q76.56819999999999,38.478899999999996,76.26259999999999,38.1958Q75.9572,37.912800000000004,75.6214,37.6148Q75.2859,37.316900000000004,74.9768,37.078900000000004ZM79.51169999999999,30.74587L80.6781,30.74587L80.6781,38.677099999999996L79.51169999999999,38.677099999999996L79.51169999999999,30.74587ZM81.779,29.27981L83.01429999999999,29.27981L83.01429999999999,40.487700000000004Q83.01429999999999,41.0621,82.8741,41.362899999999996Q82.7339,41.6637,82.3843,41.821600000000004Q82.0411,41.9793,81.459,42.0286Q80.8769,42.078,80.04079999999999,42.0701Q79.9971,41.8059,79.8735,41.425Q79.7501,41.044200000000004,79.61580000000001,40.7738Q80.2379,40.7957,80.7562,40.7996Q81.2744,40.8033,81.4599,40.8033Q81.63730000000001,40.7893,81.7082,40.7226Q81.779,40.655699999999996,81.779,40.4859L81.779,29.27981ZM72.7637,29.19975L73.9537,29.540779999999998Q73.62530000000001,30.69031,73.1725,31.84991Q72.7199,33.009280000000004,72.1713,34.04375Q71.6229,35.078,70.9973,35.87316Q70.9538,35.71369,70.8428,35.44681Q70.7319,35.17994,70.6092,34.90912Q70.4867,34.638310000000004,70.3758,34.47097Q71.13839999999999,33.49162,71.75829999999999,32.09337Q72.3783,30.69491,72.7637,29.19975ZM71.8078,33.00206L73.029,31.78078L73.04480000000001,31.80266L73.04480000000001,42.149699999999996L71.8078,42.149699999999996L71.8078,33.00206Z" fill="#000000" fill-opacity="1" style="mix-blend-mode:passthrough"/></g></g><g><rect x="37" y="54" width="128" height="192" rx="0" fill="#000000" fill-opacity="0" style="mix-blend-mode:passthrough"/><g><rect x="37" y="54" width="128" height="192" rx="4" fill="url(#master_svg1_19_5145)" fill-opacity="1" style="mix-blend-mode:passthrough"/><rect x="37" y="54" width="128" height="192" rx="4" fill="#000000" fill-opacity="0" style="mix-blend-mode:passthrough"/></g><g><rect x="22" y="54" width="12.015625" height="16" rx="0" fill="#000000" fill-opacity="0" style="mix-blend-mode:passthrough"/><g><path d="M22.71175,57.17194L33.2476,57.17194L33.2476,57.95794L22.71175,57.95794L22.71175,57.17194ZM25.43012,59.29481L25.43012,60.38344L30.62519,60.38344L30.62519,59.29481L25.43012,59.29481ZM24.53181,58.6305L31.55819,58.6305L31.55819,61.040440000000004L24.53181,61.040440000000004L24.53181,58.6305ZM23.14881,61.71244L32.573499999999996,61.71244L32.573499999999996,62.47237L24.02106,62.47237L24.02106,66.9497L23.14881,66.9497L23.14881,61.71244ZM31.96019,61.71244L32.8606,61.71244L32.8606,66.0039Q32.8606,66.3364,32.7666,66.4965Q32.6729,66.6568,32.4233,66.7541Q32.1858,66.8349,31.793129999999998,66.8503Q31.4005,66.8657,30.81644,66.861Q30.785690000000002,66.7048,30.7015,66.5141Q30.6175,66.32339999999999,30.532,66.1839Q30.79656,66.1886,31.050620000000002,66.1933Q31.30469,66.19800000000001,31.495939999999997,66.1956Q31.687379999999997,66.1933,31.75206,66.1933Q31.96019,66.186,31.96019,66.0066L31.96019,61.71244ZM27.28713,56.08331L28.15956,55.88081Q28.32025,56.260130000000004,28.483,56.713499999999996Q28.64575,57.16687,28.71981,57.46163L27.79787,57.72881Q27.72587,57.41212,27.57475,56.9445Q27.42381,56.47669,27.28713,56.08331ZM25.846,63.18488L30.4675,63.18488L30.4675,65.6561L25.846,65.6561L25.846,64.9853L29.66087,64.9853L29.66087,63.855940000000004L25.846,63.855940000000004L25.846,63.18488ZM25.3765,63.18488L26.22325,63.18488L26.22325,66.2565L25.3765,66.2565L25.3765,63.18488Z" fill="#000000" fill-opacity="1" style="mix-blend-mode:passthrough"/></g></g><g><rect x="22" y="141" width="12.015625" height="16" rx="0" fill="#000000" fill-opacity="0" style="mix-blend-mode:passthrough"/><g><path d="M23.15706,145.06275L32.8251,145.06275L32.8251,150.70988L31.896810000000002,150.70988L31.896810000000002,145.94438L24.05256,145.94438L24.05256,150.76987L23.15706,150.76987L23.15706,145.06275ZM23.63256,149.13994L32.4362,149.13994L32.4362,150.02156L23.63256,150.02156L23.63256,149.13994ZM27.498440000000002,142.91569L28.43894,142.91569L28.43894,153.9424L27.498440000000002,153.9424L27.498440000000002,142.91569Z" fill="#000000" fill-opacity="1" style="mix-blend-mode:passthrough"/></g></g><g><rect x="22" y="229" width="12.015625" height="16" rx="0" fill="#000000" fill-opacity="0" style="mix-blend-mode:passthrough"/><g><path d="M25.1785,230.96369L26.03181,231.21419Q25.64987,232.25012,25.1335,233.27106Q24.61731,234.29181,24.016,235.19369Q23.41469,236.09556,22.771375,236.78837Q22.728625,236.68225,22.63975,236.51125Q22.551063,236.34025,22.4515,236.16325Q22.352125,235.98606,22.266625,235.88725Q22.853875,235.282,23.39388,234.49319Q23.93406,233.70419,24.39494,232.79988Q24.855809999999998,231.89556,25.1785,230.96369ZM24.01019,234.05631L24.85844,233.20075L24.87306,233.21275L24.87306,241.9377L24.01019,241.9377L24.01019,234.05631ZM27.12231,235.5325L33.412800000000004,235.5325L33.412800000000004,236.37663L27.12231,236.37663L27.12231,235.5325ZM32.1546,230.94812L32.9198,231.66625Q32.0969,231.94619,31.069940000000003,232.192Q30.04319,232.43762,28.94594,232.63094Q27.84888,232.82425,26.80075,232.97087Q26.77488,232.81262,26.686,232.58463Q26.59713,232.35644,26.51444,232.21956Q27.52919,232.06825,28.58519,231.86669Q29.64119,231.66494,30.574379999999998,231.43Q31.50775,231.19487,32.1546,230.94812ZM29.824559999999998,232.078L30.687440000000002,232.078Q30.73338,233.83956,30.88056,235.40912Q31.02794,236.97869,31.257440000000003,238.18112Q31.48694,239.3834,31.7965,240.0773Q32.1062,240.7711,32.4797,240.7857Q32.649100000000004,240.7932,32.7662,240.34Q32.8834,239.8868,32.9489,239.0558Q33.0295,239.1361,33.1536,239.2317Q33.2779,239.3271,33.402100000000004,239.4014Q33.5264,239.4754,33.6072,239.5109Q33.4951,240.4236,33.319900000000004,240.9357Q33.144800000000004,241.4478,32.9322,241.6506Q32.7198,241.8537,32.4826,241.8537Q31.93525,241.8464,31.519750000000002,241.351Q31.10444,240.8558,30.80912,239.9646Q30.51381,239.0734,30.31581,237.85488Q30.11781,236.63613,29.99875,235.17119Q29.87988,233.70625,29.824559999999998,232.078ZM26.35488,242.0071L26.29394,241.2691L26.67906,240.9481L29.06181,240.3479Q29.05244,240.5155,29.05844,240.7413Q29.06444,240.9668,29.085810000000002,241.1112Q28.26081,241.3424,27.75475,241.4963Q27.24888,241.6503,26.97288,241.7425Q26.69688,241.8349,26.56281,241.8959Q26.42875,241.957,26.35488,242.0071ZM26.35488,242.0071Q26.3335,241.8981,26.27875,241.7549Q26.224,241.6118,26.15387,241.4733Q26.083750000000002,241.3347,26.01981,241.2492Q26.170560000000002,241.1824,26.3425,241.0244Q26.51444,240.8665,26.51444,240.5211L26.51444,232.22894L27.36588,232.47006L27.36588,241.2603Q27.36588,241.2603,27.212310000000002,241.333Q27.05894,241.4058,26.86037,241.5211Q26.66181,241.6366,26.50825,241.7637Q26.35488,241.8908,26.35488,242.0071ZM28.93225,239.4304L29.59525,239.2221Q29.8045,239.5834,30.015810000000002,240.0036Q30.227130000000002,240.4238,30.410690000000002,240.8176Q30.59444,241.2113,30.69512,241.51069999999999L29.99219,241.7738Q29.90819,241.4697,29.73287,241.0639Q29.55756,240.6582,29.34944,240.2273Q29.1415,239.7964,28.93225,239.4304Z" fill="#000000" fill-opacity="1" style="mix-blend-mode:passthrough"/></g></g></g></g></svg>