<svg xmlns="http://www.w3.org/2000/svg" xmlns:xlink="http://www.w3.org/1999/xlink" fill="none" version="1.1" width="282.59375" height="214" viewBox="0 0 282.59375 214"><defs><filter id="master_svg0_19_3763" filterUnits="objectBoundingBox" color-interpolation-filters="sRGB" x="-0.06187311178247734" y="-0.07368421052631578" width="1.1237462235649547" height="1.168421052631579"><feFlood flood-opacity="0" result="BackgroundImageFix"/><feColorMatrix in="SourceAlpha" type="matrix" values="0 0 0 0 0 0 0 0 0 0 0 0 0 0 0 0 0 0 127 0"/><feOffset dy="2" dx="0"/><feGaussianBlur stdDeviation="4"/><feColorMatrix type="matrix" values="0 0 0 0 0 0 0 0 0 0 0 0 0 0 0 0 0 0 0.10000000149011612 0"/><feBlend mode="normal" in2="BackgroundImageFix" result="effect1_dropShadow"/><feBlend mode="normal" in="SourceGraphic" in2="effect1_dropShadow" result="shape"/></filter><clipPath id="master_svg1_19_4010"><rect x="32" y="67" width="18" height="16" rx="0"/></clipPath></defs><g filter="url(#master_svg0_19_3763)"><rect x="12" y="10" width="258.59375" height="190" rx="12" fill="#FFFFFF" fill-opacity="0.8999999761581421" style="mix-blend-mode:passthrough"/><rect x="12" y="10" width="258.59375" height="190" rx="12" fill="#000000" fill-opacity="0.0010000000474974513" style="mix-blend-mode:passthrough"/><rect x="12.5" y="10.5" width="257.59375" height="189" rx="11.5" fill-opacity="0" stroke-opacity="1" stroke="#EEEEEE" fill="none" stroke-width="1" style="mix-blend-mode:passthrough"/><g><rect x="29" y="27" width="224.59375" height="24" rx="0" fill="#000000" fill-opacity="0" style="mix-blend-mode:passthrough"/><g><path d="M30.25825,31.1545L43.7598,31.1545L43.7598,45.353L42.2403,45.353L42.2403,32.5235L31.715,32.5235L31.715,45.353L30.25825,45.353L30.25825,31.1545ZM31.13625,43.377300000000005L43.085,43.377300000000005L43.085,44.7192L31.13625,44.7192L31.13625,43.377300000000005ZM34.87775,39.6198L35.503,38.734Q36.15575,38.862,36.8805,39.062Q37.6055,39.262,38.26625,39.4895Q38.927,39.717,39.3898,39.934L38.7625,40.9055Q38.31075,40.6797,37.6455,40.4352Q36.98025,40.190799999999996,36.25875,39.9737Q35.5375,39.7568,34.87775,39.6198ZM35.57275,32.681L36.81825,33.11175Q36.36125,33.82775,35.74325,34.515Q35.1255,35.202,34.4445,35.794Q33.7635,36.385999999999996,33.0935,36.832Q32.98975,36.70325,32.80225,36.53525Q32.61475,36.36725,32.41825,36.19925Q32.22175,36.03125,32.06825,35.92775Q33.07925,35.34325,34.0275,34.481Q34.97575,33.6185,35.57275,32.681ZM39.83,33.954L40.085499999999996,33.954L40.307,33.894999999999996L41.1593,34.40075Q40.5405,35.39075,39.5725,36.21125Q38.6045,37.0317,37.433,37.6772Q36.2615,38.3225,34.999,38.793Q33.73675,39.2633,32.497,39.5623Q32.429,39.3818,32.31275,39.144999999999996Q32.19675,38.9082,32.059,38.6885Q31.9215,38.4685,31.793,38.329Q32.98075,38.098,34.19225,37.7055Q35.40375,37.3127,36.503,36.7755Q37.60225,36.238,38.4675,35.576750000000004Q39.3328,34.91525,39.83,34.1555L39.83,33.954ZM35.04225,34.9345Q35.74425,35.72225,36.8735,36.3735Q38.003,37.024699999999996,39.3738,37.5022Q40.7448,37.9795,42.166,38.231700000000004Q41.9588,38.43,41.7095,38.766Q41.460300000000004,39.102000000000004,41.3225,39.3665Q39.881299999999996,39.0553,38.48975,38.4923Q37.0985,37.929,35.91825,37.1517Q34.73825,36.3745,33.9325,35.44L35.04225,34.9345ZM35.391,33.954L40.266,33.954L40.266,35.099000000000004L34.60125,35.099000000000004L35.391,33.954ZM33.338,41.662800000000004L34.033,40.6535Q34.842,40.7405,35.7335,40.8915Q36.625,41.042500000000004,37.5005,41.230000000000004Q38.376,41.417500000000004,39.1575,41.622Q39.939,41.826499999999996,40.5368,42.0275L39.8665,43.1225Q39.0948,42.8398,37.988749999999996,42.5542Q36.883,42.2688,35.667,42.0297Q34.451,41.7907,33.338,41.662800000000004ZM49.7482,31.314L55.2708,31.314L55.2708,32.73475L49.7482,32.73475L49.7482,31.314ZM51.3512,31.911749999999998L52.7703,32.135Q52.501999999999995,33.666,52.1047,35.10625Q51.7078,36.5465,51.1833,37.786Q50.659,39.0252,49.994,39.962199999999996Q49.8833,39.8407,49.6777,39.6582Q49.4722,39.4757,49.253299999999996,39.298Q49.0345,39.12,48.872,39.0072Q49.5083,38.167,49.9832,37.0422Q50.4585,35.917500000000004,50.8003,34.60325Q51.141999999999996,33.289,51.3512,31.911749999999998ZM51.504999999999995,34.866L54.143699999999995,34.866L54.143699999999995,36.25275L51.074200000000005,36.25275L51.504999999999995,34.866ZM53.679,34.866L53.9272,34.866L54.175799999999995,34.825L55.053,35.0375Q54.6787,38.8665,53.521,41.420500000000004Q52.363299999999995,43.9745,50.4797,45.3452Q50.333,45.07,50.058800000000005,44.725Q49.7847,44.3803,49.5363,44.1817Q50.6525,43.465,51.503,42.1582Q52.3535,40.8512,52.911500000000004,39.0715Q53.4697,37.2915,53.679,35.15325L53.679,34.866ZM50.6877,39.5187L51.4865,38.4837Q51.8398,38.731,52.2358,39.045500000000004Q52.632000000000005,39.36,52.989999999999995,39.6622Q53.348299999999995,39.9642,53.5633,40.2022L52.7127,41.3888Q52.5065,41.118700000000004,52.1572,40.7952Q51.8083,40.4718,51.424499999999995,40.131299999999996Q51.041,39.790800000000004,50.6877,39.5187ZM55.8705,32.281L57.2035,32.281L57.2035,41.3453L55.8705,41.3453L55.8705,32.281ZM58.4618,30.6055L59.8735,30.6055L59.8735,43.414500000000004Q59.8735,44.071,59.713300000000004,44.414699999999996Q59.553,44.7585,59.1535,44.939Q58.7612,45.1192,58.096000000000004,45.1755Q57.430800000000005,45.232,56.475300000000004,45.223Q56.4253,44.921,56.284,44.4858Q56.143,44.0505,55.9895,43.7415Q56.700500000000005,43.7665,57.2928,43.771Q57.885000000000005,43.7752,58.097,43.7752Q58.299800000000005,43.759299999999996,58.3808,43.683Q58.4618,43.6065,58.4618,43.4125L58.4618,30.6055ZM48.158500000000004,30.514L49.5185,30.90375Q49.1432,32.2175,48.625699999999995,33.54275Q48.1085,34.86775,47.4815,36.05Q46.8547,37.232,46.139700000000005,38.1407Q46.09,37.9585,45.9632,37.6535Q45.8365,37.3485,45.6963,37.039Q45.556200000000004,36.7295,45.429500000000004,36.53825Q46.301,35.419,47.0095,33.821Q47.718,32.22275,48.158500000000004,30.514ZM47.066,34.8595L48.4618,33.46375L48.4797,33.488749999999996L48.4797,45.314L47.066,45.314L47.066,34.8595ZM62.5897,31.698L63.6068,30.78475Q64.0387,31.1615,64.52600000000001,31.619500000000002Q65.0135,32.0775,65.44579999999999,32.5205Q65.878,32.96325,66.136,33.319L65.0563,34.375Q64.8073,34.01225,64.39269999999999,33.5445Q63.9785,33.0765,63.5,32.58475Q63.0218,32.09275,62.5897,31.698ZM61.6618,35.4745L64.70949999999999,35.4745L64.70949999999999,36.958L61.6618,36.958L61.6618,35.4745ZM63.6958,44.8985L63.3483,43.39L63.7188,42.8197L67.0762,40.3807Q67.13499999999999,40.597,67.2262,40.8582Q67.3175,41.1192,67.4165,41.3625Q67.5158,41.6058,67.5945,41.7612Q66.4183,42.6375,65.6937,43.196Q64.9692,43.7542,64.5685,44.080200000000005Q64.168,44.4065,63.9818,44.585499999999996Q63.7955,44.764700000000005,63.6958,44.8985ZM63.6958,44.8985Q63.6278,44.7003,63.4777,44.435500000000005Q63.3278,44.171,63.1598,43.9118Q62.9917,43.6525,62.838,43.497Q63.0218,43.381,63.255,43.155Q63.4883,42.9288,63.6625,42.6145Q63.837,42.3003,63.837,41.9373L63.837,35.4745L65.3672,35.4745L65.3672,43.202Q65.3672,43.202,65.1995,43.318799999999996Q65.032,43.435500000000005,64.78399999999999,43.628299999999996Q64.536,43.8207,64.2835,44.0473Q64.031,44.274,63.8633,44.497Q63.6958,44.72,63.6958,44.8985ZM67.6917,31.07125L68.979,30.535Q69.443,31.157,69.8792,31.911749999999998Q70.3158,32.66625,70.499,33.237L69.1082,33.83925Q69.01400000000001,33.4625,68.7875,32.979Q68.561,32.49525,68.2783,31.99575Q67.9958,31.49625,67.6917,31.07125ZM73.22149999999999,30.51575L74.81620000000001,30.9945Q74.4105,31.89825,73.9605,32.819Q73.5107,33.7395,73.1128,34.39875L71.7738,33.931Q72.0278,33.467,72.3013,32.8725Q72.575,32.27775,72.8155,31.65825Q73.0563,31.03875,73.22149999999999,30.51575ZM68.5475,35.04125L68.5475,37.6045L73.58250000000001,37.6045L73.58250000000001,35.04125L68.5475,35.04125ZM67.082,33.69925L75.11070000000001,33.69925L75.11070000000001,38.9535L67.082,38.9535L67.082,33.69925ZM69.0078,38.6362L70.53399999999999,38.6362Q70.456,39.8125,70.2578,40.8293Q70.05969999999999,41.8457,69.65270000000001,42.6912Q69.2458,43.5368,68.5112,44.2Q67.777,44.863299999999995,66.6103,45.349000000000004Q66.4815,45.081,66.2127,44.735Q65.944,44.388999999999996,65.7028,44.190799999999996Q66.72999999999999,43.7997,67.3543,43.25Q67.9785,42.7002,68.31479999999999,42.0022Q68.6512,41.3042,68.79820000000001,40.4602Q68.94550000000001,39.616,69.0078,38.6362ZM71.7885,38.4998L73.281,38.4998L73.281,43.2153Q73.281,43.552,73.34729999999999,43.64Q73.4135,43.728,73.6592,43.728Q73.7105,43.728,73.8435,43.728Q73.9767,43.728,74.1425,43.728Q74.3083,43.728,74.4482,43.728Q74.58850000000001,43.728,74.65379999999999,43.728Q74.8203,43.728,74.9033,43.601Q74.9865,43.474000000000004,75.029,43.057500000000005Q75.0718,42.6407,75.08070000000001,41.8003Q75.24119999999999,41.92,75.4735,42.0407Q75.706,42.1613,75.9605,42.2515Q76.2153,42.3418,76.4207,42.400800000000004Q76.35300000000001,43.472,76.1797,44.073499999999996Q76.0068,44.6753,75.6833,44.9075Q75.3597,45.139700000000005,74.8112,45.139700000000005Q74.72030000000001,45.139700000000005,74.5273,45.139700000000005Q74.33449999999999,45.139700000000005,74.11330000000001,45.139700000000005Q73.8923,45.139700000000005,73.69919999999999,45.139700000000005Q73.5062,45.139700000000005,73.4082,45.139700000000005Q72.75229999999999,45.139700000000005,72.40129999999999,44.9648Q72.0503,44.789699999999996,71.91929999999999,44.3738Q71.7885,43.9578,71.7885,43.2332L71.7885,38.4998ZM79.018,31.42475L83.6118,31.42475L83.6118,41.099000000000004L79.018,41.099000000000004L79.018,39.705L82.207,39.705L82.207,32.8095L79.018,32.8095L79.018,31.42475ZM79.0358,35.5135L82.78370000000001,35.5135L82.78370000000001,36.8735L79.0358,36.8735L79.0358,35.5135ZM85.8312,31.16225L91.00450000000001,31.16225L91.00450000000001,32.567L85.8312,32.567L85.8312,31.16225ZM85.8312,35.01575L91.00450000000001,35.01575L91.00450000000001,36.38475L85.8312,36.38475L85.8312,35.01575ZM85.75399999999999,38.8825L90.9832,38.8825L90.9832,40.2515L85.75399999999999,40.2515L85.75399999999999,38.8825ZM78.2033,31.42475L79.61500000000001,31.42475L79.61500000000001,42.5465L78.2033,42.5465L78.2033,31.42475ZM90.4433,31.16225L91.9448,31.16225L91.9448,43.497Q91.9448,44.1408,91.77629999999999,44.4995Q91.608,44.8582,91.1875,45.0457Q90.75800000000001,45.2262,90.0687,45.2745Q89.37950000000001,45.323,88.3592,45.323Q88.3255,45.1155,88.2397,44.8438Q88.154,44.5723,88.0467,44.3095Q87.93950000000001,44.0467,87.8198,43.850300000000004Q88.30250000000001,43.8662,88.7598,43.8708Q89.217,43.8752,89.56620000000001,43.871700000000004Q89.91550000000001,43.8682,90.0522,43.8682Q90.27629999999999,43.861000000000004,90.3597,43.775999999999996Q90.4433,43.690799999999996,90.4433,43.4895L90.4433,31.16225ZM84.9303,31.16225L86.4157,31.16225L86.4157,36.91275Q86.4157,37.9335,86.29820000000001,39.0852Q86.1808,40.2367,85.8428,41.3885Q85.505,42.5402,84.8415,43.588499999999996Q84.1782,44.636700000000005,83.0865,45.458Q82.9738,45.3043,82.7697,45.1058Q82.566,44.9075,82.3455,44.718Q82.12530000000001,44.5287,81.96000000000001,44.434Q82.975,43.6717,83.57050000000001,42.752Q84.166,41.8322,84.461,40.8317Q84.7562,39.831,84.8433,38.8345Q84.9303,37.838,84.9303,36.90375L84.9303,31.16225Z" fill="#000000" fill-opacity="1" style="mix-blend-mode:passthrough"/></g></g><g><rect x="29" y="63" width="224.59375" height="120" rx="0" fill="#000000" fill-opacity="0" style="mix-blend-mode:passthrough"/><g><rect x="29" y="63" width="224.59375" height="24" rx="0" fill="#000000" fill-opacity="0" style="mix-blend-mode:passthrough"/><g><rect x="29" y="63" width="24" height="24" rx="0" fill="#000000" fill-opacity="0" style="mix-blend-mode:passthrough"/><g clip-path="url(#master_svg1_19_4010)"><g transform="matrix(1,0,0,-1,0,166.6875)"><g><path d="M34.5,97.96875Q34,96.74995,34,95.34375Q34,93.93755,34.5,92.71875Q34.65625,92.3125,34.5,91.96875Q34.34375,91.59375,33.96875,91.40625Q33.5625,91.25,33.1875,91.40625Q32.8125,91.59375,32.65625,91.96875Q32,93.53125,32,95.34375Q32,97.15625,32.65625,98.71875Q32.8125,99.09375,33.1875,99.24995Q33.5625,99.40625,33.96875,99.28125Q34.34375,99.09375,34.5,98.74995Q34.65625,98.37495,34.5,97.96875ZM49.3438,98.71875Q50,97.15625,50,95.34375Q50,93.53125,49.3438,91.96875Q49.1875,91.59375,48.8125,91.4375Q48.4375,91.28125,48.0312,91.40625Q47.6562,91.59375,47.5,91.9375Q47.3438,92.3125,47.5,92.71875Q48,93.93755,48,95.34375Q48,96.74995,47.5,97.96875Q47.3438,98.37495,47.5,98.71875Q47.6562,99.09375,48.0312,99.28125Q48.4375,99.43755,48.8125,99.28125Q49.1875,99.09375,49.3438,98.71875ZM43,95.34375Q42.9375,94.18755,42,93.62495L42,84.34375Q42,83.90625,41.71875,83.625Q41.4375,83.34375,41,83.34375Q40.5625,83.34375,40.28125,83.625Q40,83.90625,40,84.34375L40,93.62495Q39.0625,94.18755,39,95.34375Q39.03125,96.18755,39.59375,96.74995Q40.15625,97.31255,41,97.34375Q41.84375,97.31255,42.4062,96.74995Q42.9688,96.18755,43,95.34375ZM37.34375,96.93755Q37,96.21875,37,95.34375Q37,94.46875,37.34375,93.74995Q37.5,93.34375,37.34375,92.96875Q37.1875,92.59375,36.8125,92.4375Q36.40625,92.28125,36.0625,92.40625Q35.6875,92.5625,35.5,92.9375Q35,94.06255,35,95.34375Q35,96.62495,35.5,97.74995Q35.6875,98.12495,36.0625,98.28125Q36.4375,98.40625,36.8125,98.24995Q37.1875,98.09375,37.34375,97.71875Q37.5,97.34375,37.34375,96.93755ZM46.5,97.74995Q47,96.62495,47,95.34375Q47,94.06255,46.5,92.9375Q46.3125,92.5625,45.9375,92.40625Q45.5625,92.28125,45.1875,92.4375Q44.8125,92.59375,44.6562,92.96875Q44.5,93.34375,44.6562,93.74995Q45,94.46875,45,95.34375Q45,96.21875,44.6562,96.93755Q44.5,97.34375,44.6562,97.71875Q44.8125,98.09375,45.1875,98.24995Q45.5938,98.40625,45.9375,98.28125Q46.3125,98.12495,46.5,97.74995Z" fill="#E6002D" fill-opacity="1" style="mix-blend-mode:passthrough"/></g></g></g></g><g><rect x="61" y="63" width="64.015625" height="24" rx="0" fill="#000000" fill-opacity="0" style="mix-blend-mode:passthrough"/><g><path d="M62.478,68.10525L75.57900000000001,68.10525L75.57900000000001,69.122L62.478,69.122L62.478,68.10525ZM62.98475,79.8283L75.1095,79.8283L75.1095,80.8475L62.98475,80.8475L62.98475,79.8283ZM65.625,70.1875L72.3633,70.1875L72.3633,71.08825L65.625,71.08825L65.625,70.1875ZM65.625,72.20275L72.3633,72.20275L72.3633,73.1132L65.625,73.1132L65.625,72.20275ZM61.73175,74.26050000000001L76.278,74.26050000000001L76.278,75.2797L61.73175,75.2797L61.73175,74.26050000000001ZM65.08475,77.13L72.9375,77.13L72.9375,78.12780000000001L65.08475,78.12780000000001L65.08475,77.13ZM64.919,66.564L66.11325,66.564L66.11325,74.8258L64.919,74.8258L64.919,66.564ZM71.9448,66.57025L73.1575,66.57025L73.1575,74.832L71.9448,74.832L71.9448,66.57025ZM68.35975,75.787L69.57625,75.787L69.57625,80.3918L68.35975,80.3918L68.35975,75.787ZM65.76025,74.541L66.7655,74.9192Q66.2865,75.7442,65.57300000000001,76.4995Q64.85975,77.25450000000001,64.02975,77.8657Q63.2,78.4767,62.35725,78.8733Q62.27525,78.7282,62.13625,78.5612Q61.9975,78.3942,61.84925,78.2305Q61.701,78.0665,61.56825,77.9563Q62.3835,77.6325,63.1785,77.1035Q63.97375,76.5742,64.64925,75.9055Q65.32475,75.2367,65.76025,74.541ZM72.31,74.541Q72.7323,75.2145,73.39,75.8368Q74.0478,76.4587,74.8495,76.9525Q75.6513,77.446,76.477,77.75Q76.354,77.8605,76.1995,78.0245Q76.045,78.1882,75.911,78.3632Q75.777,78.538,75.6793,78.6833Q74.8348,78.3223,74.0155,77.7308Q73.1965,77.139,72.512,76.4115Q71.8275,75.6838,71.358,74.9032L72.31,74.541ZM77.9355,69.574L84.154,69.574L84.154,70.687L77.9355,70.687L77.9355,69.574ZM77.7518,78.4867Q78.5322,78.3197,79.54650000000001,78.0887Q80.5608,77.8577,81.6985,77.582Q82.8363,77.306,83.9695,77.033L84.086,78.1425Q82.4977,78.55330000000001,80.8955,78.959Q79.2935,79.36449999999999,78.0365,79.6817L77.7518,78.4867ZM78.5718,71.60075L79.5278,71.42075Q79.727,72.3345,79.894,73.3605Q80.061,74.3865,80.1812,75.3708Q80.3018,76.3547,80.3498,77.1467L79.3403,77.3355Q79.3048,76.5437,79.1905,75.5565Q79.0763,74.569,78.91720000000001,73.5337Q78.7582,72.49825,78.5718,71.60075ZM82.2745,71.22375L83.4032,71.43275Q83.279,72.23,83.122,73.113Q82.9653,73.996,82.794,74.88419999999999Q82.623,75.77250000000001,82.45,76.5728Q82.2773,77.373,82.1012,78.0013L81.2118,77.786Q81.3655,77.1547,81.521,76.3372Q81.6765,75.5197,81.8195,74.62049999999999Q81.9625,73.721,82.0798,72.84575Q82.197,71.97025,82.2745,71.22375ZM79.8027,66.9635L80.8368,66.6475Q81.186,67.20475,81.5068,67.86925Q81.8275,68.5335,81.975,69.02674999999999L80.8843,69.406Q80.743,68.9065,80.4382,68.21675Q80.1335,67.527,79.8027,66.9635ZM87.7728,69.87575L92.363,69.87575L92.363,71.02L87.7728,71.02L87.7728,69.87575ZM85.0218,79.3727L91.0715,79.3727L91.0715,80.4983L85.0218,80.4983L85.0218,79.3727ZM87.07130000000001,66.548L88.2903,66.548L88.2903,74.7067L87.07130000000001,74.7067L87.07130000000001,66.548ZM84.4663,74.2118L91.6878,74.2118L91.6878,81.196L90.4653,81.196L90.4653,75.3372L85.639,75.3372L85.639,81.26L84.4663,81.26L84.4663,74.2118ZM98.9002,69.47175L107.6172,69.47175L107.6172,70.63475L98.9002,70.63475L98.9002,69.47175ZM99.95570000000001,71.85249999999999L101.04650000000001,71.60675Q101.2518,72.443,101.4362,73.37219999999999Q101.6208,74.3015,101.7793,75.21770000000001Q101.938,76.134,102.0565,76.9443Q102.1753,77.75450000000001,102.2393,78.37219999999999L101.04429999999999,78.7157Q100.99629999999999,78.082,100.8918,77.251Q100.7875,76.42,100.6383,75.4865Q100.489,74.5527,100.3138,73.619Q100.1388,72.68525,99.95570000000001,71.85249999999999ZM105.3877,71.48325L106.6485,71.69525Q106.4788,72.69,106.2658,73.78999999999999Q106.053,74.8897,105.8143,75.9937Q105.5758,77.0975,105.326,78.0992Q105.0763,79.1007,104.8425,79.905L103.789,79.661Q104.0168,78.854,104.2508,77.832Q104.485,76.81,104.7,75.695Q104.91499999999999,74.58,105.0947,73.4925Q105.2747,72.405,105.3877,71.48325ZM98.21600000000001,79.4562L108.273,79.4562L108.273,80.613L98.21600000000001,80.613L98.21600000000001,79.4562ZM102.1175,66.74549999999999L103.2483,66.4455Q103.47229999999999,67.041,103.709,67.7375Q103.946,68.43375,104.0643,68.94575L102.8765,69.293Q102.777,68.781,102.561,68.06425Q102.345,67.34725,102.1175,66.74549999999999ZM97.581,66.61825L98.7093,66.96475Q98.18719999999999,68.315,97.48830000000001,69.63875Q96.7892,70.96225,95.975,72.12725Q95.1608,73.2922,94.29050000000001,74.191Q94.23349999999999,74.0495,94.11019999999999,73.8247Q93.987,73.5997,93.851,73.367Q93.71520000000001,73.134,93.6015,73.002Q94.3968,72.22,95.1325,71.19925Q95.8685,70.1785,96.4985,69.004Q97.12870000000001,67.8295,97.581,66.61825ZM95.8763,70.74175L97.06700000000001,69.55125L97.07679999999999,69.56725L97.07679999999999,81.2502L95.8763,81.2502L95.8763,70.74175ZM119.4238,68.03275L119.4238,69.473L122.1138,69.473L122.1138,68.03275L119.4238,68.03275ZM115.6785,68.03275L115.6785,69.473L118.31700000000001,69.473L118.31700000000001,68.03275L115.6785,68.03275ZM112.0175,68.03275L112.0175,69.473L114.5718,69.473L114.5718,68.03275L112.0175,68.03275ZM110.86699999999999,67.163L123.314,67.163L123.314,70.34875L110.86699999999999,70.34875L110.86699999999999,67.163ZM110.086,71.284L123.75829999999999,71.284L123.75829999999999,72.216L110.086,72.216L110.086,71.284ZM116.29849999999999,70.0535L117.531,70.1265Q117.402,70.96725,117.2043,71.903Q117.0068,72.8385,116.8335,73.5195L115.6982,73.5195Q115.8172,73.0492,115.92699999999999,72.45275Q116.0368,71.85625,116.1353,71.2265Q116.2337,70.59675,116.29849999999999,70.0535ZM109.918,79.9007L124.1265,79.9007L124.1265,80.8078L109.918,80.8078L109.918,79.9007ZM112.6208,74.8827L121.343,74.8827L121.343,75.606L112.6208,75.606L112.6208,74.8827ZM112.68469999999999,76.526L121.304,76.526L121.304,77.2432L112.68469999999999,77.2432L112.68469999999999,76.526ZM112.739,78.1952L121.3735,78.1952L121.3735,78.91499999999999L112.739,78.91499999999999L112.739,78.1952ZM112.04599999999999,73.1715L121.922,73.1715L121.922,80.4L120.7402,80.4L120.7402,73.985L113.184,73.985L113.184,80.4L112.04599999999999,80.4L112.04599999999999,73.1715Z" fill="#000000" fill-opacity="1" style="mix-blend-mode:passthrough"/></g></g></g><g><rect x="29" y="95" width="224.59375" height="24" rx="0" fill="#000000" fill-opacity="0" style="mix-blend-mode:passthrough"/><g><rect x="29" y="95" width="24" height="24" rx="0" fill="#000000" fill-opacity="0" style="mix-blend-mode:passthrough"/><g style="opacity:0.5;"><rect x="33" y="99" width="16" height="16" rx="8" fill="#3B82F6" fill-opacity="1" style="mix-blend-mode:passthrough"/></g></g><g><rect x="61" y="95" width="130.71875" height="24" rx="0" fill="#000000" fill-opacity="0" style="mix-blend-mode:passthrough"/><g><path d="M67.11475,103.5025L74.8995,103.5025L74.8995,104.49425L67.11475,104.49425L67.11475,103.5025ZM67.11475,105.773L74.8995,105.773L74.8995,106.755L67.11475,106.755L67.11475,105.773ZM67.612,111.65180000000001L74.3793,111.65180000000001L74.3793,112.646L67.612,112.646L67.612,111.65180000000001ZM65.962,101.2045L76.1563,101.2045L76.1563,102.22125L65.962,102.22125L65.962,101.2045ZM66.9075,108.117L75.065,108.117L75.065,113.2288L73.9798,113.2288L73.9798,109.1115L67.95175,109.1115L67.95175,113.27680000000001L66.9075,113.27680000000001L66.9075,108.117ZM69.65675,98.95925L70.70125,98.5585Q71.0408,99.04475,71.37180000000001,99.6285Q71.703,100.212,71.8693,100.6405L70.78999999999999,101.12025Q70.63,100.6855,70.305,100.07675Q69.98025,99.46775,69.65675,98.95925ZM65.095,98.61825L66.17325,98.93625Q65.70925,100.28025,65.07925,101.59275Q64.4495,102.90525,63.7125,104.066Q62.97575,105.2265,62.18275,106.135Q62.12575,105.9995,62.00875,105.784Q61.89175,105.5685,61.75725,105.353Q61.623,105.1375,61.509,105.002Q62.23325,104.22,62.89975,103.19125Q63.5665,102.1625,64.13025,100.993Q64.69425,99.82325,65.095,98.61825ZM63.70525,102.7905L64.7925,101.6935L64.812,101.7095L64.812,113.324L63.70525,113.324L63.70525,102.7905ZM81.1597,100.2855L81.1597,102.4595L88.77799999999999,102.4595L88.77799999999999,100.2855L81.1597,100.2855ZM79.962,99.21625L90.038,99.21625L90.038,103.52250000000001L79.962,103.52250000000001L79.962,99.21625ZM78.0058,104.9675L91.9338,104.9675L91.9338,106.068L78.0058,106.068L78.0058,104.9675ZM80.9902,107.8495L89.14580000000001,107.8495L89.14580000000001,108.95L80.9902,108.95L80.9902,107.8495ZM88.7798,107.8495L90.0522,107.8495Q90.0522,107.8495,90.041,107.9522Q90.03,108.055,90.0205,108.1832Q90.0112,108.3112,89.9893,108.403Q89.8025,109.737,89.5923,110.6245Q89.3823,111.5117,89.1485,112.0238Q88.9147,112.53569999999999,88.617,112.798Q88.334,113.0455,88.0133,113.1308Q87.6928,113.2162,87.2248,113.2385Q86.8167,113.251,86.0825,113.2442Q85.3483,113.2378,84.5128,113.1863Q84.4905,112.9182,84.3805,112.5998Q84.2705,112.2815,84.0968,112.0322Q84.949,112.1157,85.7262,112.1397Q86.5037,112.1637,86.839,112.1637Q87.134,112.1637,87.3032,112.1397Q87.4728,112.1157,87.6035,112.0135Q87.8442,111.8305,88.045,111.3703Q88.246,110.91,88.4228,110.0868Q88.5995,109.2633,88.7735,108.0203L88.7798,107.8495ZM81.5013,105.4357L82.77029999999999,105.6155Q82.6075,106.174,82.4077,106.7817Q82.20830000000001,107.3895,82.0068,107.951Q81.8055,108.5125,81.63329999999999,108.94030000000001L80.253,108.94030000000001Q80.46379999999999,108.468,80.6855,107.867Q80.9072,107.2657,81.118,106.6313Q81.3288,105.9967,81.5013,105.4357ZM99.098,111.715Q100.11500000000001,111.6635,101.459,111.58330000000001Q102.803,111.50280000000001,104.3185,111.4032Q105.834,111.30369999999999,107.3548,111.1945L107.33250000000001,112.2728Q105.898,112.3848,104.4427,112.4985Q102.9878,112.6122,101.661,112.71000000000001Q100.33449999999999,112.8078,99.26599999999999,112.8878L99.098,111.715ZM105.447,109.8497L106.4272,109.4385Q106.8447,109.9755,107.2397,110.6117Q107.6348,111.2477,107.959,111.85679999999999Q108.2832,112.46549999999999,108.4443,112.9482L107.398,113.413Q107.2495,112.9303,106.9425,112.31Q106.6357,111.69,106.24199999999999,111.0448Q105.8485,110.3993,105.447,109.8497ZM100.89500000000001,105.8535L100.89500000000001,108.143L106.39,108.143L106.39,105.8535L100.89500000000001,105.8535ZM99.832,104.85275L107.4905,104.85275L107.4905,109.1535L99.832,109.1535L99.832,104.85275ZM101.2747,100.42875L101.2747,102.4025L105.91149999999999,102.4025L105.91149999999999,100.42875L101.2747,100.42875ZM100.1743,99.4155L107.0592,99.4155L107.0592,103.41575L100.1743,103.41575L100.1743,99.4155ZM103.041,103.146L104.1888,103.146L104.1888,111.8995L103.041,111.944L103.041,103.146ZM94.45,106.64750000000001L98.0245,106.64750000000001L98.0245,107.7452L94.45,107.7452L94.45,106.64750000000001ZM97.6408,106.64750000000001L98.8195,106.64750000000001Q98.8195,106.64750000000001,98.8115,106.741Q98.8035,106.8345,98.8003,106.9613Q98.7972,107.088,98.7812,107.1735Q98.68180000000001,108.9865,98.555,110.118Q98.4285,111.2495,98.2685,111.8505Q98.10849999999999,112.4515,97.8783,112.6943Q97.6717,112.929,97.4268,113.0322Q97.18180000000001,113.13550000000001,96.834,113.1605Q96.5407,113.1952,96.042,113.1885Q95.5433,113.182,94.98400000000001,113.1465Q94.968,112.9007,94.8815,112.5837Q94.7952,112.2668,94.6403,112.0397Q95.1922,112.0877,95.66499999999999,112.1005Q96.1377,112.1135,96.3423,112.1135Q96.5378,112.1135,96.664,112.08330000000001Q96.7902,112.053,96.8925,111.941Q97.056,111.7712,97.1875,111.2295Q97.319,110.6877,97.43299999999999,109.6235Q97.5472,108.5592,97.6408,106.8407L97.6408,106.64750000000001ZM94.35220000000001,102.97175L95.4375,102.97175Q95.3735,103.75275,95.2757,104.63125Q95.178,105.5098,95.074,106.32Q94.97,107.13,94.8677,107.7355L93.7513,107.7355Q93.8695,107.114,93.9878,106.2927Q94.106,105.4715,94.2002,104.601Q94.2945,103.7305,94.35220000000001,102.97175ZM94.62899999999999,102.97175L97.771,102.97175L97.771,100.50975L93.9305,100.50975L93.9305,99.40925L98.8903,99.40925L98.8903,104.07225L94.62899999999999,104.07225L94.62899999999999,102.97175ZM114.0156,107.4531L114.0156,107.375Q114.0156,105.6719,114.39840000000001,104.29297Q114.7812,102.91406,115.375,101.875Q115.9688,100.83594,116.625,100.15234Q117.2812,99.46875,117.83590000000001,99.16406L118.1406,100.11719Q117.6797,100.46875,117.207,101.08594Q116.7344,101.70312,116.3398,102.60156Q115.9453,103.5,115.7031,104.6875Q115.46090000000001,105.875,115.46090000000001,107.3594L115.46090000000001,107.4688Q115.46090000000001,108.9531,115.7031,110.1445Q115.9453,111.3359,116.3398,112.2422Q116.7344,113.1484,117.207,113.7852Q117.6797,114.4219,118.1406,114.7969L117.83590000000001,115.6719Q117.2812,115.3672,116.625,114.6836Q115.9688,114,115.375,112.9648Q114.7812,111.9297,114.39840000000001,110.5469Q114.0156,109.1641,114.0156,107.4531ZM125.0547,107.0625L119.5,104.89844L119.5,103.40625L126.1719,106.3594L126.1719,107.2734L125.0547,107.0625ZM119.5,108.9688L125.0703,106.7578L126.1719,106.5938L126.1719,107.5L119.5,110.4609L119.5,108.9688ZM134.8906,106.5703L134.8906,107.7578L131.0781,107.7578L131.0781,106.5703L134.8906,106.5703ZM141.6953,100.60938L141.8203,100.60938L141.8203,101.83594L141.6953,101.83594Q140.5469,101.83594,139.77339999999998,102.20703Q139,102.57812,138.5469,103.19922Q138.0938,103.82031,137.8945,104.59375Q137.6953,105.3672,137.6953,106.1641L137.6953,107.8359Q137.6953,108.5938,137.875,109.1758Q138.0547,109.7578,138.3672,110.1562Q138.6797,110.5547,139.07420000000002,110.7578Q139.4688,110.9609,139.89839999999998,110.9609Q140.39839999999998,110.9609,140.78910000000002,110.7695Q141.1797,110.5781,141.44920000000002,110.2305Q141.7188,109.8828,141.8594,109.4062Q142,108.9297,142,108.3594Q142,107.8516,141.875,107.3789Q141.75,106.9062,141.4922,106.5352Q141.2344,106.1641,140.8477,105.9492Q140.46089999999998,105.7344,139.9297,105.7344Q139.3281,105.7344,138.8086,106.0273Q138.28910000000002,106.3203,137.957,106.793Q137.625,107.2656,137.5781,107.8203L136.8125,107.8125Q136.9219,106.9375,137.2227,106.3164Q137.52339999999998,105.6953,137.9727,105.3008Q138.4219,104.90625,138.9805,104.72266Q139.53910000000002,104.53906,140.16410000000002,104.53906Q141.0156,104.53906,141.6328,104.85938Q142.25,105.1797,142.64839999999998,105.7148Q143.0469,106.25,143.23829999999998,106.918Q143.4297,107.5859,143.4297,108.2891Q143.4297,109.0938,143.2031,109.7969Q142.97660000000002,110.5,142.5273,111.0312Q142.0781,111.5625,141.4219,111.8594Q140.7656,112.1562,139.89839999999998,112.1562Q138.97660000000002,112.1562,138.28910000000002,111.7773Q137.60160000000002,111.3984,137.14839999999998,110.7656Q136.6953,110.1328,136.4688,109.3594Q136.2422,108.5859,136.2422,107.7891L136.2422,107.1094Q136.2422,105.9062,136.4844,104.75Q136.72660000000002,103.59375,137.32420000000002,102.65625Q137.9219,101.71875,138.9844,101.16406Q140.0469,100.60938,141.6953,100.60938ZM146.9688,106.5859L145.8125,106.2891L146.3828,100.625L152.2188,100.625L152.2188,101.96094L147.6094,101.96094L147.2656,105.0547Q147.5781,104.875,148.0586,104.71875Q148.53910000000002,104.5625,149.16410000000002,104.5625Q149.9531,104.5625,150.5781,104.83203Q151.2031,105.1016,151.6445,105.6016Q152.08589999999998,106.1016,152.3203,106.8047Q152.5547,107.5078,152.5547,108.375Q152.5547,109.1953,152.332,109.8828Q152.1094,110.5703,151.66410000000002,111.082Q151.2188,111.5938,150.543,111.875Q149.8672,112.1562,148.9531,112.1562Q148.2656,112.1562,147.6523,111.9648Q147.03910000000002,111.7734,146.5586,111.3789Q146.0781,110.9844,145.7773,110.3945Q145.47660000000002,109.8047,145.39839999999998,109.0078L146.77339999999998,109.0078Q146.8672,109.6484,147.14839999999998,110.0859Q147.4297,110.5234,147.88670000000002,110.7461Q148.3438,110.9688,148.9531,110.9688Q149.4688,110.9688,149.8672,110.7891Q150.2656,110.6094,150.53910000000002,110.2734Q150.8125,109.9375,150.957,109.4609Q151.10160000000002,108.9844,151.10160000000002,108.3906Q151.10160000000002,107.8516,150.9531,107.3906Q150.8047,106.9297,150.51170000000002,106.5859Q150.2188,106.2422,149.7969,106.0508Q149.375,105.8594,148.8281,105.8594Q148.10160000000002,105.8594,147.7305,106.0547Q147.3594,106.25,146.9688,106.5859ZM159.6172,110.3594L159.6172,100L161.07,100L161.07,112L159.7422,112L159.6172,110.3594ZM153.9297,107.8672L153.9297,107.7031Q153.9297,106.7344,154.168,105.9414Q154.4062,105.1484,154.8477,104.57812Q155.28910000000002,104.00781,155.9023,103.69922Q156.5156,103.39062,157.27339999999998,103.39062Q158.0703,103.39062,158.668,103.66797Q159.2656,103.94531,159.6836,104.47266Q160.10160000000002,105,160.3438,105.7422Q160.58589999999998,106.4844,160.6797,107.4219L160.6797,108.1406Q160.5938,109.0703,160.3477,109.8125Q160.10160000000002,110.5547,159.6836,111.0781Q159.2656,111.6016,158.66410000000002,111.8789Q158.0625,112.1562,157.2578,112.1562Q156.5156,112.1562,155.9023,111.8359Q155.28910000000002,111.5156,154.8477,110.9375Q154.4062,110.3594,154.168,109.5742Q153.9297,108.7891,153.9297,107.8672ZM155.3828,107.7031L155.3828,107.8672Q155.3828,108.5,155.51170000000002,109.0547Q155.6406,109.6094,155.91410000000002,110.0312Q156.1875,110.4531,156.6094,110.6914Q157.0312,110.9297,157.6172,110.9297Q158.33589999999998,110.9297,158.80079999999998,110.625Q159.2656,110.3203,159.5469,109.8203Q159.8281,109.3203,159.9844,108.7344L159.9844,106.8516Q159.8906,106.4219,159.7148,106.0195Q159.53910000000002,105.6172,159.26170000000002,105.3008Q158.9844,104.98438,158.582,104.79688Q158.1797,104.60938,157.6328,104.60938Q157.03910000000002,104.60938,156.61329999999998,104.85547Q156.1875,105.1016,155.91410000000002,105.5273Q155.6406,105.9531,155.51170000000002,106.5117Q155.3828,107.0703,155.3828,107.7031ZM167.586,106.6797L164.703,106.6797L164.688,105.4688L167.305,105.4688Q167.953,105.4688,168.438,105.25Q168.922,105.0312,169.191,104.62109Q169.461,104.21094,169.461,103.64062Q169.461,103.01562,169.223,102.62109Q168.98399999999998,102.22656,168.49599999999998,102.04297Q168.00799999999998,101.85938,167.25799999999998,101.85938L165.039,101.85938L165.039,112L163.531,112L163.531,100.625L167.25799999999998,100.625Q168.13299999999998,100.625,168.82,100.80078Q169.50799999999998,100.97656,169.988,101.34766Q170.469,101.71875,170.719,102.28906Q170.969,102.85938,170.969,103.65625Q170.969,104.35938,170.60899999999998,104.92578Q170.25,105.4922,169.613,105.8516Q168.977,106.2109,168.125,106.3125L167.586,106.6797ZM167.51600000000002,112L164.10899999999998,112L164.961,110.7734L167.51600000000002,110.7734Q168.23399999999998,110.7734,168.738,110.5234Q169.24200000000002,110.2734,169.50799999999998,109.8164Q169.773,109.3594,169.773,108.7344Q169.773,108.1016,169.547,107.6406Q169.32,107.1797,168.836,106.9297Q168.352,106.6797,167.586,106.6797L165.438,106.6797L165.453,105.4688L168.39100000000002,105.4688L168.711,105.9062Q169.531,105.9766,170.102,106.3711Q170.672,106.7656,170.973,107.375Q171.273,107.9844,171.273,108.7188Q171.273,109.7812,170.809,110.5117Q170.344,111.2422,169.5,111.6211Q168.656,112,167.51600000000002,112ZM174.719,105.2266L174.719,112L173.26600000000002,112L173.26600000000002,103.54688L174.64100000000002,103.54688L174.719,105.2266ZM174.422,107.4531L173.75,107.4297Q173.75799999999998,106.5625,173.977,105.8242Q174.195,105.0859,174.625,104.53906Q175.055,103.99219,175.695,103.69141Q176.336,103.39062,177.18,103.39062Q177.773,103.39062,178.273,103.55859Q178.773,103.72656,179.14100000000002,104.08594Q179.50799999999998,104.44531,179.711,105.0078Q179.914,105.5703,179.914,106.3672L179.914,112L178.469,112L178.469,106.4375Q178.469,105.7734,178.24599999999998,105.375Q178.023,104.97656,177.61700000000002,104.79297Q177.211,104.60938,176.664,104.60938Q176.023,104.60938,175.594,104.83594Q175.164,105.0625,174.906,105.4609Q174.648,105.8594,174.535,106.3711Q174.422,106.8828,174.422,107.4531ZM179.898,106.6562L178.93,106.9531Q178.938,106.2578,179.16,105.6172Q179.38299999999998,104.97656,179.809,104.47656Q180.23399999999998,103.97656,180.85899999999998,103.68359Q181.48399999999998,103.39062,182.289,103.39062Q182.969,103.39062,183.49599999999998,103.57031Q184.023,103.75,184.387,104.12109Q184.75,104.49219,184.938,105.0703Q185.125,105.6484,185.125,106.4453L185.125,112L183.672,112L183.672,106.4297Q183.672,105.7188,183.449,105.3242Q183.227,104.92969,182.824,104.76953Q182.422,104.60938,181.86700000000002,104.60938Q181.39100000000002,104.60938,181.023,104.77344Q180.656,104.9375,180.406,105.2227Q180.156,105.5078,180.027,105.875Q179.898,106.2422,179.898,106.6562ZM190.641,107.375L190.641,107.4531Q190.641,109.1641,190.258,110.5469Q189.875,111.9297,189.281,112.9648Q188.688,114,188.031,114.6836Q187.375,115.3672,186.82,115.6719L186.51600000000002,114.7969Q186.977,114.4453,187.445,113.8164Q187.914,113.1875,188.312,112.2695Q188.711,111.3516,188.953,110.1523Q189.195,108.9531,189.195,107.4688L189.195,107.3594Q189.195,105.875,188.938,104.67578Q188.68,103.47656,188.26999999999998,102.5625Q187.85899999999998,101.64844,187.39499999999998,101.01953Q186.93,100.39062,186.51600000000002,100.04688L186.82,99.16406Q187.375,99.46875,188.031,100.15234Q188.688,100.83594,189.281,101.875Q189.875,102.91406,190.258,104.29297Q190.641,105.6719,190.641,107.375Z" fill="#000000" fill-opacity="1" style="mix-blend-mode:passthrough"/></g></g></g><g><rect x="29" y="127" width="224.59375" height="24" rx="0" fill="#000000" fill-opacity="0" style="mix-blend-mode:passthrough"/><g><rect x="29" y="127" width="24" height="24" rx="0" fill="#000000" fill-opacity="0" style="mix-blend-mode:passthrough"/><g style="opacity:0.5;"><rect x="33" y="131" width="16" height="16" rx="8" fill="#22C55E" fill-opacity="1" style="mix-blend-mode:passthrough"/></g></g><g><rect x="61" y="127" width="192.59375" height="24" rx="0" fill="#000000" fill-opacity="0" style="mix-blend-mode:passthrough"/><g><path d="M67.11475,135.5025L74.8995,135.5025L74.8995,136.49425L67.11475,136.49425L67.11475,135.5025ZM67.11475,137.773L74.8995,137.773L74.8995,138.755L67.11475,138.755L67.11475,137.773ZM67.612,143.6518L74.3793,143.6518L74.3793,144.64600000000002L67.612,144.64600000000002L67.612,143.6518ZM65.962,133.2045L76.1563,133.2045L76.1563,134.22125L65.962,134.22125L65.962,133.2045ZM66.9075,140.117L75.065,140.117L75.065,145.2288L73.9798,145.2288L73.9798,141.1115L67.95175,141.1115L67.95175,145.2768L66.9075,145.2768L66.9075,140.117ZM69.65675,130.95925L70.70125,130.5585Q71.0408,131.04475,71.37180000000001,131.6285Q71.703,132.212,71.8693,132.6405L70.78999999999999,133.12025Q70.63,132.6855,70.305,132.07675Q69.98025,131.46775,69.65675,130.95925ZM65.095,130.61825L66.17325,130.93625Q65.70925,132.28025,65.07925,133.59275Q64.4495,134.90525,63.7125,136.066Q62.97575,137.2265,62.18275,138.135Q62.12575,137.9995,62.00875,137.784Q61.89175,137.5685,61.75725,137.353Q61.623,137.1375,61.509,137.002Q62.23325,136.22,62.89975,135.19125Q63.5665,134.1625,64.13025,132.993Q64.69425,131.82325,65.095,130.61825ZM63.70525,134.7905L64.7925,133.6935L64.812,133.7095L64.812,145.324L63.70525,145.324L63.70525,134.7905ZM81.1597,132.2855L81.1597,134.4595L88.77799999999999,134.4595L88.77799999999999,132.2855L81.1597,132.2855ZM79.962,131.21625L90.038,131.21625L90.038,135.5225L79.962,135.5225L79.962,131.21625ZM78.0058,136.9675L91.9338,136.9675L91.9338,138.068L78.0058,138.068L78.0058,136.9675ZM80.9902,139.8495L89.14580000000001,139.8495L89.14580000000001,140.95L80.9902,140.95L80.9902,139.8495ZM88.7798,139.8495L90.0522,139.8495Q90.0522,139.8495,90.041,139.9522Q90.03,140.055,90.0205,140.1832Q90.0112,140.31119999999999,89.9893,140.403Q89.8025,141.737,89.5923,142.6245Q89.3823,143.5117,89.1485,144.0238Q88.9147,144.5357,88.617,144.798Q88.334,145.0455,88.0133,145.1308Q87.6928,145.21620000000001,87.2248,145.2385Q86.8167,145.251,86.0825,145.2442Q85.3483,145.2378,84.5128,145.1863Q84.4905,144.9182,84.3805,144.5998Q84.2705,144.2815,84.0968,144.0322Q84.949,144.1157,85.7262,144.1397Q86.5037,144.1637,86.839,144.1637Q87.134,144.1637,87.3032,144.1397Q87.4728,144.1157,87.6035,144.0135Q87.8442,143.8305,88.045,143.3703Q88.246,142.91,88.4228,142.0868Q88.5995,141.2633,88.7735,140.0203L88.7798,139.8495ZM81.5013,137.4357L82.77029999999999,137.6155Q82.6075,138.174,82.4077,138.7817Q82.20830000000001,139.3895,82.0068,139.951Q81.8055,140.5125,81.63329999999999,140.9403L80.253,140.9403Q80.46379999999999,140.468,80.6855,139.867Q80.9072,139.2657,81.118,138.6313Q81.3288,137.9967,81.5013,137.4357ZM94.5428,133.417L107.43350000000001,133.417L107.43350000000001,140.94650000000001L106.19579999999999,140.94650000000001L106.19579999999999,134.5925L95.7368,134.5925L95.7368,141.0265L94.5428,141.0265L94.5428,133.417ZM95.1768,138.8532L106.91499999999999,138.8532L106.91499999999999,140.02870000000001L95.1768,140.02870000000001L95.1768,138.8532ZM100.3312,130.55425L101.58529999999999,130.55425L101.58529999999999,145.2565L100.3312,145.2565L100.3312,130.55425ZM114.0156,139.4531L114.0156,139.375Q114.0156,137.6719,114.39840000000001,136.29297Q114.7812,134.91406,115.375,133.875Q115.9688,132.83594,116.625,132.15234Q117.2812,131.46875,117.83590000000001,131.16406L118.1406,132.11719Q117.6797,132.46875,117.207,133.08594Q116.7344,133.70312,116.3398,134.60156Q115.9453,135.5,115.7031,136.6875Q115.46090000000001,137.875,115.46090000000001,139.3594L115.46090000000001,139.4688Q115.46090000000001,140.9531,115.7031,142.1445Q115.9453,143.3359,116.3398,144.2422Q116.7344,145.1484,117.207,145.7852Q117.6797,146.4219,118.1406,146.7969L117.83590000000001,147.6719Q117.2812,147.3672,116.625,146.6836Q115.9688,146,115.375,144.9648Q114.7812,143.9297,114.39840000000001,142.5469Q114.0156,141.1641,114.0156,139.4531ZM122.5547,138.5703L122.5547,139.7578L118.7422,139.7578L118.7422,138.5703L122.5547,138.5703ZM129.3594,132.60938L129.4844,132.60938L129.4844,133.83594L129.3594,133.83594Q128.21089999999998,133.83594,127.4375,134.20703Q126.6641,134.57812,126.2109,135.19922Q125.7578,135.82031,125.5586,136.59375Q125.3594,137.3672,125.3594,138.1641L125.3594,139.8359Q125.3594,140.5938,125.5391,141.1758Q125.7188,141.7578,126.0312,142.1562Q126.3438,142.5547,126.7383,142.7578Q127.1328,142.9609,127.5625,142.9609Q128.0625,142.9609,128.4531,142.7695Q128.8438,142.5781,129.11329999999998,142.2305Q129.3828,141.8828,129.52339999999998,141.4062Q129.66410000000002,140.9297,129.66410000000002,140.3594Q129.66410000000002,139.8516,129.53910000000002,139.3789Q129.41410000000002,138.9062,129.1562,138.5352Q128.89839999999998,138.1641,128.51170000000002,137.9492Q128.125,137.7344,127.5938,137.7344Q126.9922,137.7344,126.4727,138.0273Q125.9531,138.3203,125.6211,138.793Q125.2891,139.2656,125.2422,139.8203L124.47659999999999,139.8125Q124.58590000000001,138.9375,124.88669999999999,138.3164Q125.1875,137.6953,125.6367,137.3008Q126.0859,136.90625,126.6445,136.72266Q127.2031,136.53906,127.8281,136.53906Q128.6797,136.53906,129.2969,136.85938Q129.91410000000002,137.1797,130.3125,137.7148Q130.71089999999998,138.25,130.9023,138.918Q131.0938,139.5859,131.0938,140.2891Q131.0938,141.0938,130.8672,141.7969Q130.6406,142.5,130.1914,143.0312Q129.7422,143.5625,129.08589999999998,143.8594Q128.4297,144.1562,127.5625,144.1562Q126.6406,144.1562,125.9531,143.7773Q125.2656,143.3984,124.8125,142.7656Q124.3594,142.1328,124.1328,141.3594Q123.9062,140.5859,123.9062,139.7891L123.9062,139.1094Q123.9062,137.9062,124.14840000000001,136.75Q124.3906,135.59375,124.98830000000001,134.65625Q125.5859,133.71875,126.6484,133.16406Q127.7109,132.60938,129.3594,132.60938ZM134.6328,138.5859L133.47660000000002,138.2891L134.0469,132.625L139.8828,132.625L139.8828,133.96094L135.27339999999998,133.96094L134.9297,137.0547Q135.2422,136.875,135.7227,136.71875Q136.2031,136.5625,136.8281,136.5625Q137.6172,136.5625,138.2422,136.83203Q138.8672,137.1016,139.3086,137.6016Q139.75,138.1016,139.9844,138.8047Q140.2188,139.5078,140.2188,140.375Q140.2188,141.1953,139.9961,141.8828Q139.77339999999998,142.5703,139.3281,143.082Q138.8828,143.5938,138.207,143.875Q137.5312,144.1562,136.6172,144.1562Q135.9297,144.1562,135.3164,143.9648Q134.7031,143.7734,134.2227,143.3789Q133.7422,142.9844,133.4414,142.3945Q133.1406,141.8047,133.0625,141.0078L134.4375,141.0078Q134.5312,141.6484,134.8125,142.0859Q135.0938,142.5234,135.55079999999998,142.7461Q136.0078,142.9688,136.6172,142.9688Q137.1328,142.9688,137.5312,142.7891Q137.9297,142.6094,138.2031,142.2734Q138.47660000000002,141.9375,138.6211,141.4609Q138.7656,140.9844,138.7656,140.3906Q138.7656,139.8516,138.6172,139.3906Q138.4688,138.9297,138.17579999999998,138.5859Q137.8828,138.2422,137.46089999999998,138.0508Q137.03910000000002,137.8594,136.4922,137.8594Q135.7656,137.8594,135.3945,138.0547Q135.02339999999998,138.25,134.6328,138.5859ZM147.2812,142.3594L147.2812,132L148.7344,132L148.7344,144L147.4062,144L147.2812,142.3594ZM141.5938,139.8672L141.5938,139.7031Q141.5938,138.7344,141.832,137.9414Q142.0703,137.1484,142.51170000000002,136.57812Q142.9531,136.00781,143.5664,135.69922Q144.1797,135.39062,144.9375,135.39062Q145.7344,135.39062,146.332,135.66797Q146.9297,135.94531,147.3477,136.47266Q147.7656,137,148.0078,137.7422Q148.25,138.4844,148.3438,139.4219L148.3438,140.1406Q148.2578,141.0703,148.01170000000002,141.8125Q147.7656,142.5547,147.3477,143.0781Q146.9297,143.6016,146.3281,143.8789Q145.72660000000002,144.1562,144.9219,144.1562Q144.1797,144.1562,143.5664,143.8359Q142.9531,143.5156,142.51170000000002,142.9375Q142.0703,142.3594,141.832,141.5742Q141.5938,140.7891,141.5938,139.8672ZM143.0469,139.7031L143.0469,139.8672Q143.0469,140.5,143.17579999999998,141.0547Q143.3047,141.6094,143.5781,142.0312Q143.85160000000002,142.4531,144.27339999999998,142.6914Q144.6953,142.9297,145.2812,142.9297Q146,142.9297,146.4648,142.625Q146.9297,142.3203,147.21089999999998,141.8203Q147.4922,141.3203,147.64839999999998,140.7344L147.64839999999998,138.8516Q147.5547,138.4219,147.3789,138.0195Q147.2031,137.6172,146.92579999999998,137.3008Q146.64839999999998,136.98438,146.2461,136.79688Q145.8438,136.60938,145.2969,136.60938Q144.7031,136.60938,144.2773,136.85547Q143.85160000000002,137.1016,143.5781,137.5273Q143.3047,137.9531,143.17579999999998,138.5117Q143.0469,139.0703,143.0469,139.7031ZM155.25,138.6797L152.3672,138.6797L152.35160000000002,137.4688L154.9688,137.4688Q155.6172,137.4688,156.10160000000002,137.25Q156.58589999999998,137.0312,156.8555,136.62109Q157.125,136.21094,157.125,135.64062Q157.125,135.01562,156.88670000000002,134.62109Q156.64839999999998,134.22656,156.1602,134.04297Q155.6719,133.85938,154.9219,133.85938L152.7031,133.85938L152.7031,144L151.1953,144L151.1953,132.625L154.9219,132.625Q155.7969,132.625,156.4844,132.80078Q157.1719,132.97656,157.6523,133.34766Q158.1328,133.71875,158.3828,134.28906Q158.6328,134.85938,158.6328,135.65625Q158.6328,136.35938,158.27339999999998,136.92578Q157.91410000000002,137.4922,157.2773,137.8516Q156.6406,138.2109,155.78910000000002,138.3125L155.25,138.6797ZM155.1797,144L151.77339999999998,144L152.625,142.7734L155.1797,142.7734Q155.89839999999998,142.7734,156.4023,142.5234Q156.9062,142.2734,157.1719,141.8164Q157.4375,141.3594,157.4375,140.7344Q157.4375,140.1016,157.21089999999998,139.6406Q156.9844,139.1797,156.5,138.9297Q156.0156,138.6797,155.25,138.6797L153.10160000000002,138.6797L153.1172,137.4688L156.0547,137.4688L156.375,137.9062Q157.1953,137.9766,157.7656,138.3711Q158.33589999999998,138.7656,158.63670000000002,139.375Q158.9375,139.9844,158.9375,140.7188Q158.9375,141.7812,158.4727,142.5117Q158.0078,143.2422,157.16410000000002,143.6211Q156.3203,144,155.1797,144ZM162.38299999999998,137.2266L162.38299999999998,144L160.9297,144L160.9297,135.54688L162.305,135.54688L162.38299999999998,137.2266ZM162.086,139.4531L161.414,139.4297Q161.422,138.5625,161.64100000000002,137.8242Q161.85899999999998,137.0859,162.289,136.53906Q162.719,135.99219,163.35899999999998,135.69141Q164,135.39062,164.844,135.39062Q165.438,135.39062,165.938,135.55859Q166.438,135.72656,166.805,136.08594Q167.172,136.44531,167.375,137.0078Q167.578,137.5703,167.578,138.3672L167.578,144L166.13299999999998,144L166.13299999999998,138.4375Q166.13299999999998,137.7734,165.91,137.375Q165.688,136.97656,165.281,136.79297Q164.875,136.60938,164.328,136.60938Q163.688,136.60938,163.25799999999998,136.83594Q162.828,137.0625,162.57,137.4609Q162.312,137.8594,162.199,138.3711Q162.086,138.8828,162.086,139.4531ZM167.562,138.6562L166.594,138.9531Q166.602,138.2578,166.824,137.6172Q167.047,136.97656,167.473,136.47656Q167.898,135.97656,168.523,135.68359Q169.148,135.39062,169.953,135.39062Q170.63299999999998,135.39062,171.16,135.57031Q171.688,135.75,172.051,136.12109Q172.414,136.49219,172.602,137.0703Q172.789,137.6484,172.789,138.4453L172.789,144L171.336,144L171.336,138.4297Q171.336,137.7188,171.113,137.3242Q170.89100000000002,136.92969,170.488,136.76953Q170.086,136.60938,169.531,136.60938Q169.055,136.60938,168.688,136.77344Q168.32,136.9375,168.07,137.2227Q167.82,137.5078,167.691,137.875Q167.562,138.2422,167.562,138.6562ZM186.523,137.9297L187.711,137.9219Q187.711,138.5234,187.527,139.0547Q187.344,139.5859,187.00400000000002,139.9883Q186.664,140.3906,186.199,140.6211Q185.73399999999998,140.8516,185.18,140.8516Q184.5,140.8516,183.98000000000002,140.5781Q183.461,140.3047,182.852,139.7734Q182.453,139.4062,182.11700000000002,139.2031Q181.781,139,181.39100000000002,139Q180.99200000000002,139,180.711,139.1914Q180.43,139.3828,180.277,139.7344Q180.125,140.0859,180.125,140.5781L178.86700000000002,140.5938Q178.86700000000002,139.9844,179.051,139.4609Q179.23399999999998,138.9375,179.57,138.5469Q179.906,138.1562,180.37099999999998,137.9414Q180.836,137.7266,181.39100000000002,137.7266Q182.078,137.7266,182.613,138.0156Q183.148,138.3047,183.719,138.8125Q184.148,139.2031,184.473,139.3945Q184.797,139.5859,185.18,139.5859Q185.586,139.5859,185.887,139.375Q186.188,139.1641,186.35500000000002,138.7891Q186.523,138.4141,186.523,137.9297ZM196.805,138.5703L196.805,139.7578L192.992,139.7578L192.992,138.5703L196.805,138.5703ZM205.234,140.9219Q205.234,141.9609,204.754,142.6836Q204.273,143.4062,203.457,143.7812Q202.641,144.1562,201.617,144.1562Q200.594,144.1562,199.773,143.7812Q198.953,143.4062,198.477,142.6836Q198,141.9609,198,140.9219Q198,140.2422,198.262,139.6758Q198.523,139.1094,199.004,138.6875Q199.484,138.2656,200.145,138.0352Q200.805,137.8047,201.602,137.8047Q202.648,137.8047,203.469,138.207Q204.289,138.6094,204.762,139.3125Q205.234,140.0156,205.234,140.9219ZM203.781,140.8906Q203.781,140.2578,203.508,139.7695Q203.234,139.2812,202.742,139.0078Q202.25,138.7344,201.602,138.7344Q200.938,138.7344,200.457,139.0078Q199.977,139.2812,199.711,139.7695Q199.445,140.2578,199.445,140.8906Q199.445,141.5469,199.707,142.0117Q199.969,142.4766,200.457,142.7227Q200.945,142.9688,201.617,142.9688Q202.289,142.9688,202.773,142.7227Q203.258,142.4766,203.52,142.0117Q203.781,141.5469,203.781,140.8906ZM204.969,135.58594Q204.969,136.41406,204.531,137.0781Q204.094,137.7422,203.336,138.125Q202.578,138.5078,201.617,138.5078Q200.641,138.5078,199.879,138.125Q199.117,137.7422,198.688,137.0781Q198.258,136.41406,198.258,135.58594Q198.258,134.59375,198.691,133.89844Q199.125,133.20312,199.883,132.83594Q200.641,132.46875,201.609,132.46875Q202.586,132.46875,203.344,132.83594Q204.102,133.20312,204.535,133.89844Q204.969,134.59375,204.969,135.58594ZM203.523,135.60938Q203.523,135.03906,203.281,134.60156Q203.039,134.16406,202.609,133.91016Q202.18,133.65625,201.609,133.65625Q201.039,133.65625,200.613,133.89453Q200.188,134.13281,199.949,134.57031Q199.711,135.00781,199.711,135.60938Q199.711,136.19531,199.949,136.63281Q200.188,137.0703,200.617,137.3125Q201.047,137.5547,201.617,137.5547Q202.188,137.5547,202.613,137.3125Q203.039,137.0703,203.281,136.63281Q203.523,136.19531,203.523,135.60938ZM208.883,138.5859L207.727,138.2891L208.297,132.625L214.133,132.625L214.133,133.96094L209.523,133.96094L209.18,137.0547Q209.492,136.875,209.973,136.71875Q210.453,136.5625,211.078,136.5625Q211.867,136.5625,212.492,136.83203Q213.117,137.1016,213.559,137.6016Q214,138.1016,214.234,138.8047Q214.469,139.5078,214.469,140.375Q214.469,141.1953,214.246,141.8828Q214.023,142.5703,213.578,143.082Q213.133,143.5938,212.457,143.875Q211.781,144.1562,210.867,144.1562Q210.18,144.1562,209.566,143.9648Q208.953,143.7734,208.473,143.3789Q207.992,142.9844,207.691,142.3945Q207.391,141.8047,207.312,141.0078L208.688,141.0078Q208.781,141.6484,209.062,142.0859Q209.344,142.5234,209.801,142.7461Q210.258,142.9688,210.867,142.9688Q211.383,142.9688,211.781,142.7891Q212.18,142.6094,212.453,142.2734Q212.727,141.9375,212.871,141.4609Q213.016,140.9844,213.016,140.3906Q213.016,139.8516,212.867,139.3906Q212.719,138.9297,212.426,138.5859Q212.133,138.2422,211.711,138.0508Q211.289,137.8594,210.742,137.8594Q210.016,137.8594,209.645,138.0547Q209.273,138.25,208.883,138.5859ZM221.531,142.3594L221.531,132L222.984,132L222.984,144L221.656,144L221.531,142.3594ZM215.844,139.8672L215.844,139.7031Q215.844,138.7344,216.082,137.9414Q216.32,137.1484,216.762,136.57812Q217.203,136.00781,217.816,135.69922Q218.43,135.39062,219.188,135.39062Q219.984,135.39062,220.582,135.66797Q221.18,135.94531,221.598,136.47266Q222.016,137,222.258,137.7422Q222.5,138.4844,222.594,139.4219L222.594,140.1406Q222.508,141.0703,222.262,141.8125Q222.016,142.5547,221.598,143.0781Q221.18,143.6016,220.578,143.8789Q219.977,144.1562,219.172,144.1562Q218.43,144.1562,217.816,143.8359Q217.203,143.5156,216.762,142.9375Q216.32,142.3594,216.082,141.5742Q215.844,140.7891,215.844,139.8672ZM217.297,139.7031L217.297,139.8672Q217.297,140.5,217.426,141.0547Q217.555,141.6094,217.828,142.0312Q218.102,142.4531,218.523,142.6914Q218.945,142.9297,219.531,142.9297Q220.25,142.9297,220.715,142.625Q221.18,142.3203,221.461,141.8203Q221.742,141.3203,221.898,140.7344L221.898,138.8516Q221.805,138.4219,221.629,138.0195Q221.453,137.6172,221.176,137.3008Q220.898,136.98438,220.496,136.79688Q220.094,136.60938,219.547,136.60938Q218.953,136.60938,218.527,136.85547Q218.102,137.1016,217.828,137.5273Q217.555,137.9531,217.426,138.5117Q217.297,139.0703,217.297,139.7031ZM229.5,138.6797L226.617,138.6797L226.602,137.4688L229.219,137.4688Q229.867,137.4688,230.352,137.25Q230.836,137.0312,231.105,136.62109Q231.375,136.21094,231.375,135.64062Q231.375,135.01562,231.137,134.62109Q230.898,134.22656,230.41,134.04297Q229.922,133.85938,229.172,133.85938L226.953,133.85938L226.953,144L225.445,144L225.445,132.625L229.172,132.625Q230.047,132.625,230.734,132.80078Q231.422,132.97656,231.902,133.34766Q232.383,133.71875,232.633,134.28906Q232.883,134.85938,232.883,135.65625Q232.883,136.35938,232.523,136.92578Q232.164,137.4922,231.527,137.8516Q230.891,138.2109,230.039,138.3125L229.5,138.6797ZM229.43,144L226.023,144L226.875,142.7734L229.43,142.7734Q230.148,142.7734,230.652,142.5234Q231.156,142.2734,231.422,141.8164Q231.688,141.3594,231.688,140.7344Q231.688,140.1016,231.461,139.6406Q231.234,139.1797,230.75,138.9297Q230.266,138.6797,229.5,138.6797L227.352,138.6797L227.367,137.4688L230.305,137.4688L230.625,137.9062Q231.445,137.9766,232.016,138.3711Q232.586,138.7656,232.887,139.375Q233.188,139.9844,233.188,140.7188Q233.188,141.7812,232.723,142.5117Q232.258,143.2422,231.414,143.6211Q230.57,144,229.43,144ZM236.633,137.2266L236.633,144L235.18,144L235.18,135.54688L236.555,135.54688L236.633,137.2266ZM236.336,139.4531L235.664,139.4297Q235.672,138.5625,235.891,137.8242Q236.109,137.0859,236.539,136.53906Q236.969,135.99219,237.609,135.69141Q238.25,135.39062,239.094,135.39062Q239.688,135.39062,240.188,135.55859Q240.688,135.72656,241.055,136.08594Q241.422,136.44531,241.625,137.0078Q241.828,137.5703,241.828,138.3672L241.828,144L240.383,144L240.383,138.4375Q240.383,137.7734,240.16,137.375Q239.938,136.97656,239.531,136.79297Q239.125,136.60938,238.578,136.60938Q237.938,136.60938,237.508,136.83594Q237.078,137.0625,236.82,137.4609Q236.562,137.8594,236.449,138.3711Q236.336,138.8828,236.336,139.4531ZM241.812,138.6562L240.844,138.9531Q240.852,138.2578,241.074,137.6172Q241.297,136.97656,241.723,136.47656Q242.148,135.97656,242.773,135.68359Q243.398,135.39062,244.203,135.39062Q244.883,135.39062,245.41,135.57031Q245.938,135.75,246.301,136.12109Q246.664,136.49219,246.852,137.0703Q247.039,137.6484,247.039,138.4453L247.039,144L245.586,144L245.586,138.4297Q245.586,137.7188,245.363,137.3242Q245.141,136.92969,244.738,136.76953Q244.336,136.60938,243.781,136.60938Q243.305,136.60938,242.938,136.77344Q242.57,136.9375,242.32,137.2227Q242.07,137.5078,241.941,137.875Q241.812,138.2422,241.812,138.6562ZM252.555,139.375L252.555,139.4531Q252.555,141.1641,252.172,142.5469Q251.789,143.9297,251.195,144.9648Q250.602,146,249.945,146.6836Q249.289,147.3672,248.734,147.6719L248.43,146.7969Q248.891,146.4453,249.359,145.8164Q249.828,145.1875,250.227,144.2695Q250.625,143.3516,250.867,142.1523Q251.109,140.9531,251.109,139.4688L251.109,139.3594Q251.109,137.875,250.852,136.67578Q250.594,135.47656,250.184,134.5625Q249.773,133.64844,249.309,133.01953Q248.844,132.39062,248.43,132.04688L248.734,131.16406Q249.289,131.46875,249.945,132.15234Q250.602,132.83594,251.195,133.875Q251.789,134.91406,252.172,136.29297Q252.555,137.6719,252.555,139.375Z" fill="#000000" fill-opacity="1" style="mix-blend-mode:passthrough"/></g></g></g><g><rect x="29" y="159" width="224.59375" height="24" rx="0" fill="#000000" fill-opacity="0" style="mix-blend-mode:passthrough"/><g><rect x="29" y="159" width="24" height="24" rx="0" fill="#000000" fill-opacity="0" style="mix-blend-mode:passthrough"/><g style="opacity:0.5;"><rect x="33" y="163" width="16" height="16" rx="8" fill="#EF4444" fill-opacity="1" style="mix-blend-mode:passthrough"/></g></g><g><rect x="61" y="159" width="130.484375" height="24" rx="0" fill="#000000" fill-opacity="0" style="mix-blend-mode:passthrough"/><g><path d="M67.11475,167.5025L74.8995,167.5025L74.8995,168.49425L67.11475,168.49425L67.11475,167.5025ZM67.11475,169.773L74.8995,169.773L74.8995,170.755L67.11475,170.755L67.11475,169.773ZM67.612,175.6518L74.3793,175.6518L74.3793,176.64600000000002L67.612,176.64600000000002L67.612,175.6518ZM65.962,165.2045L76.1563,165.2045L76.1563,166.22125L65.962,166.22125L65.962,165.2045ZM66.9075,172.117L75.065,172.117L75.065,177.2288L73.9798,177.2288L73.9798,173.1115L67.95175,173.1115L67.95175,177.2768L66.9075,177.2768L66.9075,172.117ZM69.65675,162.95925L70.70125,162.5585Q71.0408,163.04475,71.37180000000001,163.6285Q71.703,164.212,71.8693,164.6405L70.78999999999999,165.12025Q70.63,164.6855,70.305,164.07675Q69.98025,163.46775,69.65675,162.95925ZM65.095,162.61825L66.17325,162.93625Q65.70925,164.28025,65.07925,165.59275Q64.4495,166.90525,63.7125,168.066Q62.97575,169.2265,62.18275,170.135Q62.12575,169.9995,62.00875,169.784Q61.89175,169.5685,61.75725,169.353Q61.623,169.1375,61.509,169.002Q62.23325,168.22,62.89975,167.19125Q63.5665,166.1625,64.13025,164.993Q64.69425,163.82325,65.095,162.61825ZM63.70525,166.7905L64.7925,165.6935L64.812,165.7095L64.812,177.324L63.70525,177.324L63.70525,166.7905ZM81.1597,164.2855L81.1597,166.4595L88.77799999999999,166.4595L88.77799999999999,164.2855L81.1597,164.2855ZM79.962,163.21625L90.038,163.21625L90.038,167.5225L79.962,167.5225L79.962,163.21625ZM78.0058,168.9675L91.9338,168.9675L91.9338,170.068L78.0058,170.068L78.0058,168.9675ZM80.9902,171.8495L89.14580000000001,171.8495L89.14580000000001,172.95L80.9902,172.95L80.9902,171.8495ZM88.7798,171.8495L90.0522,171.8495Q90.0522,171.8495,90.041,171.9522Q90.03,172.055,90.0205,172.1832Q90.0112,172.31119999999999,89.9893,172.403Q89.8025,173.737,89.5923,174.6245Q89.3823,175.5117,89.1485,176.0238Q88.9147,176.5357,88.617,176.798Q88.334,177.0455,88.0133,177.1308Q87.6928,177.21620000000001,87.2248,177.2385Q86.8167,177.251,86.0825,177.2442Q85.3483,177.2378,84.5128,177.1863Q84.4905,176.9182,84.3805,176.5998Q84.2705,176.2815,84.0968,176.0322Q84.949,176.1157,85.7262,176.1397Q86.5037,176.1637,86.839,176.1637Q87.134,176.1637,87.3032,176.1397Q87.4728,176.1157,87.6035,176.0135Q87.8442,175.8305,88.045,175.3703Q88.246,174.91,88.4228,174.0868Q88.5995,173.2633,88.7735,172.0203L88.7798,171.8495ZM81.5013,169.4357L82.77029999999999,169.6155Q82.6075,170.174,82.4077,170.7817Q82.20830000000001,171.3895,82.0068,171.951Q81.8055,172.5125,81.63329999999999,172.9403L80.253,172.9403Q80.46379999999999,172.468,80.6855,171.867Q80.9072,171.2657,81.118,170.6313Q81.3288,169.9967,81.5013,169.4357ZM95.18719999999999,166.2145L99.0788,166.2145L99.0788,164.17375L94.325,164.17375L94.325,163.092L100.2793,163.092L100.2793,167.3025L95.18719999999999,167.3025L95.18719999999999,166.2145ZM95.16499999999999,169.3855L99.63,169.3855L99.63,170.43L94.85249999999999,170.43L95.16499999999999,169.3855ZM99.2295,169.3855L100.4207,169.3855Q100.4207,169.3855,100.4128,169.4823Q100.4048,169.5787,100.4048,169.7087Q100.4048,169.8385,100.3888,169.924Q100.2635,172.1613,100.12219999999999,173.5387Q99.981,174.916,99.8063,175.63400000000001Q99.6318,176.3517,99.382,176.6265Q99.1782,176.8835,98.9328,176.98669999999998Q98.68719999999999,177.09,98.3488,177.121Q98.04820000000001,177.14600000000002,97.542,177.1472Q97.0358,177.1488,96.4465,177.1133Q96.4305,176.8703,96.3485,176.5643Q96.2668,176.2585,96.134,176.028Q96.6777,176.0795,97.1395,176.09550000000002Q97.6015,176.1115,97.813,176.1115Q98.00880000000001,176.1115,98.1323,176.07319999999999Q98.25569999999999,176.035,98.3678,175.9105Q98.56049999999999,175.7052,98.70830000000001,175.0502Q98.8563,174.3953,98.9863,173.082Q99.1165,171.7687,99.2295,169.61L99.2295,169.3855ZM94.771,166.2145L95.9243,166.2145Q95.902,166.90975,95.8685,167.68375Q95.83529999999999,168.45775,95.7988,169.1727Q95.7622,169.8875,95.708,170.43L94.5488,170.43Q94.60900000000001,169.8652,94.65350000000001,169.1455Q94.69800000000001,168.42575,94.7313,167.655Q94.76480000000001,166.88400000000001,94.771,166.2145ZM93.8172,174.62Q94.4837,174.421,95.3457,174.1512Q96.208,173.8815,97.1825,173.559Q98.157,173.2365,99.1442,172.9157L99.32419999999999,173.862Q97.9993,174.343,96.66,174.8175Q95.32079999999999,175.292,94.257,175.6572L93.8172,174.62ZM101.2127,174.5747Q102.21520000000001,174.2762,103.655,173.792Q105.095,173.3075,106.57849999999999,172.8073L106.75200000000001,173.719Q105.418,174.2282,104.0715,174.7232Q102.7253,175.2183,101.6525,175.612L101.2127,174.5747ZM102.2113,166.2145L106.35300000000001,166.2145L106.35300000000001,164.19325L101.49119999999999,164.19325L101.49119999999999,163.1115L107.563,163.1115L107.563,167.3025L102.2113,167.3025L102.2113,166.2145ZM102.2767,169.3855L107.072,169.3855L107.072,170.43L101.9642,170.43L102.2767,169.3855ZM106.58250000000001,169.3855L107.7738,169.3855Q107.7738,169.3855,107.7705,169.4852Q107.7675,169.585,107.7675,169.715Q107.7675,169.8447,107.7515,169.9303Q107.6485,172.2155,107.5312,173.612Q107.414,175.0085,107.25229999999999,175.7265Q107.09049999999999,176.4443,106.8408,176.735Q106.6147,176.9983,106.3425,177.10750000000002Q106.07050000000001,177.21699999999998,105.681,177.2518Q105.32,177.2865,104.70179999999999,177.275Q104.0838,177.2635,103.38499999999999,177.228Q103.369,176.985,103.27279999999999,176.6823Q103.1768,176.3795,103.038,176.165Q103.738,176.2227,104.3355,176.2405Q104.93299999999999,176.2582,105.1793,176.2582Q105.4067,176.2582,105.5543,176.22Q105.702,176.1817,105.81049999999999,176.0635Q106.0095,175.852,106.1445,175.1765Q106.2795,174.501,106.3825,173.1545Q106.4855,171.8077,106.58250000000001,169.6038L106.58250000000001,169.3855ZM101.8945,166.2145L103.06649999999999,166.2145Q103.04429999999999,166.90975,103.0107,167.68375Q102.97749999999999,168.45775,102.936,169.1727Q102.8948,169.8875,102.84049999999999,170.43L101.6625,170.43Q101.7228,169.8652,101.77199999999999,169.1455Q101.8215,168.42575,101.8548,167.655Q101.8883,166.88400000000001,101.8945,166.2145ZM101.70570000000001,171.7727L102.18379999999999,170.927Q102.755,171.0842,103.3865,171.3072Q104.018,171.5302,104.5898,171.779Q105.1618,172.0278,105.543,172.2528L105.049,173.1962Q104.674,172.9555,104.1053,172.6925Q103.53649999999999,172.4295,102.905,172.186Q102.2735,171.9425,101.70570000000001,171.7727ZM94.505,171.7665L94.9865,170.9145Q95.548,171.0717,96.17920000000001,171.2948Q96.8107,171.5177,97.3857,171.7665Q97.961,172.0152,98.3423,172.2402L97.8545,173.1838Q97.4795,172.943,96.9108,172.68Q96.342,172.417,95.7072,172.17680000000001Q95.0728,171.93619999999999,94.505,171.7665ZM114.0156,171.4531L114.0156,171.375Q114.0156,169.6719,114.39840000000001,168.29297Q114.7812,166.91406,115.375,165.875Q115.9688,164.83594,116.625,164.15234Q117.2812,163.46875,117.83590000000001,163.16406L118.1406,164.11719Q117.6797,164.46875,117.207,165.08594Q116.7344,165.70312,116.3398,166.60156Q115.9453,167.5,115.7031,168.6875Q115.46090000000001,169.875,115.46090000000001,171.3594L115.46090000000001,171.4688Q115.46090000000001,172.9531,115.7031,174.1445Q115.9453,175.3359,116.3398,176.2422Q116.7344,177.1484,117.207,177.7852Q117.6797,178.4219,118.1406,178.7969L117.83590000000001,179.6719Q117.2812,179.3672,116.625,178.6836Q115.9688,178,115.375,176.9648Q114.7812,175.9297,114.39840000000001,174.5469Q114.0156,173.1641,114.0156,171.4531ZM120,170.75L125.3984,172.9375L125.3984,174.4688L119.0078,171.5078L119.0078,170.6094L120,170.75ZM125.3984,168.95312L120.0078,171.1719L119.0078,171.2812L119.0078,170.375L125.3984,167.42188L125.3984,168.95312ZM134.6562,170.5703L134.6562,171.7578L130.8438,171.7578L130.8438,170.5703L134.6562,170.5703ZM143.08589999999998,172.9219Q143.08589999999998,173.9609,142.6055,174.6836Q142.125,175.4062,141.3086,175.7812Q140.4922,176.1562,139.4688,176.1562Q138.4453,176.1562,137.625,175.7812Q136.8047,175.4062,136.3281,174.6836Q135.85160000000002,173.9609,135.85160000000002,172.9219Q135.85160000000002,172.2422,136.11329999999998,171.6758Q136.375,171.1094,136.8555,170.6875Q137.33589999999998,170.2656,137.9961,170.0352Q138.6562,169.8047,139.4531,169.8047Q140.5,169.8047,141.3203,170.207Q142.1406,170.6094,142.61329999999998,171.3125Q143.08589999999998,172.0156,143.08589999999998,172.9219ZM141.6328,172.8906Q141.6328,172.2578,141.3594,171.7695Q141.08589999999998,171.2812,140.5938,171.0078Q140.10160000000002,170.7344,139.4531,170.7344Q138.78910000000002,170.7344,138.3086,171.0078Q137.8281,171.2812,137.5625,171.7695Q137.2969,172.2578,137.2969,172.8906Q137.2969,173.5469,137.5586,174.0117Q137.8203,174.4766,138.3086,174.7227Q138.7969,174.9688,139.4688,174.9688Q140.1406,174.9688,140.625,174.7227Q141.1094,174.4766,141.3711,174.0117Q141.6328,173.5469,141.6328,172.8906ZM142.8203,167.58594Q142.8203,168.41406,142.3828,169.0781Q141.9453,169.7422,141.1875,170.125Q140.4297,170.5078,139.4688,170.5078Q138.4922,170.5078,137.7305,170.125Q136.9688,169.7422,136.53910000000002,169.0781Q136.1094,168.41406,136.1094,167.58594Q136.1094,166.59375,136.543,165.89844Q136.97660000000002,165.20312,137.7344,164.83594Q138.4922,164.46875,139.46089999999998,164.46875Q140.4375,164.46875,141.1953,164.83594Q141.9531,165.20312,142.38670000000002,165.89844Q142.8203,166.59375,142.8203,167.58594ZM141.375,167.60938Q141.375,167.03906,141.1328,166.60156Q140.8906,166.16406,140.46089999999998,165.91016Q140.0312,165.65625,139.46089999999998,165.65625Q138.8906,165.65625,138.4648,165.89453Q138.03910000000002,166.13281,137.80079999999998,166.57031Q137.5625,167.00781,137.5625,167.60938Q137.5625,168.19531,137.80079999999998,168.63281Q138.03910000000002,169.0703,138.4688,169.3125Q138.89839999999998,169.5547,139.4688,169.5547Q140.03910000000002,169.5547,140.4648,169.3125Q140.8906,169.0703,141.1328,168.63281Q141.375,168.19531,141.375,167.60938ZM146.7344,170.5859L145.5781,170.2891L146.14839999999998,164.625L151.9844,164.625L151.9844,165.96094L147.375,165.96094L147.0312,169.0547Q147.3438,168.875,147.82420000000002,168.71875Q148.3047,168.5625,148.9297,168.5625Q149.7188,168.5625,150.3438,168.83203Q150.9688,169.1016,151.4102,169.6016Q151.85160000000002,170.1016,152.08589999999998,170.8047Q152.3203,171.5078,152.3203,172.375Q152.3203,173.1953,152.0977,173.8828Q151.875,174.5703,151.4297,175.082Q150.9844,175.5938,150.3086,175.875Q149.6328,176.1562,148.7188,176.1562Q148.0312,176.1562,147.418,175.9648Q146.8047,175.7734,146.32420000000002,175.3789Q145.8438,174.9844,145.543,174.3945Q145.2422,173.8047,145.16410000000002,173.0078L146.53910000000002,173.0078Q146.6328,173.6484,146.91410000000002,174.0859Q147.1953,174.5234,147.6523,174.7461Q148.1094,174.9688,148.7188,174.9688Q149.2344,174.9688,149.6328,174.7891Q150.0312,174.6094,150.3047,174.2734Q150.5781,173.9375,150.7227,173.4609Q150.8672,172.9844,150.8672,172.3906Q150.8672,171.8516,150.7188,171.3906Q150.5703,170.9297,150.2773,170.5859Q149.9844,170.2422,149.5625,170.0508Q149.1406,169.8594,148.5938,169.8594Q147.8672,169.8594,147.4961,170.0547Q147.125,170.25,146.7344,170.5859ZM159.3828,174.3594L159.3828,164L160.83589999999998,164L160.83589999999998,176L159.5078,176L159.3828,174.3594ZM153.6953,171.8672L153.6953,171.7031Q153.6953,170.7344,153.9336,169.9414Q154.1719,169.1484,154.61329999999998,168.57812Q155.0547,168.00781,155.668,167.69922Q156.2812,167.39062,157.03910000000002,167.39062Q157.83589999999998,167.39062,158.4336,167.66797Q159.0312,167.94531,159.44920000000002,168.47266Q159.8672,169,160.1094,169.7422Q160.35160000000002,170.4844,160.4453,171.4219L160.4453,172.1406Q160.3594,173.0703,160.11329999999998,173.8125Q159.8672,174.5547,159.44920000000002,175.0781Q159.0312,175.6016,158.4297,175.8789Q157.8281,176.1562,157.02339999999998,176.1562Q156.2812,176.1562,155.668,175.8359Q155.0547,175.5156,154.61329999999998,174.9375Q154.1719,174.3594,153.9336,173.5742Q153.6953,172.7891,153.6953,171.8672ZM155.14839999999998,171.7031L155.14839999999998,171.8672Q155.14839999999998,172.5,155.2773,173.0547Q155.4062,173.6094,155.6797,174.0312Q155.9531,174.4531,156.375,174.6914Q156.7969,174.9297,157.3828,174.9297Q158.10160000000002,174.9297,158.5664,174.625Q159.0312,174.3203,159.3125,173.8203Q159.5938,173.3203,159.75,172.7344L159.75,170.8516Q159.6562,170.4219,159.4805,170.0195Q159.3047,169.6172,159.0273,169.3008Q158.75,168.98438,158.3477,168.79688Q157.9453,168.60938,157.39839999999998,168.60938Q156.8047,168.60938,156.3789,168.85547Q155.9531,169.1016,155.6797,169.5273Q155.4062,169.9531,155.2773,170.5117Q155.14839999999998,171.0703,155.14839999999998,171.7031ZM167.352,170.6797L164.469,170.6797L164.453,169.4688L167.07,169.4688Q167.719,169.4688,168.203,169.25Q168.688,169.0312,168.957,168.62109Q169.227,168.21094,169.227,167.64062Q169.227,167.01562,168.988,166.62109Q168.75,166.22656,168.262,166.04297Q167.773,165.85938,167.023,165.85938L164.805,165.85938L164.805,176L163.297,176L163.297,164.625L167.023,164.625Q167.898,164.625,168.586,164.80078Q169.273,164.97656,169.75400000000002,165.34766Q170.23399999999998,165.71875,170.48399999999998,166.28906Q170.73399999999998,166.85938,170.73399999999998,167.65625Q170.73399999999998,168.35938,170.375,168.92578Q170.01600000000002,169.4922,169.37900000000002,169.8516Q168.74200000000002,170.2109,167.89100000000002,170.3125L167.352,170.6797ZM167.281,176L163.875,176L164.727,174.7734L167.281,174.7734Q168,174.7734,168.50400000000002,174.5234Q169.00799999999998,174.2734,169.273,173.8164Q169.539,173.3594,169.539,172.7344Q169.539,172.1016,169.312,171.6406Q169.086,171.1797,168.602,170.9297Q168.11700000000002,170.6797,167.352,170.6797L165.203,170.6797L165.219,169.4688L168.156,169.4688L168.477,169.9062Q169.297,169.9766,169.86700000000002,170.3711Q170.438,170.7656,170.738,171.375Q171.039,171.9844,171.039,172.7188Q171.039,173.7812,170.574,174.5117Q170.10899999999998,175.2422,169.26600000000002,175.6211Q168.422,176,167.281,176ZM174.48399999999998,169.2266L174.48399999999998,176L173.031,176L173.031,167.54688L174.406,167.54688L174.48399999999998,169.2266ZM174.188,171.4531L173.51600000000002,171.4297Q173.523,170.5625,173.74200000000002,169.8242Q173.961,169.0859,174.39100000000002,168.53906Q174.82,167.99219,175.461,167.69141Q176.102,167.39062,176.945,167.39062Q177.539,167.39062,178.039,167.55859Q178.539,167.72656,178.906,168.08594Q179.273,168.44531,179.477,169.0078Q179.68,169.5703,179.68,170.3672L179.68,176L178.23399999999998,176L178.23399999999998,170.4375Q178.23399999999998,169.7734,178.012,169.375Q177.789,168.97656,177.38299999999998,168.79297Q176.977,168.60938,176.43,168.60938Q175.789,168.60938,175.35899999999998,168.83594Q174.93,169.0625,174.672,169.4609Q174.414,169.8594,174.301,170.3711Q174.188,170.8828,174.188,171.4531ZM179.664,170.6562L178.695,170.9531Q178.703,170.2578,178.926,169.6172Q179.148,168.97656,179.574,168.47656Q180,167.97656,180.625,167.68359Q181.25,167.39062,182.055,167.39062Q182.73399999999998,167.39062,183.262,167.57031Q183.789,167.75,184.152,168.12109Q184.51600000000002,168.49219,184.703,169.0703Q184.89100000000002,169.6484,184.89100000000002,170.4453L184.89100000000002,176L183.438,176L183.438,170.4297Q183.438,169.7188,183.215,169.3242Q182.99200000000002,168.92969,182.59,168.76953Q182.188,168.60938,181.63299999999998,168.60938Q181.156,168.60938,180.789,168.77344Q180.422,168.9375,180.172,169.2227Q179.922,169.5078,179.793,169.875Q179.664,170.2422,179.664,170.6562ZM190.406,171.375L190.406,171.4531Q190.406,173.1641,190.023,174.5469Q189.641,175.9297,189.047,176.9648Q188.453,178,187.797,178.6836Q187.14100000000002,179.3672,186.586,179.6719L186.281,178.7969Q186.74200000000002,178.4453,187.211,177.8164Q187.68,177.1875,188.078,176.2695Q188.477,175.3516,188.719,174.1523Q188.961,172.9531,188.961,171.4688L188.961,171.3594Q188.961,169.875,188.703,168.67578Q188.445,167.47656,188.035,166.5625Q187.625,165.64844,187.16,165.01953Q186.695,164.39062,186.281,164.04688L186.586,163.16406Q187.14100000000002,163.46875,187.797,164.15234Q188.453,164.83594,189.047,165.875Q189.641,166.91406,190.023,168.29297Q190.406,169.6719,190.406,171.375Z" fill="#000000" fill-opacity="1" style="mix-blend-mode:passthrough"/></g></g></g></g></g></svg>