<svg xmlns="http://www.w3.org/2000/svg" xmlns:xlink="http://www.w3.org/1999/xlink" fill="none" version="1.1" width="24" height="24" viewBox="0 0 24 24"><defs><clipPath id="master_svg0_19_4010"><rect x="3" y="4" width="18" height="16" rx="0"/></clipPath></defs><g><rect x="0" y="0" width="24" height="24" rx="0" fill="#000000" fill-opacity="0" style="mix-blend-mode:passthrough"/><g clip-path="url(#master_svg0_19_4010)"><g transform="matrix(1,0,0,-1,0,40.6875)"><g><path d="M5.5,34.96875Q5,33.74995,5,32.34375Q5,30.93755,5.5,29.71875Q5.65625,29.3125,5.5,28.96875Q5.34375,28.59375,4.96875,28.40625Q4.5625,28.25,4.1875,28.40625Q3.8125,28.59375,3.65625,28.96875Q3,30.53125,3,32.34375Q3,34.15625,3.65625,35.71875Q3.8125,36.09375,4.1875,36.24995Q4.5625,36.40625,4.96875,36.28125Q5.34375,36.09375,5.5,35.74995Q5.65625,35.37495,5.5,34.96875ZM20.3438,35.71875Q21,34.15625,21,32.34375Q21,30.53125,20.3438,28.96875Q20.1875,28.59375,19.8125,28.4375Q19.4375,28.28125,19.0312,28.40625Q18.6562,28.59375,18.5,28.9375Q18.3438,29.3125,18.5,29.71875Q19,30.93755,19,32.34375Q19,33.74995,18.5,34.96875Q18.3438,35.37495,18.5,35.71875Q18.6562,36.09375,19.0312,36.28125Q19.4375,36.43755,19.8125,36.28125Q20.1875,36.09375,20.3438,35.71875ZM14,32.34375Q13.9375,31.18755,13,30.62495L13,21.34375Q13,20.90625,12.71875,20.625Q12.4375,20.34375,12,20.34375Q11.5625,20.34375,11.28125,20.625Q11,20.90625,11,21.34375L11,30.62495Q10.0625,31.18755,10,32.34375Q10.03125,33.18755,10.59375,33.74995Q11.15625,34.31255,12,34.34375Q12.84375,34.31255,13.4062,33.74995Q13.9688,33.18755,14,32.34375ZM8.34375,33.93755Q8,33.21875,8,32.34375Q8,31.46875,8.34375,30.74995Q8.5,30.34375,8.34375,29.96875Q8.1875,29.59375,7.8125,29.4375Q7.40625,29.28125,7.0625,29.40625Q6.6875,29.5625,6.5,29.9375Q6,31.06255,6,32.34375Q6,33.62495,6.5,34.74995Q6.6875,35.12495,7.0625,35.28125Q7.4375,35.40625,7.8125,35.24995Q8.1875,35.09375,8.34375,34.71875Q8.5,34.34375,8.34375,33.93755ZM17.5,34.74995Q18,33.62495,18,32.34375Q18,31.06255,17.5,29.9375Q17.3125,29.5625,16.9375,29.40625Q16.5625,29.28125,16.1875,29.4375Q15.8125,29.59375,15.6562,29.96875Q15.5,30.34375,15.6562,30.74995Q16,31.46875,16,32.34375Q16,33.21875,15.6562,33.93755Q15.5,34.34375,15.6562,34.71875Q15.8125,35.09375,16.1875,35.24995Q16.5938,35.40625,16.9375,35.28125Q17.3125,35.12495,17.5,34.74995Z" fill="#E6002D" fill-opacity="1" style="mix-blend-mode:passthrough"/></g></g></g></g></svg>