<svg xmlns="http://www.w3.org/2000/svg" xmlns:xlink="http://www.w3.org/1999/xlink" fill="none" version="1.1" width="448.671875" height="150" viewBox="0 0 448.671875 150"><defs><filter id="master_svg0_16_18608" filterUnits="objectBoundingBox" color-interpolation-filters="sRGB" x="-0.009036038261974515" y="-0.020833333333333332" width="1.018072076523949" height="1.0555555555555556"><feFlood flood-opacity="0" result="BackgroundImageFix"/><feColorMatrix in="SourceAlpha" type="matrix" values="0 0 0 0 0 0 0 0 0 0 0 0 0 0 0 0 0 0 127 0"/><feOffset dy="1" dx="0"/><feGaussianBlur stdDeviation="1"/><feColorMatrix type="matrix" values="0 0 0 0 0 0 0 0 0 0 0 0 0 0 0 0 0 0 0.05000000074505806 0"/><feBlend mode="normal" in2="BackgroundImageFix" result="effect1_dropShadow"/><feBlend mode="normal" in="SourceGraphic" in2="effect1_dropShadow" result="shape"/></filter><clipPath id="master_svg1_16_18614"><rect x="202.25" y="105" width="10.5" height="14" rx="0"/></clipPath></defs><g filter="url(#master_svg0_16_18608)"><rect x="3" y="2" width="442.671875" height="144" rx="12" fill="#FFFFFF" fill-opacity="1" style="mix-blend-mode:passthrough"/><rect x="3" y="2" width="442.671875" height="144" rx="12" fill="#000000" fill-opacity="0.0010000000474974513" style="mix-blend-mode:passthrough"/><g><rect x="176.328125" y="26" width="96.015625" height="24" rx="0" fill="#000000" fill-opacity="0" style="mix-blend-mode:passthrough"/><g><path d="M178.000875,30.63475L190.613625,30.63475L190.613625,31.82625L178.000875,31.82625L178.000875,30.63475ZM177.166125,37.4322L191.518625,37.4322L191.518625,38.6325L177.166125,38.6325L177.166125,37.4322ZM179.114875,32.9255L180.198625,32.5945Q180.523125,33.172,180.828125,33.83325Q181.133375,34.49425,181.375875,35.123Q181.618625,35.75175,181.727875,36.2227L180.578125,36.6145Q180.465375,36.13,180.240125,35.5015Q180.014875,34.872749999999996,179.723875,34.19125Q179.433125,33.5095,179.114875,32.9255ZM188.402625,32.52325L189.678625,32.874Q189.387125,33.52475,189.042125,34.21475Q188.697425,34.90475,188.357125,35.545500000000004Q188.01692500000001,36.186,187.698625,36.667500000000004L186.665625,36.3293Q186.967925,35.82275,187.297425,35.15675Q187.626925,34.49075,187.916425,33.79425Q188.206125,33.0975,188.402625,32.52325ZM183.678125,31.09975L184.919625,31.09975L184.919625,44.269800000000004L183.678125,44.269800000000004L183.678125,31.09975ZM200.670625,32.1245L206.458925,32.1245L206.458925,33.23475L200.670625,33.23475L200.670625,32.1245ZM206.080625,32.1245L207.193625,32.1245Q207.193625,32.1245,207.193625,32.2465Q207.193625,32.36825,207.193625,32.51875Q207.193625,32.669,207.187425,32.7545Q207.113625,35.5625,207.030125,37.5072Q206.946625,39.452,206.832825,40.689Q206.719125,41.9257,206.552425,42.610299999999995Q206.385625,43.294799999999995,206.151825,43.5917Q205.887825,43.9538,205.588425,44.0835Q205.289125,44.213499999999996,204.835925,44.2545Q204.404625,44.295500000000004,203.68562500000002,44.284Q202.966625,44.2725,202.233125,44.227199999999996Q202.217125,43.9683,202.113425,43.6485Q202.009625,43.3288,201.848625,43.079499999999996Q202.698125,43.1532,203.414925,43.1693Q204.13162499999999,43.185199999999995,204.422325,43.185199999999995Q204.675625,43.195,204.840425,43.1408Q205.005325,43.0865,205.123625,42.9363Q205.335125,42.7185,205.484325,42.0595Q205.633625,41.4002,205.746125,40.163Q205.858625,38.9257,205.935825,37.0135Q206.013125,35.10125,206.080625,32.387L206.080625,32.1245ZM201.443825,29.55425L202.544425,29.891Q202.11962499999998,31.0465,201.531425,32.16125Q200.94332500000002,33.27575,200.257425,34.244749999999996Q199.571625,35.21375,198.839125,35.956Q198.763325,35.833,198.616325,35.6505Q198.469625,35.468,198.316425,35.28225Q198.163425,35.0965,198.037125,34.98975Q198.741825,34.329499999999996,199.37732499999998,33.46425Q200.012825,32.599000000000004,200.542625,31.599249999999998Q201.072425,30.599249999999998,201.443825,29.55425ZM200.086125,35.6145L200.821625,34.93325Q201.34142500000002,35.32775,201.890125,35.793Q202.438925,36.2582,202.927925,36.6897Q203.417125,37.121,203.728325,37.454499999999996L202.964325,38.2682Q202.649925,37.925200000000004,202.163625,37.4572Q201.677625,36.9893,201.133925,36.5055Q200.590125,36.0215,200.086125,35.6145ZM198.794625,41.1012Q199.556425,40.7458,200.557625,40.2432Q201.559125,39.7405,202.675425,39.1517Q203.791925,38.5627,204.886125,37.9867L205.176425,38.945499999999996Q204.171125,39.5215,203.11962499999998,40.1087Q202.068125,40.6958,201.092125,41.2332Q200.116125,41.7705,199.287625,42.215L198.794625,41.1012ZM193.012325,33.41075L198.122125,33.41075L198.122125,34.54875L193.012325,34.54875L193.012325,33.41075ZM195.026625,29.7455L196.186625,29.7455L196.186625,40.4327L195.026625,40.4327L195.026625,29.7455ZM192.898325,41.035Q193.586325,40.7435,194.485125,40.334199999999996Q195.383825,39.9247,196.392625,39.4403Q197.401625,38.9557,198.41242499999998,38.473L198.699125,39.473Q197.309925,40.217,195.889425,40.948499999999996Q194.468925,41.6798,193.331125,42.254000000000005L192.898325,41.035ZM212.103625,32.10175L215.604825,32.10175L215.604825,33.21475L212.103625,33.21475L212.103625,32.10175ZM215.238925,32.10175L215.472125,32.10175L215.702625,32.057249999999996L216.496125,32.27525Q216.120425,35.553,215.219625,37.9097Q214.318825,40.2662,212.963425,41.8335Q211.607925,43.4007,209.862625,44.3003Q209.758625,44.164699999999996,209.585425,43.9805Q209.412125,43.7962,209.218425,43.624300000000005Q209.024925,43.4525,208.873325,43.3643Q210.606125,42.528,211.914425,41.1087Q213.222625,39.6892,214.072925,37.5387Q214.923325,35.38825,215.238925,32.38575L215.238925,32.10175ZM211.832825,34.113Q212.283325,36.3027,212.983425,37.809200000000004Q213.683425,39.3155,214.579125,40.248Q215.475125,41.1803,216.513325,41.6847Q217.55192499999998,42.189,218.68462499999998,42.3682Q219.81742500000001,42.5473,220.98612500000002,42.5473Q221.170425,42.5473,221.533625,42.5473Q221.896825,42.5473,222.327125,42.5473Q222.757625,42.5473,223.144825,42.5443Q223.532425,42.541,223.76432499999999,42.5347Q223.666625,42.686,223.565425,42.914500000000004Q223.464325,43.143,223.39192500000001,43.375699999999995Q223.319325,43.6087,223.278325,43.7885L222.815125,43.7885L220.926625,43.7885Q219.59662500000002,43.7885,218.336125,43.5777Q217.075625,43.367000000000004,215.942625,42.803Q214.809925,42.239000000000004,213.843125,41.198Q212.876625,40.157,212.124625,38.5028Q211.372625,36.8485,210.883625,34.4415L211.832825,34.113ZM211.854825,29.6225L213.118625,29.92325Q212.834125,31.544,212.397625,33.084Q211.961125,34.62375,211.393125,35.91775Q210.825125,37.2118,210.139825,38.1237Q209.975925,37.9757,209.689125,37.7743Q209.402625,37.5725,209.162925,37.4557Q209.801125,36.6132,210.324825,35.380250000000004Q210.848925,34.14725,211.242825,32.6685Q211.637125,31.18975,211.854825,29.6225ZM218.898425,34.054L219.86192499999999,33.50275Q220.47412500000002,34.165,221.135925,34.9375Q221.79762499999998,35.71,222.378925,36.4537Q222.960125,37.1973,223.31912499999999,37.7822L222.267425,38.4375Q221.936825,37.8527,221.376125,37.0917Q220.815425,36.3307,220.162925,35.533Q219.510625,34.735,218.898425,34.054ZM218.172325,29.5905L219.448425,29.5905L219.448425,41.3645L218.172325,41.3645L218.172325,29.5905ZM231.941425,34.36775L231.941425,36.427L237.883125,36.427L237.883125,34.36775L231.941425,34.36775ZM231.941425,31.346L231.941425,33.3795L237.883125,33.3795L237.883125,31.346L231.941425,31.346ZM230.840825,30.3015L239.037125,30.3015L239.037125,37.471199999999996L230.840825,37.471199999999996L230.840825,30.3015ZM230.646625,39.35L239.25912499999998,39.35L239.25912499999998,40.4443L230.646625,40.4443L230.646625,39.35ZM229.41492499999998,42.6502L239.796925,42.6502L239.796925,43.750699999999995L229.41492499999998,43.750699999999995L229.41492499999998,42.6502ZM225.061825,30.64L230.052125,30.64L230.052125,31.769L225.061825,31.769L225.061825,30.64ZM225.225425,35.271L229.82262500000002,35.271L229.82262500000002,36.3937L225.225425,36.3937L225.225425,35.271ZM224.88932499999999,41.397Q225.541125,41.2113,226.366825,40.9602Q227.192825,40.709,228.114925,40.402Q229.036925,40.0947,229.96382499999999,39.7907L230.168925,40.9447Q228.867325,41.3795,227.558625,41.824Q226.250125,42.2685,225.186625,42.6232L224.88932499999999,41.397ZM227.051425,31.08775L228.205425,31.08775L228.205425,41.0005L227.051425,41.229L227.051425,31.08775ZM234.390625,30.799L235.438625,30.799L235.438625,36.956L235.525925,36.956L235.525925,43.1445L234.303425,43.1445L234.303425,36.956L234.390625,36.956L234.390625,30.799ZM242.21112499999998,30.900750000000002L246.638125,30.900750000000002L246.638125,41.306200000000004L242.21112499999998,41.306200000000004L242.21112499999998,40.2183L245.512925,40.2183L245.512925,31.98875L242.21112499999998,31.98875L242.21112499999998,30.900750000000002ZM242.267125,35.4915L245.929925,35.4915L245.929925,36.5607L242.267125,36.5607L242.267125,35.4915ZM241.630625,30.900750000000002L242.771825,30.900750000000002L242.771825,42.596000000000004L241.630625,42.596000000000004L241.630625,30.900750000000002ZM247.361325,32.7605L255.719625,32.7605L255.719625,33.952L247.361325,33.952L247.361325,32.7605ZM252.559325,29.64675L253.775625,29.64675L253.775625,42.4713Q253.775625,43.125,253.585625,43.437Q253.395825,43.748999999999995,252.96362499999998,43.9037Q252.537625,44.049,251.75392499999998,44.085Q250.970125,44.120999999999995,249.760425,44.114999999999995Q249.715825,43.863,249.588125,43.504999999999995Q249.460325,43.147,249.321325,42.8915Q249.956925,42.9075,250.523825,42.918800000000005Q251.090825,42.9298,251.506825,42.925Q251.922825,42.92,252.098925,42.9102Q252.351425,42.9005,252.455425,42.8095Q252.559325,42.7183,252.559325,42.4685L252.559325,29.64675ZM247.90882499999998,35.761250000000004L248.901625,35.244749999999996Q249.33792499999998,35.8445,249.815125,36.548500000000004Q250.292325,37.2522,250.719925,37.9125Q251.147425,38.5728,251.41342500000002,39.0597L250.354625,39.6742Q250.101125,39.181,249.69082500000002,38.5015Q249.280925,37.822,248.812825,37.101Q248.345125,36.3797,247.90882499999998,35.761250000000004ZM260.13712499999997,44.1815Q260.102425,44.0303,260.016925,43.833Q259.931325,43.6357,259.83842500000003,43.436800000000005Q259.745425,43.238,259.647425,43.1178Q259.85382500000003,43.025999999999996,260.077125,42.808499999999995Q260.300425,42.591,260.300425,42.125L260.300425,29.644750000000002L261.544325,29.644750000000002L261.544325,43.1108Q261.544325,43.1108,261.40362500000003,43.1817Q261.263125,43.253,261.054325,43.3652Q260.845625,43.4775,260.631825,43.617999999999995Q260.418325,43.7588,260.277625,43.9055Q260.13712499999997,44.052499999999995,260.13712499999997,44.1815ZM260.13712499999997,44.1815L260.049625,43.0917L260.686125,42.6068L265.407925,41.4417Q265.407925,41.7063,265.442625,42.0352Q265.477325,42.3643,265.518325,42.5655Q263.870425,43.0082,262.867825,43.2855Q261.865625,43.5627,261.325825,43.729Q260.786425,43.8953,260.531625,43.994Q260.276925,44.0928,260.13712499999997,44.1815ZM257.223125,35.81925L271.439425,35.81925L271.439425,37.016999999999996L257.223125,37.016999999999996L257.223125,35.81925ZM265.045925,36.371700000000004Q265.60382500000003,37.9082,266.552825,39.1613Q267.502125,40.414,268.825425,41.309200000000004Q270.148825,42.204499999999996,271.800425,42.6828Q271.655325,42.811800000000005,271.494625,43.011700000000005Q271.333925,43.2118,271.193625,43.417699999999996Q271.053425,43.623999999999995,270.955425,43.81Q269.241625,43.234,267.888325,42.227000000000004Q266.535125,41.22,265.549425,39.8147Q264.563825,38.4095,263.930125,36.6593L265.045925,36.371700000000004ZM268.639325,29.90775L269.836125,30.420749999999998Q269.048625,31.34425,268.016625,32.18725Q266.984625,33.03,265.864125,33.74325Q264.743825,34.4565,263.65162499999997,34.99225Q263.55082500000003,34.86325,263.367825,34.68075Q263.184925,34.498,262.998925,34.31375Q262.812825,34.1295,262.65162499999997,34.0225Q263.785625,33.55975,264.89392499999997,32.91725Q266.002325,32.27475,266.969625,31.503999999999998Q267.937125,30.733249999999998,268.639325,29.90775Z" fill="#4B5563" fill-opacity="1" style="mix-blend-mode:passthrough"/></g></g><g><rect x="160.421875" y="58" width="127.828125" height="36" rx="0" fill="#000000" fill-opacity="0" style="mix-blend-mode:passthrough"/><g><path d="M176.476575,82.7016L176.476575,86L161.891295,86L161.891295,83.1882L168.789335,75.7969Q169.820445,74.6294,170.426575,73.7452Q171.032875,72.8608,171.298575,72.1469Q171.564275,71.4328,171.564275,70.7965Q171.564275,69.83109999999999,171.241375,69.133Q170.918375,68.4349,170.296755,68.0513Q169.675335,67.66748,168.776745,67.66748Q167.802395,67.66748,167.110715,68.1424Q166.419035,68.6173,166.054425,69.45Q165.689815,70.2825,165.689815,71.3385L161.461455,71.3385Q161.461455,69.4276,162.366455,67.84418Q163.271685,66.26054,164.933595,65.3148Q166.595505,64.36906,168.856175,64.36906Q171.105875,64.36906,172.650575,65.09439Q174.195275,65.81972,174.994075,67.17104Q175.792875,68.5221,175.792875,70.3948Q175.792875,71.4514,175.452975,72.4555Q175.113375,73.4596,174.489675,74.4465Q173.865975,75.4334,172.991875,76.4456Q172.117975,77.4577,171.039675,78.54990000000001L167.331585,82.7016L176.476575,82.7016ZM193.468975,80.1589Q193.468975,82.1669,192.528275,83.5368Q191.587775,84.9066,189.957675,85.5999Q188.327575,86.293,186.259875,86.293Q184.201975,86.293,182.559575,85.5999Q180.917375,84.9066,179.964275,83.5368Q179.011175,82.1669,179.011175,80.1589Q179.011175,78.8053,179.551375,77.7136Q180.09177499999998,76.6216,181.066975,75.8406Q182.042475,75.0594,183.359775,74.6422Q184.676975,74.2249,186.230575,74.2249Q188.312475,74.2249,189.949875,74.9597Q191.587375,75.69409999999999,192.528075,77.0223Q193.468975,78.3505,193.468975,80.1589ZM189.225775,79.8721Q189.225775,78.89410000000001,188.851975,78.1871Q188.478175,77.4799,187.803475,77.0963Q187.128675,76.7127,186.230575,76.7127Q185.332875,76.7127,184.660275,77.0963Q183.987775,77.4799,183.613775,78.1871Q183.239775,78.89410000000001,183.239775,79.8721Q183.239775,80.8447,183.616275,81.5476Q183.992775,82.2502,184.670075,82.6224Q185.347575,82.99459999999999,186.259875,82.99459999999999Q187.172175,82.99459999999999,187.837075,82.6224Q188.502275,82.2502,188.863875,81.5476Q189.225775,80.8447,189.225775,79.8721ZM193.01057500000002,70.32300000000001Q193.01057500000002,71.9551,192.145575,73.2053Q191.280675,74.4552,189.75537500000002,75.1581Q188.230375,75.861,186.259875,75.861Q184.289875,75.861,182.752475,75.1581Q181.215075,74.4552,180.344875,73.2053Q179.474675,71.9551,179.474675,70.32300000000001Q179.474675,68.393,180.347175,67.06963999999999Q181.219675,65.74602,182.749775,65.05754Q184.279875,64.36906,186.235375,64.36906Q188.215275,64.36906,189.745275,65.05754Q191.275375,65.74602,192.142875,67.06963999999999Q193.01057500000002,68.393,193.01057500000002,70.32300000000001ZM188.791975,70.5157Q188.791975,69.6549,188.486675,69.0181Q188.181575,68.3814,187.613975,68.0245Q187.046575,67.66748,186.235375,67.66748Q185.443875,67.66748,184.878775,68.0101Q184.313675,68.35249999999999,184.010875,68.9893Q183.708075,69.626,183.708075,70.5157Q183.708075,71.3861,184.010875,72.0378Q184.313675,72.6891,184.886175,73.054Q185.458575,73.4188,186.259875,73.4188Q187.071075,73.4188,187.631075,73.054Q188.191375,72.6891,188.491675,72.0378Q188.791975,71.3861,188.791975,70.5157ZM196.687075,83.9689Q196.687075,83.03229999999999,197.342575,82.3974Q197.998075,81.7625,199.07637499999998,81.7625Q200.164675,81.7625,200.815175,82.3974Q201.465675,83.03229999999999,201.465675,83.9689Q201.465675,84.90090000000001,200.815175,85.5335Q200.164675,86.1659,199.07637499999998,86.1659Q197.998075,86.1659,197.342575,85.5335Q196.687075,84.90090000000001,196.687075,83.9689ZM208.975275,76.2853L205.616375,75.4806L206.834575,64.67188L218.809175,64.67188L218.809175,68.0799L210.305575,68.0799L209.770175,72.8187Q210.197275,72.571,211.058275,72.2831Q211.919575,71.9952,212.992375,71.9952Q214.541175,71.9952,215.747875,72.4806Q216.954575,72.9661,217.797075,73.8887Q218.639575,74.8113,219.073975,76.13980000000001Q219.50867499999998,77.468,219.50867499999998,79.15350000000001Q219.50867499999998,80.5824,219.071275,81.8666Q218.633875,83.1507,217.74417499999998,84.1499Q216.854775,85.149,215.503175,85.721Q214.151875,86.293,212.308975,86.293Q210.930575,86.293,209.64657499999998,85.8796Q208.362775,85.46600000000001,207.34267499999999,84.6668Q206.322775,83.8675,205.718975,82.7119Q205.115375,81.5563,205.078075,80.082L209.274175,80.082Q209.36067500000001,80.9953,209.748875,81.6469Q210.137275,82.2985,210.785675,82.6467Q211.434375,82.99459999999999,212.288975,82.99459999999999Q213.097175,82.99459999999999,213.66547500000001,82.6874Q214.233875,82.3802,214.587675,81.8298Q214.941775,81.2793,215.108375,80.53960000000001Q215.275275,79.7998,215.275275,78.9346Q215.275275,78.0729,215.071275,77.3675Q214.867575,76.6618,214.442375,76.1514Q214.017075,75.6408,213.369775,75.3664Q212.722775,75.0917,211.846375,75.0917Q210.682475,75.0917,210.041175,75.4579Q209.40007500000002,75.8241,208.975275,76.2853ZM234.059675,71.5297L250.284075,71.5297L250.284075,75.0908L234.059675,75.0908L234.059675,71.5297ZM249.105175,71.5297L252.883275,71.5297Q252.883275,71.5297,252.871575,71.8255Q252.859875,72.1208,252.859875,72.4897Q252.859875,72.8586,252.82987500000002,73.0892Q252.713575,76.4422,252.564975,78.8436Q252.416875,81.245,252.227075,82.8467Q252.037175,84.44839999999999,251.772375,85.4037Q251.507475,86.3586,251.110975,86.8255Q250.54047500000001,87.5666,249.88277499999998,87.8534Q249.225575,88.1408,248.372075,88.258Q247.58167500000002,88.3578,246.36857500000002,88.3714Q245.155975,88.385,243.819575,88.3353Q243.766075,87.5403,243.448775,86.5044Q243.131375,85.4689,242.63027499999998,84.7208Q243.889375,84.8239,244.966575,84.8455Q246.04377499999998,84.867,246.600575,84.867Q247.403575,84.867,247.809975,84.4667Q248.166675,84.087,248.406275,82.7558Q248.64577500000001,81.4245,248.81357500000001,78.8436Q248.981875,76.2627,249.105175,72.1611L249.105175,71.5297ZM237.43847499999998,60.90359L241.310275,61.98641Q240.273875,64.58,238.830175,67.00063Q237.386375,69.4213,235.711075,71.4706Q234.036275,73.5195,232.242775,75.0163Q231.925475,74.622,231.354075,74.0844Q230.78267499999998,73.5463,230.19957499999998,73.017Q229.616875,72.4873,229.169175,72.17Q230.929375,70.8969,232.49917499999998,69.1236Q234.069075,67.35031000000001,235.338875,65.24703Q236.60877499999998,63.14375,237.43847499999998,60.90359ZM248.867475,60.84359Q249.564075,62.269999999999996,250.533875,63.78828Q251.50377500000002,65.3061,252.650275,66.7475Q253.796875,68.1889,255.018475,69.4508Q256.240475,70.7127,257.410475,71.6863Q256.96277499999997,72.0336,256.406375,72.5633Q255.849975,73.093,255.343775,73.6728Q254.837975,74.2522,254.490575,74.7463Q253.29717499999998,73.572,252.055475,72.1184Q250.81377500000002,70.6648,249.632075,69.0027Q248.450275,67.34047,247.391875,65.60563Q246.33347500000002,63.87031,245.490175,62.15656L248.867475,60.84359ZM239.16107499999998,72.5586L242.969675,72.5586Q242.739575,75.0758,242.259975,77.4495Q241.780475,79.8228,240.678875,81.9416Q239.57737500000002,84.0603,237.546675,85.8027Q235.516075,87.5445,232.20207499999998,88.775Q232.001375,88.287,231.618875,87.6987Q231.236375,87.1109,230.792075,86.5381Q230.34767499999998,85.9653,229.929975,85.5945Q232.927175,84.6111,234.701875,83.2067Q236.477075,81.8019,237.369575,80.0858Q238.262475,78.3697,238.62347499999998,76.4605Q238.984875,74.5513,239.16107499999998,72.5586ZM271.419875,66.51313L286.820875,66.51313L286.820875,80.6656L283.399875,80.6656L283.399875,69.987L274.676875,69.987L274.676875,80.9023L271.419875,80.9023L271.419875,66.51313ZM277.251875,60.56844L280.789875,60.56844L280.789875,88.7319L277.251875,88.7319L277.251875,60.56844ZM273.31487500000003,75.58160000000001L285.099875,75.58160000000001L285.099875,79.0489L273.31487500000003,79.0489L273.31487500000003,75.58160000000001ZM263.175875,60.58156L266.344875,61.54062Q265.718875,63.28109,264.819875,65.02344Q263.920875,66.76578,262.842875,68.2934Q261.765875,69.8206,260.554875,70.9639Q260.425875,70.5697,260.129675,69.8966Q259.834375,69.2234,259.503475,68.5353Q259.172975,67.84719,258.889375,67.43609000000001Q260.22247500000003,66.18969,261.365875,64.37563Q262.508875,62.56109,263.175875,60.58156ZM263.145875,63.48547L270.76187500000003,63.48547L270.76187500000003,66.76578L262.497875,66.76578L263.145875,63.48547ZM263.739875,88.6123L263.201875,85.5294L264.279875,84.425L270.741875,81.4016Q270.801875,82.1197,270.947875,83.0403Q271.092875,83.9605,271.269875,84.53190000000001Q269.082875,85.625,267.696875,86.33Q266.311875,87.035,265.534875,87.4569Q264.757875,87.8787,264.358875,88.1352Q263.959875,88.392,263.739875,88.6123ZM261.631875,69.0303L270.229875,69.0303L270.229875,72.2403L261.631875,72.2403L261.631875,69.0303ZM259.820275,75.1836L270.697875,75.1836L270.697875,78.4006L259.820275,78.4006L259.820275,75.1836ZM263.739875,88.6123Q263.586875,88.235,263.270875,87.7573Q262.954875,87.27969999999999,262.592875,86.8137Q262.23087499999997,86.3478,261.929875,86.0877Q262.470875,85.6972,263.08387500000003,84.8595Q263.697875,84.0219,263.697875,82.8177L263.697875,69.7911L267.117875,69.7911L267.117875,84.75919999999999Q267.117875,84.75919999999999,266.773875,85.0316Q266.430875,85.3034,265.929875,85.74080000000001Q265.428875,86.1781,264.927875,86.7041Q264.427875,87.23,264.08387500000003,87.72919999999999Q263.739875,88.2284,263.739875,88.6123Z" fill="#4F46E5" fill-opacity="1" style="mix-blend-mode:passthrough"/></g></g><g><rect x="202.25" y="102" width="44.171875" height="20" rx="0" fill="#000000" fill-opacity="0" style="mix-blend-mode:passthrough"/><g clip-path="url(#master_svg1_16_18614)"><g transform="matrix(1,0,0,-1,0,236.8515625)"><g><path d="M206.87109,118.67187525Q207.14453,118.42578125,207.5,118.42578125Q207.85547,118.42578125,208.12891,118.67187525L212.5039,123.04687125Q212.75,123.32031125,212.75,123.67578125Q212.75,124.03125125,212.5039,124.30469125Q212.23047,124.55078125,211.875,124.55078125Q211.51953,124.55078125,211.24609,124.30469125L208.375,121.40625125L208.375,129.80078125Q208.375,130.18358125,208.12891,130.42968125Q207.88281,130.67578125,207.5,130.67578125Q207.11719,130.67578125,206.87109,130.42968125Q206.625,130.18358125,206.625,129.80078125L206.625,121.40625125L203.75391,124.30469125Q203.48047,124.55078125,203.125,124.55078125Q202.769531,124.55078125,202.496094,124.30469125Q202.25,124.03125125,202.25,123.67578125Q202.25,123.32031125,202.496094,123.04687125L206.87109,118.67187525Z" fill="#22C55E" fill-opacity="1" style="mix-blend-mode:passthrough"/></g></g></g><g><path d="M223.85254,114.3066Q223.85254,115.2158,223.43213,115.8481Q223.01172,116.4805,222.29736,116.8086Q221.58301,117.1367,220.6875,117.1367Q219.79199,117.1367,219.07422,116.8086Q218.35645,116.4805,217.93945,115.8481Q217.522461,115.2158,217.522461,114.3066Q217.522461,113.7119,217.75146,113.2163Q217.98047,112.7207,218.40088,112.3516Q218.82129,111.98242,219.39893,111.78076Q219.97656,111.5791,220.67383,111.5791Q221.58984,111.5791,222.30762,111.93115Q223.02539,112.2832,223.43896,112.8984Q223.85254,113.5137,223.85254,114.3066ZM222.58105,114.2793Q222.58105,113.7256,222.3418,113.2983Q222.10254,112.8711,221.67188,112.6318Q221.24121,112.3926,220.67383,112.3926Q220.09277,112.3926,219.67236,112.6318Q219.25195,112.8711,219.01953,113.2983Q218.78711,113.7256,218.78711,114.2793Q218.78711,114.8535,219.01611,115.2603Q219.24512,115.667,219.67236,115.8823Q220.09961,116.0977,220.6875,116.0977Q221.27539,116.0977,221.69922,115.8823Q222.12305,115.667,222.35205,115.2603Q222.58105,114.8535,222.58105,114.2793ZM223.62012,109.6377Q223.62012,110.3623,223.2373,110.94336Q222.85449,111.52441,222.19141,111.85938Q221.52832,112.1943,220.6875,112.1943Q219.83301,112.1943,219.1665,111.85938Q218.5,111.52441,218.12402,110.94336Q217.748047,110.3623,217.748047,109.6377Q217.748047,108.76953,218.12744,108.16113Q218.50684,107.55273,219.16992,107.23145Q219.83301,106.91016,220.68066,106.91016Q221.53516,106.91016,222.19824,107.23145Q222.86133,107.55273,223.24072,108.16113Q223.62012,108.76953,223.62012,109.6377ZM222.35547,109.6582Q222.35547,109.15918,222.14355,108.77637Q221.93164,108.39355,221.55566,108.17139Q221.17969,107.94922,220.68066,107.94922Q220.18164,107.94922,219.80908,108.15771Q219.43652,108.36621,219.22803,108.74902Q219.01953,109.13184,219.01953,109.6582Q219.01953,110.1709,219.22803,110.55371Q219.43652,110.93652,219.8125,111.14844Q220.18848,111.36035,220.6875,111.36035Q221.18652,111.36035,221.55908,111.14844Q221.93164,110.93652,222.14355,110.55371Q222.35547,110.1709,222.35547,109.6582ZM225.60254,116.3301Q225.60254,116.00880000000001,225.8042,115.78659999999999Q226.00586,115.5645,226.38867,115.5645Q226.7715,115.5645,226.9731,115.78659999999999Q227.1748,116.00880000000001,227.1748,116.3301Q227.1748,116.6445,226.9731,116.8633Q226.7715,117.082,226.38867,117.082Q226.00586,117.082,225.8042,116.8633Q225.60254,116.6445,225.60254,116.3301ZM230.9824,111.40137L231.8848,111.40137Q232.5479,111.40137,232.9819,111.1792Q233.416,110.95703,233.6313,110.5708Q233.8467,110.18457000000001,233.8467,109.69922Q233.8467,109.125,233.6553,108.73535Q233.4639,108.3457,233.0811,108.14746Q232.69819999999999,107.94922,232.1104,107.94922Q231.5771,107.94922,231.1704,108.15771Q230.7637,108.36621,230.5347,108.74902Q230.3057,109.13184,230.3057,109.65137L229.041,109.65137Q229.041,108.89258,229.4238,108.27051Q229.8066,107.64844,230.5005,107.2793Q231.1943,106.91016,232.1104,106.91016Q233.0127,106.91016,233.6895,107.22803Q234.3662,107.5459,234.7422,108.17139Q235.1182,108.79688,235.1182,109.72656Q235.1182,110.10254,234.9438,110.52979Q234.7695,110.95703,234.4038,111.32617Q234.0381,111.69531,233.457,111.93115Q232.876,112.167,232.0625,112.167L230.9824,112.167L230.9824,111.40137ZM230.9824,112.4404L230.9824,111.68164L232.0625,111.68164Q233.0127,111.68164,233.63479999999998,111.90723Q234.2568,112.1328,234.6157,112.50880000000001Q234.9746,112.8848,235.1216,113.3325Q235.2686,113.7803,235.2686,114.2246Q235.2686,114.9219,235.0327,115.4619Q234.7969,116.002,234.3696,116.3779Q233.9424,116.7539,233.3682,116.9453Q232.7939,117.1367,232.1172,117.1367Q231.4678,117.1367,230.897,116.9521Q230.3262,116.7676,229.8887,116.4155Q229.4512,116.0635,229.2051,115.5474Q228.959,115.0312,228.959,114.3682L230.2236,114.3682Q230.2236,114.8877,230.4526,115.2773Q230.6816,115.667,231.1089,115.8823Q231.5361,116.0977,232.1172,116.0977Q232.69819999999999,116.0977,233.1187,115.896Q233.5391,115.6943,233.7681,115.2842Q233.9971,114.874,233.9971,114.252Q233.9971,113.62989999999999,233.7373,113.23Q233.4775,112.8301,233.0024,112.6353Q232.5273,112.4404,231.8848,112.4404L230.9824,112.4404ZM236.8955,109.4873L236.8955,108.96094Q236.8955,108.39355,237.1416,107.92871Q237.3877,107.46387,237.8457,107.18359Q238.3037,106.90332,238.9326,106.90332Q239.5752,106.90332,240.0298,107.18359Q240.4844,107.46387,240.7305,107.92871Q240.9766,108.39355,240.9766,108.96094L240.9766,109.4873Q240.9766,110.04102,240.7339,110.50586Q240.4912,110.9707,240.0366,111.25098Q239.582,111.53125,238.9463,111.53125Q238.3105,111.53125,237.8491,111.25098Q237.3877,110.9707,237.1416,110.50586Q236.8955,110.04102,236.8955,109.4873ZM237.8457,108.96094L237.8457,109.4873Q237.8457,109.80176,237.9653,110.08203Q238.085,110.3623,238.3311,110.53662Q238.5771,110.71094,238.9463,110.71094Q239.3154,110.71094,239.5547,110.53662Q239.7939,110.3623,239.9102,110.08203Q240.0264,109.80176,240.0264,109.4873L240.0264,108.96094Q240.0264,108.63965,239.9067,108.35596Q239.7871,108.07227,239.5444,107.89795Q239.30180000000001,107.72363,238.9326,107.72363Q238.5703,107.72363,238.3276,107.89795Q238.085,108.07227,237.9653,108.35596Q237.8457,108.63965,237.8457,108.96094ZM241.7422,115.0928L241.7422,114.5596Q241.7422,113.999,241.9883,113.5342Q242.2344,113.0693,242.6924,112.7891Q243.1504,112.50880000000001,243.7793,112.50880000000001Q244.4219,112.50880000000001,244.8765,112.7891Q245.3311,113.0693,245.5771,113.5342Q245.82319999999999,113.999,245.82319999999999,114.5596L245.82319999999999,115.0928Q245.82319999999999,115.6533,245.5806,116.1182Q245.3379,116.583,244.8833,116.8633Q244.4287,117.14359999999999,243.793,117.14359999999999Q243.1572,117.14359999999999,242.6992,116.8633Q242.2412,116.583,241.9917,116.1182Q241.7422,115.6533,241.7422,115.0928ZM242.6924,114.5596L242.6924,115.0928Q242.6924,115.4072,242.812,115.6909Q242.9316,115.9746,243.17770000000002,116.1489Q243.4238,116.3232,243.793,116.3232Q244.1621,116.3232,244.4048,116.1489Q244.6475,115.9746,244.7637,115.6943Q244.8799,115.4141,244.8799,115.0928L244.8799,114.5596Q244.8799,114.2383,244.7603,113.958Q244.6406,113.6777,244.3979,113.5034Q244.1553,113.3291,243.7793,113.3291Q243.417,113.3291,243.1743,113.5034Q242.9316,113.6777,242.812,113.958Q242.6924,114.2383,242.6924,114.5596ZM244.0938,108.46191L239.2334,116.24119999999999L238.5225,115.78999999999999L243.3828,108.01074L244.0938,108.46191Z" fill="#22C55E" fill-opacity="1" style="mix-blend-mode:passthrough"/></g></g></g></svg>