<svg xmlns="http://www.w3.org/2000/svg" xmlns:xlink="http://www.w3.org/1999/xlink" fill="none" version="1.1" width="448.65625" height="150" viewBox="0 0 448.65625 150"><defs><filter id="master_svg0_16_18627" filterUnits="objectBoundingBox" color-interpolation-filters="sRGB" x="-0.009036357218496294" y="-0.020833333333333332" width="1.0180727144369925" height="1.0555555555555556"><feFlood flood-opacity="0" result="BackgroundImageFix"/><feColorMatrix in="SourceAlpha" type="matrix" values="0 0 0 0 0 0 0 0 0 0 0 0 0 0 0 0 0 0 127 0"/><feOffset dy="1" dx="0"/><feGaussianBlur stdDeviation="1"/><feColorMatrix type="matrix" values="0 0 0 0 0 0 0 0 0 0 0 0 0 0 0 0 0 0 0.05000000074505806 0"/><feBlend mode="normal" in2="BackgroundImageFix" result="effect1_dropShadow"/><feBlend mode="normal" in="SourceGraphic" in2="effect1_dropShadow" result="shape"/></filter><clipPath id="master_svg1_16_18629"><rect x="202.234375" y="105" width="10.5" height="14" rx="0"/></clipPath></defs><g filter="url(#master_svg0_16_18627)"><rect x="3" y="2" width="442.65625" height="144" rx="12" fill="#FFFFFF" fill-opacity="1" style="mix-blend-mode:passthrough"/><rect x="3" y="2" width="442.65625" height="144" rx="12" fill="#000000" fill-opacity="0.0010000000474974513" style="mix-blend-mode:passthrough"/><g><rect x="184.3125" y="26" width="80.015625" height="24" rx="0" fill="#000000" fill-opacity="0" style="mix-blend-mode:passthrough"/><g><path d="M185.019,36.101L199.6675,36.101L199.6675,37.4152L185.019,37.4152L185.019,36.101ZM207.574,29.564L208.8528,29.79725Q208.5585,31.1585,208.14,32.45925Q207.7218,33.75975,207.20929999999998,34.88175Q206.6968,36.0035,206.093,36.848Q205.97,36.7535,205.7528,36.6227Q205.5355,36.4917,205.315,36.372Q205.0947,36.2522,204.931,36.1768Q205.5568,35.3855,206.055,34.33125Q206.55349999999999,33.277,206.942,32.057Q207.3305,30.837,207.574,29.564ZM207.4235,32.28325L214.2853,32.28325L214.2853,33.47125L206.8898,33.47125L207.4235,32.28325ZM213.9238,32.28325L214.1035,32.28325L214.3368,32.214L215.2192,32.695Q215.02100000000002,33.47725,214.7313,34.27625Q214.4415,35.075,214.1325,35.79075Q213.8237,36.506299999999996,213.5392,37.0585Q213.4163,36.989000000000004,213.227,36.896Q213.038,36.803,212.8553,36.71Q212.6728,36.6167,212.5215,36.5535Q212.7747,36.055,213.0505,35.36775Q213.3265,34.6805,213.5625,33.94525Q213.7985,33.21,213.9238,32.58075L213.9238,32.28325ZM201.2283,31.522L201.9468,30.659Q202.4907,30.947,203.0868,31.316499999999998Q203.683,31.68575,204.2132,32.06325Q204.7435,32.4405,205.0823,32.772999999999996L204.3165,33.756Q203.9965,33.4235,203.4755,33.02075Q202.9545,32.618,202.3665,32.22025Q201.7785,31.822499999999998,201.2283,31.522ZM200.9802,41.8263Q201.4513,41.2475,202.0233,40.4382Q202.5952,39.6287,203.1943,38.722Q203.7933,37.8153,204.3088,36.9432L205.2378,37.734Q204.7665,38.5492,204.2275,39.4132Q203.68880000000001,40.2773,203.1385,41.1087Q202.5885,41.9403,202.0828,42.6588L200.9802,41.8263ZM210.5395,35.826Q210.879,37.575,211.5263,39.0278Q212.1738,40.4805,213.1985,41.5293Q214.2235,42.578,215.6917,43.1122Q215.5628,43.229,215.405,43.4195Q215.2475,43.61,215.1103,43.81Q214.9733,44.010000000000005,214.8815,44.1737Q213.341,43.5193,212.2863,42.3557Q211.2318,41.192,210.5605,39.587Q209.8895,37.982,209.4993,36.003L210.5395,35.826ZM209.4183,34.24025L210.6908,34.24025L210.6908,35.26325Q210.6908,36.0448,210.5965,36.951499999999996Q210.5023,37.858000000000004,210.19819999999999,38.8302Q209.8943,39.8022,209.2827,40.7695Q208.6712,41.7367,207.6465,42.65Q206.6217,43.563199999999995,205.068,44.3447Q204.98,44.203,204.816,44.0268Q204.6523,43.8505,204.4808,43.6803Q204.3092,43.5103,204.1518,43.4095Q205.627,42.6943,206.59199999999998,41.866Q207.5573,41.0375,208.126,40.16Q208.6948,39.2822,208.9733,38.412800000000004Q209.252,37.543,209.335,36.7355Q209.4183,35.928,209.4183,35.2385L209.4183,34.24025ZM218.5288,33.62025L223.1575,33.62025L223.1575,34.5585L218.5288,34.5585L218.5288,33.62025ZM218.5135,36.499L223.1423,36.499L223.1423,37.4122L218.5135,37.4122L218.5135,36.499ZM218.5003,39.5273L223.129,39.5273L223.129,40.4655L218.5003,40.4655L218.5003,39.5273ZM225.6343,37.131299999999996L231.2615,37.131299999999996L231.2615,38.179L225.6343,38.179L225.6343,37.131299999999996ZM219.365,30.9865L222.2293,30.9865L222.2293,31.94325L219.365,31.94325L219.365,30.9865ZM224.4687,30.37025L230.518,30.37025L230.518,31.389499999999998L224.4687,31.389499999999998L224.4687,30.37025ZM224.4808,40.1278L231.6728,40.1278L231.6728,41.1945L224.4808,41.1945L224.4808,40.1278ZM227.7308,35.604749999999996L228.8785,35.604749999999996L228.8785,44.2565L227.7308,44.2565L227.7308,35.604749999999996ZM220.5093,34.077L221.379,34.077L221.379,43.432L220.5093,43.432L220.5093,34.077ZM230.1505,30.37025L231.2323,30.37025Q231.2323,30.37025,231.22899999999998,30.536749999999998Q231.226,30.703,231.21,30.8205Q231.1585,32.1465,231.083,32.9785Q231.0075,33.8105,230.8955,34.2595Q230.7835,34.7085,230.60750000000002,34.90325Q230.44819999999999,35.097,230.2458,35.186Q230.0435,35.275,229.7332,35.3Q229.4905,35.3285,229.0322,35.325Q228.5742,35.3215,228.065,35.29575Q228.049,35.059,227.9813,34.775Q227.9135,34.49075,227.78730000000002,34.28875Q228.2635,34.3305,228.6675,34.34175Q229.0718,34.35275,229.2318,34.35275Q229.3988,34.3625,229.5125,34.335499999999996Q229.62630000000001,34.30825,229.69650000000001,34.21575Q229.8058,34.08425,229.886,33.6995Q229.9665,33.314750000000004,230.0308,32.55Q230.0953,31.785249999999998,230.1505,30.535L230.1505,30.37025ZM225.6758,35.63575L226.6925,35.83775Q226.4615,36.9452,226.0525,37.9755Q225.6437,39.0057,225.1372,39.7292Q225.0332,39.6535,224.8657,39.5588Q224.6985,39.464,224.5247,39.3755Q224.3512,39.287,224.215,39.2397Q224.735,38.557,225.0993,37.6042Q225.4635,36.6515,225.6758,35.63575ZM219.3355,29.548000000000002L220.4173,29.78125Q220.1292,30.856,219.7132,31.87925Q219.2972,32.9025,218.79500000000002,33.7915Q218.2928,34.68025,217.7168,35.3585Q217.6287,35.26075,217.4645,35.1285Q217.3003,34.99625,217.1247,34.86225Q216.9495,34.72825,216.8167,34.6525Q217.6753,33.730000000000004,218.324,32.377250000000004Q218.973,31.024250000000002,219.3355,29.548000000000002ZM218.0578,33.62025L219.0773,33.62025L219.0773,37.885999999999996Q219.0773,38.6112,219.0293,39.46Q218.9813,40.3085,218.8437,41.173Q218.7065,42.0375,218.4443,42.8447Q218.18200000000002,43.652,217.7472,44.320499999999996Q217.659,44.2288,217.4915,44.1232Q217.3242,44.017700000000005,217.15550000000002,43.9135Q216.987,43.8095,216.8605,43.762299999999996Q217.40449999999998,42.9107,217.6572,41.8883Q217.9103,40.8655,217.984,39.8207Q218.0578,38.7757,218.0578,37.8797L218.0578,33.62025ZM222.8262,33.62025L223.8358,33.62025L223.8358,42.9153Q223.8358,43.296,223.7465,43.5443Q223.6572,43.792699999999996,223.39929999999998,43.9315Q223.151,44.070499999999996,222.762,44.105000000000004Q222.3732,44.139700000000005,221.7637,44.139700000000005Q221.7415,43.919,221.6497,43.6192Q221.558,43.3197,221.4443,43.1115Q221.867,43.1275,222.1828,43.1275Q222.4985,43.1275,222.6077,43.1178Q222.8262,43.1178,222.8262,42.8965L222.8262,33.62025ZM226.753,30.698L227.8605,30.698Q227.7318,31.7905,227.425,32.75325Q227.11849999999998,33.716,226.4963,34.4775Q225.874,35.238749999999996,224.7982,35.74375Q224.6968,35.551249999999996,224.496,35.307249999999996Q224.2955,35.06325,224.1155,34.9245Q225.0693,34.5015,225.605,33.85325Q226.141,33.205,226.3985,32.39675Q226.6563,31.5885,226.753,30.698ZM222.0317,30.9865L222.265,30.9865L222.442,30.93575L223.1775,31.39675Q222.9953,31.89275,222.7537,32.428Q222.5125,32.96325,222.252,33.4585Q221.9915,33.9535,221.739,34.3305Q221.594,34.210499999999996,221.3522,34.0685Q221.1105,33.9265,220.9272,33.85425Q221.1423,33.48975,221.3522,33.0245Q221.5625,32.559,221.7425,32.071Q221.9225,31.583,222.0317,31.192L222.0317,30.9865ZM233.1242,30.77475L234.063,30.19775Q234.53050000000002,30.66725,235.0197,31.242Q235.5093,31.81675,235.9357,32.3725Q236.3625,32.92825,236.615,33.3655L235.59449999999998,34.05025Q235.3607,33.603,234.9512,33.03325Q234.542,32.46325,234.0667,31.868000000000002Q233.5918,31.272750000000002,233.1242,30.77475ZM232.9162,42.818Q233.3162,42.178,233.7998,41.2945Q234.2832,40.4107,234.781,39.4317Q235.279,38.4527,235.7012,37.5192L236.5925,38.2537Q236.2148,39.1205,235.7677,40.0538Q235.3208,40.987,234.85750000000002,41.8818Q234.3945,42.7763,233.9562,43.5462L232.9162,42.818ZM238.04399999999998,32.08625L246.094,32.08625L246.094,37.4745L244.9437,37.4745L244.9437,33.234L238.04399999999998,33.234L238.04399999999998,32.08625ZM237.2122,36.9322L247.7013,36.9322L247.7013,38.0925L237.2122,38.0925L237.2122,36.9322ZM242.9195,37.2975Q243.44819999999999,39.4303,244.6458,40.9815Q245.8433,42.5327,247.8003,43.2083Q247.6712,43.325,247.5168,43.512299999999996Q247.3623,43.699799999999996,247.225,43.8935Q247.088,44.087199999999996,246.99,44.251000000000005Q245.6175,43.6917,244.6087,42.739000000000004Q243.6,41.786,242.9193,40.471199999999996Q242.2385,39.1565,241.8358,37.528L242.9195,37.2975ZM241.2485,29.587L242.5023,29.587L242.5023,34.905Q242.5023,35.84825,242.4053,36.8622Q242.3083,37.876,242.0192,38.8855Q241.7305,39.8947,241.1465,40.866Q240.5625,41.837,239.59,42.7108Q238.6178,43.5845,237.162,44.3178Q237.0802,44.179,236.9275,43.9995Q236.7747,43.82,236.6095,43.646699999999996Q236.4443,43.4735,236.30270000000002,43.357Q237.73,42.7153,238.6533,41.9268Q239.5768,41.138,240.1085,40.2582Q240.6405,39.378299999999996,240.8823,38.4683Q241.124,37.558,241.18619999999999,36.6547Q241.2485,35.75125,241.2485,34.90875L241.2485,29.587ZM255.6793,38.4548L256.9457,38.4548L256.9457,44.2733L255.6793,44.2733L255.6793,38.4548ZM249.1318,39.7695L263.5092,39.7695L263.5092,40.8888L249.1318,40.8888L249.1318,39.7695ZM249.44920000000002,31.00175L263.3705,31.00175L263.3705,32.10225L249.44920000000002,32.10225L249.44920000000002,31.00175ZM261.575,32.712L262.584,33.31825Q262.0363,33.872,261.3887,34.41325Q260.7415,34.954499999999996,260.1835,35.3455L259.301,34.764250000000004Q259.6698,34.4985,260.08820000000003,34.143Q260.507,33.7875,260.9015,33.40975Q261.296,33.032,261.575,32.712ZM257.12919999999997,35.913L258.0188,35.542Q258.3875,35.951,258.75149999999996,36.4432Q259.1155,36.9352,259.4202,37.4032Q259.725,37.8713,259.892,38.2545L258.93330000000003,38.6798Q258.7883,38.303,258.4977,37.819Q258.20730000000003,37.3347,257.8525,36.8315Q257.498,36.3282,257.12919999999997,35.913ZM249.2087,37.6055Q249.9573,37.2907,251.0192,36.8Q252.0815,36.309,253.1722,35.789L253.4128,36.6882Q252.4928,37.195,251.5525,37.6855Q250.6123,38.176,249.815,38.5732L249.2087,37.6055ZM249.6762,33.419L250.49,32.76275Q250.91930000000002,33.00975,251.388,33.327Q251.857,33.64425,252.2712,33.96775Q252.6855,34.29125,252.95749999999998,34.567L252.0965,35.30225Q251.8467,35.02675,251.4417,34.69225Q251.037,34.3575,250.57420000000002,34.018Q250.11169999999998,33.6785,249.6762,33.419ZM259.1415,36.478L259.997,35.8255Q260.5383,36.1302,261.1413,36.5212Q261.7445,36.9122,262.2915,37.3065Q262.8388,37.7008,263.197,38.0243L262.2978,38.7463Q261.968,38.4228,261.435,38.0225Q260.90229999999997,37.622,260.3005,37.2137Q259.6988,36.8053,259.1415,36.478ZM253.7207,35.26675Q253.6923,35.15275,253.63400000000001,34.9615Q253.57580000000002,34.769999999999996,253.50920000000002,34.5775Q253.44299999999998,34.38475,253.3798,34.252Q253.5523,34.21375,253.7295,34.076499999999996Q253.90699999999998,33.939,254.0928,33.731Q254.2305,33.587,254.52870000000001,33.2155Q254.827,32.844,255.1765,32.33175Q255.5263,31.81925,255.7893,31.291249999999998L256.8282,31.71125Q256.30920000000003,32.560249999999996,255.66649999999998,33.34375Q255.0238,34.127250000000004,254.40949999999998,34.68725L254.40949999999998,34.71575Q254.40949999999998,34.71575,254.303,34.76475Q254.19670000000002,34.81375,254.065,34.89925Q253.93349999999998,34.98475,253.827,35.08125Q253.7207,35.17775,253.7207,35.26675ZM253.7207,35.26675L253.7145,34.439L254.30450000000002,34.0935L257.432,33.909Q257.359,34.1235,257.3002,34.408Q257.2415,34.69225,257.2095,34.87225Q256.168,34.94325,255.5257,35.00275Q254.8838,35.06225,254.5255,35.10225Q254.1673,35.142250000000004,253.9932,35.1855Q253.8195,35.2285,253.7207,35.26675ZM253.40699999999998,38.4632Q253.3785,38.349199999999996,253.3185,38.162800000000004Q253.2585,37.9762,253.192,37.7725Q253.1257,37.568799999999996,253.0625,37.42Q253.3303,37.3755,253.65030000000002,37.161Q253.9703,36.9462,254.373,36.6102Q254.59699999999998,36.434200000000004,255.03199999999998,36.0357Q255.4672,35.637,256.01300000000003,35.09125Q256.5587,34.545500000000004,257.1302,33.90375Q257.7018,33.262,258.2048,32.59625L259.1715,33.158Q257.9993,34.5285,256.7025,35.76275Q255.406,36.996700000000004,254.127,37.8962L254.127,37.931Q254.127,37.931,254.01749999999998,37.980000000000004Q253.90800000000002,38.028999999999996,253.767,38.1112Q253.626,38.1935,253.5165,38.284Q253.40699999999998,38.3743,253.40699999999998,38.4632ZM253.40699999999998,38.4632L253.382,37.6353L253.9942,37.2677L258.8962,36.8635Q258.8747,37.0815,258.8692,37.35Q258.86379999999997,37.6185,258.8773,37.792Q257.1663,37.9555,256.1415,38.0595Q255.1168,38.1635,254.56650000000002,38.2307Q254.0163,38.2978,253.77530000000002,38.350300000000004Q253.5342,38.4028,253.40699999999998,38.4632ZM255.2705,29.7485L256.44079999999997,29.445Q256.7483,29.83875,257.0443,30.32725Q257.3402,30.8155,257.4905,31.17725L256.27570000000003,31.56275Q256.13800000000003,31.19475,255.845,30.67975Q255.5523,30.1645,255.2705,29.7485Z" fill="#4B5563" fill-opacity="1" style="mix-blend-mode:passthrough"/></g></g><g><rect x="183.078125" y="58" width="82.5" height="36" rx="0" fill="#000000" fill-opacity="0" style="mix-blend-mode:passthrough"/><g><path d="M187.525985,82.7865L187.814375,82.7865Q189.562575,82.7865,190.828755,82.3557Q192.095155,81.9248,192.915925,81.1044Q193.736725,80.2839,194.133825,79.0935Q194.531125,77.9028,194.531125,76.3737L194.531125,72.333Q194.531125,71.1705,194.305725,70.2957Q194.080425,69.4209,193.665525,68.838Q193.250825,68.2548,192.696885,67.96365Q192.143215,67.67229,191.481755,67.67229Q190.782285,67.67229,190.240985,68.0161Q189.699905,68.3598,189.323625,68.9492Q188.947345,69.5386,188.753025,70.293Q188.558925,71.0474,188.558925,71.85849999999999Q188.558925,72.6917,188.748445,73.4314Q188.938185,74.1712,189.317445,74.7351Q189.696705,75.2989,190.272795,75.6223Q190.849125,75.9454,191.622055,75.9454Q192.371415,75.9454,192.961245,75.666Q193.551325,75.3863,193.970425,74.9127Q194.389425,74.4389,194.614025,73.8663Q194.838725,73.2936,194.847725,72.7075L196.236125,73.4717Q196.236125,74.49889999999999,195.794525,75.49459999999999Q195.353325,76.49,194.573025,77.3029Q193.793025,78.1159,192.764635,78.6003Q191.736265,79.0846,190.567135,79.0846Q189.074605,79.0846,187.912335,78.5389Q186.750075,77.993,185.955625,77.0173Q185.161405,76.0416,184.752855,74.7349Q184.344525,73.428,184.344525,71.9059Q184.344525,70.3527,184.848755,68.99Q185.352985,67.6272,186.297115,66.58922Q187.241255,65.55124,188.563275,64.96027Q189.885525,64.36906,191.511505,64.36906Q193.143925,64.36906,194.472525,64.99734Q195.801425,65.6254,196.758425,66.77644Q197.715325,67.92749,198.235125,69.5253Q198.75492500000001,71.1229,198.75492500000001,73.0663L198.75492500000001,74.5342Q198.75492500000001,76.6062,198.309325,78.3972Q197.863625,80.1882,196.977625,81.6268Q196.091625,83.06530000000001,194.779925,84.09Q193.468425,85.1147,191.738785,85.6615Q190.009125,86.2081,187.873885,86.2081L187.525985,86.2081L187.525985,82.7865ZM216.694925,78.0381L216.694925,81.3368L201.324325,81.3368L201.125925,78.7772L210.011825,64.67188L213.365125,64.67188L209.731425,70.7457L205.313725,78.0381L216.694925,78.0381ZM214.277025,64.67188L214.277025,86L210.058525,86L210.058525,64.67188L214.277025,64.67188ZM219.343325,83.9689Q219.343325,83.03229999999999,219.998825,82.3974Q220.654325,81.7625,221.73262499999998,81.7625Q222.820925,81.7625,223.471425,82.3974Q224.121925,83.03229999999999,224.121925,83.9689Q224.121925,84.90090000000001,223.471425,85.5335Q222.820925,86.1659,221.73262499999998,86.1659Q220.654325,86.1659,219.998825,85.5335Q219.343325,84.90090000000001,219.343325,83.9689ZM242.257825,82.7016L242.257825,86L227.672525,86L227.672525,83.1882L234.570625,75.7969Q235.601725,74.6294,236.207825,73.7452Q236.814125,72.8608,237.079825,72.1469Q237.345525,71.4328,237.345525,70.7965Q237.345525,69.83109999999999,237.022625,69.133Q236.699625,68.4349,236.078025,68.0513Q235.456625,67.66748,234.558025,67.66748Q233.58362499999998,67.66748,232.89192500000001,68.1424Q232.200325,68.6173,231.835725,69.45Q231.471025,70.2825,231.471025,71.3385L227.242725,71.3385Q227.242725,69.4276,228.147725,67.84418Q229.05292500000002,66.26054,230.714825,65.3148Q232.376725,64.36906,234.637425,64.36906Q236.887125,64.36906,238.431825,65.09439Q239.976525,65.81972,240.775325,67.17104Q241.574125,68.5221,241.574125,70.3948Q241.574125,71.4514,241.234225,72.4555Q240.894625,73.4596,240.270925,74.4465Q239.647225,75.4334,238.773125,76.4456Q237.899225,77.4577,236.820925,78.54990000000001L233.112825,82.7016L242.257825,82.7016ZM244.814225,69.9014L244.814225,68.7734Q244.814225,67.55762,245.341525,66.56152Q245.868925,65.56543,246.900025,64.96484Q247.931125,64.36426,249.427525,64.36426Q250.963325,64.36426,251.99192499999998,64.96484Q253.020725,65.56543,253.543025,66.56152Q254.065625,67.55762,254.065625,68.7734L254.065625,69.9014Q254.065625,71.0879,253.545625,72.084Q253.02552500000002,73.0801,252.001725,73.6807Q250.978025,74.2812,249.45682499999998,74.2812Q247.94572499999998,74.2812,246.912125,73.6807Q245.878725,73.0801,245.346325,72.084Q244.814225,71.0879,244.814225,69.9014ZM247.61452500000001,68.7734L247.61452500000001,69.9014Q247.61452500000001,70.4164,247.816225,70.878Q248.018125,71.3397,248.43122499999998,71.6239Q248.844525,71.908,249.45682499999998,71.908Q250.079125,71.908,250.472625,71.6239Q250.86632500000002,71.3397,251.06062500000002,70.878Q251.25512500000002,70.4164,251.25512500000002,69.9014L251.25512500000002,68.7734Q251.25512500000002,68.2337,251.058325,67.76979Q250.861525,67.30584999999999,250.455625,67.0218Q250.049825,66.73752999999999,249.427525,66.73752999999999Q248.829925,66.73752999999999,248.423925,67.0218Q248.018125,67.30584999999999,247.816225,67.76979Q247.61452500000001,68.2337,247.61452500000001,68.7734ZM255.02122500000002,81.9032L255.02122500000002,80.7705Q255.02122500000002,79.5693,255.55352499999998,78.5732Q256.085925,77.5771,257.121825,76.9766Q258.158025,76.376,259.654425,76.376Q261.190225,76.376,262.214025,76.9766Q263.237825,77.5771,263.760125,78.5732Q264.282425,79.5693,264.282425,80.7705L264.282425,81.9032Q264.282425,83.1044,263.762425,84.1005Q263.242425,85.0966,262.22362499999997,85.6972Q261.204925,86.2978,259.683725,86.2978Q258.172625,86.2978,257.131425,85.6972Q256.090525,85.0966,255.555825,84.1005Q255.02122500000002,83.1044,255.02122500000002,81.9032ZM257.83162500000003,80.7705L257.83162500000003,81.9032Q257.83162500000003,82.4281,258.063025,82.8922Q258.294625,83.3562,258.712825,83.6405Q259.131025,83.9245,259.683725,83.9245Q260.395325,83.9245,260.786225,83.6405Q261.17742499999997,83.3562,261.332125,82.8945Q261.486825,82.4329,261.486825,81.9032L261.486825,80.7705Q261.486825,80.2409,261.285025,79.7792Q261.083325,79.3176,260.677325,79.0335Q260.271525,78.7493,259.654425,78.7493Q259.046725,78.7493,258.640925,79.0335Q258.235125,79.3176,258.033225,79.7792Q257.83162500000003,80.2409,257.83162500000003,80.7705ZM260.705425,67.72400999999999L250.290425,84.3939L248.24102499999998,83.298L258.656025,66.62813L260.705425,67.72400999999999Z" fill="#4F46E5" fill-opacity="1" style="mix-blend-mode:passthrough"/></g></g><g><rect x="202.234375" y="102" width="44.171875" height="20" rx="0" fill="#000000" fill-opacity="0" style="mix-blend-mode:passthrough"/><g clip-path="url(#master_svg1_16_18629)"><g transform="matrix(1,0,0,-1,0,236.8515625)"><g><path d="M208.113285,130.42968125Q207.839845,130.67578125,207.484375,130.67578125Q207.128905,130.67578125,206.855465,130.42968125L202.480469,126.05469125Q202.234375,125.78125125,202.234375,125.42578125Q202.234375,125.07031125,202.480469,124.79687125Q202.753906,124.55078125,203.109375,124.55078125Q203.464845,124.55078125,203.738285,124.79687125L206.609375,127.69531125L206.609375,119.30078125Q206.609375,118.91796925,206.855465,118.67187525Q207.101565,118.42578125,207.484375,118.42578125Q207.867185,118.42578125,208.113285,118.67187525Q208.359375,118.91796925,208.359375,119.30078125L208.359375,127.69531125L211.230465,124.79687125Q211.503905,124.55078125,211.859375,124.55078125Q212.214845,124.55078125,212.488275,124.79687125Q212.734375,125.07031125,212.734375,125.42578125Q212.734375,125.78125125,212.488275,126.05469125L208.113285,130.42968125Z" fill="#22C55E" fill-opacity="1" style="mix-blend-mode:passthrough"/></g></g></g><g><path d="M219.161135,112.2627L218.149415,112.0029L218.648435,107.04688L223.754885,107.04688L223.754885,108.21582L219.721675,108.21582L219.420895,110.92285Q219.694335,110.76562,220.114745,110.62891Q220.535155,110.49219,221.082035,110.49219Q221.772465,110.49219,222.319335,110.72803Q222.866215,110.96387,223.252445,111.40137Q223.638675,111.83887,223.843755,112.4541Q224.048825,113.0693,224.048825,113.8281Q224.048825,114.5459,223.854005,115.14750000000001Q223.659175,115.749,223.269535,116.1968Q222.879885,116.6445,222.288575,116.8906Q221.697265,117.1367,220.897465,117.1367Q220.295895,117.1367,219.759275,116.9692Q219.222655,116.8018,218.802245,116.4565Q218.381835,116.1113,218.118655,115.5952Q217.855465,115.0791,217.787105,114.3818L218.990235,114.3818Q219.072265,114.94239999999999,219.318355,115.3252Q219.564455,115.708,219.964355,115.9028Q220.364255,116.0977,220.897465,116.0977Q221.348635,116.0977,221.697265,115.9404Q222.045895,115.7832,222.285155,115.4893Q222.524415,115.1953,222.650875,114.7783Q222.777345,114.3613,222.777345,113.8418Q222.777345,113.37010000000001,222.647465,112.9668Q222.517575,112.5635,222.261235,112.2627Q222.004885,111.96191,221.635745,111.79443Q221.266605,111.62695,220.788085,111.62695Q220.152345,111.62695,219.827635,111.79785Q219.502925,111.96875,219.161135,112.2627ZM225.586915,116.3301Q225.586915,116.00880000000001,225.788575,115.78659999999999Q225.990235,115.5645,226.373045,115.5645Q226.755875,115.5645,226.957475,115.78659999999999Q227.159175,116.00880000000001,227.159175,116.3301Q227.159175,116.6445,226.957475,116.8633Q226.755875,117.082,226.373045,117.082Q225.990235,117.082,225.788575,116.8633Q225.586915,116.6445,225.586915,116.3301ZM233.277375,106.99219L233.277375,117L232.012675,117L232.012675,108.57129L229.462875,109.50098L229.462875,108.35938L233.079075,106.99219L233.277375,106.99219ZM236.879875,109.4873L236.879875,108.96094Q236.879875,108.39355,237.125975,107.92871Q237.372075,107.46387,237.830075,107.18359Q238.288075,106.90332,238.916975,106.90332Q239.559575,106.90332,240.014175,107.18359Q240.468775,107.46387,240.714875,107.92871Q240.960975,108.39355,240.960975,108.96094L240.960975,109.4873Q240.960975,110.04102,240.718275,110.50586Q240.475575,110.9707,240.020975,111.25098Q239.566375,111.53125,238.930675,111.53125Q238.294875,111.53125,237.833475,111.25098Q237.372075,110.9707,237.125975,110.50586Q236.879875,110.04102,236.879875,109.4873ZM237.830075,108.96094L237.830075,109.4873Q237.830075,109.80176,237.949675,110.08203Q238.069375,110.3623,238.315475,110.53662Q238.561475,110.71094,238.930675,110.71094Q239.299775,110.71094,239.539075,110.53662Q239.778275,110.3623,239.894575,110.08203Q240.010775,109.80176,240.010775,109.4873L240.010775,108.96094Q240.010775,108.63965,239.891075,108.35596Q239.771475,108.07227,239.528775,107.89795Q239.28617500000001,107.72363,238.916975,107.72363Q238.554675,107.72363,238.311975,107.89795Q238.069375,108.07227,237.949675,108.35596Q237.830075,108.63965,237.830075,108.96094ZM241.726575,115.0928L241.726575,114.5596Q241.726575,113.999,241.972675,113.5342Q242.218775,113.0693,242.676775,112.7891Q243.134775,112.50880000000001,243.763675,112.50880000000001Q244.406275,112.50880000000001,244.860875,112.7891Q245.315475,113.0693,245.561475,113.5342Q245.80757499999999,113.999,245.80757499999999,114.5596L245.80757499999999,115.0928Q245.80757499999999,115.6533,245.564975,116.1182Q245.322275,116.583,244.867675,116.8633Q244.413075,117.14359999999999,243.777375,117.14359999999999Q243.141575,117.14359999999999,242.683575,116.8633Q242.225575,116.583,241.976075,116.1182Q241.726575,115.6533,241.726575,115.0928ZM242.676775,114.5596L242.676775,115.0928Q242.676775,115.4072,242.796375,115.6909Q242.915975,115.9746,243.16207500000002,116.1489Q243.408175,116.3232,243.777375,116.3232Q244.146475,116.3232,244.389175,116.1489Q244.631875,115.9746,244.748075,115.6943Q244.864275,115.4141,244.864275,115.0928L244.864275,114.5596Q244.864275,114.2383,244.744675,113.958Q244.624975,113.6777,244.382275,113.5034Q244.139675,113.3291,243.763675,113.3291Q243.401375,113.3291,243.158675,113.5034Q242.915975,113.6777,242.796375,113.958Q242.676775,114.2383,242.676775,114.5596ZM244.078175,108.46191L239.217775,116.24119999999999L238.506875,115.78999999999999L243.367175,108.01074L244.078175,108.46191Z" fill="#22C55E" fill-opacity="1" style="mix-blend-mode:passthrough"/></g></g></g></svg>