<svg xmlns="http://www.w3.org/2000/svg" xmlns:xlink="http://www.w3.org/1999/xlink" fill="none" version="1.1" width="448.65625" height="150" viewBox="0 0 448.65625 150"><defs><filter id="master_svg0_16_18646" filterUnits="objectBoundingBox" color-interpolation-filters="sRGB" x="-0.009036357218496294" y="-0.020833333333333332" width="1.0180727144369925" height="1.0555555555555556"><feFlood flood-opacity="0" result="BackgroundImageFix"/><feColorMatrix in="SourceAlpha" type="matrix" values="0 0 0 0 0 0 0 0 0 0 0 0 0 0 0 0 0 0 127 0"/><feOffset dy="1" dx="0"/><feGaussianBlur stdDeviation="1"/><feColorMatrix type="matrix" values="0 0 0 0 0 0 0 0 0 0 0 0 0 0 0 0 0 0 0.05000000074505806 0"/><feBlend mode="normal" in2="BackgroundImageFix" result="effect1_dropShadow"/><feBlend mode="normal" in="SourceGraphic" in2="effect1_dropShadow" result="shape"/></filter><clipPath id="master_svg1_16_18662"><rect x="198.3125" y="105" width="10.5" height="14" rx="0"/></clipPath></defs><g filter="url(#master_svg0_16_18646)"><rect x="3" y="2" width="442.65625" height="144" rx="12" fill="#FFFFFF" fill-opacity="1" style="mix-blend-mode:passthrough"/><rect x="3" y="2" width="442.65625" height="144" rx="12" fill="#000000" fill-opacity="0.0010000000474974513" style="mix-blend-mode:passthrough"/><g><rect x="184.3125" y="26" width="80.015625" height="24" rx="0" fill="#000000" fill-opacity="0" style="mix-blend-mode:passthrough"/><g><path d="M185.34875,32.934L199.3083,32.934L199.3083,34.15025L185.34875,34.15025L185.34875,32.934ZM187.932,40.0667L196.6715,40.0667L196.6715,41.283L187.932,41.283L187.932,40.0667ZM191.6695,29.57375L192.92975,29.57375L192.92975,44.275999999999996L191.6695,44.275999999999996L191.6695,29.57375ZM190.51,33.33575L191.6,33.66425Q190.994,35.3335,190.09675,36.8625Q189.19975,38.3915,188.1045,39.644999999999996Q187.00925,40.8985,185.7925,41.7378Q185.698,41.5865,185.5405,41.4052Q185.383,41.224000000000004,185.219,41.054Q185.05525,40.8837,184.91,40.7673Q186.08325,40.048,187.15475,38.8765Q188.2265,37.705,189.09675,36.269999999999996Q189.96725,34.835,190.51,33.33575ZM194.051,33.38375Q194.5938,34.8775,195.4658,36.2827Q196.338,37.6877,197.4408,38.823Q198.5435,39.958,199.7528,40.6575Q199.6015,40.7805,199.422,40.96Q199.2425,41.1392,199.08350000000002,41.333Q198.9248,41.5267,198.8143,41.6967Q197.5735,40.893,196.4725,39.6525Q195.3718,38.411699999999996,194.4773,36.8842Q193.583,35.35675,192.977,33.7025L194.051,33.38375ZM204.37630000000001,30.40475L212.715,30.40475L212.715,31.57375L204.37630000000001,31.57375L204.37630000000001,30.40475ZM204.3727,34.2615L212.7853,34.2615L212.7853,35.4055L204.3727,35.4055L204.3727,34.2615ZM204.2405,38.1225L212.706,38.1225L212.706,39.2855L204.2405,39.2855L204.2405,38.1225ZM203.62630000000001,30.40475L204.8452,30.40475L204.8452,35.3425Q204.8452,36.3825,204.735,37.5645Q204.6248,38.7463,204.3048,39.957Q203.9848,41.167699999999996,203.3558,42.2815Q202.727,43.3953,201.6898,44.295500000000004Q201.6017,44.163,201.4395,43.9928Q201.2775,43.8228,201.098,43.665Q200.9185,43.5075,200.7798,43.4255Q201.7475,42.572500000000005,202.318,41.5693Q202.8888,40.565799999999996,203.1707,39.497Q203.453,38.428200000000004,203.5395,37.3645Q203.62630000000001,36.3007,203.62630000000001,35.33625L203.62630000000001,30.40475ZM212.1868,30.40475L213.4468,30.40475L213.4468,42.5042Q213.4468,43.1485,213.2542,43.4825Q213.0618,43.8167,212.6098,43.978Q212.1455,44.1355,211.3208,44.1733Q210.4963,44.2113,209.2057,44.2113Q209.171,44.025,209.08429999999998,43.7965Q208.9975,43.5683,208.8983,43.3398Q208.799,43.1115,208.6948,42.9443Q209.363,42.966499999999996,209.9798,42.9727Q210.5965,42.9788,211.0525,42.974000000000004Q211.5085,42.969,211.6908,42.969Q211.9725,42.959199999999996,212.0795,42.855199999999996Q212.1868,42.7512,212.1868,42.4918L212.1868,30.40475ZM219.9405,34.25625L228.6452,34.25625L228.6452,35.36925L219.9405,35.36925L219.9405,34.25625ZM217.21,37.233000000000004L231.4015,37.233000000000004L231.4015,38.3647L217.21,38.3647L217.21,37.233000000000004ZM221.5488,37.954L222.7713,37.954Q222.69400000000002,39.3127,222.463,40.349199999999996Q222.232,41.3855,221.699,42.1507Q221.166,42.916,220.1925,43.440799999999996Q219.2192,43.9657,217.65449999999998,44.295500000000004Q217.6135,44.138000000000005,217.50130000000001,43.955200000000005Q217.3893,43.772800000000004,217.2583,43.5933Q217.1275,43.414,217.01069999999999,43.300799999999995Q218.4375,43.0245,219.3102,42.5923Q220.183,42.16,220.645,41.5252Q221.1073,40.8905,221.2972,40.007Q221.4873,39.1233,221.5488,37.954ZM225.5525,37.908L226.75900000000001,37.908L226.75900000000001,42.3692Q226.75900000000001,42.7108,226.899,42.811800000000005Q227.039,42.9125,227.53379999999999,42.9125Q227.6528,42.9125,227.951,42.9125Q228.2495,42.9125,228.614,42.9125Q228.9788,42.9125,229.298,42.9125Q229.6172,42.9125,229.77179999999998,42.9125Q230.074,42.9125,230.228,42.769999999999996Q230.3823,42.627300000000005,230.44299999999998,42.168800000000005Q230.504,41.71,230.5263,40.789500000000004Q230.6688,40.8872,230.861,40.9805Q231.0532,41.073499999999996,231.263,41.146Q231.4728,41.2185,231.6302,41.2692Q231.567,42.361999999999995,231.39249999999998,42.9657Q231.2183,43.5693,230.8638,43.799Q230.5093,44.028999999999996,229.869,44.028999999999996Q229.748,44.028999999999996,229.4038,44.028999999999996Q229.0595,44.028999999999996,228.6393,44.028999999999996Q228.2192,44.028999999999996,227.8717,44.028999999999996Q227.5245,44.028999999999996,227.4098,44.028999999999996Q226.6722,44.028999999999996,226.2715,43.8853Q225.871,43.7415,225.71179999999998,43.378699999999995Q225.5525,43.0163,225.5525,42.3755L225.5525,37.908ZM217.61950000000002,31.39275L230.9673,31.39275L230.9673,34.946L229.726,34.946L229.726,32.553L218.8172,32.553L218.8172,34.946L217.61950000000002,34.946L217.61950000000002,31.39275ZM223.046,29.76725L224.2552,29.411Q224.5885,29.9355,224.9063,30.57375Q225.224,31.212,225.375,31.669L224.10320000000002,32.0695Q223.971,31.625,223.6738,30.9665Q223.3765,30.30775,223.046,29.76725ZM235.0472,35.557L239.0225,35.557L239.0225,36.673500000000004L235.0472,36.673500000000004L235.0472,35.557ZM238.5522,35.557L239.7153,35.557Q239.7153,35.557,239.7153,35.6505Q239.7153,35.74375,239.712,35.8675Q239.709,35.99125,239.709,36.070499999999996Q239.6735,37.8682,239.6205,38.9795Q239.5677,40.0905,239.4735,40.669200000000004Q239.3792,41.2478,239.2067,41.4648Q239.019,41.69,238.79930000000002,41.7852Q238.5798,41.8802,238.24099999999999,41.9213Q237.9308,41.956,237.41649999999998,41.9525Q236.9025,41.949,236.3133,41.9198Q236.2972,41.661500000000004,236.209,41.3433Q236.1208,41.024699999999996,235.982,40.7978Q236.5255,40.849199999999996,237.0018,40.8605Q237.478,40.8715,237.6797,40.8715Q237.8495,40.8715,237.9712,40.838300000000004Q238.09300000000002,40.8048,238.1792,40.7025Q238.3045,40.555,238.372,40.0518Q238.4395,39.5483,238.483,38.516999999999996Q238.5265,37.4855,238.5522,35.75625L238.5522,35.557ZM243.05,30.362000000000002L243.775,29.62375Q244.2788,29.87075,244.8288,30.19625Q245.379,30.5215,245.8645,30.84675Q246.3503,31.172,246.66129999999998,31.45375L245.90879999999999,32.27375Q245.6103,31.992,245.129,31.6495Q244.6478,31.30675,244.1058,30.96725Q243.56380000000001,30.62775,243.05,30.362000000000002ZM245.3485,34.7035L246.5488,35Q245.5275,38.1297,243.7508,40.438Q241.974,42.746300000000005,239.5208,44.1987Q239.439,44.069500000000005,239.2765,43.8853Q239.114,43.701,238.947,43.5165Q238.78,43.332300000000004,238.6413,43.2157Q241.0762,41.9215,242.7617,39.7572Q244.44729999999998,37.593,245.3485,34.7035ZM235.1398,32.275999999999996L247.528,32.275999999999996L247.528,33.45125L235.1398,33.45125L235.1398,32.275999999999996ZM234.3623,32.275999999999996L235.6097,32.275999999999996L235.6097,36.789500000000004Q235.6097,37.6392,235.5457,38.6292Q235.4818,39.6192,235.3075,40.6493Q235.1333,41.6792,234.79399999999998,42.641Q234.45499999999998,43.6025,233.90120000000002,44.3892Q233.80700000000002,44.2663,233.6162,44.107299999999995Q233.4258,43.9482,233.232,43.8035Q233.0385,43.6588,232.8932,43.5895Q233.5633,42.6065,233.8713,41.4195Q234.1792,40.2323,234.2708,39.022999999999996Q234.3623,37.8135,234.3623,36.7735L234.3623,32.275999999999996ZM241.0125,29.58L242.26,29.58Q242.251,31.7945,242.423,33.796Q242.595,35.79725,242.9193,37.4683Q243.24349999999998,39.1392,243.6948,40.3643Q244.1463,41.5892,244.7005,42.2638Q245.255,42.938,245.8698,42.938Q246.2173,42.938,246.3855,42.2558Q246.554,41.573499999999996,246.618,39.981Q246.8228,40.176,247.121,40.3617Q247.4193,40.547200000000004,247.65879999999999,40.6355Q247.551,42.001999999999995,247.345,42.7725Q247.139,43.542699999999996,246.7658,43.853300000000004Q246.3927,44.164,245.77519999999998,44.164Q244.9673,44.164,244.299,43.621300000000005Q243.631,43.0785,243.10649999999998,42.0898Q242.582,41.101,242.1963,39.7475Q241.8105,38.394,241.551,36.7647Q241.29149999999998,35.13525,241.16,33.314Q241.0285,31.49275,241.0125,29.58ZM249.978,31.36275L262.718,31.36275L262.718,32.604L249.978,32.604L249.978,31.36275ZM249.1442,41.850300000000004L263.5218,41.850300000000004L263.5218,43.0505L249.1442,43.0505L249.1442,41.850300000000004ZM255.6073,31.99075L256.942,31.99075L256.942,42.3487L255.6073,42.3487L255.6073,31.99075ZM271.6563,32.8805L272.895,32.8805L272.895,44.2607L271.6563,44.2607L271.6563,32.8805ZM267.85450000000003,36.0112L267.85450000000003,37.733000000000004L276.8672,37.733000000000004L276.8672,36.0112L267.85450000000003,36.0112ZM267.85450000000003,33.346000000000004L267.85450000000003,35.048249999999996L276.8672,35.048249999999996L276.8672,33.346000000000004L267.85450000000003,33.346000000000004ZM266.6852,32.323L278.0963,32.323L278.0963,38.7525L266.6852,38.7525L266.6852,32.323ZM265.1728,40.274699999999996L279.494,40.274699999999996L279.494,41.394L265.1728,41.394L265.1728,40.274699999999996ZM268.08050000000003,30.10425L269.101,29.628Q269.58799999999997,30.163,270.0843,30.8305Q270.5807,31.498,270.8207,32.00025L269.7505,32.54325Q269.5192,32.0535,269.0403,31.35575Q268.5612,30.658,268.08050000000003,30.10425ZM275.658,29.63L276.95799999999997,30.0535Q276.479,30.82075,275.92650000000003,31.612000000000002Q275.374,32.403,274.9092,32.954L273.8832,32.55875Q274.1848,32.1685,274.5182,31.653Q274.852,31.1375,275.1555,30.603Q275.459,30.06825,275.658,29.63Z" fill="#4B5563" fill-opacity="1" style="mix-blend-mode:passthrough"/></g></g><g><rect x="186.234375" y="58" width="76.171875" height="36" rx="0" fill="#000000" fill-opacity="0" style="mix-blend-mode:passthrough"/><g><path d="M202.289075,82.7016L202.289075,86L187.703795,86L187.703795,83.1882L194.601835,75.7969Q195.632945,74.6294,196.239075,73.7452Q196.845375,72.8608,197.111075,72.1469Q197.376775,71.4328,197.376775,70.7965Q197.376775,69.83109999999999,197.053875,69.133Q196.730875,68.4349,196.109255,68.0513Q195.487835,67.66748,194.589245,67.66748Q193.614895,67.66748,192.923215,68.1424Q192.231535,68.6173,191.866925,69.45Q191.502315,70.2825,191.502315,71.3385L187.273955,71.3385Q187.273955,69.4276,188.178955,67.84418Q189.084185,66.26054,190.746095,65.3148Q192.408005,64.36906,194.668675,64.36906Q196.918375,64.36906,198.463075,65.09439Q200.007775,65.81972,200.806575,67.17104Q201.605375,68.5221,201.605375,70.3948Q201.605375,71.4514,201.265475,72.4555Q200.925875,73.4596,200.302175,74.4465Q199.678475,75.4334,198.804375,76.4456Q197.930475,77.4577,196.852175,78.54990000000001L193.144085,82.7016L202.289075,82.7016ZM219.281475,80.1589Q219.281475,82.1669,218.340775,83.5368Q217.400275,84.9066,215.770175,85.5999Q214.140075,86.293,212.072375,86.293Q210.014475,86.293,208.372075,85.5999Q206.729875,84.9066,205.776775,83.5368Q204.823675,82.1669,204.823675,80.1589Q204.823675,78.8053,205.363875,77.7136Q205.90427499999998,76.6216,206.879475,75.8406Q207.854975,75.0594,209.172275,74.6422Q210.489475,74.2249,212.043075,74.2249Q214.124975,74.2249,215.762375,74.9597Q217.399875,75.69409999999999,218.340575,77.0223Q219.281475,78.3505,219.281475,80.1589ZM215.038275,79.8721Q215.038275,78.89410000000001,214.664475,78.1871Q214.290675,77.4799,213.615975,77.0963Q212.941175,76.7127,212.043075,76.7127Q211.145375,76.7127,210.472775,77.0963Q209.800275,77.4799,209.426275,78.1871Q209.052275,78.89410000000001,209.052275,79.8721Q209.052275,80.8447,209.428775,81.5476Q209.805275,82.2502,210.482575,82.6224Q211.160075,82.99459999999999,212.072375,82.99459999999999Q212.984675,82.99459999999999,213.649575,82.6224Q214.314775,82.2502,214.676375,81.5476Q215.038275,80.8447,215.038275,79.8721ZM218.82307500000002,70.32300000000001Q218.82307500000002,71.9551,217.958075,73.2053Q217.093175,74.4552,215.56787500000002,75.1581Q214.042875,75.861,212.072375,75.861Q210.102375,75.861,208.564975,75.1581Q207.027575,74.4552,206.157375,73.2053Q205.287175,71.9551,205.287175,70.32300000000001Q205.287175,68.393,206.159675,67.06963999999999Q207.032175,65.74602,208.562275,65.05754Q210.092375,64.36906,212.047875,64.36906Q214.027775,64.36906,215.557775,65.05754Q217.087875,65.74602,217.955375,67.06963999999999Q218.82307500000002,68.393,218.82307500000002,70.32300000000001ZM214.604475,70.5157Q214.604475,69.6549,214.299175,69.0181Q213.994075,68.3814,213.426475,68.0245Q212.859075,67.66748,212.047875,67.66748Q211.256375,67.66748,210.691275,68.0101Q210.126175,68.35249999999999,209.823375,68.9893Q209.520575,69.626,209.520575,70.5157Q209.520575,71.3861,209.823375,72.0378Q210.126175,72.6891,210.698675,73.054Q211.271075,73.4188,212.072375,73.4188Q212.883575,73.4188,213.443575,73.054Q214.003875,72.6891,214.304175,72.0378Q214.604475,71.3861,214.604475,70.5157ZM237.063075,78.0381L237.063075,81.3368L221.692475,81.3368L221.494075,78.7772L230.379975,64.67188L233.733275,64.67188L230.09957500000002,70.7457L225.681975,78.0381L237.063075,78.0381ZM234.645175,64.67188L234.645175,86L230.426675,86L230.426675,64.67188L234.645175,64.67188Z" fill="#4F46E5" fill-opacity="1" style="mix-blend-mode:passthrough"/></g></g><g><rect x="198.3125" y="102" width="52.03125" height="20" rx="0" fill="#000000" fill-opacity="0" style="mix-blend-mode:passthrough"/><g clip-path="url(#master_svg1_16_18662)"><g transform="matrix(1,0,0,-1,0,236.8515625)"><g><path d="M204.19141,130.42968125Q203.91797,130.67578125,203.5625,130.67578125Q203.20703,130.67578125,202.93359,130.42968125L198.558594,126.05469125Q198.3125,125.78125125,198.3125,125.42578125Q198.3125,125.07031125,198.558594,124.79687125Q198.832031,124.55078125,199.1875,124.55078125Q199.54297,124.55078125,199.81641,124.79687125L202.6875,127.69531125L202.6875,119.30078125Q202.6875,118.91796925,202.93359,118.67187525Q203.17969,118.42578125,203.5625,118.42578125Q203.94531,118.42578125,204.19141,118.67187525Q204.4375,118.91796925,204.4375,119.30078125L204.4375,127.69531125L207.30859,124.79687125Q207.58203,124.55078125,207.9375,124.55078125Q208.29297,124.55078125,208.5664,124.79687125Q208.8125,125.07031125,208.8125,125.42578125Q208.8125,125.78125125,208.5664,126.05469125L204.19141,130.42968125Z" fill="#22C55E" fill-opacity="1" style="mix-blend-mode:passthrough"/></g></g></g><g><path d="M217.7959,106.99219L217.7959,117L216.53125,117L216.53125,108.57129L213.98145,109.50098L213.98145,108.35938L217.59766,106.99219L217.7959,106.99219ZM228.0293,115.9609L228.0293,117L221.51465,117L221.51465,116.0908L224.7754,112.4609Q225.377,111.79102,225.70850000000002,111.32275Q226.04,110.85449,226.1733,110.48193Q226.3066,110.10938,226.3066,109.71973Q226.3066,109.22754,226.105,108.82764Q225.9033,108.42773,225.5137,108.18848Q225.124,107.94922,224.5703,107.94922Q223.9072,107.94922,223.4663,108.20557Q223.0254,108.46191,222.80664,108.91992Q222.58789,109.37793,222.58789,109.97266L221.32324,109.97266Q221.32324,109.13184,221.69238,108.43457Q222.06152,107.7373,222.78613,107.32373Q223.51069999999999,106.91016,224.5703,106.91016Q225.5137,106.91016,226.1836,107.2417Q226.8535,107.57324,227.2124,108.17139Q227.5713,108.76953,227.5713,109.56934Q227.5713,110.00684,227.4243,110.45459Q227.2773,110.90234,227.02100000000002,111.34667999999999Q226.7646,111.79102,226.4263,112.2217Q226.0879,112.6523,225.7051,113.0693L223.0391,115.9609L228.0293,115.9609ZM229.5332,116.3301Q229.5332,116.00880000000001,229.7349,115.78659999999999Q229.9365,115.5645,230.3193,115.5645Q230.7021,115.5645,230.9038,115.78659999999999Q231.1055,116.00880000000001,231.1055,116.3301Q231.1055,116.6445,230.9038,116.8633Q230.7021,117.082,230.3193,117.082Q229.9365,117.082,229.7349,116.8633Q229.5332,116.6445,229.5332,116.3301ZM234.667,112.2627L233.6553,112.0029L234.1543,107.04688L239.26069999999999,107.04688L239.26069999999999,108.21582L235.2275,108.21582L234.92680000000001,110.92285Q235.2002,110.76562,235.6206,110.62891Q236.041,110.49219,236.5879,110.49219Q237.2783,110.49219,237.8252,110.72803Q238.3721,110.96387,238.7583,111.40137Q239.1445,111.83887,239.3496,112.4541Q239.5547,113.0693,239.5547,113.8281Q239.5547,114.5459,239.3599,115.14750000000001Q239.165,115.749,238.7754,116.1968Q238.38569999999999,116.6445,237.7944,116.8906Q237.2031,117.1367,236.4033,117.1367Q235.80180000000001,117.1367,235.2651,116.9692Q234.7285,116.8018,234.3081,116.4565Q233.8877,116.1113,233.6245,115.5952Q233.3613,115.0791,233.293,114.3818L234.4961,114.3818Q234.5781,114.94239999999999,234.8242,115.3252Q235.0703,115.708,235.4702,115.9028Q235.8701,116.0977,236.4033,116.0977Q236.8545,116.0977,237.2031,115.9404Q237.55180000000001,115.7832,237.791,115.4893Q238.0303,115.1953,238.1567,114.7783Q238.2832,114.3613,238.2832,113.8418Q238.2832,113.37010000000001,238.1533,112.9668Q238.0234,112.5635,237.7671,112.2627Q237.51069999999999,111.96191,237.1416,111.79443Q236.7725,111.62695,236.2939,111.62695Q235.6582,111.62695,235.33350000000002,111.79785Q235.0088,111.96875,234.667,112.2627ZM240.8262,109.4873L240.8262,108.96094Q240.8262,108.39355,241.07229999999998,107.92871Q241.3184,107.46387,241.7764,107.18359Q242.2344,106.90332,242.8633,106.90332Q243.5059,106.90332,243.9604,107.18359Q244.415,107.46387,244.6611,107.92871Q244.9072,108.39355,244.9072,108.96094L244.9072,109.4873Q244.9072,110.04102,244.6646,110.50586Q244.4219,110.9707,243.9673,111.25098Q243.5127,111.53125,242.877,111.53125Q242.2412,111.53125,241.7798,111.25098Q241.3184,110.9707,241.07229999999998,110.50586Q240.8262,110.04102,240.8262,109.4873ZM241.7764,108.96094L241.7764,109.4873Q241.7764,109.80176,241.89600000000002,110.08203Q242.0156,110.3623,242.2617,110.53662Q242.5078,110.71094,242.877,110.71094Q243.2461,110.71094,243.4854,110.53662Q243.7246,110.3623,243.8408,110.08203Q243.957,109.80176,243.957,109.4873L243.957,108.96094Q243.957,108.63965,243.8374,108.35596Q243.7178,108.07227,243.4751,107.89795Q243.23239999999998,107.72363,242.8633,107.72363Q242.501,107.72363,242.2583,107.89795Q242.0156,108.07227,241.89600000000002,108.35596Q241.7764,108.63965,241.7764,108.96094ZM245.6729,115.0928L245.6729,114.5596Q245.6729,113.999,245.9189,113.5342Q246.165,113.0693,246.623,112.7891Q247.0811,112.50880000000001,247.71,112.50880000000001Q248.3525,112.50880000000001,248.8071,112.7891Q249.2617,113.0693,249.5078,113.5342Q249.7539,113.999,249.7539,114.5596L249.7539,115.0928Q249.7539,115.6533,249.5112,116.1182Q249.2686,116.583,248.814,116.8633Q248.3594,117.14359999999999,247.7236,117.14359999999999Q247.0879,117.14359999999999,246.6299,116.8633Q246.1719,116.583,245.9224,116.1182Q245.6729,115.6533,245.6729,115.0928ZM246.623,114.5596L246.623,115.0928Q246.623,115.4072,246.7427,115.6909Q246.8623,115.9746,247.10840000000002,116.1489Q247.3545,116.3232,247.7236,116.3232Q248.0928,116.3232,248.3354,116.1489Q248.5781,115.9746,248.6943,115.6943Q248.8105,115.4141,248.8105,115.0928L248.8105,114.5596Q248.8105,114.2383,248.6909,113.958Q248.5713,113.6777,248.3286,113.5034Q248.0859,113.3291,247.71,113.3291Q247.3477,113.3291,247.105,113.5034Q246.8623,113.6777,246.7427,113.958Q246.623,114.2383,246.623,114.5596ZM248.0244,108.46191L243.1641,116.24119999999999L242.4531,115.78999999999999L247.3135,108.01074L248.0244,108.46191Z" fill="#22C55E" fill-opacity="1" style="mix-blend-mode:passthrough"/></g></g></g></svg>