<svg xmlns="http://www.w3.org/2000/svg" xmlns:xlink="http://www.w3.org/1999/xlink" fill="none" version="1.1" width="122.015625" height="42" viewBox="0 0 122.015625 42"><defs><clipPath id="master_svg0_16_16108"><rect x="17.5" y="12" width="15" height="16" rx="0"/></clipPath></defs><g><rect x="0" y="0" width="122.015625" height="42" rx="4" fill="#000000" fill-opacity="0" style="mix-blend-mode:passthrough"/><rect x="0.5" y="0.5" width="121.015625" height="41" rx="3.5" fill-opacity="0" stroke-opacity="1" stroke="#4F46E5" fill="none" stroke-width="1" style="mix-blend-mode:passthrough"/><g><rect x="17" y="12" width="16" height="16" rx="0" fill="#000000" fill-opacity="0" style="mix-blend-mode:passthrough"/><g clip-path="url(#master_svg0_16_16108)"><g transform="matrix(1,0,0,-1,0,54.6875)"><g><path d="M20.96875,37.87495Q20.15625,37.03125,19.78125,36Q19.625,35.625,19.28125,35.4375Q18.90625,35.28125,18.5,35.40625Q18.125,35.5625,17.9375,35.90625Q17.78125,36.28125,17.90625,36.6875Q18.40625,38.12495,19.5625,39.28125Q20.9375,40.65625,22.71875,41.12495Q24.46875,41.56255,26.25,41.12495Q28.0312,40.68755,29.4062,39.31255L30.7188,40.62495Q31.0938,40.96875,31.5312,40.78125Q31.9688,40.59375,32,40.09375L32,36.09375Q31.9375,35.40625,31.25,35.34375L31,35.34375L27.25,35.34375Q26.75,35.375,26.5625,35.8125Q26.375,36.25,26.71875,36.625L28,37.90625Q26.46875,39.34375,24.46875,39.34375Q22.5,39.34375,20.96875,37.87495ZM17,32.59375Q17.0625,33.28125,17.75,33.34375L18,33.34375L21.75,33.34375Q22.25,33.3125,22.4375,32.875Q22.625,32.4375,22.28125,32.0625L21,30.78125Q22.53125,29.34375,24.53125,29.34375Q26.5,29.34375,28.0312,30.8125Q28.8438,31.65625,29.2188,32.6875Q29.375,33.0625,29.7188,33.25Q30.0938,33.40625,30.5,33.28125Q30.875,33.125,31.0625,32.78125Q31.25,32.40625,31.0938,32Q30.5938,30.5625,29.4375,29.40625Q28.0625,28.03125,26.28125,27.5625Q24.53125,27.125,22.75,27.5625Q20.96875,28,19.59375,29.375L18.28125,28.0625Q17.90625,27.71875,17.46875,27.90625Q17.03125,28.09375,17,28.59375L17,32.34375L17,32.59375Z" fill="#4F46E5" fill-opacity="1" style="mix-blend-mode:passthrough"/></g></g></g></g><g><path d="M51.3651125,13.72775L52.4906125,13.72775L52.4906125,22.734L51.3651125,22.734L51.3651125,13.72775ZM54.5606125,12.35825L55.7206125,12.35825L55.7206125,25.1803Q55.7206125,25.7675,55.5658125,26.0683Q55.4111125,26.369,55.0581125,26.5303Q54.6888125,26.6753,54.0371125,26.7192Q53.3856125,26.7635,52.5001125,26.7635Q52.4556125,26.508,52.343312499999996,26.1483Q52.2313125,25.7885,52.0951125,25.517Q52.8078125,25.533,53.4091125,25.536Q54.0103125,25.5392,54.2281125,25.5295Q54.4201125,25.5198,54.4903125,25.4527Q54.5606125,25.3855,54.5606125,25.1838L54.5606125,12.35825ZM46.5510625,17.09975L47.5828125,17.09975L47.5828125,26.7405L46.5510625,26.7405L46.5510625,17.09975ZM49.2535625,18.822499999999998L50.2480625,18.822499999999998L50.2480625,23.7378Q50.2480625,24.106,50.1745625,24.3387Q50.1013125,24.5715,49.8398125,24.7078Q49.584562500000004,24.8403,49.190062499999996,24.872Q48.7955625,24.9035,48.2233125,24.9035Q48.2010625,24.6793,48.1045625,24.4015Q48.0080625,24.1237,47.8905625,23.9215Q48.3273125,23.9375,48.6358125,23.9375Q48.9445625,23.9375,49.0573125,23.9277Q49.1860625,23.918,49.2198125,23.8763Q49.2535625,23.8345,49.2535625,23.7288L49.2535625,18.822499999999998ZM42.7110625,12.971250000000001L43.7928125,12.971250000000001L43.7928125,18.37275Q43.7928125,19.2743,43.7415625,20.322Q43.6905625,21.369799999999998,43.5465625,22.4607Q43.4025625,23.5515,43.1255625,24.585Q42.8488125,25.6185,42.3910625,26.4818Q42.3028125,26.3678,42.1340625,26.2337Q41.9653125,26.0998,41.7885625,25.975Q41.6120625,25.8505,41.4793125,25.7873Q41.9058125,24.9872,42.1560625,24.0487Q42.4063125,23.11,42.5248125,22.1233Q42.6435625,21.136499999999998,42.6773125,20.1737Q42.7110625,19.211,42.7110625,18.37275L42.7110625,12.971250000000001ZM43.2958125,12.971250000000001L50.1918125,12.971250000000001L50.1918125,17.17975L43.2958125,17.17975L43.2958125,16.088250000000002L49.050312500000004,16.088250000000002L49.050312500000004,14.05325L43.2958125,14.05325L43.2958125,12.971250000000001ZM44.0743125,18.822499999999998L49.7520625,18.822499999999998L49.7520625,19.8517L45.0098125,19.8517L45.0098125,25.027L44.0743125,25.027L44.0743125,18.822499999999998ZM66.3771125,17.462L72.3416125,17.462L72.3416125,18.581200000000003L66.3771125,18.581200000000003L66.3771125,17.462ZM57.9870125,13.73675L65.0523125,13.73675L65.0523125,14.749749999999999L57.9870125,14.749749999999999L57.9870125,13.73675ZM57.8138125,20.0815L65.1248125,20.0815L65.1248125,21.1295L57.8138125,21.1295L57.8138125,20.0815ZM57.740812500000004,17.393250000000002L65.3083125,17.393250000000002L65.3083125,18.412750000000003L57.740812500000004,18.412750000000003L57.740812500000004,17.393250000000002ZM69.4150125,17.933999999999997L70.5778125,17.933999999999997L70.5778125,26.7057L69.4150125,26.7057L69.4150125,17.933999999999997ZM59.025512500000005,15.083L60.0006125,14.8595Q60.2510125,15.377500000000001,60.4388125,16.01225Q60.6268125,16.647,60.6846125,17.1065L59.652812499999996,17.38425Q59.6076125,16.92125,59.4385125,16.2755Q59.2698125,15.6295,59.025512500000005,15.083ZM63.0441125,14.83375L64.1543125,15.07125Q63.8983125,15.7805,63.6155125,16.531750000000002Q63.3331125,17.28275,63.0763125,17.80675L62.0926125,17.579Q62.2596125,17.20325,62.4363125,16.717750000000002Q62.6131125,16.23225,62.7768125,15.73075Q62.9408125,15.229,63.0441125,14.83375ZM70.8595125,12.34275L71.8388125,13.235Q71.0761125,13.5185,70.1295125,13.7595Q69.1833125,14.000499999999999,68.17881249999999,14.187249999999999Q67.1743125,14.373999999999999,66.2338125,14.50825Q66.1990125,14.315750000000001,66.0838125,14.05275Q65.9686125,13.7895,65.85481250000001,13.6035Q66.7543125,13.447,67.6928125,13.25225Q68.6313125,13.057500000000001,69.4591125,12.819749999999999Q70.2871125,12.582,70.8595125,12.34275ZM60.4398125,12.27575L61.5181125,12.00075Q61.8006125,12.48,62.088012500000005,13.07125Q62.3756125,13.6625,62.500812499999995,14.07125L61.378812499999995,14.407Q61.2563125,13.982,60.986112500000004,13.3765Q60.7161125,12.771,60.4398125,12.27575ZM61.0298125,18.00425L62.1206125,18.00425L62.1206125,25.2262Q62.1206125,25.6445,62.0206125,25.8785Q61.920612500000004,26.1128,61.6508125,26.2488Q61.3813125,26.3752,60.960612499999996,26.4067Q60.5400125,26.4385,59.959312499999996,26.4385Q59.9308125,26.2175,59.8280125,25.9285Q59.7253125,25.6397,59.6016125,25.4155Q60.0190125,25.4315,60.358112500000004,25.4315Q60.697312499999995,25.4315,60.825312499999995,25.4217Q61.0298125,25.4217,61.0298125,25.2173L61.0298125,18.00425ZM65.85481250000001,13.6035L66.9703125,13.6035L66.9703125,19.1035Q66.9703125,19.964,66.9143125,20.952199999999998Q66.8583125,21.9403,66.6886125,22.952199999999998Q66.5188125,23.964199999999998,66.1855125,24.9065Q65.8523125,25.8487,65.29781249999999,26.63Q65.20961249999999,26.51,65.03461250000001,26.3698Q64.8595125,26.2295,64.6833125,26.0985Q64.5071125,25.9678,64.3743125,25.8983Q65.0551125,24.9368,65.36631249999999,23.761Q65.6778125,22.585,65.7663125,21.372700000000002Q65.85481250000001,20.1602,65.85481250000001,19.1035L65.85481250000001,13.6035ZM62.7606125,22.086L63.5848125,21.6575Q63.9821125,22.247700000000002,64.3633125,22.9583Q64.7446125,23.6687,64.9331125,24.178800000000003L64.0740125,24.6765Q63.882112500000005,24.154,63.505512499999995,23.418300000000002Q63.1293125,22.682299999999998,62.7606125,22.086ZM59.1738125,21.7325L60.1496125,21.9817Q59.8713125,22.817999999999998,59.4295125,23.6333Q58.987812500000004,24.4482,58.5043125,25.0187Q58.3653125,24.8923,58.1076125,24.7057Q57.8501125,24.5193,57.6666125,24.4152Q58.1510125,23.8855,58.5388125,23.1782Q58.9268125,22.471,59.1738125,21.7325ZM76.0063125,18.11325L85.1648125,18.11325L85.1648125,19.295L76.0063125,19.295L76.0063125,18.11325ZM84.7545125,18.11325L86.00211250000001,18.11325Q86.00211250000001,18.11325,85.9988125,18.224Q85.9958125,18.33475,85.9958125,18.469250000000002Q85.9958125,18.6038,85.97981250000001,18.689Q85.89281249999999,20.5273,85.8013125,21.823700000000002Q85.7098125,23.119999999999997,85.59911249999999,23.9712Q85.4886125,24.8223,85.3378125,25.313Q85.1871125,25.8037,84.9693125,26.0403Q84.72131250000001,26.3417,84.4300125,26.4543Q84.1388125,26.567,83.7270125,26.598Q83.32431249999999,26.6327,82.63681249999999,26.6243Q81.94931249999999,26.616,81.19301250000001,26.5707Q81.1708125,26.3027,81.07001249999999,25.9625Q80.9696125,25.6225,80.7960125,25.3668Q81.5796125,25.4345,82.2508125,25.4522Q82.9223125,25.47,83.2065125,25.47Q83.68481249999999,25.47,83.8893125,25.2752Q84.10431249999999,25.054,84.26011249999999,24.319000000000003Q84.4160125,23.5837,84.5368125,22.1355Q84.6578125,20.6873,84.7545125,18.3375L84.7545125,18.11325ZM78.19561250000001,12.38375L79.46811249999999,12.73625Q78.92761250000001,14.076,78.1826125,15.3015Q77.4375125,16.527,76.5628125,17.557499999999997Q75.6881125,18.587699999999998,74.73781249999999,19.355Q74.63731250000001,19.226,74.4448125,19.0545Q74.2526125,18.883,74.0571125,18.71Q73.8618125,18.5367,73.7103125,18.436Q74.66761249999999,17.744500000000002,75.5140125,16.795749999999998Q76.36081250000001,15.84675,77.04751250000001,14.722000000000001Q77.7343125,13.597000000000001,78.19561250000001,12.38375ZM83.7791125,12.35175Q84.1571125,13.155999999999999,84.68361250000001,13.996749999999999Q85.2103125,14.8375,85.8281125,15.622Q86.4458125,16.4065,87.1035125,17.067Q87.7613125,17.727249999999998,88.3853125,18.203Q88.2338125,18.31975,88.0496125,18.493000000000002Q87.8653125,18.666,87.6983125,18.8567Q87.5313125,19.0472,87.4145125,19.211Q86.7845125,18.666,86.1253125,17.93425Q85.4663125,17.2025,84.8390125,16.3475Q84.2121125,15.49225,83.6538125,14.5855Q83.0955125,13.67875,82.6706125,12.78975L83.7791125,12.35175ZM79.1828125,18.44375L80.4463125,18.44375Q80.3050125,19.755000000000003,80.0211125,20.996000000000002Q79.7373125,22.2367,79.1435125,23.3418Q78.5498125,24.4467,77.5043125,25.3353Q76.4588125,26.2237,74.7910125,26.824Q74.7215125,26.67,74.5955125,26.481Q74.4696125,26.2922,74.32311250000001,26.1115Q74.1766125,25.9307,74.0413125,25.8078Q75.6085125,25.2895,76.5738125,24.503Q77.5390125,23.7165,78.0651125,22.739Q78.59111250000001,21.761200000000002,78.8273125,20.6682Q79.0638125,19.575,79.1828125,18.44375ZM97.2956125,17.541L104.31151249999999,17.541L104.31151249999999,18.679000000000002L97.2956125,18.679000000000002L97.2956125,17.541ZM102.3633125,12.243500000000001L103.3880125,13.17575Q102.5453125,13.51725,101.48501250000001,13.82275Q100.4251125,14.128,99.3018125,14.373000000000001Q98.17881249999999,14.617750000000001,97.1131125,14.8035Q97.0721125,14.592500000000001,96.9505125,14.29775Q96.82911250000001,14.003,96.7126125,13.8205Q97.7373125,13.61875,98.7851125,13.370750000000001Q99.8328125,13.12275,100.77011250000001,12.8285Q101.7073125,12.53425,102.3633125,12.243500000000001ZM100.78661249999999,17.9105L101.9683125,17.9105L101.9683125,26.7795L100.78661249999999,26.7795L100.78661249999999,17.9105ZM89.9531125,15.49125L95.8853125,15.49125L95.8853125,16.639L89.9531125,16.639L89.9531125,15.49125ZM92.3595125,12.05425L93.51951249999999,12.05425L93.51951249999999,26.7565L92.3595125,26.7565L92.3595125,12.05425ZM92.3221125,16.20125L93.1035125,16.460250000000002Q92.8983125,17.4265,92.5853125,18.460250000000002Q92.27261250000001,19.494,91.8828125,20.486Q91.4933125,21.478,91.0540125,22.3293Q90.61511250000001,23.180300000000003,90.15101250000001,23.7847Q90.0498125,23.5425,89.8615125,23.230800000000002Q89.67331250000001,22.919,89.51831250000001,22.705199999999998Q89.9538125,22.164,90.3755125,21.409Q90.7973125,20.654,91.1696125,19.775199999999998Q91.54181249999999,18.8962,91.84031250000001,17.982Q92.1390125,17.067500000000003,92.3221125,16.20125ZM93.3773125,17.293Q93.5373125,17.479,93.8701125,17.911Q94.2031125,18.343,94.5838125,18.852Q94.9648125,19.360799999999998,95.28661249999999,19.7977Q95.6083125,20.2345,95.7398125,20.4202L94.9708125,21.3853Q94.8143125,21.067,94.5291125,20.581200000000003Q94.24381249999999,20.0952,93.9071125,19.5627Q93.5703125,19.0302,93.2608125,18.5765Q92.9515125,18.122500000000002,92.7630125,17.86475L93.3773125,17.293ZM96.7126125,13.8205L97.86001250000001,13.8205L97.86001250000001,18.7533Q97.86001250000001,19.6512,97.79781249999999,20.695999999999998Q97.7356125,21.7405,97.5533125,22.8123Q97.3713125,23.884,97.0276125,24.8953Q96.6841125,25.9065,96.1116125,26.7475Q96.0108125,26.6495,95.8296125,26.5298Q95.6486125,26.41,95.4531125,26.2948Q95.25751249999999,26.1795,95.1126125,26.1322Q95.6628125,25.3323,95.9828125,24.3967Q96.3028125,23.461,96.45961249999999,22.4792Q96.6165125,21.497500000000002,96.6645125,20.547800000000002Q96.7126125,19.5977,96.7126125,18.7533L96.7126125,13.8205Z" fill="#4F46E5" fill-opacity="1" style="mix-blend-mode:passthrough"/></g></g></svg>