<svg xmlns="http://www.w3.org/2000/svg" xmlns:xlink="http://www.w3.org/1999/xlink" fill="none" version="1.1" width="122.015625" height="42" viewBox="0 0 122.015625 42"><defs><clipPath id="master_svg0_21_1921"><rect x="17" y="13" width="16" height="16" rx="0"/></clipPath></defs><g><rect x="0" y="0" width="122.015625" height="42" rx="4" fill="#000000" fill-opacity="0" style="mix-blend-mode:passthrough"/><rect x="0.5" y="0.5" width="121.015625" height="41" rx="3.5" fill-opacity="0" stroke-opacity="1" stroke="#E6002D" fill="none" stroke-width="1" style="mix-blend-mode:passthrough"/><g clip-path="url(#master_svg0_21_1921)"><g transform="matrix(1,0,0,-1,0,58.6875)"><g><path d="M31.817375,44.65625Q31.249275,45.18755,30.554975,45.18755Q29.860775,45.18755,29.292675,44.65625L28.345975,43.71875L31.438675,40.65625L32.385374999999996,41.59375Q32.921875,42.15625,32.921875,42.84375Q32.921875,43.53125,32.385374999999996,44.09375L31.817375,44.65625ZM22.349885,37.78125Q22.065855,37.5,21.939625,37.09375L20.992885,34.34375Q20.866645,33.90625,21.182225,33.5625Q21.529375,33.25,21.971185,33.375L24.779865,34.3125Q25.158565,34.4375,25.442585,34.71875L30.744374999999998,39.96875L27.651674999999997,43.03125L22.349885,37.78125ZM19.951465,43.34375Q18.657575,43.31255,17.805504,42.46875Q16.9534332,41.62495,16.921875,40.34375L16.921875,32.34375Q16.9534332,31.0625,17.805504,30.21875Q18.657575,29.375,19.951465,29.34375L28.030375,29.34375Q29.324275,29.375,30.176275,30.21875Q31.028375,31.0625,31.059975,32.34375L31.059975,35.34375Q31.059975,35.78125,30.775875,36.0625Q30.491875,36.34375,30.050075,36.34375Q29.608275,36.34375,29.324275,36.0625Q29.040174999999998,35.78125,29.040174999999998,35.34375L29.040174999999998,32.34375Q29.040174999999998,31.90625,28.756175,31.625Q28.472175,31.34375,28.030375,31.34375L19.951465,31.34375Q19.509645,31.34375,19.225625,31.625Q18.941595,31.90625,18.941595,32.34375L18.941595,40.34375Q18.941595,40.78125,19.225625,41.06255Q19.509645,41.34375,19.951465,41.34375L22.981045,41.34375Q23.422865,41.34375,23.706885,41.62495Q23.990904999999998,41.90625,23.990904999999998,42.34375Q23.990904999999998,42.78125,23.706885,43.06255Q23.422865,43.34375,22.981045,43.34375L19.951465,43.34375Z" fill="#E6002D" fill-opacity="1" style="mix-blend-mode:passthrough"/></g></g></g><g><path d="M52.1721125,19.3247L53.0908125,19.700499999999998Q52.608112500000004,20.206200000000003,51.9246125,20.6515Q51.2411125,21.0968,50.4755625,21.448Q49.7103125,21.799,48.9485625,22.058500000000002Q48.828562500000004,21.8848,48.6340625,21.6827Q48.4395625,21.4807,48.2658125,21.3417Q48.9903125,21.1233,49.7238125,20.813200000000002Q50.4575625,20.503,51.1031125,20.121000000000002Q51.7488125,19.739,52.1721125,19.3247ZM53.7071125,20.913L54.6133125,21.2922Q54.0063125,21.9572,53.1298125,22.5092Q52.2533125,23.0612,51.2216125,23.488799999999998Q50.190062499999996,23.9163,49.1090625,24.214Q49.0013125,24.0405,48.8290625,23.810000000000002Q48.6568125,23.5793,48.4798125,23.418300000000002Q49.5010625,23.177500000000002,50.4948125,22.813200000000002Q51.4886125,22.448700000000002,52.3271125,21.9615Q53.1658125,21.474,53.7071125,20.913ZM55.2006125,22.643L56.237812500000004,23.0918Q55.4483125,24.035,54.2203125,24.7458Q52.9926125,25.4562,51.4678125,25.9445Q49.943062499999996,26.433,48.2393125,26.737Q48.1510625,26.526,47.9693125,26.245Q47.7878125,25.9643,47.6080625,25.7682Q49.2270625,25.5275,50.6885625,25.1117Q52.1503125,24.6957,53.3198125,24.078200000000002Q54.4893125,23.4607,55.2006125,22.643ZM50.0420625,12.048L51.1523125,12.32575Q50.5720625,13.749749999999999,49.6978125,15.0395Q48.8235625,16.329250000000002,47.8503125,17.216250000000002Q47.7560625,17.11225,47.590312499999996,16.97825Q47.4248125,16.844250000000002,47.2480625,16.7115Q47.0713125,16.57875,46.9325625,16.50325Q47.8995625,15.691749999999999,48.7220625,14.5155Q49.5445625,13.33925,50.0420625,12.048ZM49.890812499999996,13.8015L54.9391125,13.8015L54.9391125,14.8055L49.2845625,14.8055L49.890812499999996,13.8015ZM49.6453125,14.42525Q50.121812500000004,15.3415,51.0581125,16.22625Q51.9946125,17.111,53.374812500000004,17.80375Q54.755112499999996,18.496499999999997,56.5523125,18.8465Q56.4418125,18.957,56.3141125,19.131999999999998Q56.1863125,19.307000000000002,56.0728125,19.485Q55.959312499999996,19.663,55.8836125,19.8083Q54.0741125,19.3888,52.6941125,18.625700000000002Q51.3143125,17.8625,50.3653125,16.912750000000003Q49.4165625,15.96275,48.9018125,15.01325L49.6453125,14.42525ZM45.9000625,16.5255L46.9255625,16.5255L46.9255625,24.2528L45.9000625,24.2528L45.9000625,16.5255ZM44.7703125,12.1545L45.8798125,12.46275Q45.4318125,13.85125,44.8160625,15.20975Q44.200562500000004,16.567999999999998,43.4748125,17.772750000000002Q42.7490625,18.9772,41.9560625,19.9142Q41.9053125,19.7727,41.7960625,19.5385Q41.6870625,19.3042,41.5605625,19.0717Q41.4343125,18.839199999999998,41.3268125,18.691200000000002Q42.0288125,17.887,42.6698125,16.83925Q43.3110625,15.79125,43.8513125,14.58975Q44.3918125,13.38825,44.7703125,12.1545ZM43.4520625,16.066L44.5615625,14.9565L44.596312499999996,14.9885L44.596312499999996,26.7795L43.4520625,26.7795L43.4520625,16.066ZM54.7478125,13.8015L54.9658125,13.8015L55.161812499999996,13.75075L55.8518125,14.1015Q55.3363125,15.3585,54.471112500000004,16.316Q53.6058125,17.27325,52.4971125,17.973Q51.3886125,18.6727,50.121812500000004,19.1435Q48.8553125,19.6143,47.5210625,19.9042Q47.4490625,19.7055,47.2803125,19.4295Q47.1115625,19.1535,46.9503125,18.9862Q48.1990625,18.7595,49.4040625,18.347Q50.6093125,17.9345,51.6598125,17.31375Q52.7103125,16.69275,53.5091125,15.86325Q54.3081125,15.0335,54.7478125,13.98825L54.7478125,13.8015ZM65.9908125,15.02025L72.2331125,15.02025L72.2331125,16.13925L65.9908125,16.13925L65.9908125,15.02025ZM66.5513125,12.05775L67.7331125,12.26875Q67.4290125,13.751750000000001,66.9813125,15.154250000000001Q66.5338125,16.55675,65.9683125,17.76775Q65.4028125,18.9785,64.7165125,19.902Q64.6248125,19.789,64.4543125,19.625500000000002Q64.2838125,19.462,64.1020125,19.2987Q63.920612500000004,19.1353,63.7881125,19.0345Q64.46011250000001,18.1955,64.9818125,17.085Q65.5036125,15.97425,65.8958125,14.69125Q66.2883125,13.408000000000001,66.5513125,12.05775ZM69.9938125,15.67925L71.2323125,15.83425Q70.8093125,18.6038,69.9946125,20.694000000000003Q69.1801125,22.7843,67.8213125,24.296799999999998Q66.4628125,25.809,64.3853125,26.84Q64.3223125,26.6887,64.1976125,26.4855Q64.07311250000001,26.2825,63.9311125,26.0825Q63.7890125,25.8827,63.6626125,25.7535Q65.6365125,24.865,66.9005125,23.483Q68.1648125,22.101,68.9023125,20.1665Q69.6401125,18.231749999999998,69.9938125,15.67925ZM66.5325125,16.03725Q66.9493125,18.24925,67.7056125,20.1632Q68.4621125,22.076999999999998,69.6456125,23.503500000000003Q70.82911250000001,24.9298,72.4903125,25.695Q72.3513125,25.8118,72.1936125,25.988Q72.0361125,26.1642,71.8940125,26.3547Q71.7521125,26.5455,71.6543125,26.703Q69.9306125,25.8175,68.72211250000001,24.2905Q67.5138125,22.7635,66.7288125,20.7162Q65.9441125,18.6687,65.4703125,16.23925L66.5325125,16.03725ZM58.4110125,26.0098L58.264112499999996,24.8202L58.8248125,24.302500000000002L63.8881125,22.4937Q63.8978125,22.7618,63.9436125,23.0925Q63.9896125,23.423299999999998,64.0368125,23.622Q62.635112500000005,24.1535,61.6865125,24.5265Q60.738012499999996,24.8993,60.145112499999996,25.1488Q59.5521125,25.398,59.210612499999996,25.5525Q58.8693125,25.7073,58.6958125,25.809Q58.5223125,25.911,58.4110125,26.0098ZM58.4110125,26.0098Q58.3828125,25.83,58.3053125,25.6015Q58.2278125,25.373,58.1330125,25.143Q58.0383125,24.9128,57.9341125,24.7615Q58.1183125,24.6822,58.277812499999996,24.4897Q58.437312500000004,24.297,58.437312500000004,23.8587L58.437312500000004,17.75975L59.647512500000005,17.75975L59.647512500000005,25.0255Q59.647512500000005,25.0255,59.5243125,25.0872Q59.4010125,25.149,59.2128125,25.2458Q59.0246125,25.3423,58.8411125,25.4705Q58.6578125,25.5985,58.5343125,25.7377Q58.4110125,25.8773,58.4110125,26.0098ZM58.2313125,13.1775L63.9040125,13.1775L63.9040125,18.944699999999997L58.7196125,18.944699999999997L58.7196125,17.75975L62.7128125,17.75975L62.7128125,14.3625L58.2313125,14.3625L58.2313125,13.1775ZM79.1225125,17.002499999999998L86.9073125,17.002499999999998L86.9073125,17.99425L79.1225125,17.99425L79.1225125,17.002499999999998ZM79.1225125,19.273L86.9073125,19.273L86.9073125,20.255000000000003L79.1225125,20.255000000000003L79.1225125,19.273ZM79.6198125,25.1518L86.3870125,25.1518L86.3870125,26.146L79.6198125,26.146L79.6198125,25.1518ZM77.9698125,14.7045L88.1640125,14.7045L88.1640125,15.721250000000001L77.9698125,15.721250000000001L77.9698125,14.7045ZM78.9153125,21.617L87.0728125,21.617L87.0728125,26.7288L85.9876125,26.7288L85.9876125,22.6115L79.95961249999999,22.6115L79.95961249999999,26.7768L78.9153125,26.7768L78.9153125,21.617ZM81.6645125,12.45925L82.7090125,12.0585Q83.0485125,12.54475,83.3795125,13.128499999999999Q83.7108125,13.712,83.87711250000001,14.1405L82.79781249999999,14.62025Q82.6378125,14.185500000000001,82.3128125,13.57675Q81.9881125,12.967749999999999,81.6645125,12.45925ZM77.1028125,12.11825L78.18101250000001,12.43625Q77.7171125,13.780249999999999,77.0871125,15.092749999999999Q76.4573125,16.40525,75.7203125,17.566000000000003Q74.9835125,18.7265,74.1906125,19.634999999999998Q74.1336125,19.499499999999998,74.01661250000001,19.284Q73.8996125,19.0685,73.7651125,18.853Q73.63081249999999,18.6375,73.5168125,18.502000000000002Q74.2410125,17.72,74.9075125,16.69125Q75.57431249999999,15.6625,76.1380125,14.493Q76.7021125,13.32325,77.1028125,12.11825ZM75.71301249999999,16.2905L76.80031249999999,15.1935L76.8198125,15.2095L76.8198125,26.824L75.71301249999999,26.824L75.71301249999999,16.2905ZM93.2608125,16.69525L93.2608125,17.986L100.6898125,17.986L100.6898125,16.69525L93.2608125,16.69525ZM93.2608125,18.9055L93.2608125,20.206200000000003L100.6898125,20.206200000000003L100.6898125,18.9055L93.2608125,18.9055ZM93.2608125,14.5105L93.2608125,15.782L100.6898125,15.782L100.6898125,14.5105L93.2608125,14.5105ZM92.10401250000001,13.54725L101.8901125,13.54725L101.8901125,21.1695L92.10401250000001,21.1695L92.10401250000001,13.54725ZM96.44931249999999,11.89775L97.8493125,12.13975Q97.6003125,12.653500000000001,97.32861249999999,13.14475Q97.0571125,13.63575,96.8330125,13.994L95.7565125,13.750250000000001Q95.94301250000001,13.341249999999999,96.14281249999999,12.81775Q96.3426125,12.29425,96.44931249999999,11.89775ZM93.2038125,22.267L94.4041125,22.267L94.4041125,24.8595Q94.4041125,25.1885,94.62711250000001,25.2862Q94.8503125,25.384,95.6136125,25.384Q95.7548125,25.384,96.0976125,25.384Q96.4406125,25.384,96.8833125,25.384Q97.3263125,25.384,97.77381249999999,25.384Q98.22161249999999,25.384,98.5933125,25.384Q98.9651125,25.384,99.1578125,25.384Q99.5943125,25.384,99.80261250000001,25.2575Q100.0111125,25.1308,100.0958125,24.7318Q100.1808125,24.3325,100.2191125,23.5247Q100.3613125,23.622799999999998,100.5568125,23.7145Q100.7523125,23.805999999999997,100.9651125,23.8708Q101.1778125,23.935299999999998,101.3453125,23.97Q101.26611249999999,24.988,101.06461250000001,25.5352Q100.8631125,26.0825,100.4383125,26.2882Q100.0136125,26.4942,99.2363125,26.4942Q99.1153125,26.4942,98.7408125,26.4942Q98.36631249999999,26.4942,97.8803125,26.4942Q97.39451249999999,26.4942,96.90051249999999,26.4942Q96.4068125,26.4942,96.0371125,26.4942Q95.66761249999999,26.4942,95.5528125,26.4942Q94.6268125,26.4942,94.11281249999999,26.3568Q93.59881250000001,26.2192,93.4013125,25.8627Q93.2038125,25.5065,93.2038125,24.872L93.2038125,22.267ZM95.7108125,21.662L96.6278125,21.128700000000002Q97.0446125,21.4842,97.4743125,21.923000000000002Q97.9041125,22.3615,98.26151250000001,22.7985Q98.6193125,23.235300000000002,98.83431250000001,23.5935L97.8576125,24.1997Q97.6551125,23.831699999999998,97.3035125,23.387Q96.9521125,22.942,96.53661249999999,22.486Q96.1213125,22.03,95.7108125,21.662ZM101.21131249999999,22.430500000000002L102.27981249999999,21.9825Q102.6611125,22.468,103.0276125,23.0465Q103.3943125,23.6248,103.6858125,24.179000000000002Q103.9773125,24.7332,104.1250125,25.1868L102.9941125,25.688Q102.8590125,25.2407,102.5768125,24.6755Q102.2946125,24.11,101.9403125,23.519199999999998Q101.58631249999999,22.9282,101.21131249999999,22.430500000000002ZM91.3721125,22.244L92.4078125,22.6785Q92.2060125,23.18,91.9495125,23.7872Q91.69331249999999,24.3945,91.4093125,24.9762Q91.1253125,25.558,90.8268125,26.0247L89.7343125,25.502Q90.0550125,25.0575,90.3563125,24.4865Q90.6575125,23.9152,90.9251125,23.323700000000002Q91.19251249999999,22.732300000000002,91.3721125,22.244Z" fill="#E6002D" fill-opacity="1" style="mix-blend-mode:passthrough"/></g></g></svg>