<?xml version="1.0" encoding="utf-8"?>
<svg version="1.1" xmlns:xlink="http://www.w3.org/1999/xlink" width="10px" height="10px" viewBox="322 266  10 10" xmlns="http://www.w3.org/2000/svg">
  <path d="M 327 266  C 329.8 266  332 268.2  332 271  C 332 273.8  329.8 276  327 276  C 324.2 276  322 273.8  322 271  C 322 268.2  324.2 266  327 266  Z " fill-rule="nonzero" fill="#ffffff" stroke="none" fill-opacity="0" />
  <path d="M 327 266.5  C 329.52 266.5  331.5 268.48  331.5 271  C 331.5 273.52  329.52 275.5  327 275.5  C 324.48 275.5  322.5 273.52  322.5 271  C 322.5 268.48  324.48 266.5  327 266.5  Z " stroke-width="1" stroke="#3b82f6" fill="none" />
  <path d="M 327 273.5  C 325.6 273.5  324.5 272.4  324.5 271  C 324.5 269.6  325.6 268.5  327 268.5  C 328.4 268.5  329.5 269.6  329.5 271  C 329.5 272.4  328.4 273.5  327 273.5  " fill-rule="nonzero" fill="#3b82f6" stroke="none" />
</svg>