<?xml version="1.0" encoding="utf-8"?>
<svg version="1.1" xmlns:xlink="http://www.w3.org/1999/xlink" width="10px" height="10px" viewBox="322 214  10 10" xmlns="http://www.w3.org/2000/svg">
  <path d="M 327 214  C 329.8 214  332 216.2  332 219  C 332 221.8  329.8 224  327 224  C 324.2 224  322 221.8  322 219  C 322 216.2  324.2 214  327 214  Z " fill-rule="nonzero" fill="#ffffff" stroke="none" fill-opacity="0" />
  <path d="M 327 214.5  C 329.52 214.5  331.5 216.48  331.5 219  C 331.5 221.52  329.52 223.5  327 223.5  C 324.48 223.5  322.5 221.52  322.5 219  C 322.5 216.48  324.48 214.5  327 214.5  Z " stroke-width="1" stroke="#3b82f6" fill="none" />
  <path d="M 327 221.5  C 325.6 221.5  324.5 220.4  324.5 219  C 324.5 217.6  325.6 216.5  327 216.5  C 328.4 216.5  329.5 217.6  329.5 219  C 329.5 220.4  328.4 221.5  327 221.5  " fill-rule="nonzero" fill="#3b82f6" stroke="none" />
</svg>