<svg xmlns="http://www.w3.org/2000/svg" xmlns:xlink="http://www.w3.org/1999/xlink" fill="none" version="1.1" width="190" height="50" viewBox="0 0 190 50"><g><rect x="0" y="0" width="190" height="50" rx="0" fill="#000000" fill-opacity="0" style="mix-blend-mode:passthrough"/><path d="M190,50L190,48L0,48L0,50L190,50Z" fill-rule="evenodd" fill="#E4041C" fill-opacity="1" style="mix-blend-mode:passthrough"/><g><path d="M65.9044375,19.655250000000002L66.8846875,20.09675Q66.4971875,20.84525,65.9604375,21.6768Q65.4236875,22.508200000000002,64.7214375,23.0975L63.7474375,22.5045Q64.4529375,21.9757,65.0119375,21.17425Q65.5709375,20.372500000000002,65.9044375,19.655250000000002ZM67.8261875,19.3925L68.9141875,19.3925L68.9141875,22.464199999999998Q68.9141875,22.7932,69.1226875,22.894199999999998Q69.3311875,22.994999999999997,70.0331875,22.994999999999997Q70.1966875,22.994999999999997,70.6354375,22.994999999999997Q71.0744375,22.994999999999997,71.6034375,22.994999999999997Q72.1324375,22.994999999999997,72.6049375,22.994999999999997Q73.0776875,22.994999999999997,73.2929875,22.994999999999997Q73.6874875,22.994999999999997,73.8796875,22.8748Q74.0721875,22.7542,74.1569875,22.3735Q74.2419875,21.992800000000003,74.2641875,21.2215Q74.4571875,21.348,74.7504875,21.460250000000002Q75.0439875,21.5723,75.2746875,21.622999999999998Q75.2016875,22.563499999999998,75.0224875,23.076999999999998Q74.8431875,23.5903,74.4611875,23.7855Q74.0791875,23.9805,73.3711875,23.9805Q73.2564875,23.9805,72.9129375,23.9805Q72.5696875,23.9805,72.1164375,23.9805Q71.6634375,23.9805,71.2119375,23.9805Q70.7606875,23.9805,70.4201875,23.9805Q70.0799375,23.9805,69.9751875,23.9805Q69.1221875,23.9805,68.6574375,23.8555Q68.1926875,23.7305,68.0094375,23.4023Q67.8261875,23.073700000000002,67.8261875,22.4767L67.8261875,19.3925ZM68.6286875,18.458L69.2321875,17.7485Q69.73168749999999,17.96075,70.2579375,18.255Q70.7841875,18.549,71.25268750000001,18.8525Q71.7211875,19.15575,72.0216875,19.43475L71.3834375,20.214Q71.0954375,19.935000000000002,70.6331875,19.6125Q70.1709375,19.289749999999998,69.6476875,18.983249999999998Q69.1246875,18.67675,68.6286875,18.458ZM74.6636875,20.32125L75.5309875,19.7345Q76.0471875,20.16375,76.5791875,20.68425Q77.1111875,21.2045,77.5656875,21.7218Q78.0204875,22.239,78.2764875,22.6647L77.3556875,23.3307Q77.1024875,22.9112,76.6651875,22.3797Q76.2279875,21.8482,75.7039875,21.30575Q75.1799875,20.762999999999998,74.6636875,20.32125ZM74.0011875,18.289L75.0196875,18.8Q73.7946875,20.281,72.0769375,21.438499999999998Q70.3591875,22.5957,68.3656875,23.4578Q66.3724375,24.319499999999998,64.3181875,24.9177Q64.2486875,24.779,64.1191875,24.593Q63.9896875,24.4067,63.8489375,24.2157Q63.7084375,24.0247,63.5944375,23.9082Q65.6779375,23.3988,67.6431875,22.6015Q69.6084375,21.8042,71.2524375,20.722250000000003Q72.8964375,19.64,74.0011875,18.289ZM70.3519375,24.5063L71.5684375,24.5063L71.5684375,28.521L70.3519375,28.521L70.3519375,24.5063ZM75.3326875,25.2282L76.5269875,25.2282L76.5269875,29.7455L75.3326875,29.7455L75.3326875,25.2282ZM64.2274375,16.435L77.7924875,16.435L77.7924875,19.56825L76.5796875,19.56825L76.5796875,17.516750000000002L65.4061875,17.516750000000002L65.4061875,19.56825L64.2274375,19.56825L64.2274375,16.435ZM70.0674375,15.08475L71.2046875,14.89575Q71.40293750000001,15.35,71.5674375,15.8825Q71.7319375,16.415,71.7861875,16.7955L70.5794375,17.03225Q70.52793750000001,16.65175,70.3856875,16.0985Q70.2434375,15.545,70.0674375,15.08475ZM65.5729375,25.359299999999998L66.7484375,25.359299999999998L66.7484375,27.9147L76.0154875,27.9147L76.0154875,29.0465L65.5729375,29.0465L65.5729375,25.359299999999998ZM92.8679875,22.076999999999998L94.0281875,22.076999999999998Q94.0281875,22.076999999999998,94.02498750000001,22.1737Q94.0219875,22.2703,94.0156875,22.3953Q94.0094875,22.5203,93.9934875,22.6155Q93.8201875,24.7735,93.6246875,26.1175Q93.4291875,27.4615,93.20648750000001,28.183Q92.9839875,28.9042,92.6959875,29.195Q92.4699875,29.446,92.2151875,29.5522Q91.9604875,29.6585,91.5931875,29.6835Q91.2899875,29.7022,90.77618749999999,29.7035Q90.26248749999999,29.705,89.6766875,29.6695Q89.6606875,29.4202,89.5756875,29.1063Q89.4906875,28.7925,89.3516875,28.562Q89.9329875,28.6197,90.4224875,28.6325Q90.9119875,28.6455,91.1261875,28.6455Q91.33148750000001,28.6553,91.4721875,28.62Q91.6131875,28.585,91.7216875,28.4605Q91.95648750000001,28.2393,92.1536875,27.5745Q92.3508875,26.9095,92.5289875,25.625Q92.7071875,24.3403,92.8679875,22.2827L92.8679875,22.076999999999998ZM86.0851875,16.0015L92.0229875,16.0015L92.0229875,17.1055L86.0851875,17.1055L86.0851875,16.0015ZM86.8531875,18.100749999999998L87.9751875,18.18Q87.92088749999999,18.975,87.82668749999999,19.8855Q87.7323875,20.795749999999998,87.6381875,21.640700000000002Q87.5439875,22.485799999999998,87.4416875,23.1117L86.3199875,23.1117Q86.4284875,22.4635,86.5256875,21.5962Q86.6231875,20.729,86.71418750000001,19.807499999999997Q86.8051875,18.886,86.8531875,18.100749999999998ZM86.6449875,22.076999999999998L93.2186875,22.076999999999998L93.2186875,23.121499999999997L86.6449875,23.121499999999997L86.6449875,22.076999999999998ZM85.5516875,25.222L91.6644875,25.222L91.6644875,26.303800000000003L85.5516875,26.303800000000003L85.5516875,25.222ZM91.52618749999999,16.0015L91.6491875,16.0015L91.8449875,15.940999999999999L92.6829875,16.03625Q92.6348875,16.744,92.5516875,17.60025Q92.4686875,18.45625,92.3676875,19.369Q92.2668875,20.2815,92.1596875,21.175Q92.0526875,22.068199999999997,91.9406875,22.8507L90.8124875,22.7625Q90.9209875,21.974,91.0296875,21.06325Q91.1386875,20.152250000000002,91.2346875,19.238Q91.3306875,18.32375,91.4074875,17.518250000000002Q91.4844875,16.71275,91.52618749999999,16.14725L91.52618749999999,16.0015ZM79.8016875,15.9125L85.30188749999999,15.9125L85.30188749999999,17.012999999999998L79.8016875,17.012999999999998L79.8016875,15.9125ZM81.3638875,20.838749999999997L84.8381875,20.838749999999997L84.8381875,27.7585L81.3638875,27.7585L81.3638875,26.689L83.7813875,26.689L83.7813875,21.918L81.3638875,21.918L81.3638875,20.838749999999997ZM81.8578875,16.450499999999998L82.9779875,16.6865Q82.6934875,18.19675,82.2799875,19.64Q81.8666875,21.08325,81.3081875,22.3328Q80.7496875,23.5822,80.0001875,24.5415Q79.9681875,24.3872,79.8724875,24.144199999999998Q79.7768875,23.901,79.6656875,23.6515Q79.5546875,23.402,79.4531875,23.2515Q80.3764875,22.017,80.9566875,20.2345Q81.5371875,18.45175,81.8578875,16.450499999999998ZM80.8466875,20.838749999999997L81.8911875,20.838749999999997L81.8911875,29.047L80.8466875,29.047L80.8466875,20.838749999999997ZM100.1373875,19.523L105.8986875,19.523L105.8986875,20.555L100.1373875,20.555L100.1373875,19.523ZM95.9493875,28.3592L110.0536875,28.3592L110.0536875,29.4037L95.9493875,29.4037L95.9493875,28.3592ZM96.6141875,15.66925L101.6724875,15.66925L101.6724875,16.67625L96.6141875,16.67625L96.6141875,15.66925ZM101.35548750000001,15.66925L101.56638749999999,15.66925L101.7844875,15.61225L102.5813875,16.01925Q102.13968750000001,17.183,101.44138749999999,18.195Q100.7434875,19.207,99.87888749999999,20.048000000000002Q99.01468750000001,20.889,98.0611875,21.5425Q97.1078875,22.195700000000002,96.1493875,22.6555Q96.0736875,22.5168,95.9426875,22.353Q95.8119875,22.189,95.67168749999999,22.0235Q95.5313875,21.8577,95.4086875,21.7472Q96.3011875,21.372999999999998,97.1928875,20.773Q98.0849875,20.173000000000002,98.8941875,19.40475Q99.7034875,18.63625,100.3431875,17.75075Q100.9828875,16.865000000000002,101.35548750000001,15.90325L101.35548750000001,15.66925ZM104.0639875,15.098749999999999Q104.6796875,16.481749999999998,105.66568749999999,17.73725Q106.65168750000001,18.99275,107.9039875,19.9695Q109.1563875,20.94625,110.55748750000001,21.5027Q110.4184875,21.6192,110.2606875,21.7957Q110.10318749999999,21.972,109.9628875,22.1628Q109.8226875,22.3532,109.7248875,22.5107Q108.2836875,21.8527,107.0126875,20.784750000000003Q105.7416875,19.716749999999998,104.72568749999999,18.353Q103.7099875,16.98925,103.01848749999999,15.43975L104.0639875,15.098749999999999ZM96.6196875,17.9955L97.2724875,17.3305Q97.69968750000001,17.565,98.1394875,17.875Q98.5793875,18.185,98.9626875,18.508Q99.3461875,18.831,99.5673875,19.12325L98.88998749999999,19.858Q98.6651875,19.57525,98.2878875,19.24125Q97.9106875,18.90725,97.47398749999999,18.57975Q97.0371875,18.25225,96.6196875,17.9955ZM107.2668875,15.194749999999999L108.1911875,15.841249999999999Q107.5616875,16.42425,106.80098749999999,17.0175Q106.0401875,17.610500000000002,105.4091875,18.037L104.6771875,17.46275Q105.0844875,17.1615,105.56518750000001,16.7675Q106.04588749999999,16.37325,106.4976875,15.957Q106.94968750000001,15.5405,107.2668875,15.194749999999999ZM109.06518750000001,17.08L109.9609875,17.7175Q109.3313875,18.3095,108.53898749999999,18.914749999999998Q107.74668750000001,19.52,107.0836875,19.93325L106.3456875,19.359Q106.7811875,19.06125,107.2841875,18.670749999999998Q107.7871875,18.28,108.2611875,17.85925Q108.7354875,17.43825,109.06518750000001,17.08ZM99.5253875,22.862000000000002L99.5253875,24.881500000000003L106.1923875,24.881500000000003L106.1923875,22.862000000000002L99.5253875,22.862000000000002ZM98.3248875,21.8675L107.4649875,21.8675L107.4649875,25.875700000000002L98.3248875,25.875700000000002L98.3248875,21.8675ZM99.4626875,26.3512L100.5436875,25.997700000000002Q100.8581875,26.467,101.1293875,27.0308Q101.4009875,27.5945,101.5199875,28.0085L100.3821875,28.409Q100.2789875,27.995,100.0216875,27.4107Q99.76468750000001,26.8265,99.4626875,26.3512ZM105.4138875,25.9757L106.5769875,26.2872Q106.23988750000001,26.964199999999998,105.8729875,27.656Q105.50618750000001,28.3475,105.1811875,28.8398L104.1481875,28.5443Q104.3701875,28.1943,104.6068875,27.7425Q104.8436875,27.2907,105.0593875,26.823Q105.2753875,26.3552,105.4138875,25.9757ZM112.05698749999999,21.1145L126.0341875,21.1145L126.0341875,22.183799999999998L112.05698749999999,22.183799999999998L112.05698749999999,21.1145ZM118.3661875,21.6612L119.58868749999999,21.6612L119.58868749999999,28.4802Q119.58868749999999,28.991,119.4421875,29.249Q119.29588749999999,29.5072,118.9116875,29.6335Q118.5434875,29.7537,117.9174875,29.7852Q117.2914875,29.817,116.3564875,29.8073Q116.30918750000001,29.5775,116.1826875,29.276Q116.0564875,28.9748,115.9399875,28.7505Q116.4123875,28.7665,116.8421875,28.7775Q117.2719875,28.7885,117.5919875,28.7805Q117.91198750000001,28.7725,118.0336875,28.7725Q118.22568749999999,28.7628,118.29588749999999,28.6938Q118.3661875,28.625,118.3661875,28.465L118.3661875,21.6612ZM119.44788750000001,22.347Q120.0336875,23.713,121.0151875,24.8625Q121.9968875,26.012,123.32748749999999,26.8407Q124.6581875,27.6695,126.2456875,28.105Q126.1164875,28.2278,125.9618875,28.4072Q125.80748750000001,28.5868,125.6734875,28.7835Q125.5393875,28.9802,125.4514875,29.1443Q123.8264875,28.6268,122.4896875,27.6975Q121.1529875,26.768,120.1409875,25.485Q119.12888749999999,24.201700000000002,118.4799875,22.6372L119.44788750000001,22.347ZM123.94618750000001,22.5763L124.97018750000001,23.326Q124.4366875,23.7837,123.81268750000001,24.261Q123.1886875,24.7382,122.5691875,25.1613Q121.94968750000001,25.5842,121.4084875,25.9113L120.5919875,25.2365Q121.1269875,24.897,121.74188749999999,24.442500000000003Q122.3568875,23.9877,122.9416875,23.4932Q123.52668750000001,22.9985,123.94618750000001,22.5763ZM113.13718750000001,23.422L113.94738749999999,22.691000000000003Q114.4566875,22.9602,115.0196875,23.314500000000002Q115.5829875,23.6685,116.0851875,24.0273Q116.5873875,24.3857,116.9039875,24.6995L116.0561875,25.532Q115.7584875,25.2183,115.2671875,24.8405Q114.77618749999999,24.462699999999998,114.2191875,24.0882Q113.6623875,23.7135,113.13718750000001,23.422ZM112.0803875,27.6308Q112.9026875,27.319699999999997,114.0028875,26.883699999999997Q115.1034875,26.4478,116.3286875,25.9528Q117.5541875,25.4578,118.77018749999999,24.9548L119.0096875,25.9725Q117.9236875,26.4497,116.8054875,26.944699999999997Q115.6874875,27.439700000000002,114.6466875,27.8853Q113.6059875,28.3305,112.7258875,28.702L112.0803875,27.6308ZM113.6201875,18.5385L123.2034875,18.5385L123.2034875,19.63625L113.6201875,19.63625L113.6201875,18.5385ZM122.85548750000001,15.95L122.9846875,15.95L123.2053875,15.89925L124.1466875,15.95625Q124.1369875,16.817,124.0856875,17.82725Q124.03468749999999,18.8375,123.9611875,19.847Q123.88798750000001,20.85625,123.8054875,21.7382L122.5673875,21.6785Q122.62168750000001,21.011,122.6726875,20.24525Q122.72398749999999,19.47925,122.7606875,18.70675Q122.7976875,17.93425,122.8216875,17.261Q122.8456875,16.5875,122.85548750000001,16.108249999999998L122.85548750000001,15.95ZM113.1381875,15.95L123.19568749999999,15.95L123.19568749999999,17.066499999999998L113.1381875,17.066499999999998L113.1381875,15.95Z" fill="#E4041C" fill-opacity="1" style="mix-blend-mode:passthrough"/></g></g></svg>