<svg xmlns="http://www.w3.org/2000/svg" xmlns:xlink="http://www.w3.org/1999/xlink" fill="none" version="1.1" width="380" height="48" viewBox="0 0 380 48"><g><rect x="0" y="0" width="380" height="48" rx="4" fill="#E4041C" fill-opacity="1" style="mix-blend-mode:passthrough"/><g><path d="M179.9501875,22.86L188.4181875,22.86L188.4181875,24.0042L179.9501875,24.0042L179.9501875,22.86ZM178.8239375,28.135L189.3836875,28.135L189.3836875,29.2792L178.8239375,29.2792L178.8239375,28.135ZM179.3296875,18.11525L188.9941875,18.11525L188.9941875,19.2595L179.3296875,19.2595L179.3296875,18.11525ZM183.5466875,18.761L184.78798749999999,18.761L184.78798749999999,28.6895L183.5466875,28.6895L183.5466875,18.761ZM175.5039375,16.11275L176.1754375,15.24625Q176.6881875,15.473749999999999,177.2609375,15.7685Q177.8339375,16.063,178.3601875,16.36575Q178.8864375,16.66825,179.2286875,16.918L178.53243750000001,17.9145Q178.2026875,17.64875,177.6856875,17.323999999999998Q177.1689375,16.999,176.5959375,16.676000000000002Q176.0231875,16.35275,175.5039375,16.11275ZM174.6639375,20.5465L175.3199375,19.65175Q175.8194375,19.86325,176.3759375,20.15475Q176.9324375,20.44625,177.4454375,20.741Q177.9584375,21.0355,178.2909375,21.285249999999998L177.6194375,22.2843Q177.2994375,22.0282,176.7959375,21.7195Q176.2924375,21.4105,175.7309375,21.0985Q175.1696875,20.7865,174.6639375,20.5465ZM175.1321875,28.7855Q175.5641875,28.174,176.0986875,27.3173Q176.6334375,26.4602,177.1774375,25.4983Q177.7214375,24.536,178.1819375,23.627499999999998L179.0546875,24.4182Q178.6386875,25.259999999999998,178.1404375,26.1795Q177.6421875,27.099,177.1311875,27.975Q176.6201875,28.8507,176.1436875,29.602L175.1321875,28.7855ZM182.7609375,15.39175L183.8509375,14.99375Q184.2649875,15.6025,184.6674875,16.3345Q185.0701875,17.066499999999998,185.2531875,17.588250000000002L184.0936875,18.05625Q183.9231875,17.521250000000002,183.5459375,16.76725Q183.1689375,16.012999999999998,182.7609375,15.39175ZM193.0761875,16.102L196.4923875,16.102L196.4923875,17.231L193.0761875,17.231L193.0761875,16.102ZM190.6611875,21.41225L205.3266875,21.41225L205.3266875,22.5688L190.6611875,22.5688L190.6611875,21.41225ZM192.4529875,16.102L193.6031875,16.102L193.6031875,21.05125Q193.6031875,22.0238,193.5248875,23.175Q193.4466875,24.3263,193.2341875,25.5175Q193.02168749999998,26.7087,192.6078875,27.83Q192.1941875,28.9513,191.51318750000002,29.874Q191.4311875,29.7412,191.2654875,29.576Q191.0998875,29.411,190.9311875,29.2582Q190.7626875,29.1055,190.6361875,29.0298Q191.2573875,28.1607,191.6226875,27.153Q191.9879875,26.145,192.1623875,25.083Q192.3371875,24.0208,192.3949875,22.9925Q192.4529875,21.964199999999998,192.4529875,21.05125L192.4529875,16.102ZM195.8648875,16.102L197.0311875,16.102L197.0311875,28.2695Q197.0311875,28.7518,196.9004875,29.0257Q196.7696875,29.3,196.4389875,29.445Q196.1176875,29.584,195.5696875,29.6217Q195.02168749999998,29.6597,194.1826875,29.6597Q194.1479875,29.4328,194.0306875,29.1125Q193.9136875,28.7925,193.7873875,28.5683Q194.3959875,28.5842,194.8946875,28.5872Q195.3936875,28.5905,195.5571875,28.5745Q195.73318749999999,28.5645,195.7989875,28.5005Q195.8648875,28.4365,195.8648875,28.2668L195.8648875,16.102ZM199.3536875,16.102L202.8969875,16.102L202.8969875,17.231L199.3536875,17.231L199.3536875,16.102ZM198.7009875,16.102L199.8638875,16.102L199.8638875,21.075499999999998Q199.8638875,22.0417,199.7966875,23.1787Q199.7296875,24.3158,199.5361875,25.492800000000003Q199.3428875,26.6695,198.9686875,27.7815Q198.5943875,28.8935,197.9801875,29.8162Q197.8918875,29.6995,197.7248875,29.5325Q197.5581875,29.3655,197.3799875,29.216Q197.2019875,29.0665,197.0754875,28.9907Q197.6364875,28.1215,197.9584875,27.1233Q198.2806875,26.1248,198.4408875,25.070700000000002Q198.6013875,24.0165,198.6511875,22.9912Q198.7009875,21.966,198.7009875,21.06925L198.7009875,16.102ZM202.4211875,16.102L203.6029875,16.102L203.6029875,28.3207Q203.6029875,28.835,203.4721875,29.1215Q203.3414875,29.4083,203.0044875,29.5497Q202.6734875,29.695,202.1044875,29.7327Q201.5354875,29.7705,200.6671875,29.7705Q200.6449875,29.613,200.5769875,29.408Q200.5089875,29.2033,200.4331875,28.9935Q200.35738750000002,28.784,200.2656875,28.6388Q200.8936875,28.6548,201.41218750000002,28.6577Q201.9306875,28.661,202.0941875,28.6513Q202.2799875,28.6353,202.3503875,28.5662Q202.4211875,28.4975,202.4211875,28.3083L202.4211875,16.102Z" fill="#FFFFFF" fill-opacity="1" style="mix-blend-mode:passthrough"/></g></g></svg>