<svg xmlns="http://www.w3.org/2000/svg" xmlns:xlink="http://www.w3.org/1999/xlink" fill="none" version="1.1" width="190" height="50" viewBox="0 0 190 50"><g><rect x="0" y="0" width="190" height="50" rx="0" fill="#000000" fill-opacity="0" style="mix-blend-mode:passthrough"/><path d="M190,50L190,48L0,48L0,50L190,50Z" fill-rule="evenodd" fill="#E4041C" fill-opacity="1" style="mix-blend-mode:passthrough"/><g><path d="M60.5484375,22.534L61.6086875,22.534Q61.6086875,22.534,61.6054375,22.7257Q61.6024375,22.9175,61.5864375,23.035Q61.4576875,25.067700000000002,61.3244375,26.311Q61.1911875,27.554,61.0194375,28.2127Q60.8479375,28.8715,60.5981875,29.1303Q60.3946875,29.375,60.1556875,29.4718Q59.9169375,29.5688,59.5594375,29.6035Q59.2529375,29.6222,58.7296875,29.6155Q58.2066875,29.609,57.6306875,29.5735Q57.6146875,29.343,57.5326875,29.062Q57.4506875,28.781,57.3084375,28.563Q57.9081875,28.6208,58.4134375,28.6367Q58.9186875,28.6528,59.1329375,28.6528Q59.3346875,28.6528,59.4674375,28.6175Q59.6004375,28.5825,59.702687499999996,28.4643Q59.8856875,28.2687,60.0366875,27.6635Q60.1876875,27.0583,60.3114375,25.865000000000002Q60.4354375,24.671799999999998,60.5484375,22.7272L60.5484375,22.534ZM55.4929375,26.133699999999997Q56.3221875,25.9473,57.4461875,25.6595Q58.5701875,25.371499999999997,59.7486875,25.066000000000003L59.8564375,25.994500000000002Q58.7764375,26.2902,57.7099375,26.5925Q56.6434375,26.8945,55.7439375,27.1388L55.4929375,26.133699999999997ZM56.0206875,15.780999999999999L60.2419375,15.780999999999999L60.2419375,16.819L56.0206875,16.819L56.0206875,15.780999999999999ZM59.9001875,15.780999999999999L60.9416875,15.780999999999999Q60.890187499999996,16.6345,60.8096875,17.58925Q60.7294375,18.54375,60.6459375,19.4955Q60.5624375,20.447,60.4789375,21.29775Q60.3954375,22.1485,60.3154375,22.794L59.2604375,22.8532Q59.3501875,22.1722,59.449687499999996,21.302Q59.5491875,20.43175,59.6376875,19.4705Q59.7261875,18.509,59.7954375,17.55575Q59.8646875,16.6025,59.9001875,15.780999999999999ZM56.6969375,18.00625L57.7279375,18.073Q57.6701875,18.9425,57.5914375,19.95325Q57.5129375,20.963749999999997,57.4181875,21.8995Q57.3236875,22.835,57.2241875,23.5257L56.1959375,23.5257Q56.3016875,22.8127,56.396187499999996,21.8532Q56.4909375,20.8935,56.5711875,19.87975Q56.6516875,18.866,56.6969375,18.00625ZM56.5724375,22.5402L60.7209375,22.5402L60.7209375,23.5257L56.5724375,23.5257L56.5724375,22.5402ZM66.0564875,15.561499999999999Q66.5391875,16.3675,67.2874875,17.2375Q68.0359875,18.10725,68.9011875,18.87475Q69.7666875,19.642,70.5819875,20.175Q70.4741875,20.30675,70.3521875,20.5095Q70.2304875,20.712249999999997,70.13368750000001,20.915Q70.0371875,21.1175,69.9706875,21.2875Q69.1116875,20.653750000000002,68.2074875,19.79075Q67.3034875,18.92775,66.5111875,17.97Q65.7189875,17.01225,65.1801875,16.1315L66.0564875,15.561499999999999ZM65.65718749999999,14.94725L66.7071875,15.29025Q66.1514875,16.523,65.3574875,17.64Q64.56343749999999,18.75675,63.6349375,19.69425Q62.7064375,20.631500000000003,61.7116875,21.329250000000002Q61.6484375,21.2065,61.5156875,21.027Q61.3831875,20.8475,61.2441875,20.668Q61.1054375,20.488500000000002,60.9914375,20.372Q61.958687499999996,19.75975,62.8404375,18.92Q63.722187500000004,18.08,64.4464375,17.07175Q65.1709875,16.0635,65.65718749999999,14.94725ZM63.5216875,20.01575L68.2946875,20.01575L68.2946875,21.06375L63.5216875,21.06375L63.5216875,20.01575ZM62.4701875,22.706L63.4004375,22.4762Q63.6449375,23.078,63.8616875,23.7695Q64.0784375,24.461,64.2436875,25.1175Q64.40893750000001,25.7738,64.4791875,26.2955L63.4954375,26.560000000000002Q63.4279375,26.0382,63.2686875,25.372500000000002Q63.1096875,24.706699999999998,62.9039375,24.0122Q62.6984375,23.317500000000003,62.4701875,22.706ZM65.2904875,22.3005L66.2306875,22.1677Q66.3941875,22.7695,66.5349875,23.4613Q66.6759875,24.1528,66.7799875,24.807499999999997Q66.8839875,25.462,66.9221875,25.9837L65.9346875,26.1447Q65.9026875,25.622999999999998,65.7999875,24.9572Q65.6974875,24.2915,65.5676875,23.597Q65.4379875,22.9023,65.2904875,22.3005ZM68.9069875,22.3923L70.0011875,22.6585Q69.6421875,23.599,69.1991875,24.6477Q68.7561875,25.6965,68.30018749999999,26.6737Q67.8444875,27.651,67.4206875,28.3878L66.5409875,28.1055Q66.8394875,27.5518,67.17048750000001,26.8407Q67.5014875,26.1297,67.8261875,25.3482Q68.1509875,24.566499999999998,68.4306875,23.8042Q68.7106875,23.042,68.9069875,22.3923ZM61.9584375,27.939L70.1171875,27.939L70.1171875,28.9932L61.9584375,28.9932L61.9584375,27.939ZM81.3519875,16.607L82.57118750000001,16.607L82.57118750000001,28.6098L81.3519875,28.6098L81.3519875,16.607ZM78.0006875,20.302500000000002L79.1821875,20.302500000000002L79.1821875,28.698L78.0006875,28.698L78.0006875,20.302500000000002ZM81.7971875,21.6022L85.7401875,21.6022L85.7401875,22.7375L81.7971875,22.7375L81.7971875,21.6022ZM77.1731875,16.2855L86.0344875,16.2855L86.0344875,17.411L77.1731875,17.411L77.1731875,16.2855ZM76.6226875,28.0195L86.3774875,28.0195L86.3774875,29.145L76.6226875,29.145L76.6226875,28.0195ZM72.6196875,16.2025L73.4146875,15.47775Q73.8564875,15.82,74.3359875,16.2405Q74.8156875,16.661,75.2454875,17.07675Q75.6754875,17.49225,75.93418750000001,17.82475L75.1016875,18.663249999999998Q74.8456875,18.32475,74.42518749999999,17.895Q74.0046875,17.465,73.5329875,17.01925Q73.0614875,16.57325,72.6196875,16.2025ZM73.8936875,29.3302L73.6469875,28.1852L73.9501875,27.673L76.8236875,25.4867Q76.8869875,25.640700000000002,76.9686875,25.8357Q77.0506875,26.0308,77.1389875,26.2153Q77.2271875,26.3995,77.2929875,26.516199999999998Q76.2644875,27.325499999999998,75.6321875,27.8253Q74.9998875,28.325,74.6521875,28.6065Q74.3046875,28.8883,74.1453875,29.0487Q73.9861875,29.2092,73.8936875,29.3302ZM71.7899875,20.080750000000002L74.7506875,20.080750000000002L74.7506875,21.24075L71.7899875,21.24075L71.7899875,20.080750000000002ZM73.8936875,29.3302Q73.8244875,29.2038,73.6854875,29.0475Q73.5466875,28.8913,73.4031875,28.7442Q73.2598875,28.5975,73.1458875,28.5123Q73.3016875,28.3822,73.5154875,28.136Q73.7291875,27.8895,73.88748749999999,27.549Q74.0456875,27.2083,74.0456875,26.7812L74.0456875,20.080750000000002L75.2086875,20.080750000000002L75.2086875,27.6045Q75.2086875,27.6045,75.0751875,27.7345Q74.9416875,27.8645,74.7463875,28.0688Q74.5511875,28.273,74.3559875,28.5105Q74.1606875,28.7482,74.0271875,28.9648Q73.8936875,29.1815,73.8936875,29.3302ZM100.8679875,22.076999999999998L102.0281875,22.076999999999998Q102.0281875,22.076999999999998,102.02498750000001,22.1737Q102.0219875,22.2703,102.0156875,22.3953Q102.0094875,22.5203,101.9934875,22.6155Q101.8201875,24.7735,101.6246875,26.1175Q101.4291875,27.4615,101.2063875,28.183Q100.9839875,28.9042,100.6959875,29.195Q100.4699875,29.446,100.2151875,29.5522Q99.9604875,29.6585,99.5931875,29.6835Q99.2899875,29.7022,98.77618749999999,29.7035Q98.2623875,29.705,97.6766875,29.6695Q97.6606875,29.4202,97.5756875,29.1063Q97.4906875,28.7925,97.3516875,28.562Q97.9329875,28.6197,98.4224875,28.6325Q98.91198750000001,28.6455,99.1261875,28.6455Q99.3313875,28.6553,99.47218749999999,28.62Q99.61318750000001,28.585,99.7216875,28.4605Q99.9563875,28.2393,100.15368749999999,27.5745Q100.3508875,26.9095,100.5289875,25.625Q100.7071875,24.3403,100.8679875,22.2827L100.8679875,22.076999999999998ZM94.0851875,16.0015L100.0229875,16.0015L100.0229875,17.1055L94.0851875,17.1055L94.0851875,16.0015ZM94.85318749999999,18.100749999999998L95.9751875,18.18Q95.92088749999999,18.975,95.82668749999999,19.8855Q95.7323875,20.795749999999998,95.6381875,21.640700000000002Q95.5439875,22.485799999999998,95.4416875,23.1117L94.3199875,23.1117Q94.4283875,22.4635,94.5256875,21.5962Q94.6231875,20.729,94.71418750000001,19.807499999999997Q94.8051875,18.886,94.85318749999999,18.100749999999998ZM94.6449875,22.076999999999998L101.2186875,22.076999999999998L101.2186875,23.121499999999997L94.6449875,23.121499999999997L94.6449875,22.076999999999998ZM93.5516875,25.222L99.6643875,25.222L99.6643875,26.303800000000003L93.5516875,26.303800000000003L93.5516875,25.222ZM99.52618749999999,16.0015L99.6491875,16.0015L99.8449875,15.940999999999999L100.6829875,16.03625Q100.63488749999999,16.744,100.5516875,17.60025Q100.4686875,18.45625,100.3676875,19.369Q100.2668875,20.2815,100.15968749999999,21.175Q100.05268749999999,22.068199999999997,99.9406875,22.8507L98.8124875,22.7625Q98.92088749999999,21.974,99.0296875,21.06325Q99.1386875,20.152250000000002,99.2346875,19.238Q99.33068750000001,18.32375,99.4074875,17.518250000000002Q99.4843875,16.71275,99.52618749999999,16.14725L99.52618749999999,16.0015ZM87.8016875,15.9125L93.30188749999999,15.9125L93.30188749999999,17.012999999999998L87.8016875,17.012999999999998L87.8016875,15.9125ZM89.3638875,20.838749999999997L92.8381875,20.838749999999997L92.8381875,27.7585L89.3638875,27.7585L89.3638875,26.689L91.7813875,26.689L91.7813875,21.918L89.3638875,21.918L89.3638875,20.838749999999997ZM89.8578875,16.450499999999998L90.97788750000001,16.6865Q90.6933875,18.19675,90.2799875,19.64Q89.8666875,21.08325,89.3081875,22.3328Q88.7496875,23.5822,88.00018750000001,24.5415Q87.9681875,24.3872,87.8723875,24.144199999999998Q87.77698749999999,23.901,87.66568749999999,23.6515Q87.5546875,23.402,87.4531875,23.2515Q88.3764875,22.017,88.9566875,20.2345Q89.5371875,18.45175,89.8578875,16.450499999999998ZM88.8466875,20.838749999999997L89.8911875,20.838749999999997L89.8911875,29.047L88.8466875,29.047L88.8466875,20.838749999999997ZM108.1373875,19.523L113.8986875,19.523L113.8986875,20.555L108.1373875,20.555L108.1373875,19.523ZM103.9493875,28.3592L118.0536875,28.3592L118.0536875,29.4037L103.9493875,29.4037L103.9493875,28.3592ZM104.6141875,15.66925L109.6724875,15.66925L109.6724875,16.67625L104.6141875,16.67625L104.6141875,15.66925ZM109.35548750000001,15.66925L109.56638749999999,15.66925L109.7844875,15.61225L110.5813875,16.01925Q110.13968750000001,17.183,109.44138749999999,18.195Q108.7434875,19.207,107.87888749999999,20.048000000000002Q107.01468750000001,20.889,106.0611875,21.5425Q105.1078875,22.195700000000002,104.1493875,22.6555Q104.0736875,22.5168,103.9426875,22.353Q103.8119875,22.189,103.67168749999999,22.0235Q103.5313875,21.8577,103.4086875,21.7472Q104.3011875,21.372999999999998,105.1928875,20.773Q106.0849875,20.173000000000002,106.8941875,19.40475Q107.7034875,18.63625,108.3431875,17.75075Q108.9828875,16.865000000000002,109.35548750000001,15.90325L109.35548750000001,15.66925ZM112.0639875,15.098749999999999Q112.6796875,16.481749999999998,113.66568749999999,17.73725Q114.65168750000001,18.99275,115.9039875,19.9695Q117.1563875,20.94625,118.55748750000001,21.5027Q118.4184875,21.6192,118.2606875,21.7957Q118.10318749999999,21.972,117.9628875,22.1628Q117.8226875,22.3532,117.7248875,22.5107Q116.2836875,21.8527,115.0126875,20.784750000000003Q113.7416875,19.716749999999998,112.72568749999999,18.353Q111.7099875,16.98925,111.01848749999999,15.43975L112.0639875,15.098749999999999ZM104.6196875,17.9955L105.2724875,17.3305Q105.69968750000001,17.565,106.1394875,17.875Q106.5793875,18.185,106.9626875,18.508Q107.3461875,18.831,107.5673875,19.12325L106.88998749999999,19.858Q106.6651875,19.57525,106.2878875,19.24125Q105.9106875,18.90725,105.47398749999999,18.57975Q105.0371875,18.25225,104.6196875,17.9955ZM115.2668875,15.194749999999999L116.1911875,15.841249999999999Q115.5616875,16.42425,114.80098749999999,17.0175Q114.0401875,17.610500000000002,113.4091875,18.037L112.6771875,17.46275Q113.0844875,17.1615,113.56518750000001,16.7675Q114.04588749999999,16.37325,114.4976875,15.957Q114.94968750000001,15.5405,115.2668875,15.194749999999999ZM117.06518750000001,17.08L117.9609875,17.7175Q117.3313875,18.3095,116.53898749999999,18.914749999999998Q115.74668750000001,19.52,115.0836875,19.93325L114.3456875,19.359Q114.7811875,19.06125,115.2841875,18.670749999999998Q115.7871875,18.28,116.2611875,17.85925Q116.7354875,17.43825,117.06518750000001,17.08ZM107.5253875,22.862000000000002L107.5253875,24.881500000000003L114.1923875,24.881500000000003L114.1923875,22.862000000000002L107.5253875,22.862000000000002ZM106.3248875,21.8675L115.4649875,21.8675L115.4649875,25.875700000000002L106.3248875,25.875700000000002L106.3248875,21.8675ZM107.4626875,26.3512L108.5436875,25.997700000000002Q108.8581875,26.467,109.1293875,27.0308Q109.4009875,27.5945,109.5199875,28.0085L108.3821875,28.409Q108.2789875,27.995,108.0216875,27.4107Q107.76468750000001,26.8265,107.4626875,26.3512ZM113.4138875,25.9757L114.5769875,26.2872Q114.23988750000001,26.964199999999998,113.8729875,27.656Q113.50618750000001,28.3475,113.1811875,28.8398L112.1481875,28.5443Q112.3701875,28.1943,112.6068875,27.7425Q112.8436875,27.2907,113.0593875,26.823Q113.2753875,26.3552,113.4138875,25.9757ZM120.0569875,21.1145L134.0341875,21.1145L134.0341875,22.183799999999998L120.0569875,22.183799999999998L120.0569875,21.1145ZM126.3661875,21.6612L127.5886875,21.6612L127.5886875,28.4802Q127.5886875,28.991,127.4421875,29.249Q127.2958875,29.5072,126.9116875,29.6335Q126.5434875,29.7537,125.9173875,29.7852Q125.2913875,29.817,124.3564875,29.8073Q124.3091875,29.5775,124.1826875,29.276Q124.0563875,28.9748,123.9399875,28.7505Q124.4123875,28.7665,124.8421875,28.7775Q125.2718875,28.7885,125.5918875,28.7805Q125.9119875,28.7725,126.0336875,28.7725Q126.2256875,28.7628,126.2958875,28.6938Q126.3661875,28.625,126.3661875,28.465L126.3661875,21.6612ZM127.4478875,22.347Q128.03368749999998,23.713,129.0151875,24.8625Q129.9969875,26.012,131.32748750000002,26.8407Q132.6581875,27.6695,134.2456875,28.105Q134.1164875,28.2278,133.9618875,28.4072Q133.8073875,28.5868,133.6734875,28.7835Q133.5393875,28.9802,133.45148749999998,29.1443Q131.82648749999998,28.6268,130.4896875,27.6975Q129.1529875,26.768,128.1409875,25.485Q127.1288875,24.201700000000002,126.4798875,22.6372L127.4478875,22.347ZM131.9461875,22.5763L132.9701875,23.326Q132.4366875,23.7837,131.81268749999998,24.261Q131.18868750000001,24.7382,130.5691875,25.1613Q129.94968749999998,25.5842,129.4084875,25.9113L128.59188749999998,25.2365Q129.12698749999998,24.897,129.74188750000002,24.442500000000003Q130.3569875,23.9877,130.9416875,23.4932Q131.52668749999998,22.9985,131.9461875,22.5763ZM121.1371875,23.422L121.9474875,22.691000000000003Q122.4566875,22.9602,123.0196875,23.314500000000002Q123.5829875,23.6685,124.0851875,24.0273Q124.5874875,24.3857,124.9039875,24.6995L124.0561875,25.532Q123.7584875,25.2183,123.2671875,24.8405Q122.7761875,24.462699999999998,122.2191875,24.0882Q121.6623875,23.7135,121.1371875,23.422ZM120.0803875,27.6308Q120.9026875,27.319699999999997,122.0028875,26.883699999999997Q123.1034875,26.4478,124.3286875,25.9528Q125.5541875,25.4578,126.7701875,24.9548L127.0096875,25.9725Q125.9236875,26.4497,124.8053875,26.944699999999997Q123.6874875,27.439700000000002,122.6466875,27.8853Q121.6058875,28.3305,120.7258875,28.702L120.0803875,27.6308ZM121.6201875,18.5385L131.2034875,18.5385L131.2034875,19.63625L121.6201875,19.63625L121.6201875,18.5385ZM130.85548749999998,15.95L130.9846875,15.95L131.2053875,15.89925L132.14668749999998,15.95625Q132.1369875,16.817,132.0856875,17.82725Q132.03468750000002,18.8375,131.9611875,19.847Q131.8879875,20.85625,131.8053875,21.7382L130.5673875,21.6785Q130.6216875,21.011,130.6726875,20.24525Q130.72398750000002,19.47925,130.76068750000002,18.70675Q130.7976875,17.93425,130.8216875,17.261Q130.8456875,16.5875,130.85548749999998,16.108249999999998L130.85548749999998,15.95ZM121.1381875,15.95L131.19568750000002,15.95L131.19568750000002,17.066499999999998L121.1381875,17.066499999999998L121.1381875,15.95Z" fill="#E4041C" fill-opacity="1" style="mix-blend-mode:passthrough"/></g></g></svg>