<svg xmlns="http://www.w3.org/2000/svg" xmlns:xlink="http://www.w3.org/1999/xlink" fill="none" version="1.1" width="1207" height="82" viewBox="0 0 1207 82"><g><rect x="0" y="0" width="1207" height="82" rx="12" fill="#FFFFFF" fill-opacity="1" style="mix-blend-mode:passthrough"/><rect x="0.5" y="0.5" width="1206" height="81" rx="11.5" fill-opacity="0" stroke-opacity="1" stroke="#E5E7EB" fill="none" stroke-width="1" style="mix-blend-mode:passthrough"/><g><rect x="17" y="17" width="312.65625" height="48" rx="0" fill="#000000" fill-opacity="0" style="mix-blend-mode:passthrough"/><g><rect x="17" y="37" width="8" height="8" rx="4" fill="#E6002D" fill-opacity="1" style="mix-blend-mode:passthrough"/></g><g><rect x="41" y="17" width="288.65625" height="48" rx="0" fill="#000000" fill-opacity="0" style="mix-blend-mode:passthrough"/><g><rect x="41" y="17" width="288.65625" height="24" rx="0" fill="#000000" fill-opacity="0" style="mix-blend-mode:passthrough"/><g><rect x="41" y="17" width="72" height="24" rx="4" fill="#FFEDD5" fill-opacity="1" style="mix-blend-mode:passthrough"/><g><path d="M50.88519,25.74634L55.26216,25.74634L55.26216,26.70141L50.88519,26.70141L50.88519,25.74634ZM50.87184,22.98069L55.89981,22.98069L55.89981,29.5968L50.87184,29.5968L50.87184,28.64478L54.84631,28.64478L54.84631,23.92416L50.87184,23.92416L50.87184,22.98069ZM50.35166,34.6961L50.26416,33.7471L50.73534,33.3136L54.82313,31.9818Q54.87519,32.196799999999996,54.95744,32.4488Q55.03969,32.7008,55.10291,32.8693Q53.62438,33.3886,52.7345,33.7097Q51.84462,34.0308,51.36819,34.2128Q50.89175,34.394800000000004,50.68263,34.4994Q50.47372,34.6042,50.35166,34.6961ZM53.40388,30.741300000000003L54.29681,30.308799999999998Q54.66409,30.874299999999998,55.04363,31.5351Q55.42316,32.1958,55.74931,32.8142Q56.07569,33.4326,56.26622,33.9079L55.31859,34.4207Q55.139,33.9453,54.82356,33.3103Q54.50834,32.675,54.13691,31.996499999999997Q53.76569,31.317700000000002,53.40388,30.741300000000003ZM50.35166,34.6961Q50.32125,34.5473,50.24906,34.3448Q50.17709,34.1422,50.08719,33.9521Q49.997281,33.7618,49.906063,33.629400000000004Q50.09528,33.5376,50.30091,33.3337Q50.50675,33.1298,50.50675,32.7323L50.50675,22.98069L51.56791,22.98069L51.56791,33.753299999999996Q51.56791,33.753299999999996,51.44606,33.8088Q51.32422,33.8644,51.1455,33.964600000000004Q50.96678,34.0645,50.78106,34.1851Q50.59534,34.3058,50.4735,34.4375Q50.35166,34.5692,50.35166,34.6961ZM60.7589,23.07016L61.7958,23.07016L61.7958,31.142Q61.7958,31.564,61.6912,31.813200000000002Q61.5867,32.0623,61.2885,32.197900000000004Q61.0043,32.324799999999996,60.51,32.355199999999996Q60.0158,32.3856,59.2524,32.3771Q59.2274,32.167500000000004,59.1402,31.8766Q59.0529,31.5857,58.93388,31.372799999999998Q59.4786,31.3868,59.9176,31.3938Q60.3568,31.4008,60.4977,31.3868Q60.6524,31.3783,60.7055,31.3236Q60.7589,31.268700000000003,60.7589,31.1342L60.7589,23.07016ZM57.169219999999996,23.07016L61.3296,23.07016L61.3296,24.04403L58.21419,24.04403L58.21419,35.125L57.169219999999996,35.125L57.169219999999996,23.07016ZM67.8993,29.0908L76.30199999999999,29.0908L76.30199999999999,30.064700000000002L67.8993,30.064700000000002L67.8993,29.0908ZM73.5667,27.35372L74.6093,27.35372L74.6093,33.8674Q74.6093,34.322900000000004,74.4866,34.5666Q74.36410000000001,34.8103,74.0193,34.9319Q73.6969,35.0533,73.1325,35.0767Q72.5681,35.1001,71.7305,35.1001Q71.70009999999999,34.899100000000004,71.6019,34.6092Q71.5039,34.3194,71.39320000000001,34.106700000000004Q72.0315,34.1208,72.56530000000001,34.1278Q73.0993,34.1348,73.2812,34.1262Q73.4492,34.1177,73.5079,34.0602Q73.5667,34.0026,73.5667,33.8596L73.5667,27.35372ZM68.8964,30.9377L69.7543,30.476399999999998Q70.1221,30.8351,70.4883,31.272199999999998Q70.85470000000001,31.7092,71.1618,32.1437Q71.4689,32.5779,71.64,32.931L70.7245,33.4614Q70.5729,33.1084,70.2765,32.661699999999996Q69.9803,32.2148,69.61959999999999,31.7611Q69.2589,31.3072,68.8964,30.9377ZM66.2183,22.2435L67.23570000000001,22.2435L67.23570000000001,35.108000000000004L66.2183,35.108000000000004L66.2183,22.2435ZM63.541,31.2133Q64.09309999999999,30.7717,64.8723,30.0927Q65.6517,29.4137,66.4503,28.67978L66.8537,29.532Q66.1719,30.1953,65.4594,30.8697Q64.74719999999999,31.5441,64.1226,32.1002L63.541,31.2133ZM63.6108,24.70925L64.3477,24.13284Q64.71000000000001,24.47497,65.0842,24.88447Q65.4587,25.29375,65.77680000000001,25.69625Q66.0949,26.09875,66.2716,26.42687L65.4933,27.07809Q65.3223,26.74144,65.0164,26.32669Q64.7108,25.91172,64.3418,25.48712Q63.973,25.06231,63.6108,24.70925ZM71.3075,23.36416L75.3417,23.36416L75.1251,24.22888L70.763,24.22888L71.3075,23.36416ZM71.7723,22.238030000000002L72.8361,22.548000000000002Q72.3529,23.19681,71.6815,23.81478Q71.0102,24.43275,70.2218,24.95316Q69.4337,25.47356,68.607,25.86862Q68.5352,25.76669,68.4097,25.6385Q68.2843,25.51031,68.15350000000001,25.38497Q68.0227,25.25941,67.92060000000001,25.18219Q68.7223,24.84247,69.461,24.36581Q70.1999,23.88916,70.79560000000001,23.34403Q71.3913,22.79869,71.7723,22.238030000000002ZM70.0663,25.45912L70.8415,24.998Q71.2661,25.332250000000002,71.696,25.76931Q72.1258,26.20616,72.3452,26.56534L71.5201,27.06562Q71.3204,26.71716,70.90559999999999,26.26237Q70.4909,25.80759,70.0663,25.45912ZM74.97149999999999,23.36416L75.17869999999999,23.36416L75.3664,23.31975L76.0528,23.68441Q75.5521,24.74687,74.7541,25.57922Q73.95609999999999,26.41156,72.95660000000001,27.027340000000002Q71.9572,27.64291,70.8295,28.07384Q69.7021,28.50478,68.5453,28.76466Q68.46809999999999,28.57128,68.322,28.32278Q68.1758,28.07428,68.0295,27.925530000000002Q69.1038,27.721,70.1649,27.33841Q71.2263,26.95581,72.1621,26.40631Q73.09819999999999,25.85681,73.82730000000001,25.14062Q74.5563,24.42444,74.97149999999999,23.538719999999998L74.97149999999999,23.36416ZM83.8663,22.83041L89.5444,22.83041L89.5444,23.73341L83.8663,23.73341L83.8663,22.83041ZM85.8843,23.15788L86.8862,23.21869Q86.73830000000001,25.01178,86.0735,26.16087Q85.4088,27.30975,84.1842,28.021340000000002Q84.107,27.93034,83.958,27.804560000000002Q83.8092,27.67878,83.6577,27.560000000000002Q83.50630000000001,27.44122,83.39009999999999,27.37187Q84.6007,26.78781,85.1891,25.76166Q85.7778,24.73528,85.8843,23.15788ZM89.01830000000001,22.83041L90.0196,22.83041Q90.0196,22.83041,90.0196,22.98856Q90.0196,23.146720000000002,90.0056,23.24931Q89.9465,24.50603,89.875,25.29353Q89.80340000000001,26.08081,89.69839999999999,26.50475Q89.5934,26.92869,89.434,27.11309Q89.2782,27.285249999999998,89.08590000000001,27.363120000000002Q88.8939,27.44078,88.6169,27.46266Q88.3851,27.48759,87.96770000000001,27.48453Q87.5505,27.48147,87.0831,27.45894Q87.06909999999999,27.25484,86.9973,26.99825Q86.92580000000001,26.74144,86.8151,26.55069Q87.2568,26.59575,87.62950000000001,26.60275Q88.00229999999999,26.60975,88.1477,26.60975Q88.4649,26.62681,88.5793,26.48681Q88.68889999999999,26.35775,88.7635,25.99419Q88.8381,25.63062,88.90129999999999,24.90219Q88.9648,24.17353,89.01830000000001,22.98856L89.01830000000001,22.83041ZM78.0157,23.92437L83.43469999999999,23.92437L83.43469999999999,24.8545L78.0157,24.8545L78.0157,23.92437ZM77.7308,26.59072L83.7187,26.59072L83.7187,27.540309999999998L77.7308,27.540309999999998L77.7308,26.59072ZM80.9005,29.5349L83.5824,29.5349L83.5824,30.465L80.9005,30.465L80.9005,29.5349ZM80.2519,22.24044L81.22579999999999,22.24044L81.22579999999999,27.087719999999997L80.2519,27.087719999999997L80.2519,22.24044ZM80.44030000000001,27.19119L81.3868,27.19119L81.3868,33.5653L80.44030000000001,33.5653L80.44030000000001,27.19119ZM79.1177,30.2222Q79.4062,31.319699999999997,79.8558,32.0162Q80.3053,32.7124,80.9764,33.088499999999996Q81.6476,33.4645,82.5703,33.608000000000004Q83.49289999999999,33.7513,84.72229999999999,33.7513Q84.8991,33.7513,85.3309,33.7541Q85.7627,33.7568,86.3494,33.7541Q86.9363,33.7513,87.58359999999999,33.7513Q88.2311,33.7513,88.8346,33.7487Q89.43809999999999,33.7458,89.90209999999999,33.737700000000004Q90.3663,33.7294,90.582,33.7239Q90.4962,33.837,90.4105,34.0232Q90.3249,34.2093,90.25710000000001,34.4064Q90.1893,34.6038,90.1537,34.757999999999996L89.1052,34.757999999999996L84.7424,34.757999999999996Q83.3053,34.757999999999996,82.2539,34.583Q81.2028,34.408,80.4571,33.946600000000004Q79.7116,33.4853,79.1987,32.6459Q78.6857,31.8064,78.3418,30.4832L79.1177,30.2222ZM78.3571,28.54766L79.3098,28.608249999999998Q79.2787,29.9468,79.1888,31.146Q79.09909999999999,32.3449,78.8732,33.3534Q78.6474,34.3618,78.22919999999999,35.139700000000005Q78.1465,35.0649,77.9905,34.9695Q77.8347,34.8741,77.6692,34.7798Q77.5038,34.6858,77.3822,34.6359Q77.7864,33.9274,77.9901,32.9839Q78.1939,32.0404,78.267,30.9119Q78.3401,29.7834,78.3571,28.54766ZM85.316,29.1247L85.316,31.708399999999997L88.6613,31.708399999999997L88.6613,29.1247L85.316,29.1247ZM84.3227,28.24928L89.70920000000001,28.24928L89.70920000000001,32.5871L84.3227,32.5871L84.3227,28.24928ZM92.6476,23.41316L96.5213,23.41316L96.5213,32.518L92.6476,32.518L92.6476,31.566000000000003L95.5367,31.566000000000003L95.5367,24.36516L92.6476,24.36516L92.6476,23.41316ZM92.69659999999999,27.430059999999997L95.9015,27.430059999999997L95.9015,28.36566L92.69659999999999,28.36566L92.69659999999999,27.430059999999997ZM92.1397,23.41316L93.1383,23.41316L93.1383,33.6465L92.1397,33.6465L92.1397,23.41316ZM97.1541,25.04044L104.4676,25.04044L104.4676,26.083L97.1541,26.083L97.1541,25.04044ZM101.70230000000001,22.31591L102.7666,22.31591L102.7666,33.5373Q102.7666,34.1094,102.6003,34.382400000000004Q102.43430000000001,34.6554,102.0561,34.790800000000004Q101.6833,34.9179,100.9975,34.9494Q100.3118,34.9809,99.25319999999999,34.9756Q99.21430000000001,34.7551,99.10249999999999,34.441900000000004Q98.9907,34.1286,98.8691,33.9051Q99.42519999999999,33.9191,99.9213,33.9289Q100.4174,33.9385,100.78139999999999,33.9344Q101.1454,33.93,101.29939999999999,33.9215Q101.52029999999999,33.9129,101.6113,33.8333Q101.70230000000001,33.7535,101.70230000000001,33.5349L101.70230000000001,22.31591ZM97.6332,27.66609L98.5018,27.21416Q98.8835,27.73894,99.30109999999999,28.35494Q99.7187,28.97072,100.0928,29.5484Q100.4668,30.1262,100.6996,30.552300000000002L99.7732,31.09Q99.5514,30.6584,99.19239999999999,30.0638Q98.8337,29.4692,98.4242,28.83838Q98.0149,28.20728,97.6332,27.66609Z" fill="#EA580C" fill-opacity="1" style="mix-blend-mode:passthrough"/></g></g><g><rect x="121" y="17" width="174.484375" height="24" rx="0" fill="#000000" fill-opacity="0" style="mix-blend-mode:passthrough"/><g><path d="M122.6655,22.36275L135.4055,22.36275L135.4055,23.604L122.6655,23.604L122.6655,22.36275ZM121.83175,32.850300000000004L136.2093,32.850300000000004L136.2093,34.0505L121.83175,34.0505L121.83175,32.850300000000004ZM128.29475,22.99075L129.6295,22.99075L129.6295,33.3487L128.29475,33.3487L128.29475,22.99075ZM144.3438,23.880499999999998L145.5825,23.880499999999998L145.5825,35.2607L144.3438,35.2607L144.3438,23.880499999999998ZM140.542,27.011200000000002L140.542,28.733L149.5548,28.733L149.5548,27.011200000000002L140.542,27.011200000000002ZM140.542,24.346L140.542,26.04825L149.5548,26.04825L149.5548,24.346L140.542,24.346ZM139.3727,23.323L150.78379999999999,23.323L150.78379999999999,29.752499999999998L139.3727,29.752499999999998L139.3727,23.323ZM137.8603,31.2747L152.1815,31.2747L152.1815,32.394L137.8603,32.394L137.8603,31.2747ZM140.768,21.10425L141.7885,20.628Q142.2755,21.163,142.77179999999998,21.8305Q143.2682,22.498,143.5083,23.00025L142.438,23.54325Q142.2068,23.0535,141.7278,22.35575Q141.2488,21.658,140.768,21.10425ZM148.34550000000002,20.63L149.6455,21.0535Q149.16649999999998,21.82075,148.614,22.612000000000002Q148.0615,23.403,147.5968,23.954L146.5708,23.55875Q146.8722,23.1685,147.2057,22.653Q147.5395,22.1375,147.843,21.603Q148.1465,21.06825,148.34550000000002,20.63ZM157.1598,22.2855L157.1598,24.4595L164.778,24.4595L164.778,22.2855L157.1598,22.2855ZM155.962,21.21625L166.038,21.21625L166.038,25.5225L155.962,25.5225L155.962,21.21625ZM154.0057,26.9675L167.9338,26.9675L167.9338,28.067999999999998L154.0057,28.067999999999998L154.0057,26.9675ZM156.99020000000002,29.8495L165.1458,29.8495L165.1458,30.95L156.99020000000002,30.95L156.99020000000002,29.8495ZM164.7798,29.8495L166.0522,29.8495Q166.0522,29.8495,166.041,29.952199999999998Q166.03,30.055,166.0205,30.1832Q166.0112,30.3112,165.98930000000001,30.403Q165.8025,31.737000000000002,165.5923,32.6245Q165.3823,33.511700000000005,165.1485,34.0238Q164.9147,34.5357,164.617,34.798Q164.334,35.045500000000004,164.01330000000002,35.1308Q163.6927,35.2162,163.22480000000002,35.2385Q162.8167,35.251000000000005,162.0825,35.2442Q161.3483,35.2378,160.5127,35.1863Q160.4905,34.9182,160.38049999999998,34.5998Q160.2705,34.2815,160.0967,34.0322Q160.949,34.115700000000004,161.7262,34.139700000000005Q162.5037,34.1637,162.839,34.1637Q163.13400000000001,34.1637,163.3032,34.139700000000005Q163.4728,34.115700000000004,163.6035,34.0135Q163.8442,33.8305,164.04500000000002,33.3703Q164.246,32.91,164.4228,32.0868Q164.5995,31.2633,164.7735,30.0203L164.7798,29.8495ZM157.50130000000001,27.4357L158.7702,27.6155Q158.60750000000002,28.174,158.4077,28.7817Q158.2083,29.389499999999998,158.0068,29.951Q157.8055,30.5125,157.6333,30.9403L156.253,30.9403Q156.46370000000002,30.468,156.6855,29.867Q156.9072,29.265700000000002,157.118,28.6313Q157.3288,27.9967,157.50130000000001,27.4357ZM173,26.23Q172.5143,26.23,172.153,25.90325Q171.792,25.57625,171.792,25.0345Q171.792,24.4805,172.153,24.1535Q172.5143,23.8265,173,23.8265Q173.4857,23.8265,173.8467,24.1535Q174.208,24.4805,174.208,25.0345Q174.208,25.57625,173.8467,25.90325Q173.4857,26.23,173,26.23ZM173,34.0625Q172.5143,34.0625,172.153,33.7355Q171.792,33.408500000000004,171.792,32.8667Q171.792,32.3127,172.153,31.985799999999998Q172.5143,31.6587,173,31.6587Q173.4857,31.6587,173.8467,31.985799999999998Q174.208,32.3127,174.208,32.8667Q174.208,33.408500000000004,173.8467,33.7355Q173.4857,34.0625,173,34.0625ZM189.3125,30.5625L191.5703,22.625L192.66410000000002,22.625L192.0312,25.71094L189.60160000000002,34L188.5156,34L189.3125,30.5625ZM186.97660000000002,22.625L188.77339999999998,30.4062L189.3125,34L188.2344,34L185.47660000000002,22.625L186.97660000000002,22.625ZM195.58589999999998,30.398400000000002L197.3438,22.625L198.85160000000002,22.625L196.10160000000002,34L195.02339999999998,34L195.58589999999998,30.398400000000002ZM192.8281,22.625L195.02339999999998,30.5625L195.8203,34L194.7344,34L192.3906,25.71094L191.75,22.625L192.8281,22.625ZM209.27339999999998,27.9531L209.27339999999998,28.6719Q209.27339999999998,29.9531,208.9531,30.9688Q208.6328,31.9844,208.0312,32.6953Q207.4297,33.4062,206.5898,33.7812Q205.75,34.1562,204.71089999999998,34.1562Q203.7031,34.1562,202.86329999999998,33.7812Q202.02339999999998,33.4062,201.4102,32.6953Q200.7969,31.9844,200.46089999999998,30.9688Q200.125,29.9531,200.125,28.6719L200.125,27.9531Q200.125,26.67188,200.457,25.660159999999998Q200.78910000000002,24.64844,201.39839999999998,23.93359Q202.0078,23.21875,202.8477,22.84375Q203.6875,22.46875,204.6953,22.46875Q205.7344,22.46875,206.57420000000002,22.84375Q207.41410000000002,23.21875,208.0195,23.93359Q208.625,24.64844,208.94920000000002,25.660159999999998Q209.27339999999998,26.67188,209.27339999999998,27.9531ZM207.7812,28.6719L207.7812,27.9375Q207.7812,26.92188,207.57420000000002,26.14062Q207.3672,25.35938,206.9688,24.82812Q206.5703,24.29688,205.9961,24.02344Q205.4219,23.75,204.6953,23.75Q203.9922,23.75,203.42579999999998,24.02344Q202.8594,24.29688,202.457,24.82812Q202.0547,25.35938,201.83589999999998,26.14062Q201.6172,26.92188,201.6172,27.9375L201.6172,28.6719Q201.6172,29.6953,201.83589999999998,30.4805Q202.0547,31.2656,202.4648,31.800800000000002Q202.875,32.3359,203.4414,32.6094Q204.0078,32.8828,204.71089999999998,32.8828Q205.4453,32.8828,206.0156,32.6094Q206.58589999999998,32.3359,206.9805,31.800800000000002Q207.375,31.2656,207.5781,30.4805Q207.7812,29.6953,207.7812,28.6719ZM214.3125,28.5703L214.3125,29.7578L210.5,29.7578L210.5,28.5703L214.3125,28.5703ZM223.023,32.8125L223.023,34L215.5781,34L215.5781,32.9609L219.3047,28.8125Q219.9922,28.0469,220.3711,27.511699999999998Q220.75,26.97656,220.9023,26.55078Q221.055,26.125,221.055,25.67969Q221.055,25.11719,220.82420000000002,24.66016Q220.5938,24.20312,220.14839999999998,23.92969Q219.7031,23.65625,219.0703,23.65625Q218.3125,23.65625,217.8086,23.94922Q217.3047,24.24219,217.0547,24.76562Q216.8047,25.28906,216.8047,25.96875L215.3594,25.96875Q215.3594,25.00781,215.7812,24.21094Q216.2031,23.41406,217.0312,22.94141Q217.8594,22.46875,219.0703,22.46875Q220.14839999999998,22.46875,220.91410000000002,22.84766Q221.68,23.22656,222.09,23.91016Q222.5,24.59375,222.5,25.50781Q222.5,26.00781,222.332,26.51953Q222.164,27.0312,221.87099999999998,27.539099999999998Q221.578,28.0469,221.191,28.539099999999998Q220.8047,29.0312,220.3672,29.5078L217.3203,32.8125L223.023,32.8125ZM231.703,27.4062L231.703,29.1406Q231.703,30.539099999999998,231.453,31.5Q231.203,32.4609,230.73399999999998,33.0469Q230.26600000000002,33.6328,229.60500000000002,33.8945Q228.945,34.1562,228.11700000000002,34.1562Q227.461,34.1562,226.906,33.9922Q226.352,33.8281,225.91,33.4648Q225.469,33.101600000000005,225.156,32.5156Q224.844,31.9297,224.68,31.0938Q224.51600000000002,30.2578,224.51600000000002,29.1406L224.51600000000002,27.4062Q224.51600000000002,26.00781,224.76999999999998,25.0625Q225.023,24.11719,225.49200000000002,23.54297Q225.961,22.96875,226.62099999999998,22.71875Q227.281,22.46875,228.102,22.46875Q228.76600000000002,22.46875,229.324,22.62891Q229.88299999999998,22.78906,230.32,23.13672Q230.75799999999998,23.48438,231.066,24.05859Q231.375,24.63281,231.539,25.46094Q231.703,26.28906,231.703,27.4062ZM230.25,29.375L230.25,27.164099999999998Q230.25,26.39844,230.16,25.816409999999998Q230.07,25.23438,229.898,24.82031Q229.727,24.40625,229.465,24.14844Q229.203,23.89062,228.863,23.76953Q228.523,23.64844,228.102,23.64844Q227.586,23.64844,227.188,23.83984Q226.789,24.03125,226.51999999999998,24.44531Q226.25,24.85938,226.10899999999998,25.53125Q225.969,26.20312,225.969,27.164099999999998L225.969,29.375Q225.969,30.1406,226.059,30.726599999999998Q226.148,31.3125,226.328,31.738300000000002Q226.50799999999998,32.1641,226.76600000000002,32.4375Q227.023,32.7109,227.363,32.8398Q227.703,32.9688,228.11700000000002,32.9688Q228.648,32.9688,229.047,32.7656Q229.445,32.5625,229.715,32.1289Q229.98399999999998,31.6953,230.11700000000002,31.011699999999998Q230.25,30.3281,230.25,29.375ZM241.00799999999998,32.8125L241.00799999999998,34L233.562,34L233.562,32.9609L237.289,28.8125Q237.977,28.0469,238.35500000000002,27.511699999999998Q238.73399999999998,26.97656,238.887,26.55078Q239.039,26.125,239.039,25.67969Q239.039,25.11719,238.809,24.66016Q238.578,24.20312,238.13299999999998,23.92969Q237.688,23.65625,237.055,23.65625Q236.297,23.65625,235.793,23.94922Q235.289,24.24219,235.039,24.76562Q234.789,25.28906,234.789,25.96875L233.344,25.96875Q233.344,25.00781,233.76600000000002,24.21094Q234.188,23.41406,235.01600000000002,22.94141Q235.844,22.46875,237.055,22.46875Q238.13299999999998,22.46875,238.898,22.84766Q239.664,23.22656,240.074,23.91016Q240.48399999999998,24.59375,240.48399999999998,25.50781Q240.48399999999998,26.00781,240.316,26.51953Q240.148,27.0312,239.85500000000002,27.539099999999998Q239.562,28.0469,239.176,28.539099999999998Q238.789,29.0312,238.352,29.5078L235.305,32.8125L241.00799999999998,32.8125ZM244.656,27.601599999999998L245.688,27.601599999999998Q246.445,27.601599999999998,246.941,27.3477Q247.438,27.0938,247.684,26.652340000000002Q247.93,26.21094,247.93,25.65625Q247.93,25,247.711,24.55469Q247.49200000000002,24.10938,247.055,23.88281Q246.61700000000002,23.65625,245.945,23.65625Q245.336,23.65625,244.87099999999998,23.89453Q244.406,24.13281,244.14499999999998,24.57031Q243.88299999999998,25.00781,243.88299999999998,25.60156L242.438,25.60156Q242.438,24.73438,242.875,24.02344Q243.312,23.3125,244.10500000000002,22.89062Q244.898,22.46875,245.945,22.46875Q246.977,22.46875,247.75,22.83203Q248.523,23.19531,248.953,23.91016Q249.383,24.625,249.383,25.6875Q249.383,26.11719,249.184,26.60547Q248.98399999999998,27.0938,248.566,27.5156Q248.148,27.9375,247.48399999999998,28.207Q246.82,28.476599999999998,245.89100000000002,28.476599999999998L244.656,28.476599999999998L244.656,27.601599999999998ZM244.656,28.789099999999998L244.656,27.9219L245.89100000000002,27.9219Q246.977,27.9219,247.688,28.1797Q248.398,28.4375,248.809,28.8672Q249.219,29.2969,249.387,29.8086Q249.555,30.3203,249.555,30.8281Q249.555,31.625,249.285,32.2422Q249.016,32.8594,248.527,33.289100000000005Q248.039,33.7188,247.38299999999998,33.9375Q246.727,34.1562,245.953,34.1562Q245.211,34.1562,244.559,33.9453Q243.906,33.7344,243.406,33.332Q242.906,32.9297,242.625,32.3398Q242.344,31.75,242.344,30.9922L243.789,30.9922Q243.789,31.585900000000002,244.051,32.0312Q244.312,32.4766,244.801,32.7227Q245.289,32.9688,245.953,32.9688Q246.61700000000002,32.9688,247.098,32.7383Q247.578,32.5078,247.84,32.0391Q248.102,31.5703,248.102,30.8594Q248.102,30.148400000000002,247.805,29.6914Q247.50799999999998,29.2344,246.965,29.011699999999998Q246.422,28.789099999999998,245.688,28.789099999999998L244.656,28.789099999999998ZM258.68,27.4062L258.68,29.1406Q258.68,30.539099999999998,258.43,31.5Q258.18,32.4609,257.711,33.0469Q257.24199999999996,33.6328,256.582,33.8945Q255.922,34.1562,255.094,34.1562Q254.438,34.1562,253.883,33.9922Q253.328,33.8281,252.887,33.4648Q252.445,33.101600000000005,252.133,32.5156Q251.82,31.9297,251.656,31.0938Q251.492,30.2578,251.492,29.1406L251.492,27.4062Q251.492,26.00781,251.746,25.0625Q252,24.11719,252.469,23.54297Q252.938,22.96875,253.598,22.71875Q254.258,22.46875,255.078,22.46875Q255.742,22.46875,256.301,22.62891Q256.85900000000004,22.78906,257.297,23.13672Q257.73400000000004,23.48438,258.043,24.05859Q258.352,24.63281,258.51599999999996,25.46094Q258.68,26.28906,258.68,27.4062ZM257.227,29.375L257.227,27.164099999999998Q257.227,26.39844,257.137,25.816409999999998Q257.047,25.23438,256.875,24.82031Q256.703,24.40625,256.44100000000003,24.14844Q256.18,23.89062,255.84,23.76953Q255.5,23.64844,255.078,23.64844Q254.562,23.64844,254.164,23.83984Q253.766,24.03125,253.496,24.44531Q253.227,24.85938,253.086,25.53125Q252.945,26.20312,252.945,27.164099999999998L252.945,29.375Q252.945,30.1406,253.035,30.726599999999998Q253.125,31.3125,253.305,31.738300000000002Q253.484,32.1641,253.742,32.4375Q254,32.7109,254.34,32.8398Q254.68,32.9688,255.094,32.9688Q255.625,32.9688,256.023,32.7656Q256.422,32.5625,256.69100000000003,32.1289Q256.961,31.6953,257.094,31.011699999999998Q257.227,30.3281,257.227,29.375ZM261.969,32.7891L262.11699999999996,32.7891Q263.36699999999996,32.7891,264.148,32.4375Q264.93,32.0859,265.352,31.4922Q265.773,30.898400000000002,265.93,30.1523Q266.086,29.4062,266.086,28.6172L266.086,26.875Q266.086,26.10156,265.90999999999997,25.5Q265.73400000000004,24.89844,265.426,24.49219Q265.11699999999996,24.08594,264.727,23.875Q264.336,23.66406,263.898,23.66406Q263.398,23.66406,263.004,23.86328Q262.60900000000004,24.0625,262.34000000000003,24.42188Q262.07,24.78125,261.93,25.26562Q261.789,25.75,261.789,26.32031Q261.789,26.82812,261.914,27.3047Q262.039,27.7812,262.297,28.164099999999998Q262.555,28.5469,262.94100000000003,28.7695Q263.328,28.9922,263.852,28.9922Q264.336,28.9922,264.762,28.800800000000002Q265.188,28.6094,265.52,28.2773Q265.852,27.9453,266.051,27.523400000000002Q266.25,27.101599999999998,266.281,26.64062L266.969,26.64062Q266.969,27.289099999999998,266.71500000000003,27.918Q266.461,28.5469,266.00800000000004,29.0625Q265.555,29.5781,264.945,29.886699999999998Q264.336,30.1953,263.61699999999996,30.1953Q262.773,30.1953,262.156,29.8672Q261.539,29.539099999999998,261.145,28.9922Q260.75,28.4453,260.55899999999997,27.7695Q260.36699999999996,27.0938,260.36699999999996,26.39844Q260.36699999999996,25.58594,260.594,24.875Q260.82,24.16406,261.26599999999996,23.62109Q261.711,23.07812,262.371,22.77344Q263.031,22.46875,263.898,22.46875Q264.875,22.46875,265.562,22.85938Q266.25,23.25,266.68399999999997,23.90625Q267.11699999999996,24.5625,267.32,25.38281Q267.523,26.20312,267.523,27.0703L267.523,27.5938Q267.523,28.476599999999998,267.40999999999997,29.386699999999998Q267.297,30.2969,266.98,31.125Q266.664,31.9531,266.062,32.6055Q265.461,33.2578,264.496,33.636700000000005Q263.531,34.0156,262.11699999999996,34.0156L261.969,34.0156L261.969,32.7891ZM276.664,27.4062L276.664,29.1406Q276.664,30.539099999999998,276.414,31.5Q276.164,32.4609,275.695,33.0469Q275.227,33.6328,274.56600000000003,33.8945Q273.906,34.1562,273.078,34.1562Q272.422,34.1562,271.86699999999996,33.9922Q271.312,33.8281,270.871,33.4648Q270.43,33.101600000000005,270.11699999999996,32.5156Q269.805,31.9297,269.64099999999996,31.0938Q269.477,30.2578,269.477,29.1406L269.477,27.4062Q269.477,26.00781,269.73,25.0625Q269.98400000000004,24.11719,270.453,23.54297Q270.922,22.96875,271.582,22.71875Q272.24199999999996,22.46875,273.062,22.46875Q273.727,22.46875,274.28499999999997,22.62891Q274.844,22.78906,275.281,23.13672Q275.719,23.48438,276.027,24.05859Q276.336,24.63281,276.5,25.46094Q276.664,26.28906,276.664,27.4062ZM275.211,29.375L275.211,27.164099999999998Q275.211,26.39844,275.121,25.816409999999998Q275.031,25.23438,274.85900000000004,24.82031Q274.688,24.40625,274.426,24.14844Q274.164,23.89062,273.824,23.76953Q273.48400000000004,23.64844,273.062,23.64844Q272.547,23.64844,272.148,23.83984Q271.75,24.03125,271.48,24.44531Q271.211,24.85938,271.07,25.53125Q270.93,26.20312,270.93,27.164099999999998L270.93,29.375Q270.93,30.1406,271.02,30.726599999999998Q271.10900000000004,31.3125,271.289,31.738300000000002Q271.469,32.1641,271.727,32.4375Q271.98400000000004,32.7109,272.324,32.8398Q272.664,32.9688,273.078,32.9688Q273.60900000000004,32.9688,274.00800000000004,32.7656Q274.406,32.5625,274.676,32.1289Q274.945,31.6953,275.078,31.011699999999998Q275.211,30.3281,275.211,29.375ZM285.656,27.4062L285.656,29.1406Q285.656,30.539099999999998,285.406,31.5Q285.156,32.4609,284.688,33.0469Q284.219,33.6328,283.55899999999997,33.8945Q282.898,34.1562,282.07,34.1562Q281.414,34.1562,280.85900000000004,33.9922Q280.305,33.8281,279.863,33.4648Q279.422,33.101600000000005,279.10900000000004,32.5156Q278.797,31.9297,278.63300000000004,31.0938Q278.469,30.2578,278.469,29.1406L278.469,27.4062Q278.469,26.00781,278.723,25.0625Q278.977,24.11719,279.445,23.54297Q279.914,22.96875,280.574,22.71875Q281.23400000000004,22.46875,282.055,22.46875Q282.719,22.46875,283.277,22.62891Q283.836,22.78906,284.273,23.13672Q284.711,23.48438,285.02,24.05859Q285.328,24.63281,285.49199999999996,25.46094Q285.656,26.28906,285.656,27.4062ZM284.203,29.375L284.203,27.164099999999998Q284.203,26.39844,284.113,25.816409999999998Q284.023,25.23438,283.852,24.82031Q283.68,24.40625,283.418,24.14844Q283.156,23.89062,282.81600000000003,23.76953Q282.477,23.64844,282.055,23.64844Q281.539,23.64844,281.14099999999996,23.83984Q280.74199999999996,24.03125,280.473,24.44531Q280.203,24.85938,280.062,25.53125Q279.922,26.20312,279.922,27.164099999999998L279.922,29.375Q279.922,30.1406,280.012,30.726599999999998Q280.102,31.3125,280.281,31.738300000000002Q280.461,32.1641,280.719,32.4375Q280.977,32.7109,281.31600000000003,32.8398Q281.656,32.9688,282.07,32.9688Q282.602,32.9688,283,32.7656Q283.398,32.5625,283.668,32.1289Q283.938,31.6953,284.07,31.011699999999998Q284.203,30.3281,284.203,29.375ZM294.961,32.8125L294.961,34L287.51599999999996,34L287.51599999999996,32.9609L291.24199999999996,28.8125Q291.93,28.0469,292.30899999999997,27.511699999999998Q292.688,26.97656,292.84000000000003,26.55078Q292.99199999999996,26.125,292.99199999999996,25.67969Q292.99199999999996,25.11719,292.762,24.66016Q292.531,24.20312,292.086,23.92969Q291.64099999999996,23.65625,291.00800000000004,23.65625Q290.25,23.65625,289.746,23.94922Q289.24199999999996,24.24219,288.99199999999996,24.76562Q288.74199999999996,25.28906,288.74199999999996,25.96875L287.297,25.96875Q287.297,25.00781,287.719,24.21094Q288.14099999999996,23.41406,288.969,22.94141Q289.797,22.46875,291.00800000000004,22.46875Q292.086,22.46875,292.852,22.84766Q293.61699999999996,23.22656,294.027,23.91016Q294.438,24.59375,294.438,25.50781Q294.438,26.00781,294.27,26.51953Q294.102,27.0312,293.80899999999997,27.539099999999998Q293.51599999999996,28.0469,293.129,28.539099999999998Q292.74199999999996,29.0312,292.305,29.5078L289.25800000000004,32.8125L294.961,32.8125Z" fill="#4B5563" fill-opacity="1" style="mix-blend-mode:passthrough"/></g></g></g><g><rect x="41" y="45" width="288.65625" height="20" rx="0" fill="#000000" fill-opacity="0" style="mix-blend-mode:passthrough"/><g><path d="M42.70166,49.14038L43.38875,48.49769Q43.76675,48.80569,44.18063,49.182159999999996Q44.5945,49.55841,44.95784,49.926339999999996Q45.32119,50.29428,45.54213,50.58522L44.82222,51.33619Q44.60675,51.03125,44.25434,50.64822Q43.90194,50.26519,43.49353,49.86662Q43.08512,49.46784,42.70166,49.14038ZM43.44803,60.8398L43.248310000000004,59.8902L43.52219,59.4614L46.14762,57.551500000000004Q46.21391,57.7611,46.32963,58.0175Q46.44534,58.2738,46.53328,58.4257Q45.59922,59.1167,45.02456,59.547200000000004Q44.45013,59.9775,44.13731,60.2222Q43.82472,60.467,43.67684,60.6005Q43.52897,60.7341,43.44803,60.8398ZM41.607906,52.633160000000004L44.09313,52.633160000000004L44.09313,53.648160000000004L41.607906,53.648160000000004L41.607906,52.633160000000004ZM48.16428,48.74881L51.8257,48.74881L51.8257,49.72816L48.16428,49.72816L48.16428,48.74881ZM46.37425,54.42581L52.9133,54.42581L52.9133,55.4106L46.37425,55.4106L46.37425,54.42581ZM52.5848,54.42581L52.781,54.42581L52.9632,54.38141L53.611599999999996,54.66884Q53.1776,56.0435,52.440799999999996,57.1048Q51.7043,58.1662,50.73744,58.9472Q49.77078,59.7281,48.63722,60.2658Q47.50388,60.8037,46.28456,61.125699999999995Q46.21828,60.9216,46.06756,60.6484Q45.91684,60.3754,45.77597,60.2072Q46.91259,59.946,47.97703,59.4717Q49.04169,58.9972,49.94928,58.303399999999996Q50.856880000000004,57.6093,51.5368,56.6803Q52.2168,55.7512,52.5848,54.59469L52.5848,54.42581ZM47.78869,55.1678Q48.34322,56.4436,49.30025,57.464Q50.25728,58.4843,51.5687,59.1871Q52.8803,59.89,54.4864,60.224199999999996Q54.3702,60.3318,54.246,60.5001Q54.121700000000004,60.6683,54.0099,60.8378Q53.8982,61.0073,53.8319,61.1592Q51.3618,60.5596,49.608689999999996,59.102000000000004Q47.85584,57.6443,46.90603,55.4771L47.78869,55.1678ZM47.87619,48.74881L48.861,48.74881L48.861,50.32534Q48.861,50.97656,48.66763,51.67175Q48.47447,52.36672,47.94509,53.000659999999996Q47.41594,53.634370000000004,46.39941,54.11672Q46.338589999999996,54.00603,46.21041,53.85728Q46.08222,53.70831,45.94856,53.56087Q45.81512,53.41322,45.71297,53.34147Q46.64069,52.91469,47.10378,52.40784Q47.56687,51.90078,47.72153,51.35609Q47.87619,50.81141,47.87619,50.29822L47.87619,48.74881ZM51.3403,48.74881L52.3361,48.74881L52.3361,51.99878Q52.3361,52.29825,52.3822,52.41266Q52.4286,52.52684,52.5911,52.52684Q52.678200000000004,52.52684,52.8729,52.52684Q53.0676,52.52684,53.2692,52.52684Q53.4709,52.52684,53.558,52.52684Q53.7059,52.52684,53.8995,52.50737Q54.0933,52.48791,54.2162,52.45772Q54.2357,52.65634,54.2622,52.92037Q54.2886,53.18441,54.319,53.36356Q54.1882,53.40491,53.9874,53.42175Q53.7868,53.43838,53.5775,53.43838Q53.474000000000004,53.43838,53.25,53.43838Q53.0262,53.43838,52.8151,53.43838Q52.6042,53.43838,52.5178,53.43838Q52.0303,53.43838,51.7767,53.29444Q51.5234,53.15028,51.4318,52.82719Q51.3403,52.50387,51.3403,51.97931L51.3403,48.74881ZM43.44803,60.8398Q43.40363,60.7074,43.30541,60.5405Q43.20741,60.3738,43.09409,60.2083Q42.98078,60.0429,42.88103,59.9462Q43.01491,59.8543,43.17591,59.6787Q43.33691,59.5028,43.45897,59.248400000000004Q43.58103,58.994,43.58103,58.675L43.58103,52.633160000000004L44.59319,52.633160000000004L44.59319,59.5756Q44.59319,59.5756,44.41797,59.7134Q44.24275,59.8512,44.0205,60.0527Q43.79825,60.254400000000004,43.62303,60.4697Q43.44803,60.6849,43.44803,60.8398ZM59.558800000000005,49.441159999999996L65.5567,49.441159999999996L65.5567,50.37128L59.558800000000005,50.37128L59.558800000000005,49.441159999999996ZM65.2263,49.441159999999996L65.4444,49.441159999999996L65.6297,49.39128L66.3162,49.81959Q65.7196,50.72762,64.8497,51.47706Q63.9799,52.2265,62.928399999999996,52.82981Q61.8768,53.43291,60.701499999999996,53.890969999999996Q59.5262,54.34903,58.306,54.668620000000004Q57.0858,54.98822,55.8969,55.1873Q55.8612,55.0355,55.7781,54.84778Q55.6952,54.65987,55.604,54.48356Q55.513,54.30703,55.4218,54.19394Q56.5638,54.03928,57.7401,53.75556Q58.9163,53.47184,60.037800000000004,53.067589999999996Q61.1593,52.66312,62.1516,52.13987Q63.1438,51.61641,63.9351,50.97875Q64.7263,50.34109,65.2263,49.59603L65.2263,49.441159999999996ZM59.495999999999995,50.39031Q60.3578,51.38081,61.764399999999995,52.12084Q63.1712,52.86087,64.9378,53.33775Q66.7047,53.81462,68.6172,54.02287Q68.5096,54.13597,68.3825,54.3125Q68.2556,54.48881,68.148,54.66381Q68.0406,54.83881,67.9688,54.990629999999996Q66.0624,54.737970000000004,64.287,54.20181Q62.5119,53.66566,61.0469,52.83484Q59.581900000000005,52.00403,58.585300000000004,50.87025L59.495999999999995,50.39031ZM57.3822,54.99828L66.5732,54.99828L66.5732,61.090900000000005L65.4433,61.090900000000005L65.4433,55.926L58.4683,55.926L58.4683,61.125L57.3822,61.125L57.3822,54.99828ZM57.8203,57.3343L65.93469999999999,57.3343L65.93469999999999,58.1881L57.8203,58.1881L57.8203,57.3343ZM57.8203,59.7478L65.93469999999999,59.7478L65.93469999999999,60.6672L57.8203,60.6672L57.8203,59.7478ZM61.438199999999995,55.434200000000004L62.5189,55.434200000000004L62.5189,60.2642L61.438199999999995,60.2642L61.438199999999995,55.434200000000004ZM60.166399999999996,48.20216L61.2945,48.42812Q60.592600000000004,49.55928,59.4914,50.62656Q58.3902,51.69362,56.7909,52.53887Q56.7106,52.412,56.5864,52.26325Q56.4621,52.11428,56.3269,51.978Q56.1917,51.84172,56.0703,51.7645Q57.086200000000005,51.28478,57.879400000000004,50.69Q58.672799999999995,50.095,59.2448,49.44837Q59.817099999999996,48.80175,60.166399999999996,48.20216ZM69.96430000000001,57.4502Q69.9478,57.345,69.8925,57.1764Q69.8374,57.0077,69.7737,56.8283Q69.7103,56.6488,69.6412,56.527100000000004Q69.8752,56.4827,70.1272,56.234700000000004Q70.3792,55.986599999999996,70.6982,55.5946Q70.8716,55.3986,71.2107,54.95344Q71.5497,54.50806,71.9658,53.89906Q72.3819,53.29006,72.8135,52.58044Q73.2453,51.87059,73.6069,51.15112L74.4521,51.65294Q73.6215,53.09866,72.6345,54.48662Q71.64750000000001,55.8744,70.65350000000001,56.910399999999996L70.65350000000001,56.9353Q70.65350000000001,56.9353,70.5512,56.9837Q70.4488,57.032,70.309,57.1123Q70.1692,57.1923,70.0666,57.2796Q69.96430000000001,57.3669,69.96430000000001,57.4502ZM69.96430000000001,57.4502L69.9153,56.6166L70.4252,56.2646L74.13409999999999,55.6005Q74.1122,55.796099999999996,74.1109,56.0498Q74.1098,56.3033,74.1238,56.4661Q72.8507,56.7266,72.0715,56.8905Q71.2925,57.0541,70.8762,57.1534Q70.4602,57.2525,70.2635,57.3223Q70.0671,57.3918,69.96430000000001,57.4502ZM69.8608,54.08303Q69.84440000000001,53.97781,69.7836,53.80106Q69.723,53.62431,69.6593,53.43662Q69.5959,53.24872,69.5353,53.11637Q69.7219,53.07197,69.9008,52.83922Q70.0798,52.60625,70.30369999999999,52.253190000000004Q70.4243,52.07337,70.64699999999999,51.66978Q70.8699,51.26619,71.1389,50.71406Q71.4082,50.16194,71.6718,49.52581Q71.9354,48.88969,72.129,48.26187L73.0865,48.68887Q72.7474,49.54987,72.3206,50.42444Q71.89410000000001,51.29878,71.4242,52.09066Q70.9543,52.882310000000004,70.4761,53.51844L70.4761,53.54884Q70.4761,53.54884,70.3818,53.60419Q70.2876,53.65931,70.1683,53.73959Q70.0493,53.81987,69.9551,53.90978Q69.8608,53.99969,69.8608,54.08303ZM69.8608,54.08303L69.8391,53.33687L70.3272,53.02384L72.8723,52.76112Q72.8364,52.94881,72.8161,53.19316Q72.7957,53.43728,72.8043,53.58625Q71.9312,53.69344,71.3883,53.77087Q70.8456,53.84809,70.5431,53.90147Q70.2405,53.95462,70.0938,53.99509Q69.9472,54.035560000000004,69.8608,54.08303ZM69.6287,59.2552Q70.2239,59.1292,70.9922,58.9601Q71.7604,58.7907,72.6293,58.5882Q73.4984,58.385400000000004,74.3788,58.1785L74.4779,59.0727Q73.2448,59.3825,72.0207,59.6909Q70.7968,59.9993,69.8304,60.2562L69.6287,59.2552ZM76.0162,53.50269L81.8363,53.50269L81.8363,54.45469L76.0162,54.45469L76.0162,53.50269ZM76.04419999999999,56.2598L81.8643,56.2598L81.8643,57.2118L76.04419999999999,57.2118L76.04419999999999,56.2598ZM75.95009999999999,59.1379L82.3914,59.1379L82.3914,60.1173L75.95009999999999,60.1173L75.95009999999999,59.1379ZM78.7538,51.10934L79.7332,51.10934L79.7332,59.6708L78.7538,59.6708L78.7538,51.10934ZM76.5031,50.76962L82.1893,50.76962L82.1893,51.72709L76.5031,51.72709L76.5031,61.1274L75.5128,61.1274L75.5128,51.42544L76.13210000000001,50.76962L76.5031,50.76962ZM76.6468,48.31416L77.66210000000001,48.60094Q77.3267,49.54703,76.8571,50.55809Q76.38759999999999,51.56916,75.81190000000001,52.50081Q75.2363,53.432249999999996,74.5797,54.17841Q74.5298,54.04912,74.4383,53.884190000000004Q74.3469,53.71925,74.2456,53.54753Q74.1443,53.37559,74.0558,53.26578Q74.6164,52.61019,75.11670000000001,51.76516Q75.6172,50.91991,76.0127,50.01888Q76.4082,49.11762,76.6468,48.31416ZM78.2356,48.67728L79.1207,48.31656Q79.43719999999999,48.77003,79.7144,49.3145Q79.9918,49.85897,80.1318,50.25644L79.1797,50.6865Q79.0732,50.27503,78.7987,49.71Q78.52420000000001,49.14475,78.2356,48.67728ZM83.5368,55.6803Q84.1351,55.5287,84.8939,55.3185Q85.6528,55.1081,86.5015,54.8515Q87.3503,54.59491,88.2089,54.34531L88.36699999999999,55.3168Q87.1807,55.6838,85.98400000000001,56.0509Q84.7872,56.418,83.8203,56.715L83.5368,55.6803ZM83.7492,51.06166L88.2843,51.06166L88.2843,52.07141L83.7492,52.07141L83.7492,51.06166ZM85.6372,48.24897L86.6603,48.24897L86.6603,59.8088Q86.6603,60.2384,86.5514,60.4874Q86.4425,60.7363,86.1668,60.8632Q85.9,60.9927,85.4546,61.0268Q85.00919999999999,61.0612,84.3092,61.0612Q84.2757,60.8601,84.1942,60.5668Q84.1128,60.2734,83.9938,60.0529Q84.4693,60.066900000000004,84.8611,60.066900000000004Q85.2531,60.066900000000004,85.3791,60.0584Q85.5222,60.0584,85.5797,60.005Q85.6372,59.9519,85.6372,59.8033L85.6372,48.24897ZM89.96979999999999,54.28187L95.4572,54.28187L95.4572,55.2776L89.96979999999999,55.2776L89.96979999999999,54.28187ZM89.92609999999999,50.65762L95.94579999999999,50.65762L95.94579999999999,56.1631L94.9033,56.1631L94.9033,51.61816L89.92609999999999,51.61816L89.92609999999999,50.65762ZM89.2582,50.65762L90.303,50.65762L90.303,54.422309999999996Q90.303,55.1995,90.2345,56.0868Q90.166,56.974000000000004,89.96459999999999,57.876599999999996Q89.76310000000001,58.7789,89.3768,59.6202Q88.9907,60.461600000000004,88.3552,61.1469Q88.2782,61.0393,88.1238,60.8947Q87.9696,60.750299999999996,87.8055,60.6138Q87.6417,60.4775,87.52000000000001,60.4113Q88.10560000000001,59.7642,88.45320000000001,59.0167Q88.80080000000001,58.2692,88.9719,57.4702Q89.14320000000001,56.6708,89.2007,55.8912Q89.2582,55.1114,89.2582,54.40284L89.2582,50.65762ZM91.2731,48.65016L92.2072,48.2855Q92.6147,48.74203,92.9925,49.292410000000004Q93.3703,49.84256,93.5532,50.24856L92.5721,50.67688Q92.4003,50.24834,92.0307,49.68309Q91.661,49.11762,91.2731,48.65016ZM98.4573,49.81741L109.6048,49.81741L109.6048,50.9035L98.4573,50.9035L98.4573,49.81741ZM97.7278,58.994L110.3081,58.994L110.3081,60.044200000000004L97.7278,60.044200000000004L97.7278,58.994ZM103.3829,50.36691L104.55080000000001,50.36691L104.55080000000001,59.4302L103.3829,59.4302L103.3829,50.36691ZM117.4258,51.14544L118.5097,51.14544L118.5097,61.1032L117.4258,61.1032L117.4258,51.14544ZM114.0993,53.88484L114.0993,55.391400000000004L121.9854,55.391400000000004L121.9854,53.88484L114.0993,53.88484ZM114.0993,51.55275L114.0993,53.04222L121.9854,53.04222L121.9854,51.55275L114.0993,51.55275ZM113.0762,50.65762L123.0608,50.65762L123.0608,56.2834L113.0762,56.2834L113.0762,50.65762ZM111.7527,57.6154L124.2838,57.6154L124.2838,58.5947L111.7527,58.5947L111.7527,57.6154ZM114.297,48.71622L115.1899,48.2995Q115.6161,48.76762,116.0503,49.35169Q116.4847,49.93575,116.6947,50.37522L115.7582,50.85034Q115.5559,50.42181,115.1368,49.81128Q114.7177,49.20075,114.297,48.71622ZM120.9273,48.30125L122.0648,48.67181Q121.6457,49.34316,121.1622,50.0355Q120.6788,50.72762,120.2722,51.20975L119.3744,50.86391Q119.6382,50.52244,119.93,50.07137Q120.2221,49.62031,120.4876,49.15263Q120.7532,48.68472,120.9273,48.30125ZM129.89929999999998,55.0908L138.30200000000002,55.0908L138.30200000000002,56.0647L129.89929999999998,56.0647L129.89929999999998,55.0908ZM135.5667,53.353719999999996L136.60930000000002,53.353719999999996L136.60930000000002,59.8674Q136.60930000000002,60.322900000000004,136.4866,60.5666Q136.3641,60.8103,136.0193,60.9319Q135.6969,61.0533,135.1325,61.0767Q134.56810000000002,61.1001,133.7305,61.1001Q133.70010000000002,60.899100000000004,133.6019,60.6092Q133.5039,60.3194,133.39319999999998,60.106700000000004Q134.0315,60.1208,134.56529999999998,60.1278Q135.0993,60.1348,135.2812,60.1262Q135.44920000000002,60.1177,135.5079,60.0602Q135.5667,60.0026,135.5667,59.8596L135.5667,53.353719999999996ZM130.8964,56.9377L131.7543,56.4764Q132.1221,56.8351,132.48829999999998,57.2722Q132.85469999999998,57.709199999999996,133.1618,58.1437Q133.46890000000002,58.5779,133.64,58.931L132.7245,59.4614Q132.5729,59.1084,132.2765,58.661699999999996Q131.9803,58.2148,131.6196,57.7611Q131.25889999999998,57.3072,130.8964,56.9377ZM128.2182,48.2435L129.2357,48.2435L129.2357,61.108000000000004L128.2182,61.108000000000004L128.2182,48.2435ZM125.541,57.213300000000004Q126.0931,56.771699999999996,126.8723,56.0927Q127.6517,55.4137,128.4503,54.67978L128.8537,55.532Q128.1719,56.1953,127.4594,56.8697Q126.7472,57.5441,126.1226,58.1002L125.541,57.213300000000004ZM125.6107,50.70925L126.3477,50.13284Q126.71,50.47497,127.0843,50.88447Q127.4587,51.29375,127.7768,51.69625Q128.0949,52.09875,128.2716,52.42687L127.4933,53.07809Q127.3223,52.74144,127.0164,52.32669Q126.7108,51.91172,126.3418,51.48712Q125.973,51.06231,125.6107,50.70925ZM133.3075,49.36416L137.3417,49.36416L137.1251,50.228880000000004L132.763,50.228880000000004L133.3075,49.36416ZM133.7723,48.23803L134.8361,48.548Q134.3529,49.19681,133.6815,49.81478Q133.0102,50.43275,132.2218,50.95316Q131.4337,51.47356,130.607,51.86862Q130.5352,51.76669,130.4097,51.6385Q130.2843,51.51031,130.1535,51.38497Q130.0227,51.25941,129.92059999999998,51.18219Q130.72230000000002,50.84247,131.461,50.365809999999996Q132.1999,49.889160000000004,132.79559999999998,49.344030000000004Q133.3913,48.79869,133.7723,48.23803ZM132.0663,51.45912L132.8415,50.998Q133.2661,51.33225,133.696,51.76931Q134.1258,52.20616,134.3452,52.56534L133.5201,53.065619999999996Q133.3204,52.71716,132.9056,52.26237Q132.4909,51.80759,132.0663,51.45912ZM136.9715,49.36416L137.1787,49.36416L137.3664,49.31975L138.0528,49.68441Q137.5521,50.74687,136.7541,51.57922Q135.9561,52.41156,134.95659999999998,53.02734Q133.9572,53.64291,132.8295,54.073840000000004Q131.7021,54.50478,130.5453,54.76466Q130.4681,54.57128,130.322,54.32278Q130.17579999999998,54.07428,130.02949999999998,53.92553Q131.1038,53.721000000000004,132.1649,53.338409999999996Q133.22629999999998,52.95581,134.1621,52.40631Q135.09820000000002,51.85681,135.8272,51.14062Q136.5563,50.42444,136.9715,49.53872L136.9715,49.36416ZM139.87630000000001,50.40519L152.14,50.40519L152.14,51.42019L139.87630000000001,51.42019L139.87630000000001,50.40519ZM144.216,54.84341L151.598,54.84341L151.598,55.8228L144.216,55.8228L144.216,54.84341ZM143.667,59.7987L152.138,59.7987L152.138,60.7866L143.667,60.7866L143.667,59.7987ZM147.374,52.14009L148.424,52.14009L148.424,60.3316L147.374,60.3316L147.374,52.14009ZM144.47899999999998,48.23803L145.565,48.50294Q145.076,50.10222,144.326,51.67131Q143.576,53.24019,142.529,54.60125Q141.482,55.9621,140.0822,56.9637Q140.02679999999998,56.823499999999996,139.92860000000002,56.6474Q139.8304,56.4713,139.7252,56.2937Q139.6202,56.115899999999996,139.5344,56.0006Q140.4864,55.3358,141.265,54.44769Q142.04399999999998,53.55934,142.65800000000002,52.53166Q143.273,51.50375,143.73000000000002,50.41306Q144.187,49.32216,144.47899999999998,48.23803ZM141.707,54.00625L142.75799999999998,54.00625L142.75799999999998,61.0684L141.707,61.0684L141.707,54.00625ZM159.14600000000002,54.40137L160.048,54.40137Q160.711,54.40137,161.14499999999998,54.1792Q161.579,53.95703,161.79399999999998,53.5708Q162.01,53.18457,162.01,52.69922Q162.01,52.125,161.81799999999998,51.73535Q161.627,51.3457,161.244,51.14746Q160.861,50.94922,160.273,50.94922Q159.74,50.94922,159.333,51.15771Q158.92700000000002,51.36621,158.69799999999998,51.74902Q158.469,52.13184,158.469,52.65137L157.204,52.65137Q157.204,51.89258,157.587,51.27051Q157.97,50.64844,158.664,50.2793Q159.357,49.91016,160.273,49.91016Q161.176,49.91016,161.853,50.228030000000004Q162.529,50.5459,162.905,51.17139Q163.281,51.79688,163.281,52.72656Q163.281,53.10254,163.107,53.52979Q162.933,53.95703,162.567,54.32617Q162.201,54.69531,161.62,54.93115Q161.039,55.167,160.226,55.167L159.14600000000002,55.167L159.14600000000002,54.40137ZM159.14600000000002,55.4404L159.14600000000002,54.68164L160.226,54.68164Q161.176,54.68164,161.798,54.90723Q162.42000000000002,55.1328,162.779,55.5088Q163.138,55.8848,163.285,56.332499999999996Q163.43200000000002,56.7803,163.43200000000002,57.2246Q163.43200000000002,57.9219,163.196,58.4619Q162.95999999999998,59.002,162.53300000000002,59.3779Q162.10500000000002,59.7539,161.531,59.9453Q160.957,60.1367,160.28,60.1367Q159.631,60.1367,159.06,59.9521Q158.489,59.7676,158.05200000000002,59.4155Q157.614,59.0635,157.368,58.547399999999996Q157.122,58.0312,157.122,57.3682L158.387,57.3682Q158.387,57.8877,158.61599999999999,58.2773Q158.845,58.667,159.272,58.8823Q159.699,59.0977,160.28,59.0977Q160.861,59.0977,161.28199999999998,58.896Q161.702,58.6943,161.93099999999998,58.2842Q162.16,57.874,162.16,57.252Q162.16,56.6299,161.9,56.230000000000004Q161.64100000000002,55.8301,161.166,55.6353Q160.69,55.4404,160.048,55.4404L159.14600000000002,55.4404ZM171.416,54.23047L171.416,55.748Q171.416,56.9717,171.197,57.8125Q170.979,58.6533,170.568,59.166Q170.158,59.6787,169.581,59.9077Q169.003,60.1367,168.27800000000002,60.1367Q167.704,60.1367,167.219,59.9932Q166.733,59.8496,166.34699999999998,59.5317Q165.961,59.2139,165.688,58.7012Q165.414,58.1885,165.27100000000002,57.457Q165.127,56.7256,165.127,55.748L165.127,54.23047Q165.127,53.00684,165.349,52.17969Q165.571,51.35254,165.981,50.8501Q166.392,50.34766,166.969,50.12891Q167.547,49.91016,168.265,49.91016Q168.846,49.91016,169.334,50.050290000000004Q169.823,50.19043,170.206,50.49463Q170.589,50.79883,170.859,51.30127Q171.129,51.80371,171.272,52.52832Q171.416,53.25293,171.416,54.23047ZM170.145,55.9531L170.145,54.01855Q170.145,53.34863,170.066,52.83936Q169.987,52.33008,169.837,51.96777Q169.687,51.60547,169.458,51.37988Q169.229,51.1543,168.93099999999998,51.048339999999996Q168.63400000000001,50.94238,168.265,50.94238Q167.813,50.94238,167.465,51.10986Q167.11599999999999,51.27734,166.88,51.63965Q166.64499999999998,52.00195,166.52100000000002,52.58984Q166.398,53.17773,166.398,54.01855L166.398,55.9531Q166.398,56.623,166.477,57.1357Q166.55599999999998,57.6484,166.713,58.021Q166.87,58.3936,167.096,58.6328Q167.321,58.8721,167.619,58.984899999999996Q167.916,59.0977,168.27800000000002,59.0977Q168.743,59.0977,169.092,58.9199Q169.44,58.7422,169.676,58.3628Q169.912,57.9834,170.028,57.3853Q170.145,56.7871,170.145,55.9531ZM178.305,53.536590000000004L186.319,53.536590000000004L186.319,54.57063L178.305,54.57063L178.305,53.536590000000004ZM185.96,53.536590000000004L187.052,53.536590000000004Q187.052,53.536590000000004,187.049,53.6335Q187.046,53.73041,187.046,53.84809Q187.046,53.96578,187.032,54.040369999999996Q186.956,55.6488,186.876,56.7833Q186.796,57.917500000000004,186.699,58.6623Q186.602,59.407,186.47,59.8364Q186.338,60.2658,186.148,60.4727Q185.931,60.7365,185.676,60.835Q185.421,60.9336,185.061,60.9607Q184.709,60.9912,184.107,60.9837Q183.505,60.9765,182.844,60.9369Q182.824,60.7024,182.736,60.4047Q182.648,60.1072,182.496,59.8834Q183.182,59.9427,183.769,59.9582Q184.357,59.9738,184.606,59.9738Q185.024,59.9738,185.203,59.8033Q185.391,59.609700000000004,185.527,58.9666Q185.664,58.3233,185.77,57.0561Q185.875,55.7888,185.96,53.73281L185.96,53.536590000000004ZM180.221,48.52328L181.334,48.83172Q180.861,50.004,180.21,51.07631Q179.558,52.14862,178.792,53.050309999999996Q178.027,53.95178,177.195,54.62313Q177.107,54.51025,176.939,54.36019Q176.771,54.21012,176.6,54.05875Q176.429,53.90716,176.296,53.819Q177.134,53.21394,177.875,52.38378Q178.616,51.55341,179.216,50.56925Q179.817,49.58488,180.221,48.52328ZM185.106,48.49528Q185.437,49.199,185.898,49.93466Q186.359,50.67031,186.899,51.35675Q187.44,52.04319,188.015,52.62112Q188.591,53.198840000000004,189.137,53.61512Q189.004,53.71728,188.843,53.868880000000004Q188.682,54.020250000000004,188.536,54.18716Q188.39,54.35384,188.288,54.49712Q187.736,54.020250000000004,187.159,53.37997Q186.583,52.73969,186.034,51.99156Q185.485,51.24322,184.997,50.44981Q184.508,49.65641,184.137,48.87853L185.106,48.49528ZM181.085,53.82578L182.19,53.82578Q182.067,54.97313,181.818,56.059Q181.57,57.1447,181.05,58.1115Q180.531,59.0784,179.616,59.8558Q178.701,60.6333,177.242,61.158500000000004Q177.181,61.0238,177.071,60.8584Q176.961,60.6932,176.832,60.5351Q176.704,60.3769,176.586,60.2693Q177.957,59.815799999999996,178.802,59.1276Q179.646,58.4394,180.107,57.5841Q180.567,56.7286,180.774,55.7722Q180.981,54.815619999999996,181.085,53.82578ZM195.948,51.19006L202.796,51.19006L202.796,57.341300000000004L201.795,57.341300000000004L201.795,52.21075L196.911,52.21075L196.911,57.4247L195.948,57.4247L195.948,51.19006ZM198.828,48.26297L199.856,48.26297L199.856,61.1274L198.828,61.1274L198.828,48.26297ZM196.488,55.553L202.332,55.553L202.332,56.565200000000004L196.488,56.565200000000004L196.488,55.553ZM192.204,48.28003L193.154,48.55281Q192.889,49.31581,192.507,50.06897Q192.126,50.82212,191.675,51.48297Q191.224,52.14381,190.725,52.65569Q190.68,52.54259,190.583,52.35403Q190.486,52.16547,190.381,51.96991Q190.276,51.77434,190.182,51.66431Q190.815,51.04459,191.351,50.14881Q191.888,49.25281,192.204,48.28003ZM191.917,49.85372L195.493,49.85372L195.493,50.82212L191.724,50.82212L191.917,49.85372ZM192.364,61.0227L192.238,60.0862L192.616,59.6745L195.468,58.269Q195.496,58.4786,195.547,58.7389Q195.598,58.9992,195.654,59.1674Q194.66,59.6885,194.047,60.0175Q193.433,60.3465,193.098,60.5324Q192.762,60.7184,192.606,60.8273Q192.45,60.9362,192.364,61.0227ZM191.249,52.33741L195.201,52.33741L195.201,53.289410000000004L191.249,53.289410000000004L191.249,52.33741ZM190.518,55.1873L195.534,55.1873L195.534,56.147800000000004L190.518,56.147800000000004L190.518,55.1873ZM192.364,61.0227Q192.314,60.9065,192.216,60.7599Q192.118,60.6136,192.009,60.4699Q191.9,60.3262,191.809,60.2373Q192.012,60.1043,192.284,59.79Q192.557,59.4754,192.557,58.9843L192.557,52.62681L193.558,52.62681L193.558,59.7594Q193.558,59.7594,193.436,59.851Q193.314,59.9425,193.137,60.0864Q192.961,60.2306,192.785,60.4023Q192.608,60.574,192.486,60.7359Q192.364,60.897999999999996,192.364,61.0227ZM206.321,52.12216L217.041,52.12216L217.041,53.12884L206.321,53.12884L206.321,52.12216ZM208.559,59.4242L215.358,59.4242L215.358,60.4121L208.559,60.4121L208.559,59.4242ZM215.18,48.35441L216.067,49.20928Q215.081,49.44334,213.876,49.63628Q212.671,49.82922,211.348,49.97906Q210.026,50.12869,208.682,50.23959Q207.339,50.35028,206.068,50.41809Q206.043,50.21378,205.959,49.946690000000004Q205.875,49.67937,205.789,49.50569Q207.04,49.43241,208.352,49.31734Q209.664,49.20228,210.922,49.055279999999996Q212.18,48.90828,213.276,48.73066Q214.372,48.55281,215.18,48.35441ZM208.045,55.134100000000004L216.014,55.134100000000004L216.014,61.1062L214.912,61.1062L214.912,56.1135L209.095,56.1135L209.095,61.1281L208.045,61.1281L208.045,55.134100000000004ZM205.789,49.50569L206.866,49.50569L206.866,53.13387Q206.866,54.00428,206.802,55.0422Q206.738,56.0802,206.547,57.160399999999996Q206.355,58.2404,205.984,59.2678Q205.612,60.2953,205.005,61.1445Q204.922,61.0283,204.758,60.8877Q204.594,60.7472,204.428,60.6191Q204.261,60.490899999999996,204.134,60.4246Q204.699,59.625299999999996,205.032,58.6987Q205.366,57.772,205.527,56.792699999999996Q205.688,55.8131,205.738,54.87709Q205.789,53.94106,205.789,53.12841L205.789,49.50569ZM224.548,48.83041L230.226,48.83041L230.226,49.73341L224.548,49.73341L224.548,48.83041ZM226.566,49.15788L227.568,49.21869Q227.42,51.01178,226.755,52.16087Q226.09,53.30975,224.866,54.02134Q224.789,53.93034,224.64,53.80456Q224.491,53.67878,224.339,53.56Q224.188,53.44122,224.072,53.37187Q225.282,52.78781,225.871,51.76166Q226.459,50.73528,226.566,49.15788ZM229.7,48.83041L230.701,48.83041Q230.701,48.83041,230.701,48.98856Q230.701,49.14672,230.687,49.24931Q230.628,50.50603,230.557,51.29353Q230.485,52.08081,230.38,52.50475Q230.275,52.92869,230.116,53.11309Q229.96,53.28525,229.768,53.36312Q229.576,53.440780000000004,229.299,53.46266Q229.067,53.48759,228.649,53.48453Q228.232,53.48147,227.765,53.45894Q227.751,53.25484,227.679,52.99825Q227.607,52.74144,227.497,52.55069Q227.938,52.59575,228.311,52.60275Q228.684,52.60975,228.829,52.60975Q229.147,52.62681,229.261,52.48681Q229.371,52.35775,229.445,51.99419Q229.52,51.63062,229.583,50.90219Q229.646,50.17353,229.7,48.98856L229.7,48.83041ZM218.697,49.924369999999996L224.116,49.924369999999996L224.116,50.8545L218.697,50.8545L218.697,49.924369999999996ZM218.412,52.59072L224.4,52.59072L224.4,53.54031L218.412,53.54031L218.412,52.59072ZM221.582,55.5349L224.264,55.5349L224.264,56.465L221.582,56.465L221.582,55.5349ZM220.934,48.24044L221.907,48.24044L221.907,53.08772L220.934,53.08772L220.934,48.24044ZM221.122,53.19119L222.068,53.19119L222.068,59.5653L221.122,59.5653L221.122,53.19119ZM219.799,56.2222Q220.088,57.3197,220.537,58.0162Q220.987,58.7124,221.658,59.088499999999996Q222.329,59.4645,223.252,59.608000000000004Q224.175,59.7513,225.404,59.7513Q225.581,59.7513,226.013,59.7541Q226.444,59.7568,227.031,59.7541Q227.618,59.7513,228.265,59.7513Q228.913,59.7513,229.516,59.7487Q230.12,59.7458,230.584,59.737700000000004Q231.048,59.7294,231.264,59.7239Q231.178,59.837,231.092,60.0232Q231.007,60.2093,230.939,60.4064Q230.871,60.6038,230.835,60.757999999999996L229.787,60.757999999999996L225.424,60.757999999999996Q223.987,60.757999999999996,222.936,60.583Q221.884,60.408,221.139,59.946600000000004Q220.393,59.4853,219.88,58.6459Q219.367,57.8064,219.023,56.4832L219.799,56.2222ZM219.039,54.54766L219.991,54.60825Q219.96,55.946799999999996,219.87,57.146Q219.781,58.3449,219.555,59.3534Q219.329,60.3618,218.911,61.139700000000005Q218.828,61.0649,218.672,60.9695Q218.516,60.8741,218.351,60.7798Q218.185,60.6858,218.064,60.6359Q218.468,59.9274,218.672,58.9839Q218.876,58.0404,218.949,56.9119Q219.022,55.7834,219.039,54.54766ZM225.998,55.124700000000004L225.998,57.7084L229.343,57.7084L229.343,55.124700000000004L225.998,55.124700000000004ZM225.004,54.24928L230.391,54.24928L230.391,58.5871L225.004,58.5871L225.004,54.24928ZM233.329,49.41316L237.203,49.41316L237.203,58.518L233.329,58.518L233.329,57.566L236.218,57.566L236.218,50.36516L233.329,50.36516L233.329,49.41316ZM233.378,53.43006L236.583,53.43006L236.583,54.36566L233.378,54.36566L233.378,53.43006ZM232.821,49.41316L233.82,49.41316L233.82,59.6465L232.821,59.6465L232.821,49.41316ZM237.836,51.040440000000004L245.149,51.040440000000004L245.149,52.083L237.836,52.083L237.836,51.040440000000004ZM242.384,48.31591L243.448,48.31591L243.448,59.5373Q243.448,60.1094,243.282,60.382400000000004Q243.116,60.6554,242.738,60.790800000000004Q242.365,60.9179,241.679,60.9494Q240.993,60.9809,239.935,60.9756Q239.896,60.7551,239.784,60.441900000000004Q239.672,60.1286,239.551,59.9051Q240.107,59.9191,240.603,59.9289Q241.099,59.9385,241.463,59.9344Q241.827,59.93,241.981,59.9215Q242.202,59.9129,242.293,59.8333Q242.384,59.7535,242.384,59.5349L242.384,48.31591ZM238.315,53.66609L239.183,53.21416Q239.565,53.73894,239.983,54.35494Q240.4,54.97072,240.774,55.5484Q241.148,56.1262,241.381,56.5523L240.455,57.09Q240.233,56.6584,239.874,56.0638Q239.515,55.4692,239.106,54.83838Q238.697,54.20728,238.315,53.66609ZM247.883,61.495400000000004L247.57,60.7577Q248.432,60.4001,248.887,59.8554Q249.342,59.3107,249.342,58.516400000000004L249.08,57.3398L249.838,58.399Q249.682,58.5816,249.488,58.6486Q249.294,58.7155,249.093,58.7155Q248.664,58.7155,248.356,58.4642Q248.047,58.2126,248.047,57.7169Q248.047,57.218199999999996,248.366,56.964Q248.684,56.7098,249.106,56.7098Q249.693,56.7098,249.999,57.1488Q250.305,57.5876,250.305,58.3228Q250.305,59.4555,249.647,60.283699999999996Q248.99,61.1119,247.883,61.495400000000004ZM261.178,49.19703L261.856,48.554339999999996Q262.226,48.86234,262.63300000000004,49.23466Q263.039,49.60675,263.403,49.97031Q263.76599999999996,50.33387,263.98400000000004,50.61628L263.273,51.36725Q263.057,51.07084,262.702,50.69066Q262.347,50.310249999999996,261.947,49.91584Q261.547,49.52144,261.178,49.19703ZM262.251,60.8671L262.05600000000004,59.8762L262.341,59.4304L264.832,57.5684Q264.887,57.7779,264.993,58.0398Q265.1,58.3016,265.185,58.455799999999996Q264.302,59.146,263.753,59.568799999999996Q263.20500000000004,59.9917,262.90700000000004,60.2371Q262.61,60.4828,262.471,60.6219Q262.332,60.7612,262.251,60.8671ZM260.264,52.633160000000004L262.973,52.633160000000004L262.973,53.648160000000004L260.264,53.648160000000004L260.264,52.633160000000004ZM262.251,60.8671Q262.206,60.7402,262.108,60.5692Q262.01,60.3981,261.902,60.2325Q261.794,60.0672,261.695,59.9705Q261.887,59.8482,262.129,59.5398Q262.371,59.2313,262.371,58.769999999999996L262.371,52.633160000000004L263.378,52.633160000000004L263.378,59.6566Q263.378,59.6566,263.209,59.7874Q263.039,59.9182,262.81399999999996,60.1111Q262.589,60.3043,262.41999999999996,60.5082Q262.251,60.712199999999996,262.251,60.8671ZM266.36400000000003,56.2858L271.27099999999996,56.2858L271.27099999999996,57.033500000000004L266.36400000000003,57.033500000000004L266.36400000000003,56.2858ZM265.03200000000004,49.339L272.693,49.339L272.693,50.13809L265.03200000000004,50.13809L265.03200000000004,49.339ZM265.378,51.03716L272.265,51.03716L272.265,51.80344L265.378,51.80344L265.378,51.03716ZM264.615,52.77928L273.116,52.77928L273.116,53.58384L264.615,53.58384L264.615,52.77928ZM266.347,58.1767L271.297,58.1767L271.297,58.9461L266.347,58.9461L266.347,58.1767ZM265.616,54.40284L271.30899999999997,54.40284L271.30899999999997,55.2183L266.60400000000004,55.2183L266.60400000000004,61.1018L265.616,61.1018L265.616,54.40284ZM270.99,54.40284L271.995,54.40284L271.995,59.9431Q271.995,60.334,271.89,60.5583Q271.786,60.7827,271.48900000000003,60.9017Q271.197,61.0178,270.70799999999997,61.0428Q270.219,61.0677,269.474,61.059200000000004Q269.443,60.8689,269.353,60.6068Q269.264,60.3448,269.164,60.1483Q269.699,60.1678,270.148,60.1719Q270.598,60.1763,270.738,60.1678Q270.99,60.1593,270.99,59.9267L270.99,54.40284ZM268.276,48.23497L269.318,48.23497L269.318,53.03325L268.276,53.03325L268.276,48.23497ZM278.408,50.37806Q278.997,52.86328,280.08000000000004,54.82175Q281.163,56.7802,282.902,58.1102Q284.642,59.440200000000004,287.176,60.0407Q287.063,60.1481,286.925,60.322900000000004Q286.78700000000003,60.4979,286.668,60.6783Q286.55,60.8588,286.46500000000003,61.0161Q284.514,60.4981,283.048,59.5664Q281.582,58.6348,280.52099999999996,57.3135Q279.459,55.9921,278.724,54.30419Q277.988,52.61609,277.501,50.59069L278.408,50.37806ZM274.94100000000003,48.99228L282.775,48.99228L282.775,50.04819L274.94100000000003,50.04819L274.94100000000003,48.99228ZM285.308,52.39341L285.506,52.39341L285.70500000000004,52.34353L286.40999999999997,52.63031Q285.976,54.45884,285.183,55.8571Q284.39,57.2551,283.303,58.2749Q282.217,59.2945,280.91499999999996,59.9834Q279.61400000000003,60.672200000000004,278.161,61.0933Q278.10400000000004,60.949799999999996,278.002,60.7803Q277.9,60.611000000000004,277.784,60.4425Q277.668,60.2743,277.56100000000004,60.1669Q278.911,59.823,280.148,59.2005Q281.384,58.5777,282.408,57.6449Q283.43100000000004,56.712,284.18,55.4517Q284.928,54.19153,285.308,52.58656L285.308,52.39341ZM282.284,52.39341L285.557,52.39341L285.557,53.389160000000004L282.06,53.389160000000004L282.284,52.39341ZM277.408,49.31384L278.499,49.31384L278.499,51.20231Q278.499,52.04012,278.442,52.99169Q278.385,53.94325,278.192,54.95059Q277.999,55.9579,277.613,56.9823Q277.227,58.0068,276.58000000000004,59.0038Q275.933,60.0009,274.95,60.9207Q274.873,60.7774,274.735,60.6094Q274.597,60.4417,274.449,60.2817Q274.3,60.1221,274.178,60.0284Q275.30899999999997,58.9773,275.959,57.828900000000004Q276.61,56.6803,276.919,55.513Q277.22900000000004,54.34575,277.318,53.24566Q277.408,52.14556,277.408,51.20559L277.408,49.31384ZM282.536,48.99228L283.603,48.99228Q283.454,49.71219,283.27099999999996,50.51894Q283.087,51.32569,282.903,52.07687Q282.72,52.82806,282.56,53.389160000000004L281.428,53.389160000000004Q281.621,52.80859,281.821,52.04778Q282.02099999999996,51.28675,282.209,50.48984Q282.39599999999996,49.69272,282.536,48.99228ZM289.329,49.41316L293.203,49.41316L293.203,58.518L289.329,58.518L289.329,57.566L292.21799999999996,57.566L292.21799999999996,50.36516L289.329,50.36516L289.329,49.41316ZM289.378,53.43006L292.58299999999997,53.43006L292.58299999999997,54.36566L289.378,54.36566L289.378,53.43006ZM288.821,49.41316L289.82,49.41316L289.82,59.6465L288.821,59.6465L288.821,49.41316ZM293.836,51.040440000000004L301.149,51.040440000000004L301.149,52.083L293.836,52.083L293.836,51.040440000000004ZM298.384,48.31591L299.448,48.31591L299.448,59.5373Q299.448,60.1094,299.282,60.382400000000004Q299.116,60.6554,298.738,60.790800000000004Q298.365,60.9179,297.679,60.9494Q296.993,60.9809,295.935,60.9756Q295.89599999999996,60.7551,295.784,60.441900000000004Q295.672,60.1286,295.551,59.9051Q296.10699999999997,59.9191,296.603,59.9289Q297.099,59.9385,297.463,59.9344Q297.827,59.93,297.981,59.9215Q298.202,59.9129,298.293,59.8333Q298.384,59.7535,298.384,59.5349L298.384,48.31591ZM294.315,53.66609L295.183,53.21416Q295.565,53.73894,295.983,54.35494Q296.4,54.97072,296.774,55.5484Q297.148,56.1262,297.381,56.5523L296.45500000000004,57.09Q296.233,56.6584,295.874,56.0638Q295.515,55.4692,295.106,54.83838Q294.697,54.20728,294.315,53.66609ZM304.985,50.46403L308.049,50.46403L308.049,51.43791L304.985,51.43791L304.985,50.46403ZM307.729,50.46403L307.933,50.46403L308.134,50.42509L308.829,50.61584Q308.5,53.48388,307.712,55.546Q306.924,57.608000000000004,305.737,58.9793Q304.551,60.3507,303.024,61.137699999999995Q302.933,61.0192,302.782,60.8579Q302.63,60.6967,302.461,60.5462Q302.291,60.3959,302.159,60.3187Q303.675,59.587,304.82,58.3452Q305.964,57.1031,306.708,55.2214Q307.452,53.33972,307.729,50.71253L307.729,50.46403ZM304.748,52.22387Q305.142,54.13991,305.755,55.4581Q306.367,56.7761,307.151,57.592Q307.935,58.4077,308.844,58.849199999999996Q309.752,59.2904,310.744,59.4472Q311.735,59.6038,312.757,59.6038Q312.919,59.6038,313.236,59.6038Q313.554,59.6038,313.931,59.6038Q314.307,59.6038,314.646,59.6012Q314.985,59.5984,315.188,59.5929Q315.103,59.725300000000004,315.014,59.925200000000004Q314.926,60.1251,314.862,60.3288Q314.799,60.5327,314.763,60.6899L314.358,60.6899L312.705,60.6899Q311.542,60.6899,310.439,60.5055Q309.336,60.3211,308.344,59.827600000000004Q307.353,59.3341,306.507,58.4233Q305.662,57.5124,305.004,56.0649Q304.346,54.61744,303.918,52.51131L304.748,52.22387ZM304.768,48.29469L305.873,48.55784Q305.624,49.976,305.242,51.3235Q304.861,52.67078,304.364,53.80303Q303.867,54.93528,303.267,55.7333Q303.123,55.6038,302.873,55.4275Q302.622,55.2509,302.412,55.1488Q302.971,54.411590000000004,303.429,53.33272Q303.887,52.25384,304.232,50.95994Q304.577,49.66603,304.768,48.29469ZM310.931,52.17225L311.774,51.68991Q312.309,52.26937,312.888,52.94531Q313.467,53.62125,313.976,54.27203Q314.485,54.92259,314.799,55.4345L313.878,56.0078Q313.589,55.4962,313.099,54.83028Q312.608,54.164410000000004,312.037,53.46638Q311.466,52.768119999999996,310.931,52.17225ZM310.295,48.26669L311.412,48.26669L311.412,58.5689L310.295,58.5689L310.295,48.26669ZM322.343,52.446780000000004L322.343,54.24862L327.542,54.24862L327.542,52.446780000000004L322.343,52.446780000000004ZM322.343,49.80275L322.343,51.58206L327.542,51.58206L327.542,49.80275L322.343,49.80275ZM321.38,48.88881L328.552,48.88881L328.552,55.1623L321.38,55.1623L321.38,48.88881ZM321.21,56.806200000000004L328.746,56.806200000000004L328.746,57.7637L321.21,57.7637L321.21,56.806200000000004ZM320.133,59.694L329.217,59.694L329.217,60.6569L320.133,60.6569L320.133,59.694ZM316.324,49.185L320.69,49.185L320.69,50.17287L316.324,50.17287L316.324,49.185ZM316.467,53.23713L320.489,53.23713L320.489,54.21953L316.467,54.21953L316.467,53.23713ZM316.173,58.5974Q316.743,58.434799999999996,317.466,58.215199999999996Q318.188,57.995400000000004,318.995,57.7267Q319.802,57.4579,320.613,57.191900000000004L320.792,58.2017Q319.653,58.5821,318.508,58.971000000000004Q317.363,59.359899999999996,316.433,59.6703L316.173,58.5974ZM318.064,49.57678L319.074,49.57678L319.074,58.2504L318.064,58.4504L318.064,49.57678ZM324.486,49.32412L325.403,49.32412L325.403,54.7115L325.48,54.7115L325.48,60.126400000000004L324.41,60.126400000000004L324.41,54.7115L324.486,54.7115L324.486,49.32412Z" fill="#6B7280" fill-opacity="1" style="mix-blend-mode:passthrough"/></g></g></g></g><g><rect x="951" y="17" width="228.9375" height="40" rx="0" fill="#000000" fill-opacity="0" style="mix-blend-mode:passthrough"/><g><rect x="951" y="27" width="108.921875" height="20" rx="0" fill="#000000" fill-opacity="0" style="mix-blend-mode:passthrough"/><g><path d="M958.34863,40.9609L958.34863,42L951.833984,42L951.833984,41.0908L955.09473,37.4609Q955.69629,36.79102,956.02783,36.32275Q956.35938,35.85449,956.49268,35.48193Q956.62598,35.10938,956.62598,34.71973Q956.62598,34.22754,956.42432,33.82764Q956.22266,33.42773,955.83301,33.18848Q955.44336,32.94922,954.88965,32.94922Q954.22656,32.94922,953.78564,33.20557Q953.34473,33.46191,953.12598,33.91992Q952.90723,34.37793,952.90723,34.97266L951.642578,34.97266Q951.642578,34.13184,952.01172,33.43457Q952.38086,32.7373,953.10547,32.32373Q953.83008,31.91016,954.88965,31.91016Q955.83301,31.91016,956.50293,32.2417Q957.17285,32.57324,957.53174,33.17139Q957.89062,33.76953,957.89062,34.56934Q957.89062,35.00684,957.74365,35.454589999999996Q957.59668,35.90234,957.34033,36.34668Q957.08398,36.79102,956.74561,37.2217Q956.40723,37.6523,956.02441,38.0693L953.3584,40.9609L958.34863,40.9609ZM965.9434,36.23047L965.9434,37.748Q965.9434,38.9717,965.7246,39.8125Q965.5059,40.6533,965.0957,41.166Q964.6855,41.6787,964.1079,41.9077Q963.5303,42.1367,962.8057,42.1367Q962.2314,42.1367,961.7461,41.9932Q961.2607,41.8496,960.87451,41.5317Q960.48828,41.2139,960.21484,40.7012Q959.94141,40.1885,959.79785,39.457Q959.6543,38.7256,959.6543,37.748L959.6543,36.23047Q959.6543,35.00684,959.87646,34.17969Q960.09863,33.35254,960.50879,32.8501Q960.91895,32.34766,961.4966,32.12891Q962.0742,31.91016,962.792,31.91016Q963.373,31.91016,963.8618,32.050290000000004Q964.3506,32.19043,964.7334,32.49463Q965.1162,32.79883,965.3862,33.30127Q965.6562,33.80371,965.7998,34.52832Q965.9434,35.25293,965.9434,36.23047ZM964.6719,37.9531L964.6719,36.01855Q964.6719,35.34863,964.5933,34.83936Q964.5146,34.33008,964.3643,33.96777Q964.2139,33.60547,963.9849,33.37988Q963.7559,33.1543,963.4585,33.048339999999996Q963.1611,32.94238,962.792,32.94238Q962.3408,32.94238,961.9922,33.10986Q961.6436,33.27734,961.4077,33.63965Q961.1719,34.00195,961.0488,34.58984Q960.92578,35.17773,960.92578,36.01855L960.92578,37.9531Q960.92578,38.623,961.0044,39.1357Q961.083,39.6484,961.2402,40.021Q961.3975,40.3936,961.623,40.6328Q961.8486,40.8721,962.146,40.984899999999996Q962.4434,41.0977,962.8057,41.0977Q963.2705,41.0977,963.6191,40.9199Q963.9678,40.7422,964.2036,40.3628Q964.4395,39.9834,964.5557,39.3853Q964.6719,38.7871,964.6719,37.9531ZM974.085,40.9609L974.085,42L967.5703,42L967.5703,41.0908L970.8311,37.4609Q971.4326,36.79102,971.7642,36.32275Q972.0957,35.85449,972.229,35.48193Q972.3623,35.10938,972.3623,34.71973Q972.3623,34.22754,972.1606,33.82764Q971.959,33.42773,971.5693,33.18848Q971.1797,32.94922,970.626,32.94922Q969.9629,32.94922,969.522,33.20557Q969.0811,33.46191,968.8623,33.91992Q968.6436,34.37793,968.6436,34.97266L967.3789,34.97266Q967.3789,34.13184,967.748,33.43457Q968.1172,32.7373,968.8418,32.32373Q969.5664,31.91016,970.626,31.91016Q971.5693,31.91016,972.2393,32.2417Q972.9092,32.57324,973.2681,33.17139Q973.627,33.76953,973.627,34.56934Q973.627,35.00684,973.48,35.454589999999996Q973.333,35.90234,973.0767,36.34668Q972.8203,36.79102,972.4819,37.2217Q972.1436,37.6523,971.7607,38.0693L969.0947,40.9609L974.085,40.9609ZM977.2773,36.40137L978.1797,36.40137Q978.8428,36.40137,979.2769,36.1792Q979.7109,35.95703,979.9263,35.5708Q980.1416,35.18457,980.1416,34.69922Q980.1416,34.125,979.9502,33.73535Q979.7588,33.3457,979.376,33.14746Q978.9932,32.94922,978.4053,32.94922Q977.8721,32.94922,977.4653,33.15771Q977.0586,33.36621,976.8296,33.74902Q976.6006,34.13184,976.6006,34.65137L975.3359,34.65137Q975.3359,33.89258,975.7188,33.27051Q976.1016,32.64844,976.7954,32.2793Q977.4893,31.91016,978.4053,31.91016Q979.3076,31.91016,979.9844,32.228030000000004Q980.6611,32.5459,981.0371,33.17139Q981.4131,33.79688,981.4131,34.72656Q981.4131,35.10254,981.2388,35.52979Q981.0645,35.95703,980.6987,36.32617Q980.333,36.69531,979.752,36.93115Q979.1709,37.167,978.3574,37.167L977.2773,37.167L977.2773,36.40137ZM977.2773,37.4404L977.2773,36.68164L978.3574,36.68164Q979.3076,36.68164,979.9297,36.90723Q980.5518,37.1328,980.9106,37.5088Q981.2695,37.8848,981.4165,38.332499999999996Q981.5635,38.7803,981.5635,39.2246Q981.5635,39.9219,981.3276,40.4619Q981.0918,41.002,980.6646,41.3779Q980.2373,41.7539,979.6631,41.9453Q979.0889,42.1367,978.4121,42.1367Q977.7627,42.1367,977.1919,41.9521Q976.6211,41.7676,976.1836,41.4155Q975.7461,41.0635,975.5,40.547399999999996Q975.2539,40.0312,975.2539,39.3682L976.5186,39.3682Q976.5186,39.8877,976.7476,40.2773Q976.9766,40.667,977.4038,40.8823Q977.8311,41.0977,978.4121,41.0977Q978.9932,41.0977,979.4136,40.896Q979.834,40.6943,980.063,40.2842Q980.292,39.874,980.292,39.252Q980.292,38.6299,980.0322,38.230000000000004Q979.7725,37.8301,979.2974,37.6353Q978.8223,37.4404,978.1797,37.4404L977.2773,37.4404ZM986.0684,37.249L986.0684,38.2881L982.7324,38.2881L982.7324,37.249L986.0684,37.249ZM993.417,36.23047L993.417,37.748Q993.417,38.9717,993.1982,39.8125Q992.9795,40.6533,992.5693,41.166Q992.1592,41.6787,991.5815,41.9077Q991.0039,42.1367,990.2793,42.1367Q989.7051,42.1367,989.2197,41.9932Q988.7344,41.8496,988.3481,41.5317Q987.9619,41.2139,987.6885,40.7012Q987.415,40.1885,987.2715000000001,39.457Q987.1279,38.7256,987.1279,37.748L987.1279,36.23047Q987.1279,35.00684,987.3501,34.17969Q987.5723,33.35254,987.9824,32.8501Q988.3926,32.34766,988.9702,32.12891Q989.5479,31.91016,990.2656,31.91016Q990.8467,31.91016,991.3354,32.050290000000004Q991.8242,32.19043,992.207,32.49463Q992.5898,32.79883,992.8599,33.30127Q993.1299,33.80371,993.2734,34.52832Q993.417,35.25293,993.417,36.23047ZM992.1455,37.9531L992.1455,36.01855Q992.1455,35.34863,992.0669,34.83936Q991.9883,34.33008,991.8379,33.96777Q991.6875,33.60547,991.4585,33.37988Q991.2295,33.1543,990.9321,33.048339999999996Q990.6348,32.94238,990.2656,32.94238Q989.8145,32.94238,989.4658,33.10986Q989.1172,33.27734,988.8813,33.63965Q988.6455,34.00195,988.5225,34.58984Q988.3994,35.17773,988.3994,36.01855L988.3994,37.9531Q988.3994,38.623,988.478,39.1357Q988.5566,39.6484,988.7139,40.021Q988.8711,40.3936,989.0967,40.6328Q989.3223,40.8721,989.6196,40.984899999999996Q989.917,41.0977,990.2793,41.0977Q990.7441,41.0977,991.0928,40.9199Q991.4414,40.7422,991.6772,40.3628Q991.9131,39.9834,992.0293,39.3853Q992.1455,38.7871,992.1455,37.9531ZM996.2949,40.9404L996.4248,40.9404Q997.5186,40.9404,998.2021,40.6328Q998.8857,40.3252,999.2549,39.8057Q999.624,39.2861,999.7607,38.6333Q999.8975,37.9805,999.8975,37.29L999.8975,35.76562Q999.8975,35.08887,999.7437,34.5625Q999.5898,34.03613,999.3198,33.68066Q999.0498,33.3252,998.708,33.14062Q998.3662,32.95605,997.9834,32.95605Q997.5459,32.95605,997.2007,33.13037Q996.8555,33.30469,996.6196,33.61914Q996.3838,33.93359,996.2607,34.35742Q996.1377,34.78125,996.1377,35.28027Q996.1377,35.72461,996.2471,36.1416Q996.3564,36.55859,996.582,36.89355Q996.8076,37.2285,997.146,37.4233Q997.4844,37.6182,997.9424,37.6182Q998.3662,37.6182,998.7388,37.4507Q999.1113,37.2832,999.4019,36.99268Q999.6924,36.70215,999.8667,36.33301Q1000.0409999999999,35.96387,1000.0684,35.56055L1000.6699,35.56055Q1000.6699,36.12793,1000.4478,36.678219999999996Q1000.2256,37.2285,999.8291,37.6797Q999.4326,38.1309,998.8994,38.4009Q998.3662,38.6709,997.7373,38.6709Q996.999,38.6709,996.4590000000001,38.3838Q995.9189,38.0967,995.5737,37.6182Q995.2284999999999,37.1396,995.061,36.548339999999996Q994.8936,35.95703,994.8936,35.34863Q994.8936,34.6377,995.0918,34.01562Q995.29,33.39355,995.6797,32.918459999999996Q996.0693,32.44336,996.647,32.17676Q997.2246,31.91016,997.9834,31.91016Q998.8379,31.91016,999.4395,32.25195Q1000.0409999999999,32.59375,1000.4204,33.16797Q1000.7998,33.74219,1000.9775,34.45996Q1001.1553,35.17773,1001.1553,35.93652L1001.1553,36.39453Q1001.1553,37.167,1001.0562,37.9634Q1000.957,38.7598,1000.6802,39.4844Q1000.4033,40.209,999.877,40.7798Q999.3506,41.3506,998.5063,41.6821Q997.6621,42.0137,996.4248,42.0137L996.2949,42.0137L996.2949,40.9404ZM1005.6738,37.249L1005.6738,38.2881L1002.3379,38.2881L1002.3379,37.249L1005.6738,37.249ZM1013.0225,36.23047L1013.0225,37.748Q1013.0225,38.9717,1012.8037,39.8125Q1012.585,40.6533,1012.1748,41.166Q1011.7646,41.6787,1011.187,41.9077Q1010.6094,42.1367,1009.8848,42.1367Q1009.3105,42.1367,1008.8252,41.9932Q1008.3398,41.8496,1007.9536,41.5317Q1007.5674,41.2139,1007.2939,40.7012Q1007.0205,40.1885,1006.877,39.457Q1006.7334,38.7256,1006.7334,37.748L1006.7334,36.23047Q1006.7334,35.00684,1006.9556,34.17969Q1007.1777,33.35254,1007.5879,32.8501Q1007.998,32.34766,1008.5757,32.12891Q1009.1533,31.91016,1009.8711,31.91016Q1010.4521,31.91016,1010.9409,32.050290000000004Q1011.4297,32.19043,1011.8125,32.49463Q1012.1953,32.79883,1012.4653,33.30127Q1012.7354,33.80371,1012.8789,34.52832Q1013.0225,35.25293,1013.0225,36.23047ZM1011.751,37.9531L1011.751,36.01855Q1011.751,35.34863,1011.6724,34.83936Q1011.5938,34.33008,1011.4434,33.96777Q1011.293,33.60547,1011.064,33.37988Q1010.835,33.1543,1010.5376,33.048339999999996Q1010.2402,32.94238,1009.8711,32.94238Q1009.4199,32.94238,1009.0713,33.10986Q1008.7227,33.27734,1008.4868,33.63965Q1008.251,34.00195,1008.1279,34.58984Q1008.0049,35.17773,1008.0049,36.01855L1008.0049,37.9531Q1008.0049,38.623,1008.0835,39.1357Q1008.1621,39.6484,1008.3193,40.021Q1008.4766,40.3936,1008.7021,40.6328Q1008.9277,40.8721,1009.2251,40.984899999999996Q1009.5225,41.0977,1009.8848,41.0977Q1010.3496,41.0977,1010.6982,40.9199Q1011.0469,40.7422,1011.2827,40.3628Q1011.5186,39.9834,1011.6348,39.3853Q1011.751,38.7871,1011.751,37.9531ZM1021.1641,40.9609L1021.1641,42L1014.6494,42L1014.6494,41.0908L1017.9102,37.4609Q1018.5117,36.79102,1018.8433,36.32275Q1019.1748,35.85449,1019.3081,35.48193Q1019.4414,35.10938,1019.4414,34.71973Q1019.4414,34.22754,1019.2397,33.82764Q1019.0381,33.42773,1018.6484,33.18848Q1018.2588,32.94922,1017.7051,32.94922Q1017.042,32.94922,1016.6011,33.20557Q1016.1602,33.46191,1015.9414,33.91992Q1015.7227,34.37793,1015.7227,34.97266L1014.458,34.97266Q1014.458,34.13184,1014.8271,33.43457Q1015.1963,32.7373,1015.9209,32.32373Q1016.6455,31.91016,1017.7051,31.91016Q1018.6484,31.91016,1019.3184,32.2417Q1019.9883,32.57324,1020.3472,33.17139Q1020.7061,33.76953,1020.7061,34.56934Q1020.7061,35.00684,1020.5591,35.454589999999996Q1020.4121,35.90234,1020.1558,36.34668Q1019.8994,36.79102,1019.561,37.2217Q1019.2227,37.6523,1018.8398,38.0693L1016.1738,40.9609L1021.1641,40.9609ZM1030.1396,31.99219L1030.1396,42L1028.875,42L1028.875,33.57129L1026.3252,34.50098L1026.3252,33.35938L1029.9414,31.99219L1030.1396,31.99219ZM1040.0996,36.23047L1040.0996,37.748Q1040.0996,38.9717,1039.8809,39.8125Q1039.6621,40.6533,1039.252,41.166Q1038.8418,41.6787,1038.2642,41.9077Q1037.6865,42.1367,1036.9619,42.1367Q1036.3877,42.1367,1035.9023,41.9932Q1035.417,41.8496,1035.0308,41.5317Q1034.6444999999999,41.2139,1034.3711,40.7012Q1034.0977,40.1885,1033.9541,39.457Q1033.8105,38.7256,1033.8105,37.748L1033.8105,36.23047Q1033.8105,35.00684,1034.0327,34.17969Q1034.2549,33.35254,1034.665,32.8501Q1035.0752,32.34766,1035.6528,32.12891Q1036.2305000000001,31.91016,1036.9482,31.91016Q1037.5293,31.91016,1038.0181,32.050290000000004Q1038.5068,32.19043,1038.8896,32.49463Q1039.2725,32.79883,1039.5425,33.30127Q1039.8125,33.80371,1039.9561,34.52832Q1040.0996,35.25293,1040.0996,36.23047ZM1038.8281,37.9531L1038.8281,36.01855Q1038.8281,35.34863,1038.7495,34.83936Q1038.6709,34.33008,1038.5205,33.96777Q1038.3701,33.60547,1038.1411,33.37988Q1037.9121,33.1543,1037.6147,33.048339999999996Q1037.3174,32.94238,1036.9482,32.94238Q1036.4971,32.94238,1036.1484,33.10986Q1035.7998,33.27734,1035.564,33.63965Q1035.3281,34.00195,1035.2051,34.58984Q1035.0819999999999,35.17773,1035.0819999999999,36.01855L1035.0819999999999,37.9531Q1035.0819999999999,38.623,1035.1606,39.1357Q1035.2393,39.6484,1035.3965,40.021Q1035.5537,40.3936,1035.7793,40.6328Q1036.0049,40.8721,1036.3022,40.984899999999996Q1036.5996,41.0977,1036.9619,41.0977Q1037.4268,41.0977,1037.7754,40.9199Q1038.124,40.7422,1038.3599,40.3628Q1038.5957,39.9834,1038.7119,39.3853Q1038.8281,38.7871,1038.8281,37.9531ZM1041.8018,41.3301Q1041.8018,41.0088,1042.0034,40.7866Q1042.2051,40.5645,1042.5879,40.5645Q1042.9707,40.5645,1043.1724,40.7866Q1043.374,41.0088,1043.374,41.3301Q1043.374,41.6445,1043.1724,41.8633Q1042.9707,42.082,1042.5879,42.082Q1042.2051,42.082,1042.0034,41.8633Q1041.8018,41.6445,1041.8018,41.3301ZM1041.8086,35.29395Q1041.8086,34.97266,1042.0103,34.75049Q1042.2119,34.52832,1042.5947,34.52832Q1042.9775,34.52832,1043.1792,34.75049Q1043.3809,34.97266,1043.3809,35.29395Q1043.3809,35.6084,1043.1792,35.82715Q1042.9775,36.0459,1042.5947,36.0459Q1042.2119,36.0459,1042.0103,35.82715Q1041.8086,35.6084,1041.8086,35.29395ZM1049.2666,31.99219L1049.2666,42L1048.002,42L1048.002,33.57129L1045.4521,34.50098L1045.4521,33.35938L1049.0684,31.99219L1049.2666,31.99219ZM1054.578,37.2627L1053.566,37.0029L1054.065,32.04688L1059.172,32.04688L1059.172,33.21582L1055.139,33.21582L1054.838,35.92285Q1055.111,35.76562,1055.532,35.62891Q1055.952,35.49219,1056.499,35.49219Q1057.189,35.49219,1057.736,35.728030000000004Q1058.283,35.96387,1058.669,36.40137Q1059.056,36.83887,1059.261,37.4541Q1059.466,38.0693,1059.466,38.8281Q1059.466,39.5459,1059.271,40.1475Q1059.076,40.749,1058.687,41.196799999999996Q1058.297,41.6445,1057.706,41.8906Q1057.114,42.1367,1056.314,42.1367Q1055.713,42.1367,1055.176,41.9692Q1054.64,41.8018,1054.219,41.4565Q1053.799,41.1113,1053.536,40.5952Q1053.272,40.0791,1053.204,39.3818L1054.407,39.3818Q1054.489,39.9424,1054.735,40.3252Q1054.981,40.708,1055.381,40.9028Q1055.781,41.0977,1056.314,41.0977Q1056.766,41.0977,1057.114,40.9404Q1057.463,40.7832,1057.702,40.4893Q1057.941,40.1953,1058.068,39.7783Q1058.194,39.3613,1058.194,38.8418Q1058.194,38.3701,1058.064,37.9668Q1057.935,37.5635,1057.6779999999999,37.2627Q1057.422,36.96191,1057.0529999999999,36.79443Q1056.684,36.62695,1056.205,36.62695Q1055.569,36.62695,1055.245,36.79785Q1054.92,36.96875,1054.578,37.2627Z" fill="#9CA3AF" fill-opacity="1" style="mix-blend-mode:passthrough"/></g></g></g></g></svg>