<svg xmlns="http://www.w3.org/2000/svg" xmlns:xlink="http://www.w3.org/1999/xlink" fill="none" version="1.1" width="96.015625" height="40" viewBox="0 0 96.015625 40"><g><rect x="0" y="0" width="96.015625" height="40" rx="4" fill="#E6002D" fill-opacity="1" style="mix-blend-mode:passthrough"/><g><path d="M20.7353125,21.016199999999998L20.7353125,22.3545L27.2106125,22.3545L27.2106125,21.016199999999998L20.7353125,21.016199999999998ZM20.7353125,18.8655L20.7353125,20.178L27.2106125,20.178L27.2106125,18.8655L20.7353125,18.8655ZM19.5440625,18.002200000000002L28.451812500000003,18.002200000000002L28.451812500000003,23.2177L19.5440625,23.2177L19.5440625,18.002200000000002ZM16.9248125,13.092500000000001L31.116612500000002,13.092500000000001L31.116612500000002,14.155750000000001L16.9248125,14.155750000000001L16.9248125,13.092500000000001ZM23.3675625,11.05425L24.5590625,11.05425L24.5590625,17.502000000000002L23.3675625,17.502000000000002L23.3675625,11.05425ZM22.6720625,13.404250000000001L23.6773125,13.8085Q23.1423125,14.57575,22.421062499999998,15.305250000000001Q21.6998125,16.0345,20.861562499999998,16.6665Q20.0235625,17.2985,19.1383125,17.810499999999998Q18.2530625,18.322499999999998,17.3675625,18.671Q17.2858125,18.5195,17.1438125,18.3462Q17.0018125,18.173000000000002,16.8583125,18.0012Q16.7150625,17.8295,16.5823125,17.712699999999998Q17.4365625,17.4115,18.3143125,16.958Q19.1920625,16.50425,20.0095625,15.932Q20.8270625,15.3595,21.5103125,14.718250000000001Q22.1938125,14.077,22.6720625,13.404250000000001ZM25.218062500000002,13.4175Q25.702312499999998,14.0745,26.3998125,14.698Q27.0976125,15.32125,27.927612500000002,15.86475Q28.7578125,16.408250000000002,29.6546125,16.846Q30.5513125,17.2835,31.4376125,17.558999999999997Q31.3048125,17.6695,31.1503125,17.8445Q30.996112500000002,18.019199999999998,30.862112500000002,18.203699999999998Q30.7281125,18.387999999999998,30.636312500000003,18.549Q29.7411125,18.2167,28.8398125,17.7207Q27.938612499999998,17.22475,27.0941125,16.6025Q26.2498125,15.98025,25.5205625,15.2735Q24.791562499999998,14.566749999999999,24.2440625,13.809249999999999L25.218062500000002,13.4175ZM17.1840625,24.1868L30.8901125,24.1868L30.8901125,25.2625L17.1840625,25.2625L17.1840625,24.1868ZM36.1640125,18.1785L45.489112500000005,18.1785L45.489112500000005,25.8143L44.2951125,25.8143L44.2951125,19.1355L37.3143125,19.1355L37.3143125,25.8143L36.1640125,25.8143L36.1640125,18.1785ZM32.9471125,16.061999999999998L47.0686125,16.061999999999998L47.0686125,17.05975L32.9471125,17.05975L32.9471125,16.061999999999998ZM34.1133125,13.9145L46.1423125,13.9145L46.1423125,14.87125L34.1133125,14.87125L34.1133125,13.9145ZM36.936012500000004,20.2277L44.793612499999995,20.2277L44.793612499999995,21.069499999999998L36.936012500000004,21.069499999999998L36.936012500000004,20.2277ZM36.936012500000004,22.2008L44.793612499999995,22.2008L44.793612499999995,23.033L36.936012500000004,23.033L36.936012500000004,22.2008ZM36.8298125,24.2157L44.7998125,24.2157L44.7998125,25.1728L36.8298125,25.1728L36.8298125,24.2157ZM45.2208125,11.18725L45.9863125,12.0545Q44.865812500000004,12.27575,43.441312499999995,12.433250000000001Q42.0168125,12.590499999999999,40.4328125,12.691749999999999Q38.8488125,12.793,37.2373125,12.846250000000001Q35.625812499999995,12.8995,34.137812499999995,12.902999999999999Q34.121812500000004,12.701,34.0491125,12.43125Q33.9766125,12.1615,33.8910125,11.97175Q35.3533125,11.95225,36.941312499999995,11.904Q38.5293125,11.8555,40.0661125,11.75925Q41.6028125,11.662749999999999,42.932612500000005,11.5215Q44.2623125,11.38025,45.2208125,11.18725ZM38.6608125,12.282250000000001L39.905812499999996,12.5475Q39.3716125,14.47575,38.5106125,16.287Q37.649812499999996,18.0982,36.370112500000005,19.6187Q35.0906125,21.139200000000002,33.3000125,22.2113Q33.218312499999996,22.076,33.084312499999996,21.8997Q32.950312499999995,21.7232,32.8100125,21.5565Q32.6698125,21.389499999999998,32.5433125,21.2727Q34.2490125,20.2952,35.4548125,18.8673Q36.6606125,17.43925,37.4455125,15.743Q38.2308125,14.0465,38.6608125,12.282250000000001ZM49.7258125,12.20525L50.4951125,11.433250000000001Q50.9333125,11.779,51.4155125,12.2Q51.8981125,12.620750000000001,52.3243125,13.032Q52.7508125,13.443,53.0058125,13.775500000000001L52.1990125,14.665Q51.9368125,14.32275,51.5198125,13.89425Q51.1030125,13.46575,50.6318125,13.0195Q50.1605125,12.57325,49.7258125,12.20525ZM51.0038125,25.4505L50.7818125,24.3242L51.1003125,23.7985L53.8528125,21.7232Q53.9321125,21.962699999999998,54.0503125,22.257199999999997Q54.1688125,22.5515,54.2668125,22.7277Q53.2828125,23.497799999999998,52.6790125,23.9785Q52.0753125,24.459,51.7418125,24.738Q51.4085125,25.0173,51.2523125,25.1733Q51.0963125,25.3295,51.0038125,25.4505ZM48.6546125,16.0905L51.9398125,16.0905L51.9398125,17.250500000000002L48.6546125,17.250500000000002L48.6546125,16.0905ZM51.0038125,25.4603Q50.9468125,25.3275,50.8265125,25.1618Q50.7065125,24.9963,50.5771125,24.84Q50.4476125,24.6838,50.3496125,24.5923Q50.4928125,24.4748,50.6718125,24.2595Q50.8511125,24.0443,50.9855125,23.738Q51.1203125,23.431800000000003,51.1203125,23.0422L51.1203125,16.0905L52.2708125,16.0905L52.2708125,23.9217Q52.2708125,23.9217,52.1421125,24.0362Q52.0135125,24.1505,51.8293125,24.3298Q51.6453125,24.509,51.4531125,24.7185Q51.2608125,24.928,51.1323125,25.1227Q51.0038125,25.3178,51.0038125,25.4603ZM54.3945125,14.12875L62.8973125,14.12875L62.8973125,15.23525L54.3945125,15.23525L54.3945125,14.12875ZM54.8940125,17.44425L62.3908125,17.44425L62.3908125,18.544800000000002L54.8940125,18.544800000000002L54.8940125,17.44425ZM54.0133125,20.808500000000002L63.2483125,20.808500000000002L63.2483125,21.9375L54.0133125,21.9375L54.0133125,20.808500000000002ZM58.0828125,14.548L59.2931125,14.548L59.2931125,25.7698L58.0828125,25.7698L58.0828125,14.548ZM55.2778125,11.52675L56.3233125,11.12875Q56.7498125,11.714500000000001,57.1553125,12.42025Q57.5610125,13.126000000000001,57.7343125,13.64425L56.6293125,14.1125Q56.4586125,13.6005,56.0750125,12.86275Q55.6918125,12.125,55.2778125,11.52675ZM61.2236125,11.01675L62.4365125,11.428Q62.0171125,12.3065,61.5118125,13.22775Q61.0065125,14.149000000000001,60.5703125,14.79525L59.5498125,14.412749999999999Q59.8483125,13.962,60.1613125,13.3735Q60.4746125,12.785,60.7558125,12.1615Q61.0371125,11.537749999999999,61.2236125,11.01675ZM70.8476125,20.2242L77.22131250000001,20.2242L77.22131250000001,21.141L70.8476125,21.141L70.8476125,20.2242ZM69.3528125,12.315999999999999L78.8588125,12.315999999999999L78.8588125,13.22925L69.3528125,13.22925L69.3528125,12.315999999999999ZM69.7388125,14.25675L78.46301249999999,14.25675L78.46301249999999,15.1325L69.7388125,15.1325L69.7388125,14.25675ZM68.86681250000001,16.24775L79.3318125,16.24775L79.3318125,17.16725L68.86681250000001,17.16725L68.86681250000001,16.24775ZM70.8538125,22.36L77.26661250000001,22.36L77.26661250000001,23.264200000000002L70.8538125,23.264200000000002L70.8538125,22.36ZM70.0273125,18.1032L77.2103125,18.1032L77.2103125,19.0352L71.1466125,19.0352L71.1466125,25.7593L70.0273125,25.7593L70.0273125,18.1032ZM76.9285125,18.1032L78.0763125,18.1032L78.0763125,24.435Q78.0763125,24.8818,77.95701249999999,25.138Q77.8378125,25.3945,77.4980125,25.5305Q77.1645125,25.6632,76.6056125,25.6917Q76.0468125,25.7202,75.1953125,25.7105Q75.1606125,25.493,75.0578125,25.1935Q74.9551125,24.894,74.84111250000001,24.6695Q75.4523125,24.6917,75.9663125,24.6965Q76.4806125,24.7015,76.6406125,24.6917Q76.9285125,24.682,76.9285125,24.4163L76.9285125,18.1032ZM73.4543125,11.05425L74.6358125,11.05425L74.6358125,16.538L73.4543125,16.538L73.4543125,11.05425ZM66.4333125,11.05425L67.53381250000001,11.05425L67.53381250000001,25.7565L66.4333125,25.7565L66.4333125,11.05425ZM65.1688125,14.14325L66.06631250000001,14.267Q66.0468125,14.88675,65.9521125,15.665Q65.8573125,16.44325,65.7128125,17.2105Q65.5685125,17.9777,65.3793125,18.578699999999998L64.44731250000001,18.266199999999998Q64.63651250000001,17.716,64.7791125,16.99475Q64.9218125,16.27325,65.02431250000001,15.52175Q65.12711250000001,14.77,65.1688125,14.14325ZM67.6720125,13.72275L68.4751125,13.404Q68.7408125,13.948,68.9963125,14.589500000000001Q69.25211250000001,15.23075,69.36681250000001,15.669L68.5228125,16.08025Q68.41081249999999,15.626,68.1663125,14.95275Q67.9218125,14.279250000000001,67.6720125,13.72275Z" fill="#FFFFFF" fill-opacity="1" style="mix-blend-mode:passthrough"/></g></g></svg>