<svg xmlns="http://www.w3.org/2000/svg" xmlns:xlink="http://www.w3.org/1999/xlink" fill="none" version="1.1" width="1207" height="82" viewBox="0 0 1207 82"><g><rect x="0" y="0" width="1207" height="82" rx="12" fill="#FFFFFF" fill-opacity="1" style="mix-blend-mode:passthrough"/><rect x="0.5" y="0.5" width="1206" height="81" rx="11.5" fill-opacity="0" stroke-opacity="1" stroke="#E5E7EB" fill="none" stroke-width="1" style="mix-blend-mode:passthrough"/><g><rect x="17" y="17" width="318" height="48" rx="0" fill="#000000" fill-opacity="0" style="mix-blend-mode:passthrough"/><g><rect x="17" y="37" width="8" height="8" rx="4" fill="#E6002D" fill-opacity="1" style="mix-blend-mode:passthrough"/></g><g><rect x="41" y="17" width="294" height="48" rx="0" fill="#000000" fill-opacity="0" style="mix-blend-mode:passthrough"/><g><rect x="41" y="17" width="294" height="24" rx="0" fill="#000000" fill-opacity="0" style="mix-blend-mode:passthrough"/><g><rect x="41" y="17" width="72" height="24" rx="4" fill="#DBEAFE" fill-opacity="1" style="mix-blend-mode:passthrough"/><g><path d="M49.642031,23.877119999999998L54.83275,23.877119999999998L54.83275,24.85406L49.642031,24.85406L49.642031,23.877119999999998ZM52.40594,26.05872L53.41263,26.05872L53.41263,35.0684L52.40594,35.0684L52.40594,26.05872ZM49.558688,31.6629Q50.27203,31.544800000000002,51.20084,31.394199999999998Q52.12966,31.2437,53.17025,31.0611Q54.21106,30.8784,55.25494,30.6958L55.30481,31.608800000000002Q53.84334,31.895,52.381,32.184200000000004Q50.91866,32.4733,49.783125,32.6866L49.558688,31.6629ZM50.13138,29.3583Q50.10644,29.2531,50.05525,29.0818Q50.00428,28.910339999999998,49.938,28.735120000000002Q49.871938,28.559910000000002,49.811125,28.43281Q49.989406,28.38841,50.15588,28.07428Q50.32234,27.76016,50.50434,27.30363Q50.59688,27.07656,50.77756,26.561410000000002Q50.95847,26.046030000000002,51.16606,25.34603Q51.37366,24.64603,51.57141,23.84541Q51.76938,23.04456,51.88772,22.24656L52.92525,22.45131Q52.67325,23.57919,52.32522,24.72106Q51.97719,25.862940000000002,51.57447,26.90572Q51.17197,27.94828,50.75503,28.77975L50.75503,28.79922Q50.75503,28.79922,50.66075,28.85719Q50.56669,28.91516,50.44309,29.0053Q50.31972,29.0952,50.22544,29.1879Q50.13138,29.2805,50.13138,29.3583ZM50.13138,29.3583L50.13138,28.47962L50.70428,28.202469999999998L54.85638,28.202469999999998L54.85638,29.1599L51.15731,29.1599Q50.79813,29.1599,50.50938,29.215899999999998Q50.22084,29.271900000000002,50.13138,29.3583ZM56.87653,29.1265L61.0647,29.1265L61.0647,30.1113L56.87653,30.1113L56.87653,29.1265ZM60.8138,29.1265L60.9851,29.1265L61.147800000000004,29.0626L61.8927,29.4264Q61.5022,30.0015,61.0175,30.683799999999998Q60.5327,31.3658,60.013,32.0566Q59.4934,32.7474,59.0017,33.3737L58.09409,32.9577Q58.58038,32.3563,59.0918,31.662399999999998Q59.603300000000004,30.968600000000002,60.0602,30.3281Q60.5174,29.6873,60.8138,29.2457L60.8138,29.1265ZM56.43663,32.1728L57.10666,31.4942Q57.83334,31.9118,58.57819,32.413399999999996Q59.323,32.915,59.974000000000004,33.4124Q60.625299999999996,33.9097,61.0385,34.3157L60.3459,35.134699999999995Q59.9351,34.7147,59.2882,34.1868Q58.64141,33.6592,57.895250000000004,33.1261Q57.14931,32.5928,56.43663,32.1728ZM58.45284,22.24591L59.495400000000004,22.38131Q59.2659,23.31187,58.98156,24.36056Q58.69741,25.40903,58.40188,26.462310000000002Q58.10634,27.51559,57.827439999999996,28.45841Q57.54875,29.401,57.31075,30.1113L56.17938,30.1113Q56.44231,29.362099999999998,56.75031,28.39169Q57.05831,27.42131,57.36631,26.35009Q57.67431,25.27887,57.95431,24.22056Q58.23431,23.16225,58.45284,22.24591ZM55.508250000000004,23.88259L61.9216,23.88259L61.9216,24.85953L55.508250000000004,24.85953L55.508250000000004,23.88259ZM54.96947,26.51219L62.4232,26.51219L62.4232,27.500059999999998L54.96947,27.500059999999998L54.96947,26.51219ZM64.2447,23.18916L64.7953,22.4255Q65.2076,22.6215,65.6679,22.88181Q66.1283,23.14191,66.5508,23.41337Q66.97319999999999,23.68484,67.24459999999999,23.91431L66.6722,24.76897Q66.4062,24.53097,65.9962,24.244410000000002Q65.5863,23.95762,65.1243,23.67959Q64.6623,23.40134,64.2447,23.18916ZM63.53,26.99475L64.0588,26.22016Q64.4678,26.385089999999998,64.9198,26.62441Q65.3717,26.863500000000002,65.7812,27.11244Q66.1909,27.36137,66.4593,27.57684L65.9118,28.44791Q65.6543,28.21844,65.2529,27.95441Q64.8515,27.69016,64.3952,27.44166Q63.939099999999996,27.19316,63.53,26.99475ZM63.870400000000004,34.1348Q64.2012,33.5997,64.5973,32.858599999999996Q64.9937,32.1172,65.39529999999999,31.2882Q65.7972,30.4591,66.1353,29.6727L66.84819999999999,30.375500000000002Q66.5348,31.1035,66.1662,31.895200000000003Q65.7976,32.6868,65.4192,33.4492Q65.0407,34.2113,64.6853,34.8601L63.870400000000004,34.1348ZM73.26859999999999,26.23022Q73.4963,27.92662,73.904,29.4542Q74.3118,30.9817,74.9691,32.1605Q75.6265,33.3392,76.58070000000001,34.0203Q76.459,34.117000000000004,76.31139999999999,34.272800000000004Q76.1637,34.4288,76.03399999999999,34.5954Q75.9043,34.762100000000004,75.8188,34.9142Q74.8092,34.1083,74.1311,32.8177Q73.4532,31.527,73.0426,29.877200000000002Q72.6322,28.22741,72.385,26.354689999999998L73.26859999999999,26.23022ZM75.6742,27.81069L76.405,28.559469999999997Q75.7927,29.0766,75.1216,29.6077Q74.4507,30.1386,73.8808,30.521L73.33330000000001,29.9227Q73.6986,29.6558,74.1285,29.288600000000002Q74.5585,28.92106,74.9702,28.52994Q75.3819,28.13881,75.6742,27.81069ZM74.8506,22.27456L75.6921,23.12069Q74.7403,23.44509,73.52250000000001,23.71394Q72.3048,23.98256,70.9923,24.19409Q69.6798,24.40562,68.4539,24.55416Q68.4235,24.36953,68.32679999999999,24.11053Q68.2303,23.851309999999998,68.1336,23.68309Q69.0266,23.56256,69.9606,23.40703Q70.8947,23.2515,71.7979,23.07387Q72.7013,22.89603,73.4838,22.69303Q74.2663,22.49003,74.8506,22.27456ZM68.1336,23.68309L69.1106,23.68309L69.1106,27.19884Q69.1106,28.06925,69.0476,29.1015Q68.9846,30.1336,68.79820000000001,31.2107Q68.612,32.2876,68.26599999999999,33.3074Q67.9199,34.327,67.3398,35.186499999999995Q67.25710000000001,35.1007,67.0996,34.998599999999996Q66.9423,34.896699999999996,66.7837,34.8054Q66.6253,34.7144,66.4982,34.6731Q67.05369999999999,33.8495,67.3818,32.893299999999996Q67.7099,31.936999999999998,67.8711,30.9388Q68.0326,29.9404,68.0831,28.98428Q68.1336,28.02791,68.1336,27.19884L68.1336,23.68309ZM74.6012,24.883589999999998L75.4434,25.69931Q74.8132,25.94606,74.0235,26.15497Q73.2338,26.36366,72.40299999999999,26.52662Q71.5724,26.68937,70.7945,26.8075Q70.7641,26.62834,70.6632,26.38291Q70.5624,26.13747,70.4627,25.960720000000002Q71.2047,25.83166,71.97919999999999,25.66759Q72.7538,25.50331,73.444,25.30009Q74.1344,25.09666,74.6012,24.883589999999998ZM70.3776,34.985L70.2653,34.0674L70.6545,33.678200000000004L73.50919999999999,32.5243Q73.53960000000001,32.731700000000004,73.60300000000001,32.980199999999996Q73.66669999999999,33.2287,73.7133,33.3805Q72.70400000000001,33.8237,72.07900000000001,34.0997Q71.4543,34.3758,71.1154,34.5379Q70.77680000000001,34.7002,70.6204,34.8022Q70.464,34.9041,70.3776,34.985ZM70.3776,34.985Q70.3472,34.8636,70.2752,34.6965Q70.2032,34.5294,70.1186,34.3607Q70.0341,34.192099999999996,69.9538,34.0868Q70.1212,34.0037,70.2918,33.8044Q70.4627,33.605199999999996,70.4627,33.1967L70.4627,25.96619L71.4068,25.96619L71.4068,34.0864Q71.4068,34.0864,71.2515,34.172399999999996Q71.0962,34.2586,70.8921,34.3986Q70.6882,34.5388,70.5329,34.6941Q70.3776,34.8496,70.3776,34.985ZM78.4573,23.81741L89.6048,23.81741L89.6048,24.9035L78.4573,24.9035L78.4573,23.81741ZM77.7278,32.994L90.3081,32.994L90.3081,34.044200000000004L77.7278,34.044200000000004L77.7278,32.994ZM83.3829,24.36691L84.55080000000001,24.36691L84.55080000000001,33.4302L83.3829,33.4302L83.3829,24.36691ZM97.42580000000001,25.14544L98.50970000000001,25.14544L98.50970000000001,35.1032L97.42580000000001,35.1032L97.42580000000001,25.14544ZM94.0993,27.88484L94.0993,29.3914L101.9854,29.3914L101.9854,27.88484L94.0993,27.88484ZM94.0993,25.55275L94.0993,27.04222L101.9854,27.04222L101.9854,25.55275L94.0993,25.55275ZM93.0762,24.65762L103.0608,24.65762L103.0608,30.2834L93.0762,30.2834L93.0762,24.65762ZM91.7527,31.6154L104.2838,31.6154L104.2838,32.5947L91.7527,32.5947L91.7527,31.6154ZM94.297,22.71622L95.1899,22.299500000000002Q95.6161,22.76762,96.0503,23.351689999999998Q96.4847,23.93575,96.6947,24.37522L95.75829999999999,24.85034Q95.55590000000001,24.42181,95.1368,23.81128Q94.71770000000001,23.20075,94.297,22.71622ZM100.9273,22.30125L102.06479999999999,22.67181Q101.6457,23.34316,101.1623,24.0355Q100.6788,24.72762,100.2722,25.20975L99.37440000000001,24.86391Q99.6382,24.52244,99.93,24.07137Q100.2221,23.62031,100.4876,23.152630000000002Q100.75319999999999,22.68472,100.9273,22.30125Z" fill="#2563EB" fill-opacity="1" style="mix-blend-mode:passthrough"/></g></g><g><rect x="121" y="17" width="174.484375" height="24" rx="0" fill="#000000" fill-opacity="0" style="mix-blend-mode:passthrough"/><g><path d="M122.6655,22.36275L135.4055,22.36275L135.4055,23.604L122.6655,23.604L122.6655,22.36275ZM121.83175,32.850300000000004L136.2093,32.850300000000004L136.2093,34.0505L121.83175,34.0505L121.83175,32.850300000000004ZM128.29475,22.99075L129.6295,22.99075L129.6295,33.3487L128.29475,33.3487L128.29475,22.99075ZM144.3438,23.880499999999998L145.5825,23.880499999999998L145.5825,35.2607L144.3438,35.2607L144.3438,23.880499999999998ZM140.542,27.011200000000002L140.542,28.733L149.5548,28.733L149.5548,27.011200000000002L140.542,27.011200000000002ZM140.542,24.346L140.542,26.04825L149.5548,26.04825L149.5548,24.346L140.542,24.346ZM139.3727,23.323L150.78379999999999,23.323L150.78379999999999,29.752499999999998L139.3727,29.752499999999998L139.3727,23.323ZM137.8603,31.2747L152.1815,31.2747L152.1815,32.394L137.8603,32.394L137.8603,31.2747ZM140.768,21.10425L141.7885,20.628Q142.2755,21.163,142.77179999999998,21.8305Q143.2682,22.498,143.5083,23.00025L142.438,23.54325Q142.2068,23.0535,141.7278,22.35575Q141.2488,21.658,140.768,21.10425ZM148.34550000000002,20.63L149.6455,21.0535Q149.16649999999998,21.82075,148.614,22.612000000000002Q148.0615,23.403,147.5968,23.954L146.5708,23.55875Q146.8722,23.1685,147.2057,22.653Q147.5395,22.1375,147.843,21.603Q148.1465,21.06825,148.34550000000002,20.63ZM157.1598,22.2855L157.1598,24.4595L164.778,24.4595L164.778,22.2855L157.1598,22.2855ZM155.962,21.21625L166.038,21.21625L166.038,25.5225L155.962,25.5225L155.962,21.21625ZM154.0057,26.9675L167.9338,26.9675L167.9338,28.067999999999998L154.0057,28.067999999999998L154.0057,26.9675ZM156.99020000000002,29.8495L165.1458,29.8495L165.1458,30.95L156.99020000000002,30.95L156.99020000000002,29.8495ZM164.7798,29.8495L166.0522,29.8495Q166.0522,29.8495,166.041,29.952199999999998Q166.03,30.055,166.0205,30.1832Q166.0112,30.3112,165.98930000000001,30.403Q165.8025,31.737000000000002,165.5923,32.6245Q165.3823,33.511700000000005,165.1485,34.0238Q164.9147,34.5357,164.617,34.798Q164.334,35.045500000000004,164.01330000000002,35.1308Q163.6927,35.2162,163.22480000000002,35.2385Q162.8167,35.251000000000005,162.0825,35.2442Q161.3483,35.2378,160.5127,35.1863Q160.4905,34.9182,160.38049999999998,34.5998Q160.2705,34.2815,160.0967,34.0322Q160.949,34.115700000000004,161.7262,34.139700000000005Q162.5037,34.1637,162.839,34.1637Q163.13400000000001,34.1637,163.3032,34.139700000000005Q163.4728,34.115700000000004,163.6035,34.0135Q163.8442,33.8305,164.04500000000002,33.3703Q164.246,32.91,164.4228,32.0868Q164.5995,31.2633,164.7735,30.0203L164.7798,29.8495ZM157.50130000000001,27.4357L158.7702,27.6155Q158.60750000000002,28.174,158.4077,28.7817Q158.2083,29.389499999999998,158.0068,29.951Q157.8055,30.5125,157.6333,30.9403L156.253,30.9403Q156.46370000000002,30.468,156.6855,29.867Q156.9072,29.265700000000002,157.118,28.6313Q157.3288,27.9967,157.50130000000001,27.4357ZM173,26.23Q172.5143,26.23,172.153,25.90325Q171.792,25.57625,171.792,25.0345Q171.792,24.4805,172.153,24.1535Q172.5143,23.8265,173,23.8265Q173.4857,23.8265,173.8467,24.1535Q174.208,24.4805,174.208,25.0345Q174.208,25.57625,173.8467,25.90325Q173.4857,26.23,173,26.23ZM173,34.0625Q172.5143,34.0625,172.153,33.7355Q171.792,33.408500000000004,171.792,32.8667Q171.792,32.3127,172.153,31.985799999999998Q172.5143,31.6587,173,31.6587Q173.4857,31.6587,173.8467,31.985799999999998Q174.208,32.3127,174.208,32.8667Q174.208,33.408500000000004,173.8467,33.7355Q173.4857,34.0625,173,34.0625ZM189.3125,30.5625L191.5703,22.625L192.66410000000002,22.625L192.0312,25.71094L189.60160000000002,34L188.5156,34L189.3125,30.5625ZM186.97660000000002,22.625L188.77339999999998,30.4062L189.3125,34L188.2344,34L185.47660000000002,22.625L186.97660000000002,22.625ZM195.58589999999998,30.398400000000002L197.3438,22.625L198.85160000000002,22.625L196.10160000000002,34L195.02339999999998,34L195.58589999999998,30.398400000000002ZM192.8281,22.625L195.02339999999998,30.5625L195.8203,34L194.7344,34L192.3906,25.71094L191.75,22.625L192.8281,22.625ZM209.27339999999998,27.9531L209.27339999999998,28.6719Q209.27339999999998,29.9531,208.9531,30.9688Q208.6328,31.9844,208.0312,32.6953Q207.4297,33.4062,206.5898,33.7812Q205.75,34.1562,204.71089999999998,34.1562Q203.7031,34.1562,202.86329999999998,33.7812Q202.02339999999998,33.4062,201.4102,32.6953Q200.7969,31.9844,200.46089999999998,30.9688Q200.125,29.9531,200.125,28.6719L200.125,27.9531Q200.125,26.67188,200.457,25.660159999999998Q200.78910000000002,24.64844,201.39839999999998,23.93359Q202.0078,23.21875,202.8477,22.84375Q203.6875,22.46875,204.6953,22.46875Q205.7344,22.46875,206.57420000000002,22.84375Q207.41410000000002,23.21875,208.0195,23.93359Q208.625,24.64844,208.94920000000002,25.660159999999998Q209.27339999999998,26.67188,209.27339999999998,27.9531ZM207.7812,28.6719L207.7812,27.9375Q207.7812,26.92188,207.57420000000002,26.14062Q207.3672,25.35938,206.9688,24.82812Q206.5703,24.29688,205.9961,24.02344Q205.4219,23.75,204.6953,23.75Q203.9922,23.75,203.42579999999998,24.02344Q202.8594,24.29688,202.457,24.82812Q202.0547,25.35938,201.83589999999998,26.14062Q201.6172,26.92188,201.6172,27.9375L201.6172,28.6719Q201.6172,29.6953,201.83589999999998,30.4805Q202.0547,31.2656,202.4648,31.800800000000002Q202.875,32.3359,203.4414,32.6094Q204.0078,32.8828,204.71089999999998,32.8828Q205.4453,32.8828,206.0156,32.6094Q206.58589999999998,32.3359,206.9805,31.800800000000002Q207.375,31.2656,207.5781,30.4805Q207.7812,29.6953,207.7812,28.6719ZM214.3125,28.5703L214.3125,29.7578L210.5,29.7578L210.5,28.5703L214.3125,28.5703ZM223.023,32.8125L223.023,34L215.5781,34L215.5781,32.9609L219.3047,28.8125Q219.9922,28.0469,220.3711,27.511699999999998Q220.75,26.97656,220.9023,26.55078Q221.055,26.125,221.055,25.67969Q221.055,25.11719,220.82420000000002,24.66016Q220.5938,24.20312,220.14839999999998,23.92969Q219.7031,23.65625,219.0703,23.65625Q218.3125,23.65625,217.8086,23.94922Q217.3047,24.24219,217.0547,24.76562Q216.8047,25.28906,216.8047,25.96875L215.3594,25.96875Q215.3594,25.00781,215.7812,24.21094Q216.2031,23.41406,217.0312,22.94141Q217.8594,22.46875,219.0703,22.46875Q220.14839999999998,22.46875,220.91410000000002,22.84766Q221.68,23.22656,222.09,23.91016Q222.5,24.59375,222.5,25.50781Q222.5,26.00781,222.332,26.51953Q222.164,27.0312,221.87099999999998,27.539099999999998Q221.578,28.0469,221.191,28.539099999999998Q220.8047,29.0312,220.3672,29.5078L217.3203,32.8125L223.023,32.8125ZM231.703,27.4062L231.703,29.1406Q231.703,30.539099999999998,231.453,31.5Q231.203,32.4609,230.73399999999998,33.0469Q230.26600000000002,33.6328,229.60500000000002,33.8945Q228.945,34.1562,228.11700000000002,34.1562Q227.461,34.1562,226.906,33.9922Q226.352,33.8281,225.91,33.4648Q225.469,33.101600000000005,225.156,32.5156Q224.844,31.9297,224.68,31.0938Q224.51600000000002,30.2578,224.51600000000002,29.1406L224.51600000000002,27.4062Q224.51600000000002,26.00781,224.76999999999998,25.0625Q225.023,24.11719,225.49200000000002,23.54297Q225.961,22.96875,226.62099999999998,22.71875Q227.281,22.46875,228.102,22.46875Q228.76600000000002,22.46875,229.324,22.62891Q229.88299999999998,22.78906,230.32,23.13672Q230.75799999999998,23.48438,231.066,24.05859Q231.375,24.63281,231.539,25.46094Q231.703,26.28906,231.703,27.4062ZM230.25,29.375L230.25,27.164099999999998Q230.25,26.39844,230.16,25.816409999999998Q230.07,25.23438,229.898,24.82031Q229.727,24.40625,229.465,24.14844Q229.203,23.89062,228.863,23.76953Q228.523,23.64844,228.102,23.64844Q227.586,23.64844,227.188,23.83984Q226.789,24.03125,226.51999999999998,24.44531Q226.25,24.85938,226.10899999999998,25.53125Q225.969,26.20312,225.969,27.164099999999998L225.969,29.375Q225.969,30.1406,226.059,30.726599999999998Q226.148,31.3125,226.328,31.738300000000002Q226.50799999999998,32.1641,226.76600000000002,32.4375Q227.023,32.7109,227.363,32.8398Q227.703,32.9688,228.11700000000002,32.9688Q228.648,32.9688,229.047,32.7656Q229.445,32.5625,229.715,32.1289Q229.98399999999998,31.6953,230.11700000000002,31.011699999999998Q230.25,30.3281,230.25,29.375ZM241.00799999999998,32.8125L241.00799999999998,34L233.562,34L233.562,32.9609L237.289,28.8125Q237.977,28.0469,238.35500000000002,27.511699999999998Q238.73399999999998,26.97656,238.887,26.55078Q239.039,26.125,239.039,25.67969Q239.039,25.11719,238.809,24.66016Q238.578,24.20312,238.13299999999998,23.92969Q237.688,23.65625,237.055,23.65625Q236.297,23.65625,235.793,23.94922Q235.289,24.24219,235.039,24.76562Q234.789,25.28906,234.789,25.96875L233.344,25.96875Q233.344,25.00781,233.76600000000002,24.21094Q234.188,23.41406,235.01600000000002,22.94141Q235.844,22.46875,237.055,22.46875Q238.13299999999998,22.46875,238.898,22.84766Q239.664,23.22656,240.074,23.91016Q240.48399999999998,24.59375,240.48399999999998,25.50781Q240.48399999999998,26.00781,240.316,26.51953Q240.148,27.0312,239.85500000000002,27.539099999999998Q239.562,28.0469,239.176,28.539099999999998Q238.789,29.0312,238.352,29.5078L235.305,32.8125L241.00799999999998,32.8125ZM244.656,27.601599999999998L245.688,27.601599999999998Q246.445,27.601599999999998,246.941,27.3477Q247.438,27.0938,247.684,26.652340000000002Q247.93,26.21094,247.93,25.65625Q247.93,25,247.711,24.55469Q247.49200000000002,24.10938,247.055,23.88281Q246.61700000000002,23.65625,245.945,23.65625Q245.336,23.65625,244.87099999999998,23.89453Q244.406,24.13281,244.14499999999998,24.57031Q243.88299999999998,25.00781,243.88299999999998,25.60156L242.438,25.60156Q242.438,24.73438,242.875,24.02344Q243.312,23.3125,244.10500000000002,22.89062Q244.898,22.46875,245.945,22.46875Q246.977,22.46875,247.75,22.83203Q248.523,23.19531,248.953,23.91016Q249.383,24.625,249.383,25.6875Q249.383,26.11719,249.184,26.60547Q248.98399999999998,27.0938,248.566,27.5156Q248.148,27.9375,247.48399999999998,28.207Q246.82,28.476599999999998,245.89100000000002,28.476599999999998L244.656,28.476599999999998L244.656,27.601599999999998ZM244.656,28.789099999999998L244.656,27.9219L245.89100000000002,27.9219Q246.977,27.9219,247.688,28.1797Q248.398,28.4375,248.809,28.8672Q249.219,29.2969,249.387,29.8086Q249.555,30.3203,249.555,30.8281Q249.555,31.625,249.285,32.2422Q249.016,32.8594,248.527,33.289100000000005Q248.039,33.7188,247.38299999999998,33.9375Q246.727,34.1562,245.953,34.1562Q245.211,34.1562,244.559,33.9453Q243.906,33.7344,243.406,33.332Q242.906,32.9297,242.625,32.3398Q242.344,31.75,242.344,30.9922L243.789,30.9922Q243.789,31.585900000000002,244.051,32.0312Q244.312,32.4766,244.801,32.7227Q245.289,32.9688,245.953,32.9688Q246.61700000000002,32.9688,247.098,32.7383Q247.578,32.5078,247.84,32.0391Q248.102,31.5703,248.102,30.8594Q248.102,30.148400000000002,247.805,29.6914Q247.50799999999998,29.2344,246.965,29.011699999999998Q246.422,28.789099999999998,245.688,28.789099999999998L244.656,28.789099999999998ZM258.68,27.4062L258.68,29.1406Q258.68,30.539099999999998,258.43,31.5Q258.18,32.4609,257.711,33.0469Q257.24199999999996,33.6328,256.582,33.8945Q255.922,34.1562,255.094,34.1562Q254.438,34.1562,253.883,33.9922Q253.328,33.8281,252.887,33.4648Q252.445,33.101600000000005,252.133,32.5156Q251.82,31.9297,251.656,31.0938Q251.492,30.2578,251.492,29.1406L251.492,27.4062Q251.492,26.00781,251.746,25.0625Q252,24.11719,252.469,23.54297Q252.938,22.96875,253.598,22.71875Q254.258,22.46875,255.078,22.46875Q255.742,22.46875,256.301,22.62891Q256.85900000000004,22.78906,257.297,23.13672Q257.73400000000004,23.48438,258.043,24.05859Q258.352,24.63281,258.51599999999996,25.46094Q258.68,26.28906,258.68,27.4062ZM257.227,29.375L257.227,27.164099999999998Q257.227,26.39844,257.137,25.816409999999998Q257.047,25.23438,256.875,24.82031Q256.703,24.40625,256.44100000000003,24.14844Q256.18,23.89062,255.84,23.76953Q255.5,23.64844,255.078,23.64844Q254.562,23.64844,254.164,23.83984Q253.766,24.03125,253.496,24.44531Q253.227,24.85938,253.086,25.53125Q252.945,26.20312,252.945,27.164099999999998L252.945,29.375Q252.945,30.1406,253.035,30.726599999999998Q253.125,31.3125,253.305,31.738300000000002Q253.484,32.1641,253.742,32.4375Q254,32.7109,254.34,32.8398Q254.68,32.9688,255.094,32.9688Q255.625,32.9688,256.023,32.7656Q256.422,32.5625,256.69100000000003,32.1289Q256.961,31.6953,257.094,31.011699999999998Q257.227,30.3281,257.227,29.375ZM261.969,32.7891L262.11699999999996,32.7891Q263.36699999999996,32.7891,264.148,32.4375Q264.93,32.0859,265.352,31.4922Q265.773,30.898400000000002,265.93,30.1523Q266.086,29.4062,266.086,28.6172L266.086,26.875Q266.086,26.10156,265.90999999999997,25.5Q265.73400000000004,24.89844,265.426,24.49219Q265.11699999999996,24.08594,264.727,23.875Q264.336,23.66406,263.898,23.66406Q263.398,23.66406,263.004,23.86328Q262.60900000000004,24.0625,262.34000000000003,24.42188Q262.07,24.78125,261.93,25.26562Q261.789,25.75,261.789,26.32031Q261.789,26.82812,261.914,27.3047Q262.039,27.7812,262.297,28.164099999999998Q262.555,28.5469,262.94100000000003,28.7695Q263.328,28.9922,263.852,28.9922Q264.336,28.9922,264.762,28.800800000000002Q265.188,28.6094,265.52,28.2773Q265.852,27.9453,266.051,27.523400000000002Q266.25,27.101599999999998,266.281,26.64062L266.969,26.64062Q266.969,27.289099999999998,266.71500000000003,27.918Q266.461,28.5469,266.00800000000004,29.0625Q265.555,29.5781,264.945,29.886699999999998Q264.336,30.1953,263.61699999999996,30.1953Q262.773,30.1953,262.156,29.8672Q261.539,29.539099999999998,261.145,28.9922Q260.75,28.4453,260.55899999999997,27.7695Q260.36699999999996,27.0938,260.36699999999996,26.39844Q260.36699999999996,25.58594,260.594,24.875Q260.82,24.16406,261.26599999999996,23.62109Q261.711,23.07812,262.371,22.77344Q263.031,22.46875,263.898,22.46875Q264.875,22.46875,265.562,22.85938Q266.25,23.25,266.68399999999997,23.90625Q267.11699999999996,24.5625,267.32,25.38281Q267.523,26.20312,267.523,27.0703L267.523,27.5938Q267.523,28.476599999999998,267.40999999999997,29.386699999999998Q267.297,30.2969,266.98,31.125Q266.664,31.9531,266.062,32.6055Q265.461,33.2578,264.496,33.636700000000005Q263.531,34.0156,262.11699999999996,34.0156L261.969,34.0156L261.969,32.7891ZM276.664,27.4062L276.664,29.1406Q276.664,30.539099999999998,276.414,31.5Q276.164,32.4609,275.695,33.0469Q275.227,33.6328,274.56600000000003,33.8945Q273.906,34.1562,273.078,34.1562Q272.422,34.1562,271.86699999999996,33.9922Q271.312,33.8281,270.871,33.4648Q270.43,33.101600000000005,270.11699999999996,32.5156Q269.805,31.9297,269.64099999999996,31.0938Q269.477,30.2578,269.477,29.1406L269.477,27.4062Q269.477,26.00781,269.73,25.0625Q269.98400000000004,24.11719,270.453,23.54297Q270.922,22.96875,271.582,22.71875Q272.24199999999996,22.46875,273.062,22.46875Q273.727,22.46875,274.28499999999997,22.62891Q274.844,22.78906,275.281,23.13672Q275.719,23.48438,276.027,24.05859Q276.336,24.63281,276.5,25.46094Q276.664,26.28906,276.664,27.4062ZM275.211,29.375L275.211,27.164099999999998Q275.211,26.39844,275.121,25.816409999999998Q275.031,25.23438,274.85900000000004,24.82031Q274.688,24.40625,274.426,24.14844Q274.164,23.89062,273.824,23.76953Q273.48400000000004,23.64844,273.062,23.64844Q272.547,23.64844,272.148,23.83984Q271.75,24.03125,271.48,24.44531Q271.211,24.85938,271.07,25.53125Q270.93,26.20312,270.93,27.164099999999998L270.93,29.375Q270.93,30.1406,271.02,30.726599999999998Q271.10900000000004,31.3125,271.289,31.738300000000002Q271.469,32.1641,271.727,32.4375Q271.98400000000004,32.7109,272.324,32.8398Q272.664,32.9688,273.078,32.9688Q273.60900000000004,32.9688,274.00800000000004,32.7656Q274.406,32.5625,274.676,32.1289Q274.945,31.6953,275.078,31.011699999999998Q275.211,30.3281,275.211,29.375ZM285.656,27.4062L285.656,29.1406Q285.656,30.539099999999998,285.406,31.5Q285.156,32.4609,284.688,33.0469Q284.219,33.6328,283.55899999999997,33.8945Q282.898,34.1562,282.07,34.1562Q281.414,34.1562,280.85900000000004,33.9922Q280.305,33.8281,279.863,33.4648Q279.422,33.101600000000005,279.10900000000004,32.5156Q278.797,31.9297,278.63300000000004,31.0938Q278.469,30.2578,278.469,29.1406L278.469,27.4062Q278.469,26.00781,278.723,25.0625Q278.977,24.11719,279.445,23.54297Q279.914,22.96875,280.574,22.71875Q281.23400000000004,22.46875,282.055,22.46875Q282.719,22.46875,283.277,22.62891Q283.836,22.78906,284.273,23.13672Q284.711,23.48438,285.02,24.05859Q285.328,24.63281,285.49199999999996,25.46094Q285.656,26.28906,285.656,27.4062ZM284.203,29.375L284.203,27.164099999999998Q284.203,26.39844,284.113,25.816409999999998Q284.023,25.23438,283.852,24.82031Q283.68,24.40625,283.418,24.14844Q283.156,23.89062,282.81600000000003,23.76953Q282.477,23.64844,282.055,23.64844Q281.539,23.64844,281.14099999999996,23.83984Q280.74199999999996,24.03125,280.473,24.44531Q280.203,24.85938,280.062,25.53125Q279.922,26.20312,279.922,27.164099999999998L279.922,29.375Q279.922,30.1406,280.012,30.726599999999998Q280.102,31.3125,280.281,31.738300000000002Q280.461,32.1641,280.719,32.4375Q280.977,32.7109,281.31600000000003,32.8398Q281.656,32.9688,282.07,32.9688Q282.602,32.9688,283,32.7656Q283.398,32.5625,283.668,32.1289Q283.938,31.6953,284.07,31.011699999999998Q284.203,30.3281,284.203,29.375ZM289.61699999999996,27.601599999999998L290.648,27.601599999999998Q291.406,27.601599999999998,291.902,27.3477Q292.398,27.0938,292.645,26.652340000000002Q292.89099999999996,26.21094,292.89099999999996,25.65625Q292.89099999999996,25,292.672,24.55469Q292.453,24.10938,292.01599999999996,23.88281Q291.578,23.65625,290.906,23.65625Q290.297,23.65625,289.832,23.89453Q289.36699999999996,24.13281,289.105,24.57031Q288.844,25.00781,288.844,25.60156L287.398,25.60156Q287.398,24.73438,287.836,24.02344Q288.273,23.3125,289.06600000000003,22.89062Q289.85900000000004,22.46875,290.906,22.46875Q291.938,22.46875,292.711,22.83203Q293.48400000000004,23.19531,293.914,23.91016Q294.344,24.625,294.344,25.6875Q294.344,26.11719,294.145,26.60547Q293.945,27.0938,293.527,27.5156Q293.10900000000004,27.9375,292.445,28.207Q291.781,28.476599999999998,290.852,28.476599999999998L289.61699999999996,28.476599999999998L289.61699999999996,27.601599999999998ZM289.61699999999996,28.789099999999998L289.61699999999996,27.9219L290.852,27.9219Q291.938,27.9219,292.648,28.1797Q293.35900000000004,28.4375,293.77,28.8672Q294.18,29.2969,294.348,29.8086Q294.51599999999996,30.3203,294.51599999999996,30.8281Q294.51599999999996,31.625,294.246,32.2422Q293.977,32.8594,293.488,33.289100000000005Q293,33.7188,292.344,33.9375Q291.688,34.1562,290.914,34.1562Q290.172,34.1562,289.52,33.9453Q288.86699999999996,33.7344,288.36699999999996,33.332Q287.86699999999996,32.9297,287.586,32.3398Q287.305,31.75,287.305,30.9922L288.75,30.9922Q288.75,31.585900000000002,289.012,32.0312Q289.273,32.4766,289.762,32.7227Q290.25,32.9688,290.914,32.9688Q291.578,32.9688,292.05899999999997,32.7383Q292.539,32.5078,292.801,32.0391Q293.062,31.5703,293.062,30.8594Q293.062,30.148400000000002,292.76599999999996,29.6914Q292.469,29.2344,291.926,29.011699999999998Q291.38300000000004,28.789099999999998,290.648,28.789099999999998L289.61699999999996,28.789099999999998Z" fill="#4B5563" fill-opacity="1" style="mix-blend-mode:passthrough"/></g></g></g><g><rect x="41" y="45" width="294" height="20" rx="0" fill="#000000" fill-opacity="0" style="mix-blend-mode:passthrough"/><g><path d="M47.55222,48.25509L48.526089999999996,48.49506Q48.11922,49.61812,47.46909,50.6375Q46.81897,51.65666,46.093379999999996,52.36278Q46.01616,52.26631,45.87113,52.14097Q45.72631,52.01541,45.5745,51.89269Q45.42269,51.76997,45.30653,51.69822Q46.02731,51.07237,46.61816,50.163470000000004Q47.20922,49.25434,47.55222,48.25509ZM47.53581,52.10772L48.50728,52.37503Q48.16341,53.20169,47.63906,53.99312Q47.11472,54.78434,46.55778,55.3282Q46.47531,55.2455,46.33028,55.1297Q46.18547,55.013999999999996,46.03344,54.90378Q45.88163,54.793530000000004,45.76569,54.72178Q46.32328,54.221940000000004,46.78791,53.53419Q47.25275,52.84644,47.53581,52.10772ZM47.38772,49.56125L53.462199999999996,49.56125L53.462199999999996,50.46972L47.02306,50.46972L47.38772,49.56125ZM49.63341,50.96081L50.64863,50.96081L50.64863,55.082499999999996Q50.64863,55.4679,50.54975,55.6852Q50.45088,55.9024,50.16213,56.027100000000004Q49.89262,56.1377,49.44134,56.1612Q48.99028,56.1843,48.33469,56.1843Q48.30428,55.9748,48.20322,55.7171Q48.10238,55.459199999999996,47.99191,55.2627Q48.49022,55.2768,48.88681,55.2768Q49.28341,55.2768,49.41794,55.2682Q49.63341,55.2597,49.63341,55.0692L49.63341,50.96081ZM51.4219,52.47959L52.2602,52.076660000000004Q52.6248,52.50278,52.9698,53.00481Q53.3148,53.50684,53.5978,53.99203Q53.8809,54.47722,54.0434,54.86681L53.1382,55.341300000000004Q52.9897,54.94316,52.7119,54.44703Q52.4343,53.95091,52.099199999999996,53.43116Q51.763999999999996,52.91119,51.4219,52.47959ZM53.1632,49.56125L53.332300000000004,49.56125L53.5035,49.52231L54.228300000000004,49.70541Q53.961600000000004,50.31134,53.6547,50.95841Q53.3478,51.60525,53.0873,52.03772L52.1851,51.850030000000004Q52.4323,51.43616,52.7005,50.83372Q52.9689,50.23128,53.1632,49.69994L53.1632,49.56125ZM44.84781,48.20216L45.79434,48.51934Q45.34634,49.384280000000004,44.75747,50.23216Q44.16859,51.07981,43.51125,51.81722Q42.85413,52.55462,42.18278,53.11462Q42.11344,53.007220000000004,41.98875,52.85453Q41.864281,52.70162,41.728656,52.54478Q41.59325,52.38772,41.488031,52.29409Q42.46016,51.55078,43.35791,50.45988Q44.25588,49.36875,44.84781,48.20216ZM43.53575,50.85931L44.53456,49.86903L44.55097,49.88303L44.55097,56.2458L43.53575,56.2458L43.53575,50.85931ZM44.6715,56.9891L45.72172,56.9891L45.72172,59.403Q45.72172,59.7134,45.92537,59.799Q46.12925,59.8845,46.82269,59.8845Q46.95481,59.8845,47.26763,59.8845Q47.58066,59.8845,47.98513,59.8845Q48.38959,59.8845,48.80259,59.8845Q49.21581,59.8845,49.55378,59.8845Q49.89197,59.8845,50.06916,59.8845Q50.45941,59.8845,50.65038,59.7738Q50.84134,59.6629,50.92403,59.3138Q51.0069,58.9644,51.0404,58.2522Q51.1649,58.3379,51.3359,58.4208Q51.507,58.5037,51.6888,58.5604Q51.8708,58.6168,52.0088,58.6473Q51.9395,59.538,51.7673,60.0168Q51.5954,60.4957,51.215199999999996,60.6757Q50.835,60.856,50.13784,60.856Q50.02344,60.856,49.687219999999996,60.856Q49.351,60.856,48.90431,60.856Q48.45784,60.856,48.00853,60.856Q47.55944,60.856,47.21884,60.856Q46.87847,60.856,46.778059999999996,60.856Q45.94222,60.856,45.48394,60.7357Q45.02566,60.6153,44.84847,60.2992Q44.6715,59.9832,44.6715,59.419399999999996L44.6715,56.9891ZM46.79666,56.3602L47.60778,55.9107Q47.99497,56.2668,48.39616,56.6932Q48.79756,57.1193,49.13422,57.5483Q49.47087,57.977000000000004,49.659,58.327L48.79034,58.8489Q48.61316,58.504400000000004,48.28722,58.065799999999996Q47.9615,57.6272,47.57256,57.1772Q47.183840000000004,56.7273,46.79666,56.3602ZM51.7511,57.1727L52.6837,56.8143Q53.0142,57.309799999999996,53.3237,57.8807Q53.6333,58.4517,53.8798,59.001599999999996Q54.1263,59.5513,54.2328,59.9792L53.2318,60.3789Q53.1308,59.9482,52.902,59.3927Q52.6734,58.8373,52.3719,58.2539Q52.0707,57.670500000000004,51.7511,57.1727ZM43.09606,57.0563L44.02794,57.4483Q43.85141,57.9063,43.63397,58.4688Q43.41675,59.0312,43.16825,59.5756Q42.91975,60.1201,42.65856,60.5596L41.671344,60.0906Q41.952219,59.6791,42.21581,59.1484Q42.47941,58.6175,42.70909,58.066Q42.939,57.5146,43.09606,57.0563ZM62.6886,50.96541L68.3823,50.96541L68.3823,51.96116L62.6886,51.96116L62.6886,50.96541ZM63.0787,48.23803L64.154,48.41172Q63.912800000000004,49.77147,63.5407,51.028620000000004Q63.1686,52.285560000000004,62.6582,53.36378Q62.1479,54.44178,61.4827,55.2702Q61.411100000000005,55.1573,61.277,54.98931Q61.1432,54.82131,60.9981,54.65353Q60.853300000000004,54.48553,60.731700000000004,54.391909999999996Q61.3368,53.674189999999996,61.786699999999996,52.70337Q62.2367,51.73234,62.5593,50.59616Q62.882000000000005,49.45975,63.0787,48.23803ZM66.3558,51.46262L67.3959,51.60372Q67.0118,53.94544,66.3098,55.7543Q65.60810000000001,57.5629,64.4747,58.8898Q63.3416,60.2168,61.6493,61.1353Q61.588499999999996,61.027699999999996,61.4684,60.8665Q61.348600000000005,60.7052,61.2175,60.539699999999996Q61.0867,60.3741,60.9708,60.2719Q62.6053,59.4726,63.6791,58.2489Q64.75319999999999,57.0252,65.39,55.3363Q66.027,53.647059999999996,66.3558,51.46262ZM63.084599999999995,51.84566Q63.5192,53.697810000000004,64.2509,55.3478Q64.9829,56.9979,66.0408,58.254599999999996Q67.0988,59.5113,68.50280000000001,60.2089Q68.3812,60.3054,68.239,60.4541Q68.0968,60.6031,67.97409999999999,60.7628Q67.8513,60.9227,67.7658,61.060500000000005Q66.3293,60.2662,65.2587,58.9229Q64.1882,57.5793,63.444,55.8221Q62.699799999999996,54.06487,62.2238,52.03881L63.084599999999995,51.84566ZM59.5332,48.44497L60.575500000000005,48.44497L60.575500000000005,61.1305L59.5332,61.1305L59.5332,48.44497ZM56.2904,58.5993L56.1837,57.6007L56.6608,57.1702L60.015299999999996,56.069900000000004Q60.0536,56.288,60.129000000000005,56.5503Q60.2047,56.8124,60.2679,56.9806Q59.0591,57.4122,58.3193,57.688Q57.5797,57.9637,57.180099999999996,58.134100000000004Q56.7806,58.304500000000004,56.5912,58.4062Q56.4018,58.5077,56.2904,58.5993ZM56.2904,58.5993Q56.2515,58.4615,56.1793,58.2824Q56.1073,58.1032,56.0244,57.9267Q55.9415,57.7502,55.8558,57.6342Q56.006,57.5423,56.177099999999996,57.3214Q56.3482,57.1005,56.3482,56.6835L56.3482,49.79575L57.3767,49.79575L57.3767,57.6224Q57.3767,57.6224,57.2131,57.7171Q57.0497,57.8116,56.833600000000004,57.9674Q56.6174,58.1229,56.4538,58.2907Q56.2904,58.4585,56.2904,58.5993ZM70.3567,55.5528L76.9168,55.5528L76.9168,56.4832L70.3567,56.4832L70.3567,55.5528ZM73.1112,54.04562L74.10669999999999,54.04562L74.10669999999999,59.4658L73.1112,59.4658L73.1112,54.04562ZM69.8691,59.4153Q70.7559,59.2722,71.9269,59.068799999999996Q73.0978,58.8653,74.4163,58.6228Q75.7347,58.3802,77.0507,58.135999999999996L77.1115,59.0607Q75.86240000000001,59.3018,74.6009,59.55Q73.33930000000001,59.7981,72.1874,60.0182Q71.0355,60.2382,70.1067,60.4148L69.8691,59.4153ZM69.989,49.15875L77.1961,49.15875L77.1961,50.09194L69.989,50.09194L69.989,49.15875ZM74.31190000000001,50.99887L75.07079999999999,50.54934Q75.46889999999999,51.01987,75.8784,51.56763Q76.28790000000001,52.11516,76.6412,52.63578Q76.9947,53.15641,77.1968,53.56481L76.39439999999999,54.09769Q76.1947,53.68928,75.8493,53.15181Q75.5041,52.61434,75.1044,52.04734Q74.7048,51.48034,74.31190000000001,50.99887ZM77.9779,49.447720000000004L78.9573,49.447720000000004L78.9573,57.9341L77.9779,57.9341L77.9779,49.447720000000004ZM80.7467,48.46641L81.7695,48.46641L81.7695,59.4763Q81.7695,59.9707,81.64269999999999,60.2284Q81.5158,60.4863,81.196,60.621700000000004Q80.86760000000001,60.7433,80.3144,60.781800000000004Q79.7612,60.8203,78.9927,60.8203Q78.9623,60.602199999999996,78.84620000000001,60.294200000000004Q78.7302,59.9862,78.6055,59.7734Q79.2228,59.7874,79.7428,59.794399999999996Q80.2628,59.8014,80.4448,59.7928Q80.6237,59.7843,80.68520000000001,59.7228Q80.7467,59.6614,80.7467,59.4794L80.7467,48.46641ZM70.6636,53.84831Q70.6332,53.73784,70.5767,53.55825Q70.52029999999999,53.378659999999996,70.45400000000001,53.18834Q70.3878,52.99781,70.3184,52.86525Q70.4779,52.82631,70.6459,52.659620000000004Q70.8139,52.49272,70.9937,52.24312Q71.1173,52.07206,71.3927,51.63281Q71.6683,51.19334,71.975,50.60141Q72.2817,50.00925,72.5127,49.39478L73.5301,49.80144Q73.2324,50.43275,72.8638,51.06516Q72.4952,51.69734,72.0999,52.26784Q71.7048,52.83812,71.3122,53.28678L71.3122,53.30625Q71.3122,53.30625,71.2153,53.35744Q71.11840000000001,53.40841,70.988,53.49131Q70.8576,53.57422,70.76050000000001,53.66981Q70.6636,53.765190000000004,70.6636,53.84831ZM70.6636,53.84831L70.6472,53.09734L71.2048,52.75937L75.90350000000001,52.35841Q75.9948,52.56272,76.126,52.79022Q76.2573,53.01772,76.35679999999999,53.18047Q74.92439999999999,53.32113,73.9534,53.41672Q72.9823,53.51231,72.3814,53.57422Q71.7808,53.63612,71.4423,53.6825Q71.10419999999999,53.72866,70.9353,53.7665Q70.7664,53.80412,70.6636,53.84831ZM83.6182,53.96338L96.4356,53.96338L96.4356,55.1133L83.6182,55.1133L83.6182,53.96338ZM104.0868,48.22403L105.0157,48.66503Q104.2579,49.93925,103.19460000000001,51.07916Q102.1312,52.21884,100.8703,53.14394Q99.6097,54.06903,98.26939999999999,54.71609Q98.1423,54.48225,97.92580000000001,54.21537Q97.70920000000001,53.948499999999996,97.4887,53.75053Q98.8156,53.17741,100.0586,52.33194Q101.3015,51.48647,102.34559999999999,50.44019Q103.3899,49.39391,104.0868,48.22403ZM104.3887,48.997749999999996Q105.3291,50.14422,106.3225,51.01944Q107.316,51.89466,108.3809,52.56206Q109.4458,53.22925,110.5697,53.77787Q110.3547,53.948499999999996,110.1394,54.21691Q109.9244,54.48531,109.7975,54.73862Q108.6651,54.13487,107.6043,53.40534Q106.5438,52.67559,105.5258,51.71244Q104.5077,50.74906,103.4794,49.45975L104.3887,48.997749999999996ZM103.4459,52.363L104.5322,52.363L104.5322,61.105599999999995L103.4459,61.105599999999995L103.4459,52.363ZM111.7917,54.45075L124.2309,54.45075L124.2309,55.4572L111.7917,55.4572L111.7917,54.45075ZM112.4582,49.92766L123.6477,49.92766L123.6477,50.93434L112.4582,50.93434L112.4582,49.92766ZM117.4398,48.24656L118.5423,48.24656L118.5423,61.111000000000004L117.4398,61.111000000000004L117.4398,48.24656ZM121.5862,51.194L122.6777,51.53678Q122.4343,52.02131,122.1538,52.53187Q121.8736,53.04222,121.5945,53.50269Q121.3154,53.96294,121.0627,54.32212L120.1698,54.00428Q120.417,53.62869,120.6823,53.134969999999996Q120.9479,52.64125,121.1896,52.12653Q121.4315,51.61159,121.5862,51.194ZM113.5915,51.60372L114.5234,51.259190000000004Q114.8095,51.66584,115.0762,52.14141Q115.3428,52.61697,115.552,53.07262Q115.7613,53.52828,115.8538,53.88988L114.8587,54.29281Q114.7686,53.931219999999996,114.5746,53.46419Q114.3808,52.99716,114.1237,52.5065Q113.8667,52.01584,113.5915,51.60372ZM117.1598,54.83881L118.0123,55.1978Q117.5137,56.015299999999996,116.8522,56.7922Q116.1907,57.5693,115.4201,58.2666Q114.6494,58.9638,113.8413,59.5363Q113.0333,60.1087,112.2274,60.5031Q112.1502,60.3708,112.0176,60.2109Q111.8853,60.0512,111.7446,59.897Q111.6042,59.7428,111.4771,59.6406Q112.272,59.296099999999996,113.0843,58.7759Q113.8967,58.2557,114.6577,57.6161Q115.4187,56.9764,116.0621,56.268100000000004Q116.7057,55.5596,117.1598,54.83881ZM118.8442,54.84122Q119.3016,55.562,119.9453,56.274699999999996Q120.5891,56.9874,121.3532,57.6329Q122.1173,58.2782,122.9326,58.7984Q123.7481,59.3186,124.5461,59.6717Q124.4332,59.7738,124.2897,59.9324Q124.1464,60.0908,124.0167,60.2505Q123.887,60.410399999999996,123.8013,60.5482Q123.0008,60.153800000000004,122.1827,59.5756Q121.3646,58.9972,120.5935,58.2916Q119.8224,57.5857,119.1578,56.7975Q118.4935,56.009100000000004,117.995,55.2002L118.8442,54.84122ZM127.9918,53.25353L136.1252,53.25353L136.1252,54.24141L127.9918,54.24141L127.9918,53.25353ZM127.9918,56.2983L136.1252,56.2983L136.1252,57.277699999999996L127.9918,57.277699999999996L127.9918,56.2983ZM127.9918,59.3573L136.1252,59.3573L136.1252,60.3452L127.9918,60.3452L127.9918,59.3573ZM127.2805,50.15275L136.9357,50.15275L136.9357,61.0629L135.8417,61.0629L135.8417,51.15922L128.3392,51.15922L128.3392,61.1312L127.2805,61.1312L127.2805,50.15275ZM131.37439999999998,48.21244L132.59390000000002,48.37912Q132.362,49.00453,132.1063,49.63825Q131.8508,50.27175,131.6128,50.73069L130.6763,50.54825Q130.80540000000002,50.21837,130.9391,49.80428Q131.0727,49.39019,131.19240000000002,48.97325Q131.31220000000002,48.556309999999996,131.37439999999998,48.21244ZM145.437,48.39575L146.535,48.39575L146.535,59.4792L145.437,59.4792L145.437,48.39575ZM150.424,51.13931L151.501,51.13931L151.501,61.0653L150.424,61.0653L150.424,51.13931ZM140.5144,51.15812L141.59,51.15812L141.59,58.9587L150.977,58.9587L150.977,60.0256L140.5144,60.0256L140.5144,51.15812ZM155.188,59.2112L164.918,59.2112L164.918,60.1936L155.188,60.1936L155.188,59.2112ZM154.587,52.19828L165.518,52.19828L165.518,61.0178L164.462,61.0178L164.462,53.17216L155.60399999999998,53.17216L155.60399999999998,61.060500000000005L154.587,61.060500000000005L154.587,52.19828ZM153.833,49.15153L166.14600000000002,49.15153L166.14600000000002,50.17222L153.833,50.17222L153.833,49.15153ZM157.986,49.76862L158.938,49.76862L158.938,52.76222Q158.938,53.56022,158.74,54.40066Q158.542,55.240899999999996,157.95999999999998,56.0034Q157.377,56.7658,156.22199999999998,57.3389Q156.17000000000002,57.2282,156.05200000000002,57.079Q155.935,56.9298,155.81,56.7879Q155.684,56.6457,155.588,56.5739Q156.648,56.0647,157.15800000000002,55.4292Q157.668,54.79375,157.826,54.10534Q157.986,53.41672,157.986,52.74034L157.986,49.76862ZM160.959,49.75156L161.97199999999998,49.75156L161.97199999999998,55.3774Q161.97199999999998,55.667,162.05599999999998,55.7425Q162.14,55.8179,162.50900000000001,55.8179Q162.58499999999998,55.8179,162.81,55.8179Q163.034,55.8179,163.314,55.8179Q163.594,55.8179,163.834,55.8179Q164.074,55.8179,164.18099999999998,55.8179Q164.372,55.8179,164.437,55.8Q164.503,55.7821,164.52800000000002,55.7462Q164.688,55.8623,164.951,55.9656Q165.213,56.068799999999996,165.442,56.118700000000004Q165.34300000000002,56.4989,165.08499999999998,56.6551Q164.828,56.8113,164.28,56.8113Q164.191,56.8113,163.918,56.8113Q163.64499999999998,56.8113,163.32299999999998,56.8113Q163.002,56.8113,162.736,56.8113Q162.47,56.8113,162.386,56.8113Q161.814,56.8113,161.506,56.6899Q161.199,56.5682,161.079,56.2583Q160.959,55.9483,160.959,55.3828L160.959,49.75156ZM167.853,51.964439999999996L180.216,51.964439999999996L180.216,53.03128L167.853,53.03128L167.853,51.964439999999996ZM171.907,58.1756L172.752,57.5719Q173.247,57.9645,173.777,58.4499Q174.308,58.9351,174.772,59.4076Q175.237,59.8799,175.518,60.260999999999996L174.606,60.9621Q174.342,60.5725,173.89,60.086Q173.437,59.5997,172.919,59.0966Q172.401,58.593199999999996,171.907,58.1756ZM174.812,52.44919Q175.269,54.21122,176.054,55.7344Q176.839,57.2573,177.969,58.3996Q179.1,59.5419,180.585,60.1807Q180.453,60.2881,180.3,60.4576Q180.146,60.6272,180.015,60.8074Q179.885,60.987899999999996,179.793,61.1452Q178.254,60.4016,177.098,59.1626Q175.943,57.9236,175.13,56.2852Q174.317,54.64675,173.802,52.69769L174.812,52.44919ZM173.427,48.25203L174.557,48.25203Q174.552,49.21212,174.507,50.33628Q174.462,51.46022,174.291,52.66947Q174.121,53.8785,173.736,55.084Q173.351,56.2896,172.672,57.408500000000004Q171.993,58.5272,170.926,59.4792Q169.859,60.431200000000004,168.314,61.122Q168.192,60.9155,167.97,60.6661Q167.748,60.4167,167.531,60.251599999999996Q169.035,59.6161,170.06,58.7288Q171.086,57.8414,171.726,56.7929Q172.367,55.7442,172.716,54.61437Q173.065,53.48431,173.216,52.35512Q173.368,51.22572,173.395,50.17616Q173.422,49.12637,173.427,48.25203ZM183.442,49.01459L194.205,49.01459L194.205,49.98606L183.442,49.98606L183.442,49.01459ZM182.836,49.01459L183.873,49.01459L183.873,52.98228Q183.873,53.83562,183.824,54.848Q183.775,55.8604,183.619,56.9204Q183.464,57.9803,183.171,58.9861Q182.878,59.9917,182.39,60.837199999999996Q182.297,60.751599999999996,182.13,60.6451Q181.963,60.5388,181.791,60.4379Q181.619,60.3371,181.486,60.2957Q181.949,59.4862,182.22,58.5552Q182.49,57.6242,182.624,56.6457Q182.757,55.6672,182.796,54.73075Q182.836,53.79428,182.836,52.98228L182.836,49.01459ZM186.167,54.36631L186.167,55.6928L192.025,55.6928L192.025,54.36631L186.167,54.36631ZM186.167,52.27419L186.167,53.57816L192.025,53.57816L192.025,52.27419L186.167,52.27419ZM185.135,51.44228L193.092,51.44228L193.092,56.524699999999996L185.135,56.524699999999996L185.135,51.44228ZM188.573,55.8518L189.59,55.8518L189.59,59.9584Q189.59,60.3719,189.482,60.6016Q189.373,60.8315,189.062,60.9507Q188.747,61.0666,188.212,61.083Q187.676,61.0994,186.865,61.0994Q186.835,60.8984,186.738,60.6377Q186.641,60.3771,186.541,60.17Q187.161,60.184,187.65,60.1881Q188.138,60.1925,188.295,60.184Q188.466,60.175399999999996,188.519,60.1249Q188.573,60.0744,188.573,59.9453L188.573,55.8518ZM188.421,50.13809L189.638,50.32425Q189.39,50.79084,189.13,51.249340000000004Q188.87,51.70784,188.641,52.0445L187.685,51.84281Q187.892,51.47028,188.097,50.99209Q188.303,50.51369,188.421,50.13809ZM190.78,57.6913L191.609,57.2472Q192.036,57.6758,192.517,58.1896Q192.998,58.7032,193.437,59.1961Q193.875,59.6887,194.158,60.0497L193.271,60.5908Q193.004,60.2161,192.579,59.7137Q192.154,59.2112,191.679,58.6781Q191.203,58.144800000000004,190.78,57.6913ZM186.19,57.2208L187.186,57.552Q186.83,58.0584,186.398,58.6026Q185.967,59.146699999999996,185.53,59.6432Q185.093,60.1398,184.703,60.5178Q184.601,60.4353,184.438,60.3262Q184.275,60.2172,184.107,60.1107Q183.939,60.004400000000004,183.806,59.9383Q184.431,59.3971,185.079,58.6606Q185.727,57.9238,186.19,57.2208ZM201.409,50.91925L202.496,50.91925L202.496,61.0953L201.409,61.0953L201.409,50.91925ZM195.711,50.29406L208.319,50.29406L208.319,51.31716L195.711,51.31716L195.711,50.29406ZM197.077,53.22706L206.274,53.22706L206.274,54.25016L198.127,54.25016L198.127,59.4938L197.077,59.4938L197.077,53.22706ZM205.988,53.22706L207.066,53.22706L207.066,58.1653Q207.066,58.6177,206.942,58.8726Q206.818,59.1272,206.465,59.2626Q206.103,59.3842,205.5,59.4146Q204.897,59.4448,203.993,59.4448Q203.963,59.2018,203.849,58.9139Q203.736,58.626,203.628,58.4079Q204.105,58.4219,204.523,58.4318Q204.942,58.4414,205.245,58.4373Q205.548,58.432900000000004,205.672,58.432900000000004Q205.857,58.415800000000004,205.922,58.3583Q205.988,58.3007,205.988,58.1577L205.988,53.22706ZM200.783,48.44694L201.805,48.12975Q202.105,48.61669,202.43,49.21147Q202.756,49.80603,202.906,50.222970000000004L201.826,50.59528Q201.734,50.30981,201.563,49.93925Q201.392,49.568690000000004,201.188,49.17428Q200.985,48.77987,200.783,48.44694ZM212.512,53.13781L212.512,58.912800000000004L211.489,58.912800000000004L211.489,54.12022L209.671,54.12022L209.671,53.13781L212.512,53.13781ZM209.951,49.71634L210.597,49.07606Q211.04,49.32806,211.516,49.64437Q211.992,49.96047,212.412,50.27941Q212.832,50.59834,213.098,50.87222L212.414,51.60131Q212.164,51.32744,211.75,50.99187Q211.335,50.65609,210.864,50.31769Q210.394,49.97928,209.951,49.71634ZM212.131,58.4379Q212.47,58.4379,212.789,58.6833Q213.108,58.9288,213.692,59.291Q214.389,59.7226,215.289,59.8491Q216.188,59.975300000000004,217.346,59.975300000000004Q217.944,59.975300000000004,218.611,59.955799999999996Q219.279,59.9363,219.964,59.9003Q220.65,59.8639,221.284,59.8154Q221.919,59.7668,222.457,59.7084Q222.396,59.846199999999996,222.325,60.0433Q222.255,60.2404,222.211,60.441900000000004Q222.167,60.643299999999996,222.153,60.7982Q221.793,60.8177,221.21,60.8483Q220.628,60.8792,219.935,60.8958Q219.243,60.9126,218.561,60.9266Q217.878,60.9406,217.318,60.9406Q216.039,60.9406,215.122,60.7781Q214.204,60.6156,213.473,60.172399999999996Q213.065,59.9033,212.71,59.6312Q212.356,59.3588,212.114,59.3588Q211.879,59.3588,211.58,59.605199999999996Q211.282,59.8512,210.941,60.2448Q210.6,60.6383,210.243,61.107299999999995L209.547,60.2017Q210.246,59.442,210.918,58.9399Q211.589,58.4379,212.131,58.4379ZM217.695,49.28125L221.461,49.28125L221.461,50.18972L218.667,50.18972L218.667,59.328900000000004L217.695,59.328900000000004L217.695,49.28125ZM220.918,49.28125L221.9,49.28125L221.9,56.519Q221.9,56.902100000000004,221.804,57.121Q221.708,57.3398,221.438,57.4612Q221.19,57.5773,220.754,57.6051Q220.317,57.6327,219.681,57.6327Q219.651,57.4478,219.557,57.1816Q219.462,56.9152,219.357,56.724199999999996Q219.825,56.7382,220.2,56.7382Q220.575,56.7382,220.699,56.7297Q220.918,56.7297,220.918,56.5026L220.918,49.28125ZM216.833,48.20872L217.605,48.98309Q216.901,49.38603,216.021,49.74216Q215.142,50.09828,214.324,50.36209Q214.288,50.204589999999996,214.186,49.98541Q214.083,49.766,213.984,49.60325Q214.497,49.41272,215.03,49.180189999999996Q215.563,48.94766,216.033,48.69303Q216.502,48.43819,216.833,48.20872ZM213.801,57.806200000000004L213.722,56.8977L214.21,56.483599999999996L217.357,55.5252Q217.352,55.7403,217.373,56.012Q217.394,56.2834,217.424,56.4517Q216.321,56.8209,215.647,57.053Q214.973,57.2849,214.606,57.4253Q214.239,57.565799999999996,214.07,57.6482Q213.902,57.7307,213.801,57.806200000000004ZM213.801,57.806200000000004Q213.757,57.69,213.671,57.540800000000004Q213.586,57.3916,213.487,57.2479Q213.389,57.1042,213.304,57.0099Q213.498,56.8964,213.741,56.6124Q213.984,56.3283,213.984,55.867599999999996L213.984,49.60325L214.969,49.60325L214.969,56.656Q214.969,56.656,214.852,56.7378Q214.736,56.8194,214.562,56.952600000000004Q214.389,57.0858,214.212,57.239599999999996Q214.034,57.3934,213.918,57.5402Q213.801,57.6869,213.801,57.806200000000004ZM224.228,49.17275L225.006,48.576Q225.388,48.82187,225.818,49.13775Q226.249,49.45362,226.634,49.7625Q227.019,50.07116,227.266,50.33409L226.459,51.00566Q226.228,50.74272,225.851,50.41722Q225.474,50.091499999999996,225.049,49.76053Q224.624,49.429339999999996,224.228,49.17275ZM223.528,52.98622L224.214,52.30678Q224.624,52.50212,225.081,52.76484Q225.538,53.02734,225.947,53.30122Q226.356,53.574870000000004,226.625,53.80128L225.914,54.56078Q225.662,54.320589999999996,225.254,54.04125Q224.846,53.76191,224.394,53.48147Q223.943,53.200810000000004,223.528,52.98622ZM223.86,60.1348Q224.19,59.5887,224.593,58.8393Q224.997,58.0899,225.403,57.2553Q225.809,56.4208,226.156,55.6237L227.005,56.2937Q226.697,57.0327,226.327,57.8298Q225.957,58.6269,225.57,59.3945Q225.183,60.1621,224.827,60.821799999999996L223.86,60.1348ZM227.809,48.98178L234.548,48.98178L234.548,49.93159L227.809,49.93159L227.809,48.98178ZM234.177,48.98725L234.364,48.98725L234.544,48.93738L235.187,49.31056Q234.646,50.37084,233.8,51.240809999999996Q232.954,52.11078,231.913,52.786500000000004Q230.873,53.462,229.721,53.95834Q228.569,54.45469,227.408,54.77581Q227.323,54.582660000000004,227.165,54.33022Q227.008,54.077780000000004,226.865,53.920500000000004Q227.97,53.66303,229.071,53.2205Q230.172,52.777969999999996,231.164,52.171369999999996Q232.156,51.56478,232.939,50.80659Q233.722,50.04819,234.177,49.15634L234.177,48.98725ZM229.412,49.41906Q230.037,50.55044,231.078,51.455619999999996Q232.119,52.36059,233.479,52.98359Q234.839,53.60637,236.399,53.920500000000004Q236.292,54.02244,236.169,54.18103Q236.046,54.33962,235.939,54.50369Q235.831,54.66775,235.751,54.80556Q234.178,54.42516,232.803,53.721000000000004Q231.429,53.01662,230.359,52.01256Q229.289,51.0085,228.593,49.73144L229.412,49.41906ZM228.024,55.4688L235.205,55.4688L235.205,56.4132L228.024,56.4132L228.024,55.4688ZM227.091,57.864599999999996L236.269,57.864599999999996L236.269,58.811099999999996L227.091,58.811099999999996L227.091,57.864599999999996ZM231.14,54.23331L232.13,54.23331L232.13,61.0929L231.14,61.0929L231.14,54.23331ZM247.236,50.68781L248.223,51.07916Q247.318,52.62659,246.154,54.03119Q244.99,55.4356,243.677,56.6232Q242.364,57.8105,241,58.7142Q240.909,58.6066,240.761,58.455Q240.613,58.303399999999996,240.453,58.1531Q240.293,58.0028,240.163,57.914699999999996Q241.561,57.0803,242.866,55.9507Q244.171,54.82088,245.293,53.47688Q246.415,52.13266,247.236,50.68781ZM240.625,51.8135L241.376,51.19641Q242.318,51.95437,243.345,52.837469999999996Q244.371,53.72034,245.369,54.63516Q246.367,55.55,247.219,56.3987Q248.071,57.2475,248.656,57.9457L247.809,58.7118Q247.263,58.0133,246.431,57.1495Q245.6,56.2856,244.615,55.3487Q243.631,54.411590000000004,242.607,53.50247Q241.583,52.59334,240.625,51.8135ZM249.974,48.99753L249.974,50.01275L239.392,50.01275L239.392,59.6922L250.331,59.6922L250.331,60.6989L238.36,60.6989L238.36,48.99753L249.974,48.99753ZM256.639,51.03628L257.603,51.14981Q257.172,53.77503,256.368,55.8667Q255.564,57.9582,254.221,59.3582Q254.144,59.2781,253.993,59.169Q253.843,59.059799999999996,253.68,58.9465Q253.517,58.8332,253.401,58.7724Q254.295,57.9232,254.927,56.7384Q255.559,55.5535,255.978,54.10841Q256.397,52.66334,256.639,51.03628ZM260.622,51.06734L261.574,51.18087Q261.164,53.85356,260.348,55.960300000000004Q259.533,58.067099999999996,258.151,59.4641Q258.065,59.3838,257.91200000000003,59.272Q257.759,59.1602,257.603,59.0513Q257.448,58.942099999999996,257.326,58.881299999999996Q258.257,58.0321,258.902,56.8461Q259.548,55.66,259.96799999999996,54.19831Q260.38800000000003,52.73641,260.622,51.06734ZM253.718,52.50212L254.363,51.91369Q254.884,52.52881,255.42,53.22247Q255.957,53.91591,256.459,54.61525Q256.962,55.3146,257.381,55.9549Q257.801,56.5952,258.08299999999997,57.1092L257.397,57.7965Q257.12,57.2687,256.702,56.6089Q256.283,55.9492,255.783,55.2334Q255.284,54.51769,254.754,53.81594Q254.225,53.11419,253.718,52.50212ZM257.764,52.50519L258.445,51.96356Q258.996,52.61828,259.551,53.35853Q260.105,54.09856,260.60699999999997,54.85544Q261.108,55.6123,261.519,56.317099999999996Q261.93,57.0219,262.19,57.6029L261.45500000000004,58.2187Q261.197,57.6377,260.791,56.9178Q260.38599999999997,56.1977,259.887,55.4299Q259.38800000000003,54.66206,258.846,53.90956Q258.304,53.15684,257.764,52.50519ZM252.236,49.07934L263.409,49.07934L263.409,50.083619999999996L253.29,50.083619999999996L253.29,61.088499999999996L252.236,61.088499999999996L252.236,49.07934ZM262.759,49.07934L263.812,49.07934L263.812,59.7187Q263.812,60.2231,263.664,60.4928Q263.517,60.7628,263.16999999999996,60.8984Q262.831,61.0222,262.23699999999997,61.0553Q261.64300000000003,61.088499999999996,260.68399999999997,61.08Q260.659,60.9397,260.58799999999997,60.7494Q260.51800000000003,60.5593,260.44100000000003,60.3677Q260.36400000000003,60.1761,260.278,60.0383Q260.746,60.0577,261.182,60.0632Q261.619,60.0687,261.943,60.0643Q262.267,60.0599,262.395,60.0599Q262.594,60.0459,262.676,59.9748Q262.759,59.903800000000004,262.759,59.716300000000004L262.759,49.07934ZM272.745,49.74762L276.697,49.74762L276.697,50.66681L272.745,50.66681L272.745,49.74762ZM271.472,55.9844L277.369,55.9844L277.369,61.083L276.35699999999997,61.083L276.35699999999997,56.8927L272.452,56.8927L272.452,61.1336L271.472,61.1336L271.472,55.9844ZM271.89,59.5894L276.897,59.5894L276.897,60.5141L271.89,60.5141L271.89,59.5894ZM273.152,48.22097L274.161,48.49375Q273.786,49.42562,273.27,50.29691Q272.754,51.16797,272.15,51.91325Q271.54499999999996,52.65831,270.904,53.22072Q270.822,53.12425,270.66999999999996,52.99059Q270.51800000000003,52.85694,270.358,52.72459Q270.198,52.59203,270.076,52.51481Q271.04499999999996,51.75269,271.855,50.62Q272.664,49.48709,273.152,48.22097ZM276.409,49.74762L276.597,49.74762L276.788,49.70322L277.44399999999996,50.018Q276.993,51.31628,276.253,52.38509Q275.51300000000003,53.45369,274.573,54.29587Q273.63300000000004,55.1378,272.56,55.7587Q271.486,56.3792,270.374,56.7815Q270.277,56.5884,270.102,56.3333Q269.927,56.078,269.769,55.9293Q270.824,55.6018,271.844,55.0377Q272.863,54.47328,273.759,53.705690000000004Q274.655,52.937870000000004,275.34000000000003,51.98653Q276.024,51.03497,276.409,49.924369999999996L276.409,49.74762ZM272.663,50.47781Q273.102,51.45934,273.924,52.463409999999996Q274.746,53.46725,275.94100000000003,54.29631Q277.13599999999997,55.1252,278.672,55.5939Q278.57,55.6959,278.445,55.8518Q278.31899999999996,56.0076,278.212,56.1717Q278.10400000000004,56.3357,278.024,56.4681Q276.472,55.919,275.26300000000003,55.025800000000004Q274.054,54.13247,273.21299999999997,53.06738Q272.372,52.00206,271.897,50.96672L272.663,50.47781ZM265.728,51.24234L270.645,51.24234L270.645,52.23022L265.728,52.23022L265.728,51.24234ZM267.829,48.23497L268.824,48.23497L268.824,61.0994L267.829,61.0994L267.829,48.23497ZM267.79200000000003,51.86359L268.456,52.08475Q268.28499999999997,52.92475,268.017,53.82928Q267.749,54.73381,267.419,55.599199999999996Q267.089,56.4643,266.712,57.2063Q266.33500000000004,57.9483,265.943,58.4773Q265.86,58.2708,265.695,58.0035Q265.53,57.7362,265.392,57.5546Q265.767,57.081,266.127,56.4204Q266.486,55.7598,266.807,54.99084Q267.129,54.22172,267.38,53.42175Q267.632,52.62156,267.79200000000003,51.86359ZM268.76,52.79481Q268.88599999999997,52.92387,269.149,53.22837Q269.413,53.53266,269.709,53.89469Q270.005,54.25672,270.254,54.56537Q270.504,54.87403,270.605,55.0116L269.977,55.8203Q269.851,55.591499999999996,269.623,55.2374Q269.39599999999996,54.882999999999996,269.13,54.49931Q268.865,54.11541,268.628,53.77941Q268.39,53.44341,268.236,53.26206L268.76,52.79481ZM280.83500000000004,50.49137L285.09299999999996,50.49137L285.09299999999996,59.6458L280.83500000000004,59.6458L280.83500000000004,58.6962L284.121,58.6962L284.121,51.42697L280.83500000000004,51.42697L280.83500000000004,50.49137ZM280.214,50.49137L281.18600000000004,50.49137L281.18600000000004,60.759299999999996L280.214,60.759299999999996L280.214,50.49137ZM280.77099999999996,54.38447L284.631,54.38447L284.631,55.3146L280.77099999999996,55.3146L280.77099999999996,54.38447ZM282.35699999999997,48.20937L283.49,48.41478Q283.281,49.06294,283.03499999999997,49.73866Q282.789,50.41416,282.579,50.88381L281.73199999999997,50.67053Q281.85,50.326660000000004,281.97,49.89462Q282.089,49.46237,282.195,49.01481Q282.301,48.56725,282.35699999999997,48.20937ZM287.08799999999997,50.44522L291.38800000000003,50.44522L291.38800000000003,51.42216L287.08799999999997,51.42216L287.08799999999997,50.44522ZM291.01300000000003,50.44522L292,50.44522Q292,50.44522,292,50.54934Q292,50.65325,292,50.78209Q292,50.91094,291.995,50.98575Q291.913,53.391999999999996,291.83000000000004,55.0556Q291.748,56.7192,291.637,57.7817Q291.526,58.8441,291.382,59.4275Q291.238,60.0109,291.022,60.2708Q290.786,60.579,290.529,60.6943Q290.273,60.8096,289.897,60.8507Q289.54499999999996,60.8866,288.974,60.8737Q288.404,60.861000000000004,287.808,60.8299Q287.794,60.603300000000004,287.703,60.311099999999996Q287.61199999999997,60.0188,287.461,59.8123Q288.15,59.8683,288.722,59.8823Q289.29499999999996,59.8963,289.53999999999996,59.8963Q289.75,59.8963,289.88800000000003,59.8532Q290.025,59.8099,290.139,59.6699Q290.31600000000003,59.4794,290.448,58.9124Q290.58000000000004,58.3454,290.678,57.2952Q290.776,56.2447,290.86,54.61241Q290.945,52.97987,291.01300000000003,50.66966L291.01300000000003,50.44522ZM287.374,48.18312L288.38599999999997,48.41434Q288.132,49.45362,287.775,50.45703Q287.419,51.46022,286.991,52.340469999999996Q286.563,53.2205,286.079,53.8925Q285.991,53.80981,285.828,53.69409Q285.66499999999996,53.57837,285.499,53.46812Q285.334,53.35787,285.207,53.29181Q285.68600000000004,52.66641,286.094,51.84828Q286.503,51.03016,286.826,50.08887Q287.15,49.14738,287.374,48.18312ZM286.728,54.08325L287.547,53.61425Q287.946,54.10731,288.372,54.69159Q288.799,55.2757,289.16700000000003,55.8232Q289.536,56.3707,289.76300000000003,56.7907L288.87,57.3538Q288.66200000000003,56.9198,288.304,56.3556Q287.947,55.7913,287.533,55.192099999999996Q287.118,54.59272,286.728,54.08325ZM295.786,49.33069L296.77099999999996,49.33069L296.77099999999996,61.1336L295.786,61.1336L295.786,49.33069ZM293.663,52.25428L298.482,52.25428L298.482,53.23909L293.663,53.23909L293.663,52.25428ZM295.744,52.62287L296.38800000000003,52.87684Q296.209,53.61031,295.949,54.41509Q295.68899999999996,55.2197,295.369,56.0019Q295.049,56.7839,294.7,57.4651Q294.351,58.146100000000004,293.996,58.6407Q293.91200000000003,58.4233,293.75,58.146699999999996Q293.58799999999997,57.87,293.45799999999997,57.683Q293.90700000000004,57.109,294.351,56.2524Q294.794,55.3958,295.16200000000003,54.43631Q295.531,53.47666,295.744,52.62287ZM297.761,48.36228L298.417,49.20009Q297.84,49.44881,297.107,49.65356Q296.375,49.85809,295.603,50.01363Q294.831,50.16916,294.11199999999997,50.28422Q294.082,50.11031,293.98900000000003,49.877340000000004Q293.89599999999996,49.64437,293.797,49.46762Q294.505,49.33309,295.238,49.16247Q295.971,48.99162,296.632,48.78753Q297.292,48.58322,297.761,48.36228ZM296.723,53.52434Q296.841,53.64794,297.088,53.94697Q297.336,54.245779999999996,297.619,54.60234Q297.902,54.95891,298.137,55.2606Q298.372,55.562200000000004,298.47,55.7053L297.859,56.5437Q297.755,56.3149,297.548,55.9579Q297.34,55.600899999999996,297.093,55.2032Q296.846,54.80534,296.626,54.46672Q296.406,54.12787,296.269,53.94106L296.723,53.52434ZM301.937,48.23497L303.01,48.44694Q302.369,49.41928,301.393,50.35028Q300.417,51.28128,299.028,52.03969Q298.948,51.91828,298.824,51.782Q298.7,51.6455,298.567,51.51731Q298.435,51.38912,298.313,51.31738Q299.621,50.67513,300.541,49.84475Q301.462,49.014160000000004,301.937,48.23497ZM302.785,53.32331L303.862,53.52762Q303.166,54.67825,302.024,55.777Q300.881,56.8756,299.199,57.7202Q299.124,57.6073,299.005,57.468199999999996Q298.886,57.3291,298.759,57.1967Q298.632,57.0642,298.516,56.9872Q299.581,56.4963,300.411,55.8851Q301.241,55.2739,301.841,54.61087Q302.441,53.94784,302.785,53.32331ZM301.485,49.58116L304.886,49.58116L304.886,50.473L300.684,50.473L301.485,49.58116ZM304.579,49.58969L304.781,49.58969L304.963,49.54528L305.63,49.88478Q305.176,50.87747,304.47,51.66037Q303.765,52.44328,302.871,53.037620000000004Q301.978,53.63197,300.969,54.05831Q299.961,54.48466,298.906,54.76378Q298.824,54.57609,298.664,54.33897Q298.504,54.10163,298.357,53.94981Q299.334,53.725809999999996,300.284,53.35066Q301.233,52.97528,302.07,52.45159Q302.907,51.92769,303.556,51.25372Q304.206,50.57975,304.579,49.76403L304.579,49.58969ZM302.174,54.61044L305.665,54.61044L305.665,55.5132L301.328,55.5132L302.174,54.61044ZM305.342,54.61044L305.541,54.61044L305.728,54.56603L306.41,54.88081Q305.953,56.2613,305.165,57.3072Q304.377,58.3528,303.34,59.1016Q302.303,59.8502,301.097,60.3577Q299.892,60.8652,298.599,61.178Q298.522,60.9763,298.362,60.7265Q298.201,60.4769,298.05,60.313900000000004Q299.26,60.0704,300.401,59.6209Q301.542,59.1714,302.516,58.4946Q303.489,57.8175,304.221,56.893299999999996Q304.952,55.9691,305.342,54.78172L305.342,54.61044ZM300.16,51.747659999999996L300.924,51.23425Q301.381,51.50419,301.882,51.86928Q302.384,52.23416,302.672,52.53428L301.854,53.10916Q301.604,52.8145,301.11,52.42578Q300.617,52.03684,300.16,51.747659999999996ZM300.825,57.2855L301.613,56.7557Q302.136,57.0683,302.688,57.5045Q303.241,57.9405,303.544,58.297200000000004L302.711,58.88Q302.431,58.5342,301.889,58.075900000000004Q301.348,57.617599999999996,300.825,57.2855ZM314.105,51.47378L319.725,51.47378L319.725,52.48047L314.105,52.48047L314.105,51.47378ZM319.207,51.47378L320.23,51.47378Q320.23,51.47378,320.23,51.57353Q320.23,51.67328,320.227,51.79797Q320.225,51.92244,320.225,52.00578Q320.157,54.17097,320.084,55.6679Q320.011,57.1646,319.917,58.1205Q319.823,59.0764,319.695,59.6108Q319.568,60.1453,319.383,60.371700000000004Q319.171,60.6495,318.94,60.7619Q318.708,60.8743,318.367,60.9157Q318.043,60.943,317.513,60.94Q316.983,60.9369,316.425,60.8973Q316.406,60.6683,316.323,60.3787Q316.241,60.0892,316.1,59.865700000000004Q316.693,59.9162,317.195,59.9276Q317.697,59.9388,317.921,59.9388Q318.106,59.9473,318.235,59.9042Q318.364,59.8609,318.467,59.737899999999996Q318.613,59.566900000000004,318.723,59.0697Q318.833,58.5722,318.918,57.6406Q319.004,56.7089,319.072,55.2531Q319.14,53.79712,319.207,51.70587L319.207,51.47378ZM316.135,48.47844L317.178,48.47844Q317.169,49.94122,317.13,51.40094Q317.091,52.86066,316.945,54.25212Q316.799,55.6436,316.489,56.902699999999996Q316.18,58.1618,315.632,59.2278Q315.084,60.2936,314.232,61.1025Q314.147,60.9732,314.003,60.8302Q313.859,60.6871,313.707,60.555Q313.556,60.4228,313.418,60.3489Q314.231,59.6093,314.74,58.612Q315.25,57.6147,315.536,56.425399999999996Q315.823,55.2358,315.948,53.92291Q316.073,52.60975,316.104,51.22834Q316.135,49.846940000000004,316.135,48.47844ZM308.252,49.38734L313.665,49.38734L313.665,50.32862L308.252,50.32862L308.252,49.38734ZM307.753,52.72153L313.92,52.72153L313.92,53.68447L307.753,53.68447L307.753,52.72153ZM311.874,55.1282L312.738,54.89372Q313.007,55.5137,313.284,56.2358Q313.562,56.9576,313.802,57.632Q314.042,58.306200000000004,314.166,58.7907L313.244,59.1062Q313.126,58.6044,312.901,57.9206Q312.676,57.2365,312.407,56.5022Q312.137,55.7676,311.874,55.1282ZM308.254,59.3952L308.172,58.5068L308.702,58.1299L313.29,57.1637Q313.31,57.3678,313.354,57.637100000000004Q313.398,57.9061,313.439,58.0689Q312.145,58.3592,311.272,58.56Q310.4,58.7608,309.847,58.893100000000004Q309.295,59.0252,308.983,59.1171Q308.672,59.209,308.511,59.2703Q308.351,59.3313,308.254,59.3952ZM308.248,59.3866Q308.223,59.2759,308.167,59.0963Q308.11,58.9167,308.041,58.7291Q307.973,58.541399999999996,307.912,58.4143Q308.085,58.3644,308.231,58.1021Q308.378,57.839600000000004,308.554,57.436Q308.638,57.2455,308.796,56.7999Q308.953,56.3543,309.143,55.7532Q309.334,55.1518,309.514,54.459720000000004Q309.694,53.76759,309.817,53.08947L310.846,53.41344Q310.633,54.34903,310.33,55.317Q310.028,56.2847,309.684,57.1742Q309.34,58.0636,308.981,58.783699999999996L308.981,58.8087Q308.981,58.8087,308.871,58.8667Q308.76,58.9246,308.615,59.0158Q308.47,59.1068,308.359,59.2051Q308.248,59.3033,308.248,59.3866ZM326.639,51.03628L327.603,51.14981Q327.172,53.77503,326.368,55.8667Q325.564,57.9582,324.221,59.3582Q324.144,59.2781,323.993,59.169Q323.843,59.059799999999996,323.68,58.9465Q323.517,58.8332,323.401,58.7724Q324.295,57.9232,324.927,56.7384Q325.559,55.5535,325.978,54.10841Q326.397,52.66334,326.639,51.03628ZM330.622,51.06734L331.574,51.18087Q331.164,53.85356,330.348,55.960300000000004Q329.533,58.067099999999996,328.151,59.4641Q328.065,59.3838,327.912,59.272Q327.759,59.1602,327.603,59.0513Q327.448,58.942099999999996,327.326,58.881299999999996Q328.257,58.0321,328.902,56.8461Q329.548,55.66,329.968,54.19831Q330.388,52.73641,330.622,51.06734ZM323.718,52.50212L324.363,51.91369Q324.884,52.52881,325.42,53.22247Q325.957,53.91591,326.459,54.61525Q326.962,55.3146,327.381,55.9549Q327.801,56.5952,328.083,57.1092L327.397,57.7965Q327.12,57.2687,326.702,56.6089Q326.283,55.9492,325.783,55.2334Q325.284,54.51769,324.754,53.81594Q324.225,53.11419,323.718,52.50212ZM327.764,52.50519L328.444,51.96356Q328.996,52.61828,329.551,53.35853Q330.105,54.09856,330.607,54.85544Q331.108,55.6123,331.519,56.317099999999996Q331.93,57.0219,332.19,57.6029L331.455,58.2187Q331.197,57.6377,330.791,56.9178Q330.386,56.1977,329.887,55.4299Q329.388,54.66206,328.846,53.90956Q328.304,53.15684,327.764,52.50519ZM322.236,49.07934L333.409,49.07934L333.409,50.083619999999996L323.29,50.083619999999996L323.29,61.088499999999996L322.236,61.088499999999996L322.236,49.07934ZM332.759,49.07934L333.812,49.07934L333.812,59.7187Q333.812,60.2231,333.664,60.4928Q333.517,60.7628,333.17,60.8984Q332.831,61.0222,332.237,61.0553Q331.643,61.088499999999996,330.684,61.08Q330.659,60.9397,330.588,60.7494Q330.518,60.5593,330.441,60.3677Q330.364,60.1761,330.278,60.0383Q330.746,60.0577,331.182,60.0632Q331.619,60.0687,331.943,60.0643Q332.267,60.0599,332.395,60.0599Q332.594,60.0459,332.676,59.9748Q332.759,59.903800000000004,332.759,59.716300000000004L332.759,49.07934ZM335.93,57.4502Q335.905,57.339600000000004,335.844,57.1558Q335.784,56.9718,335.715,56.7745Q335.646,56.577,335.585,56.4444Q335.816,56.4002,336.072,56.1561Q336.329,55.9118,336.656,55.530699999999996Q336.83,55.3457,337.164,54.92106Q337.499,54.49647,337.921,53.90672Q338.343,53.31675,338.772,52.627250000000004Q339.201,51.93775,339.562,51.24016L340.493,51.805189999999996Q339.657,53.204750000000004,338.664,54.54087Q337.672,55.8768,336.666,56.874700000000004L336.666,56.9051Q336.666,56.9051,336.558,56.960499999999996Q336.45,57.0156,336.298,57.0987Q336.146,57.1816,336.038,57.2744Q335.93,57.3669,335.93,57.4502ZM335.93,57.4502L335.865,56.5527L336.375,56.1813L340.132,55.354Q340.116,55.5635,340.128,55.8324Q340.141,56.1012,340.161,56.2694Q338.867,56.589,338.076,56.7824Q337.285,56.9756,336.861,57.1Q336.438,57.2245,336.239,57.3013Q336.041,57.3778,335.93,57.4502ZM335.835,54.08303Q335.81,53.97234,335.747,53.78466Q335.683,53.59697,335.614,53.39681Q335.545,53.19644,335.479,53.05862Q335.671,53.01422,335.868,52.78562Q336.066,52.55703,336.29,52.20944Q336.416,52.02984,336.65,51.63587Q336.884,51.24191,337.161,50.69809Q337.439,50.15406,337.721,49.53325Q338.003,48.91222,338.219,48.28988L339.226,48.76675Q338.859,49.61681,338.411,50.46906Q337.963,51.32131,337.473,52.09372Q336.982,52.86591,336.481,53.49656L336.481,53.52697Q336.481,53.52697,336.384,53.58231Q336.287,53.63766,336.158,53.72603Q336.029,53.81441,335.932,53.90716Q335.835,53.99969,335.835,54.08303ZM335.835,54.08303L335.813,53.281530000000004L336.312,52.9545L338.847,52.68631Q338.814,52.89916,338.789,53.15575Q338.765,53.41234,338.768,53.57225Q337.9,53.67944,337.36,53.76388Q336.82,53.84809,336.517,53.90147Q336.215,53.95462,336.068,53.99509Q335.922,54.035560000000004,335.835,54.08303ZM335.581,59.2978Q336.174,59.1499,336.941,58.941Q337.708,58.731899999999996,338.573,58.4841Q339.438,58.2362,340.314,57.9912L340.479,58.9019Q339.255,59.2832,338.024,59.6561Q336.794,60.0289,335.821,60.3487L335.581,59.2978ZM341.523,55.859700000000004L347.493,55.859700000000004L347.493,60.968L346.481,60.968L346.481,56.7953L342.506,56.7953L342.506,60.9898L341.523,60.9898L341.523,55.859700000000004ZM342.111,59.3525L347.152,59.3525L347.152,60.2966L342.111,60.2966L342.111,59.3525ZM343.076,49.58028L347.235,49.58028L347.235,50.53775L342.599,50.53775L343.076,49.58028ZM346.897,49.58028L347.118,49.58028L347.308,49.54134L347.924,49.93094Q347.271,51.45716,346.142,52.63731Q345.013,53.81725,343.605,54.65112Q342.198,55.485,340.695,55.9781Q340.656,55.8348,340.579,55.6517Q340.503,55.4684,340.414,55.290800000000004Q340.326,55.1131,340.242,55.0142Q341.677,54.58725,342.997,53.85531Q344.316,53.12316,345.34,52.10006Q346.363,51.07697,346.897,49.77431L346.897,49.58028ZM342.986,48.05603L343.946,48.33187Q343.591,49.21869,343.108,50.07597Q342.626,50.93303,342.063,51.67022Q341.5,52.40719,340.891,52.97266Q340.83,52.86503,340.708,52.70972Q340.586,52.55419,340.456,52.396029999999996Q340.326,52.23766,340.221,52.14425Q341.078,51.40072,341.807,50.31987Q342.537,49.23881,342.986,48.05603ZM342.675,50.58084Q343.184,51.61969,344.053,52.475Q344.922,53.33031,346.061,53.95725Q347.2,54.58419,348.496,54.94184Q348.416,55.0657,348.33,55.2365Q348.244,55.4071,348.184,55.580600000000004Q348.125,55.7538,348.086,55.8971Q346.724,55.453900000000004,345.526,54.748689999999996Q344.328,54.04322,343.399,53.106970000000004Q342.47,52.17072,341.894,51.04372L342.675,50.58084ZM349.47,55.6486Q350.329,55.438,351.509,55.1094Q352.688,54.78084,353.903,54.43259L354.044,55.3894Q352.935,55.7291,351.811,56.0605Q350.687,56.3917,349.778,56.6638L349.47,55.6486ZM349.644,51.06712L354.331,51.06712L354.331,52.055L349.644,52.055L349.644,51.06712ZM351.559,48.2435L352.582,48.2435L352.582,59.786500000000004Q352.582,60.2249,352.468,60.461600000000004Q352.354,60.6982,352.076,60.819900000000004Q351.803,60.9413,351.341,60.977199999999996Q350.88,61.013000000000005,350.158,61.013000000000005Q350.133,60.8089,350.04,60.5287Q349.948,60.2487,349.842,60.0416Q350.335,60.0556,350.744,60.0556Q351.153,60.0556,351.285,60.0556Q351.439,60.047,351.499,59.9884Q351.559,59.9296,351.559,59.7896L351.559,48.2435ZM355.892,48.74881L359.557,48.74881L359.557,49.72816L355.892,49.72816L355.892,48.74881ZM354.266,54.42581L360.72,54.42581L360.72,55.4106L354.266,55.4106L354.266,54.42581ZM360.356,54.42581L360.563,54.42581L360.759,54.38141L361.443,54.68284Q360.972,56.0636,360.184,57.1293Q359.396,58.194900000000004,358.374,58.980199999999996Q357.353,59.765299999999996,356.16,60.2957Q354.968,60.8262,353.683,61.1452Q353.641,60.9933,353.55,60.8168Q353.459,60.640299999999996,353.355,60.4692Q353.252,60.2984,353.147,60.1853Q354.349,59.9326,355.474,59.4684Q356.599,59.0042,357.559,58.3102Q358.518,57.6161,359.239,56.6868Q359.959,55.7573,360.356,54.59163L360.356,54.42581ZM355.56,55.1459Q356.137,56.4217,357.115,57.4336Q358.093,58.4453,359.437,59.1397Q360.782,59.834,362.424,60.1682Q362.308,60.2813,362.178,60.455Q362.049,60.6287,361.938,60.8107Q361.828,60.9927,361.748,61.135999999999996Q359.216,60.5364,357.424,59.0931Q355.634,57.649699999999996,354.653,55.4717L355.56,55.1459ZM355.625,48.74881L356.619,48.74881L356.619,50.316810000000004Q356.619,50.95097,356.451,51.633250000000004Q356.284,52.31531,355.827,52.94925Q355.37,53.58319,354.499,54.073840000000004Q354.438,53.97191,354.31,53.82316Q354.182,53.674189999999996,354.044,53.52653Q353.906,53.37887,353.804,53.307339999999996Q354.595,52.871809999999996,354.985,52.36497Q355.376,51.857910000000004,355.501,51.32197Q355.625,50.78581,355.625,50.28969L355.625,48.74881ZM359.068,48.74881L360.073,48.74881L360.073,51.99025Q360.073,52.28972,360.119,52.40828Q360.165,52.52684,360.336,52.52684Q360.432,52.52684,360.657,52.52684Q360.881,52.52684,361.104,52.52684Q361.327,52.52684,361.423,52.52684Q361.579,52.52684,361.781,52.50737Q361.984,52.48791,362.121,52.45772Q362.14,52.65634,362.16,52.92037Q362.179,53.18441,362.209,53.36356Q362.079,53.40491,361.869,53.42175Q361.66,53.43838,361.442,53.43838Q361.336,53.43838,361.086,53.43838Q360.837,53.43838,360.6,53.43838Q360.363,53.43838,360.263,53.43838Q359.776,53.43838,359.514,53.29444Q359.251,53.15028,359.16,52.82719Q359.068,52.50387,359.068,51.97078L359.068,48.74881ZM364.503,49.24209L365.16,48.54166Q365.586,48.86978,366.062,49.27622Q366.539,49.68244,366.957,50.08034Q367.376,50.47825,367.642,50.78625L366.93,51.58316Q366.681,51.261160000000004,366.27,50.85253Q365.859,50.443690000000004,365.392,50.01516Q364.926,49.58663,364.503,49.24209ZM365.654,60.8317L365.438,59.8243L365.695,59.3643L368.136,57.3848Q368.217,57.5944,368.334,57.8519Q368.451,58.1093,368.548,58.2583Q367.676,58.9865,367.136,59.4426Q366.597,59.8985,366.303,60.164500000000004Q366.008,60.4307,365.872,60.5755Q365.735,60.7203,365.654,60.8317ZM363.566,52.64169L366.312,52.64169L366.312,53.65669L363.566,53.65669L363.566,52.64169ZM365.654,60.840199999999996Q365.604,60.7241,365.499,60.579Q365.394,60.434200000000004,365.281,60.2975Q365.167,60.1608,365.082,60.0807Q365.207,59.9779,365.364,59.7896Q365.521,59.6012,365.638,59.3333Q365.756,59.0653,365.756,58.7245L365.756,52.64169L366.763,52.64169L366.763,59.494Q366.763,59.494,366.65,59.5942Q366.538,59.6942,366.377,59.851Q366.216,60.0079,366.047,60.1912Q365.879,60.3745,365.767,60.5449Q365.654,60.7155,365.654,60.840199999999996ZM369.671,52.62572L376.318,52.62572L376.318,53.62672L369.671,53.62672L369.671,52.62572ZM374.634,48.26669L375.561,49.07716Q374.749,49.37334,373.731,49.62972Q372.714,49.88609,371.628,50.08669Q370.542,50.28728,369.517,50.43341Q369.487,50.24878,369.383,49.99241Q369.28,49.73603,369.175,49.56781Q370.158,49.40769,371.178,49.20425Q372.198,49.00081,373.107,48.75975Q374.016,48.51869,374.634,48.26669ZM370.451,55.8674L370.95,55.0982Q371.607,55.3618,372.343,55.6957Q373.08,56.0293,373.793,56.3952Q374.506,56.760999999999996,375.125,57.112899999999996Q375.744,57.4647,376.176,57.778800000000004L375.649,58.6748Q375.223,58.3638,374.61,57.9925Q373.998,57.6211,373.286,57.24Q372.574,56.859,371.842,56.507400000000004Q371.11,56.1559,370.451,55.8674ZM369.175,49.56781L370.206,49.56781L370.206,53.52719Q370.206,54.35734,370.145,55.336Q370.083,56.3147,369.9,57.3326Q369.717,58.3502,369.372,59.3193Q369.026,60.2881,368.453,61.0848Q368.37,60.9796,368.209,60.8595Q368.048,60.739599999999996,367.884,60.625Q367.72,60.5106,367.593,60.4552Q368.13,59.7032,368.452,58.8225Q368.774,57.9418,368.928,57.018Q369.082,56.0942,369.128,55.2024Q369.175,54.31053,369.175,53.52719L369.175,49.56781ZM372.726,53.205619999999996L373.733,53.205619999999996L373.733,61.0837L372.726,61.0837L372.726,53.205619999999996ZM378.457,49.81741L389.605,49.81741L389.605,50.9035L378.457,50.9035L378.457,49.81741ZM377.728,58.994L390.308,58.994L390.308,60.044200000000004L377.728,60.044200000000004L377.728,58.994ZM383.383,50.36691L384.551,50.36691L384.551,59.4302L383.383,59.4302L383.383,50.36691ZM397.426,51.14544L398.51,51.14544L398.51,61.1032L397.426,61.1032L397.426,51.14544ZM394.099,53.88484L394.099,55.391400000000004L401.985,55.391400000000004L401.985,53.88484L394.099,53.88484ZM394.099,51.55275L394.099,53.04222L401.985,53.04222L401.985,51.55275L394.099,51.55275ZM393.076,50.65762L403.061,50.65762L403.061,56.2834L393.076,56.2834L393.076,50.65762ZM391.753,57.6154L404.284,57.6154L404.284,58.5947L391.753,58.5947L391.753,57.6154ZM394.297,48.71622L395.19,48.2995Q395.616,48.76762,396.05,49.35169Q396.485,49.93575,396.695,50.37522L395.758,50.85034Q395.556,50.42181,395.137,49.81128Q394.718,49.20075,394.297,48.71622ZM400.927,48.30125L402.065,48.67181Q401.646,49.34316,401.162,50.0355Q400.679,50.72762,400.272,51.20975L399.374,50.86391Q399.638,50.52244,399.93,50.07137Q400.222,49.62031,400.488,49.15263Q400.753,48.68472,400.927,48.30125Z" fill="#6B7280" fill-opacity="1" style="mix-blend-mode:passthrough"/></g></g></g></g><g><rect x="951" y="21" width="228.9375" height="40" rx="0" fill="#000000" fill-opacity="0" style="mix-blend-mode:passthrough"/><g><rect x="951" y="31" width="108.921875" height="20" rx="0" fill="#000000" fill-opacity="0" style="mix-blend-mode:passthrough"/><g><path d="M958.34863,44.9609L958.34863,46L951.833984,46L951.833984,45.0908L955.09473,41.4609Q955.69629,40.79102,956.02783,40.32275Q956.35938,39.85449,956.49268,39.48193Q956.62598,39.10938,956.62598,38.71973Q956.62598,38.22754,956.42432,37.82764Q956.22266,37.42773,955.83301,37.18848Q955.44336,36.94922,954.88965,36.94922Q954.22656,36.94922,953.78564,37.20557Q953.34473,37.46191,953.12598,37.91992Q952.90723,38.37793,952.90723,38.97266L951.642578,38.97266Q951.642578,38.13184,952.01172,37.43457Q952.38086,36.7373,953.10547,36.32373Q953.83008,35.91016,954.88965,35.91016Q955.83301,35.91016,956.50293,36.2417Q957.17285,36.57324,957.53174,37.17139Q957.89062,37.76953,957.89062,38.56934Q957.89062,39.00684,957.74365,39.454589999999996Q957.59668,39.90234,957.34033,40.34668Q957.08398,40.79102,956.74561,41.2217Q956.40723,41.6523,956.02441,42.0693L953.3584,44.9609L958.34863,44.9609ZM965.9434,40.23047L965.9434,41.748Q965.9434,42.9717,965.7246,43.8125Q965.5059,44.6533,965.0957,45.166Q964.6855,45.6787,964.1079,45.9077Q963.5303,46.1367,962.8057,46.1367Q962.2314,46.1367,961.7461,45.9932Q961.2607,45.8496,960.87451,45.5317Q960.48828,45.2139,960.21484,44.7012Q959.94141,44.1885,959.79785,43.457Q959.6543,42.7256,959.6543,41.748L959.6543,40.23047Q959.6543,39.00684,959.87646,38.17969Q960.09863,37.35254,960.50879,36.8501Q960.91895,36.34766,961.4966,36.12891Q962.0742,35.91016,962.792,35.91016Q963.373,35.91016,963.8618,36.050290000000004Q964.3506,36.19043,964.7334,36.49463Q965.1162,36.79883,965.3862,37.30127Q965.6562,37.80371,965.7998,38.52832Q965.9434,39.25293,965.9434,40.23047ZM964.6719,41.9531L964.6719,40.01855Q964.6719,39.34863,964.5933,38.83936Q964.5146,38.33008,964.3643,37.96777Q964.2139,37.60547,963.9849,37.37988Q963.7559,37.1543,963.4585,37.048339999999996Q963.1611,36.94238,962.792,36.94238Q962.3408,36.94238,961.9922,37.10986Q961.6436,37.27734,961.4077,37.63965Q961.1719,38.00195,961.0488,38.58984Q960.92578,39.17773,960.92578,40.01855L960.92578,41.9531Q960.92578,42.623,961.0044,43.1357Q961.083,43.6484,961.2402,44.021Q961.3975,44.3936,961.623,44.6328Q961.8486,44.8721,962.146,44.984899999999996Q962.4434,45.0977,962.8057,45.0977Q963.2705,45.0977,963.6191,44.9199Q963.9678,44.7422,964.2036,44.3628Q964.4395,43.9834,964.5557,43.3853Q964.6719,42.7871,964.6719,41.9531ZM974.085,44.9609L974.085,46L967.5703,46L967.5703,45.0908L970.8311,41.4609Q971.4326,40.79102,971.7642,40.32275Q972.0957,39.85449,972.229,39.48193Q972.3623,39.10938,972.3623,38.71973Q972.3623,38.22754,972.1606,37.82764Q971.959,37.42773,971.5693,37.18848Q971.1797,36.94922,970.626,36.94922Q969.9629,36.94922,969.522,37.20557Q969.0811,37.46191,968.8623,37.91992Q968.6436,38.37793,968.6436,38.97266L967.3789,38.97266Q967.3789,38.13184,967.748,37.43457Q968.1172,36.7373,968.8418,36.32373Q969.5664,35.91016,970.626,35.91016Q971.5693,35.91016,972.2393,36.2417Q972.9092,36.57324,973.2681,37.17139Q973.627,37.76953,973.627,38.56934Q973.627,39.00684,973.48,39.454589999999996Q973.333,39.90234,973.0767,40.34668Q972.8203,40.79102,972.4819,41.2217Q972.1436,41.6523,971.7607,42.0693L969.0947,44.9609L974.085,44.9609ZM977.2773,40.40137L978.1797,40.40137Q978.8428,40.40137,979.2769,40.1792Q979.7109,39.95703,979.9263,39.5708Q980.1416,39.18457,980.1416,38.69922Q980.1416,38.125,979.9502,37.73535Q979.7588,37.3457,979.376,37.14746Q978.9932,36.94922,978.4053,36.94922Q977.8721,36.94922,977.4653,37.15771Q977.0586,37.36621,976.8296,37.74902Q976.6006,38.13184,976.6006,38.65137L975.3359,38.65137Q975.3359,37.89258,975.7188,37.27051Q976.1016,36.64844,976.7954,36.2793Q977.4893,35.91016,978.4053,35.91016Q979.3076,35.91016,979.9844,36.228030000000004Q980.6611,36.5459,981.0371,37.17139Q981.4131,37.79688,981.4131,38.72656Q981.4131,39.10254,981.2388,39.52979Q981.0645,39.95703,980.6987,40.32617Q980.333,40.69531,979.752,40.93115Q979.1709,41.167,978.3574,41.167L977.2773,41.167L977.2773,40.40137ZM977.2773,41.4404L977.2773,40.68164L978.3574,40.68164Q979.3076,40.68164,979.9297,40.90723Q980.5518,41.1328,980.9106,41.5088Q981.2695,41.8848,981.4165,42.332499999999996Q981.5635,42.7803,981.5635,43.2246Q981.5635,43.9219,981.3276,44.4619Q981.0918,45.002,980.6646,45.3779Q980.2373,45.7539,979.6631,45.9453Q979.0889,46.1367,978.4121,46.1367Q977.7627,46.1367,977.1919,45.9521Q976.6211,45.7676,976.1836,45.4155Q975.7461,45.0635,975.5,44.547399999999996Q975.2539,44.0312,975.2539,43.3682L976.5186,43.3682Q976.5186,43.8877,976.7476,44.2773Q976.9766,44.667,977.4038,44.8823Q977.8311,45.0977,978.4121,45.0977Q978.9932,45.0977,979.4136,44.896Q979.834,44.6943,980.063,44.2842Q980.292,43.874,980.292,43.252Q980.292,42.6299,980.0322,42.230000000000004Q979.7725,41.8301,979.2974,41.6353Q978.8223,41.4404,978.1797,41.4404L977.2773,41.4404ZM986.0684,41.249L986.0684,42.2881L982.7324,42.2881L982.7324,41.249L986.0684,41.249ZM993.417,40.23047L993.417,41.748Q993.417,42.9717,993.1982,43.8125Q992.9795,44.6533,992.5693,45.166Q992.1592,45.6787,991.5815,45.9077Q991.0039,46.1367,990.2793,46.1367Q989.7051,46.1367,989.2197,45.9932Q988.7344,45.8496,988.3481,45.5317Q987.9619,45.2139,987.6885,44.7012Q987.415,44.1885,987.2715000000001,43.457Q987.1279,42.7256,987.1279,41.748L987.1279,40.23047Q987.1279,39.00684,987.3501,38.17969Q987.5723,37.35254,987.9824,36.8501Q988.3926,36.34766,988.9702,36.12891Q989.5479,35.91016,990.2656,35.91016Q990.8467,35.91016,991.3354,36.050290000000004Q991.8242,36.19043,992.207,36.49463Q992.5898,36.79883,992.8599,37.30127Q993.1299,37.80371,993.2734,38.52832Q993.417,39.25293,993.417,40.23047ZM992.1455,41.9531L992.1455,40.01855Q992.1455,39.34863,992.0669,38.83936Q991.9883,38.33008,991.8379,37.96777Q991.6875,37.60547,991.4585,37.37988Q991.2295,37.1543,990.9321,37.048339999999996Q990.6348,36.94238,990.2656,36.94238Q989.8145,36.94238,989.4658,37.10986Q989.1172,37.27734,988.8813,37.63965Q988.6455,38.00195,988.5225,38.58984Q988.3994,39.17773,988.3994,40.01855L988.3994,41.9531Q988.3994,42.623,988.478,43.1357Q988.5566,43.6484,988.7139,44.021Q988.8711,44.3936,989.0967,44.6328Q989.3223,44.8721,989.6196,44.984899999999996Q989.917,45.0977,990.2793,45.0977Q990.7441,45.0977,991.0928,44.9199Q991.4414,44.7422,991.6772,44.3628Q991.9131,43.9834,992.0293,43.3853Q992.1455,42.7871,992.1455,41.9531ZM996.2949,44.9404L996.4248,44.9404Q997.5186,44.9404,998.2021,44.6328Q998.8857,44.3252,999.2549,43.8057Q999.624,43.2861,999.7607,42.6333Q999.8975,41.9805,999.8975,41.29L999.8975,39.76562Q999.8975,39.08887,999.7437,38.5625Q999.5898,38.03613,999.3198,37.68066Q999.0498,37.3252,998.708,37.14062Q998.3662,36.95605,997.9834,36.95605Q997.5459,36.95605,997.2007,37.13037Q996.8555,37.30469,996.6196,37.61914Q996.3838,37.93359,996.2607,38.35742Q996.1377,38.78125,996.1377,39.28027Q996.1377,39.72461,996.2471,40.1416Q996.3564,40.55859,996.582,40.89355Q996.8076,41.2285,997.146,41.4233Q997.4844,41.6182,997.9424,41.6182Q998.3662,41.6182,998.7388,41.4507Q999.1113,41.2832,999.4019,40.99268Q999.6924,40.70215,999.8667,40.33301Q1000.0409999999999,39.96387,1000.0684,39.56055L1000.6699,39.56055Q1000.6699,40.12793,1000.4478,40.678219999999996Q1000.2256,41.2285,999.8291,41.6797Q999.4326,42.1309,998.8994,42.4009Q998.3662,42.6709,997.7373,42.6709Q996.999,42.6709,996.4590000000001,42.3838Q995.9189,42.0967,995.5737,41.6182Q995.2284999999999,41.1396,995.061,40.548339999999996Q994.8936,39.95703,994.8936,39.34863Q994.8936,38.6377,995.0918,38.01562Q995.29,37.39355,995.6797,36.918459999999996Q996.0693,36.44336,996.647,36.17676Q997.2246,35.91016,997.9834,35.91016Q998.8379,35.91016,999.4395,36.25195Q1000.0409999999999,36.59375,1000.4204,37.16797Q1000.7998,37.74219,1000.9775,38.45996Q1001.1553,39.17773,1001.1553,39.93652L1001.1553,40.39453Q1001.1553,41.167,1001.0562,41.9634Q1000.957,42.7598,1000.6802,43.4844Q1000.4033,44.209,999.877,44.7798Q999.3506,45.3506,998.5063,45.6821Q997.6621,46.0137,996.4248,46.0137L996.2949,46.0137L996.2949,44.9404ZM1005.6738,41.249L1005.6738,42.2881L1002.3379,42.2881L1002.3379,41.249L1005.6738,41.249ZM1013.0225,40.23047L1013.0225,41.748Q1013.0225,42.9717,1012.8037,43.8125Q1012.585,44.6533,1012.1748,45.166Q1011.7646,45.6787,1011.187,45.9077Q1010.6094,46.1367,1009.8848,46.1367Q1009.3105,46.1367,1008.8252,45.9932Q1008.3398,45.8496,1007.9536,45.5317Q1007.5674,45.2139,1007.2939,44.7012Q1007.0205,44.1885,1006.877,43.457Q1006.7334,42.7256,1006.7334,41.748L1006.7334,40.23047Q1006.7334,39.00684,1006.9556,38.17969Q1007.1777,37.35254,1007.5879,36.8501Q1007.998,36.34766,1008.5757,36.12891Q1009.1533,35.91016,1009.8711,35.91016Q1010.4521,35.91016,1010.9409,36.050290000000004Q1011.4297,36.19043,1011.8125,36.49463Q1012.1953,36.79883,1012.4653,37.30127Q1012.7354,37.80371,1012.8789,38.52832Q1013.0225,39.25293,1013.0225,40.23047ZM1011.751,41.9531L1011.751,40.01855Q1011.751,39.34863,1011.6724,38.83936Q1011.5938,38.33008,1011.4434,37.96777Q1011.293,37.60547,1011.064,37.37988Q1010.835,37.1543,1010.5376,37.048339999999996Q1010.2402,36.94238,1009.8711,36.94238Q1009.4199,36.94238,1009.0713,37.10986Q1008.7227,37.27734,1008.4868,37.63965Q1008.251,38.00195,1008.1279,38.58984Q1008.0049,39.17773,1008.0049,40.01855L1008.0049,41.9531Q1008.0049,42.623,1008.0835,43.1357Q1008.1621,43.6484,1008.3193,44.021Q1008.4766,44.3936,1008.7021,44.6328Q1008.9277,44.8721,1009.2251,44.984899999999996Q1009.5225,45.0977,1009.8848,45.0977Q1010.3496,45.0977,1010.6982,44.9199Q1011.0469,44.7422,1011.2827,44.3628Q1011.5186,43.9834,1011.6348,43.3853Q1011.751,42.7871,1011.751,41.9531ZM1018.7988,35.99219L1018.7988,46L1017.5342,46L1017.5342,37.57129L1014.9844,38.50098L1014.9844,37.35938L1018.6006,35.99219L1018.7988,35.99219ZM1030.1396,35.99219L1030.1396,46L1028.875,46L1028.875,37.57129L1026.3252,38.50098L1026.3252,37.35938L1029.9414,35.99219L1030.1396,35.99219ZM1038.0078,35.99219L1038.0078,46L1036.7432,46L1036.7432,37.57129L1034.1934,38.50098L1034.1934,37.35938L1037.8096,35.99219L1038.0078,35.99219ZM1041.8018,45.3301Q1041.8018,45.0088,1042.0034,44.7866Q1042.2051,44.5645,1042.5879,44.5645Q1042.9707,44.5645,1043.1724,44.7866Q1043.374,45.0088,1043.374,45.3301Q1043.374,45.6445,1043.1724,45.8633Q1042.9707,46.082,1042.5879,46.082Q1042.2051,46.082,1042.0034,45.8633Q1041.8018,45.6445,1041.8018,45.3301ZM1041.8086,39.29395Q1041.8086,38.97266,1042.0103,38.75049Q1042.2119,38.52832,1042.5947,38.52832Q1042.9775,38.52832,1043.1792,38.75049Q1043.3809,38.97266,1043.3809,39.29395Q1043.3809,39.6084,1043.1792,39.82715Q1042.9775,40.0459,1042.5947,40.0459Q1042.2119,40.0459,1042.0103,39.82715Q1041.8086,39.6084,1041.8086,39.29395ZM1051.358,40.23047L1051.358,41.748Q1051.358,42.9717,1051.14,43.8125Q1050.9209,44.6533,1050.5107,45.166Q1050.1006,45.6787,1049.5229,45.9077Q1048.9453,46.1367,1048.2207,46.1367Q1047.6465,46.1367,1047.1611,45.9932Q1046.6758,45.8496,1046.2896,45.5317Q1045.9033,45.2139,1045.6299,44.7012Q1045.3564,44.1885,1045.2129,43.457Q1045.0693,42.7256,1045.0693,41.748L1045.0693,40.23047Q1045.0693,39.00684,1045.2915,38.17969Q1045.5137,37.35254,1045.9238,36.8501Q1046.334,36.34766,1046.9116,36.12891Q1047.4893,35.91016,1048.2069999999999,35.91016Q1048.7881,35.91016,1049.2769,36.050290000000004Q1049.7656,36.19043,1050.1484,36.49463Q1050.5312,36.79883,1050.8013,37.30127Q1051.071,37.80371,1051.215,38.52832Q1051.358,39.25293,1051.358,40.23047ZM1050.0869,41.9531L1050.0869,40.01855Q1050.0869,39.34863,1050.0083,38.83936Q1049.9297,38.33008,1049.7793,37.96777Q1049.6289,37.60547,1049.3999,37.37988Q1049.1709,37.1543,1048.8735,37.048339999999996Q1048.5762,36.94238,1048.2069999999999,36.94238Q1047.7559,36.94238,1047.4072,37.10986Q1047.0586,37.27734,1046.8228,37.63965Q1046.5869,38.00195,1046.4639,38.58984Q1046.3408,39.17773,1046.3408,40.01855L1046.3408,41.9531Q1046.3408,42.623,1046.4194,43.1357Q1046.498,43.6484,1046.6553,44.021Q1046.8125,44.3936,1047.0381,44.6328Q1047.2637,44.8721,1047.561,44.984899999999996Q1047.8584,45.0977,1048.2207,45.0977Q1048.6855,45.0977,1049.0342,44.9199Q1049.3828,44.7422,1049.6187,44.3628Q1049.8545,43.9834,1049.9707,43.3853Q1050.0869,42.7871,1050.0869,41.9531ZM1059.227,40.23047L1059.227,41.748Q1059.227,42.9717,1059.008,43.8125Q1058.789,44.6533,1058.379,45.166Q1057.969,45.6787,1057.391,45.9077Q1056.813,46.1367,1056.089,46.1367Q1055.515,46.1367,1055.029,45.9932Q1054.544,45.8496,1054.158,45.5317Q1053.771,45.2139,1053.498,44.7012Q1053.225,44.1885,1053.081,43.457Q1052.938,42.7256,1052.938,41.748L1052.938,40.23047Q1052.938,39.00684,1053.16,38.17969Q1053.382,37.35254,1053.792,36.8501Q1054.202,36.34766,1054.78,36.12891Q1055.357,35.91016,1056.075,35.91016Q1056.656,35.91016,1057.145,36.050290000000004Q1057.634,36.19043,1058.017,36.49463Q1058.399,36.79883,1058.669,37.30127Q1058.939,37.80371,1059.083,38.52832Q1059.227,39.25293,1059.227,40.23047ZM1057.955,41.9531L1057.955,40.01855Q1057.955,39.34863,1057.876,38.83936Q1057.798,38.33008,1057.647,37.96777Q1057.497,37.60547,1057.268,37.37988Q1057.039,37.1543,1056.742,37.048339999999996Q1056.444,36.94238,1056.075,36.94238Q1055.624,36.94238,1055.275,37.10986Q1054.927,37.27734,1054.691,37.63965Q1054.455,38.00195,1054.3319999999999,38.58984Q1054.209,39.17773,1054.209,40.01855L1054.209,41.9531Q1054.209,42.623,1054.288,43.1357Q1054.366,43.6484,1054.523,44.021Q1054.681,44.3936,1054.906,44.6328Q1055.132,44.8721,1055.429,44.984899999999996Q1055.727,45.0977,1056.089,45.0977Q1056.554,45.0977,1056.902,44.9199Q1057.251,44.7422,1057.487,44.3628Q1057.723,43.9834,1057.839,43.3853Q1057.955,42.7871,1057.955,41.9531Z" fill="#9CA3AF" fill-opacity="1" style="mix-blend-mode:passthrough"/></g></g></g></g></svg>