<svg xmlns="http://www.w3.org/2000/svg" xmlns:xlink="http://www.w3.org/1999/xlink" fill="none" version="1.1" width="108" height="36" viewBox="0 0 108 36"><defs><clipPath id="master_svg0_21_6324"><rect x="80.75" y="12" width="10.5" height="12" rx="0"/></clipPath></defs><g><rect x="0" y="0" width="108" height="36" rx="0" fill="#000000" fill-opacity="0" style="mix-blend-mode:passthrough"/><g><rect x="0" y="0" width="108" height="36" rx="4" fill="#F3F4F6" fill-opacity="1" style="mix-blend-mode:passthrough"/><g><path d="M18.84288,19.5319L27.3288,19.5319L27.3288,20.470599999999997L18.84288,20.470599999999997L18.84288,19.5319ZM18.75319,16.400750000000002L27.3315,16.400750000000002L27.3315,17.35034L18.75319,17.35034L18.75319,16.400750000000002ZM17.064,22.7797L29.0053,22.7797L29.0053,23.7317L17.064,23.7317L17.064,22.7797ZM22.45138,16.79428L23.54863,16.79428L23.54863,23.3093L22.45138,23.3093L22.45138,16.79428ZM22.90134,11.08337L23.82469,11.51891Q23.04769,12.71066,21.97428,13.810310000000001Q20.90088,14.909970000000001,19.65641,15.818439999999999Q18.41194,16.726689999999998,17.099,17.37922Q16.977594,17.17819,16.77175,16.93712Q16.566125,16.69584,16.362031,16.525219999999997Q17.64763,15.94116,18.87984,15.094809999999999Q20.11228,14.248470000000001,21.15681,13.220559999999999Q22.201340000000002,12.192440000000001,22.90134,11.08337ZM23.29838,11.53772Q24.63691,13.18337,26.2546,14.38891Q27.8722,15.594439999999999,29.674500000000002,16.55322Q29.4844,16.715310000000002,29.2744,16.96359Q29.0644,17.211660000000002,28.9485,17.437620000000003Q27.7287,16.716630000000002,26.6004,15.91337Q25.47231,15.11012,24.43784,14.145Q23.40338,13.17966,22.42425,11.97631L23.29838,11.53772ZM38.7789,11.98769L42.3979,11.98769L42.3979,12.94516L39.719899999999996,12.94516L39.719899999999996,24.0953L38.7789,24.0953L38.7789,11.98769ZM42.1947,11.98769L42.393299999999996,11.98769L42.5536,11.94328L43.2759,12.401340000000001Q42.9058,13.37762,42.4427,14.50309Q41.979600000000005,15.62834,41.538799999999995,16.59894Q42.4852,17.591189999999997,42.7934,18.4301Q43.101600000000005,19.2688,43.101600000000005,19.9922Q43.101600000000005,20.6047,42.955200000000005,21.0881Q42.8089,21.5716,42.462599999999995,21.805799999999998Q42.2953,21.9202,42.0717,21.990000000000002Q41.8482,22.0596,41.5938,22.0928Q41.332300000000004,22.1208,41.0152,22.1222Q40.698,22.1233,40.392399999999995,22.109299999999998Q40.3784,21.9052,40.309,21.6155Q40.2397,21.325699999999998,40.1098,21.1128Q40.4167,21.143900000000002,40.696,21.1509Q40.975300000000004,21.157899999999998,41.1923,21.1494Q41.3525,21.1323,41.499700000000004,21.0973Q41.647099999999995,21.0623,41.7622,20.997799999999998Q41.9674,20.8657,42.0503,20.563299999999998Q42.1332,20.2608,42.124700000000004,19.8938Q42.124700000000004,19.2423,41.79,18.4587Q41.4553,17.67519,40.5138,16.72581Q40.75,16.17916,40.9902,15.57912Q41.2304,14.97888,41.4551,14.381910000000001Q41.6799,13.784939999999999,41.8696,13.24638Q42.059200000000004,12.70759,42.1947,12.30641L42.1947,11.98769ZM31.1217,12.88981L37.7311,12.88981L37.7311,13.85034L31.1217,13.85034L31.1217,12.88981ZM30.714399999999998,16.67594L38.0476,16.67594L38.0476,17.63888L30.714399999999998,17.63888L30.714399999999998,16.67594ZM31.9762,14.20472L32.8838,13.964089999999999Q33.2043,14.531749999999999,33.4584,15.19609Q33.712599999999995,15.86044,33.8106,16.35175L32.8501,16.62825Q32.763000000000005,16.128410000000002,32.5115,15.45312Q32.2599,14.777840000000001,31.9762,14.20472ZM36.0659,13.92209L37.114599999999996,14.17125Q36.9186,14.66212,36.7012,15.19544Q36.484,15.72875,36.2678,16.21897Q36.0517,16.70919,35.849599999999995,17.08566L34.9527,16.85881Q35.1548,16.46309,35.367000000000004,15.94641Q35.5794,15.42972,35.7636,14.894870000000001Q35.9478,14.35981,36.0659,13.92209ZM32.0768,22.419L36.8749,22.419L36.8749,23.3577L32.0768,23.3577L32.0768,22.419ZM31.525100000000002,18.9199L37.4007,18.9199L37.4007,23.9207L36.3584,23.9207L36.3584,19.8719L32.5154,19.8719L32.5154,24.0281L31.525100000000002,24.0281L31.525100000000002,18.9199ZM33.4547,11.44212L34.3945,11.18028Q34.6301,11.61975,34.8528,12.150220000000001Q35.0757,12.68069,35.1822,13.04709L34.1849,13.37041Q34.0948,12.995470000000001,33.885400000000004,12.44837Q33.6763,11.901060000000001,33.4547,11.44212ZM49.9852,17.71631L55.9831,17.71631L55.9831,18.6331L49.9852,18.6331L49.9852,17.71631ZM49.9511,20.151699999999998L55.9831,20.151699999999998L55.9831,21.0599L49.9511,21.0599L49.9511,20.151699999999998ZM56.0787,11.625869999999999L57.0933,12.03012Q56.7286,12.72641,56.3001,13.44347Q55.8718,14.16053,55.4922,14.676120000000001L54.6024,14.29681Q54.8498,13.93281,55.1252,13.473659999999999Q55.4008,13.01428,55.6581,12.524280000000001Q55.9155,12.034279999999999,56.0787,11.625869999999999ZM48.9168,12.10122L49.8019,11.70375Q50.102,12.09881,50.3978,12.561250000000001Q50.6937,13.02369,50.9252,13.47059Q51.1566,13.91728,51.2717,14.281279999999999L50.3289,14.74241Q50.2248,14.38387,50.0014,13.92319Q49.7783,13.46228,49.4976,12.98475Q49.217,12.50722,48.9168,12.10122ZM49.3104,15.23569L56.0312,15.23569L56.0312,16.220280000000002L50.342,16.220280000000002L50.342,24.1141L49.3104,24.1141L49.3104,15.23569ZM55.5117,15.23569L56.5346,15.23569L56.5346,22.8022Q56.5346,23.2319,56.4232,23.482599999999998Q56.3121,23.7335,55.9921,23.8689Q55.6777,23.9905,55.1396,24.0165Q54.6017,24.0428,53.8007,24.0428Q53.7702,23.833199999999998,53.6705,23.5405Q53.571,23.2481,53.4603,23.0354Q54.0627,23.0549,54.5617,23.0619Q55.0607,23.0689,55.2232,23.0604Q55.5117,23.0464,55.5117,22.7913L55.5117,15.23569ZM52.4508,11.2295L53.501,11.2295L53.501,15.84884L52.4508,15.84884L52.4508,11.2295ZM45.196600000000004,12.11194L45.8176,11.39269Q46.251599999999996,11.59722,46.7158,11.87875Q47.1802,12.16028,47.5886,12.45428Q47.997,12.748280000000001,48.2514,13.005749999999999L47.6094,13.82234Q47.3628,13.556339999999999,46.959900000000005,13.249880000000001Q46.557,12.94341,46.0937,12.63978Q45.6306,12.33594,45.196600000000004,12.11194ZM44.5355,15.85606L45.1368,15.11428Q45.5763,15.31881,46.0519,15.59881Q46.527699999999996,15.87881,46.9542,16.16866Q47.381,16.458280000000002,47.6439,16.70722L47.018299999999996,17.534750000000003Q46.7578,17.280340000000002,46.3393,16.97541Q45.9208,16.67047,45.447900000000004,16.37537Q44.975,16.08006,44.5355,15.85606ZM44.9678,23.2988Q45.3178,22.7498,45.7308,21.9946Q46.143699999999995,21.2395,46.569199999999995,20.3964Q46.9947,19.5534,47.352599999999995,18.753L48.1363,19.3871Q47.8113,20.1346,47.4313,20.9446Q47.0516,21.7547,46.6506,22.5321Q46.2496,23.3093,45.8802,23.977600000000002L44.9678,23.2988ZM61.7214,15.29584L61.7214,16.42525L68.2217,16.42525L68.2217,15.29584L61.7214,15.29584ZM61.7214,17.22981L61.7214,18.368000000000002L68.2217,18.368000000000002L68.2217,17.22981L61.7214,17.22981ZM61.7214,13.38419L61.7214,14.496749999999999L68.2217,14.496749999999999L68.2217,13.38419L61.7214,13.38419ZM60.7092,12.54134L69.27199999999999,12.54134L69.27199999999999,19.2108L60.7092,19.2108L60.7092,12.54134ZM64.5113,11.09803L65.7363,11.30978Q65.5184,11.75931,65.2807,12.189160000000001Q65.04310000000001,12.618780000000001,64.8471,12.93225L63.9052,12.718969999999999Q64.0683,12.36109,64.2431,11.903030000000001Q64.4179,11.44497,64.5113,11.09803ZM61.6715,20.1711L62.7217,20.1711L62.7217,22.4396Q62.7217,22.7274,62.9168,22.813000000000002Q63.1122,22.8985,63.78,22.8985Q63.9036,22.8985,64.20349999999999,22.8985Q64.50370000000001,22.8985,64.8911,22.8985Q65.2787,22.8985,65.6702,22.8985Q66.062,22.8985,66.38730000000001,22.8985Q66.71260000000001,22.8985,66.8812,22.8985Q67.2632,22.8985,67.4454,22.7878Q67.62780000000001,22.6769,67.702,22.3278Q67.7764,21.9784,67.8098,21.2717Q67.93430000000001,21.3574,68.1054,21.4377Q68.2764,21.517699999999998,68.46260000000001,21.5744Q68.6488,21.6308,68.7953,21.6613Q68.726,22.552,68.5497,23.0308Q68.3733,23.509700000000002,68.0017,23.689700000000002Q67.63,23.869999999999997,66.9499,23.869999999999997Q66.8441,23.869999999999997,66.5164,23.869999999999997Q66.1887,23.869999999999997,65.76339999999999,23.869999999999997Q65.33840000000001,23.869999999999997,64.9062,23.869999999999997Q64.47409999999999,23.869999999999997,64.1506,23.869999999999997Q63.8273,23.869999999999997,63.7269,23.869999999999997Q62.9166,23.869999999999997,62.4669,23.7497Q62.0171,23.6293,61.8443,23.3174Q61.6715,23.005699999999997,61.6715,22.450499999999998L61.6715,20.1711ZM63.8651,19.6418L64.66749999999999,19.1752Q65.0322,19.4862,65.4082,19.8701Q65.7842,20.2538,66.09700000000001,20.636200000000002Q66.4101,21.0183,66.59819999999999,21.3318L65.7435,21.862299999999998Q65.5663,21.540300000000002,65.25880000000001,21.1511Q64.9512,20.7618,64.5877,20.3628Q64.2243,19.9637,63.8651,19.6418ZM68.6781,20.3142L69.613,19.9222Q69.94659999999999,20.347,70.2673,20.8532Q70.5882,21.3592,70.8433,21.844099999999997Q71.0983,22.3291,71.2276,22.7259L70.238,23.1645Q70.1198,22.7732,69.8729,22.2786Q69.6259,21.7837,69.3159,21.2668Q69.0062,20.7497,68.6781,20.3142ZM60.0687,20.151L60.975,20.5312Q60.7985,20.97,60.574,21.5013Q60.3498,22.0327,60.1013,22.5417Q59.8528,23.0507,59.5916,23.4592L58.6357,23.0017Q58.9163,22.6128,59.1799,22.1132Q59.4435,21.613300000000002,59.6776,21.0958Q59.9117,20.578200000000002,60.0687,20.151Z" fill="#4B5563" fill-opacity="1" style="mix-blend-mode:passthrough"/></g><g><rect x="80" y="10" width="12" height="16" rx="0" fill="#000000" fill-opacity="0" style="mix-blend-mode:passthrough"/><g clip-path="url(#master_svg0_21_6324)"><g transform="matrix(1,0,0,-1,0,44.015625)"><g><path d="M84.71094,22.2187505Q84.94531,22.0078125,85.25,22.0078125Q85.55469,22.0078125,85.78906,22.2187505L90.2891,26.7187525Q90.5,26.9531225,90.5,27.2578125Q90.5,27.5625025,90.2891,27.7968725Q90.0547,28.0078125,89.75,28.0078125Q89.44531,28.0078125,89.21094,27.7968725L85.25,23.8125025L81.28906,27.7968725Q81.05469,28.0078125,80.75,28.0078125Q80.445312,28.0078125,80.210938,27.7968725Q80,27.5625025,80,27.2578125Q80,26.9531225,80.210938,26.7187525L84.71094,22.2187505Z" fill="#4B5563" fill-opacity="1" style="mix-blend-mode:passthrough"/></g></g></g></g></g></g></svg>