<svg xmlns="http://www.w3.org/2000/svg" xmlns:xlink="http://www.w3.org/1999/xlink" fill="none" version="1.1" width="1208" height="82" viewBox="0 0 1208 82"><g><rect x="0" y="0" width="1208" height="82" rx="12" fill="#FFFFFF" fill-opacity="1" style="mix-blend-mode:passthrough"/><rect x="0.5" y="0.5" width="1207" height="81" rx="11.5" fill-opacity="0" stroke-opacity="1" stroke="#E5E7EB" fill="none" stroke-width="1" style="mix-blend-mode:passthrough"/><g><rect x="17" y="17" width="304" height="48" rx="0" fill="#000000" fill-opacity="0" style="mix-blend-mode:passthrough"/><g><rect x="17" y="37" width="8" height="8" rx="4" fill="#E6002D" fill-opacity="1" style="mix-blend-mode:passthrough"/></g><g><rect x="41" y="17" width="280" height="48" rx="0" fill="#000000" fill-opacity="0" style="mix-blend-mode:passthrough"/><g><rect x="41" y="17" width="280" height="24" rx="0" fill="#000000" fill-opacity="0" style="mix-blend-mode:passthrough"/><g><rect x="41" y="17" width="58" height="24" rx="4" fill="#DCFCE7" fill-opacity="1" style="mix-blend-mode:passthrough"/><g><path d="M57.19809,26.96675L62.417,26.96675L62.417,27.946089999999998L57.19809,27.946089999999998L57.19809,26.96675ZM49.856844,23.707160000000002L56.03894,23.707160000000002L56.03894,24.59353L49.856844,24.59353L49.856844,23.707160000000002ZM49.70525,29.2588L56.10238,29.2588L56.10238,30.175800000000002L49.70525,30.175800000000002L49.70525,29.2588ZM49.641375,26.90659L56.26294,26.90659L56.26294,27.798659999999998L49.641375,27.798659999999998L49.641375,26.90659ZM59.8563,27.37975L60.8738,27.37975L60.8738,35.055L59.8563,35.055L59.8563,27.37975ZM50.76553,24.88513L51.61866,24.68956Q51.83784,25.14281,52.00213,25.69822Q52.16663,26.253619999999998,52.21716,26.65569L51.31438,26.89872Q51.27478,26.49359,51.12691,25.92856Q50.97925,25.36331,50.76553,24.88513ZM54.28172,24.66703L55.253190000000004,24.87484Q55.02919,25.495440000000002,54.78178,26.15278Q54.53459,26.809910000000002,54.30994,27.26841L53.44916,27.069119999999998Q53.59528,26.74034,53.74994,26.31553Q53.90459,25.89072,54.04787,25.451909999999998Q54.19138,25.01287,54.28172,24.66703ZM61.1203,22.48741L61.9771,23.26812Q61.3097,23.51619,60.4815,23.72706Q59.6536,23.93794,58.77463,24.10134Q57.89569,24.26475,57.07275,24.38222Q57.042339999999996,24.21378,56.9415,23.98366Q56.84066,23.75331,56.74113,23.59056Q57.52819,23.45362,58.34938,23.28322Q59.1706,23.11281,59.894800000000004,22.90478Q60.6193,22.69675,61.1203,22.48741ZM52.003,22.42878L52.94647,22.18816Q53.19366,22.6075,53.44522,23.12484Q53.696780000000004,23.64219,53.80638,23.99984L52.82463,24.29362Q52.717439999999996,23.92175,52.48097,23.391939999999998Q52.24472,22.86212,52.003,22.42878ZM52.51925,27.44122L53.47366,27.44122L53.47366,33.7605Q53.47366,34.126400000000004,53.386160000000004,34.3312Q53.29866,34.5362,53.06262,34.6552Q52.82681,34.7658,52.45866,34.7934Q52.09072,34.8212,51.58256,34.8212Q51.55763,34.6278,51.46772,34.3749Q51.37781,34.122299999999996,51.26953,33.9261Q51.63484,33.9401,51.93147,33.9401Q52.22831,33.9401,52.34031,33.9315Q52.51925,33.9315,52.51925,33.7526L52.51925,27.44122ZM56.74113,23.59056L57.71719,23.59056L57.71719,28.40306Q57.71719,29.156,57.668189999999996,30.020699999999998Q57.61919,30.885199999999998,57.47066,31.770699999999998Q57.32213,32.6562,57.03053,33.4807Q56.73894,34.3052,56.25375,34.9888Q56.17653,34.8837,56.02341,34.760999999999996Q55.87028,34.6383,55.71606,34.5237Q55.561840000000004,34.4093,55.44569,34.3485Q56.04134,33.5072,56.31369,32.4784Q56.58625,31.4494,56.66369,30.3887Q56.74113,29.3277,56.74113,28.40306L56.74113,23.59056ZM54.03366,31.012700000000002L54.75488,30.6378Q55.10247,31.1543,55.43606,31.776Q55.76966,32.3977,55.93459,32.8439L55.18297,33.2794Q55.01497,32.8223,54.68553,32.1785Q54.35631,31.5345,54.03366,31.012700000000002ZM50.89525,30.703400000000002L51.74903,30.9215Q51.50556,31.6532,51.11903,32.3666Q50.7325,33.0797,50.30944,33.578900000000004Q50.18781,33.468199999999996,49.962281,33.305Q49.736969,33.1418,49.576406,33.0508Q50.00034,32.5873,50.33963,31.9685Q50.67913,31.349600000000002,50.89525,30.703400000000002ZM64.4573,23.81741L75.6048,23.81741L75.6048,24.9035L64.4573,24.9035L64.4573,23.81741ZM63.7278,32.994L76.3081,32.994L76.3081,34.044200000000004L63.7278,34.044200000000004L63.7278,32.994ZM69.3829,24.36691L70.5508,24.36691L70.5508,33.4302L69.3829,33.4302L69.3829,24.36691ZM83.42580000000001,25.14544L84.50970000000001,25.14544L84.50970000000001,35.1032L83.42580000000001,35.1032L83.42580000000001,25.14544ZM80.0993,27.88484L80.0993,29.3914L87.9854,29.3914L87.9854,27.88484L80.0993,27.88484ZM80.0993,25.55275L80.0993,27.04222L87.9854,27.04222L87.9854,25.55275L80.0993,25.55275ZM79.0762,24.65762L89.0608,24.65762L89.0608,30.2834L79.0762,30.2834L79.0762,24.65762ZM77.7527,31.6154L90.2838,31.6154L90.2838,32.5947L77.7527,32.5947L77.7527,31.6154ZM80.297,22.71622L81.1899,22.299500000000002Q81.6161,22.76762,82.0503,23.351689999999998Q82.4847,23.93575,82.6947,24.37522L81.75829999999999,24.85034Q81.55590000000001,24.42181,81.1368,23.81128Q80.71770000000001,23.20075,80.297,22.71622ZM86.9273,22.30125L88.06479999999999,22.67181Q87.6457,23.34316,87.1623,24.0355Q86.6788,24.72762,86.2722,25.20975L85.37440000000001,24.86391Q85.6382,24.52244,85.93,24.07137Q86.2221,23.62031,86.4876,23.152630000000002Q86.75319999999999,22.68472,86.9273,22.30125Z" fill="#16A34A" fill-opacity="1" style="mix-blend-mode:passthrough"/></g></g><g><rect x="107" y="17" width="174.484375" height="24" rx="0" fill="#000000" fill-opacity="0" style="mix-blend-mode:passthrough"/><g><path d="M108.6655,22.36275L121.4055,22.36275L121.4055,23.604L108.6655,23.604L108.6655,22.36275ZM107.83175,32.850300000000004L122.2093,32.850300000000004L122.2093,34.0505L107.83175,34.0505L107.83175,32.850300000000004ZM114.29475,22.99075L115.62950000000001,22.99075L115.62950000000001,33.3487L114.29475,33.3487L114.29475,22.99075ZM130.3438,23.880499999999998L131.5825,23.880499999999998L131.5825,35.2607L130.3438,35.2607L130.3438,23.880499999999998ZM126.542,27.011200000000002L126.542,28.733L135.5548,28.733L135.5548,27.011200000000002L126.542,27.011200000000002ZM126.542,24.346L126.542,26.04825L135.5548,26.04825L135.5548,24.346L126.542,24.346ZM125.3727,23.323L136.78379999999999,23.323L136.78379999999999,29.752499999999998L125.3727,29.752499999999998L125.3727,23.323ZM123.8603,31.2747L138.1815,31.2747L138.1815,32.394L123.8603,32.394L123.8603,31.2747ZM126.768,21.10425L127.7885,20.628Q128.2755,21.163,128.77179999999998,21.8305Q129.2682,22.498,129.5083,23.00025L128.438,23.54325Q128.2068,23.0535,127.7278,22.35575Q127.2488,21.658,126.768,21.10425ZM134.34550000000002,20.63L135.6455,21.0535Q135.16649999999998,21.82075,134.614,22.612000000000002Q134.0615,23.403,133.5968,23.954L132.5708,23.55875Q132.8722,23.1685,133.2057,22.653Q133.5395,22.1375,133.843,21.603Q134.1465,21.06825,134.34550000000002,20.63ZM143.1598,22.2855L143.1598,24.4595L150.778,24.4595L150.778,22.2855L143.1598,22.2855ZM141.962,21.21625L152.038,21.21625L152.038,25.5225L141.962,25.5225L141.962,21.21625ZM140.0057,26.9675L153.9338,26.9675L153.9338,28.067999999999998L140.0057,28.067999999999998L140.0057,26.9675ZM142.99020000000002,29.8495L151.1458,29.8495L151.1458,30.95L142.99020000000002,30.95L142.99020000000002,29.8495ZM150.7798,29.8495L152.0522,29.8495Q152.0522,29.8495,152.041,29.952199999999998Q152.03,30.055,152.0205,30.1832Q152.0112,30.3112,151.98930000000001,30.403Q151.8025,31.737000000000002,151.5923,32.6245Q151.3823,33.511700000000005,151.1485,34.0238Q150.9147,34.5357,150.617,34.798Q150.334,35.045500000000004,150.01330000000002,35.1308Q149.6927,35.2162,149.22480000000002,35.2385Q148.8167,35.251000000000005,148.0825,35.2442Q147.3483,35.2378,146.5127,35.1863Q146.4905,34.9182,146.38049999999998,34.5998Q146.2705,34.2815,146.0967,34.0322Q146.949,34.115700000000004,147.7262,34.139700000000005Q148.5037,34.1637,148.839,34.1637Q149.13400000000001,34.1637,149.3032,34.139700000000005Q149.4728,34.115700000000004,149.6035,34.0135Q149.8442,33.8305,150.04500000000002,33.3703Q150.246,32.91,150.4228,32.0868Q150.5995,31.2633,150.7735,30.0203L150.7798,29.8495ZM143.50130000000001,27.4357L144.7702,27.6155Q144.60750000000002,28.174,144.4077,28.7817Q144.2083,29.389499999999998,144.0068,29.951Q143.8055,30.5125,143.6333,30.9403L142.253,30.9403Q142.46370000000002,30.468,142.6855,29.867Q142.9072,29.265700000000002,143.118,28.6313Q143.3288,27.9967,143.50130000000001,27.4357ZM159,26.23Q158.5143,26.23,158.153,25.90325Q157.792,25.57625,157.792,25.0345Q157.792,24.4805,158.153,24.1535Q158.5143,23.8265,159,23.8265Q159.4857,23.8265,159.8467,24.1535Q160.208,24.4805,160.208,25.0345Q160.208,25.57625,159.8467,25.90325Q159.4857,26.23,159,26.23ZM159,34.0625Q158.5143,34.0625,158.153,33.7355Q157.792,33.408500000000004,157.792,32.8667Q157.792,32.3127,158.153,31.985799999999998Q158.5143,31.6587,159,31.6587Q159.4857,31.6587,159.8467,31.985799999999998Q160.208,32.3127,160.208,32.8667Q160.208,33.408500000000004,159.8467,33.7355Q159.4857,34.0625,159,34.0625ZM175.3125,30.5625L177.5703,22.625L178.66410000000002,22.625L178.0312,25.71094L175.60160000000002,34L174.5156,34L175.3125,30.5625ZM172.97660000000002,22.625L174.77339999999998,30.4062L175.3125,34L174.2344,34L171.47660000000002,22.625L172.97660000000002,22.625ZM181.58589999999998,30.398400000000002L183.3438,22.625L184.85160000000002,22.625L182.10160000000002,34L181.02339999999998,34L181.58589999999998,30.398400000000002ZM178.8281,22.625L181.02339999999998,30.5625L181.8203,34L180.7344,34L178.3906,25.71094L177.75,22.625L178.8281,22.625ZM195.27339999999998,27.9531L195.27339999999998,28.6719Q195.27339999999998,29.9531,194.9531,30.9688Q194.6328,31.9844,194.0312,32.6953Q193.4297,33.4062,192.5898,33.7812Q191.75,34.1562,190.71089999999998,34.1562Q189.7031,34.1562,188.86329999999998,33.7812Q188.02339999999998,33.4062,187.4102,32.6953Q186.7969,31.9844,186.46089999999998,30.9688Q186.125,29.9531,186.125,28.6719L186.125,27.9531Q186.125,26.67188,186.457,25.660159999999998Q186.78910000000002,24.64844,187.39839999999998,23.93359Q188.0078,23.21875,188.8477,22.84375Q189.6875,22.46875,190.6953,22.46875Q191.7344,22.46875,192.57420000000002,22.84375Q193.41410000000002,23.21875,194.0195,23.93359Q194.625,24.64844,194.94920000000002,25.660159999999998Q195.27339999999998,26.67188,195.27339999999998,27.9531ZM193.7812,28.6719L193.7812,27.9375Q193.7812,26.92188,193.57420000000002,26.14062Q193.3672,25.35938,192.9688,24.82812Q192.5703,24.29688,191.9961,24.02344Q191.4219,23.75,190.6953,23.75Q189.9922,23.75,189.42579999999998,24.02344Q188.8594,24.29688,188.457,24.82812Q188.0547,25.35938,187.83589999999998,26.14062Q187.6172,26.92188,187.6172,27.9375L187.6172,28.6719Q187.6172,29.6953,187.83589999999998,30.4805Q188.0547,31.2656,188.4648,31.800800000000002Q188.875,32.3359,189.4414,32.6094Q190.0078,32.8828,190.71089999999998,32.8828Q191.4453,32.8828,192.0156,32.6094Q192.58589999999998,32.3359,192.9805,31.800800000000002Q193.375,31.2656,193.5781,30.4805Q193.7812,29.6953,193.7812,28.6719ZM200.3125,28.5703L200.3125,29.7578L196.5,29.7578L196.5,28.5703L200.3125,28.5703ZM209.023,32.8125L209.023,34L201.5781,34L201.5781,32.9609L205.3047,28.8125Q205.9922,28.0469,206.3711,27.511699999999998Q206.75,26.97656,206.9023,26.55078Q207.055,26.125,207.055,25.67969Q207.055,25.11719,206.82420000000002,24.66016Q206.5938,24.20312,206.14839999999998,23.92969Q205.7031,23.65625,205.0703,23.65625Q204.3125,23.65625,203.8086,23.94922Q203.3047,24.24219,203.0547,24.76562Q202.8047,25.28906,202.8047,25.96875L201.3594,25.96875Q201.3594,25.00781,201.7812,24.21094Q202.2031,23.41406,203.0312,22.94141Q203.8594,22.46875,205.0703,22.46875Q206.14839999999998,22.46875,206.91410000000002,22.84766Q207.68,23.22656,208.09,23.91016Q208.5,24.59375,208.5,25.50781Q208.5,26.00781,208.332,26.51953Q208.164,27.0312,207.87099999999998,27.539099999999998Q207.578,28.0469,207.191,28.539099999999998Q206.8047,29.0312,206.3672,29.5078L203.3203,32.8125L209.023,32.8125ZM217.703,27.4062L217.703,29.1406Q217.703,30.539099999999998,217.453,31.5Q217.203,32.4609,216.73399999999998,33.0469Q216.26600000000002,33.6328,215.60500000000002,33.8945Q214.945,34.1562,214.11700000000002,34.1562Q213.461,34.1562,212.906,33.9922Q212.352,33.8281,211.91,33.4648Q211.469,33.101600000000005,211.156,32.5156Q210.844,31.9297,210.68,31.0938Q210.51600000000002,30.2578,210.51600000000002,29.1406L210.51600000000002,27.4062Q210.51600000000002,26.00781,210.76999999999998,25.0625Q211.023,24.11719,211.49200000000002,23.54297Q211.961,22.96875,212.62099999999998,22.71875Q213.281,22.46875,214.102,22.46875Q214.76600000000002,22.46875,215.324,22.62891Q215.88299999999998,22.78906,216.32,23.13672Q216.75799999999998,23.48438,217.066,24.05859Q217.375,24.63281,217.539,25.46094Q217.703,26.28906,217.703,27.4062ZM216.25,29.375L216.25,27.164099999999998Q216.25,26.39844,216.16,25.816409999999998Q216.07,25.23438,215.898,24.82031Q215.727,24.40625,215.465,24.14844Q215.203,23.89062,214.863,23.76953Q214.523,23.64844,214.102,23.64844Q213.586,23.64844,213.188,23.83984Q212.789,24.03125,212.51999999999998,24.44531Q212.25,24.85938,212.10899999999998,25.53125Q211.969,26.20312,211.969,27.164099999999998L211.969,29.375Q211.969,30.1406,212.059,30.726599999999998Q212.148,31.3125,212.328,31.738300000000002Q212.50799999999998,32.1641,212.76600000000002,32.4375Q213.023,32.7109,213.363,32.8398Q213.703,32.9688,214.11700000000002,32.9688Q214.648,32.9688,215.047,32.7656Q215.445,32.5625,215.715,32.1289Q215.98399999999998,31.6953,216.11700000000002,31.011699999999998Q216.25,30.3281,216.25,29.375ZM227.00799999999998,32.8125L227.00799999999998,34L219.562,34L219.562,32.9609L223.289,28.8125Q223.977,28.0469,224.35500000000002,27.511699999999998Q224.73399999999998,26.97656,224.887,26.55078Q225.039,26.125,225.039,25.67969Q225.039,25.11719,224.809,24.66016Q224.578,24.20312,224.13299999999998,23.92969Q223.688,23.65625,223.055,23.65625Q222.297,23.65625,221.793,23.94922Q221.289,24.24219,221.039,24.76562Q220.789,25.28906,220.789,25.96875L219.344,25.96875Q219.344,25.00781,219.76600000000002,24.21094Q220.188,23.41406,221.01600000000002,22.94141Q221.844,22.46875,223.055,22.46875Q224.13299999999998,22.46875,224.898,22.84766Q225.664,23.22656,226.074,23.91016Q226.48399999999998,24.59375,226.48399999999998,25.50781Q226.48399999999998,26.00781,226.316,26.51953Q226.148,27.0312,225.85500000000002,27.539099999999998Q225.562,28.0469,225.176,28.539099999999998Q224.789,29.0312,224.352,29.5078L221.305,32.8125L227.00799999999998,32.8125ZM230.656,27.601599999999998L231.688,27.601599999999998Q232.445,27.601599999999998,232.941,27.3477Q233.438,27.0938,233.684,26.652340000000002Q233.93,26.21094,233.93,25.65625Q233.93,25,233.711,24.55469Q233.49200000000002,24.10938,233.055,23.88281Q232.61700000000002,23.65625,231.945,23.65625Q231.336,23.65625,230.87099999999998,23.89453Q230.406,24.13281,230.14499999999998,24.57031Q229.88299999999998,25.00781,229.88299999999998,25.60156L228.438,25.60156Q228.438,24.73438,228.875,24.02344Q229.312,23.3125,230.10500000000002,22.89062Q230.898,22.46875,231.945,22.46875Q232.977,22.46875,233.75,22.83203Q234.523,23.19531,234.953,23.91016Q235.383,24.625,235.383,25.6875Q235.383,26.11719,235.184,26.60547Q234.98399999999998,27.0938,234.566,27.5156Q234.148,27.9375,233.48399999999998,28.207Q232.82,28.476599999999998,231.89100000000002,28.476599999999998L230.656,28.476599999999998L230.656,27.601599999999998ZM230.656,28.789099999999998L230.656,27.9219L231.89100000000002,27.9219Q232.977,27.9219,233.688,28.1797Q234.398,28.4375,234.809,28.8672Q235.219,29.2969,235.387,29.8086Q235.555,30.3203,235.555,30.8281Q235.555,31.625,235.285,32.2422Q235.016,32.8594,234.527,33.289100000000005Q234.039,33.7188,233.38299999999998,33.9375Q232.727,34.1562,231.953,34.1562Q231.211,34.1562,230.559,33.9453Q229.906,33.7344,229.406,33.332Q228.906,32.9297,228.625,32.3398Q228.344,31.75,228.344,30.9922L229.789,30.9922Q229.789,31.585900000000002,230.051,32.0312Q230.312,32.4766,230.801,32.7227Q231.289,32.9688,231.953,32.9688Q232.61700000000002,32.9688,233.098,32.7383Q233.578,32.5078,233.84,32.0391Q234.102,31.5703,234.102,30.8594Q234.102,30.148400000000002,233.805,29.6914Q233.50799999999998,29.2344,232.965,29.011699999999998Q232.422,28.789099999999998,231.688,28.789099999999998L230.656,28.789099999999998ZM244.68,27.4062L244.68,29.1406Q244.68,30.539099999999998,244.43,31.5Q244.18,32.4609,243.711,33.0469Q243.242,33.6328,242.582,33.8945Q241.922,34.1562,241.094,34.1562Q240.438,34.1562,239.883,33.9922Q239.328,33.8281,238.887,33.4648Q238.445,33.101600000000005,238.133,32.5156Q237.82,31.9297,237.656,31.0938Q237.492,30.2578,237.492,29.1406L237.492,27.4062Q237.492,26.00781,237.746,25.0625Q238,24.11719,238.469,23.54297Q238.938,22.96875,239.598,22.71875Q240.258,22.46875,241.078,22.46875Q241.742,22.46875,242.301,22.62891Q242.859,22.78906,243.297,23.13672Q243.734,23.48438,244.043,24.05859Q244.352,24.63281,244.516,25.46094Q244.68,26.28906,244.68,27.4062ZM243.227,29.375L243.227,27.164099999999998Q243.227,26.39844,243.137,25.816409999999998Q243.047,25.23438,242.875,24.82031Q242.703,24.40625,242.441,24.14844Q242.18,23.89062,241.84,23.76953Q241.5,23.64844,241.078,23.64844Q240.562,23.64844,240.164,23.83984Q239.766,24.03125,239.496,24.44531Q239.227,24.85938,239.086,25.53125Q238.945,26.20312,238.945,27.164099999999998L238.945,29.375Q238.945,30.1406,239.035,30.726599999999998Q239.125,31.3125,239.305,31.738300000000002Q239.484,32.1641,239.742,32.4375Q240,32.7109,240.34,32.8398Q240.68,32.9688,241.094,32.9688Q241.625,32.9688,242.023,32.7656Q242.422,32.5625,242.691,32.1289Q242.961,31.6953,243.094,31.011699999999998Q243.227,30.3281,243.227,29.375ZM247.969,32.7891L248.117,32.7891Q249.367,32.7891,250.148,32.4375Q250.93,32.0859,251.352,31.4922Q251.773,30.898400000000002,251.93,30.1523Q252.086,29.4062,252.086,28.6172L252.086,26.875Q252.086,26.10156,251.91,25.5Q251.734,24.89844,251.426,24.49219Q251.117,24.08594,250.727,23.875Q250.336,23.66406,249.898,23.66406Q249.398,23.66406,249.004,23.86328Q248.609,24.0625,248.34,24.42188Q248.07,24.78125,247.93,25.26562Q247.789,25.75,247.789,26.32031Q247.789,26.82812,247.914,27.3047Q248.039,27.7812,248.297,28.164099999999998Q248.555,28.5469,248.941,28.7695Q249.328,28.9922,249.852,28.9922Q250.336,28.9922,250.762,28.800800000000002Q251.188,28.6094,251.52,28.2773Q251.852,27.9453,252.051,27.523400000000002Q252.25,27.101599999999998,252.281,26.64062L252.969,26.64062Q252.969,27.289099999999998,252.715,27.918Q252.461,28.5469,252.008,29.0625Q251.555,29.5781,250.945,29.886699999999998Q250.336,30.1953,249.617,30.1953Q248.773,30.1953,248.156,29.8672Q247.539,29.539099999999998,247.145,28.9922Q246.75,28.4453,246.559,27.7695Q246.367,27.0938,246.367,26.39844Q246.367,25.58594,246.594,24.875Q246.82,24.16406,247.266,23.62109Q247.711,23.07812,248.371,22.77344Q249.031,22.46875,249.898,22.46875Q250.875,22.46875,251.562,22.85938Q252.25,23.25,252.684,23.90625Q253.117,24.5625,253.32,25.38281Q253.523,26.20312,253.523,27.0703L253.523,27.5938Q253.523,28.476599999999998,253.41,29.386699999999998Q253.297,30.2969,252.98,31.125Q252.664,31.9531,252.062,32.6055Q251.461,33.2578,250.496,33.636700000000005Q249.531,34.0156,248.117,34.0156L247.969,34.0156L247.969,32.7891ZM262.664,27.4062L262.664,29.1406Q262.664,30.539099999999998,262.414,31.5Q262.164,32.4609,261.695,33.0469Q261.227,33.6328,260.56600000000003,33.8945Q259.906,34.1562,259.078,34.1562Q258.422,34.1562,257.86699999999996,33.9922Q257.312,33.8281,256.871,33.4648Q256.43,33.101600000000005,256.11699999999996,32.5156Q255.805,31.9297,255.641,31.0938Q255.477,30.2578,255.477,29.1406L255.477,27.4062Q255.477,26.00781,255.73,25.0625Q255.984,24.11719,256.453,23.54297Q256.922,22.96875,257.582,22.71875Q258.24199999999996,22.46875,259.062,22.46875Q259.727,22.46875,260.28499999999997,22.62891Q260.844,22.78906,261.281,23.13672Q261.719,23.48438,262.027,24.05859Q262.336,24.63281,262.5,25.46094Q262.664,26.28906,262.664,27.4062ZM261.211,29.375L261.211,27.164099999999998Q261.211,26.39844,261.121,25.816409999999998Q261.031,25.23438,260.85900000000004,24.82031Q260.688,24.40625,260.426,24.14844Q260.164,23.89062,259.824,23.76953Q259.48400000000004,23.64844,259.062,23.64844Q258.547,23.64844,258.148,23.83984Q257.75,24.03125,257.48,24.44531Q257.211,24.85938,257.07,25.53125Q256.93,26.20312,256.93,27.164099999999998L256.93,29.375Q256.93,30.1406,257.02,30.726599999999998Q257.10900000000004,31.3125,257.289,31.738300000000002Q257.469,32.1641,257.727,32.4375Q257.98400000000004,32.7109,258.324,32.8398Q258.664,32.9688,259.078,32.9688Q259.60900000000004,32.9688,260.00800000000004,32.7656Q260.406,32.5625,260.676,32.1289Q260.945,31.6953,261.078,31.011699999999998Q261.211,30.3281,261.211,29.375ZM271.656,27.4062L271.656,29.1406Q271.656,30.539099999999998,271.406,31.5Q271.156,32.4609,270.688,33.0469Q270.219,33.6328,269.55899999999997,33.8945Q268.898,34.1562,268.07,34.1562Q267.414,34.1562,266.85900000000004,33.9922Q266.305,33.8281,265.863,33.4648Q265.422,33.101600000000005,265.10900000000004,32.5156Q264.797,31.9297,264.63300000000004,31.0938Q264.469,30.2578,264.469,29.1406L264.469,27.4062Q264.469,26.00781,264.723,25.0625Q264.977,24.11719,265.445,23.54297Q265.914,22.96875,266.574,22.71875Q267.23400000000004,22.46875,268.055,22.46875Q268.719,22.46875,269.277,22.62891Q269.836,22.78906,270.273,23.13672Q270.711,23.48438,271.02,24.05859Q271.328,24.63281,271.49199999999996,25.46094Q271.656,26.28906,271.656,27.4062ZM270.203,29.375L270.203,27.164099999999998Q270.203,26.39844,270.113,25.816409999999998Q270.023,25.23438,269.852,24.82031Q269.68,24.40625,269.418,24.14844Q269.156,23.89062,268.81600000000003,23.76953Q268.477,23.64844,268.055,23.64844Q267.539,23.64844,267.14099999999996,23.83984Q266.74199999999996,24.03125,266.473,24.44531Q266.203,24.85938,266.062,25.53125Q265.922,26.20312,265.922,27.164099999999998L265.922,29.375Q265.922,30.1406,266.012,30.726599999999998Q266.102,31.3125,266.281,31.738300000000002Q266.461,32.1641,266.719,32.4375Q266.977,32.7109,267.31600000000003,32.8398Q267.656,32.9688,268.07,32.9688Q268.602,32.9688,269,32.7656Q269.398,32.5625,269.668,32.1289Q269.938,31.6953,270.07,31.011699999999998Q270.203,30.3281,270.203,29.375ZM281.195,30.1719L281.195,31.3594L272.977,31.3594L272.977,30.5078L278.07,22.625L279.25,22.625L277.98400000000004,24.90625L274.61699999999996,30.1719L281.195,30.1719ZM279.60900000000004,22.625L279.60900000000004,34L278.164,34L278.164,22.625L279.60900000000004,22.625Z" fill="#4B5563" fill-opacity="1" style="mix-blend-mode:passthrough"/></g></g></g><g><rect x="41" y="45" width="280" height="20" rx="0" fill="#000000" fill-opacity="0" style="mix-blend-mode:passthrough"/><g><path d="M44.99984,56.8697L46.04722,57.2361Q45.63269,57.7968,45.10331,58.3572Q44.57416,58.9174,44.00825,59.4078Q43.44234,59.8981,42.90422,60.2822Q42.80534,60.1803,42.63691,60.0492Q42.46869,59.9184,42.295,59.7887Q42.12131,59.659,41.980219,59.5817Q42.81541,59.0734,43.63112,58.348Q44.44706,57.6224,44.99984,56.8697ZM49.91034,57.3398L50.73634,56.7997Q51.3226,57.221199999999996,51.9576,57.7405Q52.5927,58.2598,53.1614,58.7649Q53.7304,59.269999999999996,54.1005,59.6791L53.2113,60.3108Q52.8661,59.915800000000004,52.3094,59.3899Q51.752700000000004,58.8638,51.1231,58.325Q50.49353,57.786,49.91034,57.3398ZM47.59838,55.749L48.66259,55.749L48.66259,59.7393Q48.66259,60.1715,48.54469,60.4093Q48.42678,60.6473,48.07416,60.7829Q47.72678,60.912800000000004,47.19063,60.9362Q46.65469,60.9597,45.879220000000004,60.9597Q45.84334,60.7252,45.72609,60.4288Q45.60884,60.1323,45.47891,59.9197Q45.90875,59.9337,46.28391,59.9436Q46.65928,59.9532,46.93316,59.9488Q47.20703,59.9444,47.31597,59.9444Q47.48944,59.9304,47.54391,59.884299999999996Q47.59838,59.8379,47.59838,59.7174L47.59838,55.749ZM52.2368,48.34259L52.975300000000004,49.21978Q51.9841,49.45712,50.75778,49.64744Q49.53147,49.83753,48.17522,49.97644Q46.81919,50.11512,45.43888,50.21356Q44.05878,50.31178,42.76313,50.37412Q42.74366,50.17528,42.66206,49.90666Q42.58069,49.63781,42.49516,49.45844Q43.77134,49.39084,45.12978,49.28825Q46.48822,49.18566,47.79634,49.04697Q49.10447,48.90806,50.24547,48.73306Q51.3865,48.55806,52.2368,48.34259ZM42.80622,56.5691Q42.78981,56.4641,42.73447,56.2874Q42.67934,56.1104,42.61569,55.9227Q42.55225,55.7348,42.48838,55.5939Q42.82547,55.5495,43.30059,55.353300000000004Q43.77572,55.1569,44.43066,54.829409999999996Q44.79159,54.661410000000004,45.49159,54.27487Q46.19159,53.88834,47.08781,53.33666Q47.98425,52.78475,48.94128,52.12675Q49.89831,51.46875,50.77856,50.75475L51.577,51.43878Q49.611090000000004,52.93503,47.57256,54.09944Q45.53403,55.2636,43.54297,56.1128L43.54297,56.1432Q43.54297,56.1432,43.43075,56.1791Q43.31875,56.2148,43.17459,56.2799Q43.03066,56.3449,42.91844,56.4223Q42.80622,56.4998,42.80622,56.5691ZM42.80622,56.5691L42.78434,55.8182L43.48916,55.4382L52.4507,54.841Q52.4258,55.0372,52.4258,55.2886Q52.4258,55.539699999999996,52.431200000000004,55.6917Q50.35572,55.8457,48.861,55.9536Q47.3665,56.0612,46.34756,56.141Q45.32884,56.2207,44.69031,56.2821Q44.05178,56.3436,43.68537,56.3867Q43.31919,56.4298,43.128,56.4731Q42.93703,56.5162,42.80622,56.5691ZM43.56878,53.649029999999996Q43.55238,53.54381,43.50141,53.37253Q43.45044,53.20125,43.38963,53.01466Q43.32881,52.82806,43.27369,52.70119Q43.47975,52.676249999999996,43.73591,52.52619Q43.99228,52.37591,44.29722,52.14884Q44.46522,52.03378,44.79728,51.7715Q45.12934,51.509,45.54694,51.14019Q45.96475,50.77116,46.4005,50.33759Q46.83647,49.90403,47.22059,49.45537L48.11266,49.96025Q47.20419,50.89781,46.21325,51.72687Q45.22231,52.55572,44.24559,53.15925L44.24559,53.18419Q44.24559,53.18419,44.14431,53.22706Q44.04303,53.26972,43.90719,53.34037Q43.77134,53.41081,43.67006,53.49109Q43.56878,53.57116,43.56878,53.649029999999996ZM43.56878,53.649029999999996L43.55784,52.933279999999996L44.14344,52.62025L48.99509,52.37372Q48.95375,52.56994,48.92488,52.81187Q48.89622,53.05359,48.88528,53.205619999999996Q47.22059,53.29487,46.21938,53.36334Q45.218379999999996,53.43181,44.689,53.475120000000004Q44.15963,53.51822,43.9295,53.557159999999996Q43.69959,53.596090000000004,43.56878,53.649029999999996ZM50.29272,53.77722L51.1014,53.36334Q51.644999999999996,53.83628,52.1972,54.40022Q52.7493,54.96416,53.213300000000004,55.5056Q53.6772,56.047,53.9658,56.4748L53.1297,56.9797Q52.8521,56.537800000000004,52.3866,55.977000000000004Q51.9213,55.4161,51.3718,54.838589999999996Q50.82231,54.26087,50.29272,53.77722ZM65.3806,52.25887L66.2002,51.84216Q66.5782,52.33216,66.9803,52.89762Q67.3823,53.46309,67.7326,53.9975Q68.083,54.531909999999996,68.2851,54.94272L67.39699999999999,55.4373Q67.2058,55.032,66.8733,54.480940000000004Q66.5408,53.92969,66.1512,53.34475Q65.7616,52.75981,65.3806,52.25887ZM60.7046,50.27284L68.2661,50.27284L68.2661,51.22484L60.7046,51.22484L60.7046,50.27284ZM64.7783,55.0722L65.8067,55.0722L65.8067,59.497299999999996Q65.8067,59.7703,65.8688,59.8442Q65.9312,59.9182,66.1571,59.9182Q66.2278,59.9182,66.4236,59.9182Q66.6193,59.9182,66.825,59.9182Q67.0308,59.9182,67.11019999999999,59.9182Q67.2679,59.9182,67.3467,59.7828Q67.4257,59.6474,67.4622,59.2339Q67.4987,58.820499999999996,67.5127,57.9733Q67.6702,58.1144,67.9404,58.229Q68.2108,58.3434,68.4181,58.4042Q68.3823,59.3551,68.2657,59.8862Q68.1493,60.4172,67.9032,60.6261Q67.65729999999999,60.8352,67.2176,60.8352Q67.1452,60.8352,66.9761,60.8352Q66.8073,60.8352,66.6012,60.8352Q66.39529999999999,60.8352,66.2289,60.8352Q66.0626,60.8352,65.9902,60.8352Q65.5068,60.8352,65.2441,60.7164Q64.9813,60.5976,64.8798,60.3067Q64.7783,60.0157,64.7783,59.5028L64.7783,55.0722ZM62.1409,55.0947L63.1777,55.0947Q63.1357,56.2699,62.999700000000004,57.2094Q62.863600000000005,58.1489,62.542699999999996,58.8758Q62.222,59.6027,61.6351,60.143100000000004Q61.0484,60.6836,60.091,61.0741Q60.0302,60.9362,59.9225,60.7763Q59.8151,60.6167,59.6896,60.4651Q59.5642,60.3137,59.4428,60.2255Q60.298100000000005,59.9011,60.8203,59.4461Q61.3424,58.9911,61.6192,58.3758Q61.8959,57.7602,62.004400000000004,56.946Q62.112899999999996,56.1318,62.1409,55.0947ZM60.772400000000005,55.135L60.7453,54.34816L61.3416,53.99925L66.9772,53.52566Q66.9827,53.72428,67.0157,53.974090000000004Q67.049,54.22369,67.07939999999999,54.381190000000004Q65.4812,54.53519,64.4106,54.6415Q63.3403,54.74759,62.669399999999996,54.82306Q61.9987,54.89831,61.625299999999996,54.94862Q61.2519,54.99872,61.070499999999996,55.0405Q60.8892,55.0821,60.772400000000005,55.135ZM63.323899999999995,48.46466L64.2995,48.20762Q64.5358,48.62587,64.7775,49.13797Q65.0194,49.650059999999996,65.143,49.99219L64.10679999999999,50.316159999999996Q63.9939,49.9515,63.7701,49.42978Q63.5463,48.90784,63.323899999999995,48.46466ZM60.772400000000005,55.135Q60.747699999999995,54.99413,60.6809,54.79812Q60.6144,54.60213,60.545100000000005,54.40634Q60.4757,54.21034,60.4119,54.10272Q60.612700000000004,54.05525,60.8581,53.96469Q61.1038,53.87391,61.3044,53.68425Q61.4531,53.54119,61.7543,53.162530000000004Q62.055800000000005,52.78366,62.414500000000004,52.31247Q62.7735,51.84128,63.0942,51.39416Q63.415099999999995,50.94681,63.602599999999995,50.67534L64.8499,50.67534Q64.5876,51.05816,64.2168,51.57156Q63.8463,52.08497,63.4418,52.625280000000004Q63.0373,53.165369999999996,62.6597,53.64269Q62.2822,54.11978,62.0028,54.44112Q62.0028,54.44112,61.876599999999996,54.484Q61.7506,54.52666,61.5691,54.599940000000004Q61.387699999999995,54.67322,61.206199999999995,54.76159Q61.0248,54.84997,60.8986,54.94534Q60.772400000000005,55.0407,60.772400000000005,55.135ZM55.9264,57.4502Q55.9015,57.339600000000004,55.8407,57.1503Q55.7798,56.9611,55.7109,56.7636Q55.641999999999996,56.5661,55.5758,56.4337Q55.807,56.3893,56.0631,56.1423Q56.3195,55.8954,56.65,55.5088Q56.818,55.3183,57.1586,54.88562Q57.4992,54.45272,57.9172,53.85466Q58.335300000000004,53.25659,58.7715,52.559Q59.2077,51.86141,59.5668,51.15287L60.505700000000004,51.71222Q59.674499999999995,53.14241,58.6798,54.49341Q57.685199999999995,55.8442,56.6763,56.8638L56.6763,56.8942Q56.6763,56.8942,56.5614,56.9495Q56.446600000000004,57.0047,56.3013,57.0904Q56.1561,57.1762,56.0413,57.2715Q55.9264,57.3669,55.9264,57.4502ZM55.9264,57.4502L55.8608,56.5558L56.374,56.1843L60.146699999999996,55.4369Q60.1303,55.6519,60.1389,55.9207Q60.1476,56.1896,60.1723,56.3578Q58.8721,56.643299999999996,58.075199999999995,56.8266Q57.2785,57.0097,56.853300000000004,57.1215Q56.428200000000004,57.233000000000004,56.2329,57.3054Q56.037800000000004,57.3778,55.9264,57.4502ZM55.8369,54.08303Q55.8065,53.96688,55.7431,53.76956Q55.6797,53.57203,55.6051,53.35678Q55.530699999999996,53.141310000000004,55.4559,52.99781Q55.6512,52.95341,55.8558,52.72481Q56.0603,52.49622,56.2928,52.14009Q56.4219,51.969030000000004,56.6551,51.57091Q56.8885,51.17278,57.1766,50.62175Q57.4647,50.07072,57.7556,49.44553Q58.0467,48.82034,58.2692,48.18969L59.342,48.68034Q58.9627,49.53894,58.4972,50.40103Q58.0317,51.26312,57.5272,52.04931Q57.022999999999996,52.835499999999996,56.507400000000004,53.46616L56.507400000000004,53.49656Q56.507400000000004,53.49656,56.4077,53.55475Q56.308099999999996,53.612719999999996,56.1721,53.70809Q56.0362,53.803470000000004,55.9365,53.90169Q55.8369,53.99969,55.8369,54.08303ZM55.8369,54.08303L55.8151,53.27606L56.3282,52.94356L58.9533,52.66684Q58.9119,52.87116,58.8872,53.13059Q58.862700000000004,53.38981,58.865700000000004,53.55825Q57.9671,53.67944,57.41,53.76103Q56.8528,53.84262,56.5417,53.896Q56.2307,53.94916,56.0769,53.99247Q55.9233,54.035560000000004,55.8369,54.08303ZM55.582300000000004,59.2552Q56.158699999999996,59.1018,56.8942,58.8944Q57.629599999999996,58.6868,58.4589,58.4379Q59.2882,58.1888,60.1358,57.9383L60.305800000000005,58.852000000000004Q59.1328,59.2326,57.9525,59.6095Q56.7721,59.9862,55.827799999999996,60.2975L55.582300000000004,59.2552ZM71.9918,53.25353L80.1252,53.25353L80.1252,54.24141L71.9918,54.24141L71.9918,53.25353ZM71.9918,56.2983L80.1252,56.2983L80.1252,57.277699999999996L71.9918,57.277699999999996L71.9918,56.2983ZM71.9918,59.3573L80.1252,59.3573L80.1252,60.3452L71.9918,60.3452L71.9918,59.3573ZM71.2805,50.15275L80.9357,50.15275L80.9357,61.0629L79.8417,61.0629L79.8417,51.15922L72.3392,51.15922L72.3392,61.1312L71.2805,61.1312L71.2805,50.15275ZM75.37440000000001,48.21244L76.59389999999999,48.37912Q76.362,49.00453,76.1063,49.63825Q75.85079999999999,50.27175,75.6128,50.73069L74.6763,50.54825Q74.80539999999999,50.21837,74.9391,49.80428Q75.0727,49.39019,75.19239999999999,48.97325Q75.31219999999999,48.556309999999996,75.37440000000001,48.21244ZM90.1048,51.47378L95.7247,51.47378L95.7247,52.48047L90.1048,52.48047L90.1048,51.47378ZM95.2073,51.47378L96.2302,51.47378Q96.2302,51.47378,96.2302,51.57353Q96.2302,51.67328,96.2274,51.79797Q96.2248,51.92244,96.2248,52.00578Q96.1572,54.17097,96.0841,55.6679Q96.011,57.1646,95.917,58.1205Q95.8229,59.0764,95.6954,59.6108Q95.5678,60.1453,95.3828,60.371700000000004Q95.17099999999999,60.6495,94.9396,60.7619Q94.7082,60.8743,94.3673,60.9157Q94.0429,60.943,93.5129,60.94Q92.9829,60.9369,92.4253,60.8973Q92.4058,60.6683,92.3231,60.3787Q92.2407,60.0892,92.0998,59.865700000000004Q92.6928,59.9162,93.19460000000001,59.9276Q93.69669999999999,59.9388,93.9207,59.9388Q94.1057,59.9473,94.2348,59.9042Q94.3638,59.8609,94.4673,59.737899999999996Q94.6134,59.566900000000004,94.723,59.0697Q94.8326,58.5722,94.91839999999999,57.6406Q95.0043,56.7089,95.0719,55.2531Q95.13980000000001,53.79712,95.2073,51.70587L95.2073,51.47378ZM92.1352,48.47844L93.1776,48.47844Q93.169,49.94122,93.1297,51.40094Q93.09049999999999,52.86066,92.94460000000001,54.25212Q92.7989,55.6436,92.4894,56.902699999999996Q92.1798,58.1618,91.6319,59.2278Q91.0841,60.2936,90.23230000000001,61.1025Q90.1468,60.9732,90.0031,60.8302Q89.85929999999999,60.6871,89.7073,60.555Q89.5555,60.4228,89.4177,60.3489Q90.231,59.6093,90.7402,58.612Q91.24969999999999,57.6147,91.5361,56.425399999999996Q91.8226,55.2358,91.9478,53.92291Q92.0729,52.60975,92.10390000000001,51.22834Q92.1352,49.846940000000004,92.1352,48.47844ZM84.2519,49.38734L89.66470000000001,49.38734L89.66470000000001,50.32862L84.2519,50.32862L84.2519,49.38734ZM83.7527,52.72153L89.9197,52.72153L89.9197,53.68447L83.7527,53.68447L83.7527,52.72153ZM87.8737,55.1282L88.7378,54.89372Q89.0069,55.5137,89.28450000000001,56.2358Q89.5621,56.9576,89.8018,57.632Q90.0418,58.306200000000004,90.1656,58.7907L89.2438,59.1062Q89.1257,58.6044,88.90100000000001,57.9206Q88.6763,57.2365,88.4068,56.5022Q88.13730000000001,55.7676,87.8737,55.1282ZM84.2539,59.3952L84.17179999999999,58.5068L84.7021,58.1299L89.2902,57.1637Q89.3096,57.3678,89.3536,57.637100000000004Q89.3976,57.9061,89.43889999999999,58.0689Q88.1448,58.3592,87.2724,58.56Q86.4002,58.7608,85.8475,58.893100000000004Q85.2949,59.0252,84.9832,59.1171Q84.6717,59.209,84.5113,59.2703Q84.3512,59.3313,84.2539,59.3952ZM84.2484,59.3866Q84.2235,59.2759,84.1668,59.0963Q84.1104,58.9167,84.0415,58.7291Q83.9726,58.541399999999996,83.9118,58.4143Q84.0846,58.3644,84.2311,58.1021Q84.3779,57.839600000000004,84.5544,57.436Q84.63839999999999,57.2455,84.7955,56.7999Q84.95259999999999,56.3543,85.14330000000001,55.7532Q85.3343,55.1518,85.5139,54.459720000000004Q85.6937,53.76759,85.8173,53.08947L86.84559999999999,53.41344Q86.6326,54.34903,86.33019999999999,55.317Q86.0282,56.2847,85.68379999999999,57.1742Q85.3397,58.0636,84.9812,58.783699999999996L84.9812,58.8087Q84.9812,58.8087,84.87049999999999,58.8667Q84.7601,58.9246,84.6148,59.0158Q84.4696,59.1068,84.3589,59.2051Q84.2484,59.3033,84.2484,59.3866ZM99.6237,53.536590000000004L107.6374,53.536590000000004L107.6374,54.57063L99.6237,54.57063L99.6237,53.536590000000004ZM107.2784,53.536590000000004L108.37,53.536590000000004Q108.37,53.536590000000004,108.3671,53.6335Q108.3645,53.73041,108.3645,53.84809Q108.3645,53.96578,108.3505,54.040369999999996Q108.2744,55.6488,108.1943,56.7833Q108.1143,57.917500000000004,108.0173,58.6623Q107.9207,59.407,107.7887,59.8364Q107.6568,60.2658,107.4663,60.4727Q107.2493,60.7365,106.9945,60.835Q106.7396,60.9336,106.3793,60.9607Q106.0269,60.9912,105.4254,60.9837Q104.8238,60.9765,104.16210000000001,60.9369Q104.1426,60.7024,104.05449999999999,60.4047Q103.9665,60.1072,103.8147,59.8834Q104.50030000000001,59.9427,105.0876,59.9582Q105.6752,59.9738,105.9239,59.9738Q106.3424,59.9738,106.5213,59.8033Q106.7094,59.609700000000004,106.8457,58.9666Q106.9822,58.3233,107.0879,57.0561Q107.1937,55.7888,107.2784,53.73281L107.2784,53.536590000000004ZM101.5393,48.52328L102.65270000000001,48.83172Q102.1798,50.004,101.5279,51.07631Q100.876,52.14862,100.1106,53.050309999999996Q99.3452,53.95178,98.5137,54.62313Q98.42580000000001,54.51025,98.25739999999999,54.36019Q98.0892,54.21012,97.91810000000001,54.05875Q97.74719999999999,53.90716,97.6147,53.819Q98.45230000000001,53.21394,99.193,52.38378Q99.9339,51.55341,100.53479999999999,50.56925Q101.1357,49.58488,101.5393,48.52328ZM106.4248,48.49528Q106.7556,49.199,107.2163,49.93466Q107.6772,50.67031,108.2177,51.35675Q108.7582,52.04319,109.3338,52.62112Q109.9093,53.198840000000004,110.4553,53.61512Q110.3228,53.71728,110.1615,53.868880000000004Q110.0003,54.020250000000004,109.8542,54.18716Q109.7081,54.35384,109.6059,54.49712Q109.0547,54.020250000000004,108.4778,53.37997Q107.9012,52.73969,107.3523,51.99156Q106.8037,51.24322,106.3152,50.44981Q105.8268,49.65641,105.4549,48.87853L106.4248,48.49528ZM102.4031,53.82578L103.5087,53.82578Q103.3851,54.97313,103.1366,56.059Q102.8883,57.1447,102.3688,58.1115Q101.8493,59.0784,100.9344,59.8558Q100.0196,60.6333,98.5603,61.158500000000004Q98.4995,61.0238,98.38929999999999,60.8584Q98.279,60.6932,98.1508,60.5351Q98.0227,60.3769,97.9043,60.2693Q99.2757,59.815799999999996,100.1203,59.1276Q100.9648,58.4394,101.4251,57.5841Q101.8853,56.7286,102.0921,55.7722Q102.299,54.815619999999996,102.4031,53.82578ZM119.2828,53.272999999999996L123.4937,53.272999999999996L123.4937,54.28275L119.2828,54.28275L119.2828,53.272999999999996ZM118.8013,53.272999999999996L119.8351,53.272999999999996L119.8351,59.3553Q119.8351,59.7489,119.9758,59.8652Q120.1166,59.9814,120.6007,59.9814Q120.7097,59.9814,121.0039,59.9814Q121.2981,59.9814,121.6523,59.9814Q122.0064,59.9814,122.3223,59.9814Q122.6384,59.9814,122.7799,59.9814Q123.0949,59.9814,123.2509,59.805099999999996Q123.4068,59.6288,123.4755,59.1193Q123.5442,58.6098,123.5777,57.6027Q123.7078,57.6939,123.8761,57.786699999999996Q124.0443,57.8792,124.225,57.945499999999996Q124.4059,58.0118,124.5522,58.0477Q124.4883,59.1887,124.3315,59.8219Q124.1747,60.4552,123.8279,60.7149Q123.4812,60.9748,122.8425,60.9748Q122.7561,60.9748,122.517,60.9748Q122.2779,60.9748,121.9681,60.9748Q121.6584,60.9748,121.3502,60.9748Q121.0422,60.9748,120.8101,60.9748Q120.578,60.9748,120.4905,60.9748Q119.8425,60.9748,119.4763,60.8404Q119.1102,60.7061,118.9557,60.3553Q118.8013,60.004599999999996,118.8013,59.3523L118.8013,53.272999999999996ZM118.7538,48.87044L124.0233,48.87044L124.0233,55.2367L123.0059,55.2367L123.0059,49.88259L118.7538,49.88259L118.7538,48.87044ZM112.1471,51.34844L117.7541,51.34844L117.7541,60.8737L116.8839,60.8737L116.8839,52.25428L112.9985,52.25428L112.9985,61.0612L112.1471,61.0612L112.1471,51.34844ZM112.5772,57.002L117.2985,57.002L117.2985,57.7847L112.5772,57.7847L112.5772,57.002ZM112.5772,59.2479L117.2985,59.2479L117.2985,60.1017L112.5772,60.1017L112.5772,59.2479ZM111.8004,48.78469L118.0658,48.78469L118.0658,49.72575L111.8004,49.72575L111.8004,48.78469ZM113.8199,49.04325L114.57,49.04325L114.57,52.00075L113.8199,52.00075L113.8199,49.04325ZM115.3914,49.04325L116.1608,49.04325L116.1608,52.00075L115.3914,52.00075L115.3914,49.04325ZM113.9564,51.98675L114.5481,51.98675L114.5481,53.377340000000004Q114.5481,53.806309999999996,114.4606,54.30025Q114.3733,54.79419,114.1393,55.274100000000004Q113.9054,55.7538,113.4686,56.1581Q113.3962,56.0662,113.2498,55.9376Q113.1037,55.809,112.9992,55.7495Q113.4111,55.3927,113.613,54.98384Q113.8151,54.574780000000004,113.8857,54.154560000000004Q113.9564,53.73434,113.9564,53.36334L113.9564,51.98675ZM115.3258,51.98675L115.926,51.98675L115.926,54.89306Q115.926,55.0226,115.9543,55.0587Q115.9827,55.0945,116.1056,55.0945Q116.1468,55.0945,116.25,55.0945Q116.3535,55.0945,116.4659,55.0945Q116.5783,55.0945,116.6267,55.0945Q116.8093,55.0945,116.8343,55.0556Q116.9347,55.1335,117.0915,55.1932Q117.2484,55.252700000000004,117.3899,55.2916Q117.3402,55.507999999999996,117.1884,55.6082Q117.0366,55.7081,116.7376,55.7081Q116.6903,55.7081,116.5429,55.7081Q116.3955,55.7081,116.2531,55.7081Q116.1109,55.7081,116.0492,55.7081Q115.6338,55.7081,115.4798,55.5567Q115.3258,55.4052,115.3258,54.89853L115.3258,51.98675ZM133.1981,52.96675L138.417,52.96675L138.417,53.94609L133.1981,53.94609L133.1981,52.96675ZM125.8568,49.70716L132.0389,49.70716L132.0389,50.59353L125.8568,50.59353L125.8568,49.70716ZM125.7053,55.2588L132.1024,55.2588L132.1024,56.1758L125.7053,56.1758L125.7053,55.2588ZM125.6414,52.90659L132.2629,52.90659L132.2629,53.79866L125.6414,53.79866L125.6414,52.90659ZM135.8563,53.37975L136.87369999999999,53.37975L136.87369999999999,61.055L135.8563,61.055L135.8563,53.37975ZM126.7655,50.885130000000004L127.6187,50.68956Q127.8378,51.14281,128.00209999999998,51.69822Q128.16660000000002,52.25362,128.2172,52.65569L127.3144,52.89872Q127.2748,52.49359,127.1269,51.92856Q126.9792,51.36331,126.7655,50.885130000000004ZM130.2817,50.66703L131.2532,50.87484Q131.0292,51.49544,130.7818,52.15278Q130.5346,52.80991,130.3099,53.26841L129.44920000000002,53.06912Q129.5953,52.74034,129.7499,52.31553Q129.90460000000002,51.89072,130.0479,51.45191Q130.1914,51.01287,130.2817,50.66703ZM137.1203,48.48741L137.9771,49.268119999999996Q137.30970000000002,49.51619,136.48149999999998,49.72706Q135.65359999999998,49.93794,134.77460000000002,50.10134Q133.8957,50.26475,133.0728,50.382220000000004Q133.0423,50.21378,132.94150000000002,49.98366Q132.8407,49.75331,132.74110000000002,49.590559999999996Q133.5282,49.45362,134.3494,49.28322Q135.17059999999998,49.112809999999996,135.8948,48.90478Q136.6193,48.69675,137.1203,48.48741ZM128.003,48.42878L128.94650000000001,48.188159999999996Q129.1937,48.6075,129.4452,49.12484Q129.6968,49.64219,129.8064,49.99984L128.8246,50.29362Q128.7174,49.92175,128.481,49.39194Q128.2447,48.86212,128.003,48.42878ZM128.5192,53.44122L129.4737,53.44122L129.4737,59.7605Q129.4737,60.126400000000004,129.3862,60.3312Q129.2987,60.5362,129.0626,60.6552Q128.8268,60.7658,128.4587,60.7934Q128.0907,60.8212,127.5826,60.8212Q127.5576,60.6278,127.4677,60.3749Q127.3778,60.122299999999996,127.2695,59.9261Q127.6348,59.9401,127.9315,59.9401Q128.2283,59.9401,128.3403,59.9315Q128.5192,59.9315,128.5192,59.7526L128.5192,53.44122ZM132.74110000000002,49.590559999999996L133.7172,49.590559999999996L133.7172,54.403059999999996Q133.7172,55.156,133.6682,56.0207Q133.6192,56.8852,133.4707,57.7707Q133.3221,58.6562,133.03050000000002,59.4807Q132.7389,60.3052,132.2538,60.9888Q132.1765,60.8837,132.02339999999998,60.760999999999996Q131.8703,60.6383,131.71609999999998,60.5237Q131.5618,60.4093,131.4457,60.3485Q132.0413,59.5072,132.31369999999998,58.4784Q132.5863,57.4494,132.6637,56.3887Q132.74110000000002,55.3277,132.74110000000002,54.403059999999996L132.74110000000002,49.590559999999996ZM130.0337,57.0127L130.75490000000002,56.6378Q131.10250000000002,57.1543,131.4361,57.775999999999996Q131.7697,58.3977,131.9346,58.8439L131.183,59.2794Q131.015,58.8223,130.6855,58.1785Q130.3563,57.5345,130.0337,57.0127ZM126.8952,56.7034L127.749,56.9215Q127.5056,57.6532,127.119,58.3666Q126.7325,59.0797,126.3094,59.578900000000004Q126.1878,59.468199999999996,125.9623,59.305Q125.737,59.1418,125.5764,59.0508Q126.0003,58.5873,126.3396,57.9685Q126.6791,57.3496,126.8952,56.7034ZM140.83530000000002,50.49137L145.09300000000002,50.49137L145.09300000000002,59.6458L140.83530000000002,59.6458L140.83530000000002,58.6962L144.12099999999998,58.6962L144.12099999999998,51.42697L140.83530000000002,51.42697L140.83530000000002,50.49137ZM140.21429999999998,50.49137L141.186,50.49137L141.186,60.759299999999996L140.21429999999998,60.759299999999996L140.21429999999998,50.49137ZM140.7708,54.38447L144.631,54.38447L144.631,55.3146L140.7708,55.3146L140.7708,54.38447ZM142.357,48.20937L143.49,48.41478Q143.281,49.06294,143.035,49.73866Q142.789,50.41416,142.579,50.88381L141.732,50.67053Q141.85,50.326660000000004,141.97,49.89462Q142.089,49.46237,142.195,49.01481Q142.301,48.56725,142.357,48.20937ZM147.088,50.44522L151.388,50.44522L151.388,51.42216L147.088,51.42216L147.088,50.44522ZM151.013,50.44522L152,50.44522Q152,50.44522,152,50.54934Q152,50.65325,152,50.78209Q152,50.91094,151.995,50.98575Q151.913,53.391999999999996,151.82999999999998,55.0556Q151.748,56.7192,151.637,57.7817Q151.526,58.8441,151.382,59.4275Q151.238,60.0109,151.022,60.2708Q150.786,60.579,150.529,60.6943Q150.273,60.8096,149.897,60.8507Q149.54500000000002,60.8866,148.974,60.8737Q148.404,60.861000000000004,147.808,60.8299Q147.79399999999998,60.603300000000004,147.703,60.311099999999996Q147.612,60.0188,147.461,59.8123Q148.15,59.8683,148.72199999999998,59.8823Q149.29500000000002,59.8963,149.54000000000002,59.8963Q149.75,59.8963,149.888,59.8532Q150.025,59.8099,150.139,59.6699Q150.316,59.4794,150.44799999999998,58.9124Q150.57999999999998,58.3454,150.678,57.2952Q150.776,56.2447,150.86,54.61241Q150.945,52.97987,151.013,50.66966L151.013,50.44522ZM147.374,48.18312L148.386,48.41434Q148.132,49.45362,147.775,50.45703Q147.41899999999998,51.46022,146.99099999999999,52.340469999999996Q146.563,53.2205,146.079,53.8925Q145.99099999999999,53.80981,145.828,53.69409Q145.66500000000002,53.57837,145.499,53.46812Q145.334,53.35787,145.207,53.29181Q145.686,52.66641,146.094,51.84828Q146.503,51.03016,146.826,50.08887Q147.15,49.14738,147.374,48.18312ZM146.728,54.08325L147.547,53.61425Q147.946,54.10731,148.372,54.69159Q148.799,55.2757,149.168,55.8232Q149.536,56.3707,149.763,56.7907L148.87,57.3538Q148.662,56.9198,148.304,56.3556Q147.947,55.7913,147.53300000000002,55.192099999999996Q147.118,54.59272,146.728,54.08325ZM158.639,51.03628L159.603,51.14981Q159.172,53.77503,158.368,55.8667Q157.564,57.9582,156.221,59.3582Q156.144,59.2781,155.993,59.169Q155.84300000000002,59.059799999999996,155.68,58.9465Q155.517,58.8332,155.401,58.7724Q156.29500000000002,57.9232,156.92700000000002,56.7384Q157.559,55.5535,157.978,54.10841Q158.397,52.66334,158.639,51.03628ZM162.622,51.06734L163.574,51.18087Q163.164,53.85356,162.348,55.960300000000004Q161.53300000000002,58.067099999999996,160.151,59.4641Q160.065,59.3838,159.912,59.272Q159.75900000000001,59.1602,159.603,59.0513Q159.44799999999998,58.942099999999996,159.326,58.881299999999996Q160.257,58.0321,160.902,56.8461Q161.548,55.66,161.96800000000002,54.19831Q162.388,52.73641,162.622,51.06734ZM155.71800000000002,52.50212L156.363,51.91369Q156.88400000000001,52.52881,157.42000000000002,53.22247Q157.957,53.91591,158.459,54.61525Q158.962,55.3146,159.381,55.9549Q159.801,56.5952,160.083,57.1092L159.397,57.7965Q159.12,57.2687,158.702,56.6089Q158.28300000000002,55.9492,157.78300000000002,55.2334Q157.284,54.51769,156.75400000000002,53.81594Q156.225,53.11419,155.71800000000002,52.50212ZM159.764,52.50519L160.445,51.96356Q160.99599999999998,52.61828,161.55,53.35853Q162.10500000000002,54.09856,162.607,54.85544Q163.108,55.6123,163.519,56.317099999999996Q163.93,57.0219,164.19,57.6029L163.45499999999998,58.2187Q163.197,57.6377,162.791,56.9178Q162.386,56.1977,161.887,55.4299Q161.388,54.66206,160.846,53.90956Q160.304,53.15684,159.764,52.50519ZM154.236,49.07934L165.409,49.07934L165.409,50.083619999999996L155.29000000000002,50.083619999999996L155.29000000000002,61.088499999999996L154.236,61.088499999999996L154.236,49.07934ZM164.75900000000001,49.07934L165.812,49.07934L165.812,59.7187Q165.812,60.2231,165.664,60.4928Q165.517,60.7628,165.17000000000002,60.8984Q164.83100000000002,61.0222,164.237,61.0553Q163.643,61.088499999999996,162.684,61.08Q162.659,60.9397,162.588,60.7494Q162.518,60.5593,162.441,60.3677Q162.364,60.1761,162.27800000000002,60.0383Q162.74599999999998,60.0577,163.18200000000002,60.0632Q163.619,60.0687,163.94299999999998,60.0643Q164.267,60.0599,164.39499999999998,60.0599Q164.594,60.0459,164.676,59.9748Q164.75900000000001,59.903800000000004,164.75900000000001,59.716300000000004L164.75900000000001,49.07934ZM167.93,57.4502Q167.905,57.339600000000004,167.844,57.1558Q167.784,56.9718,167.715,56.7745Q167.64600000000002,56.577,167.58499999999998,56.4444Q167.816,56.4002,168.072,56.1561Q168.329,55.9118,168.656,55.530699999999996Q168.82999999999998,55.3457,169.164,54.92106Q169.499,54.49647,169.921,53.90672Q170.343,53.31675,170.772,52.627250000000004Q171.201,51.93775,171.562,51.24016L172.493,51.805189999999996Q171.657,53.204750000000004,170.665,54.54087Q169.672,55.8768,168.666,56.874700000000004L168.666,56.9051Q168.666,56.9051,168.558,56.960499999999996Q168.45,57.0156,168.298,57.0987Q168.14600000000002,57.1816,168.038,57.2744Q167.93,57.3669,167.93,57.4502ZM167.93,57.4502L167.865,56.5527L168.375,56.1813L172.132,55.354Q172.116,55.5635,172.128,55.8324Q172.141,56.1012,172.161,56.2694Q170.867,56.589,170.076,56.7824Q169.285,56.9756,168.861,57.1Q168.438,57.2245,168.239,57.3013Q168.041,57.3778,167.93,57.4502ZM167.83499999999998,54.08303Q167.81,53.97234,167.747,53.78466Q167.683,53.59697,167.614,53.39681Q167.54500000000002,53.19644,167.47899999999998,53.05862Q167.671,53.01422,167.868,52.78562Q168.066,52.55703,168.29000000000002,52.20944Q168.416,52.02984,168.65,51.63587Q168.88400000000001,51.24191,169.161,50.69809Q169.439,50.15406,169.721,49.53325Q170.003,48.91222,170.219,48.28988L171.226,48.76675Q170.859,49.61681,170.411,50.46906Q169.963,51.32131,169.473,52.09372Q168.982,52.86591,168.481,53.49656L168.481,53.52697Q168.481,53.52697,168.38400000000001,53.58231Q168.287,53.63766,168.15800000000002,53.72603Q168.029,53.81441,167.93200000000002,53.90716Q167.83499999999998,53.99969,167.83499999999998,54.08303ZM167.83499999999998,54.08303L167.813,53.281530000000004L168.312,52.9545L170.847,52.68631Q170.814,52.89916,170.789,53.15575Q170.765,53.41234,170.768,53.57225Q169.9,53.67944,169.36,53.76388Q168.82,53.84809,168.517,53.90147Q168.215,53.95462,168.06799999999998,53.99509Q167.922,54.035560000000004,167.83499999999998,54.08303ZM167.58100000000002,59.2978Q168.174,59.1499,168.941,58.941Q169.708,58.731899999999996,170.573,58.4841Q171.438,58.2362,172.314,57.9912L172.479,58.9019Q171.255,59.2832,170.024,59.6561Q168.79399999999998,60.0289,167.821,60.3487L167.58100000000002,59.2978ZM173.523,55.859700000000004L179.493,55.859700000000004L179.493,60.968L178.481,60.968L178.481,56.7953L174.506,56.7953L174.506,60.9898L173.523,60.9898L173.523,55.859700000000004ZM174.111,59.3525L179.152,59.3525L179.152,60.2966L174.111,60.2966L174.111,59.3525ZM175.076,49.58028L179.235,49.58028L179.235,50.53775L174.598,50.53775L175.076,49.58028ZM178.896,49.58028L179.118,49.58028L179.308,49.54134L179.924,49.93094Q179.271,51.45716,178.142,52.63731Q177.013,53.81725,175.605,54.65112Q174.198,55.485,172.695,55.9781Q172.656,55.8348,172.579,55.6517Q172.503,55.4684,172.414,55.290800000000004Q172.326,55.1131,172.242,55.0142Q173.677,54.58725,174.997,53.85531Q176.316,53.12316,177.34,52.10006Q178.363,51.07697,178.896,49.77431L178.896,49.58028ZM174.986,48.05603L175.946,48.33187Q175.591,49.21869,175.108,50.07597Q174.626,50.93303,174.063,51.67022Q173.5,52.40719,172.891,52.97266Q172.83,52.86503,172.708,52.70972Q172.586,52.55419,172.456,52.396029999999996Q172.326,52.23766,172.221,52.14425Q173.078,51.40072,173.807,50.31987Q174.537,49.23881,174.986,48.05603ZM174.675,50.58084Q175.184,51.61969,176.053,52.475Q176.922,53.33031,178.061,53.95725Q179.2,54.58419,180.496,54.94184Q180.416,55.0657,180.33,55.2365Q180.244,55.4071,180.184,55.580600000000004Q180.125,55.7538,180.086,55.8971Q178.724,55.453900000000004,177.526,54.748689999999996Q176.328,54.04322,175.399,53.106970000000004Q174.47,52.17072,173.894,51.04372L174.675,50.58084ZM189.925,53.66128L190.948,53.66128L190.948,59.2521Q190.948,59.5758,191.038,59.6738Q191.129,59.7718,191.444,59.7718Q191.52,59.7718,191.715,59.7718Q191.91,59.7718,192.138,59.7718Q192.366,59.7718,192.569,59.7718Q192.773,59.7718,192.871,59.7718Q193.085,59.7718,193.188,59.6178Q193.29,59.4638,193.338,58.9948Q193.386,58.525800000000004,193.406,57.6104Q193.516,57.7014,193.684,57.7856Q193.853,57.8698,194.029,57.936099999999996Q194.206,58.0022,194.338,58.038Q194.288,59.0907,194.159,59.6798Q194.031,60.2686,193.748,60.504400000000004Q193.466,60.7402,192.956,60.7402Q192.87,60.7402,192.639,60.7402Q192.408,60.7402,192.136,60.7402Q191.864,60.7402,191.633,60.7402Q191.403,60.7402,191.316,60.7402Q190.771,60.7402,190.467,60.6075Q190.162,60.4747,190.044,60.1518Q189.925,59.8292,189.925,59.2521L189.925,53.66128ZM185.07,51.56434L194.303,51.56434L194.303,52.56009L185.07,52.56009L185.07,51.56434ZM188.299,48.41084L189.347,48.41084Q189.333,49.87428,189.287,51.34691Q189.241,52.81931,189.056,54.22609Q188.871,55.6327,188.478,56.8986Q188.085,58.1642,187.391,59.2256Q186.697,60.2868,185.623,61.0616Q185.496,60.8689,185.272,60.649Q185.049,60.4294,184.848,60.294399999999996Q185.881,59.5774,186.526,58.5849Q187.172,57.5922,187.536,56.4033Q187.9,55.2142,188.062,53.89556Q188.223,52.57694,188.254,51.18284Q188.285,49.78853,188.299,48.41084ZM190.784,49.11369L191.514,48.60116Q191.857,48.90369,192.225,49.28322Q192.594,49.66275,192.923,50.02413Q193.253,50.38528,193.452,50.67075L192.674,51.26662Q192.486,50.97262,192.173,50.599000000000004Q191.861,50.22516,191.497,49.83053Q191.134,49.43569,190.784,49.11369ZM184.798,48.27391L185.794,48.57687Q185.36,49.75834,184.781,50.91247Q184.202,52.06637,183.526,53.085750000000004Q182.851,54.10513,182.12,54.900059999999996Q182.07,54.77625,181.962,54.579589999999996Q181.855,54.38272,181.736,54.18322Q181.617,53.98372,181.517,53.85969Q182.179,53.17544,182.783,52.27528Q183.388,51.37512,183.911,50.35444Q184.434,49.33375,184.798,48.27391ZM183.307,51.92462L184.299,50.93194L184.316,50.94594L184.316,61.1196L183.307,61.1196L183.307,51.92462ZM202.23,48.48522L203.349,48.48522L203.349,58.890299999999996Q203.349,59.4743,203.499,59.6439Q203.65,59.8134,204.156,59.8134Q204.283,59.8134,204.599,59.8134Q204.915,59.8134,205.293,59.8134Q205.671,59.8134,205.997,59.8134Q206.323,59.8134,206.475,59.8134Q206.849,59.8134,207.032,59.5612Q207.214,59.3088,207.297,58.6571Q207.38,58.0054,207.422,56.8117Q207.568,56.9137,207.75,57.019999999999996Q207.932,57.1263,208.12,57.2035Q208.307,57.280699999999996,208.465,57.3251Q208.392,58.6396,208.225,59.409800000000004Q208.059,60.1798,207.672,60.5206Q207.285,60.8614,206.537,60.8614Q206.442,60.8614,206.191,60.8614Q205.941,60.8614,205.617,60.8614Q205.294,60.8614,204.966,60.8614Q204.638,60.8614,204.392,60.8614Q204.146,60.8614,204.051,60.8614Q203.346,60.8614,202.951,60.6867Q202.556,60.5119,202.393,60.0774Q202.23,59.643,202.23,58.8623L202.23,48.48522ZM207.132,50.27044L208.147,50.93675Q207.153,52.33959,205.85,53.58144Q204.548,54.82328,203.117,55.8343Q201.687,56.8454,200.283,57.5723Q200.197,57.450900000000004,200.066,57.309200000000004Q199.936,57.1672,199.79,57.0239Q199.643,56.8804,199.505,56.7785Q200.893,56.0933,202.303,55.1017Q203.713,54.11016,204.972,52.87925Q206.232,51.64834,207.132,50.27044ZM199.375,48.23628L200.423,48.56681Q199.933,49.74828,199.268,50.901089999999996Q198.603,52.05369,197.845,53.0595Q197.087,54.06531,196.292,54.84078Q196.231,54.71675,196.102,54.52272Q195.974,54.32869,195.839,54.12766Q195.704,53.92662,195.593,53.816810000000004Q196.347,53.13781,197.054,52.24903Q197.76,51.36025,198.357,50.33256Q198.955,49.30487,199.375,48.23628ZM197.905,51.71112L198.985,50.63969L199.002,50.65369L199.002,61.1196L197.905,61.1196L197.905,51.71112ZM210.457,49.81741L221.605,49.81741L221.605,50.9035L210.457,50.9035L210.457,49.81741ZM209.728,58.994L222.308,58.994L222.308,60.044200000000004L209.728,60.044200000000004L209.728,58.994ZM215.383,50.36691L216.551,50.36691L216.551,59.4302L215.383,59.4302L215.383,50.36691ZM229.426,51.14544L230.51,51.14544L230.51,61.1032L229.426,61.1032L229.426,51.14544ZM226.099,53.88484L226.099,55.391400000000004L233.985,55.391400000000004L233.985,53.88484L226.099,53.88484ZM226.099,51.55275L226.099,53.04222L233.985,53.04222L233.985,51.55275L226.099,51.55275ZM225.076,50.65762L235.061,50.65762L235.061,56.2834L225.076,56.2834L225.076,50.65762ZM223.753,57.6154L236.284,57.6154L236.284,58.5947L223.753,58.5947L223.753,57.6154ZM226.297,48.71622L227.19,48.2995Q227.616,48.76762,228.05,49.35169Q228.485,49.93575,228.695,50.37522L227.758,50.85034Q227.556,50.42181,227.137,49.81128Q226.718,49.20075,226.297,48.71622ZM232.927,48.30125L234.065,48.67181Q233.646,49.34316,233.162,50.0355Q232.679,50.72762,232.272,51.20975L231.374,50.86391Q231.638,50.52244,231.93,50.07137Q232.222,49.62031,232.488,49.15263Q232.753,48.68472,232.927,48.30125ZM239.202,61.495400000000004L238.889,60.7577Q239.751,60.4001,240.205,59.8554Q240.66,59.3107,240.66,58.516400000000004L240.398,57.3398L241.157,58.399Q241,58.5816,240.806,58.6486Q240.612,58.7155,240.411,58.7155Q239.982,58.7155,239.674,58.4642Q239.366,58.2126,239.366,57.7169Q239.366,57.218199999999996,239.684,56.964Q240.003,56.7098,240.425,56.7098Q241.011,56.7098,241.317,57.1488Q241.623,57.5876,241.623,58.3228Q241.623,59.4555,240.966,60.283699999999996Q240.308,61.1119,239.202,61.495400000000004ZM252.496,49.19703L253.175,48.554339999999996Q253.544,48.86234,253.951,49.23466Q254.358,49.60675,254.721,49.97031Q255.085,50.33387,255.302,50.61628L254.591,51.36725Q254.376,51.07084,254.02,50.69066Q253.665,50.310249999999996,253.265,49.91584Q252.866,49.52144,252.496,49.19703ZM253.569,60.8671L253.375,59.8762L253.659,59.4304L256.15,57.5684Q256.20500000000004,57.7779,256.312,58.0398Q256.418,58.3016,256.504,58.455799999999996Q255.621,59.146,255.072,59.568799999999996Q254.523,59.9917,254.226,60.2371Q253.928,60.4828,253.789,60.6219Q253.65,60.7612,253.569,60.8671ZM251.582,52.633160000000004L254.291,52.633160000000004L254.291,53.648160000000004L251.582,53.648160000000004L251.582,52.633160000000004ZM253.569,60.8671Q253.525,60.7402,253.426,60.5692Q253.328,60.3981,253.221,60.2325Q253.113,60.0672,253.013,59.9705Q253.205,59.8482,253.447,59.5398Q253.69,59.2313,253.69,58.769999999999996L253.69,52.633160000000004L254.696,52.633160000000004L254.696,59.6566Q254.696,59.6566,254.527,59.7874Q254.358,59.9182,254.133,60.1111Q253.908,60.3043,253.738,60.5082Q253.569,60.712199999999996,253.569,60.8671ZM257.682,56.2858L262.589,56.2858L262.589,57.033500000000004L257.682,57.033500000000004L257.682,56.2858ZM256.35,49.339L264.012,49.339L264.012,50.13809L256.35,50.13809L256.35,49.339ZM256.696,51.03716L263.58299999999997,51.03716L263.58299999999997,51.80344L256.696,51.80344L256.696,51.03716ZM255.933,52.77928L264.43399999999997,52.77928L264.43399999999997,53.58384L255.933,53.58384L255.933,52.77928ZM257.666,58.1767L262.615,58.1767L262.615,58.9461L257.666,58.9461L257.666,58.1767ZM256.93399999999997,54.40284L262.627,54.40284L262.627,55.2183L257.922,55.2183L257.922,61.1018L256.93399999999997,61.1018L256.93399999999997,54.40284ZM262.30899999999997,54.40284L263.313,54.40284L263.313,59.9431Q263.313,60.334,263.209,60.5583Q263.10400000000004,60.7827,262.807,60.9017Q262.515,61.0178,262.026,61.0428Q261.53700000000003,61.0677,260.79200000000003,61.059200000000004Q260.762,60.8689,260.672,60.6068Q260.582,60.3448,260.48199999999997,60.1483Q261.017,60.1678,261.467,60.1719Q261.91700000000003,60.1763,262.057,60.1678Q262.30899999999997,60.1593,262.30899999999997,59.9267L262.30899999999997,54.40284ZM259.594,48.23497L260.637,48.23497L260.637,53.03325L259.594,53.03325L259.594,48.23497ZM269.137,56.9517L269.137,58.1227L274.802,58.1227L274.802,56.9517L269.137,56.9517ZM269.137,55.0698L269.137,56.2183L274.802,56.2183L274.802,55.0698L269.137,55.0698ZM268.094,54.31447L275.889,54.31447L275.889,58.878L268.094,58.878L268.094,54.31447ZM265.802,50.01844L278.22,50.01844L278.22,50.94878L265.802,50.94878L265.802,50.01844ZM271.44,48.23497L272.48199999999997,48.23497L272.48199999999997,53.87675L271.44,53.87675L271.44,48.23497ZM270.831,50.29122L271.711,50.64494Q271.243,51.31628,270.61199999999997,51.954589999999996Q269.98,52.59269,269.247,53.14569Q268.514,53.69869,267.73900000000003,54.14669Q266.96500000000003,54.59469,266.19,54.89962Q266.118,54.76706,265.994,54.61547Q265.87,54.46387,265.744,54.31359Q265.619,54.163309999999996,265.503,54.06116Q266.25,53.797560000000004,267.01800000000003,53.40075Q267.786,53.00372,268.502,52.503Q269.217,52.00206,269.815,51.44097Q270.413,50.87988,270.831,50.29122ZM273.05899999999997,50.30281Q273.483,50.87769,274.09299999999996,51.42325Q274.704,51.96859,275.43,52.44416Q276.156,52.91972,276.94100000000003,53.30275Q277.726,53.68556,278.501,53.92662Q278.385,54.02331,278.25,54.17644Q278.115,54.32934,277.997,54.49078Q277.88,54.652,277.8,54.79288Q277.017,54.50216,276.228,54.06816Q275.43899999999996,53.63416,274.7,53.08969Q273.962,52.54522,273.324,51.92681Q272.68600000000004,51.30841,272.207,50.64559L273.05899999999997,50.30281ZM266.029,59.725899999999996L278.022,59.725899999999996L278.022,60.6672L266.029,60.6672L266.029,59.725899999999996ZM282.637,54.46869L290.796,54.46869L290.796,61.15L289.751,61.15L289.751,55.3061L283.64300000000003,55.3061L283.64300000000003,61.15L282.637,61.15L282.637,54.46869ZM279.822,52.616749999999996L292.178,52.616749999999996L292.178,53.489779999999996L279.822,53.489779999999996L279.822,52.616749999999996ZM280.842,50.73769L291.368,50.73769L291.368,51.57484L280.842,51.57484L280.842,50.73769ZM283.312,56.2618L290.188,56.2618L290.188,56.9983L283.312,56.9983L283.312,56.2618ZM283.312,57.9882L290.188,57.9882L290.188,58.7164L283.312,58.7164L283.312,57.9882ZM283.219,59.7513L290.193,59.7513L290.193,60.5887L283.219,60.5887L283.219,59.7513ZM290.56100000000004,48.35134L291.231,49.11019Q290.251,49.30378,289.004,49.44159Q287.75800000000004,49.57919,286.372,49.66778Q284.986,49.756370000000004,283.576,49.80297Q282.166,49.84956,280.86400000000003,49.85262Q280.85,49.67587,280.786,49.439840000000004Q280.723,49.20381,280.648,49.03778Q281.927,49.02072,283.317,48.9785Q284.706,48.93606,286.051,48.85184Q287.39599999999996,48.76741,288.55899999999997,48.64381Q289.723,48.52022,290.56100000000004,48.35134ZM284.821,49.30947L285.911,49.54156Q285.443,51.22878,284.69,52.81362Q283.937,54.39847,282.817,55.728899999999996Q281.697,57.0593,280.131,57.997299999999996Q280.05899999999997,57.879,279.942,57.7248Q279.825,57.5703,279.702,57.4244Q279.579,57.2783,279.469,57.1762Q280.961,56.3208,282.01599999999996,55.0713Q283.071,53.82184,283.75800000000004,52.33762Q284.445,50.85319,284.821,49.30947ZM296.304,50.46403L299.367,50.46403L299.367,51.43791L296.304,51.43791L296.304,50.46403ZM299.047,50.46403L299.251,50.46403L299.453,50.42509L300.147,50.61584Q299.818,53.48388,299.03,55.546Q298.242,57.608000000000004,297.056,58.9793Q295.87,60.3507,294.34299999999996,61.137699999999995Q294.252,61.0192,294.1,60.8579Q293.949,60.6967,293.779,60.5462Q293.61,60.3959,293.477,60.3187Q294.993,59.587,296.13800000000003,58.3452Q297.283,57.1031,298.027,55.2214Q298.771,53.33972,299.047,50.71253L299.047,50.46403ZM296.067,52.22387Q296.461,54.13991,297.073,55.4581Q297.686,56.7761,298.47,57.592Q299.254,58.4077,300.162,58.849199999999996Q301.071,59.2904,302.062,59.4472Q303.053,59.6038,304.076,59.6038Q304.237,59.6038,304.555,59.6038Q304.873,59.6038,305.249,59.6038Q305.626,59.6038,305.965,59.6012Q306.304,59.5984,306.507,59.5929Q306.421,59.725300000000004,306.333,59.925200000000004Q306.244,60.1251,306.181,60.3288Q306.117,60.5327,306.081,60.6899L305.676,60.6899L304.024,60.6899Q302.86,60.6899,301.757,60.5055Q300.654,60.3211,299.663,59.827600000000004Q298.672,59.3341,297.826,58.4233Q296.98,57.5124,296.322,56.0649Q295.664,54.61744,295.236,52.51131L296.067,52.22387ZM296.086,48.29469L297.192,48.55784Q296.943,49.976,296.56100000000004,51.3235Q296.179,52.67078,295.682,53.80303Q295.185,54.93528,294.58500000000004,55.7333Q294.442,55.6038,294.19100000000003,55.4275Q293.94,55.2509,293.73,55.1488Q294.289,54.411590000000004,294.747,53.33272Q295.206,52.25384,295.55,50.95994Q295.895,49.66603,296.086,48.29469ZM302.249,52.17225L303.092,51.68991Q303.628,52.26937,304.207,52.94531Q304.786,53.62125,305.294,54.27203Q305.803,54.92259,306.117,55.4345L305.197,56.0078Q304.908,55.4962,304.417,54.83028Q303.926,54.164410000000004,303.355,53.46638Q302.785,52.768119999999996,302.249,52.17225ZM301.614,48.26669L302.73,48.26669L302.73,58.5689L301.614,58.5689L301.614,48.26669ZM313.662,52.446780000000004L313.662,54.24862L318.861,54.24862L318.861,52.446780000000004L313.662,52.446780000000004ZM313.662,49.80275L313.662,51.58206L318.861,51.58206L318.861,49.80275L313.662,49.80275ZM312.699,48.88881L319.87,48.88881L319.87,55.1623L312.699,55.1623L312.699,48.88881ZM312.529,56.806200000000004L320.065,56.806200000000004L320.065,57.7637L312.529,57.7637L312.529,56.806200000000004ZM311.451,59.694L320.535,59.694L320.535,60.6569L311.451,60.6569L311.451,59.694ZM307.642,49.185L312.009,49.185L312.009,50.17287L307.642,50.17287L307.642,49.185ZM307.785,53.23713L311.808,53.23713L311.808,54.21953L307.785,54.21953L307.785,53.23713ZM307.491,58.5974Q308.061,58.434799999999996,308.784,58.215199999999996Q309.507,57.995400000000004,310.313,57.7267Q311.12,57.4579,311.931,57.191900000000004L312.111,58.2017Q310.972,58.5821,309.827,58.971000000000004Q308.682,59.359899999999996,307.751,59.6703L307.491,58.5974ZM309.383,49.57678L310.393,49.57678L310.393,58.2504L309.383,58.4504L309.383,49.57678ZM315.805,49.32412L316.722,49.32412L316.722,54.7115L316.798,54.7115L316.798,60.126400000000004L315.728,60.126400000000004L315.728,54.7115L315.805,54.7115L315.805,49.32412Z" fill="#6B7280" fill-opacity="1" style="mix-blend-mode:passthrough"/></g></g></g></g><g><rect x="951" y="21" width="228.9375" height="40" rx="0" fill="#000000" fill-opacity="0" style="mix-blend-mode:passthrough"/><g><rect x="951" y="31" width="108.921875" height="20" rx="0" fill="#000000" fill-opacity="0" style="mix-blend-mode:passthrough"/><g><path d="M958.34863,44.9609L958.34863,46L951.833984,46L951.833984,45.0908L955.09473,41.4609Q955.69629,40.79102,956.02783,40.32275Q956.35938,39.85449,956.49268,39.48193Q956.62598,39.10938,956.62598,38.71973Q956.62598,38.22754,956.42432,37.82764Q956.22266,37.42773,955.83301,37.18848Q955.44336,36.94922,954.88965,36.94922Q954.22656,36.94922,953.78564,37.20557Q953.34473,37.46191,953.12598,37.91992Q952.90723,38.37793,952.90723,38.97266L951.642578,38.97266Q951.642578,38.13184,952.01172,37.43457Q952.38086,36.7373,953.10547,36.32373Q953.83008,35.91016,954.88965,35.91016Q955.83301,35.91016,956.50293,36.2417Q957.17285,36.57324,957.53174,37.17139Q957.89062,37.76953,957.89062,38.56934Q957.89062,39.00684,957.74365,39.454589999999996Q957.59668,39.90234,957.34033,40.34668Q957.08398,40.79102,956.74561,41.2217Q956.40723,41.6523,956.02441,42.0693L953.3584,44.9609L958.34863,44.9609ZM965.9434,40.23047L965.9434,41.748Q965.9434,42.9717,965.7246,43.8125Q965.5059,44.6533,965.0957,45.166Q964.6855,45.6787,964.1079,45.9077Q963.5303,46.1367,962.8057,46.1367Q962.2314,46.1367,961.7461,45.9932Q961.2607,45.8496,960.87451,45.5317Q960.48828,45.2139,960.21484,44.7012Q959.94141,44.1885,959.79785,43.457Q959.6543,42.7256,959.6543,41.748L959.6543,40.23047Q959.6543,39.00684,959.87646,38.17969Q960.09863,37.35254,960.50879,36.8501Q960.91895,36.34766,961.4966,36.12891Q962.0742,35.91016,962.792,35.91016Q963.373,35.91016,963.8618,36.050290000000004Q964.3506,36.19043,964.7334,36.49463Q965.1162,36.79883,965.3862,37.30127Q965.6562,37.80371,965.7998,38.52832Q965.9434,39.25293,965.9434,40.23047ZM964.6719,41.9531L964.6719,40.01855Q964.6719,39.34863,964.5933,38.83936Q964.5146,38.33008,964.3643,37.96777Q964.2139,37.60547,963.9849,37.37988Q963.7559,37.1543,963.4585,37.048339999999996Q963.1611,36.94238,962.792,36.94238Q962.3408,36.94238,961.9922,37.10986Q961.6436,37.27734,961.4077,37.63965Q961.1719,38.00195,961.0488,38.58984Q960.92578,39.17773,960.92578,40.01855L960.92578,41.9531Q960.92578,42.623,961.0044,43.1357Q961.083,43.6484,961.2402,44.021Q961.3975,44.3936,961.623,44.6328Q961.8486,44.8721,962.146,44.984899999999996Q962.4434,45.0977,962.8057,45.0977Q963.2705,45.0977,963.6191,44.9199Q963.9678,44.7422,964.2036,44.3628Q964.4395,43.9834,964.5557,43.3853Q964.6719,42.7871,964.6719,41.9531ZM974.085,44.9609L974.085,46L967.5703,46L967.5703,45.0908L970.8311,41.4609Q971.4326,40.79102,971.7642,40.32275Q972.0957,39.85449,972.229,39.48193Q972.3623,39.10938,972.3623,38.71973Q972.3623,38.22754,972.1606,37.82764Q971.959,37.42773,971.5693,37.18848Q971.1797,36.94922,970.626,36.94922Q969.9629,36.94922,969.522,37.20557Q969.0811,37.46191,968.8623,37.91992Q968.6436,38.37793,968.6436,38.97266L967.3789,38.97266Q967.3789,38.13184,967.748,37.43457Q968.1172,36.7373,968.8418,36.32373Q969.5664,35.91016,970.626,35.91016Q971.5693,35.91016,972.2393,36.2417Q972.9092,36.57324,973.2681,37.17139Q973.627,37.76953,973.627,38.56934Q973.627,39.00684,973.48,39.454589999999996Q973.333,39.90234,973.0767,40.34668Q972.8203,40.79102,972.4819,41.2217Q972.1436,41.6523,971.7607,42.0693L969.0947,44.9609L974.085,44.9609ZM977.2773,40.40137L978.1797,40.40137Q978.8428,40.40137,979.2769,40.1792Q979.7109,39.95703,979.9263,39.5708Q980.1416,39.18457,980.1416,38.69922Q980.1416,38.125,979.9502,37.73535Q979.7588,37.3457,979.376,37.14746Q978.9932,36.94922,978.4053,36.94922Q977.8721,36.94922,977.4653,37.15771Q977.0586,37.36621,976.8296,37.74902Q976.6006,38.13184,976.6006,38.65137L975.3359,38.65137Q975.3359,37.89258,975.7188,37.27051Q976.1016,36.64844,976.7954,36.2793Q977.4893,35.91016,978.4053,35.91016Q979.3076,35.91016,979.9844,36.228030000000004Q980.6611,36.5459,981.0371,37.17139Q981.4131,37.79688,981.4131,38.72656Q981.4131,39.10254,981.2388,39.52979Q981.0645,39.95703,980.6987,40.32617Q980.333,40.69531,979.752,40.93115Q979.1709,41.167,978.3574,41.167L977.2773,41.167L977.2773,40.40137ZM977.2773,41.4404L977.2773,40.68164L978.3574,40.68164Q979.3076,40.68164,979.9297,40.90723Q980.5518,41.1328,980.9106,41.5088Q981.2695,41.8848,981.4165,42.332499999999996Q981.5635,42.7803,981.5635,43.2246Q981.5635,43.9219,981.3276,44.4619Q981.0918,45.002,980.6646,45.3779Q980.2373,45.7539,979.6631,45.9453Q979.0889,46.1367,978.4121,46.1367Q977.7627,46.1367,977.1919,45.9521Q976.6211,45.7676,976.1836,45.4155Q975.7461,45.0635,975.5,44.547399999999996Q975.2539,44.0312,975.2539,43.3682L976.5186,43.3682Q976.5186,43.8877,976.7476,44.2773Q976.9766,44.667,977.4038,44.8823Q977.8311,45.0977,978.4121,45.0977Q978.9932,45.0977,979.4136,44.896Q979.834,44.6943,980.063,44.2842Q980.292,43.874,980.292,43.252Q980.292,42.6299,980.0322,42.230000000000004Q979.7725,41.8301,979.2974,41.6353Q978.8223,41.4404,978.1797,41.4404L977.2773,41.4404ZM986.0684,41.249L986.0684,42.2881L982.7324,42.2881L982.7324,41.249L986.0684,41.249ZM993.417,40.23047L993.417,41.748Q993.417,42.9717,993.1982,43.8125Q992.9795,44.6533,992.5693,45.166Q992.1592,45.6787,991.5815,45.9077Q991.0039,46.1367,990.2793,46.1367Q989.7051,46.1367,989.2197,45.9932Q988.7344,45.8496,988.3481,45.5317Q987.9619,45.2139,987.6885,44.7012Q987.415,44.1885,987.2715000000001,43.457Q987.1279,42.7256,987.1279,41.748L987.1279,40.23047Q987.1279,39.00684,987.3501,38.17969Q987.5723,37.35254,987.9824,36.8501Q988.3926,36.34766,988.9702,36.12891Q989.5479,35.91016,990.2656,35.91016Q990.8467,35.91016,991.3354,36.050290000000004Q991.8242,36.19043,992.207,36.49463Q992.5898,36.79883,992.8599,37.30127Q993.1299,37.80371,993.2734,38.52832Q993.417,39.25293,993.417,40.23047ZM992.1455,41.9531L992.1455,40.01855Q992.1455,39.34863,992.0669,38.83936Q991.9883,38.33008,991.8379,37.96777Q991.6875,37.60547,991.4585,37.37988Q991.2295,37.1543,990.9321,37.048339999999996Q990.6348,36.94238,990.2656,36.94238Q989.8145,36.94238,989.4658,37.10986Q989.1172,37.27734,988.8813,37.63965Q988.6455,38.00195,988.5225,38.58984Q988.3994,39.17773,988.3994,40.01855L988.3994,41.9531Q988.3994,42.623,988.478,43.1357Q988.5566,43.6484,988.7139,44.021Q988.8711,44.3936,989.0967,44.6328Q989.3223,44.8721,989.6196,44.984899999999996Q989.917,45.0977,990.2793,45.0977Q990.7441,45.0977,991.0928,44.9199Q991.4414,44.7422,991.6772,44.3628Q991.9131,43.9834,992.0293,43.3853Q992.1455,42.7871,992.1455,41.9531ZM996.2949,44.9404L996.4248,44.9404Q997.5186,44.9404,998.2021,44.6328Q998.8857,44.3252,999.2549,43.8057Q999.624,43.2861,999.7607,42.6333Q999.8975,41.9805,999.8975,41.29L999.8975,39.76562Q999.8975,39.08887,999.7437,38.5625Q999.5898,38.03613,999.3198,37.68066Q999.0498,37.3252,998.708,37.14062Q998.3662,36.95605,997.9834,36.95605Q997.5459,36.95605,997.2007,37.13037Q996.8555,37.30469,996.6196,37.61914Q996.3838,37.93359,996.2607,38.35742Q996.1377,38.78125,996.1377,39.28027Q996.1377,39.72461,996.2471,40.1416Q996.3564,40.55859,996.582,40.89355Q996.8076,41.2285,997.146,41.4233Q997.4844,41.6182,997.9424,41.6182Q998.3662,41.6182,998.7388,41.4507Q999.1113,41.2832,999.4019,40.99268Q999.6924,40.70215,999.8667,40.33301Q1000.0409999999999,39.96387,1000.0684,39.56055L1000.6699,39.56055Q1000.6699,40.12793,1000.4478,40.678219999999996Q1000.2256,41.2285,999.8291,41.6797Q999.4326,42.1309,998.8994,42.4009Q998.3662,42.6709,997.7373,42.6709Q996.999,42.6709,996.4590000000001,42.3838Q995.9189,42.0967,995.5737,41.6182Q995.2284999999999,41.1396,995.061,40.548339999999996Q994.8936,39.95703,994.8936,39.34863Q994.8936,38.6377,995.0918,38.01562Q995.29,37.39355,995.6797,36.918459999999996Q996.0693,36.44336,996.647,36.17676Q997.2246,35.91016,997.9834,35.91016Q998.8379,35.91016,999.4395,36.25195Q1000.0409999999999,36.59375,1000.4204,37.16797Q1000.7998,37.74219,1000.9775,38.45996Q1001.1553,39.17773,1001.1553,39.93652L1001.1553,40.39453Q1001.1553,41.167,1001.0562,41.9634Q1000.957,42.7598,1000.6802,43.4844Q1000.4033,44.209,999.877,44.7798Q999.3506,45.3506,998.5063,45.6821Q997.6621,46.0137,996.4248,46.0137L996.2949,46.0137L996.2949,44.9404ZM1005.6738,41.249L1005.6738,42.2881L1002.3379,42.2881L1002.3379,41.249L1005.6738,41.249ZM1013.0225,40.23047L1013.0225,41.748Q1013.0225,42.9717,1012.8037,43.8125Q1012.585,44.6533,1012.1748,45.166Q1011.7646,45.6787,1011.187,45.9077Q1010.6094,46.1367,1009.8848,46.1367Q1009.3105,46.1367,1008.8252,45.9932Q1008.3398,45.8496,1007.9536,45.5317Q1007.5674,45.2139,1007.2939,44.7012Q1007.0205,44.1885,1006.877,43.457Q1006.7334,42.7256,1006.7334,41.748L1006.7334,40.23047Q1006.7334,39.00684,1006.9556,38.17969Q1007.1777,37.35254,1007.5879,36.8501Q1007.998,36.34766,1008.5757,36.12891Q1009.1533,35.91016,1009.8711,35.91016Q1010.4521,35.91016,1010.9409,36.050290000000004Q1011.4297,36.19043,1011.8125,36.49463Q1012.1953,36.79883,1012.4653,37.30127Q1012.7354,37.80371,1012.8789,38.52832Q1013.0225,39.25293,1013.0225,40.23047ZM1011.751,41.9531L1011.751,40.01855Q1011.751,39.34863,1011.6724,38.83936Q1011.5938,38.33008,1011.4434,37.96777Q1011.293,37.60547,1011.064,37.37988Q1010.835,37.1543,1010.5376,37.048339999999996Q1010.2402,36.94238,1009.8711,36.94238Q1009.4199,36.94238,1009.0713,37.10986Q1008.7227,37.27734,1008.4868,37.63965Q1008.251,38.00195,1008.1279,38.58984Q1008.0049,39.17773,1008.0049,40.01855L1008.0049,41.9531Q1008.0049,42.623,1008.0835,43.1357Q1008.1621,43.6484,1008.3193,44.021Q1008.4766,44.3936,1008.7021,44.6328Q1008.9277,44.8721,1009.2251,44.984899999999996Q1009.5225,45.0977,1009.8848,45.0977Q1010.3496,45.0977,1010.6982,44.9199Q1011.0469,44.7422,1011.2827,44.3628Q1011.5186,43.9834,1011.6348,43.3853Q1011.751,42.7871,1011.751,41.9531ZM1018.7988,35.99219L1018.7988,46L1017.5342,46L1017.5342,37.57129L1014.9844,38.50098L1014.9844,37.35938L1018.6006,35.99219L1018.7988,35.99219ZM1030.1396,35.99219L1030.1396,46L1028.875,46L1028.875,37.57129L1026.3252,38.50098L1026.3252,37.35938L1029.9414,35.99219L1030.1396,35.99219ZM1038.0078,35.99219L1038.0078,46L1036.7432,46L1036.7432,37.57129L1034.1934,38.50098L1034.1934,37.35938L1037.8096,35.99219L1038.0078,35.99219ZM1041.8018,45.3301Q1041.8018,45.0088,1042.0034,44.7866Q1042.2051,44.5645,1042.5879,44.5645Q1042.9707,44.5645,1043.1724,44.7866Q1043.374,45.0088,1043.374,45.3301Q1043.374,45.6445,1043.1724,45.8633Q1042.9707,46.082,1042.5879,46.082Q1042.2051,46.082,1042.0034,45.8633Q1041.8018,45.6445,1041.8018,45.3301ZM1041.8086,39.29395Q1041.8086,38.97266,1042.0103,38.75049Q1042.2119,38.52832,1042.5947,38.52832Q1042.9775,38.52832,1043.1792,38.75049Q1043.3809,38.97266,1043.3809,39.29395Q1043.3809,39.6084,1043.1792,39.82715Q1042.9775,40.0459,1042.5947,40.0459Q1042.2119,40.0459,1042.0103,39.82715Q1041.8086,39.6084,1041.8086,39.29395ZM1046.9561,40.40137L1047.8584,40.40137Q1048.5215,40.40137,1048.9556,40.1792Q1049.3896,39.95703,1049.605,39.5708Q1049.8203,39.18457,1049.8203,38.69922Q1049.8203,38.125,1049.6289,37.73535Q1049.4375,37.3457,1049.0547,37.14746Q1048.6719,36.94922,1048.084,36.94922Q1047.5508,36.94922,1047.144,37.15771Q1046.7373,37.36621,1046.5083,37.74902Q1046.2793,38.13184,1046.2793,38.65137L1045.0146,38.65137Q1045.0146,37.89258,1045.3975,37.27051Q1045.7803,36.64844,1046.4741,36.2793Q1047.1680000000001,35.91016,1048.084,35.91016Q1048.9863,35.91016,1049.6631,36.228030000000004Q1050.3398,36.5459,1050.7158,37.17139Q1051.092,37.79688,1051.092,38.72656Q1051.092,39.10254,1050.9175,39.52979Q1050.7432,39.95703,1050.3774,40.32617Q1050.0117,40.69531,1049.4307,40.93115Q1048.8496,41.167,1048.0361,41.167L1046.9561,41.167L1046.9561,40.40137ZM1046.9561,41.4404L1046.9561,40.68164L1048.0361,40.68164Q1048.9863,40.68164,1049.6084,40.90723Q1050.2305000000001,41.1328,1050.5894,41.5088Q1050.9482,41.8848,1051.095,42.332499999999996Q1051.242,42.7803,1051.242,43.2246Q1051.242,43.9219,1051.006,44.4619Q1050.7705,45.002,1050.3433,45.3779Q1049.916,45.7539,1049.3418,45.9453Q1048.7676,46.1367,1048.0908,46.1367Q1047.4414,46.1367,1046.8706,45.9521Q1046.2998,45.7676,1045.8623,45.4155Q1045.4248,45.0635,1045.1787,44.547399999999996Q1044.9326,44.0312,1044.9326,43.3682L1046.1973,43.3682Q1046.1973,43.8877,1046.4263,44.2773Q1046.6553,44.667,1047.0825,44.8823Q1047.5098,45.0977,1048.0908,45.0977Q1048.6719,45.0977,1049.0923,44.896Q1049.5127,44.6943,1049.7417,44.2842Q1049.9707,43.874,1049.9707,43.252Q1049.9707,42.6299,1049.7109,42.230000000000004Q1049.4512,41.8301,1048.9761,41.6353Q1048.501,41.4404,1047.8584,41.4404L1046.9561,41.4404ZM1059.227,40.23047L1059.227,41.748Q1059.227,42.9717,1059.008,43.8125Q1058.789,44.6533,1058.379,45.166Q1057.969,45.6787,1057.391,45.9077Q1056.813,46.1367,1056.089,46.1367Q1055.515,46.1367,1055.029,45.9932Q1054.544,45.8496,1054.158,45.5317Q1053.771,45.2139,1053.498,44.7012Q1053.225,44.1885,1053.081,43.457Q1052.938,42.7256,1052.938,41.748L1052.938,40.23047Q1052.938,39.00684,1053.16,38.17969Q1053.382,37.35254,1053.792,36.8501Q1054.202,36.34766,1054.78,36.12891Q1055.357,35.91016,1056.075,35.91016Q1056.656,35.91016,1057.145,36.050290000000004Q1057.634,36.19043,1058.017,36.49463Q1058.399,36.79883,1058.669,37.30127Q1058.939,37.80371,1059.083,38.52832Q1059.227,39.25293,1059.227,40.23047ZM1057.955,41.9531L1057.955,40.01855Q1057.955,39.34863,1057.876,38.83936Q1057.798,38.33008,1057.647,37.96777Q1057.497,37.60547,1057.268,37.37988Q1057.039,37.1543,1056.742,37.048339999999996Q1056.444,36.94238,1056.075,36.94238Q1055.624,36.94238,1055.275,37.10986Q1054.927,37.27734,1054.691,37.63965Q1054.455,38.00195,1054.3319999999999,38.58984Q1054.209,39.17773,1054.209,40.01855L1054.209,41.9531Q1054.209,42.623,1054.288,43.1357Q1054.366,43.6484,1054.523,44.021Q1054.681,44.3936,1054.906,44.6328Q1055.132,44.8721,1055.429,44.984899999999996Q1055.727,45.0977,1056.089,45.0977Q1056.554,45.0977,1056.902,44.9199Q1057.251,44.7422,1057.487,44.3628Q1057.723,43.9834,1057.839,43.3853Q1057.955,42.7871,1057.955,41.9531Z" fill="#9CA3AF" fill-opacity="1" style="mix-blend-mode:passthrough"/></g></g></g></g></svg>