<svg xmlns="http://www.w3.org/2000/svg" xmlns:xlink="http://www.w3.org/1999/xlink" fill="none" version="1.1" width="112.015625" height="42" viewBox="0 0 112.015625 42"><g><rect x="0" y="0" width="112.015625" height="42" rx="4" fill="#3B82F6" fill-opacity="1" style="mix-blend-mode:passthrough"/><g><rect x="24" y="11" width="64.015625" height="19" rx="0" fill="#000000" fill-opacity="0" style="mix-blend-mode:passthrough"/><g><path d="M31.840062500000002,22.3245L38.2456125,22.3245L38.2456125,23.378500000000003L31.840062500000002,23.378500000000003L31.840062500000002,22.3245ZM31.9120625,19.453L38.2198125,19.453L38.2198125,20.4163L31.9120625,20.4163L31.9120625,19.453ZM31.9183125,16.646L38.2261125,16.646L38.2261125,17.683999999999997L31.9183125,17.683999999999997L31.9183125,16.646ZM34.3208125,17.194000000000003L35.3903125,17.194000000000003L35.3903125,26.7005L34.3208125,26.7005L34.3208125,17.194000000000003ZM37.687312500000004,16.646L38.8351125,16.646L38.8351125,25.8363Q38.8351125,26.29,38.7266125,26.5497Q38.6181125,26.8097,38.3156125,26.9522Q38.0133125,27.091,37.4946125,27.1195Q36.9761125,27.148,36.2321125,27.148Q36.2098125,26.9175,36.1226125,26.608Q36.0356125,26.2987,35.9278125,26.0745Q36.4446125,26.0905,36.8731125,26.0952Q37.3018125,26.1003,37.4368125,26.0905Q37.687312500000004,26.0805,37.687312500000004,25.8335L37.687312500000004,16.646ZM31.1018125,16.646L32.2148125,16.646L32.2148125,20.9152Q32.2148125,21.6595,32.1458125,22.499299999999998Q32.0770625,23.339,31.8783125,24.196199999999997Q31.6795625,25.0532,31.2983125,25.8468Q30.9170625,26.6402,30.2985625,27.3018Q30.2040625,27.194,30.0340625,27.0645Q29.8640625,26.935,29.6845625,26.8165Q29.5050625,26.6982,29.3663125,26.635Q30.1518125,25.8197,30.5143125,24.8352Q30.8768125,23.8507,30.9893125,22.8293Q31.1018125,21.8077,31.1018125,20.909L31.1018125,16.646ZM32.8368125,12.509L33.8973125,12.78675Q33.2885625,14.448,32.3480625,15.94125Q31.4075625,17.4345,30.3015625,18.463Q30.2383125,18.346249999999998,30.107062499999998,18.178Q29.9758125,18.0095,29.833312499999998,17.83325Q29.6910625,17.657,29.5770625,17.55625Q30.611562499999998,16.641,31.4625625,15.3095Q32.3135625,13.978,32.8368125,12.509ZM32.8565625,13.8955L36.536612500000004,13.8955L36.536612500000004,14.9025L32.3483125,14.9025L32.8565625,13.8955ZM36.2276125,13.8955L36.4893125,13.8955L36.6791125,13.844750000000001L37.454612499999996,14.362Q37.1861125,14.8615,36.8233125,15.40025Q36.460612499999996,15.939,36.0738125,16.433Q35.687312500000004,16.92675,35.3228125,17.30375Q35.1651125,17.171,34.9318125,17.0215Q34.698612499999996,16.87175,34.518812499999996,16.76775Q34.8361125,16.419249999999998,35.1613125,15.9505Q35.4866125,15.4815,35.7736125,14.998000000000001Q36.0606125,14.5145,36.2276125,14.11975L36.2276125,13.8955ZM24.9113125,13.4125L30.2968125,13.4125L30.2968125,14.513L24.9113125,14.513L24.9113125,13.4125ZM26.4178125,18.338749999999997L29.7845625,18.338749999999997L29.7845625,25.2585L26.4178125,25.2585L26.4178125,24.189L28.7588125,24.189L28.7588125,19.418L26.4178125,19.418L26.4178125,18.338749999999997ZM26.9090625,13.9505L28.019312499999998,14.186499999999999Q27.7543125,15.687000000000001,27.3505625,17.13025Q26.9470625,18.5735,26.4033125,19.828Q25.8595625,21.0822,25.1293125,22.0415Q25.0875625,21.8872,24.9920625,21.644199999999998Q24.8965625,21.401,24.7803125,21.1515Q24.6643125,20.902,24.5628125,20.7515Q25.4665625,19.517,26.0370625,17.7295Q26.6078125,15.942,26.9090625,13.9505ZM25.9493125,18.338749999999997L26.9883125,18.338749999999997L26.9883125,26.547L25.9493125,26.547L25.9493125,18.338749999999997ZM49.9616125,12.57225L51.1778125,12.57225Q51.1715125,14.287749999999999,51.1173125,15.9985Q51.063312499999995,17.709,50.8571125,19.339199999999998Q50.6508125,20.9695,50.1951125,22.4345Q49.7396125,23.8993,48.9368125,25.1332Q48.1341125,26.3673,46.877112499999996,27.2865Q46.7258125,27.0665,46.462312499999996,26.829Q46.1988125,26.5917,45.9528125,26.444Q47.1688125,25.5905,47.932312499999995,24.436799999999998Q48.6961125,23.283,49.1123125,21.8965Q49.5288125,20.509999999999998,49.703312499999996,18.977249999999998Q49.8781125,17.444499999999998,49.9166125,15.822Q49.955312500000005,14.1995,49.9616125,12.57225ZM51.0303125,17.445Q51.0916125,17.8885,51.2396125,18.70775Q51.3875125,19.526699999999998,51.6731125,20.5642Q51.9588125,21.6015,52.447612500000005,22.678800000000003Q52.936612499999995,23.756,53.6858125,24.7255Q54.4350125,25.6947,55.4973125,26.381Q55.2550125,26.5513,55.011812500000005,26.792Q54.768812499999996,27.033,54.614112500000005,27.2628Q53.517112499999996,26.5193,52.749112499999995,25.473Q51.981112499999995,24.4265,51.4816125,23.255000000000003Q50.9821125,22.0833,50.6758125,20.9645Q50.369812499999995,19.8455,50.212312499999996,18.93975Q50.0551125,18.033749999999998,49.9618125,17.542749999999998L51.0303125,17.445ZM42.2768125,13.60775L43.0845125,12.858Q43.4845125,13.20025,43.9508125,13.6175Q44.4171125,14.034749999999999,44.8368125,14.4295Q45.2566125,14.82425,45.5213125,15.124749999999999L44.682612500000005,15.998249999999999Q44.4241125,15.6915,44.011812500000005,15.26975Q43.5998125,14.84775,43.1413125,14.41Q42.6831125,13.972249999999999,42.2768125,13.60775ZM43.2383125,26.6397L43.022512500000005,25.5198L43.3695125,25.0135L46.5973125,22.8505Q46.6543125,23.080199999999998,46.7646125,23.3778Q46.8751125,23.6753,46.9568125,23.855Q45.807612500000005,24.6578,45.110012499999996,25.153Q44.4128125,25.6483,44.0358125,25.9355Q43.6591125,26.2225,43.493112499999995,26.3738Q43.327312500000005,26.525,43.2383125,26.6397ZM40.7533125,17.580750000000002L44.243112499999995,17.580750000000002L44.243112499999995,18.74075L40.7533125,18.74075L40.7533125,17.580750000000002ZM43.2383125,26.6397Q43.181312500000004,26.507,43.0643125,26.3445Q42.947312499999995,26.182,42.8178125,26.0177Q42.688312499999995,25.8535,42.574312500000005,25.762Q42.816312499999995,25.584,43.1358125,25.1905Q43.4556125,24.797,43.4556125,24.226L43.4556125,17.580750000000002L44.621812500000004,17.580750000000002L44.621812500000004,25.102Q44.621812500000004,25.102,44.4821125,25.2115Q44.3426125,25.321,44.137812499999995,25.5035Q43.9333125,25.6857,43.7256125,25.8967Q43.517812500000005,26.1075,43.3781125,26.3022Q43.2383125,26.4972,43.2383125,26.6397ZM56.7415125,14.431000000000001L62.6738125,14.431000000000001L62.6738125,15.5475L56.7415125,15.5475L56.7415125,14.431000000000001ZM59.9003125,16.92425L61.0508125,16.92425L61.0508125,27.221L59.9003125,27.221L59.9003125,16.92425ZM56.6463125,23.329Q57.4616125,23.194000000000003,58.5231125,23.022Q59.5846125,22.85,60.7738125,22.641199999999998Q61.9633125,22.432499999999997,63.1563125,22.2238L63.2133125,23.2673Q61.5431125,23.5942,59.8718125,23.9247Q58.2005125,24.255200000000002,56.9028125,24.499000000000002L56.6463125,23.329ZM57.3008125,20.6952Q57.2723125,20.575,57.2138125,20.3792Q57.1556125,20.1833,57.0798125,19.983Q57.0043125,19.7827,56.9348125,19.6375Q57.1385125,19.5868,57.3288125,19.2277Q57.5190125,18.86875,57.7270125,18.347Q57.8328125,18.0875,58.0393125,17.49875Q58.2461125,16.90975,58.4833125,16.10975Q58.7205125,15.309750000000001,58.9466125,14.39475Q59.1728125,13.4795,59.3081125,12.567499999999999L60.4938125,12.8015Q60.2058125,14.090499999999999,59.8081125,15.3955Q59.4103125,16.700499999999998,58.9500125,17.89225Q58.4901125,19.0837,58.0135125,20.034L58.0135125,20.0562Q58.0135125,20.0562,57.9058125,20.122500000000002Q57.7983125,20.1887,57.6571125,20.2917Q57.5161125,20.3945,57.4083125,20.500500000000002Q57.3008125,20.6062,57.3008125,20.6952ZM57.3008125,20.6952L57.3008125,19.691000000000003L57.9556125,19.374200000000002L62.7008125,19.374200000000002L62.7008125,20.4685L58.4733125,20.4685Q58.0628125,20.4685,57.7328125,20.5325Q57.4030125,20.5965,57.3008125,20.6952ZM65.0096125,20.430300000000003L69.7960125,20.430300000000003L69.7960125,21.5557L65.0096125,21.5557L65.0096125,20.430300000000003ZM69.5093125,20.430300000000003L69.7051125,20.430300000000003L69.89111249999999,20.357300000000002L70.7423125,20.773Q70.2960125,21.430300000000003,69.74211249999999,22.21Q69.1881125,22.9895,68.5941125,23.779Q68.0003125,24.5685,67.4383125,25.2843L66.40101250000001,24.808799999999998Q66.9568125,24.121499999999997,67.5413125,23.3285Q68.1258125,22.5355,68.6481125,21.8035Q69.1706125,21.071199999999997,69.5093125,20.566499999999998L69.5093125,20.430300000000003ZM64.5068125,23.9117L65.27261250000001,23.136200000000002Q66.1030125,23.613500000000002,66.9543125,24.186799999999998Q67.8056125,24.759999999999998,68.5496125,25.3285Q69.2938125,25.8967,69.76611249999999,26.3608L68.9746125,27.2967Q68.50501249999999,26.8167,67.76581250000001,26.2135Q67.0265125,25.6105,66.1738125,25.0012Q65.3213125,24.3918,64.5068125,23.9117ZM66.8110125,12.566749999999999L68.0026125,12.721499999999999Q67.7403125,13.785,67.4153125,14.9835Q67.0905125,16.18175,66.7528125,17.3855Q66.4150125,18.58925,66.09631250000001,19.6667Q65.77781250000001,20.744,65.50581249999999,21.5557L64.2128125,21.5557Q64.5133125,20.6995,64.8653125,19.5905Q65.21731249999999,18.4815,65.5693125,17.25725Q65.9213125,16.033,66.24131249999999,14.8235Q66.5613125,13.614,66.8110125,12.566749999999999ZM63.4458125,14.437249999999999L70.7753125,14.437249999999999L70.7753125,15.55375L63.4458125,15.55375L63.4458125,14.437249999999999ZM62.8301125,17.442500000000003L71.3486125,17.442500000000003L71.3486125,18.5715L62.8301125,18.5715L62.8301125,17.442500000000003ZM73.4303125,13.64475L74.0596125,12.772Q74.5308125,12.996,75.0568125,13.2935Q75.5830125,13.59075,76.06581249999999,13.901Q76.5485125,14.21125,76.8588125,14.4735L76.2046125,15.45025Q75.90051249999999,15.17825,75.4321125,14.85075Q74.96351250000001,14.523,74.4355125,14.20525Q73.9075125,13.88725,73.4303125,13.64475ZM72.6136125,17.994L73.21781250000001,17.10875Q73.68531250000001,17.29725,74.2018125,17.57075Q74.7183125,17.844,75.1863125,18.128500000000003Q75.6546125,18.413,75.96131249999999,18.65925L75.3356125,19.6547Q75.0413125,19.3925,74.5825125,19.0907Q74.1238125,18.78875,73.6023125,18.50475Q73.0810125,18.220750000000002,72.6136125,17.994ZM73.0026125,26.154Q73.38051250000001,25.5425,73.8333125,24.6955Q74.28631250000001,23.8482,74.7453125,22.9008Q75.2046125,21.953200000000002,75.59111250000001,21.0545L76.4058125,21.8577Q76.04751250000001,22.689700000000002,75.6263125,23.5945Q75.2051125,24.499299999999998,74.77261250000001,25.3705Q74.3400125,26.2415,73.9338125,26.983L73.0026125,26.154ZM83.7433125,17.12025Q84.0036125,19.058999999999997,84.4696125,20.8048Q84.9355125,22.5505,85.6868125,23.8977Q86.4381125,25.2447,87.52861250000001,26.0233Q87.3896125,26.1338,87.2208125,26.3118Q87.05211249999999,26.49,86.9038125,26.6805Q86.75551250000001,26.871,86.6578125,27.0448Q85.50411249999999,26.1238,84.7291125,24.6488Q83.9543125,23.1737,83.48501250000001,21.2882Q83.01611249999999,19.4028,82.7335125,17.2625L83.7433125,17.12025ZM86.4925125,18.9265L87.3278125,19.7822Q86.6281125,20.3732,85.8610125,20.9802Q85.0943125,21.587,84.44301250000001,22.024L83.8173125,21.3403Q84.2348125,21.0352,84.7261125,20.6155Q85.2176125,20.1955,85.6881125,19.7485Q86.1585125,19.3015,86.4925125,18.9265ZM85.5513125,12.599499999999999L86.5130125,13.5665Q85.42531249999999,13.937249999999999,84.0335125,14.2445Q82.6418125,14.5515,81.1418125,14.79325Q79.6418125,15.035,78.2408125,15.20475Q78.2060125,14.99375,78.0955125,14.69775Q77.98531249999999,14.4015,77.87481249999999,14.20925Q78.8953125,14.0715,79.9628125,13.89375Q81.03031250000001,13.716000000000001,82.0625125,13.513Q83.0950125,13.309750000000001,83.9893125,13.07775Q84.8836125,12.845749999999999,85.5513125,12.599499999999999ZM77.87481249999999,14.20925L78.99131249999999,14.20925L78.99131249999999,18.227249999999998Q78.99131249999999,19.222,78.91931249999999,20.401699999999998Q78.8473125,21.581200000000003,78.6343125,22.8123Q78.4215125,24.043,78.02601250000001,25.2085Q77.63051250000001,26.3738,76.9676125,27.356Q76.8730125,27.258,76.69301250000001,27.1413Q76.5133125,27.0247,76.33201249999999,26.9205Q76.15101250000001,26.8165,76.00581249999999,26.7693Q76.6406125,25.828,77.0156125,24.735300000000002Q77.3906125,23.6423,77.57481250000001,22.5015Q77.7593125,21.360500000000002,77.8170125,20.267699999999998Q77.87481249999999,19.1747,77.87481249999999,18.227249999999998L77.87481249999999,14.20925ZM85.2663125,15.58125L86.2288125,16.5135Q85.5086125,16.7955,84.6061125,17.03425Q83.70361249999999,17.272750000000002,82.75411249999999,17.459Q81.8048125,17.645,80.9158125,17.78Q80.8810125,17.57525,80.76581250000001,17.29475Q80.65051249999999,17.01425,80.53661249999999,16.81225Q81.3846125,16.664749999999998,82.2698125,16.477249999999998Q83.1551125,16.2895,83.9438125,16.05725Q84.7328125,15.82475,85.2663125,15.58125ZM80.4393125,27.1257L80.3110125,26.077L80.75581249999999,25.6322L84.01831250000001,24.313499999999998Q84.0530125,24.5505,84.1256125,24.8345Q84.1983125,25.1185,84.2516125,25.292Q83.0981125,25.7985,82.3838125,26.114Q81.6698125,26.4295,81.2825125,26.6147Q80.8955125,26.8003,80.7168125,26.9167Q80.5381125,27.0333,80.4393125,27.1257ZM80.4393125,27.1257Q80.4046125,26.987,80.32231250000001,26.796Q80.24011250000001,26.605,80.14331250000001,26.4123Q80.0468125,26.2195,79.9551125,26.0993Q80.1463125,26.0042,80.3413125,25.7765Q80.53661249999999,25.5487,80.53661249999999,25.082L80.53661249999999,16.8185L81.6155125,16.8185L81.6155125,26.0987Q81.6155125,26.0987,81.4381125,26.197Q81.26061250000001,26.2955,81.0273125,26.4555Q80.79431249999999,26.6157,80.61681250000001,26.7932Q80.4393125,26.971,80.4393125,27.1257Z" fill="#FFFFFF" fill-opacity="1" style="mix-blend-mode:passthrough"/></g></g></g></svg>