<svg xmlns="http://www.w3.org/2000/svg" xmlns:xlink="http://www.w3.org/1999/xlink" fill="none" version="1.1" width="82.015625" height="42" viewBox="0 0 82.015625 42"><g><rect x="0" y="0" width="82.015625" height="42" rx="4" fill="#000000" fill-opacity="0" style="mix-blend-mode:passthrough"/><rect x="0.5" y="0.5" width="81.015625" height="41" rx="3.5" fill-opacity="0" stroke-opacity="1" stroke="#D1D5DB" fill="none" stroke-width="1" style="mix-blend-mode:passthrough"/><g><path d="M33.0988125,13.85925L39.0996125,13.85925L39.0996125,15.00075L33.0988125,15.00075L33.0988125,13.85925ZM38.7303125,13.85925L38.9226125,13.85925L39.1308125,13.81475L39.8778125,14.01675Q39.4826125,17.220750000000002,38.5778125,19.686799999999998Q37.6733125,22.1525,36.368812500000004,23.9082Q35.0646125,25.6637,33.4588125,26.7787Q33.3198125,26.5678,33.0940625,26.2997Q32.8685625,26.0317,32.6760625,25.874Q34.1625625,24.9328,35.401112499999996,23.267Q36.6396125,21.6012,37.5063125,19.29Q38.3731125,16.9785,38.7303125,14.13425L38.7303125,13.85925ZM34.9200625,14.67675Q35.2916125,17.17225,35.981812500000004,19.3328Q36.6721125,21.493000000000002,37.7723125,23.1333Q38.8726125,24.7735,40.4813125,25.721Q40.3486125,25.8253,40.1891125,25.989Q40.0298125,26.153,39.8846125,26.331Q39.7396125,26.509,39.6418125,26.6605Q37.9768125,25.5767,36.8418125,23.8405Q35.7068125,22.104,35.0010625,19.828699999999998Q34.2953125,17.55325,33.8668125,14.847000000000001L34.9200625,14.67675ZM25.7703125,12.815750000000001L33.0425625,12.815750000000001L33.0425625,13.903749999999999L25.7703125,13.903749999999999L25.7703125,12.815750000000001ZM27.4775625,16.133L31.4773125,16.133L31.4773125,17.18725L27.4775625,17.18725L27.4775625,16.133ZM27.4713125,19.499299999999998L31.5270625,19.499299999999998L31.5270625,20.5535L27.4713125,20.5535L27.4713125,19.499299999999998ZM26.8505625,13.403500000000001L28.0010625,13.403500000000001L28.0010625,23.682299999999998L26.8505625,23.814999999999998L26.8505625,13.403500000000001ZM25.6208125,23.4148Q26.5640625,23.2832,27.8095625,23.094Q29.0550625,22.9047,30.452312499999998,22.680300000000003Q31.8498125,22.4557,33.234812500000004,22.2345L33.2980625,23.2533Q31.989562499999998,23.503,30.6618125,23.744799999999998Q29.3343125,23.9865,28.1173125,24.194499999999998Q26.9005625,24.4025,25.8933125,24.5785L25.6208125,23.4148ZM30.6963125,13.391L31.8750625,13.391L31.8750625,26.7537L30.6963125,26.7537L30.6963125,13.391ZM47.8481125,19.4615L54.7028125,19.4615L54.7028125,20.5092L47.8481125,20.5092L47.8481125,19.4615ZM47.8091125,22.244799999999998L54.7028125,22.244799999999998L54.7028125,23.2828L47.8091125,23.2828L47.8091125,22.244799999999998ZM54.8121125,12.501000000000001L55.9716125,12.963000000000001Q55.5548125,13.75875,55.0651125,14.57825Q54.5756125,15.39775,54.1418125,15.987L53.124812500000004,15.5535Q53.407512499999996,15.1375,53.7223125,14.61275Q54.0373125,14.08775,54.331312499999996,13.527750000000001Q54.6256125,12.967749999999999,54.8121125,12.501000000000001ZM46.627112499999996,13.04425L47.6386125,12.59Q47.9816125,13.0415,48.319612500000005,13.57Q48.6578125,14.0985,48.922312500000004,14.60925Q49.1868125,15.11975,49.318312500000005,15.53575L48.240812500000004,16.06275Q48.121812500000004,15.652999999999999,47.8665125,15.1265Q47.6116125,14.59975,47.2908125,14.054Q46.970012499999996,13.50825,46.627112499999996,13.04425ZM47.0768125,16.6265L54.7578125,16.6265L54.7578125,17.75175L48.255812500000005,17.75175L48.255812500000005,26.7733L47.0768125,26.7733L47.0768125,16.6265ZM54.1640125,16.6265L55.3331125,16.6265L55.3331125,25.274Q55.3331125,25.765,55.2058125,26.0515Q55.0788125,26.3382,54.713012500000005,26.493Q54.353812500000004,26.632,53.7388125,26.6618Q53.124112499999995,26.6917,52.2086125,26.6917Q52.1738125,26.4522,52.0598125,26.1178Q51.9461125,25.7835,51.819612500000005,25.5405Q52.508112499999996,25.5627,53.078312499999996,25.5707Q53.6486125,25.5788,53.834312499999996,25.569Q54.1640125,25.553,54.1640125,25.2615L54.1640125,16.6265ZM50.6658125,12.048L51.8660125,12.048L51.8660125,17.32725L50.6658125,17.32725L50.6658125,12.048ZM42.3753125,13.0565L43.085012500000005,12.2345Q43.5810125,12.46825,44.1116125,12.79Q44.6423125,13.11175,45.1090125,13.44775Q45.5758125,13.783750000000001,45.8665125,14.078L45.1328125,15.01125Q44.8511125,14.70725,44.3905125,14.357Q43.9301125,14.00675,43.400512500000005,13.659749999999999Q42.8713125,13.3125,42.3753125,13.0565ZM41.619812499999995,17.3355L42.3070125,16.48775Q42.809312500000004,16.7215,43.3528125,17.0415Q43.8966125,17.3615,44.3841125,17.69275Q44.871812500000004,18.02375,45.172312500000004,18.30825L44.4573125,19.253999999999998Q44.1596125,18.9632,43.681312500000004,18.6147Q43.2030125,18.26625,42.6626125,17.929000000000002Q42.1221125,17.5915,41.619812499999995,17.3355ZM42.1138125,25.8415Q42.5138125,25.214,42.9858125,24.351Q43.4578125,23.488,43.9441125,22.5245Q44.4303125,21.561,44.8393125,20.6462L45.735012499999996,21.371000000000002Q45.3636125,22.2253,44.9293125,23.151Q44.4953125,24.076700000000002,44.0371125,24.9653Q43.5788125,25.8535,43.1566125,26.6173L42.1138125,25.8415Z" fill="#374151" fill-opacity="1" style="mix-blend-mode:passthrough"/></g></g></svg>