<?xml version="1.0" encoding="utf-8"?>
<svg version="1.1" xmlns:xlink="http://www.w3.org/1999/xlink" width="10px" height="10px" viewBox="321 214  10 10" xmlns="http://www.w3.org/2000/svg">
  <path d="M 326 214  C 328.8 214  331 216.2  331 219  C 331 221.8  328.8 224  326 224  C 323.2 224  321 221.8  321 219  C 321 216.2  323.2 214  326 214  Z " fill-rule="nonzero" fill="#ffffff" stroke="none" fill-opacity="0" />
  <path d="M 326 214.5  C 328.52 214.5  330.5 216.48  330.5 219  C 330.5 221.52  328.52 223.5  326 223.5  C 323.48 223.5  321.5 221.52  321.5 219  C 321.5 216.48  323.48 214.5  326 214.5  Z " stroke-width="1" stroke="#3b82f6" fill="none" />
  <path d="M 326 221.5  C 324.6 221.5  323.5 220.4  323.5 219  C 323.5 217.6  324.6 216.5  326 216.5  C 327.4 216.5  328.5 217.6  328.5 219  C 328.5 220.4  327.4 221.5  326 221.5  " fill-rule="nonzero" fill="#3b82f6" stroke="none" />
</svg>