<?xml version="1.0" encoding="utf-8"?>
<svg version="1.1" xmlns:xlink="http://www.w3.org/1999/xlink" width="10px" height="10px" viewBox="321 240  10 10" xmlns="http://www.w3.org/2000/svg">
  <path d="M 326 240  C 328.8 240  331 242.2  331 245  C 331 247.8  328.8 250  326 250  C 323.2 250  321 247.8  321 245  C 321 242.2  323.2 240  326 240  Z " fill-rule="nonzero" fill="#ffffff" stroke="none" fill-opacity="0" />
  <path d="M 326 240.5  C 328.52 240.5  330.5 242.48  330.5 245  C 330.5 247.52  328.52 249.5  326 249.5  C 323.48 249.5  321.5 247.52  321.5 245  C 321.5 242.48  323.48 240.5  326 240.5  Z " stroke-width="1" stroke="#3b82f6" fill="none" />
  <path d="M 326 247.5  C 324.6 247.5  323.5 246.4  323.5 245  C 323.5 243.6  324.6 242.5  326 242.5  C 327.4 242.5  328.5 243.6  328.5 245  C 328.5 246.4  327.4 247.5  326 247.5  " fill-rule="nonzero" fill="#3b82f6" stroke="none" />
</svg>