<svg xmlns="http://www.w3.org/2000/svg" xmlns:xlink="http://www.w3.org/1999/xlink" fill="none" version="1.1" width="64.015625" height="40" viewBox="0 0 64.015625 40"><g><rect x="0" y="0" width="64.015625" height="40" rx="4" fill="#3B82F6" fill-opacity="1" style="mix-blend-mode:passthrough"/><g><path d="M23.6558125,14.6205L23.6558125,15.9L29.0031125,15.9L29.0031125,14.6205L23.6558125,14.6205ZM23.6558125,12.49625L23.6558125,13.766L29.0031125,13.766L29.0031125,12.49625L23.6558125,12.49625ZM22.558812500000002,11.583L30.1536125,11.583L30.1536125,16.823L22.558812500000002,16.823L22.558812500000002,11.583ZM21.8308125,17.9792L31.0351125,17.9792L31.0351125,18.986L21.8308125,18.986L21.8308125,17.9792ZM25.757312499999998,18.4727L26.8856125,18.4727L26.8856125,25.0175L25.757312499999998,24.5553L25.757312499999998,18.4727ZM23.6153125,21.4163Q24.0348125,22.741300000000003,24.732062499999998,23.393Q25.4293125,24.0448,26.3658125,24.2585Q27.302612500000002,24.4722,28.4196125,24.4722Q28.5716125,24.4722,28.9858125,24.4722Q29.4001125,24.4722,29.9138125,24.4722Q30.427612500000002,24.4722,30.8768125,24.4692Q31.3263125,24.466,31.5363125,24.4597Q31.4668125,24.586,31.3876125,24.7782Q31.308612500000002,24.9708,31.2563125,25.174Q31.2043125,25.3775,31.1758125,25.5352L30.516312499999998,25.5352L28.3723125,25.5352Q27.363612500000002,25.5352,26.5151125,25.388Q25.6668125,25.241,24.9788125,24.8395Q24.2908125,24.4382,23.766312499999998,23.6772Q23.2418125,22.9163,22.877312500000002,21.6985L23.6153125,21.4163ZM26.5341125,20.8637L30.2403125,20.8637L30.2403125,21.8555L26.5341125,21.8555L26.5341125,20.8637ZM22.8730625,19.7452L23.9735625,19.874499999999998Q23.7370625,21.8495,23.0983125,23.326999999999998Q22.459812499999998,24.8043,21.3710625,25.7768Q21.2828125,25.6728,21.1123125,25.5355Q20.9418125,25.3985,20.7700625,25.2645Q20.5983125,25.1305,20.4753125,25.0548Q21.5428125,24.2087,22.1133125,22.860500000000002Q22.683812500000002,21.512,22.8730625,19.7452ZM16.4680625,19.563200000000002Q17.3978125,19.3127,18.706812499999998,18.9085Q20.0160625,18.5042,21.3653125,18.0837L21.5328125,19.178Q20.2980625,19.5887,19.0463125,19.997500000000002Q17.7948125,20.4062,16.772312499999998,20.7332L16.4680625,19.563200000000002ZM16.6475625,14.284749999999999L21.5253125,14.284749999999999L21.5253125,15.407499999999999L16.6475625,15.407499999999999L16.6475625,14.284749999999999ZM18.6315625,11.07025L19.7480625,11.07025L19.7480625,24.2815Q19.7480625,24.77,19.6265625,25.0355Q19.5053125,25.3013,19.2065625,25.4465Q18.9235625,25.5915,18.4403125,25.6355Q17.9570625,25.6798,17.1925625,25.67Q17.1703125,25.4527,17.0705625,25.128Q16.9710625,24.8035,16.8508125,24.5605Q17.3715625,24.5765,17.7918125,24.5765Q18.212062500000002,24.5765,18.3560625,24.5667Q18.5098125,24.5667,18.5705625,24.5058Q18.6315625,24.445,18.6315625,24.2752L18.6315625,11.07025ZM42.4318125,17.6602L43.6418125,18.009999999999998Q42.7760125,20.21,41.3221125,21.7242Q39.8683125,23.2382,37.8986125,24.2178Q35.9288125,25.1973,33.4926125,25.8123Q33.4328125,25.6672,33.3018125,25.4638Q33.1710125,25.2603,33.0258125,25.0585Q32.880812500000005,24.857,32.7543125,24.7243Q35.169312500000004,24.2205,37.074312500000005,23.3322Q38.9796125,22.444000000000003,40.337312499999996,21.0542Q41.6951125,19.6642,42.4318125,17.6602ZM37.0983125,14.948L38.264112499999996,15.3985Q37.7138125,16.083,37.002112499999996,16.76925Q36.2905125,17.4555,35.530812499999996,18.058799999999998Q34.7713125,18.6617,34.0708125,19.122999999999998Q33.9703125,19.0002,33.7953125,18.8315Q33.6203125,18.6628,33.4438125,18.4922Q33.2676125,18.3217,33.1225125,18.2272Q33.839012499999995,17.823,34.5718125,17.2925Q35.3048125,16.762,35.9661125,16.1595Q36.6273125,15.55675,37.0983125,14.948ZM37.6443125,17.75Q38.7623125,20.5165,41.208312500000005,22.2512Q43.6543125,23.986,47.3288125,24.5823Q47.2058125,24.705,47.0605125,24.9005Q46.9156125,25.096,46.7878125,25.3025Q46.6601125,25.509,46.5745125,25.6765Q44.057312499999995,25.1965,42.121812500000004,24.2043Q40.1863125,23.2118,38.8078125,21.683500000000002Q37.4293125,20.155,36.569612500000005,18.091L37.6443125,17.75ZM33.0768125,13.27675L46.9096125,13.27675L46.9096125,14.446L33.0768125,14.446L33.0768125,13.27675ZM41.892112499999996,15.61475L42.834312499999996,14.931000000000001Q43.5648125,15.42425,44.356812500000004,16.0375Q45.1488125,16.650750000000002,45.846112500000004,17.2655Q46.543612499999995,17.880000000000003,46.981812500000004,18.392L45.9773125,19.18Q45.5738125,18.6645,44.896812499999996,18.0325Q44.220012499999996,17.4005,43.432312499999995,16.76375Q42.6448125,16.12675,41.892112499999996,15.61475ZM38.693312500000005,11.3055L39.824012499999995,10.908249999999999Q40.1636125,11.3875,40.5043125,11.98375Q40.8453125,12.57975,41.0053125,12.995000000000001L39.8245125,13.45875Q39.6771125,13.024000000000001,39.3566125,12.4155Q39.0363125,11.807,38.693312500000005,11.3055Z" fill="#FFFFFF" fill-opacity="1" style="mix-blend-mode:passthrough"/></g></g></svg>