<svg xmlns="http://www.w3.org/2000/svg" xmlns:xlink="http://www.w3.org/1999/xlink" fill="none" version="1.1" width="85" height="40" viewBox="0 0 85 40"><g><rect x="0" y="0" width="85" height="40" rx="4" fill="#D1D5DB" fill-opacity="0" style="mix-blend-mode:passthrough"/><rect x="0.5" y="0.5" width="84" height="39" rx="3.5" fill-opacity="0" stroke-opacity="1" stroke="#D1D5DB" fill="none" stroke-width="1"/><g><path d="M40.948063,14.96594L45.631280000000004,14.96594L45.631280000000004,16.22637L40.948063,16.22637L40.948063,14.96594ZM45.19509,14.96594L45.42806,14.96594L45.65491,14.91431L46.51678,15.16303Q46.23394,17.86787,45.56631,19.97466Q44.89891,22.081200000000003,43.87231,23.6116Q42.84594,25.1418,41.48225,26.148Q41.38381,25.9807,41.225,25.7763Q41.06619,25.5723,40.8855,25.383Q40.705031,25.1938,40.547094,25.0733Q41.77472,24.2563,42.73219,22.8396Q43.68988,21.422800000000002,44.32294,19.50369Q44.956,17.58437,45.19509,15.27219L45.19509,14.96594ZM41.11103,18.72363L42.02891,17.887999999999998Q42.73678,18.49438,43.47594,19.199840000000002Q44.215090000000004,19.90509,44.903059999999996,20.6456Q45.59103,21.3858,46.146,22.0937Q46.70097,22.801299999999998,47.04025,23.413L46.00031,24.398699999999998Q45.67678,23.787,45.13822,23.0652Q44.59987,22.3433,43.9375,21.5796Q43.27534,20.8158,42.55106,20.084699999999998Q41.82678,19.35362,41.11103,18.72363ZM46.77819,16.44316L53.4708,16.44316L53.4708,17.71781L46.77819,17.71781L46.77819,16.44316ZM50.5599,13.17787L51.8738,13.17787L51.8738,24.4636Q51.8738,25.0661,51.7281,25.3903Q51.5824,25.7147,51.2269,25.894199999999998Q50.8773,26.0679,50.2823,26.118Q49.68734,26.1681,48.80097,26.1681Q48.77909,25.971,48.70888,25.720599999999997Q48.63866,25.4703,48.55181,25.2131Q48.46497,24.9558,48.37419,24.758699999999997Q49.00638,24.7804,49.52809,24.7843Q50.0498,24.7882,50.2257,24.7821Q50.4077,24.776,50.4838,24.709899999999998Q50.5599,24.643900000000002,50.5599,24.4557L50.5599,13.17787ZM46.88734,19.536720000000003L47.95703,19.02812Q48.29128,19.50084,48.60934,20.0497Q48.92763,20.598300000000002,49.16869,21.124000000000002Q49.40975,21.6496,49.52175,22.0758L48.36916,22.6513Q48.265029999999996,22.233,48.03884,21.692700000000002Q47.81266,21.1522,47.51319,20.584699999999998Q47.21394,20.0171,46.88734,19.536720000000003ZM65.9241,13.25509L66.8229,14.32194Q66.0752,14.53806,65.1812,14.72466Q64.2872,14.91103,63.3163,15.05869Q62.3457,15.20612,61.365700000000004,15.31484Q60.3857,15.42334,59.4618,15.49619Q59.424099999999996,15.26169,59.3123,14.940999999999999Q59.2008,14.62031,59.096000000000004,14.409220000000001Q60.006,14.32084,60.9506,14.20534Q61.8953,14.08962,62.805099999999996,13.94197Q63.7149,13.79431,64.51599999999999,13.62194Q65.31700000000001,13.44934,65.9241,13.25509ZM59.036699999999996,17.44678L67.4724,17.44678L67.4724,18.70569L59.036699999999996,18.70569L59.036699999999996,17.44678ZM59.8078,20.877200000000002L66.745,20.877200000000002L66.745,26.12L65.35900000000001,26.12L65.35900000000001,22.083L61.131,22.083L61.131,26.176L59.8078,26.176L59.8078,20.877200000000002ZM60.5128,24.4343L65.9768,24.4343L65.9768,25.6401L60.5128,25.6401L60.5128,24.4343ZM62.565200000000004,14.51969L63.8947,14.51969L63.8947,21.5287L62.565200000000004,21.5287L62.565200000000004,14.51969ZM55.2567,14.29109L56.109,13.48412Q56.4747,13.779869999999999,56.878699999999995,14.1465Q57.2828,14.51291,57.6518,14.87341Q58.0208,15.23369,58.2481,15.51697L57.3364,16.44884Q57.1248,16.15134,56.7738,15.77619Q56.4227,15.40103,56.0223,15.00881Q55.6222,14.61637,55.2567,14.29109ZM56.347,25.855800000000002L56.0587,24.6299L56.3279,24.1543L58.9376,22.052799999999998Q59.0282,22.3127,59.186099999999996,22.6497Q59.3441,22.986800000000002,59.4583,23.174300000000002Q58.5321,23.928800000000003,57.9574,24.4043Q57.382999999999996,24.8797,57.0621,25.154Q56.7412,25.4283,56.5869,25.5843Q56.4327,25.7402,56.347,25.855800000000002ZM54.5556,17.54019L57.0621,17.54019L57.0621,18.81484L54.5556,18.81484L54.5556,17.54019ZM56.347,25.855800000000002Q56.2877,25.7057,56.1523,25.5053Q56.0171,25.3052,55.867000000000004,25.1166Q55.717,24.9283,55.5982,24.8158Q55.7493,24.6988,55.9261,24.486800000000002Q56.1028,24.2748,56.2358,23.9859Q56.3688,23.6969,56.3688,23.357599999999998L56.3688,17.54019L57.6138,17.54019L57.6138,24.323Q57.6138,24.323,57.421,24.4908Q57.228300000000004,24.6583,56.980199999999996,24.9033Q56.7322,25.1483,56.539500000000004,25.409100000000002Q56.347,25.669800000000002,56.347,25.855800000000002Z" fill="#000000" fill-opacity="1" style="mix-blend-mode:passthrough"/></g><g><path d="M31.4604,17.13618L31.2698,17.58346C31.1304,17.91091,30.6878,17.91091,30.548299999999998,17.58346L30.357799999999997,17.13618C30.0182,16.33865,29.4065,15.703669999999999,28.6432,15.356300000000001L28.0562,15.08915C27.738799999999998,14.944700000000001,27.738799999999998,14.47208,28.0562,14.32763L28.6104,14.07541C29.3933,13.719100000000001,30.016,13.06062,30.3497,12.236006L30.5454,11.752652C30.681800000000003,11.4157826,31.136400000000002,11.4157826,31.2727,11.752652L31.468400000000003,12.236006C31.8022,13.06062,32.4249,13.719100000000001,33.2078,14.07541L33.7619,14.32763C34.0794,14.47208,34.0794,14.944700000000001,33.7619,15.08915L33.175,15.356300000000001C32.411699999999996,15.703669999999999,31.8,16.33865,31.4604,17.13618ZM30.909100000000002,19.40698C31.448900000000002,19.40698,31.9673,19.31257,32.4491,19.13901C32.4527,19.227890000000002,32.454499999999996,19.317230000000002,32.454499999999996,19.40698C32.454499999999996,22.9005,29.6869,25.732599999999998,26.27273,25.732599999999998L26.27273,28.5C22.40909,26.918599999999998,17,24.5465,17,19.40698C17,15.913450000000001,19.76769,13.0814,23.181820000000002,13.0814L26.27273,13.0814C26.36043,13.0814,26.44775,13.08327,26.534599999999998,13.08697C26.36499,13.580020000000001,26.27273,14.11038,26.27273,14.662790000000001C26.27273,17.28293,28.3485,19.40698,30.909100000000002,19.40698Z" fill="#000000" fill-opacity="1" style="mix-blend-mode:passthrough"/></g></g></svg>