<svg xmlns="http://www.w3.org/2000/svg" xmlns:xlink="http://www.w3.org/1999/xlink" fill="none" version="1.1" width="130.015625" height="42" viewBox="0 0 130.015625 42"><g><rect x="0" y="0" width="130.015625" height="42" rx="4" fill="#FFFFFF" fill-opacity="1" style="mix-blend-mode:passthrough"/><rect x="0.5" y="0.5" width="129.015625" height="41" rx="3.5" fill-opacity="0" stroke-opacity="1" stroke="#D1D5DB" fill="none" stroke-width="1" style="mix-blend-mode:passthrough"/><g><path d="M35.2023125,13.10775L35.9813125,12.33575Q36.4293125,12.69125,36.9213125,13.122Q37.4135625,13.5525,37.8478125,13.9735Q38.2823125,14.39425,38.5410625,14.7365L37.7343125,15.626000000000001Q37.4720625,15.283750000000001,37.0500625,14.84075Q36.6283125,14.3975,36.1423125,13.93675Q35.6565625,13.47575,35.2023125,13.10775ZM36.1373125,26.4692L35.9090625,25.2868L36.2623125,24.7745L39.4668125,22.5833Q39.5110625,22.7437,39.5805625,22.9467Q39.6500625,23.1497,39.7305625,23.3385Q39.8110625,23.5273,39.8645625,23.650199999999998Q38.7275625,24.4513,38.0380625,24.9508Q37.3485625,25.45,36.9705625,25.7367Q36.5925625,26.0235,36.4143125,26.1857Q36.2360625,26.3482,36.1373125,26.4692ZM33.7470625,17.080750000000002L37.0260625,17.080750000000002L37.0260625,18.272L33.7470625,18.272L33.7470625,17.080750000000002ZM38.9588125,17.369999999999997L48.3548125,17.369999999999997L48.3548125,18.6015L38.9588125,18.6015L38.9588125,17.369999999999997ZM43.0186125,12.105L44.2813125,12.105L44.2813125,26.776L43.0186125,26.776L43.0186125,12.105ZM36.1373125,26.4692Q36.0865625,26.3115,35.974312499999996,26.1005Q35.8623125,25.8895,35.7358125,25.6895Q35.6093125,25.4895,35.4955625,25.3668Q35.7275625,25.2173,36.0070625,24.8745Q36.286812499999996,24.5317,36.286812499999996,24.017L36.286812499999996,17.080750000000002L37.499562499999996,17.080750000000002L37.499562499999996,25.099Q37.499562499999996,25.099,37.3585625,25.196Q37.2175625,25.2927,37.0195625,25.4468Q36.8215625,25.6007,36.6203125,25.788Q36.419312500000004,25.9753,36.2783125,26.1478Q36.1373125,26.3205,36.1373125,26.4692ZM59.3516125,13.812249999999999L60.511512499999995,13.812249999999999L60.511512499999995,22.608L59.3516125,22.608L59.3516125,13.812249999999999ZM62.440312500000005,12.224L63.6191125,12.224L63.6191125,25.2122Q63.6191125,25.796,63.4613125,26.09Q63.3035125,26.3843,62.9378125,26.5392Q62.572312499999995,26.6842,61.9293125,26.7235Q61.286612500000004,26.7628,60.243112499999995,26.7628Q60.208312500000005,26.5268,60.0851125,26.1815Q59.9618125,25.8365,59.8353125,25.581Q60.5996125,25.597,61.2238125,25.6Q61.8483125,25.6033,62.0465125,25.5935Q62.2706125,25.5837,62.3553125,25.5068Q62.440312500000005,25.43,62.440312500000005,25.222L62.440312500000005,12.224ZM49.5815125,16.80725L58.4108125,15.8045L58.5311125,16.93275L49.7018125,17.941499999999998L49.5815125,16.80725ZM51.8783125,12.08L53.1011125,12.08Q53.1018125,14.258,53.3143125,16.256Q53.5271125,18.253999999999998,53.9018125,19.941499999999998Q54.2768125,21.628700000000002,54.7475125,22.8818Q55.2186125,24.1345,55.7388125,24.8302Q56.2591125,25.5257,56.7596125,25.5257Q57.0545125,25.5257,57.213012500000005,24.9293Q57.371812500000004,24.3328,57.4358125,22.9247Q57.6281125,23.119799999999998,57.9183125,23.2962Q58.2086125,23.4725,58.4418125,23.5608Q58.334312499999996,24.7815,58.1363125,25.4662Q57.938312499999995,26.151,57.5908125,26.4323Q57.2433125,26.7135,56.6811125,26.7135Q55.974112500000004,26.7135,55.3498125,26.1593Q54.7258125,25.605,54.2025125,24.5933Q53.6795125,23.5815,53.2596125,22.2148Q52.8396125,20.848,52.5393125,19.212Q52.239112500000005,17.57575,52.0763125,15.76775Q51.9138125,13.95975,51.8783125,12.08ZM56.4063125,17.871499999999997L57.544312500000004,18.211750000000002Q56.7923125,20.0212,55.715312499999996,21.555999999999997Q54.6386125,23.0905,53.314612499999996,24.316000000000003Q51.990812500000004,25.5413,50.4656125,26.447Q50.383512499999995,26.3145,50.2291125,26.1362Q50.0748125,25.9583,49.9091125,25.78Q49.7436125,25.602,49.6108125,25.4918Q51.123512500000004,24.6873,52.4131125,23.5533Q53.7025125,22.4192,54.718112500000004,20.982300000000002Q55.7335125,19.545,56.4063125,17.871499999999997ZM53.947612500000005,13.058250000000001L54.751512500000004,12.4055Q55.1811125,12.719249999999999,55.6276125,13.11Q56.074312500000005,13.500499999999999,56.468112500000004,13.8895Q56.8618125,14.278500000000001,57.0955125,14.5985L56.247812499999995,15.336500000000001Q56.0168125,15.0165,55.6373125,14.6135Q55.2578125,14.21025,54.814012500000004,13.80225Q54.3706125,13.39425,53.947612500000005,13.058250000000001ZM68.0063125,18.11325L77.1648125,18.11325L77.1648125,19.295L68.0063125,19.295L68.0063125,18.11325ZM76.7545125,18.11325L78.00211250000001,18.11325Q78.00211250000001,18.11325,77.9988125,18.224Q77.9958125,18.33475,77.9958125,18.469250000000002Q77.9958125,18.6038,77.97981250000001,18.689Q77.89281249999999,20.5273,77.8013125,21.823700000000002Q77.7098125,23.119999999999997,77.59911249999999,23.9712Q77.4886125,24.8223,77.3378125,25.313Q77.1871125,25.8037,76.9693125,26.0403Q76.72131250000001,26.3417,76.4300125,26.4543Q76.1388125,26.567,75.7270125,26.598Q75.32431249999999,26.6327,74.63681249999999,26.6243Q73.94931249999999,26.616,73.19301250000001,26.5707Q73.1708125,26.3027,73.07001249999999,25.9625Q72.9696125,25.6225,72.7960125,25.3668Q73.5796125,25.4345,74.2508125,25.4522Q74.9223125,25.47,75.2065125,25.47Q75.68481249999999,25.47,75.8893125,25.2752Q76.10431249999999,25.054,76.26011249999999,24.319000000000003Q76.4160125,23.5837,76.5368125,22.1355Q76.6578125,20.6873,76.7545125,18.3375L76.7545125,18.11325ZM70.19561250000001,12.38375L71.46811249999999,12.73625Q70.92761250000001,14.076,70.1826125,15.3015Q69.4375125,16.527,68.5628125,17.557499999999997Q67.6881125,18.587699999999998,66.73781249999999,19.355Q66.63731250000001,19.226,66.4448125,19.0545Q66.2526125,18.883,66.0571125,18.71Q65.8618125,18.5367,65.7103125,18.436Q66.66761249999999,17.744500000000002,67.5140125,16.795749999999998Q68.36081250000001,15.84675,69.04751250000001,14.722000000000001Q69.7343125,13.597000000000001,70.19561250000001,12.38375ZM75.7791125,12.35175Q76.1571125,13.155999999999999,76.68361250000001,13.996749999999999Q77.2103125,14.8375,77.8281125,15.622Q78.4458125,16.4065,79.1035125,17.067Q79.7613125,17.727249999999998,80.3853125,18.203Q80.2338125,18.31975,80.0496125,18.493000000000002Q79.8653125,18.666,79.6983125,18.8567Q79.5313125,19.0472,79.4145125,19.211Q78.7845125,18.666,78.1253125,17.93425Q77.4663125,17.2025,76.8390125,16.3475Q76.2121125,15.49225,75.6538125,14.5855Q75.0955125,13.67875,74.6706125,12.78975L75.7791125,12.35175ZM71.1828125,18.44375L72.4463125,18.44375Q72.3050125,19.755000000000003,72.0211125,20.996000000000002Q71.7373125,22.2367,71.1435125,23.3418Q70.5498125,24.4467,69.5043125,25.3353Q68.4588125,26.2237,66.7910125,26.824Q66.7215125,26.67,66.5955125,26.481Q66.4696125,26.2922,66.32311250000001,26.1115Q66.1766125,25.9307,66.0413125,25.8078Q67.6085125,25.2895,68.5738125,24.503Q69.5390125,23.7165,70.0651125,22.739Q70.59111250000001,21.761200000000002,70.8273125,20.6682Q71.0638125,19.575,71.1828125,18.44375ZM81.9773125,14.51325L96.0668125,14.51325L96.0668125,15.6735L81.9773125,15.6735L81.9773125,14.51325ZM89.15911249999999,16.44625L90.3691125,16.44625L90.3691125,26.7892L89.15911249999999,26.7892L89.15911249999999,16.44625ZM84.56031250000001,18.5982L94.5103125,18.5982L94.5103125,19.746000000000002L85.7543125,19.746000000000002L85.7543125,25.2865L84.56031250000001,25.2865L84.56031250000001,18.5982ZM93.9806125,18.5982L95.1871125,18.5982L95.1871125,23.7773Q95.1871125,24.252499999999998,95.0535125,24.523Q94.9203125,24.7935,94.5388125,24.9422Q94.1731125,25.075,93.5138125,25.1065Q92.85481250000001,25.138,91.8276125,25.1283Q91.7928125,24.8825,91.6743125,24.5802Q91.55601250000001,24.278,91.4201125,24.041Q91.9326125,24.057000000000002,92.3906125,24.060299999999998Q92.8486125,24.063200000000002,93.1773125,24.058500000000002Q93.5061125,24.0535,93.6313125,24.0535Q93.8366125,24.0437,93.9085125,23.983Q93.9806125,23.922,93.9806125,23.758499999999998L93.9806125,18.5982ZM87.3926125,12.04525L88.6276125,12.3355Q88.0550125,14.19525,87.1785125,16.01025Q86.30211249999999,17.82525,85.0755125,19.3975Q83.8493125,20.9697,82.2163125,22.1175Q82.1406125,21.9695,82.0111125,21.784Q81.8815125,21.5982,81.7505125,21.4077Q81.6198125,21.217,81.49951250000001,21.0977Q82.63561250000001,20.329,83.5688125,19.297Q84.5023125,18.265,85.2340125,17.0655Q85.96611250000001,15.86575,86.50581249999999,14.58925Q87.0458125,13.312750000000001,87.3926125,12.04525Z" fill="#4B5563" fill-opacity="1" style="mix-blend-mode:passthrough"/></g></g></svg>