<svg xmlns="http://www.w3.org/2000/svg" xmlns:xlink="http://www.w3.org/1999/xlink" fill="none" version="1.1" width="128.015625" height="42" viewBox="0 0 128.015625 42"><g><rect x="0" y="0" width="128.015625" height="42" rx="4" fill="#2B5CE7" fill-opacity="1" style="mix-blend-mode:passthrough"/><g><path d="M18.5908125,12.845749999999999L31.1548125,12.845749999999999L31.1548125,13.9775L18.5908125,13.9775L18.5908125,12.845749999999999ZM17.8425625,12.845749999999999L19.0650625,12.845749999999999L19.0650625,17.950499999999998Q19.0650625,18.9167,19.0170625,20.051000000000002Q18.9690625,21.185200000000002,18.8170625,22.3692Q18.6650625,23.5533,18.3833125,24.6755Q18.1015625,25.7975,17.6278125,26.7335Q17.5210625,26.6292,17.3223125,26.4983Q17.1238125,26.3675,16.9208125,26.2428Q16.7178125,26.1182,16.5600625,26.0648Q17.0088125,25.17,17.2653125,24.137700000000002Q17.5218125,23.1055,17.6453125,22.0287Q17.7688125,20.951999999999998,17.8055625,19.9077Q17.8425625,18.8632,17.8425625,17.950499999999998L17.8425625,12.845749999999999ZM20.0800625,17.4775L29.641312499999998,17.4775L29.641312499999998,18.6155L20.0800625,18.6155L20.0800625,17.4775ZM29.1436125,17.4775L30.3378125,17.4775Q30.3378125,17.4775,30.3346125,17.585250000000002Q30.3316125,17.69275,30.3283125,17.82725Q30.325312500000003,17.9615,30.3191125,18.047Q30.2196125,20.0343,30.112112500000002,21.4298Q30.0046125,22.825,29.877812499999997,23.736Q29.751312499999997,24.647,29.5863125,25.1702Q29.4213125,25.6933,29.197312500000002,25.936Q28.943112499999998,26.2375,28.6566125,26.355Q28.3703125,26.4725,27.946112499999998,26.5135Q27.5628125,26.5483,26.8983125,26.5365Q26.234112500000002,26.525,25.500812500000002,26.4797Q25.478562500000002,26.2118,25.3748125,25.8748Q25.2710625,25.5378,25.107062499999998,25.2822Q25.880312500000002,25.3498,26.5406125,25.3657Q27.200812499999998,25.3818,27.4756125,25.3818Q27.7288125,25.3915,27.877612499999998,25.3485Q28.0266125,25.3053,28.1573125,25.171Q28.3406125,24.9977,28.4848125,24.5187Q28.629312499999997,24.0398,28.741612500000002,23.1613Q28.8541125,22.2828,28.9521125,20.9373Q29.0503125,19.5917,29.1436125,17.6955L29.1436125,17.4775ZM23.9060625,14.83125L25.1438125,14.83125Q25.105562499999998,16.39275,25.0050625,17.844250000000002Q24.9045625,19.2955,24.6390625,20.6017Q24.3738125,21.9078,23.844562500000002,23.0355Q23.3153125,24.163,22.4275625,25.0868Q21.5400625,26.0105,20.1933125,26.6933Q20.0828125,26.492,19.8428125,26.2367Q19.6030625,25.9818,19.3920625,25.8242Q20.6728125,25.201,21.4975625,24.3512Q22.3223125,23.5015,22.7983125,22.454Q23.2743125,21.4065,23.5003125,20.194699999999997Q23.7265625,18.983,23.8003125,17.636Q23.8740625,16.28875,23.9060625,14.83125ZM39.4093125,12.121L40.644512500000005,12.121L40.644512500000005,18.8368Q40.644512500000005,19.8307,40.511112499999996,20.7887Q40.3776125,21.746499999999997,39.9756125,22.6217Q39.5738125,23.4967,38.7793125,24.27Q37.985012499999996,25.0432,36.677612499999995,25.6777Q35.3700125,26.3123,33.4093125,26.778Q33.340112500000004,26.6425,33.217012499999996,26.444Q33.0943125,26.2455,32.9558125,26.0438Q32.8173125,25.842,32.6881125,25.713Q34.5793125,25.3105,35.822312499999995,24.7642Q37.065312500000005,24.2177,37.7918125,23.55Q38.5185125,22.882199999999997,38.8653125,22.122Q39.2121125,21.3617,39.3105125,20.5317Q39.4093125,19.7015,39.4093125,18.8403L39.4093125,12.121ZM35.150512500000005,15.748000000000001L35.150512500000005,18.7397L44.9280125,18.7397L44.9280125,15.748000000000001L35.150512500000005,15.748000000000001ZM33.9716125,14.58775L46.1533125,14.58775L46.1533125,19.89L33.9716125,19.89L33.9716125,14.58775ZM35.7965125,20.4242Q36.5343125,21.9235,37.5801125,22.877499999999998Q38.6260125,23.8315,40.0423125,24.3763Q41.4588125,24.9207,43.2921125,25.1677Q45.1253125,25.4145,47.4378125,25.522Q47.258112499999996,25.733,47.0973125,26.0807Q46.936612499999995,26.4285,46.8733125,26.7437Q44.5136125,26.599,42.6095125,26.2763Q40.7056125,25.9538,39.2138125,25.3148Q37.7223125,24.6758,36.6055125,23.5895Q35.4888125,22.5033,34.7198125,20.8275L35.7965125,20.4242ZM49.6733125,13.86275L62.4133125,13.86275L62.4133125,15.104L49.6733125,15.104L49.6733125,13.86275ZM48.8395125,24.3503L63.2171125,24.3503L63.2171125,25.5505L48.8395125,25.5505L48.8395125,24.3503ZM55.3026125,14.49075L56.6373125,14.49075L56.6373125,24.8487L55.3026125,24.8487L55.3026125,14.49075ZM71.3516125,15.3805L72.59031250000001,15.3805L72.59031250000001,26.7607L71.3516125,26.7607L71.3516125,15.3805ZM67.5498125,18.511200000000002L67.5498125,20.233L76.5625125,20.233L76.5625125,18.511200000000002L67.5498125,18.511200000000002ZM67.5498125,15.846L67.5498125,17.54825L76.5625125,17.54825L76.5625125,15.846L67.5498125,15.846ZM66.38051250000001,14.823L77.7916125,14.823L77.7916125,21.252499999999998L66.38051250000001,21.252499999999998L66.38051250000001,14.823ZM64.86801249999999,22.7747L79.1893125,22.7747L79.1893125,23.894L64.86801249999999,23.894L64.86801249999999,22.7747ZM67.7758125,12.60425L68.7963125,12.128Q69.2833125,12.663,69.7796125,13.3305Q70.27601250000001,13.998000000000001,70.51611249999999,14.500250000000001L69.4458125,15.04325Q69.2145125,14.5535,68.7355125,13.85575Q68.2565125,13.158000000000001,67.7758125,12.60425ZM75.3533125,12.129999999999999L76.6533125,12.5535Q76.1743125,13.32075,75.6218125,14.112Q75.0693125,14.902999999999999,74.6045125,15.454L73.57861249999999,15.05875Q73.88001249999999,14.6685,74.21351250000001,14.152999999999999Q74.5473125,13.6375,74.8508125,13.103Q75.1543125,12.568249999999999,75.3533125,12.129999999999999ZM83.0063125,18.11325L92.1648125,18.11325L92.1648125,19.295L83.0063125,19.295L83.0063125,18.11325ZM91.7545125,18.11325L93.0020125,18.11325Q93.0020125,18.11325,92.9988125,18.224Q92.9958125,18.33475,92.9958125,18.469250000000002Q92.9958125,18.6038,92.9798125,18.689Q92.8928125,20.5273,92.8013125,21.823700000000002Q92.7098125,23.119999999999997,92.5990125,23.9712Q92.4886125,24.8223,92.3378125,25.313Q92.1871125,25.8037,91.9693125,26.0403Q91.7213125,26.3417,91.4300125,26.4543Q91.1388125,26.567,90.7271125,26.598Q90.3243125,26.6327,89.6368125,26.6243Q88.9493125,26.616,88.1930125,26.5707Q88.1708125,26.3027,88.0700125,25.9625Q87.9696125,25.6225,87.7961125,25.3668Q88.5795125,25.4345,89.2508125,25.4522Q89.9223125,25.47,90.2066125,25.47Q90.6848125,25.47,90.8893125,25.2752Q91.1043125,25.054,91.2601125,24.319000000000003Q91.4160125,23.5837,91.5368125,22.1355Q91.6578125,20.6873,91.7545125,18.3375L91.7545125,18.11325ZM85.1956125,12.38375L86.4681125,12.73625Q85.9276125,14.076,85.1826125,15.3015Q84.4375125,16.527,83.5628125,17.557499999999997Q82.6881125,18.587699999999998,81.7378125,19.355Q81.6373125,19.226,81.4448125,19.0545Q81.2526125,18.883,81.0570125,18.71Q80.8618125,18.5367,80.7103125,18.436Q81.6676125,17.744500000000002,82.5140125,16.795749999999998Q83.3608125,15.84675,84.0475125,14.722000000000001Q84.7343125,13.597000000000001,85.1956125,12.38375ZM90.7790125,12.35175Q91.1571125,13.155999999999999,91.6836125,13.996749999999999Q92.2103125,14.8375,92.8281125,15.622Q93.4458125,16.4065,94.1035125,17.067Q94.7613125,17.727249999999998,95.3853125,18.203Q95.2338125,18.31975,95.0495125,18.493000000000002Q94.8653125,18.666,94.6983125,18.8567Q94.5313125,19.0472,94.4146125,19.211Q93.7845125,18.666,93.1253125,17.93425Q92.4663125,17.2025,91.8391125,16.3475Q91.2121125,15.49225,90.6538125,14.5855Q90.0956125,13.67875,89.6706125,12.78975L90.7790125,12.35175ZM86.1828125,18.44375L87.4463125,18.44375Q87.3050125,19.755000000000003,87.0211125,20.996000000000002Q86.7373125,22.2367,86.1435125,23.3418Q85.5498125,24.4467,84.5043125,25.3353Q83.4588125,26.2237,81.7910125,26.824Q81.7216125,26.67,81.5956125,26.481Q81.4695125,26.2922,81.3230125,26.1115Q81.1765125,25.9307,81.0413125,25.8078Q82.6086125,25.2895,83.5738125,24.503Q84.5390125,23.7165,85.0651125,22.739Q85.5911125,21.761200000000002,85.8273125,20.6682Q86.0638125,19.575,86.1828125,18.44375ZM96.9773125,14.51325L111.0668125,14.51325L111.0668125,15.6735L96.9773125,15.6735L96.9773125,14.51325ZM104.1591125,16.44625L105.3691125,16.44625L105.3691125,26.7892L104.1591125,26.7892L104.1591125,16.44625ZM99.5603125,18.5982L109.5103125,18.5982L109.5103125,19.746000000000002L100.7543125,19.746000000000002L100.7543125,25.2865L99.5603125,25.2865L99.5603125,18.5982ZM108.9805125,18.5982L110.1871125,18.5982L110.1871125,23.7773Q110.1871125,24.252499999999998,110.0536125,24.523Q109.9203125,24.7935,109.5388125,24.9422Q109.1731125,25.075,108.5138125,25.1065Q107.8548125,25.138,106.8275125,25.1283Q106.7928125,24.8825,106.6743125,24.5802Q106.5560125,24.278,106.4200125,24.041Q106.9326125,24.057000000000002,107.3906125,24.060299999999998Q107.8486125,24.063200000000002,108.1773125,24.058500000000002Q108.5061125,24.0535,108.6313125,24.0535Q108.8366125,24.0437,108.9085125,23.983Q108.9805125,23.922,108.9805125,23.758499999999998L108.9805125,18.5982ZM102.3926125,12.04525L103.6276125,12.3355Q103.0550125,14.19525,102.1786125,16.01025Q101.3021125,17.82525,100.0755125,19.3975Q98.8493125,20.9697,97.2163125,22.1175Q97.1406125,21.9695,97.0111125,21.784Q96.8815125,21.5982,96.7506125,21.4077Q96.6198125,21.217,96.4996125,21.0977Q97.6355125,20.329,98.5688125,19.297Q99.5023125,18.265,100.2340125,17.0655Q100.9661125,15.86575,101.5058125,14.58925Q102.0458125,13.312750000000001,102.3926125,12.04525Z" fill="#FFFFFF" fill-opacity="1" style="mix-blend-mode:passthrough"/></g></g></svg>