<svg xmlns="http://www.w3.org/2000/svg" xmlns:xlink="http://www.w3.org/1999/xlink" fill="none" version="1.1" width="128.015625" height="42" viewBox="0 0 128.015625 42"><g><rect x="0" y="0" width="128.015625" height="42" rx="4" fill="#2B5CE7" fill-opacity="1" style="mix-blend-mode:passthrough"/><g><path d="M17.4858125,13.60525L30.5868125,13.60525L30.5868125,14.622L17.4858125,14.622L17.4858125,13.60525ZM17.9925625,25.3283L30.1173125,25.3283L30.1173125,26.3475L17.9925625,26.3475L17.9925625,25.3283ZM20.6328125,15.6875L27.371112500000002,15.6875L27.371112500000002,16.588250000000002L20.6328125,16.588250000000002L20.6328125,15.6875ZM20.6328125,17.70275L27.371112500000002,17.70275L27.371112500000002,18.6132L20.6328125,18.6132L20.6328125,17.70275ZM16.7395625,19.7605L31.2858125,19.7605L31.2858125,20.7797L16.7395625,20.7797L16.7395625,19.7605ZM20.0925625,22.630000000000003L27.9453125,22.630000000000003L27.9453125,23.6278L20.0925625,23.6278L20.0925625,22.630000000000003ZM19.9268125,12.064L21.1210625,12.064L21.1210625,20.3258L19.9268125,20.3258L19.9268125,12.064ZM26.9526125,12.07025L28.1653125,12.07025L28.1653125,20.332L26.9526125,20.332L26.9526125,12.07025ZM23.3675625,21.287L24.5840625,21.287L24.5840625,25.8918L23.3675625,25.8918L23.3675625,21.287ZM20.7680625,20.041L21.7733125,20.4192Q21.2943125,21.2442,20.5808125,21.999499999999998Q19.8675625,22.7545,19.0375625,23.3657Q18.2078125,23.9767,17.3650625,24.3733Q17.2830625,24.2282,17.1440625,24.0612Q17.0053125,23.894199999999998,16.8570625,23.7305Q16.7088125,23.566499999999998,16.5760625,23.4563Q17.3913125,23.1325,18.1863125,22.6035Q18.9815625,22.074199999999998,19.6570625,21.4055Q20.3325625,20.7367,20.7680625,20.041ZM27.317812500000002,20.041Q27.740112500000002,20.7145,28.3978125,21.3368Q29.055612500000002,21.9587,29.8573125,22.4525Q30.6591125,22.945999999999998,31.4848125,23.25Q31.3618125,23.360500000000002,31.2073125,23.5245Q31.0528125,23.688200000000002,30.9188125,23.8632Q30.7848125,24.038,30.687112499999998,24.1833Q29.8426125,23.8223,29.0233125,23.230800000000002Q28.2043125,22.639,27.5198125,21.9115Q26.8353125,21.183799999999998,26.3658125,20.4032L27.317812500000002,20.041ZM32.943312500000005,15.074L39.161812499999996,15.074L39.161812499999996,16.187L32.943312500000005,16.187L32.943312500000005,15.074ZM32.7596125,23.9867Q33.5400125,23.819699999999997,34.5543125,23.5887Q35.5686125,23.3577,36.706312499999996,23.082Q37.8441125,22.805999999999997,38.9773125,22.533L39.0938125,23.6425Q37.505512499999995,24.0533,35.9033125,24.459Q34.3013125,24.8645,33.044312500000004,25.1817L32.7596125,23.9867ZM33.579612499999996,17.100749999999998L34.5356125,16.920749999999998Q34.734812500000004,17.8345,34.9018125,18.860500000000002Q35.0688125,19.886499999999998,35.189012500000004,20.8708Q35.3096125,21.8547,35.3576125,22.6467L34.3481125,22.8355Q34.3126125,22.0437,34.1983125,21.0565Q34.0841125,20.069000000000003,33.9250125,19.0337Q33.7660125,17.99825,33.579612499999996,17.100749999999998ZM37.2823125,16.723750000000003L38.4110125,16.93275Q38.286812499999996,17.73,38.1298125,18.613Q37.9731125,19.496000000000002,37.8018125,20.3842Q37.630812500000005,21.2725,37.4578125,22.0728Q37.2851125,22.872999999999998,37.1090125,23.5013L36.2196125,23.286Q36.3733125,22.6547,36.5288125,21.8372Q36.684312500000004,21.0197,36.827312500000005,20.1205Q36.9703125,19.221,37.0876125,18.345750000000002Q37.2048125,17.47025,37.2823125,16.723750000000003ZM34.8105125,12.4635L35.8446125,12.1475Q36.1938125,12.70475,36.5146125,13.369250000000001Q36.8353125,14.0335,36.9828125,14.52675L35.892112499999996,14.905999999999999Q35.750812499999995,14.406500000000001,35.446012499999995,13.716750000000001Q35.1413125,13.027000000000001,34.8105125,12.4635ZM42.780612500000004,15.37575L47.3708125,15.37575L47.3708125,16.52L42.780612500000004,16.52L42.780612500000004,15.37575ZM40.0296125,24.8727L46.0793125,24.8727L46.0793125,25.9983L40.0296125,25.9983L40.0296125,24.8727ZM42.0791125,12.048L43.2981125,12.048L43.2981125,20.206699999999998L42.0791125,20.206699999999998L42.0791125,12.048ZM39.474112500000004,19.7118L46.695612499999996,19.7118L46.695612499999996,26.696L45.4731125,26.696L45.4731125,20.8372L40.646812499999996,20.8372L40.646812499999996,26.76L39.474112500000004,26.76L39.474112500000004,19.7118ZM49.0858125,12.64475L62.9893125,12.64475L62.9893125,13.52075L49.0858125,13.52075L49.0858125,12.64475ZM53.5093125,13.01L54.5973125,13.01L54.5973125,16.61725L53.5093125,16.61725L53.5093125,13.01ZM57.2760125,13.01L58.4013125,13.01L58.4013125,16.61725L57.2760125,16.61725L57.2760125,13.01ZM50.9418125,15.11L50.9418125,16.1055L61.1113125,16.1055L61.1113125,15.11L50.9418125,15.11ZM49.8475125,14.309000000000001L62.2555125,14.309000000000001L62.2555125,16.91L49.8475125,16.91L49.8475125,14.309000000000001ZM55.0451125,17.76625L62.6911125,17.76625L62.6911125,18.6207L55.0451125,18.6207L55.0451125,17.76625ZM55.5228125,21.130000000000003L55.5228125,21.795L60.7413125,21.795L60.7413125,21.130000000000003L55.5228125,21.130000000000003ZM55.5228125,19.842L55.5228125,20.4877L60.7413125,20.4877L60.7413125,19.842L55.5228125,19.842ZM54.4935125,19.1847L61.7981125,19.1847L61.7981125,22.4525L54.4935125,22.4525L54.4935125,19.1847ZM51.7083125,17.04725L52.7748125,17.39725Q52.3658125,17.966250000000002,51.8110125,18.5357Q51.2565125,19.105,50.6408125,19.601Q50.0253125,20.097,49.4181125,20.4685Q49.2791125,20.3048,49.0675125,20.079Q48.8563125,19.8532,48.6888125,19.7145Q49.2648125,19.377499999999998,49.8395125,18.936700000000002Q50.4143125,18.496000000000002,50.9106125,18.00425Q51.4071125,17.51225,51.7083125,17.04725ZM52.1056125,19.0927L53.1435125,19.446199999999997Q52.6868125,20.153,52.0583125,20.8762Q51.4298125,21.5992,50.7133125,22.246000000000002Q49.9968125,22.8925,49.2643125,23.3857Q49.1538125,23.2122,48.9486125,22.982Q48.7435125,22.7517,48.5885125,22.613Q49.2738125,22.1768,49.9481125,21.5933Q50.6223125,21.0098,51.1893125,20.3575Q51.7563125,19.705199999999998,52.1056125,19.0927ZM55.1463125,16.904249999999998L56.1906125,17.18825Q55.7133125,18.22475,54.9768125,19.183Q54.2405125,20.141,53.4531125,20.807000000000002Q53.3711125,20.7125,53.2098125,20.5785Q53.0488125,20.444499999999998,52.8846125,20.3057Q52.7203125,20.1667,52.5938125,20.091Q53.3823125,19.4912,54.0571125,18.6545Q54.7321125,17.81775,55.1463125,16.904249999999998ZM56.2506125,23.0945L61.0773125,23.0945L61.0773125,23.858L55.6418125,23.858L56.2506125,23.0945ZM60.7318125,23.0945L60.9498125,23.0945L61.1556125,23.05L61.8053125,23.4265Q61.2143125,24.225,60.3043125,24.799Q59.3945125,25.3727,58.2673125,25.7665Q57.1401125,26.1602,55.8825125,26.4085Q54.6250125,26.657,53.3421125,26.7885Q53.2788125,26.599,53.1523125,26.3603Q53.0260125,26.1217,52.8898125,25.9608Q54.1008125,25.8638,55.2825125,25.663Q56.4645125,25.4622,57.5223125,25.1397Q58.5801125,24.817,59.4093125,24.3442Q60.2386125,23.871499999999997,60.7318125,23.2502L60.7318125,23.0945ZM55.7033125,23.6525Q56.4178125,24.295,57.6291125,24.7582Q58.8405125,25.2215,60.3380125,25.5002Q61.8356125,25.7792,63.4133125,25.8892Q63.2586125,26.0443,63.0943125,26.2952Q62.9300125,26.5462,62.8383125,26.726Q61.6390125,26.6168,60.4688125,26.395Q59.2988125,26.1735,58.2466125,25.8335Q57.1943125,25.4935,56.3293125,25.0322Q55.4645125,24.571,54.8600125,23.9852L55.7033125,23.6525ZM56.7383125,22.0322L57.6933125,22.335Q56.9803125,23.188499999999998,55.8598125,23.8565Q54.7393125,24.5243,53.4628125,24.9802Q53.3551125,24.835,53.1476125,24.6365Q52.9403125,24.438000000000002,52.7818125,24.317700000000002Q54.0148125,23.9065,55.0806125,23.3095Q56.1463125,22.7122,56.7383125,22.0322ZM50.7183125,21.2458L51.5103125,20.453699999999998L51.7973125,20.5385L51.7973125,26.7698L50.7183125,26.7698L50.7183125,21.2458ZM64.7355125,25.2677L79.3030125,25.2677L79.3030125,26.3245L64.7355125,26.3245L64.7355125,25.2677ZM65.7456125,14.144L78.2291125,14.144L78.2291125,15.117L65.7456125,15.117L65.7456125,14.144ZM65.1071125,18.933L78.9406125,18.933L78.9406125,19.9087L65.1071125,19.9087L65.1071125,18.933ZM66.5441125,16.50025L77.5436125,16.50025L77.5436125,17.457250000000002L66.5441125,17.457250000000002L66.5441125,16.50025ZM66.4583125,21.1388L77.6435125,21.1388L77.6435125,25.7655L76.4746125,25.7655L76.4746125,22.1677L74.2263125,22.1677L74.2263125,25.7655L73.1196125,25.7655L73.1196125,22.1677L70.89711249999999,22.1677L70.89711249999999,25.7655L69.7903125,25.7655L69.7903125,22.1677L67.5835125,22.1677L67.5835125,25.7655L66.4583125,25.7655L66.4583125,21.1388ZM68.0333125,12.419L69.08511250000001,12.05575Q69.4418125,12.46825,69.75981250000001,12.988Q70.0778125,13.5075,70.2316125,13.89425L69.1196125,14.343Q68.9783125,13.95,68.6706125,13.402000000000001Q68.3631125,12.85375,68.0333125,12.419ZM74.94501249999999,12.03275L76.1321125,12.3655Q75.7773125,13.02,75.3898125,13.6465Q75.0023125,14.27275,74.6628125,14.743L73.6611125,14.406500000000001Q73.99781250000001,13.915,74.3621125,13.24075Q74.7266125,12.56625,74.94501249999999,12.03275ZM71.38081249999999,14.590250000000001L72.6098125,14.590250000000001L72.6098125,19.508200000000002L71.38081249999999,19.508200000000002L71.38081249999999,14.590250000000001ZM83.0063125,18.11325L92.1648125,18.11325L92.1648125,19.295L83.0063125,19.295L83.0063125,18.11325ZM91.7545125,18.11325L93.0020125,18.11325Q93.0020125,18.11325,92.9988125,18.224Q92.9958125,18.33475,92.9958125,18.469250000000002Q92.9958125,18.6038,92.9798125,18.689Q92.8928125,20.5273,92.8013125,21.823700000000002Q92.7098125,23.119999999999997,92.5990125,23.9712Q92.4886125,24.8223,92.3378125,25.313Q92.1871125,25.8037,91.9693125,26.0403Q91.7213125,26.3417,91.4300125,26.4543Q91.1388125,26.567,90.7271125,26.598Q90.3243125,26.6327,89.6368125,26.6243Q88.9493125,26.616,88.1930125,26.5707Q88.1708125,26.3027,88.0700125,25.9625Q87.9696125,25.6225,87.7961125,25.3668Q88.5795125,25.4345,89.2508125,25.4522Q89.9223125,25.47,90.2066125,25.47Q90.6848125,25.47,90.8893125,25.2752Q91.1043125,25.054,91.2601125,24.319000000000003Q91.4160125,23.5837,91.5368125,22.1355Q91.6578125,20.6873,91.7545125,18.3375L91.7545125,18.11325ZM85.1956125,12.38375L86.4681125,12.73625Q85.9276125,14.076,85.1826125,15.3015Q84.4375125,16.527,83.5628125,17.557499999999997Q82.6881125,18.587699999999998,81.7378125,19.355Q81.6373125,19.226,81.4448125,19.0545Q81.2526125,18.883,81.0570125,18.71Q80.8618125,18.5367,80.7103125,18.436Q81.6676125,17.744500000000002,82.5140125,16.795749999999998Q83.3608125,15.84675,84.0475125,14.722000000000001Q84.7343125,13.597000000000001,85.1956125,12.38375ZM90.7790125,12.35175Q91.1571125,13.155999999999999,91.6836125,13.996749999999999Q92.2103125,14.8375,92.8281125,15.622Q93.4458125,16.4065,94.1035125,17.067Q94.7613125,17.727249999999998,95.3853125,18.203Q95.2338125,18.31975,95.0495125,18.493000000000002Q94.8653125,18.666,94.6983125,18.8567Q94.5313125,19.0472,94.4146125,19.211Q93.7845125,18.666,93.1253125,17.93425Q92.4663125,17.2025,91.8391125,16.3475Q91.2121125,15.49225,90.6538125,14.5855Q90.0956125,13.67875,89.6706125,12.78975L90.7790125,12.35175ZM86.1828125,18.44375L87.4463125,18.44375Q87.3050125,19.755000000000003,87.0211125,20.996000000000002Q86.7373125,22.2367,86.1435125,23.3418Q85.5498125,24.4467,84.5043125,25.3353Q83.4588125,26.2237,81.7910125,26.824Q81.7216125,26.67,81.5956125,26.481Q81.4695125,26.2922,81.3230125,26.1115Q81.1765125,25.9307,81.0413125,25.8078Q82.6086125,25.2895,83.5738125,24.503Q84.5390125,23.7165,85.0651125,22.739Q85.5911125,21.761200000000002,85.8273125,20.6682Q86.0638125,19.575,86.1828125,18.44375ZM96.9773125,14.51325L111.0668125,14.51325L111.0668125,15.6735L96.9773125,15.6735L96.9773125,14.51325ZM104.1591125,16.44625L105.3691125,16.44625L105.3691125,26.7892L104.1591125,26.7892L104.1591125,16.44625ZM99.5603125,18.5982L109.5103125,18.5982L109.5103125,19.746000000000002L100.7543125,19.746000000000002L100.7543125,25.2865L99.5603125,25.2865L99.5603125,18.5982ZM108.9805125,18.5982L110.1871125,18.5982L110.1871125,23.7773Q110.1871125,24.252499999999998,110.0536125,24.523Q109.9203125,24.7935,109.5388125,24.9422Q109.1731125,25.075,108.5138125,25.1065Q107.8548125,25.138,106.8275125,25.1283Q106.7928125,24.8825,106.6743125,24.5802Q106.5560125,24.278,106.4200125,24.041Q106.9326125,24.057000000000002,107.3906125,24.060299999999998Q107.8486125,24.063200000000002,108.1773125,24.058500000000002Q108.5061125,24.0535,108.6313125,24.0535Q108.8366125,24.0437,108.9085125,23.983Q108.9805125,23.922,108.9805125,23.758499999999998L108.9805125,18.5982ZM102.3926125,12.04525L103.6276125,12.3355Q103.0550125,14.19525,102.1786125,16.01025Q101.3021125,17.82525,100.0755125,19.3975Q98.8493125,20.9697,97.2163125,22.1175Q97.1406125,21.9695,97.0111125,21.784Q96.8815125,21.5982,96.7506125,21.4077Q96.6198125,21.217,96.4996125,21.0977Q97.6355125,20.329,98.5688125,19.297Q99.5023125,18.265,100.2340125,17.0655Q100.9661125,15.86575,101.5058125,14.58925Q102.0458125,13.312750000000001,102.3926125,12.04525Z" fill="#FFFFFF" fill-opacity="1" style="mix-blend-mode:passthrough"/></g></g></svg>